<svg width="204" height="37" viewBox="0 0 204 37" fill="none" xmlns="http://www.w3.org/2000/svg">
<rect width="37" height="37" fill="#D9D9D9"/>
<path d="M18.9625 0.925049L23.0122 13.3887H36.1172L25.5151 21.0916L29.5647 33.5552L18.9625 25.8523L8.36037 33.5552L12.41 21.0916L1.80787 13.3887H14.9129L18.9625 0.925049Z" fill="#4C2A6E"/>
<rect width="37" height="37" fill="#D9D9D9"/>
<path d="M18.9625 0.925049L23.0122 13.3887H36.1172L25.5151 21.0916L29.5647 33.5552L18.9625 25.8523L8.36037 33.5552L12.41 21.0916L1.80787 13.3887H14.9129L18.9625 0.925049Z" fill="#4C2A6E"/>
<rect width="37" height="37" fill="#D9D9D9"/>
<path d="M18.9625 0.925049L23.0122 13.3887H36.1172L25.5151 21.0916L29.5647 33.5552L18.9625 25.8523L8.36037 33.5552L12.41 21.0916L1.80787 13.3887H14.9129L18.9625 0.925049Z" fill="#4C2A6E"/>
<rect width="37" height="37" fill="#D9D9D9"/>
<path d="M18.9625 0.925049L23.0122 13.3887H36.1172L25.5151 21.0916L29.5647 33.5552L18.9625 25.8523L8.36037 33.5552L12.41 21.0916L1.80787 13.3887H14.9129L18.9625 0.925049Z" fill="#4C2A6E"/>
<rect width="37" height="37" fill="#D9D9D9"/>
<path d="M18.9625 0.925049L23.0122 13.3887H36.1172L25.5151 21.0916L29.5647 33.5552L18.9625 25.8523L8.36037 33.5552L12.41 21.0916L1.80787 13.3887H14.9129L18.9625 0.925049Z" fill="#4C2A6E"/>
<rect x="41.625" width="37" height="37" fill="#D9D9D9"/>
<path d="M60.5875 0.925049L64.6372 13.3887H77.7422L67.1401 21.0916L71.1897 33.5552L60.5875 25.8523L49.9854 33.5552L54.035 21.0916L43.4329 13.3887H56.5379L60.5875 0.925049Z" fill="#4C2A6E"/>
<rect x="83.25" width="37" height="37" fill="#D9D9D9"/>
<path d="M102.213 0.925049L106.262 13.3887H119.367L108.765 21.0916L112.815 33.5552L102.213 25.8523L91.6104 33.5552L95.66 21.0916L85.0579 13.3887H98.1629L102.213 0.925049Z" fill="#4C2A6E"/>
<rect x="124.875" width="37" height="37" fill="#D9D9D9"/>
<path d="M143.838 0.925049L147.887 13.3887H160.992L150.39 21.0916L154.44 33.5552L143.838 25.8523L133.235 33.5552L137.285 21.0916L126.683 13.3887H139.788L143.838 0.925049Z" fill="#4C2A6E"/>
<rect x="166.5" width="37" height="37" fill="#D9D9D9"/>
<path d="M185.463 0.925049L189.512 13.3887H202.617L192.015 21.0916L196.065 33.5552L185.463 25.8523L174.86 33.5552L178.91 21.0916L168.308 13.3887H181.413L185.463 0.925049Z" fill="#4C2A6E"/>
</svg>
