<svg width="36" height="37" viewBox="0 0 36 37" fill="none" xmlns="http://www.w3.org/2000/svg">
<path d="M17.5497 4.70787C17.8369 4.5824 18.1634 4.5824 18.4505 4.70787C24.0288 7.14511 29.3155 10.1245 34.2443 13.5793C34.601 13.8293 34.7813 14.2627 34.7072 14.692C34.633 15.1212 34.3178 15.4691 33.8979 15.585C32.8705 15.8685 31.852 16.174 30.8427 16.4995C26.7461 17.8206 22.8027 19.483 19.0457 21.4531L19.0408 21.4557C18.8705 21.545 18.7005 21.635 18.531 21.7256C18.1997 21.9026 17.8019 21.9026 17.4706 21.7256C17.2994 21.6341 17.1278 21.5433 16.9559 21.4531C15.0982 20.4789 13.1949 19.58 11.25 18.7604V18.4249C11.25 18.2278 11.3511 18.053 11.5076 17.9582C13.7653 16.5904 16.0941 15.3284 18.4871 14.179C19.0472 13.91 19.2831 13.2379 19.0141 12.6778C18.7451 12.1177 18.073 11.8818 17.5129 12.1508C15.054 13.3319 12.6613 14.6286 10.3417 16.0338C9.66167 16.4458 9.20449 17.1201 9.0541 17.8756C7.77172 17.3823 6.47248 16.9228 5.15744 16.4988C4.1482 16.1733 3.12966 15.8685 2.10232 15.5849C1.68244 15.469 1.36719 15.1212 1.29306 14.6919C1.21893 14.2627 1.39924 13.8293 1.75592 13.5793C6.68468 10.1245 11.9715 7.1451 17.5497 4.70787Z" fill="#4C2A6E"/>
<path d="M19.5913 23.7101C23.2496 21.7554 27.0931 20.1029 31.0887 18.7858C31.2901 20.9081 31.4186 23.0513 31.4719 25.2132C31.4833 25.677 31.2088 26.1003 30.7807 26.279C26.504 28.0646 22.4361 30.251 18.6239 32.7915C18.2461 33.0432 17.754 33.0432 17.3762 32.7915C13.564 30.251 9.49609 28.0646 5.21939 26.279C4.79124 26.1003 4.51674 25.677 4.52817 25.2132C4.58143 23.0512 4.71002 20.9077 4.91141 18.7853C6.29291 19.2407 7.65623 19.7362 9 20.2703V22.1759C8.32747 22.565 7.875 23.2921 7.875 24.1249C7.875 24.8679 8.23512 25.5268 8.79033 25.9365C8.65606 26.5075 8.45734 27.0662 8.19415 27.6012C8.8732 27.9216 9.54643 28.2524 10.2136 28.5934C10.5937 27.8205 10.8692 27.0093 11.0402 26.181C11.8267 25.8304 12.375 25.0417 12.375 24.1249C12.375 23.2921 11.9225 22.565 11.25 22.1759V21.2088C13.0071 21.9765 14.7283 22.8114 16.4103 23.7101C17.4041 24.2411 18.5974 24.2411 19.5913 23.7101Z" fill="#4C2A6E"/>
<path d="M6.69334 29.6934C7.32203 29.0647 7.82253 28.3566 8.19415 27.6012C8.8732 27.9216 9.54643 28.2524 10.2136 28.5934C9.73582 29.5651 9.09246 30.4762 8.28433 31.2844C7.84499 31.7237 7.13267 31.7237 6.69334 31.2844C6.254 30.845 6.254 30.1327 6.69334 29.6934Z" fill="#4C2A6E"/>
</svg>
