<svg width="199" height="60" viewBox="0 0 199 60" fill="none" xmlns="http://www.w3.org/2000/svg">
<path d="M0 48.1228C0 54.1979 4.92487 59.1228 11 59.1228H187.558C193.633 59.1228 198.558 54.1979 198.558 48.1228V11.1228C198.558 5.04767 193.633 0.122803 187.558 0.122803H11C4.92487 0.122803 0 5.04767 0 11.1228V48.1228Z" fill="#1C1A16"/>
<g clip-path="url(#clip0_1_2908)">
<path d="M63.9201 11.6522H36.1551C30.3532 11.6522 25.6499 16.3556 25.6499 22.1574V49.9225C25.6499 55.7243 30.3532 60.4276 36.1551 60.4276H63.9201C69.722 60.4276 74.4253 55.7243 74.4253 49.9225V22.1574C74.4253 16.3556 69.722 11.6522 63.9201 11.6522Z" fill="#E14459"/>
<path d="M37.5395 14.8411C37.1717 14.8416 36.8192 14.9875 36.5593 15.2469C36.2995 15.5063 36.1536 15.8578 36.1538 16.2243C36.1541 16.5909 36.3005 16.9423 36.5609 17.2013C36.8212 17.4604 37.1741 17.6058 37.5419 17.6056C37.9098 17.6055 38.2626 17.4597 38.5227 17.2005C38.7827 16.9412 38.9288 16.5896 38.9288 16.223V16.2206C38.9282 15.854 38.7815 15.5027 38.5209 15.2439C38.2604 14.9851 37.9074 14.8406 37.5395 14.8411ZM62.3595 14.8411C61.9917 14.8416 61.6392 14.9875 61.3794 15.2469C61.1195 15.5063 60.9737 15.8578 60.9738 16.2243C60.9742 16.591 61.1207 16.9425 61.3811 17.2015C61.6416 17.4606 61.9946 17.606 62.3626 17.6056C62.7305 17.6055 63.0832 17.4597 63.3433 17.2005C63.6034 16.9412 63.7495 16.5896 63.7495 16.223V16.2206C63.7488 15.8539 63.602 15.5025 63.3414 15.2437C63.0807 14.9848 62.7275 14.8404 62.3595 14.8411Z" fill="#C73148"/>
<path d="M37.4846 16.0328C37.0024 16.0586 37.0264 16.7595 37.0264 16.7595C39.6186 21.807 44.3902 24.2821 49.8934 24.2827C55.3893 24.2747 60.2083 21.7719 62.7967 16.7317C62.7967 16.7317 62.899 15.7827 61.889 16.1116C59.2347 20.5112 54.7759 23.1138 49.8965 23.1218C45.0085 23.1231 40.5651 20.5476 37.9059 16.1399C37.7334 16.0568 37.5961 16.0266 37.4846 16.0328ZM55.0241 35.6501L53.5497 40.0411L52.1148 35.6532H50.7137L52.9751 42.0371H54.0658L55.5439 37.8437L57.0194 42.0371H58.1193L60.3764 35.6538H59.0105L57.5725 40.0417L56.0981 35.6507L55.0241 35.6501ZM47.1929 35.6519L44.3323 42.0328H45.6767L46.2291 40.7974L46.2685 40.7044H49.2406L49.8232 42.0328H51.2046L48.3698 35.6895L48.3452 35.6519H47.1929ZM67.9114 35.6519V42.0291H69.2114V35.6525L67.9114 35.6519ZM30.6345 35.6532V42.0389H31.9524V39.4456H34.927V42.0383H36.2455V35.6538H34.9276V38.2299H31.9531V35.6538L30.6345 35.6532ZM42.3443 35.655V39.3101C42.3443 40.3478 41.8208 40.9021 40.8681 40.9021C39.9111 40.9021 39.3839 40.3324 39.3839 39.2657V35.6587H38.0654V39.3101C38.0654 41.1065 39.0815 42.1362 40.8509 42.1362C42.6368 42.1362 43.661 41.0868 43.661 39.2571V35.6544L42.3443 35.655ZM61.4394 35.6575V42.034H66.3434V40.8713H62.7388V39.2904H65.1351V38.1264H62.7388V36.8208H66.2184V35.6581L61.4394 35.6575ZM47.7509 37.2673L48.6907 39.4055L48.7547 39.5527H46.7612L46.824 39.4055L47.7509 37.2673Z" fill="white"/>
</g>
<path d="M77.8491 20.1997V12.1997H83.2397V13.5942H79.5405V15.5005H82.9624V16.895H79.5405V18.8052H83.2554V20.1997H77.8491ZM85.9438 14.1997L87.0454 16.2974L88.1743 14.1997H89.8813L88.1431 17.1997L89.9282 20.1997H88.229L87.0454 18.1255L85.8813 20.1997H84.1626L85.9438 17.1997L84.2251 14.1997H85.9438ZM90.8696 22.4497V14.1997H92.5103V15.2075H92.5845C92.6574 15.0461 92.7629 14.882 92.9009 14.7153C93.0415 14.5461 93.2238 14.4054 93.4478 14.2935C93.6743 14.1789 93.9556 14.1216 94.2915 14.1216C94.729 14.1216 95.1326 14.2362 95.5024 14.4653C95.8722 14.6919 96.1678 15.0343 96.3892 15.4927C96.6105 15.9484 96.7212 16.52 96.7212 17.2075C96.7212 17.8768 96.6131 18.4419 96.397 18.9028C96.1834 19.3612 95.8918 19.7088 95.522 19.9458C95.1548 20.1802 94.7433 20.2974 94.2876 20.2974C93.9647 20.2974 93.6899 20.244 93.4634 20.1372C93.2394 20.0304 93.0558 19.8963 92.9126 19.7349C92.7694 19.5708 92.66 19.4054 92.5845 19.2388H92.5337V22.4497H90.8696ZM92.4985 17.1997C92.4985 17.5565 92.548 17.8677 92.647 18.1333C92.7459 18.3989 92.8892 18.606 93.0767 18.7544C93.2642 18.9002 93.492 18.9731 93.7603 18.9731C94.0311 18.9731 94.2603 18.8989 94.4478 18.7505C94.6353 18.5994 94.7772 18.3911 94.8735 18.1255C94.9725 17.8573 95.022 17.5487 95.022 17.1997C95.022 16.8534 94.9738 16.5487 94.8774 16.2856C94.7811 16.0226 94.6392 15.8169 94.4517 15.6685C94.2642 15.52 94.0337 15.4458 93.7603 15.4458C93.4894 15.4458 93.2603 15.5174 93.0728 15.6606C92.8879 15.8039 92.7459 16.007 92.647 16.27C92.548 16.533 92.4985 16.8429 92.4985 17.1997ZM99.4946 12.1997V20.1997H97.8306V12.1997H99.4946ZM103.539 20.3169C102.932 20.3169 102.407 20.188 101.964 19.9302C101.524 19.6698 101.184 19.3078 100.945 18.8442C100.705 18.3781 100.585 17.8377 100.585 17.2231C100.585 16.6034 100.705 16.0617 100.945 15.5981C101.184 15.132 101.524 14.77 101.964 14.5122C102.407 14.2518 102.932 14.1216 103.539 14.1216C104.145 14.1216 104.669 14.2518 105.109 14.5122C105.552 14.77 105.893 15.132 106.132 15.5981C106.372 16.0617 106.492 16.6034 106.492 17.2231C106.492 17.8377 106.372 18.3781 106.132 18.8442C105.893 19.3078 105.552 19.6698 105.109 19.9302C104.669 20.188 104.145 20.3169 103.539 20.3169ZM103.546 19.0278C103.822 19.0278 104.053 18.9497 104.238 18.7935C104.423 18.6346 104.562 18.4185 104.656 18.145C104.752 17.8716 104.8 17.5604 104.8 17.2114C104.8 16.8625 104.752 16.5513 104.656 16.2778C104.562 16.0044 104.423 15.7882 104.238 15.6294C104.053 15.4705 103.822 15.3911 103.546 15.3911C103.268 15.3911 103.033 15.4705 102.843 15.6294C102.656 15.7882 102.514 16.0044 102.417 16.2778C102.324 16.5513 102.277 16.8625 102.277 17.2114C102.277 17.5604 102.324 17.8716 102.417 18.145C102.514 18.4185 102.656 18.6346 102.843 18.7935C103.033 18.9497 103.268 19.0278 103.546 19.0278ZM107.574 20.1997V14.1997H109.187V15.2466H109.25C109.359 14.8742 109.542 14.5929 109.8 14.4028C110.058 14.2101 110.355 14.1138 110.691 14.1138C110.774 14.1138 110.864 14.119 110.96 14.1294C111.057 14.1398 111.141 14.1541 111.214 14.1724V15.6489C111.136 15.6255 111.028 15.6047 110.89 15.5864C110.752 15.5682 110.626 15.5591 110.511 15.5591C110.266 15.5591 110.048 15.6125 109.855 15.7192C109.665 15.8234 109.514 15.9692 109.402 16.1567C109.292 16.3442 109.238 16.5604 109.238 16.8052V20.1997H107.574ZM114.53 20.3169C113.913 20.3169 113.381 20.1919 112.936 19.9419C112.493 19.6893 112.152 19.3325 111.913 18.8716C111.673 18.408 111.553 17.8599 111.553 17.2271C111.553 16.6099 111.673 16.0682 111.913 15.6021C112.152 15.1359 112.489 14.7726 112.924 14.5122C113.362 14.2518 113.875 14.1216 114.463 14.1216C114.859 14.1216 115.228 14.1854 115.569 14.313C115.913 14.438 116.212 14.6268 116.467 14.8794C116.725 15.132 116.926 15.4497 117.069 15.8325C117.212 16.2127 117.284 16.658 117.284 17.1685V17.6255H112.217V16.5942H115.717C115.717 16.3547 115.665 16.1424 115.561 15.9575C115.457 15.7726 115.312 15.6281 115.127 15.5239C114.945 15.4172 114.733 15.3638 114.491 15.3638C114.238 15.3638 114.014 15.4224 113.819 15.5396C113.626 15.6541 113.475 15.8091 113.366 16.0044C113.256 16.1971 113.2 16.4119 113.198 16.6489V17.6294C113.198 17.9263 113.252 18.1828 113.362 18.3989C113.474 18.6151 113.631 18.7817 113.834 18.8989C114.038 19.0161 114.278 19.0747 114.557 19.0747C114.742 19.0747 114.911 19.0487 115.065 18.9966C115.219 18.9445 115.35 18.8664 115.459 18.7622C115.569 18.658 115.652 18.5304 115.709 18.3794L117.249 18.481C117.17 18.8507 117.01 19.1737 116.768 19.4497C116.528 19.7231 116.219 19.9367 115.838 20.0903C115.461 20.2414 115.025 20.3169 114.53 20.3169ZM120.916 20.1997V14.1997H122.58V20.1997H120.916ZM121.751 13.4263C121.504 13.4263 121.292 13.3442 121.115 13.1802C120.94 13.0135 120.853 12.8143 120.853 12.5825C120.853 12.3534 120.94 12.1567 121.115 11.9927C121.292 11.826 121.504 11.7427 121.751 11.7427C121.999 11.7427 122.21 11.826 122.384 11.9927C122.561 12.1567 122.65 12.3534 122.65 12.5825C122.65 12.8143 122.561 13.0135 122.384 13.1802C122.21 13.3442 121.999 13.4263 121.751 13.4263ZM127.104 14.1997V15.4497H123.491V14.1997H127.104ZM124.311 12.7622H125.975V18.356C125.975 18.5096 125.999 18.6294 126.045 18.7153C126.092 18.7987 126.157 18.8573 126.241 18.8911C126.327 18.925 126.426 18.9419 126.538 18.9419C126.616 18.9419 126.694 18.9354 126.772 18.9224C126.85 18.9067 126.91 18.895 126.952 18.8872L127.213 20.1255C127.13 20.1515 127.013 20.1815 126.862 20.2153C126.711 20.2518 126.527 20.2739 126.311 20.2817C125.91 20.2974 125.558 20.244 125.256 20.1216C124.957 19.9992 124.724 19.8091 124.557 19.5513C124.39 19.2935 124.308 18.9679 124.311 18.5747V12.7622ZM133.445 20.3169C132.838 20.3169 132.313 20.188 131.871 19.9302C131.431 19.6698 131.091 19.3078 130.851 18.8442C130.611 18.3781 130.492 17.8377 130.492 17.2231C130.492 16.6034 130.611 16.0617 130.851 15.5981C131.091 15.132 131.431 14.77 131.871 14.5122C132.313 14.2518 132.838 14.1216 133.445 14.1216C134.052 14.1216 134.575 14.2518 135.015 14.5122C135.458 14.77 135.799 15.132 136.039 15.5981C136.278 16.0617 136.398 16.6034 136.398 17.2231C136.398 17.8377 136.278 18.3781 136.039 18.8442C135.799 19.3078 135.458 19.6698 135.015 19.9302C134.575 20.188 134.052 20.3169 133.445 20.3169ZM133.453 19.0278C133.729 19.0278 133.959 18.9497 134.144 18.7935C134.329 18.6346 134.468 18.4185 134.562 18.145C134.658 17.8716 134.707 17.5604 134.707 17.2114C134.707 16.8625 134.658 16.5513 134.562 16.2778C134.468 16.0044 134.329 15.7882 134.144 15.6294C133.959 15.4705 133.729 15.3911 133.453 15.3911C133.174 15.3911 132.94 15.4705 132.75 15.6294C132.562 15.7882 132.42 16.0044 132.324 16.2778C132.23 16.5513 132.183 16.8625 132.183 17.2114C132.183 17.5604 132.23 17.8716 132.324 18.145C132.42 18.4185 132.562 18.6346 132.75 18.7935C132.94 18.9497 133.174 19.0278 133.453 19.0278ZM139.144 16.731V20.1997H137.48V14.1997H139.066V15.2583H139.136C139.269 14.9093 139.492 14.6333 139.804 14.4302C140.117 14.2244 140.496 14.1216 140.941 14.1216C141.358 14.1216 141.721 14.2127 142.031 14.395C142.341 14.5773 142.582 14.8377 142.753 15.1763C142.925 15.5122 143.011 15.9132 143.011 16.3794V20.1997H141.347V16.6763C141.35 16.3091 141.256 16.0226 141.066 15.8169C140.876 15.6086 140.614 15.5044 140.281 15.5044C140.057 15.5044 139.859 15.5526 139.687 15.6489C139.518 15.7453 139.385 15.8859 139.289 16.0708C139.195 16.2531 139.147 16.4731 139.144 16.731Z" fill="white"/>
<path d="M79.9823 42.4882H77.5107L81.2767 31.5791H84.249L88.0096 42.4882H85.538L82.8054 34.072H82.7202L79.9823 42.4882ZM79.8278 38.2002H85.6659V40.0006H79.8278V38.2002ZM89.2801 45.5563V34.3063H91.5173V35.6806H91.6185C91.7179 35.4605 91.8617 35.2367 92.0499 35.0095C92.2417 34.7786 92.4903 34.5869 92.7957 34.4342C93.1046 34.2779 93.4881 34.1998 93.9462 34.1998C94.5428 34.1998 95.0933 34.3561 95.5975 34.6686C96.1018 34.9775 96.5048 35.4445 96.8067 36.0695C97.1085 36.6909 97.2595 37.4704 97.2595 38.4079C97.2595 39.3205 97.1121 40.0911 96.8173 40.7197C96.5261 41.3447 96.1284 41.8188 95.6242 42.1419C95.1234 42.4615 94.5624 42.6213 93.9409 42.6213C93.5006 42.6213 93.1259 42.5485 92.817 42.4029C92.5116 42.2573 92.2612 42.0745 92.0659 41.8543C91.8706 41.6306 91.7215 41.4051 91.6185 41.1778H91.5492V45.5563H89.2801ZM91.5013 38.3972C91.5013 38.8838 91.5688 39.3081 91.7037 39.6703C91.8386 40.0325 92.034 40.3149 92.2896 40.5173C92.5453 40.7161 92.856 40.8156 93.2218 40.8156C93.5911 40.8156 93.9036 40.7144 94.1593 40.512C94.415 40.306 94.6085 40.0219 94.7399 39.6597C94.8749 39.2939 94.9423 38.8731 94.9423 38.3972C94.9423 37.9249 94.8766 37.5095 94.7453 37.1508C94.6139 36.7921 94.4203 36.5116 94.1646 36.3092C93.909 36.1068 93.5947 36.0056 93.2218 36.0056C92.8525 36.0056 92.54 36.1032 92.2843 36.2985C92.0322 36.4938 91.8386 36.7708 91.7037 37.1295C91.5688 37.4882 91.5013 37.9107 91.5013 38.3972ZM98.7722 45.5563V34.3063H101.009V35.6806H101.111C101.21 35.4605 101.354 35.2367 101.542 35.0095C101.734 34.7786 101.982 34.5869 102.288 34.4342C102.597 34.2779 102.98 34.1998 103.438 34.1998C104.035 34.1998 104.585 34.3561 105.09 34.6686C105.594 34.9775 105.997 35.4445 106.299 36.0695C106.601 36.6909 106.752 37.4704 106.752 38.4079C106.752 39.3205 106.604 40.0911 106.31 40.7197C106.018 41.3447 105.621 41.8188 105.116 42.1419C104.616 42.4615 104.055 42.6213 103.433 42.6213C102.993 42.6213 102.618 42.5485 102.309 42.4029C102.004 42.2573 101.753 42.0745 101.558 41.8543C101.363 41.6306 101.214 41.4051 101.111 41.1778H101.041V45.5563H98.7722ZM100.993 38.3972C100.993 38.8838 101.061 39.3081 101.196 39.6703C101.331 40.0325 101.526 40.3149 101.782 40.5173C102.038 40.7161 102.348 40.8156 102.714 40.8156C103.083 40.8156 103.396 40.7144 103.652 40.512C103.907 40.306 104.101 40.0219 104.232 39.6597C104.367 39.2939 104.435 38.8731 104.435 38.3972C104.435 37.9249 104.369 37.5095 104.237 37.1508C104.106 36.7921 103.913 36.5116 103.657 36.3092C103.401 36.1068 103.087 36.0056 102.714 36.0056C102.345 36.0056 102.032 36.1032 101.777 36.2985C101.524 36.4938 101.331 36.7708 101.196 37.1295C101.061 37.4882 100.993 37.9107 100.993 38.3972ZM115.541 35.1053C115.466 34.8461 115.361 34.6171 115.226 34.4182C115.091 34.2158 114.926 34.0453 114.731 33.9068C114.539 33.7648 114.319 33.6565 114.071 33.5819C113.826 33.5073 113.554 33.47 113.256 33.47C112.698 33.47 112.208 33.6085 111.785 33.8855C111.366 34.1625 111.04 34.5656 110.805 35.0947C110.571 35.6203 110.454 36.263 110.454 37.023C110.454 37.7829 110.569 38.4292 110.8 38.9619C111.031 39.4946 111.357 39.9012 111.78 40.1817C112.203 40.4587 112.702 40.5972 113.277 40.5972C113.799 40.5972 114.245 40.5048 114.614 40.3202C114.987 40.132 115.271 39.8674 115.466 39.5265C115.665 39.1856 115.764 38.7825 115.764 38.3173L116.233 38.3866H113.421V36.6501H117.986V38.0244C117.986 38.9832 117.783 39.8071 117.378 40.496C116.974 41.1813 116.416 41.7105 115.706 42.0833C114.996 42.4526 114.182 42.6373 113.266 42.6373C112.243 42.6373 111.345 42.4118 110.571 41.9608C109.797 41.5063 109.193 40.8617 108.76 40.0272C108.33 39.1892 108.115 38.1948 108.115 37.0443C108.115 36.16 108.243 35.3717 108.499 34.6792C108.758 33.9832 109.12 33.3937 109.585 32.9107C110.051 32.4278 110.592 32.0602 111.21 31.8081C111.828 31.556 112.497 31.4299 113.218 31.4299C113.836 31.4299 114.411 31.5205 114.944 31.7016C115.477 31.8791 115.949 32.1313 116.361 32.458C116.777 32.7847 117.116 33.1735 117.378 33.6245C117.641 34.072 117.81 34.5656 117.884 35.1053H115.541ZM122.009 42.6426C121.487 42.6426 121.021 42.5521 120.613 42.371C120.205 42.1863 119.882 41.9147 119.644 41.556C119.409 41.1938 119.292 40.7428 119.292 40.203C119.292 39.7485 119.375 39.3667 119.542 39.0578C119.709 38.7488 119.937 38.5002 120.224 38.312C120.512 38.1238 120.839 37.9818 121.204 37.8859C121.574 37.79 121.961 37.7225 122.366 37.6835C122.841 37.6338 123.225 37.5876 123.516 37.545C123.807 37.4988 124.019 37.4313 124.15 37.3426C124.281 37.2538 124.347 37.1224 124.347 36.9484V36.9164C124.347 36.5791 124.241 36.3181 124.027 36.1334C123.818 35.9487 123.52 35.8564 123.133 35.8564C122.724 35.8564 122.399 35.947 122.158 36.1281C121.916 36.3056 121.757 36.5294 121.678 36.7992L119.58 36.6288C119.686 36.1316 119.896 35.7019 120.208 35.3397C120.521 34.974 120.924 34.6934 121.417 34.4981C121.915 34.2992 122.49 34.1998 123.143 34.1998C123.598 34.1998 124.033 34.2531 124.448 34.3596C124.867 34.4661 125.238 34.6313 125.562 34.855C125.888 35.0787 126.146 35.3664 126.334 35.7179C126.522 36.0659 126.616 36.4832 126.616 36.9697V42.4882H124.464V41.3536H124.4C124.269 41.6093 124.093 41.8348 123.873 42.0301C123.653 42.2218 123.388 42.3727 123.079 42.4828C122.77 42.5894 122.413 42.6426 122.009 42.6426ZM122.659 41.0766C122.992 41.0766 123.287 41.0109 123.543 40.8795C123.798 40.7446 123.999 40.5634 124.145 40.3362C124.29 40.1089 124.363 39.8514 124.363 39.5638V38.6955C124.292 38.7417 124.194 38.7843 124.07 38.8234C123.949 38.8589 123.813 38.8926 123.66 38.9246C123.507 38.953 123.355 38.9796 123.202 39.0045C123.049 39.0258 122.911 39.0453 122.786 39.0631C122.52 39.1022 122.287 39.1643 122.089 39.2495C121.89 39.3347 121.735 39.4502 121.625 39.5958C121.515 39.7378 121.46 39.9154 121.46 40.1284C121.46 40.4374 121.572 40.6735 121.796 40.8369C122.023 40.9967 122.311 41.0766 122.659 41.0766ZM130.646 31.5791V42.4882H128.377V31.5791H130.646ZM134.733 31.5791V42.4882H132.464V31.5791H134.733ZM140.279 42.648C139.438 42.648 138.713 42.4775 138.106 42.1366C137.502 41.7921 137.037 41.3056 136.71 40.6771C136.384 40.045 136.22 39.2975 136.22 38.4345C136.22 37.5929 136.384 36.8543 136.71 36.2186C137.037 35.583 137.497 35.0876 138.09 34.7325C138.687 34.3774 139.386 34.1998 140.189 34.1998C140.728 34.1998 141.231 34.2868 141.696 34.4608C142.165 34.6313 142.573 34.8887 142.921 35.2332C143.273 35.5776 143.546 36.0109 143.742 36.5329C143.937 37.0514 144.035 37.6586 144.035 38.3546V38.9779H137.126V37.5716H141.899C141.899 37.2449 141.828 36.9555 141.686 36.7034C141.543 36.4512 141.346 36.2541 141.094 36.1121C140.846 35.9665 140.556 35.8937 140.226 35.8937C139.882 35.8937 139.576 35.9736 139.31 36.1334C139.047 36.2897 138.841 36.5009 138.692 36.7673C138.543 37.0301 138.466 37.323 138.463 37.6462V38.9832C138.463 39.388 138.537 39.7378 138.687 40.0325C138.839 40.3273 139.054 40.5546 139.331 40.7144C139.608 40.8742 139.937 40.9541 140.317 40.9541C140.569 40.9541 140.799 40.9186 141.009 40.8475C141.219 40.7765 141.398 40.67 141.547 40.5279C141.696 40.3859 141.81 40.2119 141.888 40.0059L143.987 40.1444C143.88 40.6487 143.662 41.089 143.331 41.4654C143.005 41.8383 142.582 42.1295 142.064 42.339C141.549 42.545 140.954 42.648 140.279 42.648ZM145.515 42.4882V34.3063H147.715V35.7339H147.801C147.95 35.2261 148.2 34.8426 148.552 34.5833C148.903 34.3205 149.308 34.1892 149.766 34.1892C149.88 34.1892 150.002 34.1963 150.134 34.2105C150.265 34.2247 150.38 34.2442 150.48 34.2691V36.2825C150.373 36.2506 150.226 36.2222 150.038 36.1973C149.85 36.1725 149.677 36.16 149.521 36.16C149.187 36.16 148.889 36.2328 148.626 36.3784C148.367 36.5205 148.161 36.7193 148.008 36.975C147.859 37.2307 147.785 37.5254 147.785 37.8593V42.4882H145.515ZM153.303 45.5563C153.015 45.5563 152.746 45.5333 152.493 45.4871C152.245 45.4445 152.039 45.3894 151.875 45.322L152.387 43.6281C152.653 43.7098 152.893 43.7541 153.106 43.7612C153.323 43.7683 153.509 43.7186 153.665 43.6121C153.825 43.5056 153.955 43.3245 154.054 43.0688L154.187 42.7225L151.252 34.3063H153.639L155.333 40.3149H155.418L157.128 34.3063H159.53L156.35 43.3724C156.197 43.8127 155.989 44.1963 155.727 44.523C155.467 44.8532 155.139 45.1071 154.741 45.2847C154.344 45.4658 153.864 45.5563 153.303 45.5563Z" fill="white"/>
<defs>
<clipPath id="clip0_1_2908">
<rect width="38.5769" height="38.5769" fill="white" transform="translate(30.6345 9.19971)"/>
</clipPath>
</defs>
</svg>
