<svg width="198" height="52" viewBox="0 0 198 52" fill="none" xmlns="http://www.w3.org/2000/svg">
<path d="M191.06 51.1228H6.94014C3.10563 51.1228 0 48.4176 0 45.0775V6.0453C0 2.7052 3.10563 0 6.94014 0H191.06C194.894 0 198 2.7052 198 6.0453V45.0775C198 48.4176 194.894 51.1228 191.06 51.1228Z" fill="#A6A6A6"/>
<path d="M196.701 45.0776C196.701 47.7828 194.197 49.9635 191.092 49.9635H6.97214C3.86651 49.9635 1.3313 47.7828 1.3313 45.0776V6.04536C1.3313 3.34016 3.86651 1.13184 6.97214 1.13184H191.092C194.197 1.13184 196.733 3.31256 196.733 6.04536L196.701 45.0776Z" fill="black"/>
<path d="M44.2078 25.2853C44.1761 21.1723 48.074 19.1572 48.2642 19.0744C46.0459 16.2588 42.6233 15.8723 41.3874 15.8447C38.5036 15.5687 35.7149 17.3629 34.2254 17.3629C32.736 17.3629 30.4543 15.8723 28.0142 15.9275C24.8769 15.9827 21.9297 17.5562 20.3135 20.0129C16.986 25.0369 19.4578 32.4072 22.6585 36.4374C24.243 38.4249 26.1128 40.6332 28.5529 40.5504C30.9297 40.4676 31.817 39.2254 34.7008 39.2254C37.5529 39.2254 38.3769 40.5504 40.8804 40.4952C43.4473 40.4676 45.0635 38.5077 46.5846 36.4926C48.4226 34.229 49.1515 31.9655 49.1832 31.8551C49.1832 31.8551 44.2712 30.2265 44.2078 25.2853ZM39.5177 13.1671C40.7853 11.7593 41.6726 9.88224 41.4191 7.94995C39.5494 8.03276 37.236 9.08172 35.905 10.4343C34.7325 11.6489 33.655 13.6088 33.9402 15.4583C36.0318 15.5963 38.1867 14.5473 39.5177 13.1671Z" fill="white"/>
<path d="M191.06 0H92.4402L131.07 51.1228H191.06C194.894 51.1228 198 48.4176 198 45.0775V6.0453C198 2.7052 194.894 0 191.06 0Z" fill="url(#paint0_linear_1_2856)"/>
<path d="M78.7501 40.2743H75.4227L73.5846 35.278H67.2466L65.5036 40.2743H62.2712L68.5459 23.2702H72.4438L78.7501 40.2743ZM73.0459 33.1801L71.398 28.7358C71.2079 28.2942 70.891 27.2176 70.4156 25.5338H70.3522C70.1621 26.2515 69.8452 27.328 69.4332 28.7358L67.817 33.1801H73.0459ZM94.8804 33.9806C94.8804 36.0785 94.2149 37.7072 92.9156 38.9217C91.7431 39.9983 90.317 40.5504 88.5741 40.5504C86.7043 40.5504 85.3734 39.9707 84.5494 38.8113V45.2431H81.4438V32.0207C81.4438 30.7233 81.4121 29.3707 81.317 27.9905H84.0741L84.2642 29.9228H84.3276C85.3734 28.4598 86.9579 27.7145 89.0811 27.7145C90.729 27.7145 92.1234 28.2942 93.2325 29.4259C94.3417 30.6129 94.8804 32.1311 94.8804 33.9806ZM91.7114 34.091C91.7114 32.904 91.3945 31.9103 90.7924 31.1374C90.1269 30.3369 89.2079 29.9228 88.067 29.9228C87.3065 29.9228 86.6093 30.1436 85.9755 30.5853C85.3417 31.027 84.9297 31.6067 84.7396 32.352C84.6445 32.628 84.6128 32.904 84.5811 33.1801V35.2228C84.5811 36.1061 84.898 36.879 85.5318 37.4863C86.1656 38.0936 86.9896 38.3973 87.972 38.3973C89.1445 38.3973 90.0635 38.0108 90.729 37.2103C91.3945 36.4374 91.7114 35.3884 91.7114 34.091ZM111.106 33.9806C111.106 36.0785 110.44 37.7072 109.141 38.9217C107.968 39.9983 106.542 40.5504 104.799 40.5504C102.93 40.5504 101.599 39.9707 100.775 38.8113V45.2431H97.6374V32.0207C97.6374 30.7233 97.6058 29.3707 97.5107 27.9905H100.268L100.458 29.9228H100.521C101.567 28.4598 103.152 27.7145 105.275 27.7145C106.923 27.7145 108.317 28.2942 109.426 29.4259C110.535 30.6129 111.106 32.1311 111.106 33.9806ZM107.905 34.091C107.905 32.904 107.588 31.9103 106.986 31.1374C106.321 30.3369 105.402 29.9228 104.261 29.9228C103.5 29.9228 102.803 30.1436 102.169 30.5853C101.535 31.027 101.123 31.6067 100.933 32.352C100.838 32.6832 100.775 32.9593 100.775 33.1801V35.2228C100.775 36.1061 101.092 36.879 101.725 37.4863C102.359 38.0936 103.183 38.3973 104.166 38.3973C105.338 38.3973 106.257 38.0108 106.923 37.2103C107.588 36.4374 107.905 35.3884 107.905 34.091ZM129.201 35.4988C129.201 36.9342 128.63 38.1212 127.458 39.0322C126.19 40.0259 124.416 40.5228 122.134 40.5228C120.042 40.5228 118.363 40.1639 117.063 39.4738L117.792 37.2103C119.155 37.928 120.676 38.2592 122.324 38.2592C123.497 38.2592 124.416 38.0384 125.081 37.5691C125.747 37.0999 126.063 36.4926 126.063 35.7197C126.063 35.0296 125.778 34.4499 125.24 33.9806C124.701 33.5113 123.814 33.0697 122.546 32.6556C119.123 31.5514 117.412 29.9228 117.412 27.7697C117.412 26.3619 118.014 25.2301 119.218 24.3468C120.423 23.4634 122.039 23.0218 124.004 23.0218C125.778 23.0218 127.268 23.2978 128.44 23.8223L127.648 26.0306C126.539 25.5062 125.303 25.2577 123.909 25.2577C122.799 25.2577 121.944 25.5062 121.31 25.9754C120.803 26.3895 120.518 26.914 120.518 27.5213C120.518 28.1837 120.803 28.7634 121.405 29.1775C121.912 29.5916 122.863 30.0056 124.257 30.5025C125.937 31.0822 127.173 31.7723 127.965 32.5728C128.821 33.3457 129.201 34.3119 129.201 35.4988ZM139.564 30.0608H136.109V36.0233C136.109 37.5415 136.711 38.2868 137.947 38.2868C138.518 38.2868 138.961 38.2592 139.342 38.1488L139.437 40.2191C138.835 40.4124 138.011 40.5228 136.997 40.5228C135.761 40.5228 134.81 40.1915 134.113 39.529C133.416 38.8665 133.067 37.7624 133.067 36.2165V30.0332H131.007V27.9905H133.067V25.7546L136.141 24.9541V28.0181H139.595L139.564 30.0608ZM155.092 34.0358C155.092 35.9129 154.458 37.4587 153.222 38.6733C151.923 39.9155 150.211 40.5504 148.056 40.5504C145.997 40.5504 144.349 39.9431 143.113 38.7561C141.877 37.5691 141.275 36.0509 141.275 34.229C141.275 32.3244 141.909 30.7785 143.176 29.564C144.444 28.3494 146.155 27.7421 148.278 27.7421C150.338 27.7421 152.018 28.3494 153.254 29.5363C154.49 30.6957 155.092 32.2139 155.092 34.0358ZM151.859 34.091C151.859 32.9593 151.574 31.9931 151.035 31.1926C150.37 30.2265 149.451 29.7296 148.215 29.7296C146.947 29.7296 145.997 30.2265 145.331 31.1926C144.761 31.9931 144.507 32.9869 144.507 34.1462C144.507 35.278 144.792 36.2441 145.331 37.0447C145.997 38.0108 146.947 38.5077 148.183 38.5077C149.387 38.5077 150.306 38.0108 151.004 37.0171C151.574 36.1889 151.859 35.2228 151.859 34.091ZM165.264 30.3921C164.947 30.3369 164.599 30.3093 164.282 30.3093C163.173 30.3093 162.317 30.6681 161.747 31.3858C161.24 32.0207 160.954 32.8212 160.954 33.815V40.2467H157.817V31.8551C157.817 30.5577 157.785 29.2879 157.722 27.9905H160.447L160.574 30.3369H160.669C160.986 29.5364 161.525 28.8739 162.222 28.4046C162.887 27.9905 163.68 27.7421 164.472 27.7421C164.757 27.7421 165.011 27.7697 165.264 27.7973V30.3921ZM179.271 33.5665C179.271 33.9806 179.24 34.3947 179.144 34.8087H169.764C169.796 36.0233 170.24 36.9618 171.127 37.5967C171.919 38.1764 172.933 38.4525 174.201 38.4525C175.595 38.4525 176.863 38.2592 178.004 37.8728L178.479 39.7499C177.148 40.2467 175.564 40.4952 173.757 40.4952C171.571 40.4952 169.859 39.9431 168.623 38.8113C167.387 37.6796 166.754 36.1889 166.754 34.3119C166.754 32.4624 167.324 30.9166 168.497 29.702C169.701 28.377 171.349 27.7421 173.409 27.7421C175.437 27.7421 176.99 28.4046 178.004 29.702C178.859 30.7509 179.271 32.0207 179.271 33.5665ZM176.292 32.8488C176.324 32.0483 176.102 31.3306 175.69 30.7509C175.152 29.978 174.328 29.6192 173.187 29.6192C172.173 29.6192 171.317 29.978 170.683 30.7233C170.176 31.303 169.859 32.0207 169.764 32.8488H176.292ZM66.3593 17.2525C65.5036 17.2525 64.7431 17.2249 64.1093 17.1421V8.9161C64.9966 8.80568 65.8839 8.75047 66.7712 8.75047C70.3522 8.75047 72.0001 10.2963 72.0001 12.8083C72.0001 15.6791 70.0353 17.2525 66.3593 17.2525ZM66.8663 9.79943C66.391 9.79943 65.979 9.82703 65.6304 9.88224V16.1208C65.8205 16.1484 66.1691 16.1484 66.6762 16.1484C69.0212 16.1484 70.3522 14.989 70.3522 12.8083C70.3522 10.876 69.148 9.79943 66.8663 9.79943ZM77.1339 17.3077C75.1057 17.3077 73.8065 15.9827 73.8065 14.2161C73.8065 12.3666 75.1374 11.0416 77.2607 11.0416C79.2572 11.0416 80.5881 12.2838 80.5881 14.1333C80.5881 15.9827 79.1938 17.3077 77.1339 17.3077ZM77.1973 12.0078C76.0881 12.0078 75.3593 12.9187 75.3593 14.1885C75.3593 15.4307 76.0881 16.3416 77.1656 16.3416C78.2431 16.3416 78.9719 15.3755 78.9719 14.1609C79.0036 12.9187 78.2748 12.0078 77.1973 12.0078ZM92.1234 11.152L89.9684 17.1697H88.5424L87.655 14.5473C87.4332 13.9124 87.2431 13.2499 87.0846 12.5874H87.0529C86.9262 13.2499 86.736 13.9124 86.4825 14.5473L85.5318 17.1697H84.1057L82.0776 11.152H83.6621L84.4543 14.0229C84.6445 14.713 84.8029 15.3478 84.9297 15.9551H84.9614C85.0881 15.4583 85.2466 14.8234 85.5318 14.0229L86.5142 11.152H87.7818L88.7325 13.9676C88.9543 14.6577 89.1445 15.3202 89.3029 15.9551H89.3346C89.4297 15.3478 89.5881 14.6854 89.81 13.9676L90.6656 11.152H92.1234ZM100.078 17.1697H98.5565V13.7192C98.5565 12.6426 98.0811 12.1182 97.1621 12.1182C96.2431 12.1182 95.6093 12.8083 95.6093 13.5812V17.1697H94.0565V12.8635C94.0565 12.339 94.0565 11.7593 93.9931 11.152H95.3557L95.4191 12.0906H95.4508C95.8628 11.4557 96.7184 11.0416 97.6374 11.0416C99.0952 11.0416 100.046 12.0078 100.046 13.5812L100.078 17.1697ZM104.324 17.1697H102.771V8.36401H104.324V17.1697ZM109.933 17.3077C107.905 17.3077 106.606 15.9827 106.606 14.2161C106.606 12.3666 107.937 11.0416 110.06 11.0416C112.056 11.0416 113.387 12.2838 113.387 14.1333C113.387 15.9827 111.993 17.3077 109.933 17.3077ZM109.997 12.0078C108.887 12.0078 108.159 12.9187 108.159 14.1885C108.159 15.4307 108.887 16.3416 109.965 16.3416C111.042 16.3416 111.771 15.3755 111.771 14.1609C111.771 12.9187 111.074 12.0078 109.997 12.0078ZM119.44 17.1697L119.314 16.4796H119.282C118.806 17.0317 118.141 17.3077 117.254 17.3077C116.018 17.3077 115.13 16.5624 115.13 15.5411C115.13 14.0505 116.62 13.2775 119.187 13.2775V13.1671C119.187 12.3666 118.711 11.9802 117.761 11.9802C117.064 11.9802 116.493 12.1182 115.954 12.4218L115.637 11.5385C116.271 11.1796 117.063 11.014 118.014 11.014C119.821 11.014 120.74 11.8421 120.74 13.4984V15.7067C120.74 16.314 120.771 16.7833 120.835 17.1421L119.44 17.1697ZM119.218 14.1609C117.507 14.1609 116.652 14.5197 116.652 15.3755C116.652 16.0103 117.095 16.314 117.697 16.314C118.49 16.314 119.218 15.7895 119.218 15.0994V14.1609ZM128.187 17.1697L128.123 16.2036H128.092C127.648 16.9213 126.919 17.3077 125.873 17.3077C124.194 17.3077 122.958 16.038 122.958 14.2437C122.958 12.3666 124.225 11.0416 126 11.0416C126.919 11.0416 127.585 11.3177 127.965 11.8697H127.997V8.36401H129.549V15.5411C129.549 16.1208 129.581 16.6728 129.613 17.1697H128.187ZM127.965 13.6364C127.965 12.7807 127.331 12.063 126.349 12.063C125.208 12.063 124.511 12.9463 124.511 14.1885C124.511 15.4031 125.24 16.2312 126.317 16.2312C127.299 16.2312 127.965 15.4859 127.965 14.6301V13.6364ZM139.278 17.3077C137.25 17.3077 135.951 15.9827 135.951 14.2161C135.951 12.3666 137.282 11.0416 139.405 11.0416C141.402 11.0416 142.733 12.2838 142.733 14.1333C142.733 15.9827 141.338 17.3077 139.278 17.3077ZM139.342 12.0078C138.233 12.0078 137.535 12.9187 137.535 14.1885C137.535 15.4307 138.264 16.3416 139.342 16.3416C140.419 16.3416 141.148 15.3755 141.148 14.1609C141.116 12.9187 140.419 12.0078 139.342 12.0078ZM151.004 17.1697H149.451V13.7192C149.451 12.6426 148.975 12.1182 148.056 12.1182C147.137 12.1182 146.535 12.8083 146.535 13.5812V17.1697H144.983V12.8635C144.983 12.339 144.983 11.7593 144.919 11.152H146.282L146.345 12.0906H146.377C146.789 11.4557 147.644 11.0416 148.564 11.0416C150.021 11.0416 150.972 12.0078 150.972 13.5812V17.1697H151.004ZM161.335 12.1458H159.655V15.0718C159.655 15.8171 159.94 16.176 160.542 16.176C160.828 16.176 161.049 16.1484 161.24 16.1208L161.271 17.1421C160.986 17.2525 160.574 17.2801 160.067 17.2801C158.863 17.2801 158.134 16.7004 158.134 15.1822V12.1458H157.12V11.152H158.134V10.0479L159.655 9.66141V11.152H161.335V12.1458ZM169.479 17.1697H167.958V13.7468C167.958 12.6703 167.483 12.1182 166.564 12.1182C165.771 12.1182 165.011 12.5874 165.011 13.5536V17.1973H163.49V8.36401H165.011V11.9802H165.042C165.518 11.3177 166.215 10.9864 167.134 10.9864C168.592 10.9864 169.479 11.9801 169.479 13.5536V17.1697ZM177.814 14.4921H173.187C173.218 15.6239 174.074 16.2864 175.373 16.2864C176.071 16.2864 176.673 16.176 177.243 16.0103L177.497 16.9489C176.831 17.1973 176.071 17.3077 175.183 17.3077C173.028 17.3077 171.729 16.1208 171.729 14.2713C171.729 12.4218 173.028 11.0416 174.993 11.0416C176.768 11.0416 177.877 12.1734 177.877 13.9124C177.877 14.0781 177.877 14.2713 177.814 14.4921ZM176.419 13.526C176.419 12.5874 175.88 11.9249 174.898 11.9249C174.011 11.9249 173.314 12.5874 173.218 13.526H176.419Z" fill="white"/>
<defs>
<linearGradient id="paint0_linear_1_2856" x1="145.228" y1="51.2433" x2="145.228" y2="-686.368" gradientUnits="userSpaceOnUse">
<stop stop-color="#1A1A1A" stop-opacity="0.1"/>
<stop offset="0.123" stop-color="#212121" stop-opacity="0.151"/>
<stop offset="0.308" stop-color="#353535" stop-opacity="0.227"/>
<stop offset="0.532" stop-color="#575757" stop-opacity="0.318"/>
<stop offset="0.783" stop-color="#858585" stop-opacity="0.421"/>
<stop offset="1" stop-color="#B3B3B3" stop-opacity="0.51"/>
</linearGradient>
</defs>
</svg>
