<svg width="26" height="35" viewBox="0 0 26 35" fill="none" xmlns="http://www.w3.org/2000/svg">
<g clip-path="url(#clip0_118_834)">
<path d="M10.1546 1.46447C10.1546 1.46447 6.40914 0.368869 3.05834 3.63124C-0.299509 6.89709 -1.57852 13.3765 2.80113 18.8161C6.99755 24.0289 5.53532 26.1817 4.3303 26.8028C3.12176 27.4238 9.58024 27.1691 10.44 23.994C11.2997 20.8154 13.0191 14.5767 13.0191 14.5767C13.0191 14.5767 9.79517 5.50841 9.71413 5.27114C9.63309 5.03039 10.1546 1.46447 10.1546 1.46447Z" fill="#4C2A6E"/>
<path d="M6.57766 3.68018C6.09847 4.03956 4.63272 5.51897 4.2839 6.80647C3.93507 8.09397 4.03021 8.20562 4.17115 8.66619C4.40722 9.4373 3.56864 9.95369 3.11059 10.341C2.39885 10.9411 1.57436 11.3703 2.40238 11.9495C3.32904 12.602 2.95203 12.9474 2.59264 13.1672C2.32838 13.3312 2.6772 13.8022 2.78643 13.9453C2.78643 13.9453 2.2262 14.3117 2.49751 14.6466C2.76881 14.9816 3.12821 14.999 3.10354 15.2816C3.07888 15.5608 2.57855 16.5936 3.04717 17.0541C3.51578 17.5147 4.96745 17.4379 5.70737 17.5077C6.33454 17.567 7.18722 17.6438 7.79677 18.3591C9.73819 20.634 6.21475 25.8119 6.21475 25.8119C6.21475 25.8119 10.7424 22.7903 13.9839 19.6501C15.0093 18.6592 14.0756 15.6585 14.0016 15.5643C13.9276 15.4701 9.83333 7.95789 9.83333 7.95789L6.57766 3.68018Z" fill="white"/>
<path d="M6.01108 4.19293C6.01108 4.19293 4.78492 7.3262 9.34779 12.2878C13.5336 16.8377 7.87851 26.0595 2.70609 27.4028C2.70609 27.4028 15.8027 27.982 19.1007 18.2926C22.8109 7.38203 16.9866 2.42741 13.5407 1.23063C10.0912 0.0373371 6.93422 2.04361 6.01108 4.19293Z" fill="#4C2A6E"/>
<path d="M3.19231 9.05352C3.19231 9.05352 4.23525 9.29427 4.61226 8.68018L4.43961 9.2838C4.43961 9.2838 3.79834 9.38848 3.19231 9.05352Z" fill="#FDB171"/>
</g>
<defs>
<clipPath id="clip0_118_834">
<rect width="26" height="34" fill="white" transform="translate(0 0.875)"/>
</clipPath>
</defs>
</svg>
