<svg width="38" height="39" viewBox="0 0 38 39" fill="none" xmlns="http://www.w3.org/2000/svg">
<path fill-rule="evenodd" clip-rule="evenodd" d="M11.875 8.8125C11.875 6.18915 14.0016 4.0625 16.625 4.0625H21.375C23.9984 4.0625 26.125 6.18915 26.125 8.8125V9.13705C27.6014 9.2722 29.0659 9.44894 30.5172 9.6661C32.8195 10.0106 34.4375 12.0134 34.4375 14.284V19.0866C34.4375 21.0042 33.2759 22.8111 31.3717 23.4442C27.4813 24.7377 23.3212 25.4375 19.0001 25.4375C14.6789 25.4375 10.5188 24.7376 6.62826 23.4442C4.7241 22.8111 3.5625 21.0042 3.5625 19.0865V14.284C3.5625 12.0134 5.18052 10.0106 7.48277 9.6661C8.93412 9.44894 10.3986 9.2722 11.875 9.13705V8.8125ZM23.75 8.8125V8.9563C22.1788 8.86089 20.595 8.8125 19 8.8125C17.405 8.8125 15.8212 8.86089 14.25 8.9563V8.8125C14.25 7.50082 15.3133 6.4375 16.625 6.4375H21.375C22.6867 6.4375 23.75 7.50082 23.75 8.8125ZM19 21.875C19.6558 21.875 20.1875 21.3433 20.1875 20.6875C20.1875 20.0317 19.6558 19.5 19 19.5C18.3442 19.5 17.8125 20.0317 17.8125 20.6875C17.8125 21.3433 18.3442 21.875 19 21.875Z" fill="#4C2A6E"/>
<path d="M4.75 29.6333V25.2062C5.10314 25.3999 5.47987 25.5652 5.87897 25.6979C10.008 27.0707 14.421 27.8125 19.0001 27.8125C23.5791 27.8125 27.992 27.0707 32.121 25.6979C32.5201 25.5652 32.8969 25.3999 33.25 25.2063V29.6333C33.25 31.9321 31.5919 33.9519 29.255 34.2621C25.8994 34.7076 22.4763 34.9375 19 34.9375C15.5237 34.9375 12.1006 34.7076 8.74496 34.2621C6.40813 33.9519 4.75 31.9321 4.75 29.6333Z" fill="#4C2A6E"/>
</svg>
