<svg width="40" height="41" viewBox="0 0 40 41" fill="none" xmlns="http://www.w3.org/2000/svg">
<path d="M33.1247 5.5H6.87467C4.92134 5.5 3.33301 6.995 3.33301 8.83333V32.1667C3.33301 34.005 4.92134 35.5 6.87467 35.5H33.1247C35.078 35.5 36.6663 34.005 36.6663 32.1667V8.83333C36.6663 6.995 35.078 5.5 33.1247 5.5ZM33.1247 32.1667H6.87467C6.77967 32.1667 6.71467 32.14 6.68634 32.14C6.67467 32.14 6.66801 32.1433 6.66634 32.1533L6.64634 8.91C6.65801 8.89333 6.73301 8.83333 6.87467 8.83333H33.1247C33.2563 8.835 33.328 8.88 33.333 8.84667L33.353 32.09C33.3413 32.1067 33.2663 32.1667 33.1247 32.1667Z" fill="#4C2A6E"/>
<path d="M10 12.1667H20V22.1667H10V12.1667ZM21.6667 25.5001H10V28.8334H30V25.5001H23.3333H21.6667ZM23.3333 18.8334H30V22.1667H23.3333V18.8334ZM23.3333 12.1667H30V15.5001H23.3333V12.1667Z" fill="#4C2A6E"/>
</svg>
