<svg width="31" height="31" viewBox="0 0 31 31" fill="none" xmlns="http://www.w3.org/2000/svg">
<g clip-path="url(#clip0_118_777)">
<path d="M12.5842 26.9388C13.7225 27.2503 14.8973 27.409 16.0775 27.4108L16.2655 27.4095C16.9393 27.4011 17.6 27.2225 18.1863 26.8903C18.7726 26.5582 19.2653 26.0832 19.6188 25.5095C20.3415 24.3415 20.4188 22.9055 19.8228 21.6695L19.5588 21.1162C18.9548 19.8602 19.4295 18.7215 20.0762 18.0748C20.7228 17.4282 21.8642 16.9535 23.1162 17.5575H23.1175L23.6682 17.8228C24.2737 18.1156 24.9434 18.2505 25.6151 18.2148C26.2867 18.1791 26.9384 17.9741 27.5095 17.6188C28.0835 17.2656 28.5588 16.7729 28.8913 16.1866C29.2237 15.6003 29.4024 14.9394 29.4108 14.2655C29.4275 13.0228 29.2691 11.784 28.9402 10.5855C27.5562 5.48283 23.1362 1.58016 17.9455 0.872164C13.7468 0.302831 9.62417 1.67483 6.65083 4.6495C3.6775 7.62416 2.29883 11.7402 2.87217 15.9442C3.57883 21.1362 7.48283 25.5548 12.5842 26.9388ZM20.7442 6.0775C21.2746 6.0775 21.7833 6.28821 22.1584 6.66328C22.5335 7.03836 22.7442 7.54706 22.7442 8.0775C22.7442 8.60793 22.5335 9.11664 22.1584 9.49171C21.7833 9.86678 21.2746 10.0775 20.7442 10.0775C20.2137 10.0775 19.705 9.86678 19.33 9.49171C18.9549 9.11664 18.7442 8.60793 18.7442 8.0775C18.7442 7.54706 18.9549 7.03836 19.33 6.66328C19.705 6.28821 20.2137 6.0775 20.7442 6.0775ZM14.0775 4.74416C14.6079 4.74416 15.1166 4.95488 15.4917 5.32995C15.8668 5.70502 16.0775 6.21373 16.0775 6.74416C16.0775 7.2746 15.8668 7.7833 15.4917 8.15838C15.1166 8.53345 14.6079 8.74416 14.0775 8.74416C13.5471 8.74416 13.0384 8.53345 12.6633 8.15838C12.2882 7.7833 12.0775 7.2746 12.0775 6.74416C12.0775 6.21373 12.2882 5.70502 12.6633 5.32995C13.0384 4.95488 13.5471 4.74416 14.0775 4.74416ZM12.0775 18.7522C12.0775 19.2826 11.8668 19.7913 11.4917 20.1664C11.1166 20.5415 10.6079 20.7522 10.0775 20.7522C9.54707 20.7522 9.03836 20.5415 8.66329 20.1664C8.28821 19.7913 8.0775 19.2826 8.0775 18.7522C8.0775 18.2217 8.28821 17.713 8.66329 17.3379C9.03836 16.9629 9.54707 16.7522 10.0775 16.7522C10.6079 16.7522 11.1166 16.9629 11.4917 17.3379C11.8668 17.713 12.0775 18.2217 12.0775 18.7522ZM8.74417 10.0855C9.27478 10.0857 9.78358 10.2966 10.1587 10.672C10.5337 11.0473 10.7443 11.5562 10.7442 12.0868C10.744 12.6174 10.533 13.1262 10.1577 13.5013C9.78239 13.8764 9.27344 14.087 8.74283 14.0868C8.21222 14.0867 7.70342 13.8757 7.32834 13.5004C6.95327 13.1251 6.74266 12.6161 6.74283 12.0855C6.74301 11.5549 6.95396 11.0461 7.32929 10.671C7.70461 10.2959 8.21356 10.0853 8.74417 10.0855Z" fill="#4C2A6E"/>
</g>
<defs>
<clipPath id="clip0_118_777">
<rect width="30" height="30" fill="white" transform="translate(0.155441) rotate(0.296867)"/>
</clipPath>
</defs>
</svg>
