<svg width="30" height="30" viewBox="0 0 30 30" fill="none" xmlns="http://www.w3.org/2000/svg">
<path d="M25.965 12.6938L24.255 7.56375C24.0069 6.81685 23.5298 6.16713 22.8914 5.70689C22.253 5.24664 21.4858 4.9993 20.6987 5H9.30125C8.51424 4.9993 7.74702 5.24664 7.10861 5.70689C6.47019 6.16713 5.99306 6.81685 5.745 7.56375L4.035 12.6938C3.58028 12.884 3.19195 13.2045 2.91883 13.6148C2.64572 14.0252 2.5 14.5071 2.5 15V21.25C2.5 22.1725 3.005 22.97 3.75 23.4038V26.25C3.75 26.5815 3.8817 26.8995 4.11612 27.1339C4.35054 27.3683 4.66848 27.5 5 27.5H6.25C6.58152 27.5 6.89946 27.3683 7.13388 27.1339C7.3683 26.8995 7.5 26.5815 7.5 26.25V23.75H22.5V26.25C22.5 26.5815 22.6317 26.8995 22.8661 27.1339C23.1005 27.3683 23.4185 27.5 23.75 27.5H25C25.3315 27.5 25.6495 27.3683 25.8839 27.1339C26.1183 26.8995 26.25 26.5815 26.25 26.25V23.4038C26.6292 23.1863 26.9445 22.8727 27.1639 22.4946C27.3834 22.1164 27.4993 21.6872 27.5 21.25V15C27.5 14.5071 27.3543 14.0252 27.0812 13.6148C26.808 13.2045 26.4197 12.884 25.965 12.6938ZM9.30125 7.5H20.6975C21.2362 7.5 21.7138 7.8425 21.8838 8.355L23.2663 12.5H6.73375L8.115 8.355C8.19794 8.10599 8.35715 7.88941 8.57006 7.73595C8.78298 7.58249 9.03879 7.49994 9.30125 7.5ZM6.875 20C6.62869 19.9999 6.38481 19.9513 6.15728 19.857C5.92975 19.7627 5.72303 19.6244 5.54892 19.4502C5.37481 19.276 5.23672 19.0692 5.14253 18.8416C5.04835 18.614 4.99992 18.3701 5 18.1238C5.00008 17.8774 5.04868 17.6336 5.14301 17.406C5.23735 17.1785 5.37557 16.9718 5.5498 16.7977C5.72403 16.6236 5.93084 16.4855 6.15843 16.3913C6.38602 16.2971 6.62994 16.2487 6.87625 16.2488C7.3737 16.2489 7.8507 16.4467 8.20233 16.7986C8.55396 17.1504 8.75142 17.6276 8.75125 18.125C8.75108 18.6224 8.55332 19.0995 8.20145 19.4511C7.84959 19.8027 7.37245 20.0002 6.875 20ZM23.125 20C22.8787 19.9999 22.6348 19.9513 22.4073 19.857C22.1797 19.7627 21.973 19.6244 21.7989 19.4502C21.6248 19.276 21.4867 19.0692 21.3925 18.8416C21.2984 18.614 21.2499 18.3701 21.25 18.1238C21.2501 17.8774 21.2987 17.6336 21.393 17.406C21.4873 17.1785 21.6256 16.9718 21.7998 16.7977C21.974 16.6236 22.1808 16.4855 22.4084 16.3913C22.636 16.2971 22.8799 16.2487 23.1262 16.2488C23.6237 16.2489 24.1007 16.4467 24.4523 16.7986C24.804 17.1504 25.0014 17.6276 25.0012 18.125C25.0011 18.6224 24.8033 19.0995 24.4515 19.4511C24.0996 19.8027 23.6224 20.0002 23.125 20Z" fill="#4C2A6E"/>
</svg>
