<svg width="44" height="44" viewBox="0 0 44 44" fill="none" xmlns="http://www.w3.org/2000/svg">
<path d="M31.1667 25.6667C32.9312 25.6603 34.6563 25.1446 36.135 24.1817L36.6667 23.8334C36.962 23.6332 37.2381 23.4061 37.4917 23.1551L37.8767 22.7884C38.1993 22.4593 38.4937 22.1036 38.7567 21.7251L38.8667 21.5784C39.1636 21.1405 39.4154 20.6737 39.6183 20.1851C39.6843 20.0491 39.7395 19.9081 39.7833 19.7634C39.9356 19.3886 40.0582 19.0024 40.15 18.6084L40.26 18.1501C40.3295 17.603 40.354 17.0512 40.3333 16.5001V3.66675L34.8333 9.16675H27.5L22 3.66675V16.5001C22 18.9312 22.9658 21.2628 24.6849 22.9819C26.4039 24.701 28.7355 25.6667 31.1667 25.6667ZM34.8333 12.8334C35.1959 12.8334 35.5504 12.9409 35.8519 13.1424C36.1534 13.3438 36.3884 13.6302 36.5271 13.9652C36.6659 14.3002 36.7022 14.6688 36.6314 15.0244C36.5607 15.38 36.3861 15.7067 36.1297 15.9631C35.8733 16.2195 35.5466 16.3941 35.191 16.4649C34.8354 16.5356 34.4667 16.4993 34.1317 16.3605C33.7968 16.2218 33.5104 15.9868 33.309 15.6853C33.1075 15.3838 33 15.0293 33 14.6667C33 14.1805 33.1932 13.7142 33.537 13.3704C33.8808 13.0266 34.3471 12.8334 34.8333 12.8334ZM27.5 12.8334C27.8626 12.8334 28.2171 12.9409 28.5185 13.1424C28.82 13.3438 29.055 13.6302 29.1938 13.9652C29.3325 14.3002 29.3688 14.6688 29.2981 15.0244C29.2274 15.38 29.0528 15.7067 28.7964 15.9631C28.54 16.2195 28.2133 16.3941 27.8577 16.4649C27.502 16.5356 27.1334 16.4993 26.7984 16.3605C26.4634 16.2218 26.1771 15.9868 25.9756 15.6853C25.7742 15.3838 25.6667 15.0293 25.6667 14.6667C25.6667 14.1805 25.8598 13.7142 26.2036 13.3704C26.5475 13.0266 27.0138 12.8334 27.5 12.8334Z" fill="#4C2A6E"/>
<path d="M20.1666 40.3334V31.1667H14.6666V40.3334H9.16663V21.8167C8.23413 21.6813 7.34307 21.3416 6.5571 20.8218C5.77113 20.3021 5.10966 19.6151 4.61996 18.8101C4.02799 17.8353 3.69948 16.7234 3.66663 15.5834C3.69987 14.6713 3.91935 13.7756 4.31158 12.9515C4.7038 12.1274 5.26047 11.3922 5.94736 10.7912C6.63424 10.1901 7.43682 9.73598 8.30573 9.45662C9.17464 9.17727 10.0915 9.07862 11 9.16675C11.4891 9.19615 11.979 9.12146 12.4372 8.94759C12.8954 8.77372 13.3115 8.50464 13.658 8.15812C14.0045 7.81159 14.2736 7.39549 14.4475 6.93731C14.6213 6.47912 14.696 5.98926 14.6666 5.50008C14.6666 5.01385 14.8598 4.54754 15.2036 4.20372C15.5474 3.8599 16.0137 3.66675 16.5 3.66675C16.9862 3.66675 17.4525 3.8599 17.7963 4.20372C18.1401 4.54754 18.3333 5.01385 18.3333 5.50008C18.3611 6.47067 18.1905 7.43673 17.8318 8.33905C17.4732 9.24137 16.934 10.0609 16.2474 10.7475C15.5608 11.4341 14.7412 11.9733 13.8389 12.332C12.9366 12.6906 11.9706 12.8613 11 12.8334C7.68163 12.8334 7.33329 14.9601 7.33329 15.6017C7.33329 16.2434 7.66329 18.3334 11 18.3334H20.3316C20.6009 19.9128 21.212 21.4143 22.1221 22.7329C23.0322 24.0515 24.2193 25.1554 25.6005 25.9673C26.9817 26.7793 28.5236 27.2797 30.1184 27.4336C31.7132 27.5876 33.3223 27.3912 34.8333 26.8584V40.3334H29.3333V31.1667H25.6666V40.3334H20.1666Z" fill="#4C2A6E"/>
</svg>
