<svg width="29" height="30" viewBox="0 0 29 30" fill="none" xmlns="http://www.w3.org/2000/svg">
<path d="M7.25033 22.9424C9.91591 22.9424 12.0837 20.7746 12.0837 18.109V5.8505L22.9587 9.80417V18.7821C22.2275 18.3464 21.3931 18.1141 20.542 18.109C17.8764 18.109 15.7087 20.2768 15.7087 22.9424C15.7087 25.608 17.8764 27.7757 20.542 27.7757C23.2076 27.7757 25.3753 25.608 25.3753 22.9424V8.95833C25.3755 8.71042 25.2993 8.46847 25.157 8.26544C25.0147 8.06241 24.8133 7.90817 24.5802 7.82371L11.2886 2.99037C11.1061 2.92367 10.9102 2.90199 10.7176 2.92718C10.525 2.95237 10.3413 3.02369 10.1821 3.13506C10.0229 3.24644 9.89295 3.3946 9.80327 3.56694C9.7136 3.73928 9.66685 3.93072 9.66699 4.125V13.9487C8.93579 13.5131 8.10146 13.2807 7.25033 13.2757C4.58474 13.2757 2.41699 15.4435 2.41699 18.109C2.41699 20.7746 4.58474 22.9424 7.25033 22.9424Z" fill="#4C2A6E"/>
</svg>
