<svg width="32" height="33" viewBox="0 0 32 33" fill="none" xmlns="http://www.w3.org/2000/svg">
<path d="M4.89333 22.3576L5.61333 23.0863L4.78667 23.9251C5.12123 24.4629 5.49568 24.9732 5.90667 25.4513L24.68 6.07759C24.2149 5.66574 23.725 5.28456 23.2133 4.93634L22.3867 5.77509L21.68 5.04634L22.32 4.38634C19.7949 2.986 16.8993 2.46233 14.0629 2.89301C11.2264 3.32369 8.60005 4.68578 6.57348 6.77723C4.54691 8.86867 3.22803 11.5781 2.8125 14.5035C2.39696 17.429 2.9069 20.4146 4.26667 23.0176L4.89333 22.3576ZM19.8133 6.97134L20.52 7.70009L18.6667 9.62509L17.96 8.89634L19.8133 6.97134ZM16.0933 10.8213L16.7867 11.5501L14.9333 13.4751L14.2267 12.7463L16.0933 10.8213ZM12.36 14.6713L13.0667 15.4001L11.2 17.3113L10.4933 16.5826L12.36 14.6713ZM8.62667 18.5076L9.33333 19.2501L7.46667 21.1751L6.76 20.4463L8.62667 18.5076ZM8.78667 28.0638L9.61333 27.2251L10.32 27.9538L9.68 28.6138C12.2051 30.0142 15.1007 30.5378 17.9371 30.1072C20.7736 29.6765 23.4 28.3144 25.4265 26.2229C27.4531 24.1315 28.772 21.4221 29.1875 18.4967C29.603 15.5712 29.0931 12.5856 27.7333 9.98259L27.1067 10.6426L26.3867 9.91384L27.2133 9.07509C26.8788 8.53728 26.5043 8.02701 26.0933 7.54884L7.32 26.9226C7.78512 27.3344 8.27499 27.7156 8.78667 28.0638ZM24.5333 11.8388L25.24 12.5676L23.3733 14.4926L22.6667 13.7501L24.5333 11.8388ZM20.8 15.6888L21.5067 16.4176L19.64 18.3288L18.9333 17.6001L20.8 15.6888ZM17.0667 19.5251L17.7733 20.2538L15.92 22.1788L15.2 21.4501L17.0667 19.5251ZM13.3333 23.3751L14.04 24.1038L12.1733 26.0288L11.4667 25.3001L13.3333 23.3751Z" fill="#4C2A6E"/>
</svg>
