<svg width="41" height="41" viewBox="0 0 41 41" fill="none" xmlns="http://www.w3.org/2000/svg">
<path d="M5.83233 23.5373L3.41675 25.9529L11.8713 29.5763L15.4964 38.0325L17.912 35.617L16.7042 29.5763L22.3639 23.9166L28.531 37.0776L30.8184 34.7901L28.7855 17.4967L33.6167 12.6638C33.943 12.3486 34.2033 11.9716 34.3823 11.5548C34.5614 11.1379 34.6557 10.6896 34.6596 10.2359C34.6635 9.78224 34.5771 9.33234 34.4053 8.91244C34.2335 8.49255 33.9798 8.11107 33.659 7.79027C33.3382 7.46947 32.9567 7.21577 32.5368 7.04398C32.1169 6.87219 31.667 6.78574 31.2134 6.78968C30.7597 6.79362 30.3114 6.88788 29.8945 7.06694C29.4777 7.246 29.1007 7.50629 28.7855 7.83262L23.8262 12.7919L6.53275 10.7573L4.37171 12.92L17.4302 19.1896L11.873 24.7468L5.83233 23.5373Z" fill="#4C2A6E"/>
</svg>
