<svg width="34" height="27" viewBox="0 0 34 27" fill="none" xmlns="http://www.w3.org/2000/svg">
<g clip-path="url(#clip0_118_769)">
<path d="M33.2806 8.13415L27.8484 3.03561C27.7447 2.91902 27.4494 2.60181 26.9931 2.23312C26.8767 2.12388 26.7529 2.02935 26.6216 1.94847C25.8394 1.38442 24.729 0.790955 23.389 0.635499C23.2725 0.616592 23.1519 0.553569 23.0301 0.552519C22.829 0.542015 22.6226 0.5 22.412 0.5H21.7028C21.0973 2.19951 19.2227 3.43896 17.0009 3.43896C14.7802 3.43896 12.9045 2.19846 12.2991 0.5H11.5804C11.3676 0.5 11.1591 0.542015 10.9559 0.553569C10.8447 0.55567 10.7209 0.591383 10.615 0.607139C7.87456 0.911748 6.08147 3.08288 6.08147 3.08288V3.08603L0.719121 8.13415C-0.209181 9.00491 -0.243053 10.4723 0.6355 11.3924L2.27617 13.1087C3.15472 14.0299 4.71177 14.0709 5.64008 13.1991L8.82192 10.2864V24.1177C8.82192 25.3856 9.71212 26.499 10.9908 26.499H23.0132C24.2908 26.499 25.2625 25.3856 25.2625 24.1177V10.2748L28.4158 13.2001C29.3441 14.0709 30.8397 14.031 31.7183 13.1098L33.3642 11.3935C34.2407 10.4723 34.2089 9.00596 33.2806 8.13415Z" fill="#4C2A6E"/>
</g>
<defs>
<clipPath id="clip0_118_769">
<rect width="34" height="26" fill="white" transform="translate(0 0.5)"/>
</clipPath>
</defs>
</svg>
