<svg width="25" height="24" viewBox="0 0 25 24" fill="none" xmlns="http://www.w3.org/2000/svg">
<path fill-rule="evenodd" clip-rule="evenodd" d="M15.9723 7.01118C14.9445 6.3519 13.7361 6 12.5 6V0C14.9723 0 17.389 0.703788 19.4446 2.02237C21.5003 3.34094 23.1024 5.21509 24.0485 7.40778C24.9946 9.60048 25.2421 12.0133 24.7598 14.3411C24.2775 16.6688 23.087 18.8071 21.3388 20.4853C19.5907 22.1635 17.3634 23.3064 14.9386 23.7694C12.5139 24.2324 10.0005 23.9948 7.71644 23.0866C5.43238 22.1783 3.48014 20.6402 2.10663 18.6668C0.733113 16.6934 0 14.3734 0 12H6.25C6.25 13.1867 6.61656 14.3467 7.30331 15.3334C7.99006 16.3201 8.96619 17.0891 10.1083 17.5433C11.2503 17.9974 12.5069 18.1162 13.7193 17.8847C14.9317 17.6532 16.0453 17.0818 16.9194 16.2427C17.7935 15.4035 18.3888 14.3344 18.6299 13.1705C18.8711 12.0067 18.7473 10.8002 18.2743 9.70392C17.8012 8.60754 17.0001 7.67046 15.9723 7.01118Z" fill="white"/>
</svg>
