<svg width="35" height="25" viewBox="0 0 35 25" fill="none" xmlns="http://www.w3.org/2000/svg">
<path d="M7 0.5V25H12.25V14.5H22.75V25H28V0.5H22.75V11H12.25V0.5H7ZM1.75 18C1.75 18.4641 1.93437 18.9092 2.26256 19.2374C2.59075 19.5656 3.03587 19.75 3.5 19.75H5.25V5.75H3.5C3.03587 5.75 2.59075 5.93437 2.26256 6.26256C1.93437 6.59075 1.75 7.03587 1.75 7.5V11H0V14.5H1.75V18ZM33.25 7.5C33.25 7.03587 33.0656 6.59075 32.7374 6.26256C32.4092 5.93437 31.9641 5.75 31.5 5.75H29.75V19.75H31.5C31.9641 19.75 32.4092 19.5656 32.7374 19.2374C33.0656 18.9092 33.25 18.4641 33.25 18V14.5H35V11H33.25V7.5Z" fill="#4C2A6E"/>
</svg>
