<svg width="27" height="28" viewBox="0 0 27 28" fill="none" xmlns="http://www.w3.org/2000/svg">
<path d="M25.3333 11.1667H1.33333C0.979711 11.1667 0.640573 11.3071 0.390524 11.5572C0.140476 11.8072 0 12.1464 0 12.5C5.94562e-05 14.8404 0.616171 17.1396 1.78641 19.1665C2.95665 21.1933 4.63979 22.8764 6.66667 24.0467V25.8333C6.66667 26.187 6.80714 26.5261 7.05719 26.7761C7.30724 27.0262 7.64638 27.1667 8 27.1667H18.6667C19.0203 27.1667 19.3594 27.0262 19.6095 26.7761C19.8595 26.5261 20 26.187 20 25.8333V24.0467C22.0269 22.8764 23.71 21.1933 24.8803 19.1665C26.0505 17.1396 26.6666 14.8404 26.6667 12.5C26.6667 12.1464 26.5262 11.8072 26.2761 11.5572C26.0261 11.3071 25.687 11.1667 25.3333 11.1667ZM9.33333 9.83333V8.40667C9.33418 6.83762 8.72172 5.33039 7.62667 4.20667C7.31753 3.8943 7.07349 3.52366 6.9087 3.11626C6.74391 2.70885 6.66164 2.27278 6.66667 1.83333V0.5H4V1.83333C3.99217 3.4116 4.60515 4.92967 5.70667 6.06C6.32451 6.68442 6.66972 7.52824 6.66667 8.40667V9.83333H9.33333ZM14.6667 9.83333V8.40667C14.6675 6.83762 14.055 5.33039 12.96 4.20667C12.6509 3.8943 12.4068 3.52366 12.242 3.11626C12.0772 2.70885 11.995 2.27278 12 1.83333V0.5H9.33333V1.83333C9.33249 3.40238 9.94495 4.90961 11.04 6.03333C11.3491 6.3457 11.5932 6.71634 11.758 7.12374C11.9228 7.53115 12.005 7.96722 12 8.40667V9.83333H14.6667ZM20 9.83333V8.40667C20.0008 6.83762 19.3884 5.33039 18.2933 4.20667C17.9842 3.8943 17.7402 3.52366 17.5754 3.11626C17.4106 2.70885 17.3283 2.27278 17.3333 1.83333V0.5H14.6667V1.83333C14.6658 3.40238 15.2783 4.90961 16.3733 6.03333C16.6825 6.3457 16.9265 6.71634 17.0913 7.12374C17.2561 7.53115 17.3384 7.96722 17.3333 8.40667V9.83333H20Z" fill="#4C2A6E"/>
</svg>
