<svg width="579" height="422" viewBox="0 0 579 422" fill="none" xmlns="http://www.w3.org/2000/svg">
<g clip-path="url(#clip0_118_875)">
<path d="M579 407.071C579 398.817 454.592 392.128 301.12 392.128C147.647 392.128 23.2393 398.817 23.2393 407.071C23.2393 415.324 147.647 422.013 301.12 422.013C454.592 422.013 579 415.311 579 407.071Z" fill="#E6F8FF"/>
<path d="M57.8049 399.964C25.4159 399.808 -0.847186 373.183 0.0260783 340.794C0.495295 323.192 7.07736 306.111 27.0712 296.815C79.7538 272.302 6.2432 112.968 99.3566 97.0345C192.47 81.1011 188.794 -40.2377 297.835 50.46C406.876 141.158 426.479 18.5932 497.539 82.3268C568.599 146.06 450.982 226.953 539.195 268.625C597.365 296.111 578.283 345.436 558.537 375.856C547.823 392.363 529.38 402.194 509.699 402.103L57.8049 399.964Z" fill="#BDC3E6"/>
<path opacity="0.44" d="M509.725 402.077C529.393 402.168 547.849 392.337 558.563 375.83C578.309 345.41 597.378 296.085 539.221 268.599C451.008 226.927 568.625 146.034 497.565 82.3008C426.505 18.5672 406.902 141.132 297.861 50.434C271.038 28.1116 251.031 18.6454 234.725 17.2764C240.239 21.0055 245.439 25.9993 250.131 32.5709C289.741 88.0508 313.515 128.562 396.266 121.521C479.018 114.48 359.289 258.911 424.432 275.64C467.47 286.697 461.709 353.077 430.506 401.699L509.725 402.077Z" fill="#B7AFDB"/>
<path d="M221.94 121.352C221.992 121.274 212.087 120.635 203.106 116.189C194.152 112.042 186.11 104.076 190.659 96.2131C197.372 85.4431 178.277 76.3159 184.768 70.3311C191.376 65.0244 192.771 69.4184 190.216 57.5401C188.118 45.414 196.459 42.5064 201.151 31.6581C206.508 20.7447 218.838 28.9069 215.788 43.1453C213.39 57.84 219.06 42.6629 223.231 49.2866C226.789 54.7628 212.791 78.3369 218.982 76.1986C224.703 73.6169 229.63 77.2156 228.874 83.8002C226.632 98.9773 221.653 121.052 221.94 121.352Z" fill="#7BC7FF"/>
<path d="M226.502 127.558C226.437 127.558 226.385 127.532 226.333 127.48C218.643 118.496 209.884 104.662 205.57 88.5854C205.557 88.5463 205.544 88.5071 205.531 88.455C205.492 88.4289 205.466 88.4159 205.427 88.3898C201.412 85.9776 197.789 82.6266 194.413 79.1323C193.292 77.9848 192.197 76.7983 191.09 75.6248C191.024 75.5596 191.011 75.4944 191.05 75.4292C191.103 75.3249 191.233 75.2467 191.337 75.2989C191.363 75.3119 191.389 75.3249 191.415 75.351C192.497 76.5115 193.566 77.6589 194.661 78.7802C197.776 82.0008 201.113 85.117 204.762 87.4771C204.971 87.6075 205.166 87.7378 205.375 87.8682C205.309 87.6205 205.244 87.3728 205.179 87.1381C203.446 80.3709 202.403 73.2257 202.181 65.4415C202.181 65.3763 202.181 65.2981 202.181 65.2329L202.012 65.1547C201.973 65.1416 201.96 65.1156 201.934 65.0895C199.066 60.7476 196.772 55.8059 195.182 50.5121C195.156 50.4209 195.169 50.3557 195.221 50.2905C195.299 50.2122 195.417 50.1992 195.482 50.2383C195.521 50.2644 195.547 50.3035 195.56 50.3557C197.007 55.2191 199.066 59.7697 201.621 63.8378C201.803 64.1246 201.973 64.3984 202.155 64.6853C202.155 64.3463 202.142 63.9942 202.142 63.6552C202.064 56.3014 202.729 48.6346 204.384 40.4592C204.41 40.368 204.449 40.3419 204.462 40.3419C204.514 40.3158 204.606 40.3289 204.671 40.381C204.749 40.4332 204.775 40.5244 204.762 40.6287C202.507 51.7899 202.09 62.1297 202.95 71.7653C202.963 71.974 202.989 72.1695 203.002 72.3782C203.146 72.2478 203.276 72.1174 203.42 71.974C208.112 67.5017 212.1 62.6252 215.463 57.3966C215.502 57.3314 215.541 57.3053 215.619 57.3445C215.684 57.3836 215.736 57.4488 215.762 57.527C215.776 57.5922 215.776 57.6444 215.736 57.7095C212.256 63.1337 208.112 68.1666 203.198 72.7693C203.146 72.8084 203.107 72.8476 203.055 72.8867C203.055 72.9519 203.068 73.004 203.068 73.0692C203.628 78.4673 204.566 83.3959 205.818 88.1029C205.831 88.129 205.831 88.1551 205.844 88.1812C205.87 88.2072 205.883 88.2203 205.909 88.2464C205.961 88.2985 205.974 88.3637 205.961 88.4419C205.948 88.468 205.948 88.4941 205.935 88.5202C205.948 88.5462 205.948 88.5723 205.961 88.5984C207.108 92.7447 208.581 96.9954 210.549 101.52C210.653 101.768 210.771 102.015 210.875 102.263C210.94 102.002 211.018 101.741 211.083 101.494C213.064 94.2312 216.023 87.4901 219.686 81.5835C219.738 81.4923 219.816 81.4662 219.92 81.4923C219.985 81.5183 220.051 81.5575 220.077 81.6227C220.09 81.6487 220.09 81.6879 220.051 81.753C216.206 87.9725 213.143 95.0917 211.175 102.745C211.162 102.785 211.162 102.824 211.149 102.85C211.162 102.889 211.175 102.915 211.201 102.954C214.785 110.79 219.568 118.796 226.672 127.271C226.737 127.35 226.724 127.389 226.711 127.415C226.685 127.48 226.594 127.545 226.502 127.558Z" fill="#60A2BF"/>
<path d="M198.688 158.46C198.596 158.512 199.652 147.729 196.798 137.338C194.217 127.024 187.726 117.114 179.189 120.791C167.406 126.359 161.659 104.336 154.633 110.399C148.26 116.71 152.365 118.888 141.078 114.285C129.465 110.139 125.164 118.679 113.655 122.056C101.964 126.137 107.933 140.702 122.518 139.632C137.429 139.332 121.475 143.088 127.314 148.616C132.111 153.297 157.774 141.875 154.62 148.225C151.101 154.001 153.812 159.869 160.446 160.077C175.787 160.051 198.44 158.108 198.688 158.46Z" fill="#7BC7FF"/>
<path d="M204.031 164.341C204.044 164.276 204.031 164.211 203.979 164.145C196.42 154.458 184.246 142.853 169.114 135.695C169.075 135.682 169.036 135.656 168.997 135.643C168.984 135.603 168.97 135.564 168.957 135.525C167.25 130.818 164.565 126.385 161.685 122.2C160.733 120.818 159.769 119.448 158.778 118.066C158.726 117.988 158.674 117.962 158.583 118.001C158.465 118.04 158.374 118.171 158.4 118.288C158.413 118.314 158.426 118.353 158.439 118.379C159.404 119.722 160.355 121.065 161.281 122.421C163.939 126.281 166.442 130.362 168.149 134.665C168.241 134.899 168.332 135.147 168.436 135.382C168.201 135.278 167.98 135.173 167.745 135.056C161.359 132.135 154.477 129.892 146.826 128.445C146.761 128.432 146.696 128.419 146.618 128.406L146.565 128.21C146.552 128.171 146.539 128.145 146.513 128.119C142.72 124.351 138.237 121.104 133.258 118.562C133.167 118.523 133.101 118.523 133.036 118.575C132.958 118.64 132.906 118.77 132.945 118.849C132.958 118.888 132.997 118.927 133.049 118.953C137.598 121.274 141.756 124.208 145.327 127.585C145.575 127.819 145.822 128.054 146.07 128.289C145.731 128.224 145.392 128.171 145.053 128.106C137.794 126.881 130.13 126.398 121.762 126.92C121.658 126.92 121.632 126.972 121.632 126.985C121.593 127.05 121.593 127.141 121.632 127.22C121.671 127.311 121.749 127.363 121.853 127.35C133.258 126.659 143.542 127.819 152.9 130.245C153.095 130.297 153.291 130.349 153.486 130.401C153.33 130.531 153.174 130.662 153.017 130.792C147.804 135.16 142.316 138.707 136.582 141.523C136.516 141.562 136.477 141.588 136.503 141.68C136.529 141.758 136.581 141.823 136.66 141.862C136.725 141.888 136.777 141.888 136.842 141.862C142.786 138.954 148.468 135.264 153.851 130.688C153.89 130.649 153.943 130.597 153.982 130.557C154.034 130.571 154.099 130.584 154.151 130.61C159.391 132.057 164.096 133.83 168.527 135.929C168.553 135.942 168.579 135.956 168.606 135.969C168.619 135.995 168.645 136.021 168.658 136.047C168.697 136.112 168.762 136.138 168.84 136.125C168.866 136.125 168.892 136.125 168.931 136.112C168.957 136.125 168.983 136.138 169.01 136.151C172.907 138.029 176.856 140.284 180.988 143.114C181.209 143.27 181.444 143.427 181.665 143.583C181.405 143.622 181.131 143.648 180.87 143.688C173.363 144.691 166.194 146.843 159.743 149.868C159.651 149.907 159.612 149.985 159.625 150.103C159.638 150.181 159.677 150.259 159.716 150.285C159.743 150.298 159.782 150.311 159.847 150.285C166.637 147.104 174.197 144.913 182.082 143.974C182.122 143.974 182.161 143.961 182.2 143.961C182.226 143.987 182.265 144 182.291 144.027C189.407 149.112 196.511 155.527 203.666 164.51C203.732 164.589 203.784 164.576 203.797 164.576C203.927 164.537 204.005 164.445 204.031 164.341Z" fill="#60A2BF"/>
<path d="M191.988 137.259C191.871 137.246 199.157 127.48 202.141 115.523C205.387 103.841 204.331 89.9935 193.37 87.9855C177.964 85.7038 184.624 60.578 173.858 61.8819C163.64 63.8377 166.637 68.636 157.566 56.8098C147.895 45.2053 138.55 50.6946 124.669 46.457C110.201 42.7931 108.037 60.8127 123.769 69.2879C139.41 78.728 120.706 71.9609 123.587 81.1271C125.881 88.807 159.052 94.4658 152.131 98.56C145.171 101.859 144.61 109.33 151.375 113.854C167.328 123.855 191.936 136.751 191.988 137.259Z" fill="#60A2BF"/>
<path d="M194.165 146.451C194.217 146.399 194.243 146.321 194.23 146.23C191.95 131.887 185.98 112.694 174.393 95.8741C174.367 95.8349 174.328 95.7828 174.302 95.7437C174.315 95.6915 174.315 95.6394 174.328 95.6002C175.253 89.9284 175.006 83.8653 174.432 77.9327C174.25 75.9769 174.015 74.008 173.793 72.0261C173.78 71.9088 173.741 71.8566 173.637 71.8306C173.494 71.7914 173.324 71.8566 173.285 71.987C173.272 72.0261 173.272 72.0652 173.272 72.1044C173.494 74.0341 173.715 75.9638 173.898 77.8805C174.432 83.3568 174.693 88.9505 173.989 94.2442C173.95 94.5311 173.911 94.831 173.872 95.1178C173.689 94.857 173.52 94.6093 173.337 94.3485C168.384 87.3467 162.532 80.6839 155.442 74.2949C155.377 74.2427 155.312 74.1775 155.259 74.1254L155.325 73.9037C155.338 73.8516 155.338 73.8255 155.325 73.7864C153.539 67.6581 150.763 61.569 147.061 55.8711C146.996 55.7668 146.918 55.7277 146.827 55.7407C146.696 55.7537 146.592 55.845 146.579 55.9493C146.566 56.0015 146.592 56.0536 146.631 56.1188C150.02 61.3343 152.64 66.8889 154.412 72.5086C154.529 72.8997 154.66 73.2909 154.777 73.6821C154.464 73.4082 154.138 73.1214 153.826 72.8476C147.009 66.928 139.319 61.4517 130.352 56.497C130.248 56.4318 130.195 56.4578 130.169 56.4709C130.104 56.51 130.039 56.6013 130.039 56.7056C130.026 56.8229 130.078 56.9142 130.195 56.9794C142.421 63.7465 152.431 71.5828 160.747 80.045C160.916 80.2275 161.099 80.397 161.268 80.5796C161.033 80.6056 160.799 80.6317 160.564 80.6578C152.653 81.4923 144.924 81.3489 137.364 80.3318C137.273 80.3188 137.221 80.3318 137.195 80.4361C137.168 80.5274 137.195 80.6317 137.247 80.71C137.299 80.7752 137.351 80.8143 137.442 80.8273C145.276 81.8835 153.291 82.0138 161.49 81.0881C161.568 81.075 161.633 81.062 161.711 81.049C161.763 81.1011 161.815 81.1533 161.868 81.2054C166.468 86.0298 170.339 90.815 173.728 95.7437C173.754 95.7697 173.767 95.7958 173.793 95.8349C173.793 95.8741 173.793 95.9001 173.806 95.9393C173.82 96.0305 173.859 96.0957 173.95 96.1348C173.976 96.1479 174.015 96.1609 174.041 96.187C174.067 96.2131 174.08 96.2391 174.106 96.2783C177.078 100.646 179.88 105.418 182.539 110.856C182.682 111.156 182.826 111.455 182.969 111.742C182.669 111.599 182.383 111.455 182.083 111.325C173.715 107.4 165.061 104.806 156.628 103.528C156.511 103.515 156.419 103.554 156.367 103.671C156.328 103.749 156.328 103.854 156.354 103.919C156.367 103.945 156.406 103.984 156.498 103.997C165.374 105.34 174.458 108.144 183.191 112.381C183.23 112.407 183.269 112.42 183.321 112.446C183.347 112.485 183.36 112.538 183.386 112.577C187.857 122.16 191.545 133.008 193.813 146.386C193.839 146.504 193.892 146.53 193.918 146.543C193.944 146.569 194.087 146.53 194.165 146.451Z" fill="#2481C6"/>
<path d="M327.982 100.359H204.37C192.379 100.359 182.656 110.086 182.656 122.082V380.328C182.656 392.324 192.379 402.051 204.37 402.051H327.982C339.973 402.051 349.697 392.324 349.697 380.328V122.082C349.697 110.086 339.973 100.359 327.982 100.359Z" fill="#0A4D7A"/>
<path d="M327.982 100.359H204.37C192.379 100.359 182.656 110.086 182.656 122.082V380.328C182.656 387.291 185.94 393.471 191.036 397.448L347.911 113.463C344.574 105.757 336.91 100.359 327.982 100.359Z" fill="#083954"/>
<path d="M290.315 110.934H244.449C243.184 110.934 242.155 111.964 242.155 113.229C242.155 114.493 243.184 115.523 244.449 115.523H290.315C291.579 115.523 292.609 114.493 292.609 113.229C292.609 111.977 291.579 110.934 290.315 110.934Z" fill="white"/>
<path d="M327.982 108.496H309.839L303.309 120.869C300.872 125.498 296.075 128.393 290.849 128.393H241.49C236.263 128.393 231.467 125.498 229.029 120.869L222.5 108.496H204.37C196.888 108.496 190.788 114.585 190.788 122.082V380.328C190.788 387.812 196.875 393.914 204.37 393.914H327.982C335.463 393.914 341.563 387.825 341.563 380.328V122.082C341.563 114.585 335.476 108.496 327.982 108.496Z" fill="#9357A2"/>
<path opacity="0.85" d="M341.563 122.082V124.951L195.037 390.185C192.418 387.695 190.788 384.201 190.788 380.315V122.082C190.788 114.585 196.888 108.496 204.356 108.496H222.5L229.016 120.882C231.467 125.511 236.25 128.393 241.49 128.393H290.849C296.075 128.393 300.859 125.498 303.309 120.882L309.826 108.496H327.969C335.463 108.496 341.563 114.585 341.563 122.082Z" fill="#4C2A6E"/>
<path d="M402.106 147.377H214.328C209.075 147.377 204.826 151.628 204.826 156.883V203.366C204.826 208.621 209.075 212.871 214.328 212.871H402.106C407.358 212.871 411.607 208.621 411.607 203.366V156.883C411.607 151.641 407.358 147.377 402.106 147.377Z" fill="white"/>
<path d="M296.18 169.231L297.457 173.155C297.549 173.429 297.796 173.612 298.083 173.612H302.202C302.84 173.612 303.114 174.433 302.593 174.811L299.256 177.236C299.022 177.406 298.93 177.706 299.022 177.98L300.299 181.904C300.494 182.517 299.804 183.026 299.282 182.648L295.946 180.222C295.711 180.053 295.398 180.053 295.164 180.222L291.827 182.648C291.306 183.026 290.602 182.517 290.81 181.904L292.088 177.98C292.179 177.706 292.075 177.406 291.853 177.236L288.516 174.811C287.995 174.433 288.269 173.612 288.907 173.612H293.026C293.313 173.612 293.573 173.429 293.652 173.155L294.929 169.231C295.111 168.618 295.972 168.618 296.18 169.231Z" fill="#4C2A6E"/>
<path d="M319.041 169.231L320.319 173.155C320.41 173.429 320.658 173.612 320.944 173.612H325.063C325.702 173.612 325.975 174.433 325.454 174.811L322.117 177.236C321.883 177.406 321.792 177.706 321.87 177.98L323.147 181.904C323.343 182.517 322.652 183.026 322.13 182.648L318.794 180.222C318.559 180.053 318.246 180.053 318.012 180.222L314.675 182.648C314.154 183.026 313.45 182.517 313.658 181.904L314.936 177.98C315.027 177.706 314.923 177.406 314.688 177.236L311.351 174.811C310.83 174.433 311.104 173.612 311.742 173.612H315.861C316.148 173.612 316.409 173.429 316.487 173.155L317.764 169.231C317.973 168.618 318.846 168.618 319.041 169.231Z" fill="#4C2A6E"/>
<path d="M341.916 169.231L343.193 173.155C343.285 173.429 343.532 173.612 343.819 173.612H347.938C348.576 173.612 348.85 174.433 348.329 174.811L344.992 177.236C344.758 177.406 344.666 177.706 344.745 177.98L346.022 181.904C346.217 182.517 345.527 183.026 345.005 182.648L341.669 180.222C341.434 180.053 341.121 180.053 340.887 180.222L337.55 182.648C337.029 183.026 336.325 182.517 336.533 181.904L337.811 177.98C337.902 177.706 337.797 177.406 337.563 177.236L334.226 174.811C333.705 174.433 333.979 173.612 334.617 173.612H338.736C339.023 173.612 339.283 173.429 339.362 173.155L340.639 169.231C340.847 168.618 341.721 168.618 341.916 169.231Z" fill="#4C2A6E"/>
<path d="M364.777 169.231L366.054 173.155C366.146 173.429 366.393 173.612 366.68 173.612H370.799C371.437 173.612 371.711 174.433 371.19 174.811L367.853 177.236C367.618 177.406 367.527 177.706 367.618 177.98L368.896 181.904C369.091 182.517 368.4 183.026 367.879 182.648L364.542 180.222C364.308 180.053 363.995 180.053 363.76 180.222L360.424 182.648C359.902 183.026 359.199 182.517 359.407 181.904L360.684 177.98C360.776 177.706 360.671 177.406 360.437 177.236L357.1 174.811C356.579 174.433 356.852 173.612 357.491 173.612H361.61C361.897 173.612 362.157 173.429 362.235 173.155L363.513 169.231C363.721 168.618 364.581 168.618 364.777 169.231Z" fill="#4C2A6E"/>
<path d="M387.652 169.231L388.929 173.155C389.02 173.429 389.268 173.612 389.554 173.612H393.673C394.312 173.612 394.586 174.433 394.064 174.811L390.728 177.236C390.493 177.406 390.402 177.706 390.48 177.98L391.757 181.904C391.953 182.517 391.262 183.026 390.741 182.648L387.404 180.222C387.169 180.053 386.856 180.053 386.622 180.222L383.285 182.648C382.764 183.026 382.06 182.517 382.269 181.904L383.546 177.98C383.637 177.706 383.533 177.406 383.298 177.236L379.962 174.811C379.44 174.433 379.714 173.612 380.353 173.612H384.471C384.758 173.612 385.019 173.429 385.097 173.155L386.374 169.231C386.583 168.618 387.456 168.618 387.652 169.231Z" fill="#0076B2"/>
<path d="M354.715 189.219H288.217V191.07H354.715V189.219Z" fill="#0076B2"/>
<path d="M354.715 158.8H288.217V162.281H354.715V158.8Z" fill="#60A2BF"/>
<path d="M354.715 196.247H288.217V198.098H354.715V196.247Z" fill="#0076B2"/>
<path d="M318.612 202.779H288.217V204.631H318.612V202.779Z" fill="#0076B2"/>
<path d="M253.172 206.973C267.45 203.631 276.316 189.344 272.976 175.061C269.636 160.778 255.354 151.908 241.076 155.25C226.799 158.591 217.933 172.879 221.273 187.162C224.613 201.444 238.895 210.314 253.172 206.973Z" fill="#7BC7FF"/>
<mask id="mask0_118_875" style="mask-type:luminance" maskUnits="userSpaceOnUse" x="220" y="154" width="54" height="54">
<path d="M253.173 206.973C267.45 203.631 276.317 189.344 272.976 175.061C269.636 160.778 255.354 151.908 241.077 155.25C226.799 158.591 217.933 172.879 221.273 187.162C224.613 201.445 238.895 210.315 253.173 206.973Z" fill="white"/>
</mask>
<g mask="url(#mask0_118_875)">
<path d="M260.298 197.199L257.965 172.66C257.965 166.375 255.502 160.599 248.854 162.307C245.844 160.729 242.103 161.094 239.653 163.441C237.059 165.919 235.56 169.687 235.56 173.481L232.953 197.342L260.298 197.199Z" fill="#0A4D7A"/>
<path d="M251.07 184.59V189.988C251.07 189.988 250.314 194.213 246.756 194.93C243.054 193.952 242.481 189.988 242.481 189.988V184.59H251.07Z" fill="#FFA683"/>
<path d="M251.07 183.821V187.263C249.766 187.967 248.293 188.345 246.781 188.345C245.269 188.345 243.784 187.967 242.493 187.263V183.821H251.07Z" fill="#E57C5C"/>
<path d="M255.476 172.946C251.526 172.829 248.946 169.778 248.946 169.778C246.534 171.877 238.115 172.946 238.115 172.946L238.062 176.271C238.062 178.775 239.118 181.826 240.813 184.173C242.194 186.077 244.423 187.185 246.769 187.185C249.115 187.185 251.357 186.077 252.725 184.173C254.42 181.826 255.476 178.775 255.476 176.271V172.946Z" fill="#FFA683"/>
<path d="M268.014 198.985C264.651 193.196 250.405 190.001 250.405 190.001L246.665 191.435L242.924 190.001C242.924 190.001 228.678 193.196 225.315 198.985L221.184 230.174L227.727 230.069L231.559 204.018C231.559 204.018 233.983 212.428 233.84 217.344C233.709 222.259 232.171 230.382 232.171 230.382H246.261H247.03H261.119C261.119 230.382 259.594 222.259 259.451 217.344C259.321 212.428 261.745 204.018 261.745 204.018L265.577 230.069L272.12 230.174L268.014 198.985Z" fill="#FFA683"/>
<path d="M258.2 192.427C257.066 195.673 254.133 200.641 246.704 201.019C239.262 200.628 236.329 195.634 235.195 192.387C233.018 193.235 230.751 194.291 228.861 195.543L231.415 204.018C231.454 204.083 231.493 204.161 231.533 204.24L231.572 204.018C231.572 204.018 231.676 204.396 231.845 204.996C231.871 205.087 231.897 205.192 231.924 205.296C232.588 207.838 233.97 213.602 233.866 217.344C233.735 222.259 232.197 230.382 232.197 230.382H246.287H247.056H261.145C261.145 230.382 259.62 222.259 259.477 217.344C259.347 212.428 261.771 204.018 261.771 204.018L261.823 204.383C261.875 204.253 261.94 204.122 262.006 204.018L264.547 195.582C262.644 194.33 260.376 193.274 258.2 192.427Z" fill="#60A2BF"/>
</g>
<path d="M430.427 223.432C429.476 223.406 428.615 222.885 428.172 222.037L414.565 194.943C414.565 194.943 412.936 188.423 411.02 188.423L410.824 197.042L420.026 230.343C420.561 232.429 421.642 234.202 424.419 234.268C430.075 234.398 440.411 236.21 447.15 237.984C454.044 239.796 459.844 237.945 459.844 237.945C460.288 222.741 436.214 223.563 430.427 223.432Z" fill="#FFA683"/>
<path d="M450.786 220.029V227.735H439.095V223.393C439.095 223.393 431.405 221.581 431.783 214.631C432.161 207.695 435.406 204.331 437.179 203.796C438.939 203.262 447.424 206.678 447.593 207.108C447.749 207.538 448.662 214.905 448.662 214.905L450.786 220.029Z" fill="#FFA683"/>
<path d="M438.508 209.507C438.508 209.507 440.581 206.586 442.51 208.034C444.439 209.481 443.474 212.376 441.063 213.823C441.063 213.823 443.474 222.024 448.297 221.542C453.119 221.059 459.323 215.961 458.789 208.008C458.255 200.054 447.867 194.447 442.184 195.569C436.475 196.703 430.871 203.053 438.508 209.507Z" fill="#004CBA"/>
<path d="M458.737 203.001C458.737 203.001 465.033 194.995 471.328 201.932C477.623 208.868 481.573 216.665 484.453 218.165C487.333 219.664 482.003 223.289 475.056 221.046C468.122 218.804 459.167 210.263 458.737 203.001Z" fill="#004CBA"/>
<path d="M439.095 227.735V223.393C439.095 223.393 443.878 223.576 445.898 221.724C445.898 221.724 444.478 225.036 441.35 225.127V227.735H439.095Z" fill="#ED7D5A"/>
<path d="M433.96 289.344C433.96 289.344 436.71 332.411 440.216 341.433C443.722 350.443 465.892 391.463 465.892 391.463L477.375 388.934L460.992 339.934C460.861 342.933 458.698 328.812 462.738 314.521C465.11 306.137 464.198 296.984 460.64 289.669L431.939 289.357" fill="#006CBC"/>
<path d="M460.431 287.531C460.431 287.531 459.362 299.501 445.598 313.074C431.704 326.791 426.256 335.983 426.256 335.983L424.197 395.336H412.74C412.74 395.336 405.976 332.789 406.171 330.533C406.354 328.277 425.318 287.518 427.573 283.958C429.828 280.386 460.431 287.531 460.431 287.531Z" fill="#60A2BF"/>
<path d="M451.985 227.109C451.985 227.109 464.263 228.022 459.74 243.264C454.8 259.915 460.457 286.605 461.591 289.357L457.916 290.83C446.876 294.976 434.676 294.715 423.832 290.087C423.832 290.087 433.594 268.547 426.647 257.281C422.177 250.032 423.493 242.717 428.707 236.25C432.083 232.051 436.345 227.683 438.026 227.605L451.985 227.109Z" fill="#57BFFF"/>
<path d="M412.74 395.336H415.165L410.264 330.989C411.072 329.646 413.874 324.509 422.372 308.145C425.331 302.447 427.403 297.01 428.889 291.899C427.351 291.456 425.826 290.921 424.327 290.308C418.254 302.786 406.315 328.76 406.171 330.546C405.976 332.789 412.74 395.336 412.74 395.336Z" fill="#2481C6"/>
<path d="M436.527 253.239C430.793 255.365 435.055 270.607 428.89 291.899C427.182 291.391 425.488 290.804 423.819 290.1C423.819 290.1 433.582 268.56 426.635 257.294C424.432 253.722 423.637 250.136 424.028 246.642L448.375 241.1C448.375 241.1 444.335 250.345 436.527 253.239Z" fill="#30AFEF"/>
<path d="M384.04 215.088C384.04 215.088 406.328 252.144 412.832 254.243C415.725 255.182 433.751 248.141 441.35 246.889C445.455 246.211 448.349 242.482 447.971 238.323C447.541 233.564 442.08 229.522 437.414 230.552L412.389 238.349C412.389 238.349 391.209 216.431 386.478 211.424C386.478 211.424 384.523 205.256 381.616 205.256C379.035 205.256 382.985 212.962 384.04 215.088Z" fill="#FFA683"/>
<path d="M401.818 399.13C404.973 398.1 410.89 396.848 413.027 395.349H424.145C424.041 397.578 423.976 399.743 423.95 401.19C423.924 402.155 423.142 402.924 422.177 402.924H400.033C398.586 402.924 398.052 401.034 399.29 400.264C399.928 399.86 400.763 399.469 401.818 399.13Z" fill="#004CBA"/>
<path d="M456.052 397.696C458.893 395.975 464.368 393.419 466.114 391.476L476.945 388.96C477.336 391.15 477.779 393.276 478.066 394.697C478.262 395.649 477.675 396.574 476.724 396.796L455.153 401.803C453.745 402.129 452.794 400.408 453.823 399.378C454.384 398.83 455.101 398.269 456.052 397.696Z" fill="#004CBA"/>
<path opacity="0.58" d="M412.845 241.595C418.084 241.726 441.519 232.925 447.749 237.136C446.602 232.938 441.688 229.626 437.426 230.565L412.402 238.362C412.402 238.362 391.222 216.444 386.49 211.437C386.503 211.424 407.149 241.452 412.845 241.595Z" fill="#ED7D5A"/>
<path d="M458.568 202.518L456.939 202.818C456.939 202.818 459.05 206.247 458.607 209.468L460.718 209.077C460.718 209.064 460.497 203.209 458.568 202.518Z" fill="white"/>
<path d="M311.717 228.061H123.952C118.699 228.061 114.45 232.312 114.45 237.567V284.05C114.45 289.304 118.699 293.555 123.952 293.555H311.73C316.982 293.555 321.231 289.304 321.231 284.05V237.567C321.218 232.325 316.969 228.061 311.717 228.061Z" fill="white"/>
<path d="M205.791 249.914L207.068 253.839C207.159 254.113 207.407 254.295 207.694 254.295H211.813C212.451 254.295 212.725 255.117 212.204 255.495L208.867 257.92C208.632 258.09 208.541 258.39 208.632 258.663L209.91 262.588C210.105 263.201 209.414 263.709 208.893 263.331L205.556 260.906C205.322 260.737 205.009 260.737 204.774 260.906L201.438 263.331C200.916 263.709 200.212 263.201 200.421 262.588L201.698 258.663C201.79 258.39 201.685 258.09 201.451 257.92L198.114 255.495C197.593 255.117 197.866 254.295 198.505 254.295H202.624C202.91 254.295 203.171 254.113 203.249 253.839L204.527 249.914C204.722 249.302 205.595 249.302 205.791 249.914Z" fill="#4C2A6E"/>
<path d="M228.665 249.914L229.943 253.839C230.034 254.113 230.281 254.295 230.568 254.295H234.687C235.325 254.295 235.599 255.117 235.078 255.495L231.741 257.92C231.507 258.09 231.415 258.39 231.494 258.663L232.771 262.588C232.966 263.201 232.276 263.709 231.754 263.331L228.418 260.906C228.183 260.737 227.87 260.737 227.636 260.906L224.299 263.331C223.778 263.709 223.074 263.201 223.282 262.588L224.56 258.663C224.651 258.39 224.547 258.09 224.312 257.92L220.975 255.495C220.454 255.117 220.728 254.295 221.366 254.295H225.485C225.772 254.295 226.032 254.113 226.111 253.839L227.388 249.914C227.596 249.302 228.457 249.302 228.665 249.914Z" fill="#4C2A6E"/>
<path d="M251.526 249.914L252.804 253.839C252.895 254.113 253.143 254.295 253.429 254.295H257.548C258.187 254.295 258.46 255.117 257.939 255.495L254.602 257.92C254.368 258.09 254.277 258.39 254.368 258.663L255.645 262.588C255.841 263.201 255.15 263.709 254.629 263.331L251.292 260.906C251.057 260.737 250.744 260.737 250.51 260.906L247.173 263.331C246.652 263.709 245.948 263.201 246.157 262.588L247.434 258.663C247.525 258.39 247.421 258.09 247.186 257.92L243.85 255.495C243.328 255.117 243.602 254.295 244.241 254.295H248.359C248.646 254.295 248.907 254.113 248.985 253.839L250.262 249.914C250.471 249.302 251.331 249.302 251.526 249.914Z" fill="#4C2A6E"/>
<path d="M274.4 249.914L275.678 253.839C275.769 254.113 276.016 254.295 276.303 254.295H280.422C281.061 254.295 281.334 255.117 280.813 255.495L277.476 257.92C277.242 258.09 277.15 258.39 277.242 258.663L278.519 262.588C278.714 263.201 278.024 263.709 277.502 263.331L274.166 260.906C273.931 260.737 273.618 260.737 273.384 260.906L270.047 263.331C269.526 263.709 268.822 263.201 269.03 262.588L270.308 258.663C270.399 258.39 270.295 258.09 270.06 257.92L266.723 255.495C266.202 255.117 266.476 254.295 267.114 254.295H271.233C271.52 254.295 271.78 254.113 271.859 253.839L273.136 249.914C273.332 249.302 274.205 249.302 274.4 249.914Z" fill="#4C2A6E"/>
<path d="M297.262 249.914L298.539 253.839C298.631 254.113 298.878 254.295 299.165 254.295H303.284C303.922 254.295 304.196 255.117 303.675 255.495L300.338 257.92C300.103 258.09 300.012 258.39 300.09 258.663L301.368 262.588C301.563 263.201 300.872 263.709 300.351 263.331L297.014 260.906C296.78 260.737 296.467 260.737 296.232 260.906L292.896 263.331C292.374 263.709 291.671 263.201 291.879 262.588L293.156 258.663C293.248 258.39 293.143 258.09 292.909 257.92L289.572 255.495C289.051 255.117 289.324 254.295 289.963 254.295H294.082C294.369 254.295 294.629 254.113 294.707 253.839L295.985 249.914C296.206 249.302 297.067 249.302 297.262 249.914Z" fill="#4C2A6E"/>
<path d="M264.338 269.903H197.84V271.754H264.338V269.903Z" fill="#C2BCE2"/>
<path d="M264.338 239.483H197.84V242.965H264.338V239.483Z" fill="#0A4D7A"/>
<path d="M264.338 276.931H197.84V278.782H264.338V276.931Z" fill="#C2BCE2"/>
<path d="M228.235 283.463H197.84V285.315H228.235V283.463Z" fill="#C2BCE2"/>
<path d="M175.516 280.583C185.884 270.211 185.884 253.394 175.516 243.022C165.147 232.65 148.337 232.65 137.969 243.022C127.601 253.394 127.601 270.211 137.969 280.583C148.337 290.956 165.147 290.956 175.516 280.583Z" fill="#7BC7FF"/>
<path d="M100.048 363.26C100.048 363.26 145.08 325.513 152.991 338.865C160.916 352.217 149.237 395.375 149.237 395.375L100.048 363.26Z" fill="#0A85E0"/>
<path d="M123.678 378.685L149.25 395.375C149.25 395.375 159.925 355.893 153.916 340.781C156.653 360.653 135.578 373.248 123.678 378.685Z" fill="#006CBC"/>
<path d="M123.117 359.231C123.117 359.231 150.996 381.619 153.277 389.677C156.966 402.742 135.121 401.281 125.698 401.281C116.261 401.281 56.1495 399.612 56.1495 399.612L56.697 390.368L112.143 387.721C112.143 387.721 81.4351 383.171 82.569 365.438C83.703 347.718 123.117 359.231 123.117 359.231Z" fill="#60A2BF"/>
<path d="M151.753 397.07C146.67 402.103 132.723 401.281 125.685 401.281C116.249 401.281 56.1369 399.625 56.1369 399.625L56.6843 390.368L112.13 387.734C112.13 387.734 134.222 398.374 151.31 397.122C151.466 397.109 151.622 397.096 151.753 397.07Z" fill="#0A85E0"/>
<path d="M56.4236 399.469C56.4236 399.469 53.9733 404.997 55.8501 408.648C57.727 412.299 49.5939 409.639 48.2905 402.442C46.9871 395.244 47.6128 386.652 56.6843 390.498L56.4236 399.469Z" fill="#004CBA"/>
<path d="M87.6786 303.764C87.6786 303.764 107.92 245.246 108.52 245.52C110.879 246.563 115.05 247.541 115.05 247.541L106.708 311.77L87.6786 303.764Z" fill="#0A4D7A"/>
<path d="M108.585 297.089C103.984 294.911 98.236 292.355 91.4975 292.773C88.7213 300.739 87.6786 303.751 87.6786 303.751L106.721 311.744L108.585 297.089Z" fill="#083954"/>
<path d="M113.016 288.287C111.517 293.816 105.6 292.786 105.6 292.786V298.04H95.3816V290.934C95.3946 290.934 95.4207 290.947 95.4337 290.947C100.752 292.173 106.512 288.313 103.971 286.41C101.442 284.519 100.882 281.39 102.211 279.851C103.541 278.326 106.747 279.46 106.747 279.46C109.81 279.369 111.908 278.991 113.277 278.313C113.772 281.455 113.811 285.341 113.016 288.287Z" fill="#FFA683"/>
<path d="M106.721 279.473C106.721 279.473 103.528 278.326 102.198 279.864C100.869 281.403 101.416 284.532 103.958 286.423C106.499 288.313 100.725 292.173 95.4207 290.947C90.1029 289.722 87.1443 278.626 91.7061 271.415C95.8899 264.791 110.592 261.91 113.564 268.86C116.522 275.796 116.692 279.199 106.721 279.473Z" fill="#004CBA"/>
<path d="M105.6 298.04V292.786C105.6 292.786 102.159 292.329 100.804 291.612C100.804 291.612 102.602 293.803 103.801 294.285V298.04H105.6Z" fill="#E57C5C"/>
<path d="M108.337 298.145C108.337 298.145 91.4457 292.29 86.6883 305.472C81.931 318.655 90.0119 350.234 81.3966 361.083C94.7171 367.302 109.993 367.863 123.743 362.621L125.594 361.917C125.594 361.917 119.69 321.627 119.403 323.023C119.169 324.209 139.345 330.637 143.372 328.447C147.4 326.256 171.76 298.731 171.76 298.731L163.562 297.519L141.6 311.979C141.6 311.966 113.89 298.51 108.337 298.145Z" fill="#0A4D7A"/>
<path d="M171.747 298.731C171.747 298.731 180.193 295.081 180.714 293.412H168.554C167.289 293.412 166.103 294.011 165.36 295.041L163.562 297.519L171.747 298.731Z" fill="#FFA683"/>
<path d="M125.581 361.917C125.581 361.917 120.394 326.517 119.508 323.231C119.612 323.336 119.781 323.453 120.003 323.583C119.612 323.231 119.39 323.023 119.39 323.023C119.39 323.023 106.5 319.893 101.925 314.469C101.925 314.469 106.304 323.44 111.935 325.526C116.966 327.391 115.18 354.511 119.038 364.16C120.615 363.717 122.192 363.208 123.73 362.621L125.581 361.917Z" fill="#083954"/>
<path d="M109.146 245.794C109.146 245.794 111.296 238.114 114.489 237.58V247.606L109.146 245.794Z" fill="#FFA683"/>
<mask id="mask1_118_875" style="mask-type:luminance" maskUnits="userSpaceOnUse" x="130" y="235" width="54" height="54">
<path d="M175.516 280.583C185.885 270.211 185.885 253.394 175.516 243.022C165.148 232.65 148.338 232.65 137.969 243.022C127.601 253.394 127.601 270.211 137.969 280.583C148.338 290.956 165.148 290.956 175.516 280.583Z" fill="white"/>
</mask>
<g mask="url(#mask1_118_875)">
<path d="M185.902 300.713L184.194 285.38C183.895 282.915 182.5 280.699 180.388 279.317L175.071 275.848L175.045 275.979V275.861L170.665 274.166L166.208 272.432L162.519 270.998L160.903 270.372L156.836 272.445L152.77 270.372L151.349 270.92L147.869 272.263L143.151 274.088L138.615 275.848V275.914L133.428 279.304C131.316 280.686 129.922 282.902 129.622 285.367L127.914 300.7H138.68L138.706 313.452H174.979L175.005 300.7H185.902V300.713Z" fill="#4C2A6E"/>
</g>
<mask id="mask2_118_875" style="mask-type:luminance" maskUnits="userSpaceOnUse" x="130" y="235" width="54" height="54">
<path d="M175.516 280.583C185.885 270.211 185.885 253.394 175.516 243.022C165.148 232.65 148.338 232.65 137.969 243.022C127.601 253.394 127.601 270.211 137.969 280.583C148.338 290.956 165.148 290.956 175.516 280.583Z" fill="white"/>
</mask>
<g mask="url(#mask2_118_875)">
<path d="M156.979 243.434C150.996 243.434 146.148 248.285 146.148 254.269V259.433H167.81V254.269C167.81 248.285 162.961 243.434 156.979 243.434Z" fill="#0A4D7A"/>
<path d="M161.28 267.517V271.311C161.28 271.311 161.254 271.428 161.215 271.611C160.655 273.84 158.765 278.169 156.901 278.13C155.05 278.091 153.225 273.671 152.808 271.402C152.795 271.337 152.795 271.298 152.795 271.298V267.504H161.28V267.517Z" fill="#FFA683"/>
<path d="M161.281 266.76V270.164C159.99 270.855 158.53 271.233 157.032 271.233C155.533 271.233 154.073 270.855 152.783 270.164V266.76H161.281Z" fill="#E57C5C"/>
<path d="M151.296 259.498C151.296 258.051 150.123 256.864 148.663 256.864C147.217 256.864 146.031 258.038 146.031 259.498C146.031 260.945 147.204 262.132 148.663 262.132C150.123 262.119 151.296 260.945 151.296 259.498Z" fill="#FFA683"/>
<path d="M167.758 259.498C167.758 258.051 166.585 256.864 165.125 256.864C163.678 256.864 162.492 258.038 162.492 259.498C162.492 260.945 163.665 262.132 165.125 262.132C166.585 262.119 167.758 260.945 167.758 259.498Z" fill="#FFA683"/>
<path d="M165.646 255.038C162.544 253.304 161.28 251.909 161.28 251.909H152.756C152.065 253.839 148.494 255.038 148.494 255.038L148.415 259.302C148.415 261.78 149.458 264.791 151.139 267.112C151.817 268.051 152.717 268.794 153.72 269.303C154.737 269.811 155.871 270.085 157.031 270.085C159.364 270.085 161.566 268.99 162.922 267.112C164.603 264.791 165.646 261.78 165.646 259.302V255.038Z" fill="#FFA683"/>
</g>
<path d="M402.106 308.276H214.328C209.075 308.276 204.826 312.527 204.826 317.781V364.264C204.826 369.519 209.075 373.77 214.328 373.77H402.106C407.358 373.77 411.607 369.519 411.607 364.264V317.781C411.607 312.527 407.358 308.276 402.106 308.276Z" fill="white"/>
<path d="M296.18 330.116L297.458 334.041C297.549 334.314 297.796 334.497 298.083 334.497H302.202C302.84 334.497 303.114 335.318 302.593 335.696L299.256 338.122C299.022 338.291 298.93 338.591 299.022 338.865L300.299 342.79C300.494 343.402 299.804 343.911 299.282 343.533L295.946 341.108C295.711 340.938 295.398 340.938 295.164 341.108L291.827 343.533C291.306 343.911 290.602 343.402 290.81 342.79L292.088 338.865C292.179 338.591 292.075 338.291 291.853 338.122L288.516 335.696C287.995 335.318 288.269 334.497 288.907 334.497H293.026C293.313 334.497 293.573 334.314 293.652 334.041L294.929 330.116C295.111 329.503 295.972 329.503 296.18 330.116Z" fill="#4C2A6E"/>
<path d="M319.041 330.116L320.319 334.041C320.41 334.314 320.658 334.497 320.944 334.497H325.063C325.702 334.497 325.975 335.318 325.454 335.696L322.117 338.122C321.883 338.291 321.792 338.591 321.87 338.865L323.147 342.79C323.343 343.402 322.652 343.911 322.13 343.533L318.794 341.108C318.559 340.938 318.246 340.938 318.012 341.108L314.675 343.533C314.154 343.911 313.45 343.402 313.659 342.79L314.936 338.865C315.027 338.591 314.923 338.291 314.688 338.122L311.352 335.696C310.83 335.318 311.104 334.497 311.743 334.497H315.861C316.148 334.497 316.409 334.314 316.487 334.041L317.764 330.116C317.973 329.503 318.846 329.503 319.041 330.116Z" fill="#4C2A6E"/>
<path d="M341.916 330.116L343.194 334.041C343.285 334.314 343.532 334.497 343.819 334.497H347.938C348.577 334.497 348.85 335.318 348.329 335.696L344.992 338.122C344.758 338.291 344.666 338.591 344.745 338.865L346.022 342.79C346.217 343.402 345.527 343.911 345.005 343.533L341.669 341.108C341.434 340.938 341.121 340.938 340.887 341.108L337.55 343.533C337.029 343.911 336.325 343.402 336.533 342.79L337.811 338.865C337.902 338.591 337.798 338.291 337.563 338.122L334.226 335.696C333.705 335.318 333.979 334.497 334.617 334.497H338.736C339.023 334.497 339.283 334.314 339.362 334.041L340.639 330.116C340.847 329.503 341.721 329.503 341.916 330.116Z" fill="#C2BCE2"/>
<path d="M341.173 329.699C340.951 329.738 340.73 329.868 340.651 330.129L339.374 334.054C339.283 334.328 339.035 334.51 338.749 334.51H334.63C333.991 334.51 333.718 335.331 334.239 335.71L337.576 338.135C337.81 338.304 337.901 338.604 337.823 338.878L336.546 342.803C336.35 343.416 337.041 343.924 337.562 343.546L340.899 341.121C340.99 341.055 341.082 341.042 341.186 341.029V329.699H341.173Z" fill="#4C2A6E"/>
<path d="M364.777 330.116L366.054 334.041C366.146 334.314 366.393 334.497 366.68 334.497H370.799C371.437 334.497 371.711 335.318 371.19 335.696L367.853 338.122C367.618 338.291 367.527 338.591 367.618 338.865L368.896 342.79C369.091 343.402 368.4 343.911 367.879 343.533L364.542 341.108C364.308 340.938 363.995 340.938 363.76 341.108L360.424 343.533C359.902 343.911 359.199 343.402 359.407 342.79L360.684 338.865C360.776 338.591 360.671 338.291 360.437 338.122L357.1 335.696C356.579 335.318 356.852 334.497 357.491 334.497H361.61C361.897 334.497 362.157 334.314 362.235 334.041L363.513 330.116C363.721 329.503 364.582 329.503 364.777 330.116Z" fill="#C2BCE2"/>
<path d="M387.652 330.116L388.929 334.041C389.02 334.314 389.268 334.497 389.555 334.497H393.673C394.312 334.497 394.586 335.318 394.064 335.696L390.728 338.122C390.493 338.291 390.402 338.591 390.48 338.865L391.757 342.79C391.953 343.402 391.262 343.911 390.741 343.533L387.404 341.108C387.169 340.938 386.857 340.938 386.622 341.108L383.285 343.533C382.764 343.911 382.06 343.402 382.269 342.79L383.546 338.865C383.637 338.591 383.533 338.291 383.298 338.122L379.962 335.696C379.44 335.318 379.714 334.497 380.353 334.497H384.471C384.758 334.497 385.019 334.314 385.097 334.041L386.374 330.116C386.583 329.503 387.456 329.503 387.652 330.116Z" fill="#C2BCE2"/>
<path d="M354.715 350.104H288.217V351.956H354.715V350.104Z" fill="#C2BCE2"/>
<path d="M354.715 319.685H288.217V323.166H354.715V319.685Z" fill="#FF5A5A"/>
<path d="M354.715 357.132H288.217V358.984H354.715V357.132Z" fill="#C2BCE2"/>
<path d="M318.612 363.665H288.217V365.516H318.612V363.665Z" fill="#C2BCE2"/>
<path d="M269.758 355.135C277.415 342.625 273.485 326.275 260.981 318.615C248.476 310.955 232.132 314.886 224.475 327.396C216.818 339.905 220.748 356.256 233.252 363.916C245.757 371.576 262.101 367.644 269.758 355.135Z" fill="#7BC7FF"/>
<mask id="mask3_118_875" style="mask-type:luminance" maskUnits="userSpaceOnUse" x="220" y="314" width="54" height="54">
<path d="M269.759 355.135C277.417 342.625 273.487 326.274 260.982 318.614C248.477 310.954 232.132 314.885 224.475 327.395C216.818 339.905 220.748 356.256 233.253 363.916C245.758 371.576 262.102 367.645 269.759 355.135Z" fill="white"/>
</mask>
<g mask="url(#mask3_118_875)">
<path d="M236.434 335.579C236.434 335.579 234.922 329.555 237.268 326.908C239.614 324.261 244.267 321.458 248.06 322.892C248.06 322.892 251.045 321.08 253.782 322.592C256.506 324.105 260.442 325.435 260.859 323.609C260.859 323.609 261.081 330.546 257.978 331.641L256.688 336.987H236.812L236.434 335.579Z" fill="#0A4D7A"/>
<path d="M268.014 359.14C264.651 353.351 250.405 350.156 250.405 350.156L246.665 351.591L242.924 350.156C242.924 350.156 228.678 353.351 225.315 359.14L221.184 390.342L227.727 390.237L231.559 364.186C231.559 364.186 233.983 372.596 233.84 377.512C233.709 382.427 232.171 390.55 232.171 390.55H246.261H247.03H261.119C261.119 390.55 259.594 382.427 259.451 377.512C259.321 372.596 261.745 364.186 261.745 364.186L265.577 390.237L272.12 390.342L268.014 359.14Z" fill="#0A4D7A"/>
<path d="M251.07 344.745V350.143C251.07 350.143 250.314 354.368 246.756 355.085C243.054 354.107 242.481 350.143 242.481 350.143V344.745H251.07Z" fill="#FFA683"/>
<path d="M251.07 343.976V347.418C249.766 348.122 248.293 348.501 246.781 348.501C245.269 348.501 243.784 348.122 242.493 347.418V343.976H251.07Z" fill="#E57C5C"/>
<path d="M255.476 333.102C251.526 332.984 248.946 329.933 248.946 329.933C246.534 332.032 238.115 333.102 238.115 333.102L238.062 336.426C238.062 338.93 239.118 341.981 240.813 344.328C242.194 346.232 244.423 347.34 246.769 347.34C249.115 347.34 251.357 346.232 252.725 344.328C254.42 341.981 255.476 338.93 255.476 336.426V333.102Z" fill="#FFA683"/>
<path d="M240.33 336.831C240.33 338.148 239.261 339.217 237.945 339.217C236.628 339.217 235.56 338.148 235.56 336.831C235.56 335.514 236.628 334.445 237.945 334.445C239.261 334.445 240.33 335.514 240.33 336.831Z" fill="#FFA683"/>
<path d="M257.913 336.831C257.913 338.148 256.844 339.217 255.528 339.217C254.211 339.217 253.143 338.148 253.143 336.831C253.143 335.514 254.211 334.445 255.528 334.445C256.844 334.445 257.913 335.514 257.913 336.831Z" fill="#FFA683"/>
</g>
<path d="M367.226 77.8415C388.713 77.8415 406.132 60.4161 406.132 38.9207C406.132 17.4254 388.713 0 367.226 0C345.739 0 328.32 17.4254 328.32 38.9207C328.32 60.4161 345.739 77.8415 367.226 77.8415Z" fill="#F2F0F5"/>
<path d="M367.226 0C366.992 0 366.757 0.0130388 366.522 0.0130388C377.262 6.34988 384.47 18.0326 384.47 31.4104C384.47 51.5292 368.165 67.8538 348.041 67.8538C345.382 67.8538 342.801 67.5669 340.312 67.0193C347.298 73.7212 356.773 77.8415 367.226 77.8415C388.719 77.8415 406.132 60.4087 406.132 38.9207C406.145 17.4328 388.719 0 367.226 0Z" fill="#4C2A6E"/>
<path d="M93.439 162.072C101.585 162.072 102.015 149.933 93.8821 149.424C93.8039 149.424 93.7257 149.411 93.6475 149.411C93.6475 149.359 93.6475 149.307 93.6475 149.255C93.6475 140.584 86.6223 133.556 77.9548 133.556C75.2178 133.556 72.6501 134.26 70.4213 135.486C67.6712 130.362 62.2752 126.893 56.0581 126.893C47.0517 126.893 39.7659 134.195 39.7659 143.205C39.7659 143.687 39.7919 144.17 39.831 144.639C38.1627 144.157 36.4031 143.896 34.5784 143.896C28.0094 143.896 22.2224 147.234 18.8206 152.306C16.0183 156.478 19.1073 162.098 24.1253 162.098H93.439V162.072Z" fill="#7BC7FF"/>
<path d="M343.74 62.9641C354.415 62.9641 354.975 47.0699 344.326 46.3919C344.222 46.3788 344.118 46.3788 344.027 46.3788C344.027 46.3136 344.027 46.2484 344.027 46.1832C344.027 34.8134 334.825 25.6081 323.459 25.6081C319.875 25.6081 316.512 26.5208 313.58 28.1376C309.982 21.4356 302.905 16.8721 294.759 16.8721C282.963 16.8721 273.397 26.4425 273.397 38.2426C273.397 38.8815 273.436 39.5074 273.488 40.1202C271.298 39.4944 268.991 39.1423 266.606 39.1423C258.004 39.1423 250.418 43.5103 245.96 50.1601C242.285 55.6233 246.338 62.9902 252.92 62.9902H343.74V62.9641Z" fill="#7BC7FF"/>
<path d="M472.201 100.385C462.386 100.385 461.878 85.782 471.666 85.1562C471.758 85.1562 471.849 85.1431 471.94 85.1431C471.94 85.0779 471.94 85.0258 471.94 84.9606C471.94 74.5165 480.399 66.0543 490.839 66.0543C494.124 66.0543 497.226 66.9019 499.924 68.3752C503.234 62.2079 509.738 58.0225 517.22 58.0225C528.064 58.0225 536.848 66.8106 536.848 77.6589C536.848 78.2456 536.822 78.8193 536.77 79.38C538.777 78.8063 540.902 78.4933 543.092 78.4933C551.003 78.4933 557.963 82.5093 562.069 88.6114C565.445 93.6314 561.73 100.398 555.682 100.398H472.201V100.385Z" fill="#7BC7FF"/>
<path d="M506.754 373.822L508.683 373.183C508.956 369.845 507.523 364.225 499.963 355.555C485.952 339.504 473.948 316.647 476.972 307.728C476.972 307.728 463.273 328.369 472.514 341.981C481.194 354.759 504.251 357.51 506.754 373.822Z" fill="#60A2BF"/>
<path d="M507.536 373.561L508.683 373.183C508.956 369.845 507.523 364.225 499.963 355.555C485.952 339.504 473.948 316.647 476.972 307.728C476.972 307.728 469.712 326.687 479.122 339.386C488.415 351.917 504.994 354.524 507.536 373.561Z" fill="#006CBC"/>
<path d="M512.358 360.105C511.615 363.508 510.637 366.155 509.751 368.098L510.637 368.254C514.743 362.713 521.482 351.76 522.98 337.848C525.157 317.533 528.116 292.095 528.116 292.095C528.116 292.095 507.444 309.162 512.071 332.88C514.365 344.719 513.766 353.716 512.358 360.105Z" fill="#60A2BF"/>
<path d="M519.63 323.192C518.496 340.143 515.303 358.801 511.158 366.207C511.758 365.738 512.41 365.255 513.061 364.76C516.998 358.684 521.755 349.257 522.967 337.861C525.144 317.547 528.102 292.108 528.102 292.108C528.102 292.108 521.103 301.118 519.63 323.192Z" fill="#006CBC"/>
<path d="M516.073 367.993C514.313 370.001 512.671 371.423 511.355 372.414L511.902 372.844C516.712 370.627 525.314 365.738 531.453 356.924C540.433 344.054 551.838 328.017 551.838 328.017C551.838 328.017 531.596 331.889 525.939 349.557C523.111 358.371 519.383 364.212 516.073 367.993Z" fill="#60A2BF"/>
<path d="M534.62 345.828C527.582 356.832 518.536 368.202 513.01 371.657C513.583 371.566 514.196 371.475 514.822 371.384C519.722 368.75 526.409 364.147 531.453 356.924C540.433 344.054 551.838 328.017 551.838 328.017C551.838 328.017 543.783 331.511 534.62 345.828Z" fill="#006CBC"/>
<path d="M508.318 367.368C509.582 370.992 510.52 373.47 511.068 375.191L511.798 375.021C510.612 368.671 508.552 357.693 506.61 350.482C503.756 339.869 505.985 334.718 503.678 316.256C501.384 297.793 490.435 273.41 490.435 273.41C490.435 273.41 483.371 299.149 493.472 323.688C503.573 348.24 502.713 351.421 508.318 367.368Z" fill="#60A2BF"/>
<path d="M511.107 375.178L511.251 375.152L511.329 372.557C510.117 366.09 508.318 356.832 506.611 350.496C503.756 339.882 505.985 334.732 503.678 316.269C501.384 297.806 490.436 273.423 490.436 273.423C490.436 273.423 493.877 310.088 498.895 326.126C503.522 340.951 510.143 370.81 511.107 375.178Z" fill="#006CBC"/>
<path d="M490.188 371.475L494.619 397.709C495.036 400.16 497.148 401.946 499.624 401.946H525.236C527.712 401.946 529.837 400.16 530.241 397.709L534.672 371.475C535.076 369.102 533.251 366.937 530.84 366.937H494.007C491.621 366.937 489.797 369.102 490.188 371.475Z" fill="white"/>
<path d="M534.659 370.144C534.607 369.884 534.542 369.649 534.45 369.427C534.45 369.414 534.437 369.401 534.424 369.375C534.333 369.167 534.242 368.958 534.111 368.762C534.085 368.723 534.059 368.684 534.033 368.658C533.916 368.489 533.799 368.332 533.655 368.176C533.603 368.123 533.538 368.071 533.486 368.019C533.355 367.902 533.238 367.784 533.095 367.68C533.004 367.615 532.899 367.563 532.795 367.498C532.678 367.419 532.56 367.354 532.43 367.289C532.287 367.224 532.13 367.172 531.974 367.133C531.87 367.106 531.778 367.054 531.674 367.041C531.4 366.976 531.127 366.95 530.84 366.95H519.175H494.006C491.791 366.95 490.083 368.788 490.148 370.94H523.033C523.033 371.122 523.033 371.292 523.007 371.487L518.575 397.721C518.158 400.173 516.047 401.959 513.57 401.959H525.235C527.712 401.959 529.836 400.173 530.24 397.721L534.672 371.487C534.763 371.018 534.724 370.575 534.659 370.144Z" fill="#9357A2"/>
<path d="M151.948 180.196H94.117C89.9722 180.196 86.6095 183.56 86.6095 187.706V218.152V233.159L101.312 219.834C102.511 218.751 104.062 218.152 105.678 218.152H151.948C154.789 218.152 157.109 215.844 157.109 212.988V185.346C157.109 182.504 154.802 180.196 151.948 180.196Z" fill="#0A4D7A"/>
<path d="M132.149 191.852C129.647 189.349 125.593 189.349 123.091 191.852L122.244 192.7L121.396 191.852C120.145 190.601 118.503 189.975 116.861 189.975C115.218 189.975 113.589 190.601 112.338 191.852C109.835 194.356 109.835 198.411 112.338 200.914L113.185 201.762L122.244 210.824L131.302 201.762L132.149 200.914C133.401 199.663 134.026 198.02 134.026 196.39C134.026 194.734 133.401 193.104 132.149 191.852Z" fill="white"/>
<path d="M495.818 118.848H437.649C433.478 118.848 430.089 122.225 430.089 126.411V157.026V172.125L444.882 158.721C446.081 157.626 447.646 157.026 449.275 157.026H495.818C498.686 157.026 501.006 154.705 501.006 151.836V124.038C501.006 121.169 498.686 118.848 495.818 118.848Z" fill="#0A4D7A"/>
<path d="M482.055 139.619C483.098 139.541 483.919 138.667 483.919 137.611C483.919 136.49 483.02 135.59 481.899 135.59H477.949C477.754 135.564 477.545 135.551 477.35 135.551C475.212 135.577 475.095 135.564 474.287 135.381C472.566 135.016 474.587 132.917 473.518 129.084C472.449 125.25 468.721 125.472 468.891 127.258C469.073 129.045 469.282 133.308 468.278 134.664C466.036 137.715 462.387 137.989 462.387 137.989L462.309 148.146L466.297 148.173C468.096 150.22 471.485 150.663 471.837 150.715V150.754H476.32H476.542C476.568 150.754 476.607 150.754 476.633 150.754H479.435C480.452 150.754 481.286 149.933 481.286 148.903C481.286 148.316 481.012 147.794 480.595 147.455C481.651 147.39 482.485 146.517 482.485 145.447C482.485 144.548 481.899 143.791 481.09 143.531H481.39C482.511 143.531 483.411 142.631 483.411 141.51C483.411 140.636 482.85 139.893 482.055 139.619Z" fill="white"/>
<path d="M451.152 150.063L457.994 150.076L458.073 135.238L451.243 135.225L451.152 150.063Z" fill="white"/>
<path d="M362.991 284.793C361.375 281.964 360.463 278.665 360.515 275.144C360.684 264.805 369.339 256.434 379.675 256.616C390.323 256.799 398.808 265.809 398.157 276.644C397.583 285.993 390.036 293.607 380.704 294.259C377.876 294.455 375.178 294.024 372.715 293.099C371.529 292.642 370.225 292.603 369 292.968L361.675 295.185L363.461 289.252C363.904 287.753 363.76 286.136 362.991 284.793Z" fill="#0A4D7A"/>
<path d="M378.945 265.274L377.003 271.246C376.899 271.585 376.586 271.806 376.234 271.806H369.965C369.17 271.806 368.844 272.81 369.483 273.28L374.566 276.97C374.853 277.178 374.97 277.543 374.866 277.882L372.924 283.854C372.676 284.61 373.536 285.223 374.175 284.767L379.258 281.077C379.545 280.868 379.936 280.868 380.209 281.077L385.293 284.767C385.931 285.236 386.791 284.61 386.544 283.854L384.602 277.882C384.498 277.543 384.615 277.178 384.902 276.97L389.985 273.28C390.623 272.81 390.298 271.806 389.502 271.806H383.233C382.881 271.806 382.569 271.585 382.464 271.246L380.522 265.274C380.249 264.518 379.193 264.518 378.945 265.274Z" fill="white"/>
</g>
<defs>
<clipPath id="clip0_118_875">
<rect width="579" height="422" fill="white"/>
</clipPath>
</defs>
</svg>
