<svg width="326" height="217" viewBox="0 0 326 217" fill="none" xmlns="http://www.w3.org/2000/svg">
<g clip-path="url(#clip0_94_851)">
<path d="M326 0H0V217H326V0Z" fill="white"/>
<path d="M55.5742 188.58C55.5742 188.58 20.8672 163.693 36.6825 131.216C52.4979 98.7382 81.1261 148.309 101.081 102.467C121.035 56.6261 125.505 21.534 178.626 36.009C231.748 50.4839 209.972 88.4741 237.773 92.2901C265.576 96.106 287.542 109.864 274.802 139.612C262.06 169.362 293.692 188.898 293.692 188.898L55.5742 188.58Z" fill="#EBF2F9"/>
<path d="M292.067 38.04L282.727 38.9883L285.64 41.3601L262.256 69.377L248.114 51.5005L231.998 69.5354L225.546 59.4905L212.927 72.2729L216.993 76.3329L224.557 68.7803L231.44 78.9869L248.041 60.2782L261.897 78.3565L290.096 44.9884L293.016 47.3656L292.067 38.04Z" fill="#4C2A6E"/>
<path d="M265.045 164.741C265.045 164.741 261.192 160.252 264.807 157.401C264.807 157.401 267.449 155.804 269.602 155.934C269.602 155.934 266.55 161.043 267.537 161.551C268.525 162.059 270.526 155.613 270.526 155.613C270.526 155.613 276.537 155.031 278.47 155.959C278.47 155.959 273.332 160.157 274.413 160.407C275.496 160.657 281.045 156.536 281.045 156.536C281.045 156.536 286.639 157.487 286.341 160.894C286.043 164.3 284.115 165.353 283.267 165.262C282.42 165.171 277.465 163.283 277.357 163.975C277.249 164.668 280.232 166.933 282.321 167.039C282.321 167.039 278.377 171.382 275.756 170.128C273.135 168.875 272.911 166.888 271.277 166.143C269.643 165.397 268.249 165.4 268.923 166.159C269.598 166.919 272.555 167.657 273.49 169.308C274.424 170.958 275.262 172.071 272.551 171.663C269.838 171.255 265.431 169.274 265.237 167.005C265.044 164.737 265.045 164.741 265.045 164.741Z" fill="#4C2A6E"/>
<path d="M283.594 160.987C283.594 160.987 268.4 160.402 265.045 164.741C265.045 164.741 264.303 166.96 262.02 168.981L261.663 169.95C261.663 169.95 264.296 167.178 265.238 167.011C265.238 167.01 263.765 161.635 283.594 160.987Z" fill="#699DEE"/>
<path d="M262.019 168.98C262.019 168.98 258.758 171.388 258.531 175.691L259.124 175.744C259.124 175.744 260.165 171.295 262.048 169.555C263.93 167.816 262.019 168.98 262.019 168.98Z" fill="#699DEE"/>
<path d="M251.572 159.096C251.572 159.096 257.701 155.668 254.84 151.017C254.84 151.017 252.552 148.161 250.1 147.426C250.1 147.426 251.408 154.363 250.1 154.527C248.793 154.689 249.202 146.692 249.202 146.692C249.202 146.692 242.776 145.408 240.243 145.652C240.243 145.652 244.216 150.609 242.909 150.445C241.601 150.282 237.106 143.427 237.106 143.427C237.106 143.427 230.486 142.203 229.423 146.12C228.36 150.037 230.077 151.995 231.058 152.241C232.039 152.486 238.332 152.403 238.169 153.219C238.006 154.035 233.755 155.341 231.385 154.607C231.385 154.607 234 161.054 237.433 160.727C240.866 160.401 241.929 158.28 244.053 158.116C246.178 157.953 247.731 158.524 246.669 159.095C245.606 159.666 242.01 159.282 240.293 160.738C238.576 162.195 237.187 163.093 240.375 163.746C243.562 164.399 249.283 163.991 250.427 161.542C251.572 159.096 251.572 159.096 251.572 159.096Z" fill="#699DEE"/>
<path d="M232.446 147.344C232.446 147.344 249.61 152.893 251.572 159.096C251.572 159.096 251.49 161.87 253.206 165.053V166.277C253.206 166.277 251.408 162.115 250.427 161.544C250.427 161.544 254.269 156.159 232.446 147.344Z" fill="#699DEE"/>
<path d="M253.207 165.053C253.207 165.053 255.854 169.067 254.345 173.953L253.663 173.77C253.663 173.77 254.324 168.39 252.94 165.683C251.555 162.976 253.207 165.053 253.207 165.053Z" fill="#699DEE"/>
<path d="M261.324 154.369C261.324 154.369 253.244 149.851 257.014 143.72C257.014 143.72 260.031 139.955 263.263 138.987C263.263 138.987 261.539 148.131 263.263 148.347C264.986 148.561 264.448 138.02 264.448 138.02C264.448 138.02 272.959 133.932 276.299 134.255C276.299 134.255 271.02 143.183 272.744 142.968C274.467 142.753 280.393 133.716 280.393 133.716C280.393 133.716 289.12 132.103 290.521 137.267C291.921 142.43 289.659 145.011 288.366 145.335C287.073 145.657 278.777 145.549 278.992 146.626C279.207 147.701 284.81 149.423 287.934 148.454C287.934 148.454 284.486 156.952 279.961 156.522C275.437 156.091 274.036 153.295 271.234 153.079C268.433 152.864 266.386 153.617 267.786 154.37C269.187 155.123 273.927 154.617 276.19 156.538C278.452 158.459 280.284 159.642 276.082 160.503C271.88 161.363 264.338 160.825 262.83 157.598C261.324 154.369 261.324 154.369 261.324 154.369Z" fill="#AFCDFB"/>
<path d="M286.534 138.879C286.534 138.879 263.909 146.194 261.324 154.369C261.324 154.369 261.431 158.027 259.169 162.223V163.835C259.169 163.835 261.539 158.349 262.832 157.596C262.832 157.596 257.768 150.496 286.534 138.879Z" fill="#699DEE"/>
<path d="M259.169 162.222C259.169 162.222 255.68 167.512 257.67 173.951L258.567 173.711C258.567 173.711 257.696 166.618 259.522 163.05C261.346 159.483 259.169 162.222 259.169 162.222Z" fill="#699DEE"/>
<path d="M261.052 187.916C269.793 187.916 276.88 180.841 276.88 172.112H245.225C245.224 180.841 252.311 187.916 261.052 187.916Z" fill="#F1A34F"/>
<path d="M264.947 187.796C264.303 187.876 263.647 187.918 262.98 187.918C254.239 187.918 247.152 180.841 247.152 172.114H251.085C251.085 180.176 257.133 186.829 264.947 187.796Z" fill="#FFB973"/>
<path d="M275.146 186.771H246.958C245.88 186.771 245.005 187.644 245.005 188.72H277.099C277.099 187.644 276.224 186.771 275.146 186.771Z" fill="#F1A34F"/>
<path d="M277.24 172.112H244.703V172.597H277.24V172.112Z" fill="#D86713"/>
<path d="M148.765 102.808L141.925 184.018C141.925 184.018 141.208 188.941 144.875 188.949C150.905 188.963 174.888 188.949 174.888 188.949C174.888 188.949 170.35 187.924 170.404 185.62C170.469 182.902 178.399 102.04 178.399 102.04L148.765 102.808Z" fill="#4A75CB"/>
<path d="M176.835 187.476C175.65 187.479 152.743 187.551 146.87 187.476C144.311 187.445 143.862 185.204 143.841 183.754C143.83 183.059 143.919 182.546 143.919 182.546L144.097 180.435L144.55 175.056L144.95 170.303L145.465 164.195L145.899 159.04L150.76 101.335L180.394 100.566C180.394 100.566 177.054 134.406 174.691 159.04C174.427 161.785 174.176 164.416 173.945 166.873C173.87 167.657 173.798 168.424 173.726 169.171C173.507 171.502 173.307 173.642 173.133 175.531C173.041 176.527 172.956 177.453 172.88 178.3C172.579 181.622 172.402 183.744 172.399 184.147C172.398 184.383 172.418 184.601 172.457 184.805C172.944 187.391 176.39 187.476 176.835 187.476Z" fill="#AFCDFB"/>
<path d="M219.073 58.616H76.7969L93.4587 125.442L95.7396 134.594L103.501 165.72H247.677L219.073 58.616Z" fill="#AFCDFB"/>
<path d="M76.7955 58.616L74.4863 59.3852L100.43 168.045L103.5 165.721L76.7955 58.616Z" fill="#4A75CB"/>
<path d="M100.431 168.045H243.72L247.676 165.721H103.5L100.431 168.045Z" fill="#4A75CB"/>
<path d="M150.749 188.981H181.773V187.509H150.749V188.981Z" fill="#4A75CB"/>
<path d="M173.887 168.045L173.726 169.17L144.55 175.055L144.95 170.303L145.141 168.045H173.887Z" fill="#4A75CB"/>
<path d="M176.835 187.476C175.65 187.479 152.743 187.551 146.87 187.476C144.311 187.445 143.863 185.204 143.841 183.754L172.88 178.299C172.579 181.621 172.402 183.743 172.4 184.146C172.398 184.382 172.418 184.6 172.457 184.804C172.944 187.391 176.39 187.476 176.835 187.476Z" fill="#699DEE"/>
<path opacity="0.2" d="M164.961 144.679L103.501 165.721L98.252 144.666L164.961 144.679Z" fill="#699DEE"/>
<path d="M219.073 58.616H76.7959L98.2391 144.666L242.062 144.694L219.073 58.616Z" fill="#4C2A6E"/>
<path d="M179.411 155.575C179 153.463 176.953 151.752 174.838 151.752C172.723 151.752 171.343 153.463 171.754 155.575C172.165 157.686 174.212 159.397 176.327 159.397C178.441 159.397 179.821 157.686 179.411 155.575Z" fill="#4C2A6E"/>
<path d="M235.448 140.964H102.233L87.147 80.9573L85.9907 76.3558L85.003 72.4303L82.6895 63.2273H213.984L216.524 72.4303L217.609 76.3558L218.879 80.9573L235.448 140.964Z" fill="white"/>
<path d="M213.984 63.2273H82.6895L85.003 72.4303H216.524L213.984 63.2273Z" fill="#AFCDFB"/>
<path d="M88.9865 66.2361C88.3497 66.2361 87.9629 66.7515 88.1215 67.3862C88.2802 68.022 88.9246 68.5363 89.5613 68.5363C90.1981 68.5363 90.585 68.0209 90.4263 67.3862C90.2677 66.7515 89.6233 66.2361 88.9865 66.2361Z" fill="#E9F3FE"/>
<path d="M92.8156 66.2361C92.1788 66.2361 91.792 66.7515 91.9506 67.3862C92.1093 68.022 92.7537 68.5363 93.3904 68.5363C94.0272 68.5363 94.4141 68.0209 94.2554 67.3862C94.0957 66.7515 93.4513 66.2361 92.8156 66.2361Z" fill="#E9F3FE"/>
<path d="M98.3775 67.3862C98.2189 66.7504 97.5745 66.2361 96.9377 66.2361C96.3009 66.2361 95.914 66.7515 96.0727 67.3862C96.2313 68.022 96.8757 68.5363 97.5125 68.5363C98.1493 68.5374 98.5362 68.022 98.3775 67.3862Z" fill="#E9F3FE"/>
<path d="M259.185 178.538L257.798 184.37L255.722 184.358L255.646 178.538H259.185Z" fill="#E49963"/>
<path d="M241.714 178.786L237.769 184.37L236.23 182.398L238.606 178.019L241.714 178.786Z" fill="#E49963"/>
<path d="M251.972 101.911C252.689 101.504 253.548 101.46 254.149 101.495C253.995 101.336 253.69 101.277 253.69 101.277C254.062 101.222 254.895 101.591 254.895 101.591C260.079 99.5966 260.894 107.218 260.785 108.988C260.676 110.759 262.527 111.337 265.224 112.733C270.37 115.394 270.822 118.959 270.822 118.959C270.782 118.983 270.741 119.01 270.696 119.041C270.441 118.609 269.915 117.797 269.471 117.676C269.488 117.715 269.995 118.792 270.184 119.41C268.666 120.563 265.826 123.118 263.847 124.929C263.856 124.575 263.841 124.072 263.712 123.807L263.468 125.277C262.408 126.25 261.678 126.934 261.678 126.934C261.808 125.503 255.196 117.953 251.747 115.69C250.907 114.456 250.608 112.275 250.586 112.103C250.731 113.833 251.027 114.803 251.293 115.349C248.371 112.663 250.071 102.989 251.972 101.911Z" fill="#163560"/>
<path d="M251.95 115.802C251.933 115.81 253.616 116.682 254.882 116.337C256.073 116.013 256.851 114.471 256.835 114.468C256.331 114.368 256.185 113.676 256.196 110.703L255.968 110.747L252.135 111.504C252.135 111.504 252.222 112.709 252.225 113.844C252.227 114.797 252.17 115.7 251.95 115.802Z" fill="#E49963"/>
<path d="M256.285 103.159C256.285 103.159 254.394 101.148 252.02 103.055C252.021 103.055 253.402 102.818 256.285 103.159Z" fill="#E37970"/>
<path d="M252.135 111.506C252.135 111.506 252.222 112.71 252.225 113.845C254.37 113.784 255.503 111.831 255.969 110.748L252.135 111.506Z" fill="#D68D5D"/>
<path d="M256.363 110.33C256.363 110.33 257.487 108.558 257.758 107.041C257.95 105.958 257.398 101.946 253.36 102.523C253.36 102.523 252.187 102.638 251.084 103.382C250.207 103.973 248.942 105.25 250.357 108.752L250.725 109.934L256.363 110.33Z" fill="#163560"/>
<path d="M236.857 180.868L238.89 180.929L241.089 180.997C241.089 180.997 246.169 175.349 249.018 166.297C249.085 166.087 249.155 165.874 249.229 165.658C250.788 161.117 254.021 155.419 255.725 150.261C255.997 149.439 256.24 148.666 256.459 147.933C256.528 147.699 256.597 147.469 256.662 147.242C257.917 142.887 258.281 140.027 258.616 136.972L246.314 137.07C246.313 137.069 244.326 157.934 236.857 180.868Z" fill="#2B478B"/>
<path d="M248.035 130.011C248.066 135.856 247.176 138.365 247.176 138.365C247.176 138.365 252.443 141.037 258.704 139.07C258.778 139.047 263.887 137.882 263.887 137.882C263.783 137.645 262.85 133.706 262.748 133.489C261.427 130.655 260.423 129.412 260.266 128.541C259.975 126.915 259.97 125.232 260.114 123.645C260.496 119.442 261.632 115.954 261.632 115.954C259.926 115.567 258.329 114.885 256.553 114.221C256.145 114.729 254.896 115.261 253.814 115.236C252.566 115.209 252.162 114.675 252.227 114.093C250.898 114.832 249.838 115.529 249.838 115.529C248.709 117.487 246.418 119.39 246.252 122.395C246.211 123.133 248.034 129.847 248.035 130.011Z" fill="#E7F1FD"/>
<path d="M240.892 121.328C242.698 119.222 247.377 114.653 252.205 114.093L248.039 122.198C248.039 122.198 247.804 123.587 246.571 124.396C243.549 126.38 239.707 127.256 239.707 127.256C239.707 127.256 237.104 126.123 233.547 123.521C232.43 122.704 230.469 119.588 230.469 119.588L230.998 117.819C230.998 117.819 234.329 119.679 235.519 120.215C236.197 120.521 237.758 121.25 238.858 121.766C239.558 122.094 240.389 121.914 240.892 121.328Z" fill="#A8D29F"/>
<path d="M251.418 112.58C251.418 112.58 256.493 112.663 256.496 109.507C256.5 106.351 257.157 104.236 253.918 104.049C250.677 103.863 250.047 105.066 249.79 106.119C249.531 107.172 250.098 112.477 251.418 112.58Z" fill="#E49963"/>
<path d="M251.605 103.971C251.605 103.971 252.995 107.674 255.127 108.221C257.259 108.769 258.185 108.198 258.185 108.198C258.185 108.198 256.55 106.901 256.21 104.636C256.21 104.636 252.654 102.209 251.605 103.971Z" fill="#163560"/>
<path d="M251.95 104.272C251.95 104.272 250.912 105.099 250.659 105.903C250.405 106.707 250.291 108.361 249.809 108.305C249.809 108.305 248.762 105.788 249.938 104.364C251.187 102.854 251.95 104.272 251.95 104.272Z" fill="#163560"/>
<path d="M230.997 117.818C230.997 117.818 230.282 115.243 227.447 115.607C227.122 115.709 226.171 116.088 226.779 117.103C227.226 117.852 227.421 117.466 228.125 118.472C228.829 119.479 229.594 119.706 230.468 119.586L230.997 117.818Z" fill="#E49963"/>
<path d="M257.868 184.043C257.868 184.043 257.7 185.198 258.132 186.435C258.132 186.435 258.472 187.981 256.946 188.01C255.421 188.039 255.047 187.895 255.22 186.947C255.392 185.998 255.72 184.358 255.72 184.358L257.868 184.043Z" fill="#E49963"/>
<path d="M255.076 188.671C255.076 188.671 255.109 188.691 255.172 188.722H258.158C258.216 188.691 258.243 188.671 258.243 188.671C258.416 187.895 258.133 186.435 258.133 186.435C256.405 188.015 255.324 186.396 255.324 186.396C255.044 187.07 255.076 188.671 255.076 188.671Z" fill="#82B378"/>
<path d="M232.555 187.102C232.555 187.102 235.367 183.985 236.231 182.398L238.323 183.468L233.648 187.852L232.554 187.708L232.555 187.102Z" fill="#E49963"/>
<path d="M230.811 188.721H234.66C235.03 188.444 235.377 187.804 235.807 186.944C236.036 186.487 236.551 186.234 237.081 186.095V188.69H237.879L238.636 185.931C239.133 185.018 238.675 184.189 238.324 183.467C237.916 183.466 236.82 183.745 234.742 186.082C234.059 186.849 233.304 187.124 232.556 187.1C232.545 187.106 232.535 187.112 232.525 187.116C231.271 187.68 230.913 188.379 230.811 188.721Z" fill="#82B378"/>
<path d="M252.227 114.092C252.227 114.092 249.291 121.335 249.205 122.8C249.119 124.266 248.859 146.769 248.859 146.769C248.859 146.769 249.032 147.804 247.046 147.372C245.059 146.942 244.542 146.51 244.542 146.51C244.542 146.51 246.442 132.628 245.923 127.801C245.405 122.973 249.895 115.098 249.895 115.098L252.227 114.092Z" fill="#A8D29F"/>
<path d="M238.889 180.93L241.088 180.998C241.088 180.998 246.168 175.35 249.017 166.298C249.084 166.088 249.154 165.875 249.228 165.659C250.788 161.118 254.02 155.42 255.724 150.262C255.996 149.44 256.239 148.667 256.458 147.935C256.527 147.7 256.596 147.47 256.661 147.243L254.85 145.871C254.85 145.871 249.411 154.665 247.727 162.941C246.263 170.129 240.406 178.779 238.889 180.93Z" fill="#233862"/>
<path d="M244.664 126.457L244.771 126.784L250.465 124.937C250.465 124.937 250.54 124.849 250.501 124.734C250.457 124.607 250.358 124.608 250.358 124.608L244.664 126.457Z" fill="#163560"/>
<path d="M254.66 163.71C254.628 167.735 254.832 176.987 255.357 180.819H257.306C258.382 180.819 258.919 180.803 258.919 180.803C260.236 174.143 261.173 168.632 261.855 163.883C262.415 159.985 262.913 156.645 263.295 153.768C263.68 150.874 263.948 148.451 264.044 146.402C264.059 146.08 264.07 145.767 264.075 145.462C264.082 145.156 264.083 144.858 264.081 144.57L253.451 143.535C253.585 150.587 254.677 161.371 254.66 163.71Z" fill="#2B478B"/>
<path d="M257.306 180.819C258.383 180.819 258.919 180.803 258.919 180.803C260.236 174.143 261.173 168.632 261.856 163.883C262.415 159.985 262.913 156.645 263.295 153.768C263.68 150.874 263.948 148.451 264.044 146.402L260.144 148.693C260.144 148.693 262.634 149.569 261.684 156.209C260.733 162.849 258.628 179.879 257.306 180.819Z" fill="#233862"/>
<path d="M256.803 146.338C256.803 146.338 257.552 149.04 260.142 148.695C262.733 148.35 266.417 146.798 266.417 146.798C266.417 146.798 265.309 143.306 263.934 138.717C262.267 133.162 260.204 126.001 259.232 121.484C258.959 120.218 258.772 119.161 258.703 118.405L256.554 114.242C256.554 114.242 253.349 121.422 253.177 123.233C253.004 125.042 256.803 146.338 256.803 146.338Z" fill="#A8D29F"/>
<path d="M259.39 122.962L256.554 114.24C256.562 114.243 260.137 115.302 261.935 116.209C261.935 116.209 263.059 117.656 263.755 120.994C263.755 120.994 264.489 129.008 262.848 131.939C262.848 131.939 257.667 132.974 249.378 130.128V128.232C249.378 128.232 258.445 128.706 260.301 128.922L259.39 122.962Z" fill="#E49963"/>
<path d="M256.918 127.025C257.033 129.957 257.725 135.647 263.884 138.693C263.9 138.701 263.916 138.71 263.933 138.716C262.266 133.161 260.203 126 259.231 121.483C258.101 123.171 256.855 125.411 256.918 127.025Z" fill="#82B378"/>
<path d="M256.553 114.24C256.553 114.24 261.812 114.61 263.078 117.426C264.344 120.243 264.747 129.612 263.135 132.371C263.135 132.371 260.916 133.003 256.991 132.269C256.944 132.261 256.895 132.251 256.846 132.242C256.846 132.242 255.594 129.181 256.716 128.578C256.716 128.578 260.026 128.751 259.681 127.658C259.336 126.565 256.553 114.24 256.553 114.24Z" fill="#A8D29F"/>
<path d="M250.307 128.736C250.307 128.736 249.584 127.862 249.431 126.97C249.277 126.078 248.799 125.416 247.552 125.252C246.306 125.089 245.769 125.071 245.772 125.422C245.776 125.772 246.791 128.222 248.58 129.686C250.369 131.148 250.307 128.736 250.307 128.736Z" fill="#E49963"/>
<path d="M244.254 126.774L244.664 126.457L244.77 126.786L244.254 126.774Z" fill="#163560"/>
<path d="M229.235 118.241C229.193 118.241 229.149 118.23 229.111 118.206L195.858 98.0167C195.745 97.9484 195.709 97.8008 195.778 97.688C195.846 97.5751 195.994 97.5393 196.107 97.6077L229.36 117.797C229.473 117.866 229.509 118.013 229.441 118.126C229.395 118.2 229.316 118.241 229.235 118.241Z" fill="#163560"/>
<path d="M124.959 89.1184C124.255 89.7141 122.829 90.8327 122.259 91.3079L123.702 109.317L108.857 102.692L106.157 104.881C105.799 106.3 105.607 107.787 105.607 109.317C105.607 119.294 113.709 127.383 123.702 127.383C133.694 127.383 141.796 119.294 141.796 109.317C141.796 99.3402 134.952 89.1184 124.959 89.1184Z" fill="#82B378"/>
<path d="M119.158 87.6028C111.341 88.218 104.922 93.7927 103.057 101.176L120.601 105.612L123.3 103.422L119.158 87.6028Z" fill="#AA413E"/>
<path d="M126.401 89.0623C125.915 89.0623 125.435 89.0818 124.959 89.1198L126.401 107.129L108.856 102.693C108.498 104.112 108.307 105.599 108.307 107.129C108.307 117.106 116.408 125.195 126.401 125.195C136.394 125.195 144.495 117.106 144.495 107.129C144.495 97.1509 136.394 89.0623 126.401 89.0623Z" fill="#A8D29F"/>
<path d="M121.857 85.4133C114.041 86.0285 107.622 91.6033 105.756 98.9867L123.3 103.422L121.857 85.4133Z" fill="#C65447"/>
<path d="M119.701 92.3106C119.64 92.3106 119.578 92.2868 119.531 92.2401C119.438 92.1468 119.438 91.9949 119.531 91.9016L130.335 81.1145H199.816C199.949 81.1145 200.055 81.2219 200.055 81.3532C200.055 81.4856 199.948 81.5919 199.816 81.5919H130.534L119.87 92.239C119.823 92.2868 119.761 92.3106 119.701 92.3106Z" fill="#163560"/>
<path d="M140.784 112.407C140.723 112.407 140.661 112.383 140.614 112.337C140.521 112.243 140.521 112.091 140.614 111.998L152.245 100.385H203.458C203.591 100.385 203.697 100.493 203.697 100.624C203.697 100.756 203.59 100.863 203.458 100.863H152.443L140.954 112.334C140.906 112.384 140.846 112.407 140.784 112.407Z" fill="#163560"/>
<path d="M201.253 79.3449H130.338L128.9 77.1445H199.815L201.253 79.3449Z" fill="#4C2A6E"/>
<path d="M203.458 98.9129H152.188L150.75 96.7114H202.02L203.458 98.9129Z" fill="#4C2A6E"/>
<path d="M187.847 138.716H168.955L159.854 106.398H178.746L187.847 138.716Z" fill="#4C2A6E"/>
<path d="M211.549 138.716H192.657L183.557 106.398H202.448L211.549 138.716Z" fill="#4C2A6E"/>
<path d="M197.398 109.51C197.398 109.51 203.823 116.709 204.131 119.462C204.44 122.216 201.072 126.523 201.072 126.523L197.398 109.51Z" fill="#AA413E"/>
<path d="M194.645 185.252C194.645 185.252 194.508 187.678 194.113 188.722H186.08C186.216 188.374 186.531 187.929 187.263 187.787C188.522 187.546 190.627 186.573 191.388 184.744C192.191 182.819 194.645 185.252 194.645 185.252Z" fill="#163560"/>
<path d="M204.231 185.252C204.231 185.252 204.094 187.678 203.7 188.722H195.667C195.802 188.374 196.118 187.929 196.85 187.787C198.108 187.546 200.214 186.573 200.975 184.744C201.777 182.819 204.231 185.252 204.231 185.252Z" fill="#163560"/>
<path d="M189.879 143.529C189.879 143.529 191.005 151.45 195.204 165.51C199.402 179.571 199.974 185.66 199.974 185.66L204.478 185.521C204.478 185.521 204.516 170.154 202.582 163.084C200.647 156.013 202.165 137.594 202.165 137.594L189.879 143.529Z" fill="#163560"/>
<path d="M187.687 138.028C187.687 138.028 187.527 149.964 189.405 164.619C191.283 179.275 190.646 185.496 190.646 185.496L195.142 185.661C195.142 185.661 197.828 171 197.057 163.665C196.287 156.329 200.736 138.494 200.736 138.494L187.687 138.028Z" fill="#1C468A"/>
<path d="M196.389 110.096L193.994 111.825L190.533 111.115C190.581 110.808 190.809 109.533 191.018 108.379C191.031 108.31 191.043 108.242 191.055 108.176C191.233 107.194 191.387 106.35 191.387 106.35L194.62 104.78L195.825 104.195C195.822 104.215 195.732 105.285 195.719 105.44C195.493 108.213 196.389 110.096 196.389 110.096Z" fill="#FFB27D"/>
<path d="M202.463 139.502C201.767 142.991 190.199 143.405 187.216 140.237C186.877 139.876 186.859 138.197 186.988 135.932C187.238 131.508 188.042 124.851 188.073 121.451C188.089 119.808 188.294 118.128 188.567 116.604C189.148 113.353 190.034 110.802 190.034 110.802C190.034 110.802 195.684 108.792 196.742 109.135C201.837 110.781 203.158 136.012 202.463 139.502Z" fill="#C65447"/>
<path d="M186.988 135.932C187.238 131.508 188.042 124.851 188.074 121.451C188.089 119.808 188.294 118.128 188.567 116.604L191.966 115.944C191.966 115.943 195.289 130.88 186.988 135.932Z" fill="#AA413E"/>
<path d="M188.829 129.764C188.829 129.764 189.061 130.374 188.574 130.783C188.087 131.192 187.772 131.855 187.883 132.34C187.995 132.824 189.062 133.615 189.431 133.487C189.802 133.36 190.554 132.721 190.473 132.466C190.392 132.21 190.98 130.223 190.078 129.458C189.177 128.693 188.829 129.764 188.829 129.764Z" fill="#FFB27D"/>
<path d="M192.63 109.906C192.63 109.906 189.314 110.589 186.672 114.872C184.031 119.156 182.293 122.34 182.78 123.884C183.267 125.428 187.701 130.782 188.466 130.782C189.232 130.782 190.465 130.17 190.534 128.793C190.534 128.793 187.411 123.643 188.026 122.872C188.289 122.542 192.081 119.156 192.622 120.686C193.518 123.217 192.63 109.906 192.63 109.906Z" fill="#C65447"/>
<path d="M195.476 105.49C194.767 106.814 192.121 107.958 191.018 108.379C191.031 108.31 191.043 108.242 191.055 108.176C191.233 107.194 191.387 106.35 191.387 106.35L194.62 104.78C195.334 104.77 195.768 104.946 195.476 105.49Z" fill="#FCA56B"/>
<path d="M190.168 106.134C190.168 106.134 195.375 107.921 196.337 104.336C197.299 100.75 198.619 98.5658 195.334 97.2735C192.05 95.9802 191.034 97.1379 190.448 98.2489C189.863 99.3589 188.838 105.576 190.168 106.134Z" fill="#FFB27D"/>
<path d="M190.653 97.9029C190.653 97.9029 190.985 102.076 191.769 101.895C192.553 101.713 193.264 101.579 193.149 102.836C193.034 104.094 191.947 105.547 194.364 105.769C196.78 105.992 200.255 99.1333 199.591 97.8357C197.676 94.0881 187.884 93.3329 190.653 97.9029Z" fill="#163560"/>
<path d="M191.419 109.224C191.486 109.192 195.587 107.861 196.033 108.023C196.478 108.184 196.742 109.133 196.742 109.133L190.034 110.801C190.034 110.802 190.562 109.621 191.419 109.224Z" fill="#AA413E"/>
<path d="M33.2305 188.721H102.804L117.36 129.183H47.7864L33.2305 188.721Z" fill="#4A75CB"/>
<path d="M131.942 188.721H62.3684L47.8125 129.183H117.386L131.942 188.721Z" fill="#4C2A6E"/>
<path d="M127.174 185.346H65.4874L52.5811 132.558H114.268L127.174 185.346Z" fill="white"/>
<path d="M33.2305 188.721L48.007 185.89L62.3684 188.721H33.2305Z" fill="#AFCDFB"/>
<path d="M60.1119 122.959C56.6237 122.959 53.7755 125.744 53.6777 129.204H56.2531C56.3498 127.162 58.0429 125.53 60.1119 125.53C62.2418 125.53 63.975 127.261 63.975 129.387C63.975 131.514 62.2418 133.245 60.1119 133.245C59.4012 133.245 58.8242 133.821 58.8242 134.53C58.8242 135.241 59.4012 135.816 60.1119 135.816C63.662 135.816 66.5504 132.932 66.5504 129.387C66.5504 125.843 63.662 122.959 60.1119 122.959Z" fill="#1C468A"/>
<path d="M76.4244 122.959C72.9362 122.959 70.088 125.744 69.9902 129.204H72.5656C72.6623 127.162 74.3554 125.53 76.4244 125.53C78.5542 125.53 80.2875 127.261 80.2875 129.387C80.2875 131.514 78.5542 133.245 76.4244 133.245C75.7137 133.245 75.1367 133.821 75.1367 134.53C75.1367 135.241 75.7137 135.816 76.4244 135.816C79.9745 135.816 82.8629 132.932 82.8629 129.387C82.8629 125.843 79.9745 122.959 76.4244 122.959Z" fill="#1C468A"/>
<path d="M92.7359 122.959C89.2477 122.959 86.3996 125.744 86.3018 129.204H88.8772C88.9739 127.162 90.6669 125.53 92.7359 125.53C94.8658 125.53 96.599 127.261 96.599 129.387C96.599 131.514 94.8658 133.245 92.7359 133.245C92.0252 133.245 91.4482 133.821 91.4482 134.53C91.4482 135.241 92.0252 135.816 92.7359 135.816C96.2861 135.816 99.1744 132.932 99.1744 129.387C99.1744 125.843 96.2861 122.959 92.7359 122.959Z" fill="#1C468A"/>
<path d="M109.047 122.959C105.559 122.959 102.711 125.744 102.613 129.204H105.19C105.286 127.162 106.98 125.53 109.049 125.53C111.178 125.53 112.912 127.261 112.912 129.387C112.912 131.514 111.178 133.245 109.049 133.245C108.338 133.245 107.761 133.821 107.761 134.53C107.761 135.241 108.338 135.816 109.049 135.816C112.599 135.816 115.487 132.932 115.487 129.387C115.487 125.843 112.599 122.959 109.047 122.959Z" fill="#1C468A"/>
<path d="M75.493 151.215H61.6467L59.1387 141.88H72.985L75.493 151.215Z" fill="#4C2A6E"/>
<path d="M95.2087 151.215H81.3635L78.8555 141.88H92.7018L95.2087 151.215Z" fill="#4C2A6E"/>
<path d="M114.078 151.215H100.232L97.7246 141.88H111.57L114.078 151.215Z" fill="#4C2A6E"/>
<path d="M79.1443 164.162H65.299L62.791 154.827H76.6373L79.1443 164.162Z" fill="#4C2A6E"/>
<path d="M98.8611 164.162H85.0158L82.5078 154.827H96.353L98.8611 164.162Z" fill="#4C2A6E"/>
<path d="M117.73 164.162H103.884L101.376 154.827H115.222L117.73 164.162Z" fill="#4C2A6E"/>
<path d="M82.904 177.379H69.0588L66.5508 168.045H80.3971L82.904 177.379Z" fill="#4C2A6E"/>
<path d="M102.621 177.379H88.7756L86.2676 168.045H100.113L102.621 177.379Z" fill="#4C2A6E"/>
<path d="M121.49 177.379H107.644L105.136 168.045H118.982L121.49 177.379Z" fill="#4C2A6E"/>
<path d="M47.8124 129.183L48.007 185.89L33.2305 188.721L47.8124 129.183Z" fill="#4C2A6E"/>
<path d="M307.847 189.145H16.0538C15.9103 189.145 15.793 189.028 15.793 188.884C15.793 188.741 15.9103 188.624 16.0538 188.624H307.847C307.99 188.624 308.107 188.741 308.107 188.884C308.107 189.028 307.99 189.145 307.847 189.145Z" fill="#283250"/>
</g>
<defs>
<clipPath id="clip0_94_851">
<rect width="326" height="217" fill="white"/>
</clipPath>
</defs>
</svg>
