<svg width="96" height="86" viewBox="0 0 96 86" fill="none" xmlns="http://www.w3.org/2000/svg">
<path d="M6.34113 26.1205C5.93718 26.1205 5.59381 26.0197 5.27065 25.7778C4.22037 25.012 4.34155 23.6616 4.8465 19.4896C4.94749 18.6431 5.08887 17.5346 5.10907 17.0105C4.7859 16.6075 4.03859 15.8013 3.45285 15.1966C0.584767 12.113 -0.303935 11.0851 0.100021 9.85564C0.503976 8.60605 1.83703 8.30373 5.95737 7.49754C6.78548 7.3363 7.87616 7.13476 8.38111 6.99367C8.66388 6.57042 9.20922 5.58285 9.61317 4.85728C11.6531 1.16897 12.3601 0 13.6729 0C14.9858 0 15.6927 1.16897 17.7327 4.83712C18.1366 5.58285 18.682 6.55027 18.9647 6.97352C19.4697 7.1146 20.5604 7.31615 21.3885 7.47739C25.529 8.28357 26.8621 8.58589 27.2458 9.83548C27.5892 10.8634 26.8823 11.8106 25.933 12.9393C25.3876 13.5641 24.4383 13.6447 23.792 13.1207C23.1659 12.5967 23.0851 11.6897 23.5698 11.0448C22.6811 10.8432 21.5501 10.6215 20.8027 10.4804C18.3184 9.97656 17.6317 9.83548 17.1469 9.4727C16.6622 9.10991 16.2986 8.52543 15.0666 6.30841C14.703 5.64331 14.1375 4.63558 13.6729 3.84954C13.1882 4.63558 12.6226 5.64331 12.2591 6.30841C11.0472 8.52543 10.6837 9.10991 10.1989 9.4727C9.71416 9.83548 9.02744 9.97657 6.52291 10.4603C5.79579 10.6014 4.66472 10.8231 3.77602 11.0448C4.36175 11.73 5.16966 12.5765 5.67461 13.1408C7.41161 14.9749 7.85596 15.5191 8.03774 16.0834C8.21952 16.6478 8.17913 17.333 7.85596 19.8524C7.75498 20.5981 7.61359 21.7469 7.553 22.6539C7.63379 22.6135 7.73478 22.5732 7.83577 22.5329C8.60328 22.2105 9.49198 22.5531 9.81515 23.319C10.1383 24.0848 9.79495 24.9716 9.02744 25.2941C7.83577 25.8181 7.00766 26.1205 6.34113 26.1205Z" fill="#505050"/>
<path d="M55.3199 26.1003C54.3908 26.1003 53.0174 25.4957 50.2705 24.2259C49.5029 23.8631 48.4931 23.3996 48.0083 23.2182C47.5236 23.3996 46.5137 23.8833 45.7462 24.2259C43.0195 25.4957 41.6258 26.1003 40.6967 26.1003C40.3736 26.1003 39.8686 25.9592 39.606 25.7778C38.5558 25.012 38.6567 23.6616 39.1819 19.4896C39.2829 18.6431 39.4243 17.5547 39.4445 17.0307C39.1213 16.6276 38.3538 15.8214 37.7882 15.1966C34.9202 12.1331 34.0113 11.0851 34.4152 9.85564C34.8192 8.6262 36.1522 8.30373 40.2726 7.51769C41.1007 7.35646 42.1913 7.15491 42.6963 7.01383C42.9791 6.59058 43.5244 5.603 43.9284 4.87743C45.9885 1.16897 46.6955 0 48.0083 0C49.3212 0 50.0281 1.16897 52.0681 4.83712C52.472 5.58285 53.0174 6.55027 53.3001 6.97352C53.8051 7.1146 54.8957 7.31615 55.7239 7.47739C59.8644 8.28357 61.1975 8.58589 61.5812 9.83548C61.9852 11.0649 61.0965 12.113 58.2082 15.1765C57.6426 15.8013 56.8751 16.6075 56.552 17.0105C56.5722 17.5346 56.7135 18.6431 56.8145 19.4694C57.3397 23.6414 57.4407 24.9918 56.3904 25.7577C56.148 25.9592 55.6229 26.1003 55.3199 26.1003ZM38.1114 11.0448C38.6971 11.73 39.505 12.5765 40.01 13.1408C41.747 14.9951 42.1913 15.5191 42.3731 16.0834C42.5549 16.6478 42.4943 17.3532 42.1913 19.8524C42.0904 20.5981 41.949 21.7469 41.8884 22.6539C42.7165 22.3112 43.7668 21.8074 44.4535 21.4849C46.756 20.4167 47.4024 20.1345 48.0083 20.1345C48.6142 20.1345 49.2606 20.3965 51.5631 21.4849C52.2498 21.8074 53.3001 22.2911 54.1484 22.6539C54.0676 21.7469 53.9263 20.6182 53.8455 19.8524C53.5425 17.333 53.4819 16.6276 53.6637 16.0633C53.8455 15.4989 54.31 14.9548 56.047 13.1207C56.5722 12.5564 57.3599 11.73 57.9456 11.0246C57.0569 10.8231 55.9258 10.6014 55.1785 10.4603C52.6942 9.97657 52.0075 9.81533 51.5227 9.4727C51.038 9.13007 50.6744 8.52543 49.4423 6.30841C49.0384 5.64331 48.4729 4.63558 48.0083 3.84954C47.5438 4.63558 46.9782 5.64331 46.6147 6.30841C45.3826 8.52543 45.019 9.10991 44.5343 9.4727C44.0495 9.83548 43.3628 9.97657 40.8785 10.4603C40.1312 10.6014 39.0001 10.8231 38.1114 11.0448Z" fill="#4C2A6E"/>
<path d="M89.6558 26.1003C88.7267 26.1003 87.3533 25.4957 84.6064 24.2259C83.8389 23.8631 82.829 23.3996 82.3442 23.2182C81.8595 23.3996 80.8496 23.8833 80.0821 24.2259C77.3554 25.4957 75.9618 26.1003 75.0327 26.1003C74.7095 26.1003 74.2045 25.9592 73.942 25.7778C72.8917 25.012 72.9927 23.6616 73.5178 19.4896C73.6188 18.6431 73.7602 17.5547 73.7804 17.0307C73.4572 16.6276 72.6897 15.8214 72.1242 15.1966C69.2561 12.1331 68.3472 11.0851 68.7511 9.85564C69.1551 8.6262 70.4882 8.30373 74.6085 7.51769C75.4366 7.35646 76.5273 7.15491 77.0322 7.01383C77.315 6.59058 77.8603 5.603 78.2643 4.87743C80.3245 1.16897 81.0314 0 82.3442 0C83.6571 0 84.364 1.16897 86.404 4.83712C86.808 5.58285 87.3533 6.55027 87.6361 6.97352C88.141 7.1146 89.2317 7.31615 90.0598 7.47739C94.2003 8.28357 95.5334 8.58589 95.9172 9.83548C96.3211 11.0649 95.4324 12.113 92.5441 15.1765C91.9786 15.8013 91.2111 16.6075 90.8879 17.0105C90.9081 17.5346 91.0495 18.6431 91.1505 19.4694C91.6756 23.6414 91.7766 24.9918 90.7263 25.7577C90.4839 25.9592 89.9588 26.1003 89.6558 26.1003ZM72.4473 11.0448C73.0331 11.73 73.841 12.5765 74.3459 13.1408C76.0829 14.9951 76.5273 15.5191 76.7091 16.0834C76.8908 16.6478 76.8303 17.3532 76.5273 19.8524C76.4263 20.5981 76.2849 21.7469 76.2243 22.6539C77.0524 22.3112 78.1027 21.8074 78.7894 21.4849C81.092 20.4167 81.7383 20.1345 82.3442 20.1345C82.9502 20.1345 83.5965 20.3965 85.8991 21.4849C86.5858 21.8074 87.6361 22.2911 88.4844 22.6539C88.4036 21.7469 88.2622 20.6182 88.1814 19.8524C87.8784 17.333 87.8178 16.6276 87.9996 16.0633C88.1814 15.4989 88.646 14.9548 90.383 13.1207C90.9081 12.5564 91.6958 11.73 92.2815 11.0246C91.3928 10.8231 90.2618 10.6014 89.5145 10.4603C87.0301 9.97657 86.3434 9.81533 85.8587 9.4727C85.3739 9.13007 85.0103 8.52543 83.7783 6.30841C83.3743 5.64331 82.8088 4.63558 82.3442 3.84954C81.8797 4.63558 81.3142 5.64331 80.9506 6.30841C79.7185 8.52543 79.355 9.10991 78.8702 9.4727C78.3855 9.83548 77.6988 9.97657 75.2144 10.4603C74.4671 10.6014 73.336 10.8231 72.4473 11.0448Z" fill="#505050"/>
<path d="M41.5864 70.0779C38.2538 70.0779 32.5378 69.0903 28.5791 63.1648L24.5395 57.1184C21.9542 53.2689 19.6516 48.1899 24.7213 43.1109C24.9435 42.8892 25.1858 42.7683 25.4686 42.7078C20.4798 34.525 13.4509 22.9563 12.3199 20.6788C10.7444 17.4943 12.0371 14.8944 14.0367 13.7053C16.0766 12.496 19.2073 12.5564 20.9645 15.0758C25.2666 21.1826 30.9624 29.3251 33.6285 33.1142C34.295 32.3483 35.1635 31.6832 36.1128 31.3003C37.87 30.5747 39.7282 30.7561 41.4248 31.7638C41.849 31.3204 42.3943 30.9375 43.0205 30.6755C43.8688 30.3329 46.5955 29.5267 49.8069 31.9049C50.1301 31.7034 50.534 31.522 51.0188 31.4212C53.7859 30.7763 57.8052 32.1266 59.4615 35.4522L63.5616 45.6504C66.7125 53.5309 63.5818 58.8719 63.4606 59.0936C63.0365 59.8192 62.0872 60.0409 61.3802 59.5975C60.6531 59.1742 60.4309 58.2471 60.8753 57.5215C60.9763 57.3603 63.3394 53.1883 60.7743 46.7791L56.7348 36.7017C55.947 35.1498 54.2504 34.6057 53.5637 34.4444C52.5538 34.2227 51.8267 34.3436 51.5439 34.4444C51.4429 34.9281 51.1198 35.3312 50.635 35.5126C50.0695 35.7545 49.4232 35.6134 48.9788 35.1901C47.06 33.2754 45.2624 33.0537 44.2121 33.4972C43.6668 33.7189 43.485 34.0413 43.485 34.1219C43.485 34.7266 43.1215 35.2909 42.5559 35.5126C41.9904 35.7545 41.3441 35.6134 40.8997 35.1901C39.6878 33.9809 38.476 33.6382 37.3045 34.1219C36.133 34.6057 35.4059 35.7545 35.4059 36.1374C35.4059 36.8025 34.9818 37.387 34.3354 37.5885C33.7093 37.7901 33.0226 37.5482 32.6388 37.0041C32.6388 37.0041 24.3173 25.0926 18.5004 16.8494C17.7531 15.8013 16.4402 15.8013 15.5717 16.3052C14.5618 16.9099 14.3598 17.9982 15.0062 19.3083C16.7028 22.7144 32.962 49.1573 33.1236 49.4193C33.5477 50.1248 33.3457 51.072 32.6186 51.4953C31.9117 51.9185 30.9826 51.717 30.5382 50.9914C30.3363 50.6689 28.9224 48.3511 26.943 45.1264C26.9026 45.1667 26.8825 45.207 26.8421 45.2272C23.9538 48.1093 23.9942 50.8705 27.0238 55.4053L31.0634 61.4517C35.8099 68.5663 43.5254 66.8934 43.6062 66.8733C44.4141 66.6717 45.222 67.1958 45.424 68.002C45.6058 68.8081 45.1008 69.6345 44.2929 69.8159C44.2727 69.836 43.2022 70.0779 41.5864 70.0779Z" fill="#4C2A6E"/>
<path d="M52.0497 86C51.5649 86 51.0802 85.7582 50.7772 85.3349L42.6981 73.2421C42.4759 72.8995 42.3951 72.4964 42.4759 72.0933C42.5567 71.6902 42.7991 71.3476 43.1425 71.1259L65.36 57.0176C66.0467 56.5742 66.9758 56.7758 67.4404 57.461L75.5195 69.5538C75.7417 69.8965 75.8224 70.2996 75.7417 70.7027C75.6609 71.1057 75.4185 71.4484 75.0751 71.6701L52.8576 85.7783C52.6152 85.9194 52.3122 86 52.0497 86ZM46.0711 72.839L52.4738 82.4125L72.1263 69.9368L65.7236 60.3633L46.0711 72.839Z" fill="#505050"/>
</svg>
