<svg width="73" height="73" viewBox="0 0 73 73" fill="none" xmlns="http://www.w3.org/2000/svg">
<g clip-path="url(#clip0_181_4203)">
<path d="M65.7 73H7.3C3.27347 73 0 69.7265 0 65.7V7.3C0 3.27347 3.27347 0 7.3 0H65.7C69.7265 0 73 3.27347 73 7.3V65.7C73 69.7265 69.7265 73 65.7 73ZM7.3 2.30526C4.54905 2.30526 2.30526 4.54905 2.30526 7.3V65.7C2.30526 68.451 4.54905 70.6947 7.3 70.6947H65.7C68.451 70.6947 70.6947 68.451 70.6947 65.7V7.3C70.6947 4.54905 68.451 2.30526 65.7 2.30526H7.3Z" fill="#505050"/>
<path d="M7.29856 8.83687C8.14734 8.83687 8.8354 8.1488 8.8354 7.30003C8.8354 6.45125 8.14734 5.76318 7.29856 5.76318C6.44979 5.76318 5.76172 6.45125 5.76172 7.30003C5.76172 8.1488 6.44979 8.83687 7.29856 8.83687Z" fill="#505050"/>
<path d="M11.9118 8.83687C12.7606 8.83687 13.4487 8.1488 13.4487 7.30003C13.4487 6.45125 12.7606 5.76318 11.9118 5.76318C11.0631 5.76318 10.375 6.45125 10.375 7.30003C10.375 8.1488 11.0631 8.83687 11.9118 8.83687Z" fill="#505050"/>
<path d="M16.5212 8.83687C17.37 8.83687 18.0581 8.1488 18.0581 7.30003C18.0581 6.45125 17.37 5.76318 16.5212 5.76318C15.6724 5.76318 14.9844 6.45125 14.9844 7.30003C14.9844 8.1488 15.6724 8.83687 16.5212 8.83687Z" fill="#505050"/>
<path d="M71.8474 14.5999H1.15263C0.522526 14.5999 0 14.0774 0 13.4473C0 12.8172 0.522526 12.2947 1.15263 12.2947H71.8474C72.4775 12.2947 73 12.8172 73 13.4473C73 14.0774 72.4775 14.5999 71.8474 14.5999Z" fill="#505050"/>
<path d="M59.152 53.682C58.3067 53.682 56.985 53.1133 54.2648 51.8531C53.4349 51.4689 52.313 50.9464 51.8673 50.7927C51.8058 50.8234 51.7136 50.8542 51.6368 50.8849C51.0528 51.1154 50.3766 50.8234 50.1461 50.2394C49.9155 49.6401 50.2075 48.9792 50.7915 48.7487C51.2987 48.5489 51.5907 48.4721 51.8673 48.4721C52.4052 48.4721 53.1275 48.7948 55.233 49.7784C56.0783 50.1626 57.4307 50.8081 58.3221 51.1462C58.276 50.2087 58.0915 48.7641 57.9686 47.7959C57.6766 45.4752 57.5997 44.6914 57.7688 44.1689C57.9378 43.6617 58.4604 43.0624 60.0433 41.3719C60.6734 40.6956 61.6877 39.6045 62.3025 38.8514C61.365 38.6055 59.905 38.3135 58.9983 38.1445C56.7084 37.6988 55.94 37.5297 55.4943 37.2224C55.064 36.8996 54.6644 36.2234 53.5425 34.1948C53.0968 33.3803 52.3745 32.074 51.8366 31.2594C51.3294 32.0432 50.6532 33.242 50.392 33.7491C50.0846 34.3024 49.3776 34.5022 48.8244 34.1948C48.2711 33.8874 48.0713 33.1805 48.3787 32.6272C50.2075 29.323 50.8376 28.4316 51.852 28.4316C52.897 28.4316 53.5271 29.3691 55.5711 33.0729C56.0168 33.8721 56.6162 34.9479 56.8774 35.3321C57.3231 35.4704 58.5372 35.7009 59.444 35.8853C63.5934 36.6845 64.6846 36.9918 65.0073 37.9908C65.3301 38.9744 64.6231 39.8657 61.7492 42.9548C61.1191 43.631 60.2738 44.5224 59.9972 44.9066C59.9972 45.383 60.1509 46.5971 60.2738 47.5192C60.7964 51.6994 60.8271 52.8367 59.9972 53.4514C59.7513 53.5897 59.4901 53.682 59.152 53.682Z" fill="#505050"/>
<path d="M13.8618 53.6819C13.5237 53.6819 13.2624 53.5897 13.0165 53.4207C12.1713 52.8059 12.2174 51.684 12.7399 47.4885C12.8475 46.5664 13.0011 45.3523 13.0165 44.8912C12.7399 44.507 11.8946 43.6156 11.2645 42.9394C8.37525 39.8504 7.68367 38.959 8.00641 37.9754C8.32914 36.9918 9.4203 36.6845 13.5698 35.8699C14.4765 35.7009 15.6752 35.455 16.1209 35.3167C16.3976 34.9325 16.9816 33.8567 17.4272 33.0575C19.4713 29.3537 20.1014 28.4163 21.1464 28.4163C22.1454 28.4163 22.7908 29.3076 24.6197 32.6118C24.927 33.1651 24.7272 33.872 24.174 34.1794C23.6207 34.4868 22.9138 34.287 22.6064 33.7337C22.3298 33.2419 21.6689 32.0278 21.1618 31.244C20.6393 32.0586 19.9169 33.3649 19.4559 34.1794C18.334 36.208 17.9344 36.8996 17.5041 37.207C17.0738 37.5297 16.29 37.6988 14.0155 38.1291C13.1087 38.3135 11.6487 38.5902 10.7112 38.8361C11.326 39.5891 12.3403 40.6803 12.9704 41.3565C14.5534 43.0624 15.0912 43.6464 15.2603 44.1535C15.4294 44.6607 15.3525 45.4598 15.0605 47.7651C14.9529 48.6872 14.7685 50.1626 14.707 51.1308C15.6138 50.7773 16.9508 50.1472 17.7961 49.763C19.9016 48.7794 20.6239 48.4567 21.1618 48.4567C21.4384 48.4567 21.7458 48.5335 22.2529 48.7333C22.8369 48.9638 23.1289 49.6401 22.8984 50.2241C22.6679 50.8234 21.9917 51.1 21.4077 50.8695C21.3155 50.8388 21.2386 50.8081 21.1771 50.7773C20.7315 50.931 19.6249 51.4535 18.7797 51.8377C16.0134 53.1133 14.6917 53.6819 13.8618 53.6819Z" fill="#505050"/>
<path d="M46.26 59.1684C45.1688 59.1684 43.1248 58.2463 39.8974 56.7402C38.6833 56.1716 37.0389 55.4032 36.501 55.2495C35.9631 55.4032 34.3341 56.1716 33.12 56.7248C29.8926 58.2309 27.8486 59.1531 26.7421 59.1531C26.3732 59.1531 26.0659 59.0608 25.8046 58.8764C24.8671 58.2002 24.9132 56.7248 25.5894 51.2691C25.7585 49.932 25.9736 48.1339 25.9583 47.5806C25.6509 47.1196 24.4061 45.7979 23.4993 44.8143C19.7341 40.7878 18.8427 39.6352 19.1962 38.5286C19.5496 37.4221 20.9635 37.0225 26.3732 35.9775C27.6949 35.7162 29.4623 35.3781 29.9848 35.1783C30.3229 34.748 31.1989 33.1651 31.8444 31.9817C34.5031 27.156 35.333 25.9419 36.4856 25.9419C37.6383 25.9419 38.4682 27.156 41.1269 31.9663C41.7724 33.1497 42.6484 34.7326 43.0018 35.1629C43.5244 35.3627 45.2917 35.7008 46.6134 35.9621C52.0231 37.0072 53.4216 37.4221 53.7751 38.5133C54.1286 39.6198 53.2372 40.7724 49.472 44.7989C48.5498 45.7825 47.3204 47.1042 47.013 47.5653C46.9976 48.1185 47.2128 49.9166 47.3819 51.2383C48.0581 56.7095 48.1042 58.1848 47.1667 58.8611C46.9362 59.0762 46.6288 59.1684 46.26 59.1684ZM36.501 52.9442C37.1465 52.9442 38.1454 53.3899 40.8656 54.6655C42.2795 55.3263 44.4465 56.3406 45.6145 56.7248C45.6145 55.4954 45.3071 53.1133 45.1227 51.5611C44.7539 48.5949 44.6463 47.5038 44.8461 46.8891C45.0459 46.2743 45.7835 45.4598 47.8275 43.2621C48.888 42.1248 50.5324 40.3728 51.2547 39.3893C50.0867 39.0204 47.7353 38.5594 46.2139 38.2674C43.2631 37.6987 42.1873 37.4682 41.6648 37.084C41.1423 36.7152 40.589 35.7623 39.1444 33.1343C38.3913 31.7665 37.2387 29.6764 36.5164 28.6775C35.8094 29.6764 34.6414 31.7665 33.8884 33.1343C32.4437 35.7623 31.8905 36.7152 31.368 37.084C30.8454 37.4682 29.7696 37.6987 26.8189 38.2674C25.2974 38.5594 22.9307 39.0204 21.7627 39.3893C22.485 40.3728 24.1294 42.1248 25.1898 43.2621C27.2338 45.4598 27.9715 46.2743 28.1713 46.8891C28.3711 47.4884 28.2482 48.5949 27.8793 51.5764C27.6949 53.1133 27.3875 55.4954 27.3875 56.7248C28.5555 56.3406 30.7225 55.3263 32.1364 54.6655C34.8566 53.3745 35.8555 52.9442 36.501 52.9442Z" fill="#4C2A6E"/>
</g>
<defs>
<clipPath id="clip0_181_4203">
<rect width="73" height="73" fill="white"/>
</clipPath>
</defs>
</svg>
