<svg width="69" height="66" viewBox="0 0 69 66" fill="none" xmlns="http://www.w3.org/2000/svg">
<g clip-path="url(#clip0_181_4251)">
<path d="M9.04555 66C8.64248 66 8.34391 65.8949 8.09012 65.7147C7.07498 64.9636 7.14962 63.1011 7.94084 56.5822C8.16477 54.7948 8.46334 52.3314 8.37377 51.8357C8.17969 51.4903 6.50769 49.6878 5.28355 48.366C0.819894 43.5594 -0.329609 42.0874 0.0585348 40.8858C0.446678 39.6842 2.23811 39.1735 8.65741 37.9268C9.25455 37.8216 9.89648 38.1971 10.001 38.813C10.1204 39.4288 9.76213 39.9996 9.15005 40.1197L9.07541 40.1348C7.01526 40.5403 3.7459 41.1712 2.44711 41.6669C3.20847 42.8385 5.47762 45.2718 6.91076 46.8189C9.38891 49.4925 10.2846 50.4989 10.5086 51.1898C10.7325 51.8808 10.5981 53.2176 10.1503 56.8526C9.89648 58.9554 9.47848 62.275 9.55313 63.6568C10.8818 63.2964 13.8973 61.8694 15.8082 60.9832C19.1074 59.4361 20.3166 58.8953 21.0482 58.8953C21.7797 58.8953 22.9889 59.4361 26.2881 60.9832C28.1989 61.8844 31.1996 63.2964 32.5432 63.6568C32.6178 62.2599 32.1998 58.9404 31.946 56.8375C31.4982 53.2026 31.3638 51.8808 31.5877 51.1898C31.6624 50.9495 31.8117 50.6942 32.0505 50.3637C32.4088 49.868 33.1105 49.7479 33.618 50.1234C34.1107 50.4989 34.2152 51.2049 33.8569 51.7005C33.7822 51.7907 33.7375 51.8658 33.6927 51.9409C33.6479 52.3314 33.9465 54.7797 34.1704 56.5672C34.9765 63.1011 35.0512 64.9636 34.0211 65.7147C32.991 66.4657 31.2593 65.8048 25.3476 63.026C23.7204 62.2599 21.496 61.2085 21.0034 61.1484C20.6152 61.2235 18.3909 62.275 16.7636 63.026C12.3298 65.1138 10.2398 66 9.04555 66Z" fill="#4C2A6E"/>
<path d="M13.526 40.4652C13.1229 40.4652 12.8244 40.36 12.5706 40.1798C11.5554 39.4288 11.6301 37.5662 12.4213 31.0473C12.6452 29.2599 12.9438 26.7965 12.8542 26.3009C12.6602 25.9554 10.9882 24.1529 9.76401 22.8311C5.30036 18.0246 4.15086 16.5526 4.539 15.3509C4.92715 14.1493 6.71858 13.6386 13.1379 12.3919C14.8995 12.0464 17.303 11.5808 17.7508 11.3405C18.0195 11.0551 19.1989 8.89213 20.0647 7.31498C23.2445 1.56213 24.2746 0 25.5435 0C26.8125 0 27.8426 1.56213 31.0074 7.31498C31.8733 8.89213 33.0676 11.0551 33.4258 11.4005C33.7841 11.5658 36.1876 12.0314 37.9343 12.3769L39.3973 12.6623C40.0094 12.7824 40.3975 13.3682 40.2781 13.9841C40.1586 14.5999 39.5764 14.9904 38.9644 14.8703L37.5163 14.5849C33.9633 13.8939 32.6645 13.6086 32.0823 13.188C31.5001 12.7524 30.8283 11.5958 29.0667 8.39645C28.0515 6.53391 26.4393 3.60492 25.5734 2.52344C24.7075 3.60492 23.0953 6.53391 22.0801 8.39645C20.3185 11.5958 19.6467 12.7524 19.0645 13.188C18.4823 13.6236 17.1686 13.8939 13.6007 14.5849C11.5256 14.9904 8.27115 15.6213 6.97237 16.117C7.73372 17.2886 10.0029 19.7219 11.436 21.269C13.9142 23.9427 14.8099 24.949 15.0338 25.64C15.2577 26.3309 15.1234 27.6677 14.6755 31.3027C14.4217 33.4056 14.0037 36.7251 14.0784 38.107C15.407 37.7465 18.4226 36.3195 20.3335 35.4333C23.6327 33.8862 24.8419 33.3455 25.5734 33.3455C26.3049 33.3455 27.5141 33.8862 30.7984 35.4333L32.0524 36.0191C32.6197 36.2745 32.8586 36.9504 32.6048 37.5212C32.3361 38.0919 31.6643 38.3323 31.1119 38.0769L29.8579 37.4911C28.2456 36.7251 26.0213 35.6887 25.5286 35.6136C25.1405 35.6887 22.9161 36.7401 21.2889 37.4911C16.8103 39.579 14.7203 40.4652 13.526 40.4652Z" fill="#4C2A6E"/>
<path d="M68.9245 22.8612C69.3126 24.0628 68.1631 25.5348 63.6995 30.3414C62.4753 31.6632 60.8033 33.4657 60.5794 33.9163C60.5346 34.3068 60.8332 36.7551 61.0571 38.5426C61.8633 45.0765 61.9379 46.939 60.9078 47.69C60.6391 47.8853 60.3107 47.9754 59.9375 47.9754C58.6536 47.9754 56.056 46.8038 52.2343 45.0014C50.6071 44.2353 48.3827 43.1839 47.8901 43.1238C47.5019 43.1989 45.2776 44.2504 43.6504 45.0014C39.8286 46.8038 37.2311 47.9754 35.9472 47.9754C35.5591 47.9754 35.2306 47.8853 34.9768 47.69C33.9617 46.939 34.0363 45.0765 34.8276 38.5576C35.0515 36.7702 35.3501 34.3068 35.2605 33.8111C35.0664 33.4657 33.3944 31.6632 32.1703 30.3414C27.7066 25.5348 26.5571 24.0628 26.9453 22.8612C27.3334 21.6595 29.1248 21.1489 35.5441 19.9022C37.3057 19.5567 39.7092 19.091 40.1571 18.8507C40.4258 18.5653 41.6051 16.4024 42.471 14.8252C45.6359 9.07238 46.6659 7.51025 47.9349 7.51025C49.2038 7.51025 50.2339 9.07238 53.3987 14.8252C54.2646 16.4024 55.4589 18.5653 55.8172 18.9108C56.1755 19.076 58.579 19.5417 60.3405 19.8871C66.7449 21.1338 68.5363 21.6445 68.9245 22.8612Z" fill="#505050"/>
<path d="M66.5224 23.6422C65.2236 23.1466 61.9692 22.5157 59.8941 22.1102C56.3262 21.4192 55.0274 21.1338 54.4302 20.7132C53.848 20.2777 53.1762 19.1211 51.4146 15.9217C50.3995 14.0592 48.7872 11.1302 47.9213 10.0487C47.0555 11.1302 45.4432 14.0592 44.4281 15.9217C42.6665 19.1211 41.9947 20.2777 41.4125 20.7132C40.8303 21.1488 39.5165 21.4192 35.9486 22.1102C33.8735 22.5157 30.6191 23.1466 29.3203 23.6422C30.0817 24.8138 32.3508 27.2472 33.784 28.7943C36.2621 31.4679 37.1578 32.4743 37.3818 33.1652C37.6057 33.8562 37.4713 35.193 37.0235 38.828C36.7697 40.9308 36.3517 44.2353 36.4263 45.6322C37.7848 45.2567 40.7855 43.8448 42.6814 42.9586C45.9806 41.4115 47.1898 40.8707 47.9213 40.8707C48.6529 40.8707 49.8621 41.4115 53.1613 42.9586C55.0572 43.8448 58.0728 45.2717 59.4164 45.6322C59.491 44.2353 59.073 40.9158 58.8192 38.8129C58.3714 35.178 58.237 33.8562 58.4609 33.1652C58.6849 32.4743 59.5806 31.4679 62.0587 28.7943C63.5068 27.2472 65.776 24.7988 66.5224 23.6422Z" fill="#4C2A6E"/>
</g>
<defs>
<clipPath id="clip0_181_4251">
<rect width="69" height="66" fill="white"/>
</clipPath>
</defs>
</svg>
