<svg width="86" height="86" viewBox="0 0 86 86" fill="none" xmlns="http://www.w3.org/2000/svg">
<g clip-path="url(#clip0_181_4077)">
<path d="M73.7789 85.9999C73.4168 85.9999 73.0728 85.855 72.8194 85.6016L64.1651 76.9473H8.6C3.85642 76.9473 0 73.0908 0 68.3473V55.6736C0 54.9313 0.615579 54.3157 1.35789 54.3157C2.10021 54.3157 2.71579 54.9313 2.71579 55.6736V68.3473C2.71579 71.5881 5.35916 74.2315 8.6 74.2315H64.7263C65.0884 74.2315 65.4324 74.3763 65.6859 74.6298L72.4211 81.3649V75.5894C72.4211 74.847 73.0366 74.2315 73.7789 74.2315H77.4C80.6408 74.2315 83.2842 71.5881 83.2842 68.3473V55.6736C83.2842 54.9313 83.8998 54.3157 84.6421 54.3157C85.3844 54.3157 86 54.9313 86 55.6736V68.3473C86 73.0908 82.1436 76.9473 77.4 76.9473H75.1368V84.642C75.1368 85.1851 74.811 85.6921 74.304 85.8912C74.1411 85.9637 73.96 85.9999 73.7789 85.9999Z" fill="#4C2A6E"/>
<path d="M71.2451 34.7258C70.5571 34.7258 69.6881 34.3456 67.8232 33.4766C67.4068 33.2774 66.8455 33.0239 66.5196 32.8972C66.1938 33.0239 65.6506 33.2774 65.2342 33.4766C63.3693 34.3456 62.4822 34.7258 61.8123 34.7258C61.5226 34.7258 61.1243 34.5991 60.8889 34.4362C60.0018 33.7844 60.1285 32.6799 60.4725 30.0185C60.5268 29.5477 60.5992 28.9503 60.6354 28.6063C60.4001 28.3347 60.0017 27.9002 59.6758 27.5562C57.8472 25.6008 57.0868 24.786 57.4127 23.7178C57.7567 22.6677 58.9154 22.4324 61.4864 21.9435C61.939 21.853 62.5365 21.7444 62.8805 21.6538C63.0615 21.346 63.3512 20.821 63.5866 20.4046C64.8902 18.0509 65.4152 17.0913 66.5196 17.0913C67.6241 17.0913 68.2034 18.1414 69.4708 20.4227C69.6881 20.821 69.9777 21.346 70.1588 21.6538C70.5028 21.7263 71.0822 21.853 71.5529 21.9435C74.1239 22.4324 75.3007 22.6677 75.6447 23.7178C75.9887 24.7679 75.174 25.637 73.3815 27.5562C73.0556 27.9002 72.6573 28.3347 72.422 28.6063C72.4401 28.9503 72.5125 29.5477 72.5849 30.0185C72.9108 32.6075 73.0556 33.8025 72.1504 34.4543C71.9331 34.6172 71.5348 34.7258 71.2451 34.7258ZM60.8708 24.8404C61.1605 25.1482 61.4502 25.474 61.6674 25.6913C62.7719 26.8682 63.134 27.2665 63.2788 27.7372C63.4236 28.2079 63.3693 28.7511 63.1702 30.3444C63.134 30.6522 63.0796 31.0867 63.0253 31.5031C63.4055 31.322 63.8039 31.141 64.0935 31.0143C65.5601 30.3263 66.0489 30.109 66.5377 30.109C67.0266 30.109 67.5154 30.3263 68.982 31.0143C69.2716 31.141 69.6518 31.322 70.0502 31.5031C69.9958 31.0867 69.9596 30.6522 69.9053 30.3444C69.7062 28.733 69.6518 28.2079 69.7967 27.7372C69.9596 27.2665 70.3036 26.8682 71.4081 25.6913C71.6253 25.4559 71.915 25.1482 72.2047 24.8404C71.7883 24.7498 71.3718 24.6774 71.0641 24.605C69.4708 24.2972 68.9638 24.1886 68.5655 23.8989C68.1672 23.6092 67.8956 23.1566 67.1171 21.7444C66.9542 21.4728 66.755 21.0926 66.5377 20.7124C66.3205 21.0745 66.1213 21.4547 65.9765 21.7263C65.1799 23.1566 64.9264 23.6092 64.5281 23.8989C64.1297 24.1886 63.6047 24.2972 62.0295 24.605C61.7036 24.6774 61.2872 24.7679 60.8708 24.8404ZM47.7083 34.7258C47.0203 34.7258 46.1512 34.3456 44.2864 33.4766C43.87 33.2774 43.3087 33.0239 42.9828 32.8972C42.6569 33.0239 42.1138 33.2774 41.6973 33.4766C39.8325 34.3456 38.9453 34.7258 38.2754 34.7258C37.9857 34.7258 37.5874 34.5991 37.3521 34.4362C36.4649 33.7844 36.5916 32.6799 36.9356 30.0185C36.99 29.5477 37.0624 28.9503 37.0986 28.6063C36.8632 28.3347 36.4649 27.9002 36.139 27.5562C34.3104 25.6008 33.55 24.786 33.8759 23.7178C34.2199 22.6677 35.3786 22.4324 37.9495 21.9435C38.4022 21.853 38.9996 21.7444 39.3436 21.6538C39.5247 21.346 39.8144 20.821 40.0497 20.4046C41.3533 18.0509 41.8784 17.0913 42.9828 17.0913C44.0872 17.0913 44.6666 18.1414 45.934 20.4227C46.1512 20.821 46.4409 21.346 46.622 21.6538C46.966 21.7263 47.5453 21.853 48.0161 21.9435C50.587 22.4324 51.7639 22.6677 52.1079 23.7178C52.4519 24.7679 51.6371 25.637 49.8447 27.5562C49.5188 27.9002 49.1205 28.3347 48.8851 28.6063C48.9032 28.9503 48.9756 29.5477 49.0481 30.0185C49.374 32.6075 49.5188 33.8025 48.6135 34.4543C48.3963 34.6172 47.998 34.7258 47.7083 34.7258ZM37.334 24.8404C37.6236 25.1482 37.9133 25.474 38.1306 25.6913C39.235 26.8682 39.5971 27.2665 39.742 27.7372C39.8868 28.2079 39.8325 28.7511 39.6333 30.3444C39.5971 30.6522 39.5428 31.0867 39.4885 31.5031C39.8687 31.322 40.267 31.141 40.5567 31.0143C42.0232 30.3263 42.5121 30.109 43.0009 30.109C43.4897 30.109 43.9786 30.3263 45.4451 31.0143C45.7348 31.141 46.115 31.322 46.5133 31.5031C46.459 31.0867 46.4228 30.6522 46.3685 30.3444C46.1693 28.733 46.115 28.2079 46.2599 27.7372C46.4228 27.2665 46.7668 26.8682 47.8712 25.6913C48.0885 25.4559 48.3782 25.1482 48.6679 24.8404C48.2514 24.7498 47.835 24.6774 47.5272 24.605C45.934 24.2972 45.427 24.1886 45.0287 23.8989C44.6304 23.6092 44.3588 23.1566 43.5803 21.7444C43.4173 21.4728 43.2182 21.0926 43.0009 20.7124C42.7836 21.0745 42.5845 21.4547 42.4396 21.7263C41.643 23.1566 41.3895 23.6092 40.9912 23.8989C40.5929 24.1886 40.0679 24.2972 38.4927 24.605C38.1668 24.6774 37.7504 24.7679 37.334 24.8404ZM24.1714 34.7258C23.4834 34.7258 22.6144 34.3456 20.7495 33.4766C20.3331 33.2774 19.7719 33.0239 19.446 32.8972C19.1201 33.0239 18.5769 33.2774 18.1605 33.4766C16.2956 34.3456 15.4085 34.7258 14.7386 34.7258C14.4489 34.7258 14.0506 34.5991 13.8152 34.4362C12.9281 33.7844 13.0548 32.6799 13.3988 30.0185C13.4531 29.5477 13.5255 28.9503 13.5617 28.6063C13.3264 28.3347 12.9281 27.9002 12.6022 27.5562C10.7735 25.6008 10.0131 24.786 10.339 23.7178C10.683 22.6677 11.8417 22.4324 14.4127 21.9435C14.8653 21.853 15.4628 21.7444 15.8068 21.6538C15.9879 21.346 16.2775 20.821 16.5129 20.4046C17.8165 18.0509 18.3415 17.0913 19.446 17.0913C20.5504 17.0913 21.1297 18.1414 22.3971 20.4227C22.6144 20.821 22.9041 21.346 23.0851 21.6538C23.4291 21.7263 24.0085 21.853 24.4792 21.9435C27.0502 22.4324 28.227 22.6677 28.571 23.7178C28.915 24.7679 28.1003 25.637 26.3079 27.5562C25.982 27.9002 25.5836 28.3347 25.3483 28.6063C25.3664 28.9503 25.4388 29.5477 25.5112 30.0185C25.8371 32.6075 25.982 33.8025 25.0767 34.4543C24.8594 34.6172 24.4611 34.7258 24.1714 34.7258ZM13.7971 24.8404C14.0868 25.1482 14.3765 25.474 14.5938 25.6913C15.6982 26.8682 16.0603 27.2665 16.2051 27.7372C16.35 28.2079 16.2956 28.7511 16.0965 30.3444C16.0603 30.6522 16.006 31.0867 15.9516 31.5031C16.3319 31.322 16.7302 31.141 17.0199 31.0143C18.4864 30.3263 18.9752 30.109 19.4641 30.109C19.9529 30.109 20.4417 30.3263 21.9083 31.0143C22.198 31.141 22.5782 31.322 22.9765 31.5031C22.9222 31.0867 22.886 30.6522 22.8316 30.3444C22.6325 28.733 22.5782 28.2079 22.723 27.7372C22.886 27.2665 23.23 26.8682 24.3344 25.6913C24.5516 25.4559 24.8413 25.1482 25.131 24.8404C24.7146 24.7498 24.2982 24.6774 23.9904 24.605C22.3971 24.2972 21.8902 24.1886 21.4919 23.8989C21.0935 23.6092 20.822 23.1566 20.0434 21.7444C19.8805 21.4728 19.6813 21.0926 19.4641 20.7124C19.2468 21.0745 19.0476 21.4547 18.9028 21.7263C18.1062 23.1566 17.8527 23.6092 17.4544 23.8989C17.0561 24.1886 16.531 24.2972 14.9559 24.605C14.63 24.6774 14.2135 24.7679 13.7971 24.8404Z" fill="#4C2A6E"/>
<path d="M12.2211 62.4632C12.04 62.4632 11.8771 62.4269 11.696 62.3545C11.1891 62.1554 10.8632 61.6484 10.8632 61.1053V53.4105H8.6C3.85642 53.4105 0 49.5541 0 44.8105V8.6C0 3.85642 3.85642 0 8.6 0H77.4C82.1436 0 86 3.85642 86 8.6V44.8105C86 49.5541 82.1436 53.4105 77.4 53.4105H21.8349L13.1806 62.0648C12.9272 62.3183 12.5832 62.4632 12.2211 62.4632ZM8.6 2.71579C5.35916 2.71579 2.71579 5.35916 2.71579 8.6V44.8105C2.71579 48.0514 5.35916 50.6947 8.6 50.6947H12.2211C12.9634 50.6947 13.5789 51.3103 13.5789 52.0526V57.8282L20.3141 51.093C20.5676 50.8396 20.9116 50.6947 21.2737 50.6947H77.4C80.6408 50.6947 83.2842 48.0514 83.2842 44.8105V8.6C83.2842 5.35916 80.6408 2.71579 77.4 2.71579H8.6Z" fill="#4C2A6E"/>
</g>
<defs>
<clipPath id="clip0_181_4077">
<rect width="86" height="86" fill="white"/>
</clipPath>
</defs>
</svg>
