<svg width="84" height="84" viewBox="0 0 84 84" fill="none" xmlns="http://www.w3.org/2000/svg">
<g clip-path="url(#clip0_181_4059)">
<path d="M68.5263 41.5579C68.0665 41.5579 67.6244 41.3103 67.3945 40.9213L62.4783 32.7158H48.0657L43.1495 40.9213C42.672 41.7171 41.3457 41.7171 40.8682 40.9213L35.952 32.7158H21.5394L16.6232 40.9213C16.1457 41.7171 14.8194 41.7171 14.3419 40.9213L9.42568 32.7158H6.63158C2.97095 32.7158 0 29.7448 0 26.0842V6.63158C0 2.97095 2.97095 0 6.63158 0H77.3684C81.0291 0 84 2.97095 84 6.63158V26.0842C84 29.7448 81.0291 32.7158 77.3684 32.7158H74.592L69.6758 40.9213C69.4282 41.3103 68.9861 41.5579 68.5263 41.5579ZM47.3053 30.0632H63.2211C63.6808 30.0632 64.1229 30.3107 64.3528 30.6998L68.5263 37.6497L72.6998 30.6998C72.9297 30.2931 73.3718 30.0632 73.8316 30.0632H77.3684C79.5613 30.0632 81.3474 28.2771 81.3474 26.0842V6.63158C81.3474 4.43874 79.5613 2.65263 77.3684 2.65263H6.63158C4.43874 2.65263 2.65263 4.43874 2.65263 6.63158V26.0842C2.65263 28.2771 4.43874 30.0632 6.63158 30.0632H10.1684C10.6282 30.0632 11.0703 30.3107 11.3002 30.6998L15.4737 37.6497L19.6472 30.6998C19.8771 30.2931 20.3192 30.0632 20.7789 30.0632H36.6947C37.1545 30.0632 37.5966 30.3107 37.8265 30.6998L42 37.6497L46.1735 30.6998C46.4034 30.3107 46.8455 30.0632 47.3053 30.0632Z" fill="#4C2A6E"/>
<path d="M69.5887 25.0762C68.9167 25.0762 68.0679 24.7049 66.2464 23.856C65.8397 23.6615 65.2915 23.4139 64.9731 23.2901C64.6548 23.4139 64.1243 23.6615 63.7175 23.856C61.8961 24.7049 61.0295 25.0762 60.3752 25.0762C60.0923 25.0762 59.7032 24.9524 59.4733 24.7933C58.6068 24.1566 58.7306 23.0779 59.0666 20.4783C59.1197 20.0185 59.1904 19.435 59.2258 19.099C58.9959 18.8337 58.6068 18.4093 58.2885 18.0733C56.5024 16.1634 55.7597 15.3676 56.078 14.3242C56.414 13.2985 57.5458 13.0686 60.0569 12.5912C60.499 12.5028 61.0826 12.3966 61.4186 12.3082C61.5954 12.0076 61.8784 11.4948 62.1083 11.088C63.3815 8.78907 63.8944 7.85181 64.9731 7.85181C66.0519 7.85181 66.6178 8.87749 67.8557 11.1057C68.0679 11.4948 68.3508 12.0076 68.5277 12.3082C68.8637 12.379 69.4296 12.5028 69.8893 12.5912C72.4005 13.0686 73.55 13.2985 73.886 14.3242C74.222 15.3499 73.4262 16.1988 71.6754 18.0733C71.3571 18.4093 70.9681 18.8337 70.7382 19.099C70.7559 19.435 70.8266 20.0185 70.8973 20.4783C71.2157 23.0072 71.3571 24.1743 70.4729 24.811C70.2607 24.9701 69.8717 25.0762 69.5887 25.0762ZM59.4557 15.4206C59.7386 15.7213 60.0216 16.0396 60.2338 16.2518C61.3125 17.4013 61.6662 17.7903 61.8077 18.2501C61.9491 18.7099 61.8961 19.2404 61.7015 20.7966C61.6662 21.0973 61.6131 21.5217 61.5601 21.9284C61.9314 21.7516 62.3205 21.5748 62.6034 21.451C64.0359 20.779 64.5133 20.5668 64.9908 20.5668C65.4683 20.5668 65.9458 20.779 67.3782 21.451C67.6611 21.5748 68.0325 21.7516 68.4215 21.9284C68.3685 21.5217 68.3331 21.0973 68.2801 20.7966C68.0855 19.2228 68.0325 18.7099 68.174 18.2501C68.3331 17.7903 68.6691 17.4013 69.7479 16.2518C69.9601 16.0219 70.243 15.7213 70.526 15.4206C70.1192 15.3322 69.7125 15.2615 69.4119 15.1908C67.8557 14.8901 67.3605 14.784 66.9714 14.5011C66.5824 14.2181 66.3171 13.776 65.5567 12.3966C65.3976 12.1314 65.203 11.76 64.9908 11.3886C64.7786 11.7423 64.5841 12.1137 64.4426 12.379C63.6645 13.776 63.4169 14.2181 63.0279 14.5011C62.6388 14.784 62.126 14.8901 60.5874 15.1908C60.2691 15.2615 59.8624 15.3499 59.4557 15.4206ZM46.5992 25.0762C45.9272 25.0762 45.0784 24.7049 43.2569 23.856C42.8502 23.6615 42.302 23.4139 41.9837 23.2901C41.6653 23.4139 41.1348 23.6615 40.7281 23.856C38.9066 24.7049 38.0401 25.0762 37.3858 25.0762C37.1028 25.0762 36.7138 24.9524 36.4839 24.7933C35.6173 24.1566 35.7411 23.0779 36.0771 20.4783C36.1302 20.0185 36.2009 19.435 36.2363 19.099C36.0064 18.8337 35.6173 18.4093 35.299 18.0733C33.5129 16.1634 32.7702 15.3676 33.0885 14.3242C33.4245 13.2985 34.5563 13.0686 37.0674 12.5912C37.5096 12.5028 38.0931 12.3966 38.4291 12.3082C38.606 12.0076 38.8889 11.4948 39.1188 11.088C40.3921 8.78907 40.9049 7.85181 41.9837 7.85181C43.0624 7.85181 43.6283 8.87749 44.8662 11.1057C45.0784 11.4948 45.3613 12.0076 45.5382 12.3082C45.8742 12.379 46.4401 12.5028 46.8999 12.5912C49.411 13.0686 50.5605 13.2985 50.8965 14.3242C51.2325 15.3499 50.4367 16.1988 48.686 18.0733C48.3677 18.4093 47.9786 18.8337 47.7487 19.099C47.7664 19.435 47.8371 20.0185 47.9079 20.4783C48.2262 23.0072 48.3677 24.1743 47.4834 24.811C47.2712 24.9701 46.8822 25.0762 46.5992 25.0762ZM36.4662 15.4206C36.7491 15.7213 37.0321 16.0396 37.2443 16.2518C38.323 17.4013 38.6767 17.7903 38.8182 18.2501C38.9597 18.7099 38.9066 19.2404 38.7121 20.7966C38.6767 21.0973 38.6237 21.5217 38.5706 21.9284C38.942 21.7516 39.331 21.5748 39.614 21.451C41.0464 20.779 41.5239 20.5668 42.0013 20.5668C42.4788 20.5668 42.9563 20.779 44.3887 21.451C44.6717 21.5748 45.043 21.7516 45.4321 21.9284C45.379 21.5217 45.3437 21.0973 45.2906 20.7966C45.0961 19.2228 45.043 18.7099 45.1845 18.2501C45.3437 17.7903 45.6797 17.4013 46.7584 16.2518C46.9706 16.0219 47.2536 15.7213 47.5365 15.4206C47.1298 15.3322 46.723 15.2615 46.4224 15.1908C44.8662 14.8901 44.371 14.784 43.982 14.5011C43.5929 14.2181 43.3277 13.776 42.5672 12.3966C42.4081 12.1314 42.2136 11.76 42.0013 11.3886C41.7891 11.7423 41.5946 12.1137 41.4531 12.379C40.675 13.776 40.4274 14.2181 40.0384 14.5011C39.6493 14.784 39.1365 14.8901 37.598 15.1908C37.2797 15.2615 36.8729 15.3499 36.4662 15.4206ZM23.6098 25.0762C22.9378 25.0762 22.0889 24.7049 20.2674 23.856C19.8607 23.6615 19.3125 23.4139 18.9942 23.2901C18.6759 23.4139 18.1453 23.6615 17.7386 23.856C15.9171 24.7049 15.0506 25.0762 14.3963 25.0762C14.1133 25.0762 13.7243 24.9524 13.4944 24.7933C12.6279 24.1566 12.7517 23.0779 13.0877 20.4783C13.1407 20.0185 13.2114 19.435 13.2468 19.099C13.0169 18.8337 12.6279 18.4093 12.3096 18.0733C10.5234 16.1457 9.78071 15.3676 10.099 14.3242C10.435 13.2985 11.5845 13.0863 14.0957 12.5912C14.5378 12.5028 15.1213 12.3966 15.4573 12.3082C15.6342 12.0253 15.9171 11.5124 16.147 11.1057C17.4203 8.80675 17.9331 7.86949 19.0119 7.86949C20.0906 7.86949 20.6565 8.89517 21.8944 11.1234C22.1066 11.5124 22.3896 12.0253 22.5664 12.3259C22.9024 12.3966 23.4683 12.5204 23.9281 12.6089C26.4392 13.0863 27.5887 13.3162 27.9247 14.3419C28.2607 15.3676 27.4649 16.2164 25.7142 18.091C25.3959 18.427 25.0068 18.8514 24.7769 19.1166C24.7946 19.4526 24.8653 20.0362 24.9361 20.496C25.2544 23.0249 25.3959 24.192 24.5117 24.8286C24.2818 24.9701 23.8927 25.0762 23.6098 25.0762ZM13.4767 15.4206C13.7597 15.7213 14.0426 16.0396 14.2548 16.2695C15.3336 17.419 15.6872 17.808 15.8287 18.2678C15.9702 18.7276 15.9171 19.2581 15.7226 20.8143C15.6872 21.115 15.6342 21.5394 15.5811 21.9461C15.9525 21.7693 16.3416 21.5924 16.6245 21.4686C18.0569 20.7966 18.5344 20.5844 19.0119 20.5844C19.4893 20.5844 19.9668 20.7966 21.3992 21.4686C21.6822 21.5924 22.0536 21.7693 22.4426 21.9461C22.3896 21.5394 22.3542 21.115 22.3011 20.8143C22.1066 19.2404 22.0536 18.7276 22.195 18.2678C22.3542 17.808 22.6902 17.419 23.7689 16.2695C23.9811 16.0396 24.2641 15.739 24.547 15.4383C24.1403 15.3499 23.7336 15.2792 23.4329 15.2084C21.8767 14.9078 21.3816 14.8017 20.9925 14.5188C20.6034 14.2358 20.3382 13.7937 19.5778 12.4143C19.4186 12.1491 19.2241 11.7777 19.0119 11.4063C18.7997 11.76 18.6051 12.1314 18.4637 12.3966C17.6856 13.776 17.438 14.2358 17.0312 14.5188C16.6599 14.8017 16.147 14.9078 14.5908 15.2084C14.2902 15.2615 13.8834 15.3499 13.4767 15.4206Z" fill="#4C2A6E"/>
<path d="M56.1484 84H27.8537C27.1286 84 26.5273 83.3987 26.5273 82.6736C26.5273 70.7368 27.9598 64.3351 36.1122 60.2677C36.7665 59.9494 37.5623 60.197 37.8983 60.869C38.2343 61.5233 37.969 62.3191 37.297 62.6551C31.2313 65.6791 29.3214 69.9587 29.1977 81.365H54.8221C54.6983 69.9764 52.7884 65.6791 46.7227 62.6551C46.0684 62.3191 45.8031 61.5233 46.1214 60.869C46.4574 60.2147 47.2356 59.9494 47.9076 60.2677C56.0423 64.3351 57.4747 70.7368 57.4747 82.6736C57.4747 83.3987 56.8734 84 56.1484 84Z" fill="#4C2A6E"/>
<path d="M42.0016 62.779C37.3683 62.779 33.6016 59.0123 33.6016 54.379C33.6016 49.7457 37.3683 45.979 42.0016 45.979C46.6348 45.979 50.4016 49.7457 50.4016 54.379C50.4016 59.0123 46.6348 62.779 42.0016 62.779ZM42.0016 48.6316C38.8361 48.6316 36.2542 51.2135 36.2542 54.379C36.2542 57.5445 38.8361 60.1264 42.0016 60.1264C45.167 60.1264 47.7489 57.5445 47.7489 54.379C47.7489 51.2135 45.167 48.6316 42.0016 48.6316Z" fill="#4C2A6E"/>
<path d="M22.5474 83.9999H1.32632C0.601263 83.9999 0 83.3987 0 82.6736C0 70.7368 1.43242 64.3351 9.58484 60.2677C10.2392 59.9494 11.0349 60.197 11.3709 60.869C11.7069 61.5233 11.4417 62.3191 10.7697 62.6551C4.704 65.6614 2.79411 69.9587 2.65263 81.3473H22.5474C23.2724 81.3473 23.8737 81.9486 23.8737 82.6736C23.8737 83.3987 23.2724 83.9999 22.5474 83.9999ZM25.7305 66.4926C25.3592 66.4926 24.9878 66.3334 24.7225 66.0151C23.6084 64.7065 22.1406 63.5924 20.1777 62.6197C19.5234 62.2837 19.2581 61.4879 19.5764 60.8336C19.9124 60.1793 20.6905 59.914 21.3625 60.2324C23.6438 61.3642 25.3945 62.6905 26.7385 64.282C27.216 64.8479 27.1453 65.6791 26.5794 66.1566C26.3495 66.4041 26.0488 66.4926 25.7305 66.4926Z" fill="#4C2A6E"/>
<path d="M15.4742 62.779C10.841 62.779 7.07422 59.0123 7.07422 54.379C7.07422 49.7457 10.841 45.979 15.4742 45.979C20.1075 45.979 23.8742 49.7457 23.8742 54.379C23.8742 59.0123 20.1075 62.779 15.4742 62.779ZM15.4742 48.6316C12.3087 48.6316 9.72685 51.2135 9.72685 54.379C9.72685 57.5445 12.3087 60.1264 15.4742 60.1264C18.6397 60.1264 21.2216 57.5445 21.2216 54.379C21.2216 51.2135 18.6397 48.6316 15.4742 48.6316Z" fill="#4C2A6E"/>
<path d="M82.6739 84.0001H61.4529C60.7278 84.0001 60.1266 83.3988 60.1266 82.6737C60.1266 81.9487 60.7278 81.3474 61.4529 81.3474H81.3476C81.2238 69.9588 79.3139 65.6615 73.2483 62.6375C72.5939 62.3015 72.3287 61.5057 72.647 60.8514C72.983 60.1971 73.7611 59.9318 74.4331 60.2502C82.5678 64.3175 84.0003 70.7192 84.0003 82.6561C84.0003 83.3988 83.399 84.0001 82.6739 84.0001ZM58.2697 66.4927C57.9691 66.4927 57.6685 66.3866 57.4209 66.1744C56.855 65.6969 56.7843 64.8657 57.2617 64.2999C58.6057 62.7083 60.3565 61.382 62.6377 60.2502C63.292 59.9318 64.0878 60.1794 64.4238 60.8514C64.7598 61.5057 64.4946 62.3015 63.8226 62.6375C61.8773 63.6102 60.3918 64.7243 59.2777 66.0329C59.0125 66.3335 58.6411 66.4927 58.2697 66.4927Z" fill="#4C2A6E"/>
<path d="M68.525 62.779C63.8917 62.779 60.125 59.0123 60.125 54.379C60.125 49.7457 63.8917 45.979 68.525 45.979C73.1583 45.979 76.925 49.7457 76.925 54.379C76.925 59.0123 73.1583 62.779 68.525 62.779ZM68.525 48.6316C65.3595 48.6316 62.7776 51.2135 62.7776 54.379C62.7776 57.5445 65.3595 60.1264 68.525 60.1264C71.6905 60.1264 74.2724 57.5445 74.2724 54.379C74.2724 51.2135 71.6905 48.6316 68.525 48.6316Z" fill="#4C2A6E"/>
</g>
<defs>
<clipPath id="clip0_181_4059">
<rect width="84" height="84" fill="white"/>
</clipPath>
</defs>
</svg>
