<svg width="82" height="82" viewBox="0 0 82 82" fill="none" xmlns="http://www.w3.org/2000/svg">
<path d="M53.7224 55.035H41.6554C34.5085 55.035 32.1089 50.6502 31.3838 48.5268H30.5034C29.7956 48.5268 29.2087 47.9399 29.2087 47.2321C29.2087 46.5243 29.7956 45.9373 30.5034 45.9373H32.3678C33.0066 45.9373 33.559 46.4034 33.6453 47.0422C33.6798 47.2493 34.5775 52.4283 41.6554 52.4283H53.7224C55.8802 52.4283 57.1405 51.4961 57.3994 50.6329C57.6066 49.9769 57.1405 49.4936 56.7089 49.2173C56.2255 48.9066 56.0184 48.3024 56.191 47.7672C56.3636 47.2148 56.8642 46.8523 57.4339 46.8523C58.7632 46.8523 59.4192 45.7129 59.5746 44.7462C59.6954 43.9866 59.5228 43.0889 58.884 42.8645C58.3489 42.6919 58.0036 42.1912 58.0036 41.6388C58.0036 41.0864 58.3661 40.5858 58.884 40.4131C59.7817 40.1197 60.0925 39.1357 60.0925 38.3933C60.0925 37.651 59.7817 36.667 58.884 36.3736C58.3489 36.2009 58.0036 35.7003 58.0036 35.1479C58.0036 34.5954 58.3661 34.0948 58.884 33.9222C59.5918 33.6978 59.4882 32.8346 59.4537 32.662C59.2293 31.2982 57.6584 29.9344 54.6373 29.9344H46.2819C45.8158 29.9344 45.4015 29.6927 45.1598 29.2957C45.0908 29.1748 43.5198 26.4127 46.2129 23.1672C48.6988 20.1807 48.7506 16.5727 47.6803 14.3112C47.0933 13.051 46.1956 12.2742 45.3497 12.2742C44.4175 12.2742 44.1068 12.982 43.7615 15.8477C43.5026 17.9538 43.2091 20.3361 41.3447 21.4064C35.3889 24.8072 33.5935 29.9344 33.5762 29.9862C33.4036 30.5041 32.903 30.8666 32.3506 30.8666H30.4861C29.7784 30.8666 29.1914 30.2969 29.1914 29.5719C29.1914 28.8641 29.7784 28.2771 30.4861 28.2771H31.4701C32.2988 26.4472 34.6984 22.2178 40.0499 19.1622C40.775 18.7479 40.9821 17.0388 41.172 15.5542C41.4655 13.0856 41.8798 9.71924 45.3325 9.71924C47.2314 9.71924 48.975 11.0312 50.0108 13.2409C51.3055 16.0203 51.6162 20.7331 48.1809 24.8418C47.3005 25.9121 47.1624 26.7925 47.2141 27.3622H54.62C59.1602 27.3622 61.5944 29.8136 61.9914 32.2649C62.164 33.318 61.9396 34.302 61.4217 35.0788C62.1986 35.9247 62.6474 37.0986 62.6474 38.4279C62.6474 39.7399 62.1986 40.9138 61.4217 41.7597C62.0605 42.6573 62.3194 43.8658 62.095 45.195C61.8706 46.5933 61.0419 48.078 59.6781 48.8721C60.0407 49.6662 60.1097 50.5466 59.8508 51.4098C59.3329 53.2051 57.2095 55.035 53.7224 55.035Z" fill="#4C2A6E"/>
<path d="M28.6407 49.4589H17.6268C16.919 49.4589 16.332 48.872 16.332 48.1642V28.6568C16.332 27.949 16.919 27.3621 17.6268 27.3621H28.6407C29.3485 27.3621 29.9354 27.949 29.9354 28.6568V48.1642C29.9354 48.872 29.3485 49.4589 28.6407 49.4589ZM18.9215 46.8694H27.3459V29.9515H18.9215V46.8694Z" fill="#4C2A6E"/>
<path d="M20.2842 82C20.1116 82 19.9389 81.9655 19.7836 81.8964C19.3002 81.6893 18.9895 81.2232 18.9895 80.7053V68.1895H15.1053C6.78442 68.1895 0 61.4223 0 53.0842V15.1053C0 6.78442 6.78442 0 15.1053 0H66.8947C75.2328 0 82 6.78442 82 15.1053V53.0842C82 61.4223 75.2328 68.1895 66.8947 68.1895H34.9234L21.1819 81.6375C20.9402 81.8792 20.6122 82 20.2842 82ZM15.1053 2.58947C8.2 2.58947 2.58947 8.2 2.58947 15.1053V53.0842C2.58947 59.9895 8.2 65.6 15.1053 65.6H20.2842C20.992 65.6 21.5789 66.1869 21.5789 66.8947V77.6324L33.4905 65.9798C33.7322 65.7381 34.0602 65.6173 34.3882 65.6173H66.8775C73.7827 65.6173 79.3933 60.0067 79.3933 53.1015V15.1225C79.3933 8.21726 73.7827 2.60674 66.8775 2.60674H15.1053V2.58947Z" fill="#4C2A6E"/>
</svg>
