<svg width="76" height="73" viewBox="0 0 76 73" fill="none" xmlns="http://www.w3.org/2000/svg">
<path d="M52.0445 40.1134C51.8447 40.1134 51.6615 40.0634 51.4784 39.9802C41.9204 35.2012 29.1321 23.1455 30.6141 11.3063C31.2136 6.52737 35.2599 0.899179 40.3219 0.133212C40.9214 0.0499543 41.5374 0 42.1535 0C45.5504 0 49.7633 1.44868 52.0445 5.27851C54.3258 1.43203 58.5386 0 61.9355 0C62.5516 0 63.1677 0.0499543 63.7671 0.133212C68.8292 0.91583 72.8755 6.54402 73.4749 11.3063C74.9569 23.1455 62.1686 35.2012 52.6107 39.9802C52.4275 40.0801 52.2443 40.1134 52.0445 40.1134ZM42.1535 2.49772C41.654 2.49772 41.1711 2.53102 40.6882 2.61428C36.7918 3.21373 33.5614 7.84284 33.0785 11.6394C31.7797 22.0465 43.2026 32.8533 52.0279 37.4824C60.6367 32.9699 72.2594 21.93 70.9772 11.6394C70.511 7.85949 67.264 3.21373 63.3842 2.61428C62.9013 2.54767 62.4184 2.49772 61.9188 2.49772C58.6551 2.49772 54.4257 4.16287 53.2434 8.89188C53.1102 9.44138 52.6107 9.84101 52.0279 9.84101C51.4617 9.84101 50.9622 9.45803 50.8123 8.89188C49.6467 4.16287 45.4172 2.49772 42.1535 2.49772Z" fill="#4C2A6E"/>
<path d="M44.5563 66.3395C38.3952 66.3395 29.7864 62.3764 27.7716 61.4106L21.5439 62.9592C20.8945 63.1257 20.1952 62.7261 20.0287 62.0434C19.8622 61.3773 20.2618 60.6946 20.9278 60.5281L27.5884 58.8629C27.8715 58.7963 28.1879 58.8296 28.4543 58.9629C28.5542 59.0128 38.262 63.8251 44.5396 63.8251C52.4824 63.8251 67.169 52.3356 71.9646 47.54C72.997 46.5076 73.2134 45.4086 72.9137 44.8757C72.564 44.2929 71.3651 44.193 69.8665 44.6259C64.2716 46.2245 55.9459 51.3032 53.981 52.5354C53.9643 52.935 53.8811 53.318 53.7645 53.6677C53.1151 55.516 50.9005 57.1312 47.5868 56.2986L34.2657 52.9683C33.5996 52.8018 33.1833 52.1191 33.3665 51.453C33.533 50.787 34.2157 50.3707 34.8818 50.5372L48.2029 53.8675C50.0179 54.3171 51.1336 53.6677 51.4167 52.8351C51.7497 51.9026 51.1336 50.5206 49.0355 49.5548C48.7691 49.4382 48.3528 49.2217 47.7867 48.9387C43.6904 46.9072 31.2184 40.7961 24.7077 41.329C20.6448 41.6953 19.1461 47.0238 19.1461 47.0737C19.0629 47.3568 18.8797 47.6232 18.6299 47.7897L13.6345 51.12C13.0683 51.503 12.2857 51.3531 11.9027 50.7703C11.5198 50.2042 11.6696 49.4216 12.2524 49.0386L16.8815 45.9581C17.431 44.3595 19.5291 39.2975 24.4912 38.8479C30.9687 38.2817 41.5257 43.0441 48.9023 46.6907C49.4351 46.9572 49.8514 47.157 50.1012 47.2735C51.6997 48.0062 52.7488 48.972 53.3482 49.9877C56.179 48.2393 63.7554 43.7767 69.2171 42.2115C73.1468 41.0792 74.6455 42.8109 75.1117 43.5936C76.0775 45.2421 75.5446 47.5233 73.7796 49.2884C69.3836 53.6843 53.7312 66.3395 44.5563 66.3395Z" fill="#4C2A6E"/>
<path d="M14.5811 73C14.5312 73 14.4646 73 14.4146 72.9834C14.0816 72.9334 13.7652 72.7502 13.5654 72.4838L0.244224 54.1672C-0.155411 53.6344 -0.0555029 52.8684 0.477344 52.4521L8.80307 45.7915C9.0695 45.5751 9.41919 45.4751 9.75222 45.5251C10.0852 45.5751 10.4016 45.7582 10.6014 46.0246L23.9226 64.3412C24.3222 64.8741 24.2057 65.6401 23.6895 66.0564L15.3638 72.7169C15.1473 72.9001 14.8642 73 14.5811 73ZM2.97506 53.6677L14.8309 69.9694L21.2084 64.8741L9.35258 48.5723L2.97506 53.6677Z" fill="#4C2A6E"/>
</svg>
