<svg width="78" height="80" viewBox="0 0 78 80" fill="none" xmlns="http://www.w3.org/2000/svg">
<path d="M65.6987 43.243C64.3065 43.243 61.505 41.9883 57.4144 40.0634C55.6957 39.2556 53.3239 38.1556 52.7911 38.0697C52.3958 38.1556 50.0411 39.2556 48.3052 40.0634C44.1975 41.9883 41.4131 43.243 40.021 43.243C39.5913 43.243 39.2132 43.1399 38.921 42.9165C37.7867 42.0915 37.8554 40.2009 38.7319 33.1026C38.9554 31.212 39.2819 28.6167 39.196 28.0839C38.9897 27.7402 37.2195 25.8324 35.9133 24.4402C31.0321 19.2153 29.8633 17.7372 30.293 16.3966C30.7227 15.056 32.5445 14.5404 39.5741 13.1826C41.4475 12.8217 44.0084 12.3232 44.4897 12.0826C44.7475 11.7904 46.0193 9.50453 46.9302 7.83737C50.3849 1.58122 51.4505 0 52.8598 0C54.2692 0 55.3176 1.58122 58.7894 7.82018C59.7175 9.48734 60.9722 11.7732 61.3675 12.1685C61.7285 12.3232 64.2893 12.8217 66.1627 13.1826C73.1751 14.5404 74.997 15.056 75.4438 16.3966C75.8735 17.7372 74.7048 19.2325 69.8236 24.4402C68.5174 25.8324 66.7471 27.7402 66.4893 28.2214C66.4549 28.6167 66.7643 31.212 67.0049 33.1026C67.8815 40.1837 67.9502 42.0743 66.8158 42.8993C66.5065 43.1227 66.1455 43.243 65.6987 43.243ZM33.0945 17.2903C33.9539 18.5622 36.3085 21.0715 37.8038 22.6699C40.4678 25.523 41.4303 26.5886 41.6709 27.3449C41.9116 28.1011 41.7741 29.5276 41.2928 33.4119C41.0178 35.5947 40.6054 39.015 40.6397 40.5274C42.1178 40.0978 45.2287 38.6368 47.2052 37.7087C50.7458 36.0588 52.052 35.4744 52.8598 35.4744C53.6504 35.4744 54.9567 36.0588 58.5144 37.7087C60.491 38.6368 63.619 40.0978 65.0799 40.5274C65.1315 38.9978 64.7018 35.5947 64.4268 33.4119C63.9456 29.5276 63.7909 28.1011 64.0487 27.3449C64.2893 26.5886 65.2518 25.523 67.9158 22.6699C69.4111 21.0715 71.7658 18.545 72.6251 17.2903C71.1814 16.7747 67.8127 16.1216 65.6471 15.7091C61.8144 14.9701 60.4222 14.6607 59.7691 14.1966C59.116 13.7326 58.3941 12.4951 56.5035 9.05766C55.4379 7.13269 53.7707 4.12493 52.8426 2.92183C51.9145 4.12493 50.2302 7.14988 49.1817 9.07485C47.2911 12.4951 46.5693 13.7326 45.9334 14.1966C45.2803 14.6607 43.8881 14.9701 40.0553 15.7091C37.9069 16.1216 34.5211 16.7747 33.0945 17.2903Z" fill="#4C2A6E"/>
<path d="M45.9863 72.8395C39.6271 72.8395 30.7413 68.7489 28.6616 67.7521L22.2336 69.3505C21.5461 69.5223 20.8414 69.1098 20.6695 68.4052C20.4977 67.7177 20.9102 67.013 21.5977 66.8411L28.4725 65.1224C28.7647 65.0537 29.0913 65.088 29.3663 65.2255C29.4694 65.2771 39.4895 70.2442 45.9691 70.2442C54.1674 70.2442 69.3265 58.385 74.2765 53.4351C75.3421 52.3695 75.5655 51.2351 75.2561 50.6852C74.8952 50.0836 73.6578 49.9805 72.1109 50.4273C66.336 52.0773 57.7424 57.3194 55.7143 58.5913C55.6971 59.0038 55.6112 59.3991 55.4908 59.76C54.8205 61.6678 52.5347 63.3349 49.1144 62.4756L35.3646 59.0381C34.6771 58.8663 34.2475 58.1616 34.4365 57.4741C34.6084 56.7866 35.3131 56.3569 36.0006 56.5288L49.7503 59.9662C51.6237 60.4303 52.7753 59.76 53.0674 58.9006C53.4112 57.9382 52.7753 56.5116 50.6097 55.5148C50.3347 55.3944 49.905 55.171 49.3034 54.8788C45.0754 52.782 32.185 46.4571 25.482 47.0243C21.2883 47.4024 19.7415 52.9023 19.7415 52.9539C19.6555 53.2461 19.4665 53.521 19.2087 53.6929L14.0525 57.1304C13.451 57.5257 12.6603 57.371 12.265 56.7694C11.8697 56.1851 12.0244 55.3773 12.6259 54.982L17.404 51.8023C17.9712 50.1524 20.1368 44.9274 25.2585 44.4634C31.9444 43.879 42.8411 48.7946 50.455 52.5586C51.005 52.8336 51.4347 53.0398 51.6925 53.1601C53.3425 53.9164 54.4252 54.9132 55.044 55.9616C57.9658 54.157 65.786 49.5508 71.4234 47.9352C75.4796 46.7665 77.0264 48.5539 77.5077 49.3617C78.5045 51.0633 77.9546 53.4179 76.1327 55.2398C71.6125 59.7772 55.4565 72.8395 45.9863 72.8395Z" fill="#4C2A6E"/>
<path d="M15.0503 79.7142C14.9987 79.7142 14.9299 79.7142 14.8784 79.6971C14.5346 79.6455 14.2081 79.4564 14.0019 79.1814L0.252092 60.2755C-0.160401 59.7255 -0.0573052 58.9349 0.492685 58.5052L9.08629 51.6303C9.36129 51.4069 9.72223 51.3038 10.066 51.3553C10.4097 51.4069 10.7362 51.596 10.9425 51.871L24.6923 70.7769C25.1047 71.3269 24.9845 72.1175 24.4517 72.5472L15.8581 79.4221C15.6346 79.6111 15.3424 79.7142 15.0503 79.7142ZM3.07077 59.7599L15.3081 76.5862L21.8908 71.3269L9.65345 54.5006L3.07077 59.7599Z" fill="#4C2A6E"/>
</svg>
