<svg width="76" height="73" viewBox="0 0 76 73" fill="none" xmlns="http://www.w3.org/2000/svg">
<path d="M9.2 44C9.04 44 8.896 43.968 8.736 43.904C8.288 43.728 8 43.28 8 42.8V33.712C2.976 30.176 0 24.64 0 18.8C0 13.76 2.128 9.024 6.016 5.472C9.856 1.936 14.976 0 20.4 0C31.648 0 40.8 8.432 40.8 18.8C40.8 23.84 38.672 28.576 34.784 32.128C30.944 35.664 25.824 37.6 20.4 37.6C19.088 37.6 17.776 37.472 16.464 37.232L10.048 43.648C9.824 43.872 9.52 44 9.2 44ZM20.4 2.4C15.568 2.4 11.04 4.112 7.632 7.232C4.256 10.336 2.4 14.432 2.4 18.8C2.4 24.032 5.2 28.992 9.856 32.08C10.192 32.304 10.4 32.672 10.4 33.088V39.92L15.232 35.104C15.52 34.816 15.936 34.688 16.336 34.784C17.696 35.072 19.072 35.232 20.4 35.232C25.232 35.232 29.76 33.52 33.168 30.4C36.544 27.312 38.4 23.2 38.4 18.832C38.4 9.76 30.32 2.4 20.4 2.4Z" fill="#4C2A6E"/>
<path d="M13.9977 16.4001C15.3231 16.4001 16.3977 15.3256 16.3977 14.0001C16.3977 12.6746 15.3231 11.6001 13.9977 11.6001C12.6722 11.6001 11.5977 12.6746 11.5977 14.0001C11.5977 15.3256 12.6722 16.4001 13.9977 16.4001Z" fill="#4C2A6E"/>
<path d="M26.8023 16.4001C28.1278 16.4001 29.2023 15.3256 29.2023 14.0001C29.2023 12.6746 28.1278 11.6001 26.8023 11.6001C25.4769 11.6001 24.4023 12.6746 24.4023 14.0001C24.4023 15.3256 25.4769 16.4001 26.8023 16.4001Z" fill="#4C2A6E"/>
<path d="M49.2008 16.4001C50.5263 16.4001 51.6008 15.3256 51.6008 14.0001C51.6008 12.6746 50.5263 11.6001 49.2008 11.6001C47.8753 11.6001 46.8008 12.6746 46.8008 14.0001C46.8008 15.3256 47.8753 16.4001 49.2008 16.4001Z" fill="#4C2A6E"/>
<path d="M61.9977 16.4001C63.3231 16.4001 64.3977 15.3256 64.3977 14.0001C64.3977 12.6746 63.3231 11.6001 61.9977 11.6001C60.6722 11.6001 59.5977 12.6746 59.5977 14.0001C59.5977 15.3256 60.6722 16.4001 61.9977 16.4001Z" fill="#4C2A6E"/>
<path d="M20.399 29.5999C17.327 29.5999 14.399 28.2879 12.351 25.9999C11.903 25.5039 11.951 24.7519 12.447 24.3039C12.943 23.8559 13.695 23.9039 14.143 24.3999C15.743 26.1759 18.015 27.1999 20.399 27.1999C22.783 27.1999 25.071 26.1759 26.655 24.3999C27.103 23.9039 27.855 23.8719 28.351 24.3039C28.847 24.7519 28.879 25.5039 28.447 25.9999C26.399 28.2879 23.471 29.5999 20.399 29.5999Z" fill="#4C2A6E"/>
<path d="M62.7517 27.984C62.4157 27.984 62.0957 27.856 61.8557 27.584C60.2717 25.808 57.9837 24.784 55.5997 24.784C53.2157 24.784 50.9437 25.808 49.3437 27.584C48.8957 28.08 48.1437 28.112 47.6477 27.68C47.1517 27.232 47.1197 26.48 47.5517 25.984C49.5997 23.696 52.5277 22.384 55.5997 22.384C58.6717 22.384 61.5997 23.696 63.6477 25.984C64.0957 26.48 64.0477 27.232 63.5517 27.68C63.3277 27.888 63.0397 27.984 62.7517 27.984Z" fill="#4C2A6E"/>
<path d="M31.5992 45.1999C32.9247 45.1999 33.9992 44.1254 33.9992 42.7999C33.9992 41.4744 32.9247 40.3999 31.5992 40.3999C30.2737 40.3999 29.1992 41.4744 29.1992 42.7999C29.1992 44.1254 30.2737 45.1999 31.5992 45.1999Z" fill="#4C2A6E"/>
<path d="M44.4 45.1999C45.7255 45.1999 46.8 44.1254 46.8 42.7999C46.8 41.4744 45.7255 40.3999 44.4 40.3999C43.0745 40.3999 42 41.4744 42 42.7999C42 44.1254 43.0745 45.1999 44.4 45.1999Z" fill="#4C2A6E"/>
<path d="M30.8523 55.2C30.1963 55.2 29.6523 54.656 29.6523 54C29.6523 53.344 30.1963 52.8 30.8523 52.8H45.1563C45.8123 52.8 46.3563 53.344 46.3563 54C46.3563 54.656 45.8123 55.2 45.1563 55.2H30.8523Z" fill="#4C2A6E"/>
<path d="M66.7972 44C66.4772 44 66.1732 43.872 65.9492 43.648L59.5332 37.232C59.1332 37.312 58.7172 37.376 58.3172 37.424C57.6612 37.488 57.0532 37.04 56.9732 36.384C56.8932 35.728 57.3572 35.12 58.0132 35.04C58.5732 34.976 59.1332 34.864 59.6772 34.752C60.0772 34.672 60.4932 34.784 60.7812 35.072L65.5972 39.904V33.072C65.5972 32.672 65.8052 32.288 66.1412 32.064C70.8132 28.992 73.5972 24.032 73.5972 18.8C73.5972 14.432 71.7412 10.336 68.3652 7.232C64.9572 4.112 60.4292 2.4 55.5972 2.4C50.2372 2.4 45.1972 4.56 41.7732 8.304C41.3252 8.8 40.5732 8.832 40.0772 8.384C39.5972 7.936 39.5492 7.184 39.9972 6.688C43.8852 2.432 49.5652 0 55.5972 0C61.0212 0 66.1412 1.936 69.9812 5.472C73.8532 9.024 75.9972 13.76 75.9972 18.8C75.9972 24.64 73.0212 30.16 67.9972 33.696V42.8C67.9972 43.28 67.7092 43.728 67.2612 43.904C67.1172 43.968 66.9572 44 66.7972 44Z" fill="#4C2A6E"/>
<path d="M26.7977 72.8C26.6377 72.8 26.4937 72.768 26.3337 72.704C25.8857 72.528 25.5977 72.08 25.5977 71.6V62.512C20.5737 58.976 17.5977 53.44 17.5977 47.6C17.5977 45.216 18.0777 42.88 19.0217 40.672C19.2777 40.064 19.9817 39.776 20.6057 40.048C21.2137 40.304 21.5017 41.024 21.2297 41.632C20.4137 43.536 19.9977 45.552 19.9977 47.616C19.9977 52.848 22.7977 57.808 27.4537 60.896C27.7897 61.12 27.9977 61.488 27.9977 61.904V68.736L32.8297 63.92C33.1177 63.632 33.5337 63.52 33.9337 63.6C35.2937 63.888 36.6697 64.048 37.9977 64.048C37.9977 64.048 37.9977 64.048 38.0137 64.048C42.8457 64.048 47.3737 62.336 50.7657 59.216C54.1417 56.128 55.9977 52.016 55.9977 47.648C55.9977 39.6 49.4217 32.64 40.7177 31.44C40.0617 31.344 39.5977 30.736 39.6937 30.08C39.7897 29.424 40.3817 28.96 41.0537 29.056C50.9417 30.416 58.4137 38.416 58.4137 47.648C58.4137 52.688 56.2857 57.424 52.3977 60.976C48.5577 64.496 43.4377 66.448 38.0137 66.448C38.0137 66.448 38.0137 66.448 37.9977 66.448C36.7017 66.448 35.3737 66.32 34.0617 66.08L27.6457 72.496C27.4217 72.672 27.1177 72.8 26.7977 72.8Z" fill="#4C2A6E"/>
</svg>
