<svg width="65" height="60" viewBox="0 0 65 60" fill="none" xmlns="http://www.w3.org/2000/svg">
<path d="M56.5891 59.2453H46.4888C40.4985 59.2453 38.5375 55.5382 37.9465 53.8056H37.1675C36.6168 53.8056 36.1602 53.349 36.1602 52.7983C36.1602 52.2476 36.6168 51.7909 37.1675 51.7909H38.7255C39.2225 51.7909 39.6523 52.1536 39.7194 52.6505C39.7463 52.8251 40.4985 57.2306 46.4888 57.2306H56.5891C58.4292 57.2306 59.5171 56.4247 59.7455 55.686C59.9201 55.095 59.5171 54.6652 59.1411 54.4235C58.765 54.1817 58.6038 53.7116 58.7381 53.2952C58.8724 52.8654 59.2619 52.5834 59.7052 52.5834C60.8737 52.5834 61.4378 51.6029 61.5721 50.7701C61.6796 50.0852 61.5318 49.3061 60.9408 49.1181C60.5245 48.9838 60.2559 48.5943 60.2559 48.1645C60.2559 47.7347 60.5379 47.3452 60.9408 47.2109C61.7199 46.9557 62.0019 46.0961 62.0019 45.4514C62.0019 44.8067 61.7199 43.9471 60.9408 43.6919C60.5245 43.5576 60.2559 43.1681 60.2559 42.7382C60.2559 42.3084 60.5379 41.9189 60.9408 41.7846C61.4378 41.6235 61.5453 41.0862 61.4647 40.643C61.2766 39.4745 59.9335 38.3059 57.3681 38.3059H50.3704C50.0078 38.3059 49.6854 38.1179 49.4974 37.809C49.4437 37.715 48.1408 35.4316 50.3704 32.7722C52.4657 30.2472 52.506 27.1983 51.6195 25.291C51.1092 24.2165 50.3436 23.545 49.5914 23.545C48.7587 23.545 48.4901 24.1494 48.1946 26.5939C47.9797 28.3399 47.7379 30.3143 46.2202 31.1874C41.17 34.0751 39.6926 38.3597 39.6791 38.4C39.5448 38.8163 39.1553 39.0849 38.7255 39.0849H37.1675C36.6168 39.0849 36.1602 38.6283 36.1602 38.0776C36.1602 37.5269 36.6168 37.0703 37.1675 37.0703H38.0405C38.7121 35.5794 40.6999 32.0067 45.2128 29.4279C45.8575 29.0518 46.0321 27.6146 46.1933 26.3387C46.4485 24.3105 46.7843 21.5168 49.5914 21.5168C51.1494 21.5168 52.5866 22.6048 53.4462 24.418C54.5207 26.7282 54.7759 30.6232 51.9285 34.0482C51.136 35.0018 51.042 35.7943 51.1092 36.2778H57.3681C61.1155 36.2778 63.1301 38.3059 63.4525 40.3072C63.6002 41.1802 63.3988 42.013 62.9555 42.6442C63.6137 43.3427 64.0032 44.3231 64.0032 45.4379C64.0032 46.5393 63.6137 47.5198 62.9555 48.2182C63.4928 48.9569 63.7211 49.9777 63.5465 51.0925C63.3585 52.2745 62.66 53.5101 61.4915 54.1548C61.8139 54.813 61.881 55.5517 61.6527 56.2904C61.2095 57.7544 59.4634 59.2453 56.5891 59.2453Z" fill="#4C2A6E"/>
<path d="M35.6037 54.5847H26.4839C25.9332 54.5847 25.4766 54.128 25.4766 53.5773V37.2583C25.4766 36.7076 25.9332 36.251 26.4839 36.251H35.6037C36.1544 36.251 36.6111 36.7076 36.6111 37.2583V53.5773C36.6111 54.128 36.1544 54.5847 35.6037 54.5847ZM27.4913 52.57H34.5964V38.2657H27.4913V52.57Z" fill="#4C2A6E"/>
<path d="M14.4118 37.7553C12.8537 37.7553 11.4166 36.6674 10.557 34.8541C9.48248 32.544 9.22728 28.6489 12.0747 25.2239C12.8672 24.2703 12.9612 23.4779 12.894 22.9943H6.63505C2.88772 22.9943 0.873033 20.9662 0.550682 18.965C0.402938 18.0919 0.604407 17.2592 1.04764 16.6145C0.389507 15.9295 0 14.9356 0 13.8208C0 12.7194 0.389507 11.7389 1.03421 11.0405C0.496957 10.3152 0.268625 9.29444 0.456663 8.17964C0.644701 6.99769 1.34313 5.76201 2.49822 5.11731C2.17587 4.45918 2.10871 3.72046 2.33704 2.98174C2.78027 1.49087 4.52634 0 7.41406 0H17.5144C23.5182 0 25.4657 3.70703 26.0567 5.43966H26.8357C27.3864 5.43966 27.843 5.89633 27.843 6.44701C27.843 6.99769 27.3864 7.45435 26.8357 7.45435H25.2777C24.7807 7.45435 24.3509 7.09171 24.2837 6.59475C24.2569 6.40671 23.5047 2.01469 17.5144 2.01469H7.41406C5.57398 2.01469 4.48604 2.82057 4.25771 3.55929C4.08311 4.16369 4.49948 4.58006 4.86212 4.83526C5.2382 5.07702 5.39937 5.54711 5.26506 5.96348C5.13075 6.37985 4.74124 6.67534 4.29801 6.67534C3.14292 6.67534 2.56537 7.65582 2.43106 8.48856C2.32361 9.17356 2.48478 9.95257 3.07576 10.154C3.4787 10.2884 3.76076 10.6779 3.76076 11.1077C3.76076 11.5375 3.4787 11.927 3.07576 12.0613C2.29675 12.3165 2.01469 13.1761 2.01469 13.8208C2.01469 14.4655 2.29675 15.3251 3.07576 15.5803C3.49213 15.728 3.76076 16.1175 3.76076 16.5473C3.76076 16.9771 3.4787 17.3666 3.07576 17.5009C2.5788 17.6756 2.47135 18.1994 2.55194 18.6426C2.73998 19.8111 4.08311 20.9796 6.64848 20.9796H13.6462C14.0088 20.9796 14.3312 21.1677 14.5192 21.4766C14.5729 21.5706 15.8758 23.8539 13.6462 26.5133C11.5509 29.0384 11.5106 32.0873 12.4105 33.9945C12.9209 35.069 13.6865 35.7406 14.4386 35.7406C15.2714 35.7406 15.54 35.1362 15.8489 32.6917C16.0638 30.9456 16.3056 28.9712 17.8367 28.0982C22.8869 25.2105 24.3509 20.9259 24.3778 20.8856C24.5121 20.4693 24.9016 20.2006 25.3314 20.2006H26.8894C27.4401 20.2006 27.8967 20.6573 27.8967 21.208C27.8967 21.7587 27.4401 22.2153 26.8894 22.2153H26.0164C25.3448 23.7062 23.357 27.2789 18.8441 29.8577C18.1994 30.2338 18.0113 31.6709 17.8636 32.9469C17.5681 34.975 17.2189 37.7553 14.4118 37.7553Z" fill="#4C2A6E"/>
<path d="M37.5139 22.9943H28.3941C27.8434 22.9943 27.3867 22.5377 27.3867 21.987V5.66799C27.3867 5.11731 27.8434 4.66064 28.3941 4.66064H37.5139C38.0646 4.66064 38.5212 5.11731 38.5212 5.66799V21.987C38.5212 22.5377 38.0646 22.9943 37.5139 22.9943ZM29.4014 20.9796H36.5066V6.67533H29.4014V20.9796Z" fill="#4C2A6E"/>
</svg>
