<svg width="80" height="80" viewBox="0 0 80 80" fill="none" xmlns="http://www.w3.org/2000/svg">
<path d="M11.3684 80.0001C11.1832 80.0001 11.0147 79.9664 10.8463 79.8822C10.3916 79.6801 10.1053 79.2254 10.1053 78.7369V69.8948H6.31579C2.82947 69.8948 0 67.0654 0 63.579V14.7369C0 11.2506 2.82947 8.42114 6.31579 8.42114H60.2105C60.9011 8.42114 61.4737 8.99377 61.4737 9.6843C61.4737 10.3748 60.9011 10.9475 60.2105 10.9475H6.31579C4.22737 10.9475 2.52632 12.6485 2.52632 14.7369V63.579C2.52632 65.6675 4.22737 67.3685 6.31579 67.3685H11.3684C12.0589 67.3685 12.6316 67.9411 12.6316 68.6317V75.9917L22.3326 67.6717C22.5684 67.4696 22.8547 67.3685 23.1579 67.3685H73.6842C75.7726 67.3685 77.4737 65.6675 77.4737 63.579V56.8422C77.4737 56.1517 78.0463 55.579 78.7368 55.579C79.4274 55.579 80 56.1517 80 56.8422V63.579C80 67.0654 77.1705 69.8948 73.6842 69.8948H23.6295L12.1937 79.6969C11.9579 79.899 11.6716 80.0001 11.3684 80.0001Z" fill="#4C2A6E"/>
<path d="M40.0008 61.4736H9.68503C8.99451 61.4736 8.42188 60.901 8.42188 60.2105C8.42188 59.5199 8.99451 58.9473 9.68503 58.9473H40.0008C40.6913 58.9473 41.264 59.5199 41.264 60.2105C41.264 60.901 40.6913 61.4736 40.0008 61.4736ZM56.8429 53.0526H9.68503C8.99451 53.0526 8.42188 52.4799 8.42188 51.7894C8.42188 51.0989 8.99451 50.5263 9.68503 50.5263H56.8429C57.5335 50.5263 58.1061 51.0989 58.1061 51.7894C58.1061 52.4799 57.5335 53.0526 56.8429 53.0526ZM56.8429 44.6315H9.68503C8.99451 44.6315 8.42188 44.0589 8.42188 43.3684C8.42188 42.6778 8.99451 42.1052 9.68503 42.1052H56.8429C57.5335 42.1052 58.1061 42.6778 58.1061 43.3684C58.1061 44.0589 57.5335 44.6315 56.8429 44.6315ZM56.8429 36.2105H9.68503C8.99451 36.2105 8.42188 35.6378 8.42188 34.9473C8.42188 34.2568 8.99451 33.6841 9.68503 33.6841H56.8429C57.5335 33.6841 58.1061 34.2568 58.1061 34.9473C58.1061 35.6378 57.5335 36.2105 56.8429 36.2105ZM56.8429 27.7894H9.68503C8.99451 27.7894 8.42188 27.2168 8.42188 26.5263C8.42188 25.8357 8.99451 25.2631 9.68503 25.2631H56.8429C57.5335 25.2631 58.1061 25.8357 58.1061 26.5263C58.1061 27.2168 57.5335 27.7894 56.8429 27.7894ZM56.8429 19.3684H9.68503C8.99451 19.3684 8.42188 18.7957 8.42188 18.1052C8.42188 17.4147 8.99451 16.842 9.68503 16.842H56.8429C57.5335 16.842 58.1061 17.4147 58.1061 18.1052C58.1061 18.7957 57.5335 19.3684 56.8429 19.3684Z" fill="#4C2A6E"/>
<path d="M72 58.1053C71.5284 58.1053 71.0905 57.8358 70.8716 57.3979L64.1516 43.9411C64.0505 43.7895 64 43.5874 64 43.3853V4.64842C64 2.25684 66.2568 0 68.6316 0H75.3684C77.7432 0 80 2.25684 80 4.63158V43.3684C80 43.5705 79.9495 43.7726 79.8484 43.9411L73.1284 57.3979C72.9095 57.8358 72.4884 58.1053 72 58.1053ZM67.3011 44.6316L72 54.0126L76.6989 44.6316H67.3011ZM66.5263 42.1053H77.4737V12.6316H66.5263V42.1053ZM66.5263 10.1053H77.4737V4.63158C77.4737 3.65474 76.3453 2.52632 75.3684 2.52632H68.6316C67.6547 2.52632 66.5263 3.65474 66.5263 4.63158V10.1053Z" fill="#4C2A6E"/>
</svg>
