<svg width="198" height="58" viewBox="0 0 198 58" fill="none" xmlns="http://www.w3.org/2000/svg">
<g clip-path="url(#clip0_1_2862)">
<path d="M198.028 51.4497C198.029 52.1997 197.882 52.9424 197.596 53.6348C197.31 54.3272 196.89 54.9554 196.361 55.4831C195.832 56.0109 195.205 56.4275 194.515 56.709C193.825 56.9904 193.086 57.131 192.342 57.1226H5.54991C4.81667 57.1364 4.08821 57.0009 3.40818 56.7243C2.72814 56.4477 2.11052 56.0356 1.5923 55.5128C1.07408 54.9899 0.665936 54.3671 0.392309 53.6815C0.118681 52.996 -0.0147971 52.2619 -0.00013076 51.5231V5.70439C-0.0138137 4.96673 0.120469 4.23389 0.394669 3.54978C0.668868 2.86567 1.07734 2.24438 1.5956 1.72316C2.11385 1.20194 2.73123 0.791511 3.41071 0.516484C4.0902 0.241456 4.8178 0.107488 5.54991 0.122612H192.342C195.495 0.122612 198 2.53759 198 5.71199V51.5307L198.028 51.4497Z" fill="#1C1A16"/>
<mask id="mask0_1_2862" style="mask-type:luminance" maskUnits="userSpaceOnUse" x="21" y="11" width="21" height="38">
<path d="M21.7581 12.5014V48.154C21.7366 48.3256 21.772 48.4995 21.8588 48.6488C21.9456 48.798 22.0789 48.9142 22.2379 48.9792L41.0815 30.1606L22.3937 11.4863C22.0194 11.5926 21.7581 11.9344 21.7581 12.4989" fill="white"/>
</mask>
<g mask="url(#mask0_1_2862)">
<path d="M41.0762 11.4863H21.7578V48.9716H41.0762V11.4863Z" fill="url(#paint0_linear_1_2862)"/>
</g>
<mask id="mask1_1_2862" style="mask-type:luminance" maskUnits="userSpaceOnUse" x="22" y="11" width="25" height="20">
<path d="M22.3936 11.4864L41.0763 30.1505L46.2645 24.9662L38.4759 20.4299L38.4357 20.4071H38.4156H38.398H38.3779L23.381 11.6534C23.1621 11.5263 22.915 11.4567 22.6624 11.4509C22.5716 11.451 22.4813 11.4629 22.3936 11.4864Z" fill="white"/>
</mask>
<g mask="url(#mask1_1_2862)">
<path d="M46.2645 11.4509H22.3936V30.1505H46.2645V11.4509Z" fill="url(#paint1_linear_1_2862)"/>
</g>
<mask id="mask2_1_2862" style="mask-type:luminance" maskUnits="userSpaceOnUse" x="22" y="30" width="25" height="20">
<path d="M22.2378 48.9792C22.3735 49.0161 22.5154 49.0239 22.6544 49.0021C22.7933 48.9803 22.9261 48.9294 23.0443 48.8526L25.2251 47.5869L38.4658 39.8661L42.3652 37.5878L46.2645 35.3095L41.0763 30.1277L22.2378 48.9792Z" fill="white"/>
</mask>
<g mask="url(#mask2_1_2862)">
<path d="M46.2645 30.1505H22.2378V49.045H46.2645V30.1505Z" fill="url(#paint2_linear_1_2862)"/>
</g>
<mask id="mask3_1_2862" style="mask-type:luminance" maskUnits="userSpaceOnUse" x="41" y="24" width="14" height="12">
<path d="M41.0764 30.1505L46.2647 35.3324L51.968 32.0162L53.7619 30.9732C54.6111 30.467 54.5608 29.8063 53.885 29.3962L53.8372 29.3709L53.8146 29.3557C53.1212 28.981 47.1289 25.4725 46.3501 25.0143L46.2647 24.9662L41.0764 30.1505Z" fill="white"/>
</mask>
<g mask="url(#mask3_1_2862)">
<path d="M54.6111 24.9662H41.0764V35.3349H54.6111V24.9662Z" fill="url(#paint3_linear_1_2862)"/>
</g>
<path d="M143.379 37.6941C142.696 37.703 142.018 37.5658 141.392 37.2916C140.789 37.0176 140.269 36.5879 139.884 36.0462H139.761C139.841 36.664 139.882 37.2863 139.884 37.9093V42.5291H138.186V26.2648H139.558L139.789 27.8013H139.872C140.251 27.2336 140.771 26.7749 141.379 26.4698C142.001 26.1864 142.679 26.0463 143.361 26.0597C144.839 26.0597 145.979 26.566 146.781 27.5786C147.583 28.5911 147.985 30.018 147.987 31.8592C147.987 33.7021 147.579 35.1365 146.763 36.1626C145.948 37.1887 144.814 37.695 143.361 37.6815M143.11 27.4925C141.97 27.4925 141.146 27.8098 140.64 28.4443C140.135 29.0789 139.873 30.0914 139.857 31.482V31.8592C139.857 33.4354 140.118 34.5644 140.64 35.2462C141.163 35.928 142.001 36.2656 143.153 36.2588C143.598 36.2733 144.04 36.1728 144.436 35.9667C144.831 35.7607 145.168 35.456 145.414 35.0817C145.959 34.297 146.232 33.2144 146.233 31.8339C146.235 30.4534 145.962 29.3801 145.414 28.6139C145.153 28.2492 144.806 27.9557 144.404 27.76C144.002 27.5642 143.559 27.4723 143.113 27.4925" fill="#FBFBFB"/>
<path d="M151.909 21.5538H150.223V37.4917H151.909V21.5538Z" fill="#FBFBFB"/>
<path d="M161.612 37.4891L161.278 35.8918H161.195C160.764 36.4967 160.197 36.9909 159.542 37.3347C158.885 37.6024 158.18 37.7291 157.471 37.7068C156.368 37.7068 155.502 37.4208 154.876 36.8487C154.25 36.2766 153.936 35.4606 153.934 34.4008C153.934 32.1327 155.734 30.9446 159.333 30.8366L161.223 30.7733V30.0771C161.223 29.1962 161.037 28.5583 160.66 28.1254C160.283 27.6925 159.68 27.4976 158.856 27.4976C157.926 27.4976 156.875 27.7837 155.703 28.3558L155.185 27.0572C155.756 26.7481 156.361 26.5101 156.989 26.3484C157.632 26.1806 158.293 26.0955 158.956 26.0952C160.285 26.0952 161.268 26.3914 161.911 26.9863C162.554 27.5812 162.871 28.533 162.871 29.8442V37.5043L161.612 37.4891ZM157.801 36.2918C158.851 36.2918 159.676 36.0015 160.275 35.421C160.875 34.8404 161.175 34.0278 161.175 32.9832V31.9706L159.486 32.0415C158.146 32.0888 157.179 32.2989 156.584 32.6718C156.294 32.8531 156.058 33.1103 155.901 33.4162C155.745 33.722 155.673 34.0649 155.695 34.4084C155.677 34.6699 155.718 34.9321 155.814 35.1756C155.91 35.4192 156.059 35.638 156.25 35.8159C156.692 36.1611 157.243 36.3321 157.801 36.2968" fill="#FBFBFB"/>
<path d="M163.843 26.2648H165.652L168.084 32.6667C168.489 33.6976 168.825 34.7548 169.089 35.831H169.169C169.257 35.4817 169.443 34.8868 169.722 34.0438C170.001 33.2009 170.923 30.6087 172.486 26.2648H174.295L169.506 39.0459C169.032 40.3099 168.478 41.2069 167.843 41.7368C167.186 42.2751 166.358 42.5565 165.511 42.5292C164.998 42.5292 164.486 42.4706 163.986 42.3545V40.9926C164.399 41.08 164.82 41.1216 165.242 41.1166C166.402 41.1166 167.228 40.461 167.722 39.1497L168.343 37.5524L163.843 26.2648Z" fill="#FBFBFB"/>
<path d="M112.119 27.3077C112.654 27.7532 113.772 28.6924 113.772 30.4771C113.772 32.2136 112.795 33.0389 111.815 33.8109C111.511 34.1172 111.164 34.4463 111.164 34.9627C111.164 35.4791 111.511 35.7601 111.77 35.9753L112.609 36.6309C113.634 37.4992 114.566 38.2991 114.566 39.9218C114.566 42.1292 112.445 44.3594 108.438 44.3594C105.059 44.3594 103.428 42.7393 103.428 41.0002C103.428 40.1547 103.845 38.9598 105.222 38.1346C106.664 37.2435 108.624 37.122 109.672 37.0562C109.345 36.6335 108.973 36.1879 108.973 35.4614C108.98 35.1419 109.06 34.8283 109.207 34.545C108.956 34.5678 108.692 34.5906 108.453 34.5906C105.986 34.5906 104.586 32.7351 104.586 30.9049C104.598 30.3035 104.738 29.7117 104.995 29.169C105.252 28.6263 105.622 28.1453 106.079 27.7583C107.405 26.6546 108.991 26.4673 110.25 26.4673H115.048L113.564 27.3077H112.119ZM110.463 37.7321C110.285 37.7121 110.107 37.7045 109.928 37.7093C109.099 37.725 108.276 37.8519 107.481 38.0865C106.978 38.2713 105.471 38.8459 105.471 40.504C105.471 42.1621 107.079 43.3696 109.571 43.3696C111.807 43.3696 112.998 42.2861 112.998 40.8382C112.998 39.6383 112.229 39.0054 110.456 37.7372M111.134 33.2768C111.669 32.7351 111.714 31.9858 111.714 31.563C111.714 29.872 110.709 27.2419 108.78 27.2419C108.469 27.2464 108.162 27.3178 107.88 27.4514C107.599 27.585 107.348 27.7777 107.147 28.0165C106.787 28.5214 106.61 29.1351 106.644 29.7556C106.644 31.3276 107.554 33.935 109.559 33.935C110.15 33.9203 110.714 33.6859 111.144 33.2768" fill="#FBFBFB"/>
<path d="M97.4486 37.3575C93.7503 37.3575 91.7729 34.4514 91.7729 31.8238C91.7729 28.7532 94.2603 26.1306 97.8029 26.1306C98.5315 26.1143 99.256 26.2457 99.9333 26.517C100.611 26.7883 101.227 27.194 101.745 27.7099C102.264 28.2258 102.675 28.8415 102.952 29.5204C103.23 30.1993 103.37 30.9275 103.363 31.6618C103.363 34.4261 101.247 37.3575 97.4536 37.3575M100.361 35.4589C100.921 34.6995 101.062 33.7705 101.062 32.8566C101.062 30.7935 100.084 26.8546 97.1974 26.8546C96.428 26.8623 95.6864 27.1449 95.1045 27.652C94.1975 28.4722 94.0342 29.505 94.0342 30.5125C94.0342 32.8313 95.1748 36.6512 97.9888 36.6512C98.4488 36.6511 98.9024 36.5434 99.314 36.3365C99.7256 36.1295 100.084 35.8291 100.361 35.4589Z" fill="#FBFBFB"/>
<path d="M84.8386 37.3575C81.1402 37.3575 79.1604 34.4514 79.1604 31.8238C79.1604 28.7532 81.6528 26.1306 85.1903 26.1306C85.919 26.1143 86.6435 26.2457 87.3207 26.517C87.998 26.7883 88.6143 27.194 89.1329 27.7099C89.6515 28.2258 90.062 28.8415 90.3398 29.5204C90.6177 30.1993 90.7573 30.9275 90.7504 31.6618C90.7504 34.4261 88.6349 37.3575 84.8411 37.3575M87.7505 35.4589C88.3083 34.6995 88.4465 33.7705 88.4465 32.8566C88.4465 30.7935 87.4691 26.8546 84.5848 26.8546C83.8155 26.8623 83.0738 27.1449 82.4919 27.652C81.5849 28.4722 81.4216 29.505 81.4216 30.5125C81.4216 32.8313 82.5598 36.6512 85.3762 36.6512C85.8366 36.6511 86.2906 36.5434 86.7026 36.3365C87.1146 36.1296 87.4733 35.8292 87.7505 35.4589Z" fill="#FBFBFB"/>
<path d="M77.3841 36.9905L74.04 37.7676C72.7659 38.0021 71.4756 38.1358 70.1808 38.1676C63.7238 38.1676 61.2666 33.3832 61.2666 29.6367C61.2666 25.0649 64.7539 20.8223 70.7185 20.8223C71.9282 20.8287 73.1316 20.999 74.2963 21.3285C75.407 21.6119 76.4546 22.104 77.3841 22.7791L75.4419 24.6396L74.6204 24.8295L75.2058 23.8853C74.4118 23.1081 72.9596 21.6703 70.2009 21.6703C66.5051 21.6703 63.7213 24.5004 63.7213 28.6241C63.7213 33.0541 66.9021 37.2309 71.9999 37.2309C73.0215 37.2563 74.0363 37.0549 74.9721 36.6411V32.844L71.4396 33.0313L73.3114 32.0187H78.2685L77.663 32.606C77.6 32.6492 77.5466 32.705 77.506 32.7699C77.4653 32.8348 77.4384 32.9074 77.4268 32.9832C77.4042 33.1959 77.3816 33.8819 77.3816 34.1148L77.3841 36.9905Z" fill="#FBFBFB"/>
<path d="M119.513 36.3221C118.739 36.2512 118.578 36.1095 118.578 35.188V21.8399C118.578 21.7892 118.578 21.7386 118.591 21.688C118.686 20.8653 118.92 20.7235 119.646 20.2982H116.299L114.541 21.1462H116.327V35.6994C116.327 36.1677 116.237 36.2411 115.697 36.9474H119.845L120.711 36.4411C120.314 36.3905 119.915 36.3677 119.518 36.3221" fill="#FBFBFB"/>
<path d="M129.03 36.5272C128.779 36.669 128.528 36.8335 128.277 36.95C127.563 37.2586 126.792 37.4096 126.015 37.393C124.914 37.443 123.826 37.1224 122.925 36.4817C121.277 35.3096 120.558 33.2971 120.558 31.5428C120.558 27.9153 123.483 26.1357 125.877 26.1357C126.72 26.1251 127.55 26.3522 128.272 26.7914C129.083 27.3296 129.663 28.1569 129.895 29.1076L124.438 31.3327L122.649 31.472C123.227 34.4439 125.227 36.1753 127.422 36.1753C128.608 36.1753 129.468 35.7551 130.256 35.3577L129.03 36.5272ZM126.847 29.5532C127.289 29.3886 127.52 29.2468 127.52 28.9203C127.52 27.9862 126.475 26.8952 125.221 26.8952C124.289 26.8952 122.548 27.6217 122.548 30.148C122.548 30.5455 122.596 30.9682 122.621 31.391L126.847 29.5532Z" fill="#FBFBFB"/>
<path d="M131.274 26.2952V27.8419H131.086V26.2952H130.581V26.1357H131.779V26.2952H131.274Z" fill="#FBFBFB"/>
<path d="M133.362 27.8419V26.2826H133.354L132.882 27.8419H132.736L132.259 26.2826H132.254V27.8419H132.085V26.1357H132.374L132.807 27.5128H132.812L133.236 26.1357H133.53V27.8419H133.362Z" fill="#FBFBFB"/>
<path d="M65.9146 16.2328H64.7513C64.6821 15.7679 64.5711 15.3104 64.4197 14.8658H62.7413C62.5834 15.3091 62.469 15.767 62.3996 16.2328H61.3042C61.3042 16.1399 61.5864 15.3594 62.1509 13.8912C62.7154 12.423 62.9984 11.6155 63.0001 11.4686H64.3719C64.3719 11.607 64.6282 12.4027 65.1407 13.8558C65.6533 15.3088 65.9095 16.1011 65.9095 16.2328M64.2312 14.1671C63.9894 13.4972 63.7815 12.8154 63.6081 12.1243H63.5654C63.3852 12.8157 63.1705 13.4975 62.9222 14.1671H64.2312Z" fill="#FCFCFD"/>
<path d="M70.6004 16.2328H69.7035C69.7035 16.1333 69.3685 15.605 68.6985 14.6482C68.0025 13.6356 67.603 12.9521 67.5076 12.5825H67.4498C67.5068 13.0631 67.537 13.5465 67.5402 14.0305C67.5402 14.633 67.557 15.3671 67.5905 16.2328H66.696C66.7329 15.4785 66.7513 14.6482 66.7513 13.7419C66.7513 12.8357 66.7329 12.0762 66.696 11.4636H67.7764C67.7764 11.5919 68.0754 12.1083 68.6734 13.0129C69.3098 13.9697 69.675 14.6195 69.7688 14.962H69.8241C69.77 14.4762 69.7415 13.9878 69.7386 13.4989C69.7386 12.839 69.7211 12.164 69.6859 11.4737H70.6004C70.5652 12.0788 70.5477 12.8382 70.5477 13.752C70.5477 14.6659 70.5652 15.4987 70.6004 16.2429" fill="#FCFCFD"/>
<path d="M75.8615 13.6862C75.8711 14.3526 75.6357 14.9991 75.2007 15.5012C74.9701 15.7629 74.6838 15.9686 74.3631 16.1032C74.0425 16.2378 73.6959 16.2976 73.3491 16.2783C72.9889 16.2783 72.4948 16.2632 71.8667 16.2328C71.8968 15.4961 71.9144 14.6658 71.9144 13.7419C71.9144 12.8179 71.8968 12.0964 71.8667 11.4636H72.5024C72.6054 11.4636 72.7536 11.4636 72.9672 11.4636L73.3691 11.4509C74.2435 11.4509 74.8775 11.6712 75.2711 12.1116C75.6614 12.5426 75.8727 13.108 75.8615 13.6912M74.8691 13.8507C74.8826 13.4188 74.7377 12.997 74.4621 12.666C74.3041 12.4974 74.1106 12.3666 73.8958 12.2833C73.681 12.2001 73.4503 12.1665 73.2209 12.185C73.0772 12.1875 72.9337 12.1985 72.7913 12.2179C72.8164 12.704 72.829 13.2153 72.829 13.7368C72.829 14.319 72.8415 14.8987 72.8641 15.4708C73.0195 15.5031 73.1778 15.5192 73.3365 15.5189C73.5542 15.5361 73.7728 15.5007 73.9742 15.4157C74.1757 15.3307 74.3541 15.1986 74.4947 15.0304C74.749 14.6876 74.881 14.2684 74.8691 13.8406" fill="#FCFCFD"/>
<path d="M80.7154 16.2327H79.6451C79.4933 15.6765 79.2765 15.1403 78.9994 14.6354C78.9118 14.5294 78.7999 14.4464 78.6735 14.3935C78.547 14.3406 78.4097 14.3194 78.2733 14.3317H77.8688C77.8688 14.9594 77.8688 15.5974 77.9015 16.2302H76.8965C76.9283 15.4927 76.9442 14.6624 76.9442 13.7393C76.9442 12.8516 76.9283 12.0922 76.8965 11.461H77.5246H77.9819C78.213 11.461 78.4266 11.4484 78.6225 11.4484C79.7331 11.4484 80.2883 11.8323 80.2883 12.6002C80.2883 13.2052 79.9717 13.6304 79.3386 13.8659V13.9216C79.6189 14.0217 79.8495 14.2278 79.9818 14.4962C80.2753 15.0555 80.5272 15.6359 80.7355 16.2327M79.3738 12.866C79.3738 12.3816 79.0639 12.1394 78.4442 12.1394C78.242 12.1376 78.0402 12.1545 77.8412 12.1901C77.8663 12.5673 77.8814 13.0609 77.8814 13.6684H78.218C78.9902 13.6684 79.3755 13.3984 79.3738 12.8584" fill="#FCFCFD"/>
<path d="M85.9263 13.7646C85.9499 14.4512 85.7044 15.1196 85.2429 15.6252C85.0307 15.8634 84.7701 16.0527 84.4787 16.1803C84.1874 16.3078 83.8721 16.3706 83.5545 16.3644C83.2546 16.3713 82.9567 16.3144 82.6801 16.1975C82.4035 16.0806 82.1544 15.9063 81.9491 15.686C81.7337 15.4559 81.5657 15.1851 81.4549 14.8892C81.344 14.5933 81.2925 14.2782 81.3034 13.9621C81.2794 13.2747 81.5249 12.6054 81.9868 12.099C82.1978 11.8621 82.4569 11.6735 82.7464 11.546C83.0359 11.4185 83.3492 11.355 83.6651 11.3598C83.9647 11.3531 84.2624 11.4098 84.539 11.5262C84.8155 11.6426 85.0647 11.8162 85.2706 12.0357C85.488 12.2658 85.658 12.5371 85.7705 12.8339C85.8831 13.1307 85.936 13.4471 85.9263 13.7646ZM84.9213 13.8684C84.9415 13.4219 84.8044 12.9826 84.5344 12.628C84.4217 12.4795 84.2764 12.3593 84.1099 12.2767C83.9434 12.1942 83.7602 12.1515 83.5746 12.1521C83.397 12.1536 83.2224 12.198 83.0654 12.2818C82.9084 12.3655 82.7737 12.486 82.6727 12.6331C82.4167 12.9834 82.2865 13.411 82.3033 13.8456C82.2843 14.2916 82.4222 14.73 82.6928 15.0835C82.8045 15.2323 82.9487 15.3531 83.1143 15.4365C83.2799 15.5199 83.4624 15.5637 83.6475 15.5645C83.8251 15.5632 83.9999 15.5189 84.1569 15.4351C84.3139 15.3514 84.4485 15.2308 84.5495 15.0835C84.8067 14.7327 84.9378 14.3042 84.9213 13.8684Z" fill="#FCFCFD"/>
<path d="M87.9766 16.2328H86.949C86.9791 15.4734 86.9967 14.6482 86.9967 13.7419C86.9967 12.8357 86.9791 12.0939 86.949 11.4636H87.9766C87.9431 12.0796 87.9272 12.839 87.9288 13.7419C87.9305 14.6448 87.9464 15.4751 87.9766 16.2328Z" fill="#FCFCFD"/>
<path d="M93.2402 13.6862C93.2497 14.3526 93.0144 14.9991 92.5794 15.5012C92.3489 15.763 92.0626 15.9689 91.7419 16.1035C91.4213 16.238 91.0745 16.2978 90.7277 16.2783C90.3693 16.2783 89.8752 16.2632 89.2454 16.2328C89.2755 15.4961 89.2931 14.6658 89.2931 13.7419C89.2931 12.8179 89.2755 12.0964 89.2454 11.4636H89.881C89.984 11.4636 90.1323 11.4636 90.3458 11.4636L90.7478 11.4509C91.6222 11.4509 92.2561 11.6712 92.6498 12.1116C93.04 12.5426 93.2514 13.108 93.2402 13.6912M92.2478 13.8507C92.2625 13.4186 92.1175 12.9964 91.8407 12.666C91.683 12.4971 91.4895 12.3661 91.2746 12.2828C91.0598 12.1996 90.829 12.1661 90.5996 12.185C90.4567 12.1875 90.3141 12.1985 90.1725 12.2179C90.1951 12.704 90.2076 13.2153 90.2076 13.7368C90.2076 14.319 90.2076 14.8987 90.2453 15.4708C90.3999 15.5031 90.5573 15.5192 90.7152 15.5189C90.9329 15.5363 91.1516 15.501 91.353 15.416C91.5545 15.331 91.7329 15.1988 91.8734 15.0304C92.1288 14.6882 92.2608 14.2685 92.2478 13.8406" fill="#FCFCFD"/>
<path d="M100.225 16.2328H99.0615C98.9924 15.7681 98.8822 15.3107 98.7323 14.8658H97.054C96.8948 15.3087 96.7803 15.7667 96.7123 16.2328H95.6194C95.6194 16.1399 95.9016 15.3594 96.4661 13.8912C97.0306 12.423 97.3136 11.6155 97.3153 11.4686H98.6871C98.6871 11.607 98.9434 12.4027 99.4559 13.8558C99.9685 15.3088 100.225 16.1011 100.225 16.2328ZM98.5464 14.1671C98.3046 13.4974 98.0975 12.8156 97.9258 12.1243H97.8655C97.8655 12.2205 97.652 12.8989 97.2249 14.1671H98.5464Z" fill="#FCFCFD"/>
<path d="M104.461 12.7166C104.477 12.9704 104.427 13.224 104.314 13.4514C104.201 13.6788 104.029 13.8717 103.818 14.0102C103.341 14.2994 102.791 14.4436 102.235 14.4253C102.122 14.4253 102.039 14.4253 101.984 14.4253C101.984 14.8861 101.997 15.4911 102.024 16.2404H101.001C101.031 15.5366 101.049 14.7063 101.049 13.7495C101.049 12.8711 101.031 12.1142 101.001 11.4712H101.632C101.722 11.4712 101.883 11.4712 102.149 11.4712C102.416 11.4712 102.624 11.4585 102.81 11.4585C103.224 11.441 103.633 11.5485 103.986 11.7674C104.142 11.8701 104.268 12.0125 104.351 12.1801C104.434 12.3477 104.472 12.5346 104.461 12.7217M103.524 12.9242C103.524 12.3994 103.18 12.1378 102.494 12.1395C102.311 12.1401 102.128 12.1587 101.948 12.1952C101.974 12.6559 101.989 13.1774 101.989 13.7621C102.049 13.7621 102.119 13.7621 102.197 13.7621C103.082 13.7621 103.524 13.4786 103.524 12.9166" fill="#FCFCFD"/>
<path d="M108.818 12.7166C108.834 12.9703 108.783 13.2237 108.67 13.451C108.557 13.6783 108.386 13.8712 108.174 14.0102C107.697 14.2991 107.148 14.4433 106.591 14.4253C106.478 14.4253 106.395 14.4253 106.34 14.4253C106.34 14.886 106.354 15.491 106.38 16.2403H105.36C105.391 15.5366 105.408 14.7063 105.408 13.7494C105.408 12.871 105.391 12.1141 105.36 11.4711H105.991C106.081 11.4711 106.242 11.4711 106.506 11.4711C106.77 11.4711 106.981 11.4585 107.169 11.4585C107.582 11.4417 107.991 11.5493 108.343 11.7673C108.498 11.8701 108.624 12.0125 108.708 12.1801C108.791 12.3477 108.829 12.5345 108.818 12.7217M107.88 12.9242C107.88 12.3993 107.536 12.1377 106.848 12.1394C106.665 12.1402 106.484 12.1588 106.305 12.1951C106.33 12.6558 106.345 13.1773 106.345 13.7621C106.406 13.7621 106.476 13.7621 106.554 13.7621C107.438 13.7621 107.88 13.4786 107.88 12.9166" fill="#FCFCFD"/>
<path d="M115.94 13.7646C115.963 14.451 115.718 15.119 115.257 15.6252C115.044 15.8641 114.783 16.0538 114.49 16.1813C114.198 16.3089 113.882 16.3714 113.564 16.3644C113.264 16.3717 112.966 16.3151 112.689 16.1982C112.412 16.0813 112.163 15.9067 111.958 15.686C111.742 15.4562 111.574 15.1855 111.463 14.8895C111.352 14.5935 111.301 14.2782 111.312 13.9621C111.289 13.2752 111.533 12.6062 111.993 12.099C112.206 11.8608 112.467 11.6716 112.759 11.5441C113.051 11.4165 113.366 11.3537 113.684 11.3598C113.984 11.3531 114.281 11.4098 114.558 11.5262C114.835 11.6426 115.084 11.8162 115.29 12.0357C115.505 12.2666 115.673 12.5383 115.784 12.835C115.895 13.1318 115.946 13.4478 115.935 13.7646M114.93 13.8684C114.95 13.4216 114.812 12.9823 114.541 12.628C114.429 12.4794 114.284 12.3591 114.118 12.2765C113.952 12.1939 113.769 12.1513 113.584 12.1521C113.406 12.1534 113.231 12.1977 113.074 12.2815C112.917 12.3652 112.783 12.4858 112.682 12.6331C112.426 12.9834 112.295 13.411 112.312 13.8456C112.292 14.2918 112.43 14.7306 112.702 15.0835C112.815 15.2336 112.96 15.3552 113.128 15.4387C113.295 15.5222 113.48 15.5653 113.667 15.5645C113.844 15.5632 114.018 15.5189 114.175 15.4351C114.331 15.3514 114.466 15.2307 114.566 15.0835C114.823 14.7347 114.954 14.3077 114.938 13.8735" fill="#FCFCFD"/>
<path d="M120.862 16.2328H119.965C119.965 16.1333 119.63 15.605 118.96 14.6482C118.262 13.6356 117.865 12.947 117.769 12.5825H117.709C117.767 13.063 117.798 13.5465 117.802 14.0305C117.802 14.633 117.817 15.3671 117.852 16.2328H116.958C116.995 15.4785 117.013 14.6482 117.013 13.7419C117.013 12.8357 116.995 12.0762 116.958 11.4636H118.036C118.036 11.5927 118.337 12.1091 118.935 13.0129C119.57 13.9697 119.935 14.6195 120.031 14.962H120.096C120.041 14.4762 120.012 13.9878 120.008 13.4989C120.008 12.8382 119.993 12.1598 119.958 11.4737H120.865C120.832 12.0788 120.814 12.8382 120.814 13.752C120.814 14.6659 120.832 15.4987 120.865 16.2429" fill="#FCFCFD"/>
</g>
<defs>
<linearGradient id="paint0_linear_1_2862" x1="32.3667" y1="10.6997" x2="32.3667" y2="49.2988" gradientUnits="userSpaceOnUse">
<stop stop-color="#2079B0"/>
<stop offset="0.32" stop-color="#4A98B5"/>
<stop offset="0.78" stop-color="#81BFBC"/>
<stop offset="1" stop-color="#97CFBF"/>
</linearGradient>
<linearGradient id="paint1_linear_1_2862" x1="21.9321" y1="21.6375" x2="46.4387" y2="21.6375" gradientUnits="userSpaceOnUse">
<stop stop-color="#5ABCAB"/>
<stop offset="1" stop-color="#E6E99A"/>
</linearGradient>
<linearGradient id="paint2_linear_1_2862" x1="32.0018" y1="30.7529" x2="32.0018" y2="50.1917" gradientUnits="userSpaceOnUse">
<stop stop-color="#E53432"/>
<stop offset="0.18" stop-color="#D43745"/>
<stop offset="0.73" stop-color="#A33E7C"/>
<stop offset="1" stop-color="#904192"/>
</linearGradient>
<linearGradient id="paint3_linear_1_2862" x1="51.5064" y1="23.8518" x2="51.5064" y2="34.2205" gradientUnits="userSpaceOnUse">
<stop stop-color="#F18779"/>
<stop offset="0.64" stop-color="#F9B574"/>
<stop offset="1" stop-color="#FDCB72"/>
</linearGradient>
<clipPath id="clip0_1_2862">
<rect width="198" height="57" fill="white" transform="translate(0 0.122803)"/>
</clipPath>
</defs>
</svg>
