<svg width="507" height="380" viewBox="0 0 507 380" fill="none" xmlns="http://www.w3.org/2000/svg">
<g opacity="0.57">
<path opacity="0.25" d="M506.6 141.356C502.259 99.4967 462.71 65.6009 412.155 60.3919C409.244 60.0924 406.462 58.8007 404.37 56.7765C379.516 32.7278 340.823 16.4409 296.702 15.7787C244.872 14.9995 198.599 35.8213 173.561 68.7062C171.483 71.437 168.085 73.3793 164.06 74.1421C118.803 82.7231 85.6634 113.036 88.3357 148.334C71.2673 166.736 61.6684 188.84 62.808 212.175C65.5786 268.931 128.8 308.197 202.374 306.093C206.263 305.981 209.874 307.069 212.492 309.126C242.501 332.716 286.672 343.345 332.533 335.742C379.968 327.879 417.945 302.237 437.173 270.784C438.71 268.266 441.158 266.345 444.001 265.404C474.621 255.272 495.335 229.309 493.575 201.622C493.412 199.033 493.054 196.501 492.525 194.033C503.24 178.518 508.561 160.287 506.6 141.356Z" fill="#8FA5F5"/>
<path d="M50.6131 121.018C50.6131 121.018 39.0064 92.5983 0 114.146C0 114.146 36.5283 143.609 50.6131 121.018Z" fill="#AAB9F4"/>
<path d="M75.7771 133.486C75.7771 133.486 47.6378 119.277 32.5 155.188C32.5 155.19 77.3262 164.967 75.7771 133.486Z" fill="#AAB9F4"/>
<path d="M75.7766 133.486C75.7766 133.486 47.2255 120.091 66.7744 87.3306C66.7744 87.3306 101.351 115.734 75.7766 133.486Z" fill="#AAB9F4"/>
<path d="M121.623 161.742C121.623 161.742 94.3286 148.039 79.7734 184.073C79.7711 184.073 123.214 193.092 121.623 161.742Z" fill="#AAB9F4"/>
<path d="M121.624 161.742C121.624 161.742 93.9337 148.858 112.773 115.886C112.771 115.886 146.344 143.632 121.624 161.742Z" fill="#AAB9F4"/>
<path d="M160.104 192.243C160.104 192.243 133.081 171.994 110.008 209.573C110.005 209.573 155.744 227.606 160.104 192.243Z" fill="#AAB9F4"/>
<path d="M160.105 192.243C160.105 192.243 132.488 172.829 159.368 139.804C159.366 139.804 190.393 176.632 160.105 192.243Z" fill="#AAB9F4"/>
<path d="M203.92 233.605C203.92 233.605 176.867 208.951 148.248 248.818C148.248 248.818 195.798 272.577 203.92 233.605Z" fill="#AAB9F4"/>
<path d="M203.92 233.606C203.92 233.606 176.145 209.828 208.183 175.591C208.181 175.591 237.848 218.791 203.92 233.606Z" fill="#AAB9F4"/>
<path d="M238.065 272.736C238.065 272.736 208.681 246.09 177.631 291.159C177.631 291.157 229.37 316.184 238.065 272.736Z" fill="#AAB9F4"/>
<path d="M238.065 272.736C238.065 272.736 207.899 247.082 242.528 208.361C242.528 208.361 274.659 255.445 238.065 272.736Z" fill="#AAB9F4"/>
<path d="M266.189 306.917C241.152 269.935 210.778 235.639 176.129 204.177C147.021 177.898 113.905 153.632 76.6344 134.022C68.1189 129.576 58.3936 124.996 49.3984 120.992C58.3304 125.198 67.9083 129.967 76.3232 134.588C83.9798 138.849 92.2098 143.757 99.45 148.278C107.895 153.763 117.045 159.863 124.947 165.744C161.962 192.877 193.942 224.217 221.688 257.214C232.536 270.164 242.788 283.432 252.314 297.089C255.45 301.598 258.558 306.185 261.422 310.764L266.189 306.917Z" fill="#AAB9F4"/>
<path d="M420.87 60.9656C420.87 60.9656 434.798 46.5298 412.614 24.1565C412.612 24.1565 403.778 55.9439 420.87 60.9656Z" fill="#AAB9F4"/>
<path d="M419.633 82.0966C419.633 82.0966 421.176 58.4526 395.746 55.6399C395.744 55.6399 400.571 90.7876 419.633 82.0966Z" fill="#AAB9F4"/>
<path d="M419.633 82.0967C419.633 82.0967 420.585 58.3405 444.948 64.9511C444.945 64.9511 436.987 96.8064 419.633 82.0967Z" fill="#AAB9F4"/>
<path d="M413.774 123.871C413.774 123.871 415.377 99.4432 389.119 97.3208C389.119 97.3208 394.089 133.428 413.774 123.871Z" fill="#AAB9F4"/>
<path d="M413.771 123.871C413.771 123.871 414.766 99.3472 439.894 105.415C439.894 105.415 431.671 138.494 413.771 123.871Z" fill="#AAB9F4"/>
<path d="M404.106 163.055C404.106 163.055 410.207 135.599 380.048 127.341C380.05 127.344 379.437 169.659 404.106 163.055Z" fill="#AAB9F4"/>
<path d="M404.104 163.055C404.104 163.055 409.516 135.351 437.58 147.8C437.58 147.8 422.41 183.709 404.104 163.055Z" fill="#AAB9F4"/>
<path d="M387.77 212.898C387.77 212.898 397.418 181.925 363.127 169.579C363.125 169.579 358.356 218.25 387.77 212.898Z" fill="#AAB9F4"/>
<path d="M387.77 212.898C387.77 212.898 396.641 181.577 427.983 198.472C427.981 198.474 407.134 238.358 387.77 212.898Z" fill="#AAB9F4"/>
<path d="M369.127 257.02C369.127 257.02 380.352 221.147 340.557 208.031C340.559 208.034 334.901 264.23 369.127 257.02Z" fill="#AAB9F4"/>
<path d="M369.127 257.02C369.127 257.02 379.454 220.775 415.591 239.105C415.593 239.105 391.51 285.534 369.127 257.02Z" fill="#AAB9F4"/>
<path d="M351.275 296.53C371.966 258.93 388.173 219.626 400.411 179.883C410.031 148.36 416.89 115.784 419.523 82.8547C420.084 75.5654 420.419 67.4524 420.585 60.0906C420.281 67.4547 419.794 75.5022 419.099 82.7587C418.425 89.4466 417.489 96.7921 416.532 103.377C415.268 111.195 413.785 119.818 412.098 127.519C404.181 164.771 391.587 201.21 375.937 236.564C369.532 250.969 362.591 265.255 355.012 279.314C352.468 284.018 349.84 288.759 347.133 293.294L351.275 296.53Z" fill="#AAB9F4"/>
<path d="M177.1 135.793L177.636 112.847C177.749 108.043 176.476 102.82 173.995 98.0998C171.276 92.9306 167.267 87.0617 162.557 85.6249C159.218 84.607 157.177 86.7388 155.935 89.8042C153.461 95.9024 154.706 104.5 158.881 111.745C163.205 119.249 169.926 129.609 177.1 135.793Z" fill="#BCC7F3"/>
<path d="M185.646 157.093L195.06 142.184C197.019 139.081 198.205 135.141 198.374 131.043C198.559 126.571 198.149 121.138 195.55 118.299C193.71 116.292 191.52 116.839 189.493 118.313C185.462 121.245 182.925 127.313 182.873 133.73C182.82 140.413 183.248 150.005 185.646 157.093Z" fill="#BCC7F3"/>
<path d="M185.646 157.093L168.48 152.97C164.831 152.094 161.162 150.033 158.139 147.115C154.825 143.914 151.278 139.554 151.287 135.581C151.292 132.78 153.384 131.654 155.988 131.343C161.127 130.727 167.258 133.47 171.725 138.157C176.349 143.008 182.574 150.279 185.646 157.093Z" fill="#BCC7F3"/>
<path d="M200.936 190.497L211.928 172.628C214.212 168.915 215.59 164.23 215.782 159.384C215.992 154.093 215.506 147.676 212.466 144.372C210.315 142.034 207.755 142.722 205.387 144.503C200.674 148.051 197.709 155.286 197.658 162.887C197.604 170.803 198.117 182.157 200.936 190.497Z" fill="#BCC7F3"/>
<path d="M200.937 190.497L180.791 186.023C176.502 185.071 172.18 182.709 168.619 179.312C164.713 175.584 160.524 170.483 160.531 165.758C160.536 162.428 163.002 161.048 166.073 160.622C172.124 159.784 179.338 162.908 184.592 168.372C190.025 174.023 197.331 182.499 200.937 190.497Z" fill="#BCC7F3"/>
<path d="M220.817 226.225L230.06 207.228C231.984 203.276 232.936 198.462 232.716 193.623C232.475 188.337 231.457 182.012 228.198 179.075C225.89 176.997 223.438 177.982 221.269 180.03C216.949 184.109 214.663 191.653 215.26 199.214C215.88 207.081 217.349 218.287 220.817 226.225Z" fill="#BCC7F3"/>
<path d="M220.816 226.225L200.727 224.133C196.447 223.688 192.015 221.849 188.235 218.896C184.089 215.655 179.544 211.078 179.137 206.388C178.852 203.08 181.147 201.42 184.117 200.641C189.974 199.104 197.313 201.369 202.926 206.185C208.732 211.16 216.606 218.716 220.816 226.225Z" fill="#BCC7F3"/>
<path d="M243.709 263.474L253.619 240.451C255.678 235.665 256.582 229.937 256.123 224.26C255.622 218.059 254.178 210.685 250.277 207.453C247.516 205.165 244.713 206.489 242.284 209.052C237.44 214.155 235.104 223.204 236.118 232.073C237.171 241.295 239.352 254.386 243.709 263.474Z" fill="#BCC7F3"/>
<path d="M243.71 263.474L220.27 262.505C215.262 262.3 210.011 260.46 205.471 257.252C200.484 253.728 194.969 248.65 194.293 243.132C193.815 239.238 196.431 237.111 199.876 235.976C206.658 233.741 215.323 235.892 222.071 241.171C229.038 246.619 238.51 254.947 243.71 263.474Z" fill="#BCC7F3"/>
<path d="M269.17 293.446L277.426 267.031C279.143 261.534 279.518 255.179 278.432 249.066C277.245 242.385 274.919 234.553 270.377 231.579C267.157 229.471 264.272 231.312 261.918 234.45C257.229 240.705 255.661 250.903 257.69 260.42C259.803 270.307 263.528 284.216 269.17 293.446Z" fill="#BCC7F3"/>
<path d="M269.172 293.446L243.822 295.795C238.395 296.298 232.529 295.063 227.275 292.233C221.5 289.123 214.978 284.394 213.647 278.479C212.706 274.304 215.313 271.606 218.923 269.872C226.03 266.46 235.636 267.56 243.496 272.338C251.595 277.266 262.68 284.946 269.172 293.446Z" fill="#BCC7F3"/>
<path d="M176.977 136.046C188.635 167.656 202.921 197.779 219.112 226.078C234.949 253.957 253.244 279.894 275.577 299.948L275.743 299.74C273.284 296.916 270.689 294.248 268.293 291.337C265.424 288.054 261.967 283.907 259.22 280.428C250.326 269.298 241.752 257.252 233.655 245.069C215.913 218.545 200.625 189.498 186.985 159.222C183.568 151.57 180.269 143.827 177.234 135.955L176.977 136.046Z" fill="#BCC7F3"/>
<path d="M464.467 186.664L478.657 180.954C481.596 179.772 484.413 177.39 486.599 174.205C488.977 170.737 491.415 166.113 491.036 162.107C490.767 159.28 488.981 158.248 486.847 158.064C482.595 157.692 477.789 160.818 474.503 165.907C471.066 171.231 466.449 179.267 464.467 186.664Z" fill="#BCC7F3"/>
<path d="M453.334 199.453L465.1 203.024C467.545 203.765 470.306 203.634 472.895 202.63C475.71 201.538 478.951 199.696 480.011 196.801C480.755 194.763 479.847 193.141 478.415 191.908C475.569 189.456 471.189 189.058 467.218 190.757C463.064 192.538 457.183 195.521 453.334 199.453Z" fill="#BCC7F3"/>
<path d="M453.334 199.452L451.614 184.357C451.254 181.188 451.626 177.701 452.69 174.521C453.851 171.053 455.66 167.122 458.101 166.102C459.818 165.383 461.028 166.734 461.87 168.697C463.537 172.586 463.403 178.169 461.641 182.983C459.804 188.009 456.842 195.048 453.334 199.452Z" fill="#BCC7F3"/>
<path d="M435.74 221.807L450.108 225.888C453.087 226.735 456.452 226.52 459.602 225.254C463.028 223.878 466.966 221.594 468.255 218.084C469.161 215.613 468.059 213.677 466.325 212.217C462.871 209.313 457.545 208.911 452.708 211.033C447.639 213.259 440.455 216.977 435.74 221.807Z" fill="#BCC7F3"/>
<path d="M435.739 221.807L433.661 203.571C433.226 199.742 433.687 195.518 434.995 191.655C436.42 187.445 438.639 182.667 441.622 181.399C443.719 180.507 445.193 182.122 446.218 184.48C448.244 189.151 448.071 195.895 445.916 201.738C443.667 207.846 440.038 216.41 435.739 221.807Z" fill="#BCC7F3"/>
<path d="M416.912 249.955L432.005 252.176C435.132 252.637 438.579 251.968 441.731 250.259C445.157 248.401 449.046 245.554 450.118 241.812C450.873 239.179 449.6 237.356 447.707 236.102C443.944 233.608 438.429 233.912 433.601 236.72C428.545 239.666 421.417 244.412 416.912 249.955Z" fill="#BCC7F3"/>
<path d="M416.911 249.955L413.426 231.675C412.694 227.832 412.86 223.463 413.923 219.35C415.083 214.864 417.018 209.692 420.007 207.998C422.106 206.809 423.746 208.258 424.975 210.53C427.408 215.025 427.722 221.924 425.927 228.167C424.055 234.689 420.943 243.892 416.911 249.955Z" fill="#BCC7F3"/>
<path d="M396.73 282.922L415.304 284.345C419.141 284.64 423.325 283.544 427.107 281.218C431.216 278.693 435.847 274.938 437.022 270.342C437.848 267.106 436.235 265.013 433.891 263.654C429.22 260.949 422.506 261.756 416.71 265.535C410.628 269.509 402.061 275.834 396.73 282.922Z" fill="#BCC7F3"/>
<path d="M396.73 282.922L391.797 261.056C390.76 256.458 390.807 251.146 391.97 246.075C393.236 240.548 395.433 234.127 399.044 231.848C401.578 230.247 403.642 231.881 405.231 234.539C408.372 239.795 409.001 248.116 407.024 255.815C404.955 263.85 401.464 275.244 396.73 282.922Z" fill="#BCC7F3"/>
<path d="M381.309 317.719L402.502 316.17C406.871 315.851 411.498 313.928 415.551 310.708C419.952 307.212 424.827 302.26 425.723 296.953C426.352 293.216 424.338 291.152 421.565 290.029C416.035 287.789 408.516 289.802 402.311 294.983C395.791 300.423 386.679 308.915 381.309 317.719Z" fill="#BCC7F3"/>
<path d="M381.306 317.719L373.582 294.133C371.953 289.163 371.492 283.21 372.323 277.336C373.231 270.934 375.11 263.373 379.004 260.226C381.737 258.017 384.243 259.51 386.307 262.227C390.383 267.597 391.895 276.805 390.388 285.735C388.813 295.06 385.942 308.358 381.306 317.719Z" fill="#BCC7F3"/>
<path d="M464.278 186.629C447.385 204.881 431.466 225.652 416.588 248.395C401.286 271.643 387.321 297.536 378.059 326.391L378.253 326.478C379.746 323.012 381.082 319.49 382.64 316.09C384.346 312.119 386.525 307.296 388.378 303.424C394.203 291.099 400.635 279.003 407.153 267.534C420.884 243.223 436.314 221.241 452.327 201.142C456.284 196.209 460.291 191.398 464.402 186.807L464.278 186.629Z" fill="#BCC7F3"/>
</g>
<path opacity="0.44" d="M454.055 368.21C481.63 362.021 502.855 351.973 501.462 345.768C500.069 339.562 476.586 339.549 449.011 345.739C421.436 351.928 400.211 361.976 401.604 368.181C402.997 374.386 426.48 374.399 454.055 368.21Z" fill="#8FA5F5"/>
<path d="M356.3 16.6095L235.853 0.24075C220.596 -1.83254 211.514 9.76011 212.998 24.4229L244.755 338.339C246.238 353.002 257.435 363.752 271.969 358.665L386.698 318.505C396.547 315.058 403.572 304.397 402.262 291.442L377.083 41.627C375.917 30.0999 366.686 18.0205 356.3 16.6095Z" fill="#4C2A6E"/>
<path d="M220.672 38.6084L219.918 38.578C218.474 38.5172 217.386 39.3011 217.491 40.3284L219.286 58.0777C219.389 59.105 220.643 59.9615 222.085 59.9896L222.836 60.0059L220.672 38.6084Z" fill="#2C0F67"/>
<path d="M227.249 103.627L227.066 103.632C225.321 103.674 224.003 104.72 224.129 105.972L226.898 133.327C227.024 134.579 228.543 135.515 230.281 135.417L230.462 135.408L227.249 103.627Z" fill="#2C0F67"/>
<path d="M230.686 137.595L230.506 137.604C228.767 137.705 227.454 138.8 227.581 140.052L230.349 167.407C230.475 168.659 231.989 169.546 233.723 169.389L233.904 169.373L230.686 137.595Z" fill="#2C0F67"/>
<path d="M277.1 351.018C265.594 355.139 254.932 348.643 253.695 336.407L222.12 24.2922C220.882 12.0561 230.025 3.55698 242.125 5.28862L356.29 21.6433C364.574 22.8297 371.947 31.6821 372.93 41.4051L398.022 289.437C399.005 299.16 393.555 309.309 385.679 312.131L277.1 351.018Z" fill="#2C0F67"/>
<path d="M259.194 334.616L227.867 24.9425C226.948 15.8607 233.673 9.51446 242.678 10.736L356.755 26.2201C362.968 27.0626 368.512 33.6685 369.251 40.9859L394.501 290.581C395.24 297.901 391.133 305.48 385.215 307.551L276.55 345.568C267.971 348.57 260.113 343.698 259.194 334.616Z" fill="white"/>
<path d="M326.773 54.6072C325.626 43.2719 316.442 33.1207 305.956 31.9016C295.121 30.6403 287.055 39.3383 288.272 51.3662C289.489 63.3941 299.467 73.6108 310.231 74.1701C320.647 74.7083 327.92 65.9424 326.773 54.6072Z" fill="#F61573"/>
<path d="M318.488 48.4159L316.602 44.866C316.244 44.1921 315.434 44.04 315.109 44.5876C315.109 44.5876 307.857 56.5359 307.616 56.5429C307.375 56.55 302.789 52.1623 302.789 52.1623C302.501 51.8792 302.117 51.7739 301.803 51.8932L299.704 52.7006C299.105 52.9299 299.061 53.8168 299.62 54.3433L306.799 61.1037L308.056 62.3182C308.468 62.716 309.041 62.7137 309.324 62.3159L318.479 49.4643C318.678 49.1928 318.68 48.7786 318.488 48.4159Z" fill="white"/>
<path opacity="0.73" d="M419.285 197.087L410.905 106.756C410.446 101.802 406.021 97.9454 400.979 98.1443L218.552 105.338C211.499 105.616 206.169 110.659 206.721 116.6L216.769 224.926C217.321 230.868 223.487 234.846 230.47 233.823L320.401 220.658L331.004 230.678L343.072 217.338L411.111 207.376C416.105 206.643 419.744 202.041 419.285 197.087Z" fill="#8FA5F5"/>
<path d="M282.593 163.967C283.753 178.3 273.93 191.337 260.039 193.167C245.428 195.092 231.975 183.994 230.702 168.278C229.429 152.567 240.916 139.392 255.642 138.88C269.643 138.395 281.432 149.639 282.593 163.967Z" fill="white"/>
<g opacity="0.73">
<path d="M263.97 171.125L261.006 172.003C259.276 172.513 257.463 172.686 255.656 172.506L252.502 172.192C249.684 171.912 246.9 173.29 245.341 175.798C244.436 177.259 243.968 179.021 244.117 180.867L272.966 177.785C272.823 176.03 272.144 174.469 271.117 173.266C269.332 171.179 266.566 170.358 263.97 171.125Z" fill="#8FA5F5"/>
<path d="M264.3 160.649C263.928 156.067 260.577 152.536 256.765 152.761C252.902 152.99 250.037 156.984 250.419 161.681C250.8 166.377 254.271 169.902 258.125 169.555C261.927 169.218 264.672 165.231 264.3 160.649Z" fill="#8FA5F5"/>
</g>
<path d="M304.373 142.706L297.879 141.922H297.874L294.425 135.377L294.418 135.363L292.001 142.158L291.999 142.168L285.383 143.534L285.357 143.539L290.646 148.558L290.66 148.575L290.11 156.058L290.108 156.063L295.761 152.192H295.764L301.838 155.265L301.836 155.253L300.163 148.074L300.161 148.062L304.375 142.706H304.373Z" fill="#FFF000"/>
<path d="M326.6 142.048L320.653 141.292L320.649 141.29L317.473 135.028L317.466 135.016L315.278 141.51L315.276 141.519L309.236 142.818L309.213 142.823L314.059 147.627L314.073 147.641L313.596 154.792V154.797L318.751 151.109L324.32 154.062L324.318 154.05L322.762 147.178L322.759 147.168L326.602 142.048H326.6Z" fill="#FFF000"/>
<path d="M346.965 141.11L341.499 140.373H341.494L338.558 134.368L338.551 134.357L336.564 140.574L336.562 140.581L331.027 141.814L331.004 141.819L335.466 146.429L335.478 146.443L335.064 153.288V153.292L339.784 149.775L344.909 152.619L344.906 152.607L343.455 146.017L343.453 146.008L346.968 141.11H346.965Z" fill="#FFF000"/>
<path d="M365.72 140.244L360.675 139.528H360.67L357.946 133.76L357.942 133.748L356.131 139.713L356.128 139.72L351.036 140.892L351.018 140.897L355.138 145.327L355.15 145.341L354.79 151.905V151.909L359.124 148.547L359.126 148.549L363.857 151.289L363.855 151.28L362.498 144.95L362.496 144.941L365.722 140.244H365.72Z" fill="#FFF000"/>
<path d="M380.051 143.651L380.049 143.642L383.021 139.135H383.018L378.352 138.435L378.348 138.433L375.811 132.885L375.806 132.873L374.15 138.601L374.147 138.608L369.448 139.722L369.43 139.727L373.251 143.993L373.26 144.004L372.947 150.313V150.316L376.944 147.1L381.329 149.749L381.327 149.74L380.051 143.651Z" fill="#FFF000"/>
<path d="M319.416 169.815C320.373 169.719 321.326 169.623 322.276 169.527C324.527 169.3 326.757 169.076 328.968 168.854C331.629 168.584 334.259 168.32 336.864 168.058C339.082 167.833 341.279 167.613 343.458 167.393C344.516 167.286 345.573 167.215 346.619 167.075C346.633 167.073 346.65 167.073 346.664 167.07C347.539 166.981 348.297 165.94 348.166 164.822C348.035 163.698 347.265 162.809 346.325 162.896C345.466 162.975 344.602 163.055 343.739 163.134C341.661 163.326 339.564 163.518 337.451 163.712C334.856 163.951 332.233 164.192 329.581 164.435C327.276 164.648 324.948 164.861 322.599 165.077C321.443 165.182 320.275 165.255 319.112 165.397C319.096 165.4 319.079 165.4 319.063 165.402C318.08 165.493 317.217 166.6 317.359 167.791C317.497 168.987 318.363 169.923 319.416 169.815Z" fill="white"/>
<path d="M294.896 172.288C296.733 172.104 298.556 171.919 300.364 171.736C303.226 171.448 306.055 171.163 308.856 170.88C309.498 170.814 310.136 170.751 310.773 170.686C311.786 170.583 312.671 169.457 312.526 168.252C312.381 167.044 311.496 166.092 310.41 166.193C308.669 166.352 306.919 166.513 305.154 166.677C302.316 166.939 299.447 167.201 296.545 167.468C295.871 167.529 295.198 167.592 294.521 167.655C293.438 167.756 292.483 168.921 292.635 170.171C292.787 171.427 293.735 172.405 294.896 172.288Z" fill="white"/>
<path d="M296.18 188.143C297.38 187.986 298.574 187.829 299.762 187.672C302.58 187.303 305.367 186.937 308.123 186.575C311.418 186.142 314.671 185.716 317.884 185.292C320.64 184.93 323.367 184.572 326.065 184.218C327.359 184.048 328.655 183.916 329.933 183.711C329.951 183.708 329.97 183.706 329.989 183.704C330.93 183.579 331.746 182.47 331.611 181.31C331.472 180.144 330.649 179.248 329.638 179.37C328.582 179.498 327.522 179.629 326.458 179.758C323.895 180.072 321.31 180.388 318.693 180.708C315.495 181.099 312.254 181.497 308.973 181.897C306.087 182.25 303.169 182.608 300.219 182.969C298.777 183.144 297.322 183.282 295.868 183.502C295.847 183.505 295.826 183.507 295.805 183.509C294.727 183.64 293.774 184.838 293.926 186.088C294.078 187.34 295.024 188.292 296.18 188.143Z" fill="white"/>
<path d="M363.257 175.256C362.457 175.354 361.652 175.453 360.847 175.551C358.912 175.787 356.958 176.026 354.99 176.267C352.575 176.562 350.132 176.861 347.666 177.163C345.522 177.425 343.358 177.69 341.177 177.957C340.102 178.088 339.017 178.186 337.938 178.352C337.922 178.354 337.907 178.357 337.891 178.357C336.978 178.469 336.178 179.559 336.314 180.708C336.45 181.862 337.257 182.747 338.235 182.618C339.124 182.501 340.009 182.384 340.891 182.269C342.983 181.995 345.056 181.722 347.111 181.453C349.584 181.127 352.034 180.807 354.456 180.488C356.523 180.217 358.57 179.948 360.599 179.681C361.584 179.552 362.572 179.457 363.545 179.295C363.559 179.293 363.573 179.29 363.587 179.29C364.404 179.183 365.108 178.155 364.982 177.074C364.853 175.991 364.133 175.148 363.257 175.256Z" fill="white"/>
<path d="M380.889 159.716C380.044 159.793 379.197 159.872 378.345 159.95C376.3 160.137 374.236 160.329 372.151 160.518C369.605 160.752 367.029 160.989 364.424 161.23C362.138 161.44 359.829 161.653 357.496 161.866C356.358 161.971 355.207 162.039 354.06 162.182C354.044 162.184 354.028 162.184 354.009 162.187C353.157 162.264 352.415 163.289 352.546 164.398C352.677 165.512 353.431 166.387 354.344 166.296C355.289 166.2 356.232 166.106 357.17 166.01C359.398 165.786 361.602 165.563 363.786 165.343C366.399 165.079 368.983 164.819 371.538 164.562C373.733 164.34 375.91 164.122 378.062 163.904C379.097 163.799 380.133 163.731 381.156 163.593C381.17 163.591 381.186 163.591 381.2 163.588C381.954 163.514 382.6 162.552 382.48 161.513C382.363 160.471 381.696 159.641 380.889 159.716Z" fill="white"/>
<path d="M487.712 159.95C487.712 159.95 488.084 169.752 487.419 177.853C486.755 185.955 472.895 178.087 472.895 178.087L473.248 158.276L487.712 159.95Z" fill="#F3A68C"/>
<path d="M436.081 157.839C436.081 157.839 430.245 171.168 428.692 172.761C427.77 173.709 421.412 171.537 413.484 168.229C409.405 166.53 405.387 164.763 402.434 163.443C399.626 162.191 397.786 161.342 397.786 161.342C397.786 161.342 396.123 161.55 394.618 161.192C394.024 161.052 393.455 160.825 393.022 160.462C392.732 160.216 392.381 159.91 391.988 159.559C390.322 158.077 387.904 155.866 386.166 154.684C385.148 153.992 384.865 152.379 384.944 150.825C384.975 150.21 385.066 149.604 385.19 149.07C385.459 147.907 385.894 147.079 386.255 147.222C385.899 146.964 384.86 146.204 383.72 145.303C382.562 144.39 381.305 143.333 380.547 142.509C380.201 142.135 379.96 141.809 379.88 141.566C379.609 140.742 380.468 140.782 382.836 141.856C383.381 142.102 384.008 142.406 384.72 142.764C386.002 143.412 387.56 144.245 389.421 145.277C389.851 145.516 390.296 145.724 390.748 145.916C390.748 145.918 390.748 145.918 390.748 145.918C390.879 145.975 391.01 146.028 391.138 146.082C391.7 146.314 392.795 146.978 394.676 148.886C395.35 149.567 396.123 150.404 397.005 151.436C397.559 152.08 398.154 152.801 398.795 153.605C398.795 153.605 402.909 154.551 407.954 156.004C412.908 157.427 418.859 157.534 422.6 159.526L429.761 149.007L436.081 157.839Z" fill="#F3A68C"/>
<path d="M449.624 94.7928C449.624 94.7928 448.649 99.6765 448.155 102.34C447.661 105.003 445.695 108.138 447.296 113.24C450.039 121.975 449.985 125.092 453.132 123.365L453.055 127.837L465.064 128.92L464.72 123.124C464.72 123.122 471.455 94.7296 449.624 94.7928Z" fill="#F3A68C"/>
<path d="M467.786 126.295C467.786 126.295 454.52 125.172 452.238 126.023L451.723 127.797C451.723 127.797 441.02 128.502 437.409 131.111C434.309 133.352 426.051 148.647 423.783 152.92C423.432 153.58 423.549 154.387 424.066 154.925L434.082 165.297C434.547 165.779 435.345 165.678 435.678 165.095L437.772 161.41C437.772 161.41 440.461 185.959 452.901 187.958C459.303 188.987 463.143 188.138 463.143 188.138C463.143 188.138 479.612 188.873 480.448 166.612L481.917 159.065L480.691 165.503C480.691 165.503 491.472 160.345 491.542 156.337C491.542 156.337 490.175 145.27 486.232 136.732C484.737 133.495 481.772 131.181 478.269 130.516L467.751 128.523L467.786 126.295Z" fill="#F61573"/>
<path d="M450.463 97.9262C450.463 97.9262 446.089 93.3233 449.728 88.9685C453.369 84.6136 465.432 82.5965 471.525 90.7235C477.619 98.8482 477.172 110.296 475.777 115.077C473.646 122.389 475.192 123.084 475.574 126.655C475.826 129.021 476.163 131.733 474.56 137.876C472.33 146.422 468.769 146.358 466.855 153.898C465.556 159.018 459.54 151.937 455.812 146.864C452.166 141.903 451.408 135.313 454.073 129.765C454.167 129.571 454.265 129.374 454.368 129.178C454.368 129.178 456.673 124.764 455.016 117.606L453.126 111.112C453.126 111.112 457.024 104.722 453.921 103.776C453.921 103.776 451.703 103.292 450.757 106.395C450.76 106.395 449.917 103.709 450.463 97.9262Z" fill="#2C0F6A"/>
<path d="M451.421 335.932L451.232 346.743L443.928 346.614L443.428 334.455L451.421 335.932Z" fill="#F3A68C"/>
<path d="M476.371 335.922L476.181 346.733L468.878 346.604L468.377 334.446L476.371 335.922Z" fill="#F3A68C"/>
<path d="M473.86 186.542C473.86 186.542 475.657 191.585 478.713 201.996C484.816 222.78 481.233 274.43 481.233 274.43L477.901 337.63L467.289 337.445L458.081 222.794L453.178 337.42L441.366 336.989C441.366 336.989 431.491 263.558 435.188 219.942C435.96 210.839 439.608 198.846 443.717 190.689C444.218 189.694 445.234 187.141 445.802 186.048L473.86 186.542Z" fill="#4C2A6E"/>
<path d="M476.427 345.584C474.457 345.867 469.828 346.375 467.429 345.339C466.975 345.142 466.397 345.392 466.313 345.879C465.415 350.997 461.467 350.873 459.635 351.75C457.339 352.848 455.048 353.599 454.639 356.267C454.575 356.681 454.91 357.048 455.329 357.058L479.333 357.476C479.698 357.483 480.012 357.212 480.049 356.847C480.176 355.625 480.265 352.904 478.907 350.849C477.74 349.085 477.433 347.339 477.363 346.326C477.325 345.858 476.895 345.516 476.427 345.584Z" fill="#270C62"/>
<path d="M452.862 346.986C452.881 346.361 452.329 345.877 451.711 345.977C449.307 346.366 444.227 346.995 443.256 345.584C442.276 344.161 438.756 347.423 437.153 349.04C436.615 349.583 435.948 349.974 435.209 350.178C432.588 350.898 426.249 352.864 424.898 355.314C424.596 355.859 424.978 356.529 425.603 356.54L452.165 357.006C452.56 357.013 452.904 356.739 452.984 356.353C453.265 354.994 453.803 351.879 453.267 350.178C452.897 348.998 452.836 347.828 452.862 346.986Z" fill="#270C62"/>
<path d="M473.569 183.64L445.947 183.156C445.524 183.149 445.175 183.486 445.168 183.909L445.133 185.94C445.126 186.364 445.463 186.713 445.886 186.72L473.508 187.204C473.932 187.211 474.281 186.874 474.288 186.45L474.323 184.419C474.33 183.996 473.993 183.647 473.569 183.64Z" fill="#270C62"/>
<path d="M450.403 223.365C456.854 221.339 466.563 222.916 466.662 222.93L466.72 222.572C466.622 222.555 456.829 220.966 450.293 223.016L450.403 223.365Z" fill="#A9A9A9"/>
<path d="M358.189 257.671L295.931 266.837C291.214 267.532 287.542 270.883 287.87 274.301L289.742 293.836C290.07 297.255 294.233 299.036 298.903 297.849L360.536 282.171C363.37 281.45 365.417 278.797 365.171 276.23L363.765 261.562C363.522 258.995 361.053 257.249 358.189 257.671Z" fill="#F61573"/>
<path d="M302.023 275.53C301.831 275.562 301.669 275.635 301.541 275.743C301.419 275.843 301.316 275.977 301.234 276.138C301.164 276.276 301.103 276.421 301.054 276.571L299.924 279.838L298.035 277.594C297.67 277.158 297.406 276.873 297.228 276.725C296.991 276.531 296.694 276.463 296.343 276.524C296.013 276.583 295.751 276.746 295.564 277.018C295.374 277.292 295.304 277.61 295.365 277.935C295.4 278.129 295.489 278.331 295.639 278.551C295.765 278.74 295.962 278.986 296.238 279.306L299.107 282.538L299.664 285.566C299.755 286.067 299.94 286.427 300.209 286.638C300.487 286.856 300.81 286.923 301.166 286.839C301.517 286.757 301.786 286.551 301.964 286.228C302.137 285.915 302.182 285.505 302.09 285.016L301.543 282.028L303.017 277.97C303.15 277.617 303.237 277.348 303.284 277.149C303.338 276.917 303.347 276.686 303.305 276.466C303.251 276.168 303.092 275.913 302.846 275.729C302.605 275.544 302.327 275.476 302.023 275.53Z" fill="white"/>
<path d="M309.969 274.786C309.255 274.484 308.439 274.409 307.545 274.566C306.88 274.683 306.293 274.91 305.804 275.244C305.305 275.584 304.898 276.026 304.601 276.559C304.301 277.091 304.109 277.713 304.028 278.408C303.948 279.094 303.978 279.831 304.119 280.603C304.257 281.354 304.484 282.044 304.793 282.653C305.106 283.271 305.502 283.778 305.965 284.165C306.428 284.551 306.969 284.813 307.57 284.941C308.162 285.068 308.804 285.051 309.478 284.892C310.149 284.735 310.729 284.471 311.205 284.106C311.682 283.741 312.061 283.28 312.332 282.737C312.602 282.201 312.768 281.595 312.828 280.94C312.889 280.294 312.85 279.594 312.714 278.857C312.529 277.856 312.206 276.999 311.752 276.309C311.284 275.6 310.685 275.09 309.969 274.786ZM307.94 276.723C308.354 276.646 308.729 276.688 309.084 276.854C309.435 277.018 309.726 277.296 309.976 277.706C310.233 278.127 310.421 278.658 310.538 279.288C310.662 279.969 310.673 280.566 310.57 281.062C310.47 281.541 310.287 281.923 310.025 282.197C309.754 282.477 309.442 282.655 309.068 282.739C308.778 282.803 308.499 282.803 308.235 282.732C307.973 282.665 307.723 282.526 307.488 282.318C307.252 282.11 307.042 281.817 306.864 281.452C306.679 281.076 306.538 280.629 306.447 280.126C306.356 279.627 306.328 279.164 306.368 278.747C306.405 278.342 306.494 277.996 306.63 277.722C306.763 277.453 306.943 277.231 307.166 277.062C307.388 276.889 307.65 276.777 307.94 276.723Z" fill="white"/>
<path d="M318.425 272.661C318.131 272.712 317.911 272.878 317.773 273.157C317.639 273.424 317.613 273.784 317.695 274.229L318.5 278.619C318.627 279.302 318.615 279.831 318.472 280.191C318.339 280.526 318.018 280.75 317.52 280.86C317.148 280.942 316.846 280.93 316.624 280.823C316.406 280.718 316.24 280.542 316.116 280.287C315.975 280.001 315.861 279.62 315.774 279.152L314.962 274.729C314.88 274.282 314.723 273.95 314.494 273.742C314.255 273.524 313.975 273.44 313.656 273.496C313.348 273.55 313.116 273.723 312.966 274.013C312.823 274.292 312.793 274.661 312.875 275.113L313.68 279.489C313.811 280.203 313.993 280.816 314.223 281.31C314.461 281.822 314.766 282.225 315.128 282.508C315.489 282.791 315.922 282.962 316.408 283.018C316.876 283.072 317.415 283.029 318.004 282.891C318.505 282.774 318.933 282.597 319.282 282.363C319.638 282.124 319.932 281.803 320.162 281.41C320.426 280.949 320.574 280.446 320.602 279.91C320.627 279.402 320.576 278.785 320.445 278.076L319.673 273.868C319.591 273.428 319.439 273.103 319.216 272.899C318.982 272.691 318.718 272.609 318.425 272.661Z" fill="white"/>
<path d="M327.281 277.928C327.038 277.601 326.771 277.292 326.488 277.015C326.355 276.887 326.221 276.772 326.088 276.674C326.436 276.421 326.696 276.122 326.862 275.778C327.101 275.286 327.157 274.682 327.028 273.983C326.965 273.643 326.86 273.325 326.713 273.037C326.563 272.745 326.373 272.497 326.149 272.296C325.924 272.094 325.681 271.949 325.426 271.87C325.21 271.792 324.976 271.755 324.728 271.762C324.494 271.769 324.216 271.8 323.9 271.856L321.625 272.256C321.253 272.321 320.991 272.485 320.848 272.747C320.706 273.007 320.675 273.374 320.759 273.835L321.988 280.526C322.065 280.949 322.21 281.265 322.416 281.464C322.634 281.675 322.896 281.747 323.193 281.677C323.469 281.611 323.677 281.438 323.809 281.164C323.937 280.898 323.961 280.537 323.881 280.097L323.429 277.636L323.68 277.584C323.895 277.54 324.078 277.535 324.22 277.575C324.358 277.612 324.513 277.71 324.677 277.87C324.859 278.045 325.086 278.317 325.348 278.682L326.104 279.707C326.282 279.95 326.425 280.137 326.53 280.263C326.652 280.411 326.785 280.526 326.933 280.607C327.096 280.699 327.279 280.722 327.475 280.675C327.637 280.638 327.775 280.561 327.887 280.446C328.002 280.329 328.084 280.184 328.133 280.015C328.182 279.842 328.194 279.669 328.163 279.501C328.145 279.398 328.096 279.232 327.876 278.838C327.721 278.56 327.522 278.256 327.281 277.928ZM325.22 274.444C325.262 274.671 325.252 274.851 325.194 274.982C325.131 275.122 325.016 275.242 324.85 275.331C324.658 275.436 324.403 275.52 324.092 275.583L323.085 275.785L322.76 274.018L323.806 273.821C324.382 273.714 324.604 273.739 324.684 273.765C324.822 273.807 324.936 273.887 325.03 274.004C325.126 274.123 325.187 274.268 325.22 274.444Z" fill="white"/>
<path d="M335.72 276.094C335.5 275.78 335.256 275.487 334.997 275.221C334.875 275.097 334.756 274.987 334.634 274.895C334.945 274.661 335.174 274.381 335.322 274.055C335.532 273.592 335.577 273.021 335.455 272.359C335.397 272.038 335.298 271.736 335.163 271.463C335.025 271.184 334.851 270.948 334.65 270.756C334.447 270.564 334.227 270.426 333.997 270.346C333.803 270.271 333.593 270.234 333.37 270.239C333.16 270.243 332.912 270.269 332.628 270.318L330.59 270.676C330.258 270.735 330.024 270.889 329.898 271.133C329.771 271.378 329.748 271.722 329.827 272.158L330.99 278.485C331.063 278.885 331.196 279.185 331.381 279.377C331.578 279.578 331.814 279.648 332.081 279.587C332.329 279.529 332.511 279.37 332.628 279.11C332.741 278.859 332.759 278.52 332.682 278.104L332.254 275.773L332.476 275.726C332.668 275.686 332.832 275.684 332.963 275.724C333.087 275.761 333.225 275.855 333.375 276.007C333.541 276.173 333.745 276.433 333.986 276.781L334.674 277.757C334.837 277.989 334.966 278.167 335.06 278.288C335.17 278.429 335.291 278.539 335.425 278.618C335.572 278.707 335.738 278.731 335.914 278.689C336.059 278.654 336.183 278.583 336.284 278.476C336.387 278.366 336.459 278.23 336.501 278.071C336.546 277.907 336.553 277.743 336.522 277.584C336.504 277.488 336.459 277.329 336.258 276.955C336.12 276.695 335.94 276.405 335.72 276.094ZM333.836 272.78C333.876 272.995 333.869 273.166 333.817 273.29C333.763 273.424 333.66 273.533 333.511 273.618C333.34 273.716 333.11 273.793 332.832 273.849L331.929 274.03L331.622 272.359L332.561 272.183C333.078 272.087 333.277 272.113 333.349 272.139C333.473 272.181 333.576 272.256 333.66 272.368C333.749 272.476 333.805 272.611 333.836 272.78Z" fill="white"/>
<path d="M340.962 275.518L338.512 276.061L338.203 274.378L340.372 273.924C340.597 273.877 340.756 273.76 340.845 273.578C340.936 273.393 340.96 273.166 340.915 272.92C340.871 272.672 340.766 272.471 340.613 272.34C340.466 272.211 340.279 272.169 340.059 272.211L337.885 272.64L337.632 271.261L340.01 270.814C340.237 270.772 340.401 270.66 340.494 270.482C340.59 270.3 340.616 270.068 340.569 269.813C340.522 269.562 340.417 269.356 340.262 269.218C340.11 269.085 339.918 269.036 339.691 269.076L336.656 269.609C336.462 269.644 336.303 269.714 336.186 269.82C336.05 269.941 335.966 270.112 335.933 270.33C335.903 270.526 335.912 270.753 335.964 271.027L337.054 276.969C337.131 277.388 337.265 277.687 337.454 277.858C337.644 278.031 337.894 278.08 338.203 278.01L341.294 277.287C341.517 277.235 341.678 277.114 341.774 276.924C341.87 276.732 341.898 276.496 341.851 276.241C341.805 275.979 341.695 275.771 341.538 275.637C341.376 275.511 341.184 275.469 340.962 275.518Z" fill="white"/>
<path d="M345.316 268.095C345.197 268.027 345.075 268.002 344.953 268.023C344.789 268.051 344.663 268.137 344.583 268.276C344.511 268.402 344.464 268.542 344.448 268.69C344.436 268.807 344.422 269.001 344.408 269.286L344.183 273.814L342.36 269.698C342.204 269.336 342.07 269.08 341.949 268.912C341.841 268.762 341.644 268.598 341.331 268.652C341.125 268.687 340.968 268.818 340.867 269.041C340.767 269.261 340.736 269.499 340.783 269.747C340.8 269.839 340.828 269.939 340.87 270.056C340.91 270.166 340.952 270.269 340.996 270.363C341.034 270.442 341.073 270.524 341.113 270.613L343.303 275.275C343.385 275.455 343.465 275.628 343.544 275.789C343.629 275.963 343.72 276.117 343.816 276.25C343.924 276.4 344.052 276.51 344.195 276.583C344.34 276.655 344.504 276.672 344.677 276.632C344.853 276.59 344.995 276.501 345.101 276.367C345.204 276.236 345.278 276.082 345.325 275.904C345.365 275.745 345.393 275.567 345.409 275.371C345.424 275.188 345.435 274.996 345.447 274.804L345.803 269.689C345.807 269.6 345.812 269.511 345.819 269.427C345.826 269.331 345.828 269.233 345.826 269.134C345.824 269.027 345.814 268.924 345.798 268.832C345.77 268.68 345.711 268.533 345.627 268.4C345.538 268.264 345.435 268.163 345.316 268.095Z" fill="white"/>
<path d="M346.775 267.704C346.576 267.74 346.426 267.873 346.335 268.1C346.246 268.32 346.237 268.617 346.302 268.984L347.367 274.785C347.435 275.15 347.55 275.424 347.711 275.595C347.875 275.768 348.064 275.836 348.256 275.792C348.458 275.745 348.605 275.602 348.696 275.37C348.783 275.146 348.792 274.846 348.727 274.479L347.671 268.732C347.603 268.364 347.489 268.09 347.327 267.917C347.166 267.742 346.979 267.669 346.775 267.704Z" fill="white"/>
<path d="M352.772 272.906L350.702 273.365L350.418 271.82L352.251 271.437C352.44 271.397 352.574 271.292 352.648 271.125C352.723 270.957 352.74 270.749 352.698 270.524C352.655 270.295 352.564 270.11 352.433 269.988C352.307 269.869 352.148 269.827 351.96 269.862L350.126 270.225L349.894 268.959L351.902 268.582C352.094 268.547 352.232 268.444 352.309 268.282C352.389 268.116 352.407 267.903 352.365 267.669C352.323 267.438 352.23 267.248 352.096 267.122C351.965 266.998 351.801 266.951 351.609 266.984L349.047 267.435C348.883 267.463 348.75 267.526 348.652 267.622C348.539 267.73 348.469 267.887 348.443 268.086C348.42 268.264 348.432 268.474 348.478 268.725L349.48 274.177C349.55 274.561 349.667 274.837 349.829 274.998C349.99 275.16 350.203 275.209 350.463 275.15L353.072 274.54C353.261 274.495 353.395 274.387 353.474 274.217C353.554 274.041 353.573 273.826 353.531 273.592C353.486 273.351 353.393 273.159 353.257 273.033C353.126 272.906 352.962 272.864 352.772 272.906Z" fill="white"/>
<path d="M358.105 265.973C357.969 265.832 357.821 265.774 357.669 265.8C357.515 265.825 357.405 265.917 357.342 266.069C357.288 266.2 357.257 266.347 357.253 266.506C357.25 266.637 357.253 266.815 357.264 267.03L357.389 270.159L356.387 267.447C356.272 267.14 356.188 266.925 356.127 266.787C356.055 266.623 355.954 266.481 355.825 266.359C355.685 266.226 355.519 266.174 355.329 266.209C355.144 266.242 355.004 266.343 354.915 266.506C354.831 266.661 354.782 266.841 354.768 267.037C354.756 267.206 354.751 267.44 354.756 267.749L354.782 270.693L353.757 267.676C353.647 267.346 353.546 267.098 353.446 266.923C353.354 266.761 353.183 266.581 352.893 266.633C352.727 266.661 352.598 266.773 352.516 266.963C352.432 267.154 352.411 267.379 352.458 267.63C352.488 267.796 352.554 268.018 352.659 268.303L354.293 272.874C354.342 273.009 354.396 273.157 354.456 273.316C354.522 273.491 354.594 273.646 354.674 273.77C354.763 273.913 354.864 274.016 354.976 274.079C355.088 274.142 355.217 274.158 355.357 274.126C355.533 274.083 355.666 273.976 355.75 273.805C355.83 273.646 355.874 273.47 355.884 273.288C355.893 273.136 355.896 272.897 355.896 272.558L355.87 269.151L357.035 272.303V272.305C357.155 272.621 357.241 272.841 357.302 272.972C357.374 273.133 357.475 273.271 357.599 273.379C357.733 273.496 357.887 273.534 358.055 273.494C358.233 273.452 358.362 273.344 358.442 273.173C358.512 273.016 358.552 272.841 358.559 272.651C358.566 272.492 358.563 272.253 358.556 271.924L358.43 267.229C358.42 266.923 358.404 266.705 358.378 266.56C358.336 266.312 358.245 266.116 358.105 265.973Z" fill="white"/>
</svg>
