<svg width="470" height="62" viewBox="0 0 470 62" fill="none" xmlns="http://www.w3.org/2000/svg">
<rect x="1" y="1.19995" width="468" height="59" rx="29.5" fill="#1877F2" stroke="#1877F2" stroke-width="2"/>
<path d="M30.9456 9.67163C19.2305 9.67163 9.73242 18.9171 9.73242 30.3206C9.73242 40.6255 17.4887 49.1667 27.6318 50.7218V36.2908H22.2431V30.3206H27.6318V25.7712C27.6318 20.5919 30.7992 17.7359 35.6426 17.7359C37.9636 17.7359 40.3949 18.1386 40.3949 18.1386V23.2167H37.7133C35.0826 23.2167 34.2594 24.8109 34.2594 26.4444V30.3165H40.1382L39.1983 36.2867H34.2594V50.7176C44.4024 49.1709 52.1587 40.6275 52.1587 30.3206C52.1587 18.9171 42.6607 9.67163 30.9456 9.67163Z" fill="white"/>
<path d="M134.294 28.2H132.533C132.429 27.6933 132.246 27.2482 131.986 26.8647C131.73 26.4812 131.418 26.1592 131.048 25.8988C130.684 25.6337 130.279 25.4348 129.834 25.3022C129.389 25.1696 128.925 25.1034 128.442 25.1034C127.561 25.1034 126.763 25.3259 126.048 25.771C125.338 26.216 124.772 26.8718 124.351 27.7383C123.934 28.6048 123.726 29.6678 123.726 30.9272C123.726 32.1867 123.934 33.2497 124.351 34.1161C124.772 34.9826 125.338 35.6384 126.048 36.0835C126.763 36.5285 127.561 36.7511 128.442 36.7511C128.925 36.7511 129.389 36.6848 129.834 36.5522C130.279 36.4196 130.684 36.2232 131.048 35.9627C131.418 35.6976 131.73 35.3732 131.986 34.9897C132.246 34.6015 132.429 34.1564 132.533 33.6545H134.294C134.161 34.3979 133.92 35.0631 133.57 35.6502C133.219 36.2374 132.784 36.7369 132.263 37.1488C131.742 37.556 131.157 37.8661 130.509 38.0792C129.865 38.2923 129.176 38.3988 128.442 38.3988C127.201 38.3988 126.098 38.0958 125.132 37.4897C124.166 36.8837 123.406 36.0219 122.852 34.9045C122.298 33.7871 122.021 32.4613 122.021 30.9272C122.021 29.3931 122.298 28.0674 122.852 26.95C123.406 25.8325 124.166 24.9708 125.132 24.3647C126.098 23.7587 127.201 23.4556 128.442 23.4556C129.176 23.4556 129.865 23.5622 130.509 23.7752C131.157 23.9883 131.742 24.3008 132.263 24.7127C132.784 25.1199 133.219 25.6171 133.57 26.2042C133.92 26.7866 134.161 27.4518 134.294 28.2ZM141.345 38.4272C140.36 38.4272 139.496 38.1928 138.752 37.7241C138.014 37.2553 137.436 36.5996 137.02 35.7568C136.608 34.914 136.402 33.9291 136.402 32.8022C136.402 31.6659 136.608 30.6739 137.02 29.8264C137.436 28.9788 138.014 28.3207 138.752 27.8519C139.496 27.3832 140.36 27.1488 141.345 27.1488C142.33 27.1488 143.191 27.3832 143.93 27.8519C144.673 28.3207 145.251 28.9788 145.663 29.8264C146.08 30.6739 146.288 31.6659 146.288 32.8022C146.288 33.9291 146.08 34.914 145.663 35.7568C145.251 36.5996 144.673 37.2553 143.93 37.7241C143.191 38.1928 142.33 38.4272 141.345 38.4272ZM141.345 36.9215C142.093 36.9215 142.708 36.7298 143.191 36.3463C143.674 35.9627 144.032 35.4585 144.264 34.8335C144.496 34.2085 144.612 33.5314 144.612 32.8022C144.612 32.0731 144.496 31.3936 144.264 30.7639C144.032 30.1341 143.674 29.6251 143.191 29.2369C142.708 28.8486 142.093 28.6545 141.345 28.6545C140.597 28.6545 139.981 28.8486 139.498 29.2369C139.015 29.6251 138.658 30.1341 138.426 30.7639C138.194 31.3936 138.078 32.0731 138.078 32.8022C138.078 33.5314 138.194 34.2085 138.426 34.8335C138.658 35.4585 139.015 35.9627 139.498 36.3463C139.981 36.7298 140.597 36.9215 141.345 36.9215ZM150.523 31.6375V38.2H148.847V27.2909H150.466V28.9954H150.608C150.864 28.4414 151.252 27.9964 151.773 27.6602C152.294 27.3193 152.966 27.1488 153.79 27.1488C154.528 27.1488 155.175 27.3003 155.729 27.6034C156.283 27.9017 156.714 28.3562 157.021 28.967C157.329 29.5731 157.483 30.3401 157.483 31.2681V38.2H155.807V31.3818C155.807 30.5248 155.584 29.8571 155.139 29.3789C154.694 28.896 154.083 28.6545 153.307 28.6545C152.772 28.6545 152.294 28.7705 151.872 29.0025C151.455 29.2345 151.126 29.5731 150.885 30.0181C150.643 30.4632 150.523 31.003 150.523 31.6375ZM165.29 27.2909V28.7113H159.637V27.2909H165.29ZM161.284 24.6772H162.961V35.075C162.961 35.5484 163.029 35.9035 163.167 36.1403C163.309 36.3723 163.489 36.5285 163.706 36.609C163.929 36.6848 164.163 36.7227 164.409 36.7227C164.594 36.7227 164.746 36.7132 164.864 36.6943C164.982 36.6706 165.077 36.6517 165.148 36.6375L165.489 38.1431C165.375 38.1857 165.217 38.2284 165.013 38.271C164.81 38.3183 164.551 38.342 164.239 38.342C163.766 38.342 163.301 38.2402 162.847 38.0366C162.397 37.833 162.023 37.5229 161.725 37.1062C161.431 36.6895 161.284 36.164 161.284 35.5295V24.6772ZM167.811 38.2V27.2909H169.488V38.2H167.811ZM168.664 25.4727C168.337 25.4727 168.055 25.3614 167.819 25.1389C167.587 24.9163 167.471 24.6488 167.471 24.3363C167.471 24.0238 167.587 23.7563 167.819 23.5338C168.055 23.3112 168.337 23.2 168.664 23.2C168.99 23.2 169.27 23.3112 169.502 23.5338C169.739 23.7563 169.857 24.0238 169.857 24.3363C169.857 24.6488 169.739 24.9163 169.502 25.1389C169.27 25.3614 168.99 25.4727 168.664 25.4727ZM174.234 31.6375V38.2H172.558V27.2909H174.177V28.9954H174.319C174.575 28.4414 174.963 27.9964 175.484 27.6602C176.004 27.3193 176.677 27.1488 177.501 27.1488C178.239 27.1488 178.886 27.3003 179.44 27.6034C179.994 27.9017 180.424 28.3562 180.732 28.967C181.04 29.5731 181.194 30.3401 181.194 31.2681V38.2H179.518V31.3818C179.518 30.5248 179.295 29.8571 178.85 29.3789C178.405 28.896 177.794 28.6545 177.018 28.6545C176.483 28.6545 176.004 28.7705 175.583 29.0025C175.166 29.2345 174.837 29.5731 174.596 30.0181C174.354 30.4632 174.234 31.003 174.234 31.6375ZM191.132 33.7397V27.2909H192.808V38.2H191.132V36.3534H191.018C190.762 36.9073 190.365 37.3785 189.825 37.7667C189.285 38.1502 188.603 38.342 187.779 38.342C187.098 38.342 186.492 38.1928 185.961 37.8946C185.431 37.5915 185.014 37.137 184.711 36.5309C184.408 35.9201 184.257 35.1507 184.257 34.2227V27.2909H185.933V34.109C185.933 34.9045 186.155 35.539 186.6 36.0125C187.05 36.4859 187.623 36.7227 188.319 36.7227C188.736 36.7227 189.16 36.6161 189.591 36.4031C190.026 36.19 190.391 35.8633 190.684 35.423C190.983 34.9826 191.132 34.4215 191.132 33.7397ZM200.452 38.4272C199.401 38.4272 198.494 38.1952 197.732 37.7312C196.974 37.2625 196.389 36.609 195.977 35.771C195.57 34.9282 195.366 33.9481 195.366 32.8306C195.366 31.7132 195.57 30.7284 195.977 29.8761C196.389 29.0191 196.962 28.3515 197.696 27.8732C198.435 27.3903 199.296 27.1488 200.281 27.1488C200.849 27.1488 201.411 27.2435 201.964 27.4329C202.518 27.6223 203.023 27.9301 203.477 28.3562C203.932 28.7776 204.294 29.3363 204.564 30.0323C204.834 30.7284 204.969 31.5854 204.969 32.6034V33.3136H196.56V31.8647H203.264C203.264 31.2492 203.141 30.7 202.895 30.217C202.653 29.734 202.308 29.3529 201.858 29.0735C201.413 28.7942 200.887 28.6545 200.281 28.6545C199.614 28.6545 199.036 28.8202 198.548 29.1517C198.065 29.4784 197.694 29.9045 197.433 30.4301C197.173 30.9556 197.043 31.5191 197.043 32.1204V33.0863C197.043 33.9102 197.185 34.6086 197.469 35.1815C197.758 35.7497 198.158 36.1829 198.669 36.4812C199.18 36.7748 199.775 36.9215 200.452 36.9215C200.892 36.9215 201.29 36.86 201.645 36.7369C202.005 36.609 202.315 36.4196 202.575 36.1687C202.836 35.913 203.037 35.5958 203.179 35.217L204.798 35.6715C204.628 36.2208 204.341 36.7037 203.939 37.1204C203.536 37.5323 203.039 37.8543 202.447 38.0863C201.856 38.3136 201.19 38.4272 200.452 38.4272ZM215.615 38.2L212.291 27.2909H214.053L216.411 35.6431H216.524L218.854 27.2909H220.643L222.945 35.6147H223.058L225.416 27.2909H227.178L223.854 38.2H222.206L219.82 29.8193H219.649L217.263 38.2H215.615ZM229.393 38.2V27.2909H231.07V38.2H229.393ZM230.246 25.4727C229.919 25.4727 229.637 25.3614 229.401 25.1389C229.169 24.9163 229.053 24.6488 229.053 24.3363C229.053 24.0238 229.169 23.7563 229.401 23.5338C229.637 23.3112 229.919 23.2 230.246 23.2C230.572 23.2 230.852 23.3112 231.084 23.5338C231.321 23.7563 231.439 24.0238 231.439 24.3363C231.439 24.6488 231.321 24.9163 231.084 25.1389C230.852 25.3614 230.572 25.4727 230.246 25.4727ZM238.884 27.2909V28.7113H233.23V27.2909H238.884ZM234.878 24.6772H236.554V35.075C236.554 35.5484 236.623 35.9035 236.76 36.1403C236.902 36.3723 237.082 36.5285 237.3 36.609C237.523 36.6848 237.757 36.7227 238.003 36.7227C238.188 36.7227 238.339 36.7132 238.458 36.6943C238.576 36.6706 238.671 36.6517 238.742 36.6375L239.083 38.1431C238.969 38.1857 238.81 38.2284 238.607 38.271C238.403 38.3183 238.145 38.342 237.833 38.342C237.359 38.342 236.895 38.2402 236.441 38.0366C235.991 37.833 235.617 37.5229 235.319 37.1062C235.025 36.6895 234.878 36.164 234.878 35.5295V24.6772ZM243.316 31.6375V38.2H241.64V23.6545H243.316V28.9954H243.458C243.713 28.432 244.097 27.9845 244.608 27.6531C245.124 27.3169 245.811 27.1488 246.668 27.1488C247.411 27.1488 248.062 27.298 248.621 27.5963C249.18 27.8898 249.613 28.342 249.921 28.9528C250.233 29.5589 250.39 30.3306 250.39 31.2681V38.2H248.713V31.3818C248.713 30.5153 248.489 29.8453 248.039 29.3718C247.594 28.8936 246.976 28.6545 246.185 28.6545C245.636 28.6545 245.143 28.7705 244.708 29.0025C244.277 29.2345 243.936 29.5731 243.685 30.0181C243.439 30.4632 243.316 31.003 243.316 31.6375ZM263.939 27.2909V28.7113H258.058V27.2909H263.939ZM259.82 38.2V25.7852C259.82 25.1602 259.966 24.6393 260.26 24.2227C260.554 23.806 260.935 23.4935 261.403 23.2852C261.872 23.0768 262.367 22.9727 262.888 22.9727C263.3 22.9727 263.636 23.0058 263.896 23.0721C264.157 23.1384 264.351 23.2 264.479 23.2568L263.996 24.7056C263.911 24.6772 263.792 24.6417 263.641 24.5991C263.494 24.5565 263.3 24.5352 263.058 24.5352C262.504 24.5352 262.104 24.6749 261.858 24.9542C261.616 25.2336 261.496 25.6431 261.496 26.1829V38.2H259.82ZM269.186 38.4556C268.494 38.4556 267.867 38.3254 267.304 38.065C266.74 37.7999 266.293 37.4187 265.961 36.9215C265.63 36.4196 265.464 35.8136 265.464 35.1034C265.464 34.4784 265.587 33.9717 265.833 33.5835C266.08 33.1905 266.409 32.8827 266.821 32.6602C267.233 32.4376 267.687 32.2719 268.184 32.163C268.686 32.0494 269.19 31.9594 269.697 31.8931C270.36 31.8079 270.897 31.744 271.309 31.7014C271.726 31.654 272.029 31.5759 272.218 31.467C272.413 31.3581 272.51 31.1687 272.51 30.8988V30.842C272.51 30.1412 272.318 29.5967 271.934 29.2085C271.556 28.8202 270.98 28.6261 270.208 28.6261C269.408 28.6261 268.781 28.8013 268.326 29.1517C267.872 29.502 267.552 29.8761 267.368 30.2738L265.777 29.7056C266.061 29.0428 266.44 28.5267 266.913 28.1573C267.391 27.7833 267.912 27.5229 268.475 27.3761C269.044 27.2246 269.602 27.1488 270.152 27.1488C270.502 27.1488 270.904 27.1914 271.359 27.2767C271.818 27.3571 272.261 27.5252 272.687 27.7809C273.118 28.0366 273.475 28.4225 273.76 28.9386C274.044 29.4547 274.186 30.146 274.186 31.0125V38.2H272.51V36.7227H272.424C272.311 36.9594 272.121 37.2127 271.856 37.4826C271.591 37.7525 271.238 37.9821 270.798 38.1715C270.358 38.3609 269.82 38.4556 269.186 38.4556ZM269.441 36.95C270.104 36.95 270.663 36.8197 271.118 36.5593C271.577 36.2989 271.922 35.9627 272.154 35.5508C272.391 35.1389 272.51 34.7056 272.51 34.2511V32.717C272.439 32.8022 272.282 32.8803 272.041 32.9514C271.804 33.0177 271.529 33.0768 271.217 33.1289C270.909 33.1763 270.609 33.2189 270.315 33.2568C270.026 33.2899 269.792 33.3183 269.612 33.342C269.176 33.3988 268.769 33.4911 268.39 33.619C268.016 33.7421 267.713 33.9291 267.481 34.1801C267.254 34.4263 267.14 34.7625 267.14 35.1886C267.14 35.771 267.356 36.2113 267.787 36.5096C268.222 36.8032 268.774 36.95 269.441 36.95ZM281.677 38.4272C280.654 38.4272 279.773 38.1857 279.035 37.7028C278.296 37.2198 277.728 36.5546 277.33 35.7071C276.933 34.8595 276.734 33.8912 276.734 32.8022C276.734 31.6943 276.937 30.7165 277.344 29.869C277.756 29.0167 278.329 28.3515 279.063 27.8732C279.802 27.3903 280.664 27.1488 281.648 27.1488C282.415 27.1488 283.107 27.2909 283.722 27.575C284.338 27.859 284.842 28.2568 285.235 28.7681C285.628 29.2795 285.872 29.8761 285.967 30.5579H284.29C284.163 30.0607 283.879 29.6204 283.438 29.2369C283.003 28.8486 282.415 28.6545 281.677 28.6545C281.023 28.6545 280.451 28.825 279.958 29.1659C279.47 29.502 279.089 29.9779 278.815 30.5934C278.545 31.2042 278.41 31.9215 278.41 32.7454C278.41 33.5882 278.542 34.3221 278.808 34.9471C279.077 35.5721 279.456 36.0574 279.944 36.4031C280.436 36.7487 281.014 36.9215 281.677 36.9215C282.112 36.9215 282.508 36.8458 282.863 36.6943C283.218 36.5428 283.519 36.325 283.765 36.0409C284.011 35.7568 284.186 35.4159 284.29 35.0181H285.967C285.872 35.6621 285.638 36.2421 285.263 36.7582C284.894 37.2696 284.404 37.6768 283.793 37.9798C283.187 38.2781 282.482 38.4272 281.677 38.4272ZM292.991 38.4272C291.94 38.4272 291.033 38.1952 290.271 37.7312C289.513 37.2625 288.928 36.609 288.516 35.771C288.109 34.9282 287.906 33.9481 287.906 32.8306C287.906 31.7132 288.109 30.7284 288.516 29.8761C288.928 29.0191 289.501 28.3515 290.235 27.8732C290.974 27.3903 291.835 27.1488 292.82 27.1488C293.388 27.1488 293.95 27.2435 294.504 27.4329C295.058 27.6223 295.562 27.9301 296.016 28.3562C296.471 28.7776 296.833 29.3363 297.103 30.0323C297.373 30.7284 297.508 31.5854 297.508 32.6034V33.3136H289.099V31.8647H295.803C295.803 31.2492 295.68 30.7 295.434 30.217C295.192 29.734 294.847 29.3529 294.397 29.0735C293.952 28.7942 293.426 28.6545 292.82 28.6545C292.153 28.6545 291.575 28.8202 291.087 29.1517C290.604 29.4784 290.233 29.9045 289.972 30.4301C289.712 30.9556 289.582 31.5191 289.582 32.1204V33.0863C289.582 33.9102 289.724 34.6086 290.008 35.1815C290.297 35.7497 290.697 36.1829 291.208 36.4812C291.719 36.7748 292.314 36.9215 292.991 36.9215C293.431 36.9215 293.829 36.86 294.184 36.7369C294.544 36.609 294.854 36.4196 295.114 36.1687C295.375 35.913 295.576 35.5958 295.718 35.217L297.337 35.6715C297.167 36.2208 296.88 36.7037 296.478 37.1204C296.076 37.5323 295.578 37.8543 294.987 38.0863C294.395 38.3136 293.729 38.4272 292.991 38.4272ZM300.285 38.2V23.6545H301.961V29.0238H302.103C302.226 28.8344 302.397 28.5929 302.614 28.2994C302.837 28.0011 303.154 27.7359 303.566 27.5039C303.983 27.2672 304.546 27.1488 305.256 27.1488C306.175 27.1488 306.985 27.3785 307.685 27.8377C308.386 28.297 308.933 28.9481 309.326 29.7909C309.719 30.6337 309.915 31.628 309.915 32.7738C309.915 33.9291 309.719 34.9305 309.326 35.7781C308.933 36.6209 308.388 37.2743 307.692 37.7383C306.996 38.1976 306.194 38.4272 305.285 38.4272C304.584 38.4272 304.023 38.3112 303.602 38.0792C303.18 37.8425 302.856 37.575 302.629 37.2767C302.401 36.9736 302.226 36.7227 302.103 36.5238H301.904V38.2H300.285ZM301.933 32.7454C301.933 33.5693 302.053 34.2961 302.295 34.9258C302.536 35.5508 302.889 36.0409 303.353 36.396C303.817 36.7464 304.385 36.9215 305.058 36.9215C305.758 36.9215 306.343 36.7369 306.812 36.3676C307.285 35.9935 307.64 35.4916 307.877 34.8619C308.119 34.2274 308.239 33.5219 308.239 32.7454C308.239 31.9784 308.121 31.2871 307.884 30.6715C307.652 30.0513 307.299 29.5612 306.826 29.2014C306.357 28.8368 305.768 28.6545 305.058 28.6545C304.376 28.6545 303.803 28.8273 303.339 29.173C302.875 29.5139 302.524 29.9921 302.288 30.6076C302.051 31.2184 301.933 31.931 301.933 32.7454ZM316.911 38.4272C315.926 38.4272 315.062 38.1928 314.319 37.7241C313.58 37.2553 313.003 36.5996 312.586 35.7568C312.174 34.914 311.968 33.9291 311.968 32.8022C311.968 31.6659 312.174 30.6739 312.586 29.8264C313.003 28.9788 313.58 28.3207 314.319 27.8519C315.062 27.3832 315.926 27.1488 316.911 27.1488C317.896 27.1488 318.758 27.3832 319.496 27.8519C320.24 28.3207 320.817 28.9788 321.229 29.8264C321.646 30.6739 321.854 31.6659 321.854 32.8022C321.854 33.9291 321.646 34.914 321.229 35.7568C320.817 36.5996 320.24 37.2553 319.496 37.7241C318.758 38.1928 317.896 38.4272 316.911 38.4272ZM316.911 36.9215C317.659 36.9215 318.275 36.7298 318.758 36.3463C319.241 35.9627 319.598 35.4585 319.83 34.8335C320.062 34.2085 320.178 33.5314 320.178 32.8022C320.178 32.0731 320.062 31.3936 319.83 30.7639C319.598 30.1341 319.241 29.6251 318.758 29.2369C318.275 28.8486 317.659 28.6545 316.911 28.6545C316.163 28.6545 315.548 28.8486 315.065 29.2369C314.582 29.6251 314.224 30.1341 313.992 30.7639C313.76 31.3936 313.644 32.0731 313.644 32.8022C313.644 33.5314 313.76 34.2085 313.992 34.8335C314.224 35.4585 314.582 35.9627 315.065 36.3463C315.548 36.7298 316.163 36.9215 316.911 36.9215ZM328.845 38.4272C327.86 38.4272 326.996 38.1928 326.252 37.7241C325.514 37.2553 324.936 36.5996 324.52 35.7568C324.108 34.914 323.902 33.9291 323.902 32.8022C323.902 31.6659 324.108 30.6739 324.52 29.8264C324.936 28.9788 325.514 28.3207 326.252 27.8519C326.996 27.3832 327.86 27.1488 328.845 27.1488C329.83 27.1488 330.691 27.3832 331.43 27.8519C332.173 28.3207 332.751 28.9788 333.163 29.8264C333.58 30.6739 333.788 31.6659 333.788 32.8022C333.788 33.9291 333.58 34.914 333.163 35.7568C332.751 36.5996 332.173 37.2553 331.43 37.7241C330.691 38.1928 329.83 38.4272 328.845 38.4272ZM328.845 36.9215C329.593 36.9215 330.208 36.7298 330.691 36.3463C331.174 35.9627 331.532 35.4585 331.764 34.8335C331.996 34.2085 332.112 33.5314 332.112 32.8022C332.112 32.0731 331.996 31.3936 331.764 30.7639C331.532 30.1341 331.174 29.6251 330.691 29.2369C330.208 28.8486 329.593 28.6545 328.845 28.6545C328.097 28.6545 327.481 28.8486 326.998 29.2369C326.515 29.6251 326.158 30.1341 325.926 30.7639C325.694 31.3936 325.578 32.0731 325.578 32.8022C325.578 33.5314 325.694 34.2085 325.926 34.8335C326.158 35.4585 326.515 35.9627 326.998 36.3463C327.481 36.7298 328.097 36.9215 328.845 36.9215ZM337.909 34.2227L337.881 32.1488H338.222L342.994 27.2909H345.068L339.983 32.4329H339.841L337.909 34.2227ZM336.347 38.2V23.6545H338.023V38.2H336.347ZM343.278 38.2L339.017 32.8022L340.21 31.6375L345.409 38.2H343.278Z" fill="white"/>
</svg>
