<svg width="470" height="62" viewBox="0 0 470 62" fill="none" xmlns="http://www.w3.org/2000/svg">
<rect x="1" y="1" width="468" height="59.2" rx="29.6" fill="white" stroke="#1877F2" stroke-width="2"/>
<path d="M136.668 29.3601H135.083C134.989 28.9041 134.825 28.5036 134.591 28.1584C134.361 27.8132 134.079 27.5235 133.747 27.2891C133.419 27.0504 133.055 26.8715 132.654 26.7522C132.253 26.6328 131.836 26.5732 131.401 26.5732C130.608 26.5732 129.89 26.7735 129.247 27.174C128.608 27.5746 128.099 28.1648 127.719 28.9446C127.344 29.7245 127.157 30.6811 127.157 31.8147C127.157 32.9482 127.344 33.9049 127.719 34.6847C128.099 35.4645 128.608 36.0547 129.247 36.4553C129.89 36.8558 130.608 37.0561 131.401 37.0561C131.836 37.0561 132.253 36.9965 132.654 36.8772C133.055 36.7578 133.419 36.581 133.747 36.3466C134.079 36.108 134.361 35.8161 134.591 35.4709C134.825 35.1215 134.989 34.7209 135.083 34.2692H136.668C136.549 34.9382 136.331 35.537 136.016 36.0654C135.701 36.5938 135.309 37.0433 134.84 37.4141C134.371 37.7806 133.845 38.0597 133.261 38.2514C132.682 38.4432 132.062 38.5391 131.401 38.5391C130.285 38.5391 129.292 38.2664 128.422 37.7209C127.553 37.1754 126.869 36.3999 126.371 35.3942C125.872 34.3885 125.623 33.1953 125.623 31.8147C125.623 30.434 125.872 29.2408 126.371 28.2351C126.869 27.2294 127.553 26.4539 128.422 25.9084C129.292 25.3629 130.285 25.0902 131.401 25.0902C132.062 25.0902 132.682 25.1861 133.261 25.3779C133.845 25.5696 134.371 25.8509 134.84 26.2216C135.309 26.5881 135.701 27.0355 136.016 27.5639C136.331 28.0881 136.549 28.6868 136.668 29.3601ZM143.014 38.5647C142.127 38.5647 141.35 38.3537 140.681 37.9318C140.016 37.51 139.496 36.9198 139.121 36.1612C138.75 35.4027 138.565 34.5164 138.565 33.5022C138.565 32.4794 138.75 31.5867 139.121 30.8239C139.496 30.0611 140.016 29.4688 140.681 29.0469C141.35 28.625 142.127 28.4141 143.014 28.4141C143.9 28.4141 144.676 28.625 145.341 29.0469C146.01 29.4688 146.529 30.0611 146.9 30.8239C147.275 31.5867 147.463 32.4794 147.463 33.5022C147.463 34.5164 147.275 35.4027 146.9 36.1612C146.529 36.9198 146.01 37.51 145.341 37.9318C144.676 38.3537 143.9 38.5647 143.014 38.5647ZM143.014 37.2095C143.687 37.2095 144.241 37.037 144.676 36.6918C145.11 36.3466 145.432 35.8928 145.641 35.3303C145.85 34.7678 145.954 34.1584 145.954 33.5022C145.954 32.8459 145.85 32.2344 145.641 31.6676C145.432 31.1009 145.11 30.6428 144.676 30.2933C144.241 29.9439 143.687 29.7692 143.014 29.7692C142.341 29.7692 141.787 29.9439 141.352 30.2933C140.917 30.6428 140.596 31.1009 140.387 31.6676C140.178 32.2344 140.074 32.8459 140.074 33.5022C140.074 34.1584 140.178 34.7678 140.387 35.3303C140.596 35.8928 140.917 36.3466 141.352 36.6918C141.787 37.037 142.341 37.2095 143.014 37.2095ZM151.274 32.4539V38.3601H149.765V28.5419H151.223V30.076H151.351C151.581 29.5774 151.93 29.1769 152.399 28.8743C152.868 28.5675 153.473 28.4141 154.214 28.4141C154.879 28.4141 155.461 28.5504 155.959 28.8232C156.458 29.0916 156.846 29.5007 157.123 30.0504C157.4 30.5959 157.538 31.2862 157.538 32.1215V38.3601H156.03V32.2237C156.03 31.4524 155.829 30.8516 155.429 30.4212C155.028 29.9865 154.479 29.7692 153.78 29.7692C153.298 29.7692 152.868 29.8736 152.488 30.0824C152.113 30.2912 151.817 30.5959 151.6 30.9965C151.383 31.397 151.274 31.8828 151.274 32.4539ZM164.565 28.5419V29.8203H159.477V28.5419H164.565ZM160.96 26.1897H162.468V35.5476C162.468 35.9737 162.53 36.2933 162.653 36.5064C162.781 36.7152 162.943 36.8558 163.139 36.9283C163.339 36.9965 163.55 37.0306 163.772 37.0306C163.938 37.0306 164.075 37.022 164.181 37.005C164.288 36.9837 164.373 36.9666 164.437 36.9539L164.744 38.309C164.641 38.3473 164.499 38.3857 164.315 38.424C164.132 38.4666 163.9 38.4879 163.619 38.4879C163.192 38.4879 162.775 38.3963 162.366 38.2131C161.961 38.0299 161.624 37.7507 161.356 37.3757C161.092 37.0007 160.96 36.5277 160.96 35.9567V26.1897ZM166.834 38.3601V28.5419H168.342V38.3601H166.834ZM167.601 26.9056C167.307 26.9056 167.053 26.8054 166.84 26.6051C166.631 26.4049 166.527 26.1641 166.527 25.8828C166.527 25.6016 166.631 25.3608 166.84 25.1605C167.053 24.9602 167.307 24.8601 167.601 24.8601C167.895 24.8601 168.146 24.9602 168.355 25.1605C168.568 25.3608 168.675 25.6016 168.675 25.8828C168.675 26.1641 168.568 26.4049 168.355 26.6051C168.146 26.8054 167.895 26.9056 167.601 26.9056ZM172.614 32.4539V38.3601H171.105V28.5419H172.563V30.076H172.691C172.921 29.5774 173.27 29.1769 173.739 28.8743C174.208 28.5675 174.813 28.4141 175.554 28.4141C176.219 28.4141 176.801 28.5504 177.299 28.8232C177.798 29.0916 178.186 29.5007 178.463 30.0504C178.74 30.5959 178.878 31.2862 178.878 32.1215V38.3601H177.369V32.2237C177.369 31.4524 177.169 30.8516 176.769 30.4212C176.368 29.9865 175.818 29.7692 175.119 29.7692C174.638 29.7692 174.208 29.8736 173.828 30.0824C173.453 30.2912 173.157 30.5959 172.94 30.9965C172.722 31.397 172.614 31.8828 172.614 32.4539ZM187.822 34.3459V28.5419H189.331V38.3601H187.822V36.6982H187.72C187.49 37.1968 187.132 37.6208 186.646 37.9702C186.16 38.3154 185.547 38.4879 184.805 38.4879C184.191 38.4879 183.646 38.3537 183.169 38.0852C182.691 37.8125 182.316 37.4034 182.044 36.858C181.771 36.3083 181.635 35.6158 181.635 34.7806V28.5419H183.143V34.6783C183.143 35.3942 183.343 35.9652 183.744 36.3914C184.149 36.8175 184.664 37.0306 185.291 37.0306C185.666 37.0306 186.047 36.9347 186.435 36.7429C186.827 36.5512 187.155 36.2571 187.419 35.8608C187.688 35.4645 187.822 34.9595 187.822 34.3459ZM196.21 38.5647C195.264 38.5647 194.448 38.3558 193.762 37.9382C193.08 37.5164 192.554 36.9283 192.183 36.174C191.817 35.4155 191.633 34.5334 191.633 33.5277C191.633 32.522 191.817 31.6357 192.183 30.8686C192.554 30.0973 193.069 29.4965 193.73 29.0661C194.395 28.6314 195.17 28.4141 196.057 28.4141C196.568 28.4141 197.073 28.4993 197.572 28.6698C198.07 28.8402 198.524 29.1172 198.933 29.5007C199.342 29.88 199.668 30.3828 199.911 31.0093C200.154 31.6357 200.275 32.407 200.275 33.3232V33.9624H192.707V32.6584H198.741C198.741 32.1044 198.631 31.6101 198.409 31.1754C198.192 30.7408 197.881 30.3977 197.476 30.1463C197.075 29.8949 196.602 29.7692 196.057 29.7692C195.456 29.7692 194.936 29.9183 194.497 30.2166C194.062 30.5107 193.728 30.8942 193.493 31.3672C193.259 31.8402 193.142 32.3473 193.142 32.8885V33.7578C193.142 34.4993 193.27 35.1279 193.525 35.6435C193.785 36.1549 194.145 36.5448 194.606 36.8132C195.066 37.0774 195.601 37.2095 196.21 37.2095C196.606 37.2095 196.964 37.1541 197.284 37.0433C197.608 36.9283 197.887 36.7578 198.121 36.532C198.356 36.3019 198.537 36.0164 198.665 35.6754L200.122 36.0845C199.969 36.5789 199.711 37.0135 199.349 37.3885C198.986 37.7593 198.539 38.049 198.006 38.2578C197.474 38.4624 196.875 38.5647 196.21 38.5647ZM209.857 38.3601L206.866 28.5419H208.451L210.573 36.059H210.675L212.772 28.5419H214.383L216.454 36.0334H216.556L218.678 28.5419H220.263L217.272 38.3601H215.789L213.641 30.8175H213.488L211.34 38.3601H209.857ZM222.258 38.3601V28.5419H223.766V38.3601H222.258ZM223.025 26.9056C222.731 26.9056 222.477 26.8054 222.264 26.6051C222.055 26.4049 221.951 26.1641 221.951 25.8828C221.951 25.6016 222.055 25.3608 222.264 25.1605C222.477 24.9602 222.731 24.8601 223.025 24.8601C223.319 24.8601 223.57 24.9602 223.779 25.1605C223.992 25.3608 224.099 25.6016 224.099 25.8828C224.099 26.1641 223.992 26.4049 223.779 26.6051C223.57 26.8054 223.319 26.9056 223.025 26.9056ZM230.799 28.5419V29.8203H225.711V28.5419H230.799ZM227.194 26.1897H228.702V35.5476C228.702 35.9737 228.764 36.2933 228.888 36.5064C229.016 36.7152 229.178 36.8558 229.374 36.9283C229.574 36.9965 229.785 37.0306 230.006 37.0306C230.173 37.0306 230.309 37.022 230.415 37.005C230.522 36.9837 230.607 36.9666 230.671 36.9539L230.978 38.309C230.876 38.3473 230.733 38.3857 230.55 38.424C230.366 38.4666 230.134 38.4879 229.853 38.4879C229.427 38.4879 229.009 38.3963 228.6 38.2131C228.195 38.0299 227.859 37.7507 227.59 37.3757C227.326 37.0007 227.194 36.5277 227.194 35.9567V26.1897ZM234.788 32.4539V38.3601H233.279V25.2692H234.788V30.076H234.915C235.146 29.5689 235.491 29.1662 235.951 28.8679C236.415 28.5654 237.033 28.4141 237.805 28.4141C238.474 28.4141 239.06 28.5483 239.562 28.8168C240.065 29.081 240.455 29.4879 240.732 30.0377C241.013 30.5831 241.154 31.2777 241.154 32.1215V38.3601H239.646V32.2237C239.646 31.4439 239.443 30.8409 239.038 30.4148C238.638 29.9844 238.082 29.7692 237.37 29.7692C236.876 29.7692 236.433 29.8736 236.04 30.0824C235.653 30.2912 235.346 30.5959 235.12 30.9965C234.898 31.397 234.788 31.8828 234.788 32.4539ZM258.13 29.3601C257.989 28.9297 257.804 28.5441 257.574 28.2031C257.348 27.858 257.077 27.5639 256.762 27.321C256.451 27.0781 256.097 26.8928 255.701 26.7649C255.305 26.6371 254.87 26.5732 254.397 26.5732C253.621 26.5732 252.916 26.7735 252.281 27.174C251.646 27.5746 251.141 28.1648 250.766 28.9446C250.391 29.7245 250.204 30.6811 250.204 31.8147C250.204 32.9482 250.393 33.9049 250.773 34.6847C251.152 35.4645 251.665 36.0547 252.313 36.4553C252.961 36.8558 253.689 37.0561 254.499 37.0561C255.249 37.0561 255.91 36.8963 256.481 36.5767C257.056 36.2529 257.503 35.7969 257.823 35.2088C258.147 34.6165 258.309 33.9198 258.309 33.1186L258.795 33.2209H254.857V31.8147H259.843V33.2209C259.843 34.299 259.613 35.2365 259.153 36.0334C258.697 36.8303 258.066 37.4482 257.26 37.8871C256.459 38.3218 255.539 38.5391 254.499 38.5391C253.34 38.5391 252.322 38.2664 251.444 37.7209C250.57 37.1754 249.888 36.3999 249.398 35.3942C248.912 34.3885 248.67 33.1953 248.67 31.8147C248.67 30.7791 248.808 29.848 249.085 29.0213C249.366 28.1904 249.763 27.483 250.274 26.8992C250.785 26.3154 251.39 25.8679 252.089 25.5568C252.788 25.2458 253.557 25.0902 254.397 25.0902C255.087 25.0902 255.731 25.1946 256.327 25.4034C256.928 25.608 257.463 25.8999 257.932 26.2791C258.405 26.6541 258.799 27.1037 259.114 27.6279C259.43 28.1477 259.647 28.7252 259.766 29.3601H258.13ZM266.342 38.5647C265.456 38.5647 264.678 38.3537 264.009 37.9318C263.344 37.51 262.824 36.9198 262.449 36.1612C262.078 35.4027 261.893 34.5164 261.893 33.5022C261.893 32.4794 262.078 31.5867 262.449 30.8239C262.824 30.0611 263.344 29.4688 264.009 29.0469C264.678 28.625 265.456 28.4141 266.342 28.4141C267.228 28.4141 268.004 28.625 268.669 29.0469C269.338 29.4688 269.858 30.0611 270.228 30.8239C270.603 31.5867 270.791 32.4794 270.791 33.5022C270.791 34.5164 270.603 35.4027 270.228 36.1612C269.858 36.9198 269.338 37.51 268.669 37.9318C268.004 38.3537 267.228 38.5647 266.342 38.5647ZM266.342 37.2095C267.015 37.2095 267.569 37.037 268.004 36.6918C268.439 36.3466 268.76 35.8928 268.969 35.3303C269.178 34.7678 269.282 34.1584 269.282 33.5022C269.282 32.8459 269.178 32.2344 268.969 31.6676C268.76 31.1009 268.439 30.6428 268.004 30.2933C267.569 29.9439 267.015 29.7692 266.342 29.7692C265.669 29.7692 265.115 29.9439 264.68 30.2933C264.245 30.6428 263.924 31.1009 263.715 31.6676C263.506 32.2344 263.402 32.8459 263.402 33.5022C263.402 34.1584 263.506 34.7678 263.715 35.3303C263.924 35.8928 264.245 36.3466 264.68 36.6918C265.115 37.037 265.669 37.2095 266.342 37.2095ZM277.082 38.5647C276.196 38.5647 275.418 38.3537 274.749 37.9318C274.084 37.51 273.564 36.9198 273.189 36.1612C272.819 35.4027 272.633 34.5164 272.633 33.5022C272.633 32.4794 272.819 31.5867 273.189 30.8239C273.564 30.0611 274.084 29.4688 274.749 29.0469C275.418 28.625 276.196 28.4141 277.082 28.4141C277.969 28.4141 278.744 28.625 279.409 29.0469C280.078 29.4688 280.598 30.0611 280.969 30.8239C281.344 31.5867 281.531 32.4794 281.531 33.5022C281.531 34.5164 281.344 35.4027 280.969 36.1612C280.598 36.9198 280.078 37.51 279.409 37.9318C278.744 38.3537 277.969 38.5647 277.082 38.5647ZM277.082 37.2095C277.756 37.2095 278.309 37.037 278.744 36.6918C279.179 36.3466 279.501 35.8928 279.709 35.3303C279.918 34.7678 280.023 34.1584 280.023 33.5022C280.023 32.8459 279.918 32.2344 279.709 31.6676C279.501 31.1009 279.179 30.6428 278.744 30.2933C278.309 29.9439 277.756 29.7692 277.082 29.7692C276.409 29.7692 275.855 29.9439 275.42 30.2933C274.986 30.6428 274.664 31.1009 274.455 31.6676C274.246 32.2344 274.142 32.8459 274.142 33.5022C274.142 34.1584 274.246 34.7678 274.455 35.3303C274.664 35.8928 274.986 36.3466 275.42 36.6918C275.855 37.037 276.409 37.2095 277.082 37.2095ZM287.797 42.2465C287.068 42.2465 286.442 42.1527 285.918 41.9652C285.393 41.782 284.957 41.5391 284.607 41.2365C284.262 40.9382 283.987 40.6186 283.783 40.2777L284.984 39.434C285.121 39.6129 285.293 39.8175 285.502 40.0476C285.711 40.282 285.996 40.4844 286.359 40.6549C286.725 40.8296 287.205 40.9169 287.797 40.9169C288.589 40.9169 289.244 40.7252 289.759 40.3416C290.275 39.9581 290.533 39.3573 290.533 38.5391V36.5448H290.405C290.294 36.7237 290.136 36.9453 289.932 37.2095C289.732 37.4695 289.442 37.7017 289.062 37.9063C288.688 38.1066 288.18 38.2067 287.541 38.2067C286.749 38.2067 286.037 38.0192 285.406 37.6442C284.78 37.2692 284.283 36.7237 283.917 36.0078C283.555 35.2919 283.374 34.4226 283.374 33.3999C283.374 32.3942 283.55 31.5185 283.904 30.7727C284.258 30.0227 284.75 29.4432 285.381 29.0341C286.011 28.6208 286.74 28.4141 287.567 28.4141C288.206 28.4141 288.713 28.5206 289.088 28.7337C289.467 28.9425 289.757 29.1811 289.957 29.4496C290.162 29.7138 290.32 29.9311 290.43 30.1016H290.584V28.5419H292.041V38.6414C292.041 39.4851 291.849 40.1712 291.466 40.6996C291.087 41.2323 290.575 41.6222 289.932 41.8693C289.293 42.1208 288.581 42.2465 287.797 42.2465ZM287.746 36.8516C288.351 36.8516 288.862 36.7131 289.28 36.4361C289.697 36.1591 290.015 35.7607 290.232 35.2408C290.45 34.7209 290.558 34.0987 290.558 33.3743C290.558 32.6669 290.452 32.0426 290.239 31.5014C290.026 30.9602 289.71 30.5362 289.293 30.2294C288.875 29.9226 288.359 29.7692 287.746 29.7692C287.107 29.7692 286.574 29.9311 286.148 30.255C285.726 30.5789 285.408 31.0135 285.195 31.559C284.987 32.1044 284.882 32.7095 284.882 33.3743C284.882 34.0561 284.989 34.6591 285.202 35.1833C285.419 35.7031 285.739 36.1122 286.161 36.4105C286.587 36.7046 287.115 36.8516 287.746 36.8516ZM296.311 25.2692V38.3601H294.803V25.2692H296.311ZM303.191 38.5647C302.244 38.5647 301.428 38.3558 300.742 37.9382C300.061 37.5164 299.534 36.9283 299.164 36.174C298.797 35.4155 298.614 34.5334 298.614 33.5277C298.614 32.522 298.797 31.6357 299.164 30.8686C299.534 30.0973 300.05 29.4965 300.71 29.0661C301.375 28.6314 302.151 28.4141 303.037 28.4141C303.548 28.4141 304.053 28.4993 304.552 28.6698C305.051 28.8402 305.504 29.1172 305.914 29.5007C306.323 29.88 306.649 30.3828 306.892 31.0093C307.134 31.6357 307.256 32.407 307.256 33.3232V33.9624H299.688V32.6584H305.722C305.722 32.1044 305.611 31.6101 305.389 31.1754C305.172 30.7408 304.861 30.3977 304.456 30.1463C304.056 29.8949 303.583 29.7692 303.037 29.7692C302.436 29.7692 301.916 29.9183 301.477 30.2166C301.043 30.5107 300.708 30.8942 300.474 31.3672C300.24 31.8402 300.122 32.3473 300.122 32.8885V33.7578C300.122 34.4993 300.25 35.1279 300.506 35.6435C300.766 36.1549 301.126 36.5448 301.586 36.8132C302.046 37.0774 302.581 37.2095 303.191 37.2095C303.587 37.2095 303.945 37.1541 304.264 37.0433C304.588 36.9283 304.867 36.7578 305.102 36.532C305.336 36.3019 305.517 36.0164 305.645 35.6754L307.102 36.0845C306.949 36.5789 306.691 37.0135 306.329 37.3885C305.967 37.7593 305.519 38.049 304.987 38.2578C304.454 38.4624 303.855 38.5647 303.191 38.5647Z" fill="#989D9B"/>
<g clip-path="url(#clip0_116_704)">
<path d="M56.9052 25.2983C56.9052 25.2983 57.1849 28.1867 57.1849 29.143C57.1849 30.153 56.9052 33.1623 56.9052 33.1623C56.9046 33.1665 56.9041 33.1711 56.903 33.1758C56.2483 37.6877 54.4198 41.751 51.0819 44.672L44.2225 39.6524C44.7438 39.318 45.2389 38.9484 45.7037 38.5458C47.3589 37.114 48.1604 35.2666 48.5306 33.1758H36.9531V25.2983H48.505H56.9052Z" fill="#2683FB"/>
<path d="M51.1786 13.8176L45.0756 19.6554C42.8742 17.8721 40.1852 16.5644 37.1063 16.5644C31.4494 16.5644 26.6409 20.0947 24.8832 25.0135L17.918 19.9164C21.4261 13.1234 28.6631 8.41504 36.9536 8.41504C42.3786 8.41504 47.4195 10.5431 51.1653 13.8062C51.1696 13.8098 51.1739 13.814 51.1786 13.8176Z" fill="#EA4335"/>
<path d="M51.0823 44.672C51.06 44.6917 51.0371 44.7113 51.0148 44.731C47.2753 47.9662 42.2344 49.7252 36.8355 49.7252C28.5407 49.7252 21.3601 45.0855 17.8887 38.3292L24.8661 33.2234C26.609 38.1675 31.4308 41.7221 37.1068 41.7221C39.7352 41.7221 42.1817 40.9613 44.2235 39.6525L51.0823 44.672Z" fill="#34A853"/>
<path d="M24.8654 33.2237L17.8879 38.329C16.4673 35.5642 15.668 32.4442 15.668 29.1428C15.668 25.8373 16.4796 22.7013 17.9177 19.9158L24.8829 25.0128C24.4202 26.3066 24.1692 27.696 24.1692 29.1428C24.1697 30.5715 24.4143 31.9438 24.8654 33.2237Z" fill="#FFBC00"/>
</g>
<defs>
<clipPath id="clip0_116_704">
<rect width="41.5167" height="41.31" fill="white" transform="translate(15.668 8.41504)"/>
</clipPath>
</defs>
</svg>
