<svg width="470" height="63" viewBox="0 0 470 63" fill="none" xmlns="http://www.w3.org/2000/svg">
<rect x="1" y="1.19995" width="468" height="60.6667" rx="30.3333" fill="black" stroke="#1877F2" stroke-width="2"/>
<path d="M134.716 30.2909C134.631 29.5712 134.285 29.0125 133.679 28.6147C133.073 28.217 132.33 28.0181 131.449 28.0181C130.805 28.0181 130.241 28.1223 129.759 28.3306C129.28 28.539 128.906 28.8254 128.636 29.19C128.371 29.5546 128.239 29.9689 128.239 30.4329C128.239 30.8212 128.331 31.155 128.516 31.4343C128.705 31.7089 128.946 31.9386 129.24 32.1232C129.534 32.3032 129.841 32.4523 130.163 32.5707C130.485 32.6843 130.781 32.7767 131.051 32.8477L132.528 33.2454C132.907 33.3448 133.329 33.4821 133.793 33.6573C134.261 33.8325 134.709 34.0716 135.135 34.3747C135.566 34.673 135.921 35.0565 136.2 35.5252C136.48 35.994 136.619 36.5693 136.619 37.2511C136.619 38.0371 136.413 38.7473 136.001 39.3818C135.594 40.0162 134.998 40.5205 134.212 40.8946C133.43 41.2686 132.481 41.4556 131.364 41.4556C130.322 41.4556 129.42 41.2875 128.658 40.9514C127.9 40.6152 127.304 40.1464 126.868 39.5451C126.437 38.9438 126.193 38.2454 126.136 37.45H127.955C128.002 37.9992 128.187 38.4537 128.509 38.8136C128.835 39.1687 129.247 39.4339 129.744 39.609C130.246 39.7795 130.786 39.8647 131.364 39.8647C132.036 39.8647 132.64 39.7558 133.175 39.538C133.71 39.3155 134.134 39.0077 134.446 38.6147C134.759 38.217 134.915 37.753 134.915 37.2227C134.915 36.7397 134.78 36.3467 134.51 36.0437C134.24 35.7407 133.885 35.4945 133.445 35.3051C133.004 35.1157 132.528 34.95 132.017 34.8079L130.227 34.2965C129.091 33.9698 128.191 33.5035 127.528 32.8974C126.866 32.2913 126.534 31.4982 126.534 30.5181C126.534 29.7037 126.754 28.9935 127.195 28.3875C127.64 27.7767 128.236 27.3032 128.984 26.967C129.737 26.6261 130.578 26.4556 131.506 26.4556C132.443 26.4556 133.277 26.6237 134.006 26.9599C134.735 27.2913 135.313 27.7459 135.739 28.3235C136.17 28.9012 136.397 29.557 136.42 30.2909H134.716ZM139.288 41.2V30.2909H140.964V41.2H139.288ZM140.14 28.4727C139.814 28.4727 139.532 28.3614 139.295 28.1389C139.063 27.9163 138.947 27.6488 138.947 27.3363C138.947 27.0238 139.063 26.7563 139.295 26.5338C139.532 26.3112 139.814 26.2 140.14 26.2C140.467 26.2 140.746 26.3112 140.978 26.5338C141.215 26.7563 141.333 27.0238 141.333 27.3363C141.333 27.6488 141.215 27.9163 140.978 28.1389C140.746 28.3614 140.467 28.4727 140.14 28.4727ZM148.438 45.5181C147.628 45.5181 146.932 45.414 146.349 45.2056C145.767 45.002 145.282 44.7321 144.893 44.396C144.51 44.0645 144.205 43.7094 143.977 43.3306L145.312 42.3931C145.464 42.592 145.656 42.8193 145.888 43.075C146.12 43.3354 146.437 43.5603 146.839 43.7497C147.247 43.9438 147.779 44.0409 148.438 44.0409C149.318 44.0409 150.045 43.8278 150.618 43.4017C151.191 42.9755 151.477 42.3079 151.477 41.3988V39.1829H151.335C151.212 39.3818 151.037 39.628 150.81 39.9215C150.587 40.2104 150.265 40.4684 149.844 40.6957C149.427 40.9182 148.864 41.0295 148.153 41.0295C147.273 41.0295 146.482 40.8212 145.781 40.4045C145.085 39.9878 144.534 39.3818 144.126 38.5863C143.724 37.7909 143.523 36.825 143.523 35.6886C143.523 34.5712 143.719 33.5982 144.112 32.7696C144.505 31.9362 145.052 31.2923 145.753 30.8377C146.454 30.3785 147.263 30.1488 148.182 30.1488C148.892 30.1488 149.455 30.2672 149.872 30.5039C150.294 30.7359 150.616 31.0011 150.838 31.2994C151.065 31.5929 151.241 31.8344 151.364 32.0238H151.534V30.2909H153.153V41.5125C153.153 42.45 152.94 43.2123 152.514 43.7994C152.093 44.3912 151.525 44.8245 150.81 45.0991C150.099 45.3785 149.309 45.5181 148.438 45.5181ZM148.381 39.5238C149.053 39.5238 149.621 39.3699 150.085 39.0622C150.549 38.7544 150.902 38.3117 151.143 37.734C151.385 37.1564 151.506 36.4651 151.506 35.6602C151.506 34.8742 151.387 34.1805 151.151 33.5792C150.914 32.9779 150.563 32.5068 150.099 32.1659C149.635 31.825 149.063 31.6545 148.381 31.6545C147.67 31.6545 147.079 31.8344 146.605 32.1943C146.136 32.5541 145.784 33.0371 145.547 33.6431C145.315 34.2492 145.199 34.9215 145.199 35.6602C145.199 36.4178 145.317 37.0877 145.554 37.6701C145.795 38.2478 146.151 38.7023 146.619 39.0338C147.093 39.3605 147.68 39.5238 148.381 39.5238ZM157.898 34.6375V41.2H156.222V30.2909H157.841V31.9954H157.983C158.239 31.4414 158.627 30.9964 159.148 30.6602C159.669 30.3193 160.341 30.1488 161.165 30.1488C161.903 30.1488 162.55 30.3003 163.104 30.6034C163.658 30.9017 164.089 31.3562 164.396 31.967C164.704 32.5731 164.858 33.3401 164.858 34.2681V41.2H163.182V34.3818C163.182 33.5248 162.959 32.8571 162.514 32.3789C162.069 31.896 161.458 31.6545 160.682 31.6545C160.147 31.6545 159.669 31.7705 159.247 32.0025C158.83 32.2345 158.501 32.5731 158.26 33.0181C158.018 33.4632 157.898 34.003 157.898 34.6375ZM173.546 41.2V30.2909H175.222V41.2H173.546ZM174.398 28.4727C174.071 28.4727 173.79 28.3614 173.553 28.1389C173.321 27.9163 173.205 27.6488 173.205 27.3363C173.205 27.0238 173.321 26.7563 173.553 26.5338C173.79 26.3112 174.071 26.2 174.398 26.2C174.725 26.2 175.004 26.3112 175.236 26.5338C175.473 26.7563 175.591 27.0238 175.591 27.3363C175.591 27.6488 175.473 27.9163 175.236 28.1389C175.004 28.3614 174.725 28.4727 174.398 28.4727ZM179.968 34.6375V41.2H178.292V30.2909H179.911V31.9954H180.053C180.309 31.4414 180.697 30.9964 181.218 30.6602C181.739 30.3193 182.411 30.1488 183.235 30.1488C183.974 30.1488 184.62 30.3003 185.174 30.6034C185.728 30.9017 186.159 31.3562 186.467 31.967C186.774 32.5731 186.928 33.3401 186.928 34.2681V41.2H185.252V34.3818C185.252 33.5248 185.03 32.8571 184.585 32.3789C184.139 31.896 183.529 31.6545 182.752 31.6545C182.217 31.6545 181.739 31.7705 181.317 32.0025C180.901 32.2345 180.572 32.5731 180.33 33.0181C180.089 33.4632 179.968 34.003 179.968 34.6375ZM198.088 41.2L194.764 30.2909H196.525L198.883 38.6431H198.997L201.326 30.2909H203.116L205.417 38.6147H205.531L207.889 30.2909H209.65L206.326 41.2H204.679L202.292 32.8193H202.122L199.735 41.2H198.088ZM211.866 41.2V30.2909H213.542V41.2H211.866ZM212.718 28.4727C212.392 28.4727 212.11 28.3614 211.873 28.1389C211.641 27.9163 211.525 27.6488 211.525 27.3363C211.525 27.0238 211.641 26.7563 211.873 26.5338C212.11 26.3112 212.392 26.2 212.718 26.2C213.045 26.2 213.324 26.3112 213.556 26.5338C213.793 26.7563 213.912 27.0238 213.912 27.3363C213.912 27.6488 213.793 27.9163 213.556 28.1389C213.324 28.3614 213.045 28.4727 212.718 28.4727ZM221.357 30.2909V31.7113H215.703V30.2909H221.357ZM217.351 27.6772H219.027V38.075C219.027 38.5484 219.096 38.9035 219.233 39.1403C219.375 39.3723 219.555 39.5285 219.773 39.609C219.995 39.6848 220.23 39.7227 220.476 39.7227C220.661 39.7227 220.812 39.7132 220.93 39.6943C221.049 39.6706 221.143 39.6517 221.214 39.6375L221.555 41.1431C221.442 41.1857 221.283 41.2284 221.08 41.271C220.876 41.3183 220.618 41.342 220.305 41.342C219.832 41.342 219.368 41.2402 218.913 41.0366C218.464 40.833 218.089 40.5229 217.791 40.1062C217.498 39.6895 217.351 39.164 217.351 38.5295V27.6772ZM225.788 34.6375V41.2H224.112V26.6545H225.788V31.9954H225.93C226.186 31.432 226.57 30.9845 227.081 30.6531C227.597 30.3169 228.284 30.1488 229.141 30.1488C229.884 30.1488 230.535 30.298 231.094 30.5963C231.652 30.8898 232.086 31.342 232.393 31.9528C232.706 32.5589 232.862 33.3306 232.862 34.2681V41.2H231.186V34.3818C231.186 33.5153 230.961 32.8453 230.511 32.3718C230.066 31.8936 229.448 31.6545 228.658 31.6545C228.108 31.6545 227.616 31.7705 227.18 32.0025C226.75 32.2345 226.409 32.5731 226.158 33.0181C225.911 33.4632 225.788 34.003 225.788 34.6375ZM242.377 41.2H240.531L245.872 26.6545H247.69L253.031 41.2H251.184L246.838 28.9556H246.724L242.377 41.2ZM243.059 35.5181H250.502V37.0806H243.059V35.5181ZM255.069 45.2909V30.2909H256.689V32.0238H256.887C257.011 31.8344 257.181 31.5929 257.399 31.2994C257.621 31.0011 257.939 30.7359 258.35 30.5039C258.767 30.2672 259.331 30.1488 260.041 30.1488C260.959 30.1488 261.769 30.3785 262.47 30.8377C263.171 31.297 263.717 31.9481 264.11 32.7909C264.503 33.6337 264.7 34.628 264.7 35.7738C264.7 36.9291 264.503 37.9305 264.11 38.7781C263.717 39.6209 263.173 40.2743 262.477 40.7383C261.781 41.1976 260.978 41.4272 260.069 41.4272C259.368 41.4272 258.807 41.3112 258.386 41.0792C257.965 40.8425 257.64 40.575 257.413 40.2767C257.186 39.9736 257.011 39.7227 256.887 39.5238H256.745V45.2909H255.069ZM256.717 35.7454C256.717 36.5693 256.838 37.2961 257.079 37.9258C257.321 38.5508 257.673 39.0409 258.137 39.396C258.601 39.7464 259.17 39.9215 259.842 39.9215C260.543 39.9215 261.127 39.7369 261.596 39.3676C262.07 38.9935 262.425 38.4916 262.662 37.8619C262.903 37.2274 263.024 36.5219 263.024 35.7454C263.024 34.9784 262.905 34.2871 262.669 33.6715C262.437 33.0513 262.084 32.5612 261.61 32.2014C261.142 31.8368 260.552 31.6545 259.842 31.6545C259.16 31.6545 258.587 31.8273 258.123 32.173C257.659 32.5139 257.309 32.9921 257.072 33.6076C256.835 34.2184 256.717 34.931 256.717 35.7454ZM267.257 45.2909V30.2909H268.876V32.0238H269.075C269.198 31.8344 269.368 31.5929 269.586 31.2994C269.809 31.0011 270.126 30.7359 270.538 30.5039C270.955 30.2672 271.518 30.1488 272.228 30.1488C273.147 30.1488 273.957 30.3785 274.657 30.8377C275.358 31.297 275.905 31.9481 276.298 32.7909C276.691 33.6337 276.887 34.628 276.887 35.7738C276.887 36.9291 276.691 37.9305 276.298 38.7781C275.905 39.6209 275.36 40.2743 274.664 40.7383C273.968 41.1976 273.166 41.4272 272.257 41.4272C271.556 41.4272 270.995 41.3112 270.574 41.0792C270.152 40.8425 269.828 40.575 269.6 40.2767C269.373 39.9736 269.198 39.7227 269.075 39.5238H268.933V45.2909H267.257ZM268.904 35.7454C268.904 36.5693 269.025 37.2961 269.267 37.9258C269.508 38.5508 269.861 39.0409 270.325 39.396C270.789 39.7464 271.357 39.9215 272.029 39.9215C272.73 39.9215 273.315 39.7369 273.784 39.3676C274.257 38.9935 274.612 38.4916 274.849 37.8619C275.091 37.2274 275.211 36.5219 275.211 35.7454C275.211 34.9784 275.093 34.2871 274.856 33.6715C274.624 33.0513 274.271 32.5612 273.798 32.2014C273.329 31.8368 272.74 31.6545 272.029 31.6545C271.348 31.6545 270.775 31.8273 270.311 32.173C269.847 32.5139 269.496 32.9921 269.26 33.6076C269.023 34.2184 268.904 34.931 268.904 35.7454ZM281.12 26.6545V41.2H279.444V26.6545H281.12ZM288.764 41.4272C287.713 41.4272 286.806 41.1952 286.044 40.7312C285.286 40.2625 284.702 39.609 284.29 38.771C283.883 37.9282 283.679 36.9481 283.679 35.8306C283.679 34.7132 283.883 33.7284 284.29 32.8761C284.702 32.0191 285.275 31.3515 286.009 30.8732C286.747 30.3903 287.609 30.1488 288.594 30.1488C289.162 30.1488 289.723 30.2435 290.277 30.4329C290.831 30.6223 291.335 30.9301 291.79 31.3562C292.244 31.7776 292.607 32.3363 292.876 33.0323C293.146 33.7284 293.281 34.5854 293.281 35.6034V36.3136H284.872V34.8647H291.577C291.577 34.2492 291.454 33.7 291.207 33.217C290.966 32.734 290.62 32.3529 290.17 32.0735C289.725 31.7942 289.2 31.6545 288.594 31.6545C287.926 31.6545 287.348 31.8202 286.861 32.1517C286.378 32.4784 286.006 32.9045 285.746 33.4301C285.485 33.9556 285.355 34.5191 285.355 35.1204V36.0863C285.355 36.9102 285.497 37.6086 285.781 38.1815C286.07 38.7497 286.47 39.1829 286.982 39.4812C287.493 39.7748 288.087 39.9215 288.764 39.9215C289.205 39.9215 289.602 39.86 289.957 39.7369C290.317 39.609 290.627 39.4196 290.888 39.1687C291.148 38.913 291.349 38.5958 291.491 38.217L293.111 38.6715C292.94 39.2208 292.654 39.7037 292.251 40.1204C291.849 40.5323 291.352 40.8543 290.76 41.0863C290.168 41.3136 289.503 41.4272 288.764 41.4272Z" fill="white"/>
<path d="M46.0616 39.7022C45.5013 41.0085 44.809 42.2541 43.9955 43.4196C42.9088 44.9717 42.0164 46.0442 41.3324 46.6412C40.27 47.6166 39.1287 48.1184 37.9085 48.1468C37.0343 48.1468 35.978 47.8979 34.7476 47.392C33.5132 46.8881 32.38 46.6412 31.3419 46.6412C30.2552 46.6412 29.0896 46.8881 27.841 47.392C26.5945 47.8979 25.5867 48.163 24.8157 48.1872C23.6481 48.2378 22.4805 47.7238 21.3169 46.6412C20.5742 45.9936 19.6454 44.8807 18.5304 43.3063C17.3365 41.6287 16.355 39.6759 15.586 37.456C14.7624 35.054 14.3496 32.7309 14.3496 30.4806C14.3496 27.9046 14.9061 25.6806 16.0211 23.8189C16.8644 22.3568 18.0701 21.1365 19.522 20.2756C20.9536 19.4169 22.5879 18.9545 24.2572 18.9359C25.1881 18.9359 26.4083 19.2233 27.9199 19.7899C29.4316 20.3565 30.4029 20.6439 30.8259 20.6439C31.1456 20.6439 32.2201 20.3059 34.0495 19.6361C35.7756 19.0149 37.2326 18.7579 38.4265 18.859C41.6643 19.1201 44.0947 20.395 45.7115 22.6938C42.8178 24.4483 41.3871 26.9029 41.4154 30.0537C41.4397 32.5083 42.3321 34.5501 44.0805 36.171C44.8535 36.9107 45.7554 37.5026 46.7416 37.9174C46.5271 38.5387 46.3004 39.1316 46.0616 39.7022ZM38.641 10.4995C38.641 12.4219 37.9368 14.2189 36.5385 15.8803C34.8468 17.8553 32.8029 18.9987 30.5871 18.8186C30.5581 18.5768 30.5439 18.3335 30.5446 18.0901C30.5446 16.2425 31.3459 14.2675 32.7766 12.6506C33.4889 11.8331 34.3955 11.1511 35.4943 10.6088C36.5911 10.0746 37.6272 9.77911 38.6026 9.72852C38.6289 9.98754 38.641 10.2445 38.641 10.4995Z" fill="white"/>
</svg>
