<svg width="281" height="265" viewBox="0 0 281 265" fill="none" xmlns="http://www.w3.org/2000/svg">
<path d="M278.485 18.2994H261.966C260.582 18.2994 259.454 17.1943 259.454 15.8236V14.3453C259.454 8.60429 254.729 3.9469 248.905 3.9469H10.5491C4.72489 3.9469 0 8.60429 0 14.3453V67.8156C0 73.5566 4.72489 78.214 10.5491 78.214H248.905C254.729 78.214 259.454 73.5566 259.454 67.8156V42.017C259.454 41.3137 259.76 40.6463 260.291 40.1727L280.159 22.6052C281.877 21.0982 280.785 18.2994 278.485 18.2994Z" fill="#F4F4F4"/>
<path d="M278.485 14.3525H261.966C260.582 14.3525 259.454 13.2474 259.454 11.8767V10.3984C259.454 4.65739 254.729 0 248.905 0H10.5491C4.72489 0 0 4.65739 0 10.3984V63.8687C0 69.6097 4.72489 74.2671 10.5491 74.2671H248.905C254.729 74.2671 259.454 69.6097 259.454 63.8687V38.0701C259.454 37.3668 259.76 36.6994 260.291 36.2258L280.159 18.6583C281.877 17.1513 280.785 14.3525 278.485 14.3525Z" fill="#4C2A6E"/>
<path d="M109.75 33.4126C109.553 33.4126 109.364 33.3624 109.189 33.2763L105.178 31.1952C105.12 31.1665 105.054 31.1449 104.981 31.1449C104.916 31.1449 104.85 31.1593 104.785 31.1952L100.773 33.2763C100.599 33.3696 100.409 33.4126 100.213 33.4126C99.856 33.4126 99.5211 33.2547 99.2881 32.982C99.0624 32.7165 98.9605 32.3649 99.026 32.0133L99.7905 27.6142C99.8123 27.4779 99.7686 27.3415 99.674 27.2482L96.427 24.1337C96.0921 23.818 95.9756 23.3443 96.1212 22.9138C96.2668 22.476 96.6381 22.1674 97.0968 22.1028L101.581 21.4642C101.72 21.4426 101.836 21.3637 101.894 21.2417L103.897 17.2373C104.1 16.8283 104.515 16.5699 104.981 16.5699C105.447 16.5699 105.862 16.8211 106.066 17.2373L108.068 21.2417C108.126 21.3637 108.243 21.4498 108.381 21.4642L112.866 22.1028C113.324 22.1674 113.696 22.4832 113.841 22.9138C113.987 23.3515 113.87 23.818 113.536 24.1337L110.289 27.2482C110.187 27.3415 110.143 27.4779 110.172 27.6142L110.937 32.0133C110.995 32.3577 110.9 32.7165 110.674 32.982C110.449 33.2547 110.107 33.4126 109.75 33.4126Z" fill="#92D9DC"/>
<path d="M109.75 32.6304C109.553 32.6304 109.364 32.5802 109.189 32.494L105.178 30.4129C105.12 30.3842 105.054 30.3627 104.981 30.3627C104.916 30.3627 104.85 30.3771 104.785 30.4129L100.773 32.494C100.599 32.5873 100.409 32.6304 100.213 32.6304C99.856 32.6304 99.5211 32.4725 99.2881 32.1998C99.0624 31.9343 98.9605 31.5827 99.026 31.231L99.7905 26.832C99.8123 26.6956 99.7686 26.5593 99.674 26.466L96.427 23.3515C96.0921 23.0357 95.9756 22.5621 96.1212 22.1315C96.2668 21.6938 96.6381 21.3852 97.0968 21.3206L101.581 20.6819C101.72 20.6604 101.836 20.5815 101.894 20.4595L103.897 16.4551C104.1 16.0461 104.515 15.7877 104.981 15.7877C105.447 15.7877 105.862 16.0389 106.066 16.4551L108.068 20.4595C108.126 20.5815 108.243 20.6676 108.381 20.6819L112.866 21.3206C113.324 21.3852 113.696 21.701 113.841 22.1315C113.987 22.5693 113.87 23.0357 113.536 23.3515L110.289 26.466C110.187 26.5593 110.143 26.6956 110.172 26.832L110.937 31.231C110.995 31.5755 110.9 31.9343 110.674 32.1998C110.449 32.4725 110.107 32.6304 109.75 32.6304Z" fill="white"/>
<path d="M105.717 16.613L107.719 20.6173C107.835 20.8542 108.068 21.0192 108.33 21.0551L112.815 21.701C113.485 21.7942 113.747 22.6052 113.266 23.0716L110.019 26.1861C109.83 26.3727 109.743 26.6382 109.786 26.8966L110.551 31.2956C110.667 31.9486 109.968 32.451 109.371 32.1424L105.36 30.0613C105.12 29.9393 104.843 29.9393 104.603 30.0613L100.591 32.1424C99.9944 32.451 99.2955 31.9486 99.412 31.2956L100.176 26.8966C100.22 26.6382 100.133 26.3727 99.9434 26.1861L96.6964 23.0716C96.2159 22.6052 96.478 21.8014 97.1478 21.701L101.632 21.0551C101.895 21.0192 102.128 20.8542 102.244 20.6173L104.246 16.613C104.552 16.0174 105.418 16.0174 105.717 16.613Z" fill="#FFE544"/>
<path d="M109.786 26.8966C109.742 26.6383 109.83 26.3727 110.019 26.1862L112.625 23.6816C110.645 24.5643 107.952 25.1097 104.981 25.1097C102.011 25.1097 99.3171 24.5643 97.3369 23.6816L99.9432 26.1862C100.133 26.3727 100.22 26.6383 100.176 26.8966L99.4118 31.2957C99.2953 31.9487 99.9942 32.451 100.591 32.1425L104.603 30.0613C104.843 29.9393 105.12 29.9393 105.36 30.0613L109.371 32.1425C109.968 32.451 110.667 31.9487 110.551 31.2957L109.786 26.8966Z" fill="#FFCC44"/>
<path d="M135.777 33.4126C135.58 33.4126 135.391 33.3624 135.216 33.2763L131.205 31.1952C131.147 31.1665 131.081 31.1449 131.008 31.1449C130.943 31.1449 130.877 31.1593 130.812 31.1952L126.8 33.2763C126.626 33.3696 126.436 33.4126 126.24 33.4126C125.883 33.4126 125.548 33.2547 125.315 32.982C125.09 32.7165 124.988 32.3649 125.053 32.0133L125.818 27.6142C125.839 27.4779 125.796 27.3415 125.701 27.2482L122.454 24.1337C122.119 23.818 122.003 23.3443 122.148 22.9138C122.294 22.476 122.665 22.1674 123.124 22.1028L127.609 21.4642C127.747 21.4426 127.863 21.3637 127.922 21.2417L129.924 17.2373C130.127 16.8283 130.542 16.5699 131.008 16.5699C131.474 16.5699 131.889 16.8211 132.093 17.2373L134.095 21.2417C134.153 21.3637 134.27 21.4498 134.408 21.4642L138.893 22.1028C139.352 22.1674 139.723 22.4832 139.868 22.9138C140.014 23.3515 139.898 23.818 139.563 24.1337L136.316 27.2482C136.214 27.3415 136.17 27.4779 136.199 27.6142L136.964 32.0133C137.022 32.3577 136.927 32.7165 136.702 32.982C136.476 33.2547 136.134 33.4126 135.777 33.4126Z" fill="#92D9DC"/>
<path d="M135.777 32.6304C135.58 32.6304 135.391 32.5802 135.216 32.494L131.205 30.4129C131.147 30.3842 131.081 30.3627 131.008 30.3627C130.943 30.3627 130.877 30.3771 130.812 30.4129L126.8 32.494C126.626 32.5873 126.436 32.6304 126.24 32.6304C125.883 32.6304 125.548 32.4725 125.315 32.1998C125.09 31.9343 124.988 31.5827 125.053 31.231L125.818 26.832C125.839 26.6956 125.796 26.5593 125.701 26.466L122.454 23.3515C122.119 23.0357 122.003 22.5621 122.148 22.1315C122.294 21.6938 122.665 21.3852 123.124 21.3206L127.609 20.6819C127.747 20.6604 127.863 20.5815 127.922 20.4595L129.924 16.4551C130.127 16.0461 130.542 15.7877 131.008 15.7877C131.474 15.7877 131.889 16.0389 132.093 16.4551L134.095 20.4595C134.153 20.5815 134.27 20.6676 134.408 20.6819L138.893 21.3206C139.352 21.3852 139.723 21.701 139.868 22.1315C140.014 22.5693 139.898 23.0357 139.563 23.3515L136.316 26.466C136.214 26.5593 136.17 26.6956 136.199 26.832L136.964 31.231C137.022 31.5755 136.927 31.9343 136.702 32.1998C136.476 32.4725 136.134 32.6304 135.777 32.6304Z" fill="white"/>
<path d="M131.744 16.613L133.746 20.6173C133.862 20.8542 134.095 21.0192 134.357 21.0551L138.842 21.701C139.512 21.7942 139.774 22.6052 139.293 23.0716L136.046 26.1861C135.857 26.3727 135.77 26.6382 135.813 26.8966L136.578 31.2956C136.694 31.9486 135.995 32.451 135.398 32.1424L131.387 30.0613C131.147 29.9393 130.87 29.9393 130.63 30.0613L126.618 32.1424C126.021 32.451 125.323 31.9486 125.439 31.2956L126.203 26.8966C126.247 26.6382 126.16 26.3727 125.971 26.1861L122.724 23.0716C122.243 22.6052 122.505 21.8014 123.175 21.701L127.66 21.0551C127.922 21.0192 128.155 20.8542 128.271 20.6173L130.273 16.613C130.579 16.0174 131.445 16.0174 131.744 16.613Z" fill="#FFE544"/>
<path d="M135.813 26.8966C135.77 26.6383 135.857 26.3727 136.046 26.1862L138.653 23.6816C136.672 24.5643 133.979 25.1097 131.008 25.1097C128.038 25.1097 125.344 24.5643 123.364 23.6816L125.97 26.1862C126.16 26.3727 126.247 26.6383 126.203 26.8966L125.439 31.2957C125.322 31.9487 126.021 32.451 126.618 32.1425L130.63 30.0613C130.87 29.9393 131.147 29.9393 131.387 30.0613L135.398 32.1425C135.995 32.451 136.694 31.9487 136.578 31.2957L135.813 26.8966Z" fill="#FFCC44"/>
<path d="M161.804 33.4126C161.607 33.4126 161.418 33.3624 161.243 33.2763L157.232 31.1952C157.174 31.1665 157.108 31.1449 157.035 31.1449C156.97 31.1449 156.904 31.1593 156.839 31.1952L152.827 33.2763C152.653 33.3696 152.463 33.4126 152.267 33.4126C151.91 33.4126 151.575 33.2547 151.342 32.982C151.117 32.7165 151.015 32.3649 151.08 32.0133L151.845 27.6142C151.866 27.4779 151.823 27.3415 151.728 27.2482L148.481 24.1337C148.146 23.818 148.03 23.3443 148.175 22.9138C148.321 22.476 148.692 22.1674 149.151 22.1028L153.636 21.4642C153.774 21.4426 153.89 21.3637 153.949 21.2417L155.951 17.2373C156.155 16.8283 156.57 16.5699 157.035 16.5699C157.501 16.5699 157.916 16.8211 158.12 17.2373L160.122 21.2417C160.181 21.3637 160.297 21.4498 160.435 21.4642L164.92 22.1028C165.379 22.1674 165.75 22.4832 165.896 22.9138C166.041 23.3515 165.925 23.818 165.59 24.1337L162.343 27.2482C162.241 27.3415 162.197 27.4779 162.226 27.6142L162.991 32.0133C163.049 32.3577 162.954 32.7165 162.729 32.982C162.503 33.2547 162.161 33.4126 161.804 33.4126Z" fill="#92D9DC"/>
<path d="M161.804 32.6304C161.607 32.6304 161.418 32.5802 161.243 32.494L157.232 30.4129C157.174 30.3842 157.108 30.3627 157.035 30.3627C156.97 30.3627 156.904 30.3771 156.839 30.4129L152.827 32.494C152.653 32.5873 152.463 32.6304 152.267 32.6304C151.91 32.6304 151.575 32.4725 151.342 32.1998C151.117 31.9343 151.015 31.5827 151.08 31.231L151.845 26.832C151.866 26.6956 151.823 26.5593 151.728 26.466L148.481 23.3515C148.146 23.0357 148.03 22.5621 148.175 22.1315C148.321 21.6938 148.692 21.3852 149.151 21.3206L153.636 20.6819C153.774 20.6604 153.89 20.5815 153.949 20.4595L155.951 16.4551C156.155 16.0461 156.57 15.7877 157.035 15.7877C157.501 15.7877 157.916 16.0389 158.12 16.4551L160.122 20.4595C160.181 20.5815 160.297 20.6676 160.435 20.6819L164.92 21.3206C165.379 21.3852 165.75 21.701 165.896 22.1315C166.041 22.5693 165.925 23.0357 165.59 23.3515L162.343 26.466C162.241 26.5593 162.197 26.6956 162.226 26.832L162.991 31.231C163.049 31.5755 162.954 31.9343 162.729 32.1998C162.503 32.4725 162.161 32.6304 161.804 32.6304Z" fill="white"/>
<path d="M157.771 16.613L159.773 20.6173C159.889 20.8542 160.122 21.0192 160.384 21.0551L164.869 21.701C165.539 21.7942 165.801 22.6052 165.32 23.0716L162.073 26.1861C161.884 26.3727 161.797 26.6382 161.84 26.8966L162.605 31.2956C162.721 31.9486 162.022 32.451 161.425 32.1424L157.414 30.0613C157.174 29.9393 156.897 29.9393 156.657 30.0613L152.645 32.1424C152.048 32.451 151.349 31.9486 151.466 31.2956L152.23 26.8966C152.274 26.6382 152.187 26.3727 151.997 26.1861L148.75 23.0716C148.27 22.6052 148.532 21.8014 149.202 21.701L153.686 21.0551C153.948 21.0192 154.181 20.8542 154.298 20.6173L156.3 16.613C156.606 16.0174 157.472 16.0174 157.771 16.613Z" fill="#FFE544"/>
<path d="M161.84 26.8966C161.797 26.6383 161.884 26.3727 162.073 26.1862L164.68 23.6816C162.699 24.5643 160.006 25.1097 157.035 25.1097C154.065 25.1097 151.371 24.5643 149.391 23.6816L151.997 26.1862C152.187 26.3727 152.274 26.6383 152.23 26.8966L151.466 31.2957C151.35 31.9487 152.048 32.451 152.645 32.1425L156.657 30.0613C156.897 29.9393 157.174 29.9393 157.414 30.0613L161.425 32.1425C162.022 32.451 162.721 31.9487 162.605 31.2957L161.84 26.8966Z" fill="#FFCC44"/>
<path d="M187.831 33.4126C187.634 33.4126 187.445 33.3624 187.27 33.2763L183.259 31.1952C183.201 31.1665 183.135 31.1449 183.062 31.1449C182.997 31.1449 182.931 31.1593 182.866 31.1952L178.854 33.2763C178.68 33.3696 178.49 33.4126 178.294 33.4126C177.937 33.4126 177.602 33.2547 177.369 32.982C177.143 32.7165 177.042 32.3649 177.107 32.0133L177.872 27.6142C177.893 27.4779 177.85 27.3415 177.755 27.2482L174.508 24.1337C174.173 23.818 174.057 23.3443 174.202 22.9138C174.348 22.476 174.719 22.1674 175.178 22.1028L179.662 21.4642C179.801 21.4426 179.917 21.3637 179.976 21.2417L181.978 17.2373C182.181 16.8283 182.596 16.5699 183.062 16.5699C183.528 16.5699 183.943 16.8211 184.147 17.2373L186.149 21.2417C186.207 21.3637 186.324 21.4498 186.462 21.4642L190.947 22.1028C191.406 22.1674 191.777 22.4832 191.922 22.9138C192.068 23.3515 191.952 23.818 191.617 24.1337L188.37 27.2482C188.268 27.3415 188.224 27.4779 188.253 27.6142L189.018 32.0133C189.076 32.3577 188.981 32.7165 188.756 32.982C188.53 33.2547 188.188 33.4126 187.831 33.4126Z" fill="#92D9DC"/>
<path d="M187.831 32.6304C187.634 32.6304 187.445 32.5802 187.27 32.494L183.259 30.4129C183.201 30.3842 183.135 30.3627 183.062 30.3627C182.997 30.3627 182.931 30.3771 182.866 30.4129L178.854 32.494C178.68 32.5873 178.49 32.6304 178.294 32.6304C177.937 32.6304 177.602 32.4725 177.369 32.1998C177.143 31.9343 177.042 31.5827 177.107 31.231L177.872 26.832C177.893 26.6956 177.85 26.5593 177.755 26.466L174.508 23.3515C174.173 23.0357 174.057 22.5621 174.202 22.1315C174.348 21.6938 174.719 21.3852 175.178 21.3206L179.662 20.6819C179.801 20.6604 179.917 20.5815 179.976 20.4595L181.978 16.4551C182.181 16.0461 182.596 15.7877 183.062 15.7877C183.528 15.7877 183.943 16.0389 184.147 16.4551L186.149 20.4595C186.207 20.5815 186.324 20.6676 186.462 20.6819L190.947 21.3206C191.406 21.3852 191.777 21.701 191.922 22.1315C192.068 22.5693 191.952 23.0357 191.617 23.3515L188.37 26.466C188.268 26.5593 188.224 26.6956 188.253 26.832L189.018 31.231C189.076 31.5755 188.981 31.9343 188.756 32.1998C188.53 32.4725 188.188 32.6304 187.831 32.6304Z" fill="white"/>
<path d="M183.798 16.613L185.8 20.6173C185.916 20.8542 186.149 21.0192 186.411 21.0551L190.896 21.701C191.566 21.7942 191.828 22.6052 191.347 23.0716L188.1 26.1861C187.911 26.3727 187.824 26.6382 187.867 26.8966L188.632 31.2956C188.748 31.9486 188.049 32.451 187.452 32.1424L183.441 30.0613C183.201 29.9393 182.924 29.9393 182.684 30.0613L178.672 32.1424C178.075 32.451 177.377 31.9486 177.493 31.2956L178.257 26.8966C178.301 26.6382 178.214 26.3727 178.024 26.1861L174.777 23.0716C174.297 22.6052 174.559 21.8014 175.229 21.701L179.713 21.0551C179.976 21.0192 180.209 20.8542 180.325 20.6173L182.327 16.613C182.633 16.0174 183.499 16.0174 183.798 16.613Z" fill="#FFE544"/>
<path d="M187.867 26.8966C187.824 26.6383 187.911 26.3727 188.1 26.1862L190.707 23.6816C188.726 24.5643 186.033 25.1097 183.062 25.1097C180.092 25.1097 177.398 24.5643 175.418 23.6816L178.024 26.1862C178.214 26.3727 178.301 26.6383 178.257 26.8966L177.493 31.2957C177.376 31.9487 178.075 32.451 178.672 32.1425L182.684 30.0613C182.924 29.9393 183.201 29.9393 183.441 30.0613L187.452 32.1425C188.049 32.451 188.748 31.9487 188.632 31.2957L187.867 26.8966Z" fill="#FFCC44"/>
<path d="M213.858 33.4126C213.661 33.4126 213.472 33.3624 213.297 33.2763L209.286 31.1952C209.228 31.1665 209.162 31.1449 209.089 31.1449C209.024 31.1449 208.958 31.1593 208.893 31.1952L204.881 33.2763C204.706 33.3696 204.517 33.4126 204.321 33.4126C203.964 33.4126 203.629 33.2547 203.396 32.982C203.17 32.7165 203.068 32.3649 203.134 32.0133L203.898 27.6142C203.92 27.4779 203.877 27.3415 203.782 27.2482L200.535 24.1337C200.2 23.818 200.084 23.3443 200.229 22.9138C200.375 22.476 200.746 22.1674 201.205 22.1028L205.689 21.4642C205.828 21.4426 205.944 21.3637 206.002 21.2417L208.004 17.2373C208.208 16.8283 208.623 16.5699 209.089 16.5699C209.555 16.5699 209.97 16.8211 210.174 17.2373L212.176 21.2417C212.234 21.3637 212.351 21.4498 212.489 21.4642L216.974 22.1028C217.432 22.1674 217.804 22.4832 217.949 22.9138C218.095 23.3515 217.978 23.818 217.643 24.1337L214.397 27.2482C214.295 27.3415 214.251 27.4779 214.28 27.6142L215.044 32.0133C215.103 32.3577 215.008 32.7165 214.782 32.982C214.557 33.2547 214.214 33.4126 213.858 33.4126Z" fill="#92D9DC"/>
<path d="M213.858 32.6304C213.661 32.6304 213.472 32.5802 213.297 32.494L209.286 30.4129C209.228 30.3842 209.162 30.3627 209.089 30.3627C209.024 30.3627 208.958 30.3771 208.893 30.4129L204.881 32.494C204.706 32.5873 204.517 32.6304 204.321 32.6304C203.964 32.6304 203.629 32.4725 203.396 32.1998C203.17 31.9343 203.068 31.5827 203.134 31.231L203.898 26.832C203.92 26.6956 203.877 26.5593 203.782 26.466L200.535 23.3515C200.2 23.0357 200.084 22.5621 200.229 22.1315C200.375 21.6938 200.746 21.3852 201.205 21.3206L205.689 20.6819C205.828 20.6604 205.944 20.5815 206.002 20.4595L208.004 16.4551C208.208 16.0461 208.623 15.7877 209.089 15.7877C209.555 15.7877 209.97 16.0389 210.174 16.4551L212.176 20.4595C212.234 20.5815 212.351 20.6676 212.489 20.6819L216.974 21.3206C217.432 21.3852 217.804 21.701 217.949 22.1315C218.095 22.5693 217.978 23.0357 217.643 23.3515L214.397 26.466C214.295 26.5593 214.251 26.6956 214.28 26.832L215.044 31.231C215.103 31.5755 215.008 31.9343 214.782 32.1998C214.557 32.4725 214.214 32.6304 213.858 32.6304Z" fill="white"/>
<path d="M209.825 16.613L211.827 20.6173C211.943 20.8542 212.176 21.0192 212.438 21.0551L216.923 21.701C217.593 21.7942 217.855 22.6052 217.374 23.0716L214.127 26.1861C213.938 26.3727 213.851 26.6382 213.894 26.8966L214.659 31.2956C214.775 31.9486 214.076 32.451 213.479 32.1424L209.468 30.0613C209.228 29.9393 208.951 29.9393 208.711 30.0613L204.699 32.1424C204.102 32.451 203.403 31.9486 203.52 31.2956L204.284 26.8966C204.328 26.6382 204.241 26.3727 204.051 26.1861L200.804 23.0716C200.324 22.6052 200.586 21.8014 201.256 21.701L205.74 21.0551C206.002 21.0192 206.235 20.8542 206.352 20.6173L208.354 16.613C208.66 16.0174 209.526 16.0174 209.825 16.613Z" fill="#FFE544"/>
<path d="M213.894 26.8966C213.851 26.6383 213.938 26.3727 214.127 26.1862L216.734 23.6816C214.753 24.5643 212.06 25.1097 209.089 25.1097C206.119 25.1097 203.425 24.5643 201.445 23.6816L204.051 26.1862C204.241 26.3727 204.328 26.6383 204.284 26.8966L203.52 31.2957C203.403 31.9487 204.102 32.451 204.699 32.1425L208.711 30.0613C208.951 29.9393 209.228 29.9393 209.468 30.0613L213.479 32.1425C214.076 32.451 214.775 31.9487 214.659 31.2957L213.894 26.8966Z" fill="#FFCC44"/>
<path d="M46.0915 60.2733C57.9528 60.2733 67.5683 50.7952 67.5683 39.1033C67.5683 27.4115 57.9528 17.9333 46.0915 17.9333C34.2302 17.9333 24.6147 27.4115 24.6147 39.1033C24.6147 50.7952 34.2302 60.2733 46.0915 60.2733Z" fill="white"/>
<path d="M46.0914 64.0768C32.1206 64.0768 20.7561 52.8746 20.7561 39.1034C20.7561 25.3321 32.1206 14.13 46.0914 14.13C60.0622 14.13 71.4267 25.3321 71.4267 39.1034C71.4267 52.8746 60.0622 64.0768 46.0914 64.0768ZM46.0914 14.9122C32.5574 14.9122 21.5424 25.7627 21.5424 39.1106C21.5424 52.4584 32.5501 63.3089 46.0914 63.3089C59.6327 63.3089 70.6405 52.4584 70.6405 39.1106C70.6405 25.7627 59.6254 14.9122 46.0914 14.9122Z" fill="white"/>
<mask id="mask0_1_2991" style="mask-type:luminance" maskUnits="userSpaceOnUse" x="27" y="21" width="38" height="36">
<path d="M46.0912 56.9364C56.0828 56.9364 64.1827 48.9523 64.1827 39.1034C64.1827 29.2545 56.0828 21.2704 46.0912 21.2704C36.0996 21.2704 27.9998 29.2545 27.9998 39.1034C27.9998 48.9523 36.0996 56.9364 46.0912 56.9364Z" fill="white"/>
</mask>
<g mask="url(#mask0_1_2991)">
<path d="M57.7977 33.1902C56.48 25.6192 52.556 21.988 46.0911 21.988C39.6262 21.988 35.7094 25.6192 34.3844 33.1902C33.8748 36.1253 32.8701 43.4235 32.8701 43.4235C35.0032 45.5908 42.7276 46.8251 46.0911 46.8251C49.4546 46.8251 57.1789 45.5908 59.312 43.4235C59.312 43.4235 58.3074 36.1253 57.7977 33.1902Z" fill="#FFC149"/>
<path opacity="0.2" d="M55.3732 32.7166C56.2104 39.0101 51.9296 45.0167 46.0909 45.0167C40.2521 45.0167 35.9786 39.0173 36.8085 32.7166C37.5147 27.3846 41.6281 23.6171 46.0909 23.6171C50.5537 23.6242 54.667 27.3846 55.3732 32.7166Z" fill="#FFC149"/>
<path d="M48.6173 44.3923V41.9165H43.5648V44.3923C43.5648 45.4113 42.7276 46.2366 41.6938 46.2366H37.4348V53.3913H54.7327V46.2366H50.4738C49.4545 46.2366 48.6173 45.4113 48.6173 44.3923Z" fill="#FFEDD2"/>
<path d="M38.6652 36.5416C38.92 37.4673 38.5633 38.3643 37.8644 38.5509C37.1655 38.7375 36.401 38.1419 36.1462 37.2161C35.8914 36.2904 36.2481 35.3934 36.947 35.2068C37.6387 35.0202 38.4104 35.6158 38.6652 36.5416Z" fill="#FFEDD2"/>
<path d="M53.5168 36.5416C53.262 37.4673 53.6187 38.3643 54.3177 38.5509C55.0166 38.7375 55.781 38.1419 56.0358 37.2161C56.2906 36.2904 55.9339 35.3934 55.235 35.2068C54.5433 35.0202 53.7716 35.6158 53.5168 36.5416Z" fill="#FFEDD2"/>
<path d="M38.9856 36.642C39.2258 37.2878 38.8837 37.9193 38.2212 38.0485C37.5587 38.1777 36.8161 37.7615 36.5758 37.1156C36.3356 36.4697 36.6777 35.8382 37.3402 35.709C38.0028 35.5799 38.7381 35.9961 38.9856 36.642Z" fill="#FFEDD2"/>
<path d="M53.204 36.642C52.9638 37.2878 53.3059 37.9193 53.9684 38.0485C54.6309 38.1777 55.3735 37.7615 55.6138 37.1156C55.854 36.4697 55.5118 35.8382 54.8493 35.709C54.1796 35.5799 53.4442 35.9961 53.204 36.642Z" fill="#FFEDD2"/>
<path d="M56.3194 47.3991C56.101 46.7102 55.4531 46.2366 54.7178 46.2366H50.4952C50.3351 47.5211 48.2165 51.5901 46.098 51.5901C43.9794 51.5901 41.8608 47.5283 41.7007 46.2366H37.4781C36.7428 46.2366 36.0949 46.7102 35.8765 47.3991L32.8843 56.9364H59.3262L56.3194 47.3991Z" fill="#FFA4C2"/>
<path d="M43.5649 41.9165V44.3923C43.5649 44.6937 43.4848 44.9736 43.3538 45.2248C44.2274 45.5262 45.1447 45.6912 46.0911 45.6912C47.0376 45.6912 47.9549 45.5262 48.8285 45.2248C48.6975 44.9736 48.6174 44.6937 48.6174 44.3923V41.9165H43.5649Z" fill="#FFEDD2"/>
<path d="M46.091 44.055C51.0124 44.055 55.002 39.4799 55.002 33.8361C55.002 28.1923 51.0124 23.6171 46.091 23.6171C41.1695 23.6171 37.1799 28.1923 37.1799 33.8361C37.1799 39.4799 41.1695 44.055 46.091 44.055Z" fill="#FFEDD2"/>
<path d="M46.0911 32.939C50.6486 32.939 54.7255 33.3983 57.4847 35.7162C55.9195 26.4517 52.1119 21.9952 46.0911 21.9952C40.0703 21.9952 36.2628 26.4517 34.6975 35.7162C37.4567 33.3983 41.5337 32.939 46.0911 32.939Z" fill="#FFC149"/>
<path d="M39.4005 35.2354C39.3496 35.2354 39.2913 35.2138 39.2477 35.1708C39.1676 35.0847 39.1676 34.9555 39.2549 34.8694C39.3132 34.812 40.7547 33.47 43.4702 34.0226C43.5867 34.0441 43.6595 34.1589 43.6377 34.2737C43.6158 34.3886 43.4993 34.4603 43.3828 34.4388C40.9003 33.9365 39.6044 35.1277 39.5534 35.178C39.5097 35.2138 39.4588 35.2354 39.4005 35.2354Z" fill="#B5663A"/>
<path d="M42.0578 35.709C41.7957 35.709 41.57 35.8166 41.4026 35.9889C41.2497 35.9889 41.0604 35.9602 40.842 35.8525C40.7474 35.8094 40.6309 35.8453 40.5872 35.9386C40.5435 36.0319 40.5799 36.1467 40.6745 36.1898C40.8638 36.2831 41.0386 36.3333 41.1915 36.3548C41.1696 36.4338 41.1478 36.5199 41.1478 36.606C41.1478 37.1012 41.5555 37.503 42.0578 37.503C42.5601 37.503 42.9678 37.1012 42.9678 36.606C42.9678 36.1109 42.5601 35.709 42.0578 35.709Z" fill="#B5663A"/>
<path d="M52.6506 35.2354C52.7016 35.2354 52.7598 35.2138 52.8035 35.1708C52.8836 35.0847 52.8836 34.9555 52.7963 34.8694C52.738 34.812 51.2965 33.47 48.581 34.0226C48.4645 34.0441 48.3917 34.1589 48.4135 34.2737C48.4354 34.3886 48.5519 34.4603 48.6683 34.4388C51.1509 33.9365 52.4468 35.1277 52.4978 35.178C52.5414 35.2138 52.5924 35.2354 52.6506 35.2354Z" fill="#B5663A"/>
<path d="M49.9862 35.709C50.2483 35.709 50.474 35.8166 50.6414 35.9889C50.7943 35.9889 50.9836 35.9602 51.202 35.8525C51.2967 35.8094 51.4131 35.8453 51.4568 35.9386C51.5005 36.0319 51.4641 36.1467 51.3695 36.1898C51.1802 36.2831 51.0054 36.3333 50.8526 36.3548C50.8744 36.4338 50.8962 36.5199 50.8962 36.606C50.8962 37.1012 50.4885 37.503 49.9862 37.503C49.4839 37.503 49.0762 37.1012 49.0762 36.606C49.0835 36.1109 49.4911 35.709 49.9862 35.709Z" fill="#B5663A"/>
<path d="M47.649 40.0076C47.649 40.3377 46.972 41.163 46.142 41.163C45.3121 41.163 44.635 40.3305 44.635 40.0076C44.635 39.6775 45.3121 39.9789 46.142 39.9789C46.972 39.9789 47.649 39.6775 47.649 40.0076Z" fill="#FFA4C2"/>
</g>
<path d="M278.485 111.634H261.966C260.582 111.634 259.454 110.529 259.454 109.158V107.68C259.454 101.939 254.729 97.2814 248.905 97.2814H10.5491C4.72489 97.2814 0 101.939 0 107.68V161.15C0 166.891 4.72489 171.548 10.5491 171.548H248.905C254.729 171.548 259.454 166.891 259.454 161.15V135.359C259.454 134.655 259.76 133.988 260.291 133.514L280.159 115.947C281.877 114.433 280.785 111.634 278.485 111.634Z" fill="#F4F4F4"/>
<path d="M278.485 107.687H261.966C260.582 107.687 259.454 106.582 259.454 105.211V103.733C259.454 97.9919 254.729 93.3345 248.905 93.3345H10.5491C4.72489 93.3345 0 97.9919 0 103.733V157.203C0 162.944 4.72489 167.602 10.5491 167.602H248.905C254.729 167.602 259.454 162.944 259.454 157.203V131.412C259.454 130.708 259.76 130.041 260.291 129.567L280.159 112C281.877 110.486 280.785 107.687 278.485 107.687Z" fill="#4C2A6E"/>
<path d="M109.75 126.747C109.553 126.747 109.364 126.697 109.189 126.611L105.178 124.53C105.12 124.501 105.054 124.479 104.981 124.479C104.916 124.479 104.85 124.494 104.785 124.53L100.773 126.611C100.599 126.704 100.409 126.747 100.213 126.747C99.856 126.747 99.5211 126.589 99.2881 126.317C99.0624 126.051 98.9605 125.699 99.026 125.348L99.7905 120.949C99.8123 120.812 99.7686 120.676 99.674 120.583L96.427 117.468C96.0921 117.152 95.9756 116.679 96.1212 116.248C96.2668 115.81 96.6381 115.502 97.0968 115.437L101.581 114.799C101.72 114.777 101.836 114.698 101.894 114.576L103.897 110.572C104.1 110.163 104.515 109.904 104.981 109.904C105.447 109.904 105.862 110.156 106.066 110.572L108.068 114.576C108.126 114.698 108.243 114.784 108.381 114.799L112.866 115.437C113.324 115.502 113.696 115.818 113.841 116.248C113.987 116.686 113.87 117.152 113.536 117.468L110.289 120.583C110.187 120.676 110.143 120.812 110.172 120.949L110.937 125.348C110.995 125.692 110.9 126.051 110.674 126.317C110.449 126.596 110.107 126.747 109.75 126.747Z" fill="#92D9DC"/>
<path d="M109.75 125.972C109.553 125.972 109.364 125.922 109.189 125.836L105.178 123.755C105.12 123.726 105.054 123.704 104.981 123.704C104.916 123.704 104.85 123.719 104.785 123.755L100.773 125.836C100.599 125.929 100.409 125.972 100.213 125.972C99.856 125.972 99.5211 125.814 99.2881 125.541C99.0624 125.276 98.9605 124.924 99.026 124.573L99.7905 120.174C99.8123 120.037 99.7686 119.901 99.674 119.808L96.427 116.693C96.0921 116.377 95.9756 115.904 96.1212 115.473C96.2668 115.035 96.6381 114.727 97.0968 114.662L101.581 114.024C101.72 114.002 101.836 113.923 101.894 113.801L103.897 109.797C104.1 109.388 104.515 109.129 104.981 109.129C105.447 109.129 105.862 109.381 106.066 109.797L108.068 113.801C108.126 113.923 108.243 114.009 108.381 114.024L112.866 114.662C113.324 114.727 113.696 115.043 113.841 115.473C113.987 115.911 113.87 116.377 113.536 116.693L110.289 119.808C110.187 119.901 110.143 120.037 110.172 120.174L110.937 124.573C110.995 124.917 110.9 125.276 110.674 125.541C110.449 125.814 110.107 125.972 109.75 125.972Z" fill="white"/>
<path d="M105.717 109.955L107.719 113.959C107.835 114.196 108.068 114.361 108.33 114.397L112.815 115.035C113.485 115.129 113.747 115.94 113.266 116.406L110.019 119.521C109.83 119.707 109.743 119.973 109.786 120.231L110.551 124.63C110.667 125.283 109.968 125.785 109.371 125.477L105.36 123.396C105.12 123.274 104.843 123.274 104.603 123.396L100.591 125.477C99.9944 125.785 99.2955 125.283 99.412 124.63L100.176 120.231C100.22 119.973 100.133 119.707 99.9434 119.521L96.6964 116.406C96.2159 115.94 96.478 115.136 97.1478 115.035L101.632 114.397C101.895 114.361 102.128 114.196 102.244 113.959L104.246 109.955C104.552 109.359 105.418 109.359 105.717 109.955Z" fill="#FFE544"/>
<path d="M109.786 120.238C109.742 119.98 109.83 119.714 110.019 119.528L112.625 117.023C110.645 117.906 107.952 118.451 104.981 118.451C102.011 118.451 99.3171 117.906 97.3369 117.023L99.9432 119.528C100.133 119.714 100.22 119.98 100.176 120.238L99.4118 124.637C99.2953 125.29 99.9942 125.793 100.591 125.484L104.603 123.403C104.843 123.281 105.12 123.281 105.36 123.403L109.371 125.484C109.968 125.793 110.667 125.29 110.551 124.637L109.786 120.238Z" fill="#FFCC44"/>
<path d="M135.777 126.747C135.58 126.747 135.391 126.697 135.216 126.611L131.205 124.53C131.147 124.501 131.081 124.479 131.008 124.479C130.943 124.479 130.877 124.494 130.812 124.53L126.8 126.611C126.626 126.704 126.436 126.747 126.24 126.747C125.883 126.747 125.548 126.589 125.315 126.317C125.09 126.051 124.988 125.699 125.053 125.348L125.818 120.949C125.839 120.812 125.796 120.676 125.701 120.583L122.454 117.468C122.119 117.152 122.003 116.679 122.148 116.248C122.294 115.81 122.665 115.502 123.124 115.437L127.609 114.799C127.747 114.777 127.863 114.698 127.922 114.576L129.924 110.572C130.127 110.163 130.542 109.904 131.008 109.904C131.474 109.904 131.889 110.156 132.093 110.572L134.095 114.576C134.153 114.698 134.27 114.784 134.408 114.799L138.893 115.437C139.352 115.502 139.723 115.818 139.868 116.248C140.014 116.686 139.898 117.152 139.563 117.468L136.316 120.583C136.214 120.676 136.17 120.812 136.199 120.949L136.964 125.348C137.022 125.692 136.927 126.051 136.702 126.317C136.476 126.596 136.134 126.747 135.777 126.747Z" fill="#92D9DC"/>
<path d="M135.777 125.972C135.58 125.972 135.391 125.922 135.216 125.836L131.205 123.755C131.147 123.726 131.081 123.704 131.008 123.704C130.943 123.704 130.877 123.719 130.812 123.755L126.8 125.836C126.626 125.929 126.436 125.972 126.24 125.972C125.883 125.972 125.548 125.814 125.315 125.541C125.09 125.276 124.988 124.924 125.053 124.573L125.818 120.174C125.839 120.037 125.796 119.901 125.701 119.808L122.454 116.693C122.119 116.377 122.003 115.904 122.148 115.473C122.294 115.035 122.665 114.727 123.124 114.662L127.609 114.024C127.747 114.002 127.863 113.923 127.922 113.801L129.924 109.797C130.127 109.388 130.542 109.129 131.008 109.129C131.474 109.129 131.889 109.381 132.093 109.797L134.095 113.801C134.153 113.923 134.27 114.009 134.408 114.024L138.893 114.662C139.352 114.727 139.723 115.043 139.868 115.473C140.014 115.911 139.898 116.377 139.563 116.693L136.316 119.808C136.214 119.901 136.17 120.037 136.199 120.174L136.964 124.573C137.022 124.917 136.927 125.276 136.702 125.541C136.476 125.814 136.134 125.972 135.777 125.972Z" fill="white"/>
<path d="M131.744 109.955L133.746 113.959C133.862 114.196 134.095 114.361 134.357 114.397L138.842 115.035C139.512 115.129 139.774 115.94 139.293 116.406L136.046 119.521C135.857 119.707 135.77 119.973 135.813 120.231L136.578 124.63C136.694 125.283 135.995 125.785 135.398 125.477L131.387 123.396C131.147 123.274 130.87 123.274 130.63 123.396L126.618 125.477C126.021 125.785 125.323 125.283 125.439 124.63L126.203 120.231C126.247 119.973 126.16 119.707 125.971 119.521L122.724 116.406C122.243 115.94 122.505 115.136 123.175 115.035L127.66 114.397C127.922 114.361 128.155 114.196 128.271 113.959L130.273 109.955C130.579 109.359 131.445 109.359 131.744 109.955Z" fill="#FFE544"/>
<path d="M135.813 120.238C135.77 119.98 135.857 119.714 136.046 119.528L138.653 117.023C136.672 117.906 133.979 118.451 131.008 118.451C128.038 118.451 125.344 117.906 123.364 117.023L125.97 119.528C126.16 119.714 126.247 119.98 126.203 120.238L125.439 124.637C125.322 125.29 126.021 125.793 126.618 125.484L130.63 123.403C130.87 123.281 131.147 123.281 131.387 123.403L135.398 125.484C135.995 125.793 136.694 125.29 136.578 124.637L135.813 120.238Z" fill="#FFCC44"/>
<path d="M161.804 126.747C161.607 126.747 161.418 126.697 161.243 126.611L157.232 124.53C157.174 124.501 157.108 124.479 157.035 124.479C156.97 124.479 156.904 124.494 156.839 124.53L152.827 126.611C152.653 126.704 152.463 126.747 152.267 126.747C151.91 126.747 151.575 126.589 151.342 126.317C151.117 126.051 151.015 125.699 151.08 125.348L151.845 120.949C151.866 120.812 151.823 120.676 151.728 120.583L148.481 117.468C148.146 117.152 148.03 116.679 148.175 116.248C148.321 115.81 148.692 115.502 149.151 115.437L153.636 114.799C153.774 114.777 153.89 114.698 153.949 114.576L155.951 110.572C156.155 110.163 156.57 109.904 157.035 109.904C157.501 109.904 157.916 110.156 158.12 110.572L160.122 114.576C160.181 114.698 160.297 114.784 160.435 114.799L164.92 115.437C165.379 115.502 165.75 115.818 165.896 116.248C166.041 116.686 165.925 117.152 165.59 117.468L162.343 120.583C162.241 120.676 162.197 120.812 162.226 120.949L162.991 125.348C163.049 125.692 162.954 126.051 162.729 126.317C162.503 126.596 162.161 126.747 161.804 126.747Z" fill="#92D9DC"/>
<path d="M161.804 125.972C161.607 125.972 161.418 125.922 161.243 125.836L157.232 123.755C157.174 123.726 157.108 123.704 157.035 123.704C156.97 123.704 156.904 123.719 156.839 123.755L152.827 125.836C152.653 125.929 152.463 125.972 152.267 125.972C151.91 125.972 151.575 125.814 151.342 125.541C151.117 125.276 151.015 124.924 151.08 124.573L151.845 120.174C151.866 120.037 151.823 119.901 151.728 119.808L148.481 116.693C148.146 116.377 148.03 115.904 148.175 115.473C148.321 115.035 148.692 114.727 149.151 114.662L153.636 114.024C153.774 114.002 153.89 113.923 153.949 113.801L155.951 109.797C156.155 109.388 156.57 109.129 157.035 109.129C157.501 109.129 157.916 109.381 158.12 109.797L160.122 113.801C160.181 113.923 160.297 114.009 160.435 114.024L164.92 114.662C165.379 114.727 165.75 115.043 165.896 115.473C166.041 115.911 165.925 116.377 165.59 116.693L162.343 119.808C162.241 119.901 162.197 120.037 162.226 120.174L162.991 124.573C163.049 124.917 162.954 125.276 162.729 125.541C162.503 125.814 162.161 125.972 161.804 125.972Z" fill="white"/>
<path d="M157.771 109.955L159.773 113.959C159.889 114.196 160.122 114.361 160.384 114.397L164.869 115.035C165.539 115.129 165.801 115.94 165.32 116.406L162.073 119.521C161.884 119.707 161.797 119.973 161.84 120.231L162.605 124.63C162.721 125.283 162.022 125.785 161.425 125.477L157.414 123.396C157.174 123.274 156.897 123.274 156.657 123.396L152.645 125.477C152.048 125.785 151.349 125.283 151.466 124.63L152.23 120.231C152.274 119.973 152.187 119.707 151.997 119.521L148.75 116.406C148.27 115.94 148.532 115.136 149.202 115.035L153.686 114.397C153.948 114.361 154.181 114.196 154.298 113.959L156.3 109.955C156.606 109.359 157.472 109.359 157.771 109.955Z" fill="#FFE544"/>
<path d="M161.84 120.238C161.797 119.98 161.884 119.714 162.073 119.528L164.68 117.023C162.699 117.906 160.006 118.451 157.035 118.451C154.065 118.451 151.371 117.906 149.391 117.023L151.997 119.528C152.187 119.714 152.274 119.98 152.23 120.238L151.466 124.637C151.35 125.29 152.048 125.793 152.645 125.484L156.657 123.403C156.897 123.281 157.174 123.281 157.414 123.403L161.425 125.484C162.022 125.793 162.721 125.29 162.605 124.637L161.84 120.238Z" fill="#FFCC44"/>
<path d="M187.831 126.747C187.634 126.747 187.445 126.697 187.27 126.611L183.259 124.53C183.201 124.501 183.135 124.479 183.062 124.479C182.997 124.479 182.931 124.494 182.866 124.53L178.854 126.611C178.68 126.704 178.49 126.747 178.294 126.747C177.937 126.747 177.602 126.589 177.369 126.317C177.143 126.051 177.042 125.699 177.107 125.348L177.872 120.949C177.893 120.812 177.85 120.676 177.755 120.583L174.508 117.468C174.173 117.152 174.057 116.679 174.202 116.248C174.348 115.81 174.719 115.502 175.178 115.437L179.662 114.799C179.801 114.777 179.917 114.698 179.976 114.576L181.978 110.572C182.181 110.163 182.596 109.904 183.062 109.904C183.528 109.904 183.943 110.156 184.147 110.572L186.149 114.576C186.207 114.698 186.324 114.784 186.462 114.799L190.947 115.437C191.406 115.502 191.777 115.818 191.922 116.248C192.068 116.686 191.952 117.152 191.617 117.468L188.37 120.583C188.268 120.676 188.224 120.812 188.253 120.949L189.018 125.348C189.076 125.692 188.981 126.051 188.756 126.317C188.53 126.596 188.188 126.747 187.831 126.747Z" fill="#92D9DC"/>
<path d="M187.831 125.972C187.634 125.972 187.445 125.922 187.27 125.836L183.259 123.755C183.201 123.726 183.135 123.704 183.062 123.704C182.997 123.704 182.931 123.719 182.866 123.755L178.854 125.836C178.68 125.929 178.49 125.972 178.294 125.972C177.937 125.972 177.602 125.814 177.369 125.541C177.143 125.276 177.042 124.924 177.107 124.573L177.872 120.174C177.893 120.037 177.85 119.901 177.755 119.808L174.508 116.693C174.173 116.377 174.057 115.904 174.202 115.473C174.348 115.035 174.719 114.727 175.178 114.662L179.662 114.024C179.801 114.002 179.917 113.923 179.976 113.801L181.978 109.797C182.181 109.388 182.596 109.129 183.062 109.129C183.528 109.129 183.943 109.381 184.147 109.797L186.149 113.801C186.207 113.923 186.324 114.009 186.462 114.024L190.947 114.662C191.406 114.727 191.777 115.043 191.922 115.473C192.068 115.911 191.952 116.377 191.617 116.693L188.37 119.808C188.268 119.901 188.224 120.037 188.253 120.174L189.018 124.573C189.076 124.917 188.981 125.276 188.756 125.541C188.53 125.814 188.188 125.972 187.831 125.972Z" fill="white"/>
<path d="M183.798 109.955L185.8 113.959C185.916 114.196 186.149 114.361 186.411 114.397L190.896 115.035C191.566 115.129 191.828 115.94 191.347 116.406L188.1 119.521C187.911 119.707 187.824 119.973 187.867 120.231L188.632 124.63C188.748 125.283 188.049 125.785 187.452 125.477L183.441 123.396C183.201 123.274 182.924 123.274 182.684 123.396L178.672 125.477C178.075 125.785 177.377 125.283 177.493 124.63L178.257 120.231C178.301 119.973 178.214 119.707 178.024 119.521L174.777 116.406C174.297 115.94 174.559 115.136 175.229 115.035L179.713 114.397C179.976 114.361 180.209 114.196 180.325 113.959L182.327 109.955C182.633 109.359 183.499 109.359 183.798 109.955Z" fill="#FFE544"/>
<path d="M187.867 120.238C187.824 119.98 187.911 119.714 188.1 119.528L190.707 117.023C188.726 117.906 186.033 118.451 183.062 118.451C180.092 118.451 177.398 117.906 175.418 117.023L178.024 119.528C178.214 119.714 178.301 119.98 178.257 120.238L177.493 124.637C177.376 125.29 178.075 125.793 178.672 125.484L182.684 123.403C182.924 123.281 183.201 123.281 183.441 123.403L187.452 125.484C188.049 125.793 188.748 125.29 188.632 124.637L187.867 120.238Z" fill="#FFCC44"/>
<path d="M213.858 126.747C213.661 126.747 213.472 126.697 213.297 126.611L209.286 124.53C209.228 124.501 209.162 124.479 209.089 124.479C209.024 124.479 208.958 124.494 208.893 124.53L204.881 126.611C204.706 126.704 204.517 126.747 204.321 126.747C203.964 126.747 203.629 126.589 203.396 126.317C203.17 126.051 203.068 125.699 203.134 125.348L203.898 120.949C203.92 120.812 203.877 120.676 203.782 120.583L200.535 117.468C200.2 117.152 200.084 116.679 200.229 116.248C200.375 115.81 200.746 115.502 201.205 115.437L205.689 114.799C205.828 114.777 205.944 114.698 206.002 114.576L208.004 110.572C208.208 110.163 208.623 109.904 209.089 109.904C209.555 109.904 209.97 110.156 210.174 110.572L212.176 114.576C212.234 114.698 212.351 114.784 212.489 114.799L216.974 115.437C217.432 115.502 217.804 115.818 217.949 116.248C218.095 116.686 217.978 117.152 217.643 117.468L214.397 120.583C214.295 120.676 214.251 120.812 214.28 120.949L215.044 125.348C215.103 125.692 215.008 126.051 214.782 126.317C214.557 126.596 214.214 126.747 213.858 126.747Z" fill="#92D9DC"/>
<path d="M213.858 125.972C213.661 125.972 213.472 125.922 213.297 125.836L209.286 123.755C209.228 123.726 209.162 123.704 209.089 123.704C209.024 123.704 208.958 123.719 208.893 123.755L204.881 125.836C204.706 125.929 204.517 125.972 204.321 125.972C203.964 125.972 203.629 125.814 203.396 125.541C203.17 125.276 203.068 124.924 203.134 124.573L203.898 120.174C203.92 120.037 203.877 119.901 203.782 119.808L200.535 116.693C200.2 116.377 200.084 115.904 200.229 115.473C200.375 115.035 200.746 114.727 201.205 114.662L205.689 114.024C205.828 114.002 205.944 113.923 206.002 113.801L208.004 109.797C208.208 109.388 208.623 109.129 209.089 109.129C209.555 109.129 209.97 109.381 210.174 109.797L212.176 113.801C212.234 113.923 212.351 114.009 212.489 114.024L216.974 114.662C217.432 114.727 217.804 115.043 217.949 115.473C218.095 115.911 217.978 116.377 217.643 116.693L214.397 119.808C214.295 119.901 214.251 120.037 214.28 120.174L215.044 124.573C215.103 124.917 215.008 125.276 214.782 125.541C214.557 125.814 214.214 125.972 213.858 125.972Z" fill="white"/>
<path d="M209.825 109.955L211.827 113.959C211.943 114.196 212.176 114.361 212.438 114.397L216.923 115.035C217.593 115.129 217.855 115.94 217.374 116.406L214.127 119.521C213.938 119.707 213.851 119.973 213.894 120.231L214.659 124.63C214.775 125.283 214.076 125.785 213.479 125.477L209.468 123.396C209.228 123.274 208.951 123.274 208.711 123.396L204.699 125.477C204.102 125.785 203.403 125.283 203.52 124.63L204.284 120.231C204.328 119.973 204.241 119.707 204.051 119.521L200.804 116.406C200.324 115.94 200.586 115.136 201.256 115.035L205.74 114.397C206.002 114.361 206.235 114.196 206.352 113.959L208.354 109.955C208.66 109.359 209.526 109.359 209.825 109.955Z" fill="#4C2A6E"/>
<path opacity="0.4" d="M213.894 120.238C213.851 119.98 213.938 119.714 214.127 119.528L216.734 117.023C214.753 117.906 212.06 118.451 209.089 118.451C206.119 118.451 203.425 117.906 201.445 117.023L204.051 119.528C204.241 119.714 204.328 119.98 204.284 120.238L203.52 124.637C203.403 125.29 204.102 125.793 204.699 125.484L208.711 123.403C208.951 123.281 209.228 123.281 209.468 123.403L213.479 125.484C214.076 125.793 214.775 125.29 214.659 124.637L213.894 120.238Z" fill="#4C2A6E"/>
<path d="M66.9901 137.369C69.7502 125.997 62.6357 114.573 51.0994 111.852C39.5631 109.132 27.9736 116.145 25.2135 127.516C22.4533 138.888 29.5678 150.312 41.1041 153.032C52.6404 155.753 64.23 148.74 66.9901 137.369Z" fill="white"/>
<path d="M46.0914 157.418C32.1206 157.418 20.7561 146.216 20.7561 132.445C20.7561 118.674 32.1206 107.472 46.0914 107.472C60.0622 107.472 71.4267 118.674 71.4267 132.445C71.4267 146.216 60.0622 157.418 46.0914 157.418ZM46.0914 108.247C32.5574 108.247 21.5424 119.097 21.5424 132.445C21.5424 145.786 32.5501 156.643 46.0914 156.643C59.6327 156.643 70.6405 145.793 70.6405 132.445C70.6405 119.104 59.6254 108.247 46.0914 108.247Z" fill="white"/>
<mask id="mask1_1_2991" style="mask-type:luminance" maskUnits="userSpaceOnUse" x="28" y="114" width="37" height="37">
<path d="M46.0915 150.278C56.0831 150.278 64.1829 142.294 64.1829 132.445C64.1829 122.596 56.0831 114.612 46.0915 114.612C36.0998 114.612 28 122.596 28 132.445C28 142.294 36.0998 150.278 46.0915 150.278Z" fill="white"/>
</mask>
<g mask="url(#mask1_1_2991)">
<path d="M48.9964 137.741V135.265H43.1867V137.741C43.1867 138.76 42.2257 139.585 41.0391 139.585L38.7749 146.74H53.4155L51.1514 139.585C49.9574 139.585 48.9964 138.76 48.9964 137.741Z" fill="#FFE7BC"/>
<path d="M46.0917 138.38C47.2275 138.38 48.254 138.164 48.9966 137.806C48.9966 137.784 48.9893 137.763 48.9893 137.741V135.265H43.1796V137.741C43.1796 137.763 43.1796 137.784 43.1724 137.806C43.9295 138.157 44.956 138.38 46.0917 138.38Z" fill="#FFEDD2"/>
<path d="M37.8686 131.904C38.5632 131.719 38.9196 130.818 38.6647 129.892C38.4098 128.966 37.64 128.366 36.9454 128.552C36.2508 128.738 35.8944 129.639 36.1493 130.565C36.4043 131.491 37.174 132.09 37.8686 131.904Z" fill="#FFE7BC"/>
<path d="M56.0419 130.55C56.2969 129.624 55.9404 128.723 55.2458 128.537C54.5512 128.351 53.7815 128.951 53.5265 129.877C53.2716 130.802 53.628 131.703 54.3226 131.889C55.0172 132.075 55.787 131.475 56.0419 130.55Z" fill="#FFE7BC"/>
<path d="M38.9861 129.984C39.2263 130.629 38.8842 131.261 38.2217 131.39C37.5591 131.519 36.8166 131.103 36.5763 130.457C36.3361 129.811 36.6782 129.18 37.3407 129.051C38.0032 128.921 38.7386 129.338 38.9861 129.984Z" fill="#FFEDD2"/>
<path d="M53.2045 129.984C52.9642 130.629 53.3064 131.261 53.9689 131.39C54.6314 131.519 55.374 131.103 55.6143 130.457C55.8545 129.811 55.5123 129.18 54.8498 129.051C54.18 128.921 53.4447 129.338 53.2045 129.984Z" fill="#FFEDD2"/>
<path d="M46.0915 137.397C51.0129 137.397 55.0025 132.821 55.0025 127.178C55.0025 121.534 51.0129 116.959 46.0915 116.959C41.17 116.959 37.1804 121.534 37.1804 127.178C37.1804 132.821 41.17 137.397 46.0915 137.397Z" fill="#FFE7BC"/>
<path d="M42.5533 123.999C44.235 123.999 49.6952 124.171 51.5517 122.434C52.7893 125.577 53.2698 127.048 55.0098 128.512C58.8756 123.453 56.364 118.394 52.469 117.691C51.5007 115.33 48.6032 115.33 46.0842 115.33C43.3396 115.33 40.2527 117.174 37.1732 116.959C34.9964 119.212 34.1519 125.721 37.2169 128.512C38.7676 125.864 37.9958 123.999 42.5533 123.999Z" fill="#B28056"/>
<path d="M48.1228 133.385C48.1228 133.787 47.2346 134.813 46.1426 134.813C45.0505 134.813 44.1624 133.787 44.1624 133.385C44.1624 132.983 45.0505 133.349 46.1426 133.349C47.2346 133.342 48.1228 132.976 48.1228 133.385Z" fill="white"/>
<path d="M40.0928 129.208C39.9981 129.208 39.8962 129.173 39.8234 129.101C39.6705 128.957 39.6705 128.713 39.8234 128.57C39.8671 128.527 40.9446 127.486 43.3616 127.716C43.5727 127.737 43.7256 127.917 43.7038 128.125C43.6819 128.333 43.4999 128.484 43.2888 128.462C41.2576 128.261 40.3694 129.086 40.3621 129.094C40.2893 129.165 40.1947 129.208 40.0928 129.208Z" fill="#B57852"/>
<path d="M42.9466 130.07C42.9466 130.486 42.6044 130.823 42.1822 130.823C41.7599 130.823 41.4177 130.486 41.4177 130.07C41.4177 129.653 41.7599 129.316 42.1822 129.316C42.6044 129.316 42.9466 129.653 42.9466 130.07Z" fill="#B57852"/>
<path d="M52.0906 129.208C52.1853 129.208 52.2872 129.173 52.36 129.101C52.5129 128.957 52.5129 128.713 52.36 128.57C52.3163 128.527 51.2388 127.486 48.8218 127.716C48.6107 127.737 48.4578 127.917 48.4796 128.125C48.5015 128.333 48.6835 128.484 48.8946 128.462C50.9258 128.261 51.814 129.086 51.8213 129.094C51.8941 129.165 51.996 129.208 52.0906 129.208Z" fill="#B57852"/>
<path d="M49.2439 130.07C49.2439 130.486 49.5861 130.823 50.0083 130.823C50.4306 130.823 50.7728 130.486 50.7728 130.07C50.7728 129.653 50.4306 129.316 50.0083 129.316C49.5788 129.316 49.2439 129.653 49.2439 130.07Z" fill="#B57852"/>
<path d="M56.1019 139.578H50.9839C51.1368 140.734 49.1565 142.549 46.0916 142.549C43.0266 142.549 41.0463 140.734 41.1992 139.578H36.0812C35.2731 139.578 34.5815 140.145 34.4359 140.927L32.6667 150.278H59.5091L57.74 140.927C57.6016 140.145 56.91 139.578 56.1019 139.578Z" fill="#60A2BF"/>
<path d="M51.8284 146.726H46.6594V150.278H51.8284V146.726Z" fill="#60A2BF"/>
</g>
<path d="M278.485 204.975H261.966C260.582 204.975 259.454 203.87 259.454 202.5V201.021C259.454 195.28 254.729 190.623 248.905 190.623H10.5491C4.72489 190.623 0 195.28 0 201.021V254.492C0 260.233 4.72489 264.89 10.5491 264.89H248.905C254.729 264.89 259.454 260.233 259.454 254.492V228.7C259.454 227.997 259.76 227.329 260.291 226.856L280.159 209.288C281.877 207.774 280.785 204.975 278.485 204.975Z" fill="#F4F4F4"/>
<path d="M278.485 201.029H261.966C260.582 201.029 259.454 199.923 259.454 198.553V197.074C259.454 191.333 254.729 186.676 248.905 186.676H10.5491C4.72489 186.676 0 191.333 0 197.074V250.545C0 256.286 4.72489 260.943 10.5491 260.943H248.905C254.729 260.943 259.454 256.286 259.454 250.545V224.753C259.454 224.05 259.76 223.383 260.291 222.909L280.159 205.341C281.877 203.827 280.785 201.029 278.485 201.029Z" fill="#4C2A6E"/>
<path d="M109.75 220.089C109.553 220.089 109.364 220.038 109.189 219.952L105.178 217.871C105.12 217.842 105.054 217.821 104.981 217.821C104.916 217.821 104.85 217.835 104.785 217.871L100.773 219.952C100.599 220.046 100.409 220.089 100.213 220.089C99.856 220.089 99.5211 219.931 99.2881 219.658C99.0624 219.393 98.9605 219.041 99.026 218.689L99.7905 214.29C99.8123 214.154 99.7686 214.018 99.674 213.924L96.427 210.81C96.0921 210.494 95.9756 210.02 96.1212 209.59C96.2668 209.152 96.6381 208.843 97.0968 208.779L101.581 208.14C101.72 208.119 101.836 208.04 101.894 207.918L103.897 203.913C104.1 203.504 104.515 203.246 104.981 203.246C105.447 203.246 105.862 203.497 106.066 203.913L108.068 207.918C108.126 208.04 108.243 208.126 108.381 208.14L112.866 208.779C113.324 208.843 113.696 209.159 113.841 209.59C113.987 210.028 113.87 210.494 113.536 210.81L110.289 213.924C110.187 214.018 110.143 214.154 110.172 214.29L110.937 218.689C110.995 219.034 110.9 219.393 110.674 219.658C110.449 219.931 110.107 220.089 109.75 220.089Z" fill="#92D9DC"/>
<path d="M109.75 219.306C109.553 219.306 109.364 219.256 109.189 219.17L105.178 217.089C105.12 217.06 105.054 217.039 104.981 217.039C104.916 217.039 104.85 217.053 104.785 217.089L100.773 219.17C100.599 219.263 100.409 219.306 100.213 219.306C99.856 219.306 99.5211 219.149 99.2881 218.876C99.0624 218.61 98.9605 218.259 99.026 217.907L99.7905 213.508C99.8123 213.372 99.7686 213.235 99.674 213.142L96.427 210.028C96.0921 209.712 95.9756 209.238 96.1212 208.808C96.2668 208.37 96.6381 208.061 97.0968 207.997L101.581 207.358C101.72 207.336 101.836 207.257 101.894 207.135L103.897 203.131C104.1 202.722 104.515 202.464 104.981 202.464C105.447 202.464 105.862 202.715 106.066 203.131L108.068 207.135C108.126 207.257 108.243 207.344 108.381 207.358L112.866 207.997C113.324 208.061 113.696 208.377 113.841 208.808C113.987 209.245 113.87 209.712 113.536 210.028L110.289 213.142C110.187 213.235 110.143 213.372 110.172 213.508L110.937 217.907C110.995 218.252 110.9 218.61 110.674 218.876C110.449 219.156 110.107 219.306 109.75 219.306Z" fill="white"/>
<path d="M105.717 203.296L107.719 207.301C107.835 207.537 108.068 207.702 108.33 207.738L112.815 208.377C113.485 208.47 113.747 209.281 113.266 209.748L110.019 212.862C109.83 213.049 109.743 213.314 109.786 213.573L110.551 217.972C110.667 218.625 109.968 219.127 109.371 218.818L105.36 216.737C105.12 216.615 104.843 216.615 104.603 216.737L100.591 218.818C99.9944 219.127 99.2955 218.625 99.412 217.972L100.176 213.573C100.22 213.314 100.133 213.049 99.9434 212.862L96.6964 209.748C96.2159 209.281 96.478 208.477 97.1478 208.377L101.632 207.738C101.895 207.702 102.128 207.537 102.244 207.301L104.246 203.296C104.552 202.701 105.418 202.701 105.717 203.296Z" fill="#FFE544"/>
<path d="M109.786 213.58C109.742 213.321 109.83 213.056 110.019 212.869L112.625 210.365C110.645 211.248 107.952 211.793 104.981 211.793C102.011 211.793 99.3171 211.248 97.3369 210.365L99.9432 212.869C100.133 213.056 100.22 213.321 100.176 213.58L99.4118 217.979C99.2953 218.632 99.9942 219.134 100.591 218.826L104.603 216.745C104.843 216.623 105.12 216.623 105.36 216.745L109.371 218.826C109.968 219.134 110.667 218.632 110.551 217.979L109.786 213.58Z" fill="#FFCC44"/>
<path d="M135.777 220.089C135.58 220.089 135.391 220.038 135.216 219.952L131.205 217.871C131.147 217.842 131.081 217.821 131.008 217.821C130.943 217.821 130.877 217.835 130.812 217.871L126.8 219.952C126.626 220.046 126.436 220.089 126.24 220.089C125.883 220.089 125.548 219.931 125.315 219.658C125.09 219.393 124.988 219.041 125.053 218.689L125.818 214.29C125.839 214.154 125.796 214.018 125.701 213.924L122.454 210.81C122.119 210.494 122.003 210.02 122.148 209.59C122.294 209.152 122.665 208.843 123.124 208.779L127.609 208.14C127.747 208.119 127.863 208.04 127.922 207.918L129.924 203.913C130.127 203.504 130.542 203.246 131.008 203.246C131.474 203.246 131.889 203.497 132.093 203.913L134.095 207.918C134.153 208.04 134.27 208.126 134.408 208.14L138.893 208.779C139.352 208.843 139.723 209.159 139.868 209.59C140.014 210.028 139.898 210.494 139.563 210.81L136.316 213.924C136.214 214.018 136.17 214.154 136.199 214.29L136.964 218.689C137.022 219.034 136.927 219.393 136.702 219.658C136.476 219.931 136.134 220.089 135.777 220.089Z" fill="#92D9DC"/>
<path d="M135.777 219.306C135.58 219.306 135.391 219.256 135.216 219.17L131.205 217.089C131.147 217.06 131.081 217.039 131.008 217.039C130.943 217.039 130.877 217.053 130.812 217.089L126.8 219.17C126.626 219.263 126.436 219.306 126.24 219.306C125.883 219.306 125.548 219.149 125.315 218.876C125.09 218.61 124.988 218.259 125.053 217.907L125.818 213.508C125.839 213.372 125.796 213.235 125.701 213.142L122.454 210.028C122.119 209.712 122.003 209.238 122.148 208.808C122.294 208.37 122.665 208.061 123.124 207.997L127.609 207.358C127.747 207.336 127.863 207.257 127.922 207.135L129.924 203.131C130.127 202.722 130.542 202.464 131.008 202.464C131.474 202.464 131.889 202.715 132.093 203.131L134.095 207.135C134.153 207.257 134.27 207.344 134.408 207.358L138.893 207.997C139.352 208.061 139.723 208.377 139.868 208.808C140.014 209.245 139.898 209.712 139.563 210.028L136.316 213.142C136.214 213.235 136.17 213.372 136.199 213.508L136.964 217.907C137.022 218.252 136.927 218.61 136.702 218.876C136.476 219.156 136.134 219.306 135.777 219.306Z" fill="white"/>
<path d="M131.744 203.296L133.746 207.301C133.862 207.537 134.095 207.702 134.357 207.738L138.842 208.377C139.512 208.47 139.774 209.281 139.293 209.748L136.046 212.862C135.857 213.049 135.77 213.314 135.813 213.573L136.578 217.972C136.694 218.625 135.995 219.127 135.398 218.818L131.387 216.737C131.147 216.615 130.87 216.615 130.63 216.737L126.618 218.818C126.021 219.127 125.323 218.625 125.439 217.972L126.203 213.573C126.247 213.314 126.16 213.049 125.971 212.862L122.724 209.748C122.243 209.281 122.505 208.477 123.175 208.377L127.66 207.738C127.922 207.702 128.155 207.537 128.271 207.301L130.273 203.296C130.579 202.701 131.445 202.701 131.744 203.296Z" fill="#FFE544"/>
<path d="M135.813 213.58C135.77 213.321 135.857 213.056 136.046 212.869L138.653 210.365C136.672 211.248 133.979 211.793 131.008 211.793C128.038 211.793 125.344 211.248 123.364 210.365L125.97 212.869C126.16 213.056 126.247 213.321 126.203 213.58L125.439 217.979C125.322 218.632 126.021 219.134 126.618 218.826L130.63 216.745C130.87 216.623 131.147 216.623 131.387 216.745L135.398 218.826C135.995 219.134 136.694 218.632 136.578 217.979L135.813 213.58Z" fill="#FFCC44"/>
<path d="M161.804 220.089C161.607 220.089 161.418 220.038 161.243 219.952L157.232 217.871C157.174 217.842 157.108 217.821 157.035 217.821C156.97 217.821 156.904 217.835 156.839 217.871L152.827 219.952C152.653 220.046 152.463 220.089 152.267 220.089C151.91 220.089 151.575 219.931 151.342 219.658C151.117 219.393 151.015 219.041 151.08 218.689L151.845 214.29C151.866 214.154 151.823 214.018 151.728 213.924L148.481 210.81C148.146 210.494 148.03 210.02 148.175 209.59C148.321 209.152 148.692 208.843 149.151 208.779L153.636 208.14C153.774 208.119 153.89 208.04 153.949 207.918L155.951 203.913C156.155 203.504 156.57 203.246 157.035 203.246C157.501 203.246 157.916 203.497 158.12 203.913L160.122 207.918C160.181 208.04 160.297 208.126 160.435 208.14L164.92 208.779C165.379 208.843 165.75 209.159 165.896 209.59C166.041 210.028 165.925 210.494 165.59 210.81L162.343 213.924C162.241 214.018 162.197 214.154 162.226 214.29L162.991 218.689C163.049 219.034 162.954 219.393 162.729 219.658C162.503 219.931 162.161 220.089 161.804 220.089Z" fill="#92D9DC"/>
<path d="M161.804 219.306C161.607 219.306 161.418 219.256 161.243 219.17L157.232 217.089C157.174 217.06 157.108 217.039 157.035 217.039C156.97 217.039 156.904 217.053 156.839 217.089L152.827 219.17C152.653 219.263 152.463 219.306 152.267 219.306C151.91 219.306 151.575 219.149 151.342 218.876C151.117 218.61 151.015 218.259 151.08 217.907L151.845 213.508C151.866 213.372 151.823 213.235 151.728 213.142L148.481 210.028C148.146 209.712 148.03 209.238 148.175 208.808C148.321 208.37 148.692 208.061 149.151 207.997L153.636 207.358C153.774 207.336 153.89 207.257 153.949 207.135L155.951 203.131C156.155 202.722 156.57 202.464 157.035 202.464C157.501 202.464 157.916 202.715 158.12 203.131L160.122 207.135C160.181 207.257 160.297 207.344 160.435 207.358L164.92 207.997C165.379 208.061 165.75 208.377 165.896 208.808C166.041 209.245 165.925 209.712 165.59 210.028L162.343 213.142C162.241 213.235 162.197 213.372 162.226 213.508L162.991 217.907C163.049 218.252 162.954 218.61 162.729 218.876C162.503 219.156 162.161 219.306 161.804 219.306Z" fill="white"/>
<path d="M157.771 203.296L159.773 207.301C159.889 207.537 160.122 207.702 160.384 207.738L164.869 208.377C165.539 208.47 165.801 209.281 165.32 209.748L162.073 212.862C161.884 213.049 161.797 213.314 161.84 213.573L162.605 217.972C162.721 218.625 162.022 219.127 161.425 218.818L157.414 216.737C157.174 216.615 156.897 216.615 156.657 216.737L152.645 218.818C152.048 219.127 151.349 218.625 151.466 217.972L152.23 213.573C152.274 213.314 152.187 213.049 151.997 212.862L148.75 209.748C148.27 209.281 148.532 208.477 149.202 208.377L153.686 207.738C153.948 207.702 154.181 207.537 154.298 207.301L156.3 203.296C156.606 202.701 157.472 202.701 157.771 203.296Z" fill="#FFE544"/>
<path d="M161.84 213.58C161.797 213.321 161.884 213.056 162.073 212.869L164.68 210.365C162.699 211.248 160.006 211.793 157.035 211.793C154.065 211.793 151.371 211.248 149.391 210.365L151.997 212.869C152.187 213.056 152.274 213.321 152.23 213.58L151.466 217.979C151.35 218.632 152.048 219.134 152.645 218.826L156.657 216.745C156.897 216.623 157.174 216.623 157.414 216.745L161.425 218.826C162.022 219.134 162.721 218.632 162.605 217.979L161.84 213.58Z" fill="#FFCC44"/>
<path d="M187.831 220.089C187.634 220.089 187.445 220.038 187.27 219.952L183.259 217.871C183.201 217.842 183.135 217.821 183.062 217.821C182.997 217.821 182.931 217.835 182.866 217.871L178.854 219.952C178.68 220.046 178.49 220.089 178.294 220.089C177.937 220.089 177.602 219.931 177.369 219.658C177.143 219.393 177.042 219.041 177.107 218.689L177.872 214.29C177.893 214.154 177.85 214.018 177.755 213.924L174.508 210.81C174.173 210.494 174.057 210.02 174.202 209.59C174.348 209.152 174.719 208.843 175.178 208.779L179.662 208.14C179.801 208.119 179.917 208.04 179.976 207.918L181.978 203.913C182.181 203.504 182.596 203.246 183.062 203.246C183.528 203.246 183.943 203.497 184.147 203.913L186.149 207.918C186.207 208.04 186.324 208.126 186.462 208.14L190.947 208.779C191.406 208.843 191.777 209.159 191.922 209.59C192.068 210.028 191.952 210.494 191.617 210.81L188.37 213.924C188.268 214.018 188.224 214.154 188.253 214.29L189.018 218.689C189.076 219.034 188.981 219.393 188.756 219.658C188.53 219.931 188.188 220.089 187.831 220.089Z" fill="#92D9DC"/>
<path d="M187.831 219.306C187.634 219.306 187.445 219.256 187.27 219.17L183.259 217.089C183.201 217.06 183.135 217.039 183.062 217.039C182.997 217.039 182.931 217.053 182.866 217.089L178.854 219.17C178.68 219.263 178.49 219.306 178.294 219.306C177.937 219.306 177.602 219.149 177.369 218.876C177.143 218.61 177.042 218.259 177.107 217.907L177.872 213.508C177.893 213.372 177.85 213.235 177.755 213.142L174.508 210.028C174.173 209.712 174.057 209.238 174.202 208.808C174.348 208.37 174.719 208.061 175.178 207.997L179.662 207.358C179.801 207.336 179.917 207.257 179.976 207.135L181.978 203.131C182.181 202.722 182.596 202.464 183.062 202.464C183.528 202.464 183.943 202.715 184.147 203.131L186.149 207.135C186.207 207.257 186.324 207.344 186.462 207.358L190.947 207.997C191.406 208.061 191.777 208.377 191.922 208.808C192.068 209.245 191.952 209.712 191.617 210.028L188.37 213.142C188.268 213.235 188.224 213.372 188.253 213.508L189.018 217.907C189.076 218.252 188.981 218.61 188.756 218.876C188.53 219.156 188.188 219.306 187.831 219.306Z" fill="white"/>
<path d="M183.798 203.296L185.8 207.301C185.916 207.537 186.149 207.702 186.411 207.738L190.896 208.377C191.566 208.47 191.828 209.281 191.347 209.748L188.1 212.862C187.911 213.049 187.824 213.314 187.867 213.573L188.632 217.972C188.748 218.625 188.049 219.127 187.452 218.818L183.441 216.737C183.201 216.615 182.924 216.615 182.684 216.737L178.672 218.818C178.075 219.127 177.377 218.625 177.493 217.972L178.257 213.573C178.301 213.314 178.214 213.049 178.024 212.862L174.777 209.748C174.297 209.281 174.559 208.477 175.229 208.377L179.713 207.738C179.976 207.702 180.209 207.537 180.325 207.301L182.327 203.296C182.633 202.701 183.499 202.701 183.798 203.296Z" fill="#4C2A6E"/>
<path opacity="0.4" d="M187.867 213.58C187.824 213.321 187.911 213.056 188.1 212.869L190.707 210.365C188.726 211.248 186.033 211.793 183.062 211.793C180.092 211.793 177.398 211.248 175.418 210.365L178.024 212.869C178.214 213.056 178.301 213.321 178.257 213.58L177.493 217.979C177.376 218.632 178.075 219.134 178.672 218.826L182.684 216.745C182.924 216.623 183.201 216.623 183.441 216.745L187.452 218.826C188.049 219.134 188.748 218.632 188.632 217.979L187.867 213.58Z" fill="#4C2A6E"/>
<path d="M213.858 220.089C213.661 220.089 213.472 220.038 213.297 219.952L209.286 217.871C209.228 217.842 209.162 217.821 209.089 217.821C209.024 217.821 208.958 217.835 208.893 217.871L204.881 219.952C204.706 220.046 204.517 220.089 204.321 220.089C203.964 220.089 203.629 219.931 203.396 219.658C203.17 219.393 203.068 219.041 203.134 218.689L203.898 214.29C203.92 214.154 203.877 214.018 203.782 213.924L200.535 210.81C200.2 210.494 200.084 210.02 200.229 209.59C200.375 209.152 200.746 208.843 201.205 208.779L205.689 208.14C205.828 208.119 205.944 208.04 206.002 207.918L208.004 203.913C208.208 203.504 208.623 203.246 209.089 203.246C209.555 203.246 209.97 203.497 210.174 203.913L212.176 207.918C212.234 208.04 212.351 208.126 212.489 208.14L216.974 208.779C217.432 208.843 217.804 209.159 217.949 209.59C218.095 210.028 217.978 210.494 217.643 210.81L214.397 213.924C214.295 214.018 214.251 214.154 214.28 214.29L215.044 218.689C215.103 219.034 215.008 219.393 214.782 219.658C214.557 219.931 214.214 220.089 213.858 220.089Z" fill="#92D9DC"/>
<path d="M213.858 219.306C213.661 219.306 213.472 219.256 213.297 219.17L209.286 217.089C209.228 217.06 209.162 217.039 209.089 217.039C209.024 217.039 208.958 217.053 208.893 217.089L204.881 219.17C204.706 219.263 204.517 219.306 204.321 219.306C203.964 219.306 203.629 219.149 203.396 218.876C203.17 218.61 203.068 218.259 203.134 217.907L203.898 213.508C203.92 213.372 203.877 213.235 203.782 213.142L200.535 210.028C200.2 209.712 200.084 209.238 200.229 208.808C200.375 208.37 200.746 208.061 201.205 207.997L205.689 207.358C205.828 207.336 205.944 207.257 206.002 207.135L208.004 203.131C208.208 202.722 208.623 202.464 209.089 202.464C209.555 202.464 209.97 202.715 210.174 203.131L212.176 207.135C212.234 207.257 212.351 207.344 212.489 207.358L216.974 207.997C217.432 208.061 217.804 208.377 217.949 208.808C218.095 209.245 217.978 209.712 217.643 210.028L214.397 213.142C214.295 213.235 214.251 213.372 214.28 213.508L215.044 217.907C215.103 218.252 215.008 218.61 214.782 218.876C214.557 219.156 214.214 219.306 213.858 219.306Z" fill="white"/>
<path d="M209.825 203.296L211.827 207.301C211.943 207.537 212.176 207.702 212.438 207.738L216.923 208.377C217.593 208.47 217.855 209.281 217.374 209.748L214.127 212.862C213.938 213.049 213.851 213.314 213.894 213.573L214.659 217.972C214.775 218.625 214.076 219.127 213.479 218.818L209.468 216.737C209.228 216.615 208.951 216.615 208.711 216.737L204.699 218.818C204.102 219.127 203.403 218.625 203.52 217.972L204.284 213.573C204.328 213.314 204.241 213.049 204.051 212.862L200.804 209.748C200.324 209.281 200.586 208.477 201.256 208.377L205.74 207.738C206.002 207.702 206.235 207.537 206.352 207.301L208.354 203.296C208.66 202.701 209.526 202.701 209.825 203.296Z" fill="#4C2A6E"/>
<path opacity="0.4" d="M213.894 213.58C213.851 213.321 213.938 213.056 214.127 212.869L216.734 210.365C214.753 211.248 212.06 211.793 209.089 211.793C206.119 211.793 203.425 211.248 201.445 210.365L204.051 212.869C204.241 213.056 204.328 213.321 204.284 213.58L203.52 217.979C203.403 218.632 204.102 219.134 204.699 218.826L208.711 216.745C208.951 216.623 209.228 216.623 209.468 216.745L213.479 218.826C214.076 219.134 214.775 218.632 214.659 217.979L213.894 213.58Z" fill="#4C2A6E"/>
<path d="M61.2772 240.755C69.6643 232.487 69.6643 219.084 61.2772 210.816C52.8901 202.549 39.2919 202.549 30.9047 210.816C22.5176 219.084 22.5176 232.487 30.9047 240.755C39.2919 249.022 52.8901 249.022 61.2772 240.755Z" fill="white"/>
<path d="M46.0912 250.753C32.1203 250.753 20.7559 239.551 20.7559 225.779C20.7559 212.008 32.1203 200.806 46.0912 200.806C60.062 200.806 71.4265 212.008 71.4265 225.779C71.4265 239.551 60.062 250.753 46.0912 250.753ZM46.0912 201.588C32.5572 201.588 21.5421 212.439 21.5421 225.787C21.5421 239.127 32.5499 249.985 46.0912 249.985C59.6325 249.985 70.6402 239.134 70.6402 225.787C70.6402 212.446 59.6252 201.588 46.0912 201.588Z" fill="white"/>
<mask id="mask2_1_2991" style="mask-type:luminance" maskUnits="userSpaceOnUse" x="27" y="207" width="38" height="37">
<path d="M46.0912 243.62C56.0828 243.62 64.1827 235.636 64.1827 225.787C64.1827 215.938 56.0828 207.954 46.0912 207.954C36.0996 207.954 27.9998 215.938 27.9998 225.787C27.9998 235.636 36.0996 243.62 46.0912 243.62Z" fill="white"/>
</mask>
<g mask="url(#mask2_1_2991)">
<path d="M46.0912 236.4C51.0127 236.4 55.0023 234.569 55.0023 232.31C55.0023 230.051 51.0127 228.219 46.0912 228.219C41.1698 228.219 37.1802 230.051 37.1802 232.31C37.1802 234.569 41.1698 236.4 46.0912 236.4Z" fill="#AA313D"/>
<path opacity="0.2" d="M53.4808 232.798C53.4808 234.786 50.1683 236.393 46.0914 236.393C42.0071 236.393 38.7019 234.786 38.7019 232.798C38.7019 230.81 42.0144 229.203 46.0914 229.203C50.1756 229.203 53.4808 230.81 53.4808 232.798Z" fill="#AA313D"/>
<path d="M48.9962 231.197V228.722H43.1865V231.197C43.1865 232.217 42.2255 233.042 41.0388 233.042L38.7747 240.197H53.4153L51.1511 233.042C49.9571 233.042 48.9962 232.217 48.9962 231.197Z" fill="#FFECC2"/>
<path d="M46.0913 232.374C47.2926 232.374 48.3555 232.037 49.0326 231.52C49.0107 231.413 48.9962 231.312 48.9962 231.197V228.858C48.9306 228.808 48.8651 228.765 48.7923 228.722H43.3831C43.3103 228.765 43.2447 228.808 43.1792 228.858V231.197C43.1792 231.305 43.1647 231.413 43.1428 231.52C43.8272 232.037 44.8901 232.374 46.0913 232.374Z" fill="#FFEDD2"/>
<path d="M38.6654 223.218C38.9202 224.143 38.5635 225.04 37.8646 225.227C37.1657 225.414 36.4013 224.818 36.1465 223.892C35.8916 222.966 36.2484 222.069 36.9473 221.883C37.6389 221.696 38.4106 222.299 38.6654 223.218Z" fill="#FFECC2"/>
<path d="M53.5171 223.218C53.2623 224.143 53.619 225.04 54.3179 225.227C55.0168 225.414 55.7812 224.818 56.036 223.892C56.2908 222.966 55.9341 222.069 55.2352 221.883C54.5436 221.696 53.7719 222.299 53.5171 223.218Z" fill="#FFECC2"/>
<path d="M38.9858 223.325C39.2261 223.971 38.8839 224.603 38.2214 224.732C37.5589 224.861 36.8163 224.445 36.5761 223.799C36.3358 223.153 36.678 222.521 37.3405 222.392C38.003 222.256 38.7383 222.679 38.9858 223.325Z" fill="#FFEDD2"/>
<path d="M53.2042 223.325C52.964 223.971 53.3062 224.603 53.9687 224.732C54.6312 224.861 55.3738 224.445 55.614 223.799C55.8543 223.153 55.5121 222.521 54.8496 222.392C54.1871 222.263 53.4445 222.679 53.2042 223.325Z" fill="#FFEDD2"/>
<path d="M46.0912 230.939C51.0127 230.939 55.0023 226.319 55.0023 220.62C55.0023 214.92 51.0127 210.3 46.0912 210.3C41.1698 210.3 37.1802 214.92 37.1802 220.62C37.1802 226.319 41.1698 230.939 46.0912 230.939Z" fill="#FFECC2"/>
<path d="M40.9587 215.668C45.0721 217.799 53.7283 215.266 55.0096 221.854C57.8271 216.953 56.8588 212.611 51.8209 209.626C44.1329 205.069 41.0024 208.399 39.2915 211.319C34.8797 210.831 34.7268 218.768 37.224 221.861C38.4834 221.854 38.2941 218.417 40.9587 215.668Z" fill="#F5C871"/>
<path d="M48.1226 226.669C48.1226 226.964 47.2344 227.717 46.1423 227.717C45.0503 227.717 44.1621 226.964 44.1621 226.669C44.1621 226.375 45.0503 226.641 46.1423 226.641C47.2344 226.641 48.1226 226.375 48.1226 226.669Z" fill="white"/>
<path d="M40.0925 222.543C39.9979 222.543 39.896 222.507 39.8232 222.435C39.6703 222.292 39.6703 222.048 39.8232 221.904C39.8668 221.861 40.9443 220.821 43.3614 221.05C43.5725 221.072 43.7254 221.251 43.7035 221.459C43.6817 221.667 43.4997 221.818 43.2886 221.797C41.2574 221.596 40.3692 222.421 40.3619 222.428C40.2891 222.507 40.1945 222.543 40.0925 222.543Z" fill="#B5663A"/>
<path d="M42.9463 223.404C42.9463 223.82 42.6042 224.158 42.1819 224.158C41.7597 224.158 41.4175 223.82 41.4175 223.404C41.4175 222.988 41.7597 222.651 42.1819 222.651C42.6042 222.658 42.9463 222.988 42.9463 223.404Z" fill="#B5663A"/>
<path d="M52.0904 222.543C52.185 222.543 52.287 222.507 52.3598 222.435C52.5126 222.292 52.5126 222.048 52.3598 221.904C52.3161 221.861 51.2386 220.821 48.8215 221.05C48.6104 221.072 48.4575 221.251 48.4794 221.459C48.5012 221.667 48.6832 221.818 48.8944 221.797C50.9255 221.596 51.8137 222.421 51.821 222.428C51.8938 222.507 51.9957 222.543 52.0904 222.543Z" fill="#B5663A"/>
<path d="M49.2437 223.404C49.2437 223.82 49.5858 224.158 50.0081 224.158C50.4303 224.158 50.7725 223.82 50.7725 223.404C50.7725 222.988 50.4303 222.651 50.0081 222.651C49.5785 222.658 49.2437 222.988 49.2437 223.404Z" fill="#B5663A"/>
<path d="M56.1017 232.913H50.6051C50.758 234.068 49.1563 235.884 46.0913 235.884C43.0263 235.884 41.4319 234.068 41.5775 232.913H36.0809C35.2728 232.913 34.5812 233.48 34.4356 234.262L32.6665 243.612H59.5088L57.7397 234.262C57.6014 233.48 56.9098 232.913 56.1017 232.913Z" fill="#AA313D"/>
<path opacity="0.2" d="M46.3099 236.393H45.8804V243.62H46.3099V236.393Z" fill="#AA313D"/>
<path opacity="0.2" d="M38.7163 232.913C38.8474 234.843 42.0944 236.393 46.0985 236.393C50.1026 236.393 53.3496 234.843 53.4807 232.913H50.6123C50.7652 234.068 49.1635 235.884 46.0985 235.884C43.0335 235.884 41.4391 234.068 41.5847 232.913H38.7163Z" fill="#AA313D"/>
<path opacity="0.2" d="M37.6973 233.738C37.6973 233.738 39.2188 237.305 45.8803 237.211C45.8803 237.211 39.0587 239.278 37.6973 233.738Z" fill="#AA313D"/>
<path opacity="0.2" d="M54.4855 233.738C54.4855 233.738 52.9639 237.305 46.3025 237.211C46.3098 237.211 53.1314 239.278 54.4855 233.738Z" fill="#AA313D"/>
</g>
</svg>
