<svg width="370" height="320" viewBox="0 0 370 320" fill="none" xmlns="http://www.w3.org/2000/svg">
<path d="M196.182 48.1745C196.277 47.487 196.341 46.7675 196.341 46.0481C196.341 37.2708 189.234 30.1562 180.466 30.1562C172.385 30.1562 165.741 36.1996 164.735 44.0176C163.968 43.8098 163.153 43.6819 162.307 43.6819C157.276 43.6819 153.188 47.7748 153.188 52.8109C153.188 57.8471 157.276 61.9399 162.307 61.9399H195.878C199.679 61.9399 202.778 58.8543 202.778 55.0332C202.778 51.34 199.839 48.3343 196.182 48.1745Z" fill="#E9F6FD"/>
<path d="M87.9315 93.1959C88.0274 92.5085 88.0913 91.789 88.0913 91.0696C88.0913 82.2923 80.9841 75.1777 72.2161 75.1777C64.1347 75.1777 57.4907 81.2211 56.4846 89.0391C55.718 88.8313 54.9034 88.7034 54.057 88.7034C49.0261 88.7034 44.9375 92.7962 44.9375 97.8324C44.9375 102.869 49.0261 106.961 54.057 106.961H87.6281C91.4292 106.961 94.5276 103.876 94.5276 100.055C94.5276 96.3615 91.6049 93.3558 87.9315 93.1959Z" stroke="#D8F0FB" stroke-miterlimit="10"/>
<path d="M17.1316 73.627C17.0677 73.1793 17.0357 72.7157 17.0357 72.252C17.0357 66.5604 21.6514 61.9399 27.337 61.9399C32.5755 61.9399 36.8877 65.8569 37.5425 70.9251C38.0376 70.7812 38.5647 70.7012 39.1236 70.7012C42.3977 70.7012 45.0489 73.3552 45.0489 76.6327C45.0489 79.9102 42.3977 82.5642 39.1236 82.5642H17.3392C14.8636 82.5642 12.8673 80.5657 12.8673 78.0876C12.8513 75.6734 14.7519 73.7389 17.1316 73.627Z" fill="#E9F6FD"/>
<path d="M324.667 87.4722C324.731 87.0246 324.763 86.5609 324.763 86.0973C324.763 80.4056 320.148 75.7852 314.462 75.7852C309.223 75.7852 304.911 79.7022 304.256 84.7703C303.761 84.6264 303.234 84.5465 302.675 84.5465C299.401 84.5465 296.75 87.2004 296.75 90.4779C296.75 93.7554 299.401 96.4094 302.675 96.4094H324.46C326.935 96.4094 328.932 94.4109 328.932 91.9328C328.948 89.5346 327.047 87.5841 324.667 87.4722Z" stroke="#D8F0FB" stroke-miterlimit="10"/>
<path d="M73.9831 258.238H26.8047V318.479H73.9831V258.238Z" fill="url(#paint0_linear_178_3089)"/>
<path d="M129.694 225.255H82.5156V318.495H129.694V225.255Z" fill="url(#paint1_linear_178_3089)"/>
<path d="M185.382 203.032H138.203V318.479H185.382V203.032Z" fill="url(#paint2_linear_178_3089)"/>
<path d="M241.073 181.385H193.895V318.48H241.073V181.385Z" fill="url(#paint3_linear_178_3089)"/>
<path d="M296.78 157.115H249.602V318.479H296.78V157.115Z" fill="url(#paint4_linear_178_3089)"/>
<path d="M46.4974 173.135C46.6411 173.503 46.162 184.534 46.162 184.534L43.7344 198.252L47.9507 198.316L49.2604 184.342L48.9569 172.815L46.4974 173.135Z" fill="#ACD0F4"/>
<path d="M49.2777 172.367C49.2777 173.423 48.4312 174.27 47.3771 174.27C46.323 174.27 45.4766 173.423 45.4766 172.367C45.4766 171.312 46.323 170.465 47.3771 170.465C48.4312 170.465 49.2777 171.312 49.2777 172.367Z" fill="#F1CDD1"/>
<path d="M149.722 172.719L152.597 186.229L150.872 203.496L153.172 203.783L157.771 185.653L155.759 169.841L148.859 170.129L149.722 172.719Z" fill="#253D7C"/>
<path d="M162.37 169.554L155.758 169.841L170.419 202.057L172.719 201.193L162.37 169.554Z" fill="#253D7C"/>
<path d="M167.545 127.538L165.533 127.25L158.058 148.546L150.871 147.97L150.887 147.826C149.737 149.617 148.603 150.768 147.453 151.919C147.341 151.919 147.214 151.919 147.086 151.919L148.859 170.129L162.37 169.554L162.083 150.272L167.545 127.538Z" fill="#ACD0F4"/>
<path d="M155.181 138.761C154.463 138.761 153.792 138.969 153.217 139.337C152.626 141.271 152.163 143.126 152.035 144.805C152.69 146.196 153.856 147.395 155.181 147.395C157.242 147.395 158.903 144.549 158.903 142.486C158.903 140.424 157.242 138.761 155.181 138.761Z" fill="#F1CDD1"/>
<path d="M151.461 142.486C151.461 143.206 151.685 144.037 152.036 144.804C152.18 143.126 152.627 141.271 153.218 139.337C152.18 139.992 151.461 141.143 151.461 142.486Z" fill="#F1CDD1"/>
<path d="M167.543 126.674C167.543 127.634 166.777 128.401 165.819 128.401C164.86 128.401 164.094 127.634 164.094 126.674C164.094 125.715 164.86 124.948 165.819 124.948C166.777 124.948 167.543 125.715 167.543 126.674Z" fill="#F1CDD1"/>
<path d="M155.181 138.761C154.463 138.761 153.792 138.969 153.217 139.337C152.626 141.271 152.163 143.142 152.035 144.821C152.402 145.588 152.93 146.307 153.552 146.787C153.632 146.387 153.648 145.988 153.648 145.588C153.664 143.973 153.632 142.342 153.552 140.728C154.591 140.808 155.629 140.792 156.651 140.712C157.066 140.712 157.689 140.6 158.008 140.28C158.04 140.248 158.056 140.216 158.072 140.184C157.385 139.305 156.363 138.761 155.181 138.761Z" fill="#253D7C"/>
<path d="M151.461 142.486C151.461 143.222 151.669 144.053 152.036 144.805C152.18 143.126 152.627 141.255 153.218 139.321C152.18 139.992 151.461 141.143 151.461 142.486Z" fill="#253D7C"/>
<path d="M152.214 143.19C152.198 143.286 152.214 143.382 152.214 143.478C152.246 143.286 152.278 143.094 152.31 142.902C152.262 142.998 152.23 143.094 152.214 143.19Z" fill="#F1CDD1"/>
<path d="M152.754 142.598C152.674 142.614 152.594 142.63 152.53 142.662C152.435 142.71 152.355 142.806 152.307 142.902C152.275 143.094 152.243 143.286 152.211 143.478C152.243 143.941 152.514 144.405 152.93 144.661C153.073 144.757 153.217 144.82 153.377 144.836C153.537 144.852 153.712 144.82 153.84 144.709C154.303 144.325 153.92 143.366 153.616 142.998C153.409 142.726 153.073 142.55 152.754 142.598Z" fill="#F1CDD1"/>
<path d="M170.642 203.16V203.783L177.972 200.41L177.317 199.898L172.718 201.193L170.418 202.057L170.642 203.16Z" fill="#253D7C"/>
<path d="M153.171 203.783L156.189 204.551V204.855C156.189 204.855 150.871 204.647 150.903 204.567C150.919 204.503 150.887 203.496 150.887 203.496L153.171 203.783Z" fill="#253D7C"/>
<path d="M270.29 72.0121C270.434 72.3799 269.955 83.4114 269.955 83.4114L267.527 97.1289L271.744 97.1929L273.053 83.2196L272.75 71.6924L270.29 72.0121Z" fill="#B6ADFD"/>
<path d="M265.883 116.954L275.593 135.516L268.294 157.115H276.232L276.663 155.596L271.217 154.861L280.656 135.612L274.124 115.995L265.883 116.954Z" fill="#253D7C"/>
<path d="M273.578 71.2448C273.578 72.3 272.732 73.1474 271.678 73.1474C270.624 73.1474 269.777 72.3 269.777 71.2448C269.777 70.1896 270.624 69.3423 271.678 69.3423C272.716 69.3423 273.578 70.1896 273.578 71.2448Z" fill="#F1CDD1"/>
<path d="M264.78 134.54L265.882 116.954L274.123 115.995L269.315 137.035L258.136 150.208L257.257 154.141L258.072 154.957L257.8 156.076L255.708 154.781L255.117 149.329L256.714 148.961L264.78 134.54Z" fill="#253D7C"/>
<path d="M306.54 7.8374L247.607 13.9607L261.134 26.3672C230.55 53.1627 124.502 140.568 0.535156 180.297C0.535156 180.297 171.888 160.552 293.492 56.0725L306.396 67.9034L306.54 7.8374Z" fill="white"/>
<path d="M150.888 147.826L153.3 125.875L151.24 125.715L146.848 149.393L147.087 151.887C147.215 151.887 147.343 151.887 147.455 151.887C148.604 150.768 149.754 149.617 150.888 147.826Z" fill="#ACD0F4"/>
<path d="M151.925 123.541C150.983 123.637 150.296 124.484 150.392 125.443C150.488 126.387 151.334 127.074 152.292 126.978C153.235 126.882 153.921 126.035 153.826 125.076C153.714 124.132 152.867 123.445 151.925 123.541Z" fill="#F1CDD1"/>
<path d="M221.433 123.621C220.906 125.603 218.558 127.937 216.578 127.41C214.598 126.882 213.703 123.701 214.246 121.718C214.773 119.736 216.817 118.553 218.798 119.08C220.778 119.592 221.96 121.638 221.433 123.621Z" fill="#F1CDD1"/>
<path d="M201.037 107.617C201.99 107.617 202.762 106.844 202.762 105.89C202.762 104.937 201.99 104.164 201.037 104.164C200.085 104.164 199.312 104.937 199.312 105.89C199.312 106.844 200.085 107.617 201.037 107.617Z" fill="#F1CDD1"/>
<path d="M221.592 147.378L218.509 164.613L219.196 183.255H211.977L211.594 181.864L216.545 181.209L213.91 164.709L212.52 148.146L221.592 147.378Z" fill="#253D7C"/>
<path d="M223.973 147.139L224.628 161.24L235.664 175.933L234.354 182.855H231.048L233.028 181.368L233.364 176.924L222.807 165.029L214.23 147.698L223.973 147.139Z" fill="#253D7C"/>
<path d="M201.039 107.617L202.764 105.89L208.034 118.473L214.311 126.163L219.901 128.737L224.548 148.37L212.219 149.521L210.829 129.424L203.371 120.103L201.039 107.617Z" fill="#B6ADFD"/>
<path d="M219.102 122.741C219.071 123.141 219.039 123.541 219.023 123.94C219.518 123.86 219.917 124.484 219.741 124.964C219.566 125.427 219.007 125.667 218.496 125.619C218.607 126.131 218.655 126.658 218.591 127.186C219.63 126.69 220.652 126.083 221.386 125.187C222.121 124.292 222.504 123.045 222.153 121.958C222.041 121.606 221.865 121.302 221.69 120.983C221.434 120.535 221.179 120.087 220.923 119.624C220.716 119.272 220.508 118.888 220.141 118.68C219.805 118.489 219.39 118.457 218.991 118.457C218.288 118.441 216.196 118.329 216.835 119.448C217.489 120.583 218.352 121.654 219.102 122.741Z" fill="#253D7C"/>
<path d="M104.808 173.375C105 173.391 105.207 173.407 105.367 173.295C105.543 173.183 105.623 172.991 105.703 172.799C106.725 169.985 106.31 166.852 105.751 163.91C105.671 163.478 105.575 163.015 105.319 162.647C104.824 161.928 103.866 161.72 102.988 161.72C102.604 161.72 102.205 161.752 101.838 161.912C101.007 162.263 100.544 163.191 100.464 164.086C100.384 164.981 100.64 165.877 100.879 166.74C101.311 168.307 101.694 169.873 102.061 171.44C102.189 171.968 102.189 172.927 102.684 173.183C103.163 173.455 104.265 173.327 104.808 173.375Z" fill="#253D7C"/>
<path d="M100.383 167.14C100.91 169.122 103.258 171.456 105.238 170.929C107.219 170.401 108.113 167.219 107.57 165.237C107.043 163.254 104.999 162.071 103.018 162.599C101.038 163.111 99.8562 165.141 100.383 167.14Z" fill="#F1CDD1"/>
<path d="M120.78 151.136C121.732 151.136 122.504 150.363 122.504 149.409C122.504 148.455 121.732 147.682 120.78 147.682C119.827 147.682 119.055 148.455 119.055 149.409C119.055 150.363 119.827 151.136 120.78 151.136Z" fill="#F1CDD1"/>
<path d="M102.109 188.259L103.323 208.132L102.62 226.774H109.839L110.223 225.383L104.729 225.271L106.933 208.212L109.185 189.139L102.109 188.259Z" fill="#F1CDD1"/>
<path d="M99.8092 187.988L98.1961 204.743L89.6836 221.882L91.4244 226.374H94.7304L92.75 224.887L91.7917 221.418L100.001 208.548L107.587 188.947L99.8092 187.988Z" fill="#F1CDD1"/>
<path d="M120.779 151.136L119.054 149.409L115.38 162.519L107.507 169.681L101.917 172.239L101.869 182.296L99.8086 187.987L109.184 189.139L109.024 181.8L109.184 173.742L118.447 163.622L120.779 151.136Z" fill="#B6ADFD"/>
<path d="M104.567 164.326C104.487 165.109 104.152 165.828 103.8 166.532C103.497 166.068 102.73 166.052 102.347 166.452C101.963 166.852 101.979 167.555 102.331 167.987C102.682 168.418 103.273 168.61 103.832 168.53C103.88 170.561 103.784 172.607 103.545 174.638C102.411 174.59 101.261 174.542 100.127 174.51C99.7594 171.616 99.3921 168.674 99.7435 165.78C99.8233 165.173 99.9192 164.549 100.175 163.99C100.414 163.43 100.814 162.903 101.357 162.615C101.756 162.391 102.219 162.311 102.682 162.279C102.986 162.263 103.545 162.183 103.832 162.279C104.519 162.535 104.631 163.75 104.567 164.326Z" fill="#253D7C"/>
<path d="M99.8084 187.988L98.1953 204.743L106.931 208.212L109.183 189.139L99.8084 187.988Z" fill="#253D7C"/>
<path d="M110.223 225.383L109.84 226.774H102.621L102.749 223.4H104.969L104.729 225.271L110.223 225.383Z" fill="#253D7C"/>
<path d="M90.8015 219.627L92.3667 220.507L91.7917 221.418L92.75 224.887L94.7304 226.374H91.4244L89.6836 221.881L90.8015 219.627Z" fill="#253D7C"/>
<path d="M44.8372 190.13C44.1823 192.304 45.0288 195.822 47.2009 196.477C49.3729 197.132 52.0241 194.67 52.6789 192.496C53.3338 190.322 52.1199 188.035 49.9479 187.38C47.7918 186.74 45.492 187.972 44.8372 190.13Z" fill="#F1CDD1"/>
<path d="M41.8828 218.764L45.2687 237.725L44.5021 258.238H52.4397L52.8709 256.719L47.4248 255.983L50.3315 237.821L49.9642 219.132L41.8828 218.764Z" fill="#253D7C"/>
<path d="M39.2633 218.508L38.5446 234.016L26.3906 250.18L27.844 257.806H31.4694L29.2974 256.175L28.93 251.267L40.541 238.189L49.9639 219.132L39.2633 218.508Z" fill="#253D7C"/>
<path d="M47.3764 188.995C47.1688 189.378 47.1209 191.457 46.9132 191.841C46.498 191.473 45.7474 191.841 45.6515 192.384C45.5397 192.928 45.939 193.471 46.4341 193.727C46.0348 194.143 45.6835 194.606 45.4279 195.134C44.7412 194.063 44.1343 192.896 43.9746 191.649C43.8149 190.402 44.1662 188.995 45.1245 188.179C45.4279 187.924 45.7793 187.732 46.1306 187.54C46.6258 187.268 47.1368 186.996 47.6319 186.724C48.0312 186.501 48.4465 186.277 48.9096 186.293C49.3408 186.309 49.7401 186.533 50.1074 186.74C50.7782 187.124 52.7906 188.243 51.5608 188.915C50.2991 189.586 48.702 188.403 47.3764 188.995Z" fill="#253D7C"/>
<path d="M52.3739 173.519L50.0581 173.423L49.9463 187.396L47.6944 195.118L43.7336 198.252L39.2617 218.508L49.9623 219.132L50.7609 199.467L53.6836 189.458L52.3739 173.519Z" fill="#ACD0F4"/>
<path d="M52.7738 172.367C52.7738 173.423 51.9273 174.27 50.8732 174.27C49.8191 174.27 48.9727 173.423 48.9727 172.367C48.9727 171.312 49.8191 170.465 50.8732 170.465C51.9273 170.465 52.7738 171.312 52.7738 172.367Z" fill="#F1CDD1"/>
<path d="M366.082 120.311V121.686" stroke="#FADC4C" stroke-miterlimit="10" stroke-linecap="round"/>
<path d="M366.082 125.587V126.946" stroke="#FADC4C" stroke-miterlimit="10" stroke-linecap="round"/>
<path d="M362.762 123.637H364.119" stroke="#FADC4C" stroke-miterlimit="10" stroke-linecap="round"/>
<path d="M368.031 123.637H369.389" stroke="#FADC4C" stroke-miterlimit="10" stroke-linecap="round"/>
<path d="M221.129 0.546875V1.84189" stroke="#FADC4C" stroke-miterlimit="10" stroke-linecap="round"/>
<path d="M221.129 5.55103V6.84603" stroke="#FADC4C" stroke-miterlimit="10" stroke-linecap="round"/>
<path d="M217.984 3.69653H219.262" stroke="#FADC4C" stroke-miterlimit="10" stroke-linecap="round"/>
<path d="M222.984 3.69653H224.278" stroke="#FADC4C" stroke-miterlimit="10" stroke-linecap="round"/>
<path d="M105.129 59.9414V61.2364" stroke="#FADC4C" stroke-miterlimit="10" stroke-linecap="round"/>
<path d="M105.129 64.9456V66.2406" stroke="#FADC4C" stroke-miterlimit="10" stroke-linecap="round"/>
<path d="M101.984 63.0911H103.278" stroke="#FADC4C" stroke-miterlimit="10" stroke-linecap="round"/>
<path d="M106.984 63.0911H108.278" stroke="#FADC4C" stroke-miterlimit="10" stroke-linecap="round"/>
<path d="M110.129 95.802V97.081" stroke="#FADC4C" stroke-miterlimit="10" stroke-linecap="round"/>
<path d="M110.129 100.806V102.085" stroke="#FADC4C" stroke-miterlimit="10" stroke-linecap="round"/>
<path d="M106.984 98.9355H108.278" stroke="#FADC4C" stroke-miterlimit="10" stroke-linecap="round"/>
<path d="M111.984 98.9355H113.278" stroke="#FADC4C" stroke-miterlimit="10" stroke-linecap="round"/>
<path d="M14.5586 117.337V118.632" stroke="#FADC4C" stroke-miterlimit="10" stroke-linecap="round"/>
<path d="M14.5586 122.342V123.637" stroke="#FADC4C" stroke-miterlimit="10" stroke-linecap="round"/>
<path d="M11.4141 120.487H12.7077" stroke="#FADC4C" stroke-miterlimit="10" stroke-linecap="round"/>
<path d="M16.4141 120.487H17.7077" stroke="#FADC4C" stroke-miterlimit="10" stroke-linecap="round"/>
<path d="M339.25 5.7749V7.06991" stroke="#FADC4C" stroke-miterlimit="10" stroke-linecap="round"/>
<path d="M339.25 10.7791V12.0741" stroke="#FADC4C" stroke-miterlimit="10" stroke-linecap="round"/>
<path d="M336.105 8.92456H337.399" stroke="#FADC4C" stroke-miterlimit="10" stroke-linecap="round"/>
<path d="M341.105 8.92456H342.399" stroke="#FADC4C" stroke-miterlimit="10" stroke-linecap="round"/>
<path d="M268.622 89.0073C267.968 91.1816 268.814 94.6989 270.986 95.3544C273.158 96.0099 275.809 93.5478 276.464 91.3735C277.119 89.1991 275.905 86.9129 273.733 86.2574C271.561 85.6179 269.277 86.849 268.622 89.0073Z" fill="#F1CDD1"/>
<path d="M270.698 90.7179C270.283 90.3502 269.532 90.7179 269.437 91.2615C269.325 91.805 269.724 92.3486 270.219 92.6044C269.82 93.0201 269.469 93.4838 269.213 94.0113C268.526 92.9402 267.919 91.7731 267.76 90.526C267.6 89.263 267.951 87.8721 268.91 87.0567C269.213 86.8009 269.564 86.609 269.916 86.4172C270.411 86.1454 270.922 85.8736 271.417 85.5858C271.816 85.362 272.232 85.1381 272.695 85.1541C273.126 85.1701 273.525 85.3939 273.893 85.6018C274.563 85.9855 276.576 87.1046 275.346 87.7761C274.068 88.4636 270.906 90.3182 270.698 90.7179Z" fill="#253D7C"/>
<path d="M276.145 72.396L273.829 72.3L273.717 86.2734L271.449 93.9954L267.504 97.1291L266.402 105.107L265.859 116.954L274.1 115.995L273.398 106.402L274.372 104.132L275.186 102.677C275.682 101.797 275.697 100.726 275.25 99.815L274.516 98.3441L277.454 88.3518L276.145 72.396Z" fill="#B6ADFD"/>
<path d="M276.547 71.2448C276.547 72.3 275.701 73.1474 274.647 73.1474C273.593 73.1474 272.746 72.3 272.746 71.2448C272.746 70.1896 273.593 69.3423 274.647 69.3423C275.701 69.3423 276.547 70.1896 276.547 71.2448Z" fill="#F1CDD1"/>
<path d="M266.849 91.7091C266.753 92.7003 267.408 93.8035 268.398 93.8834C268.702 93.9154 269.069 93.7875 269.181 93.4997C269.293 93.2279 269.149 92.9402 269.069 92.6524C268.893 92.0608 269.037 91.4213 269.085 90.7978C269.293 88.0959 267.009 90.1743 266.849 91.7091Z" fill="#253D7C"/>
<path d="M270.301 89.3589C271.004 89.1671 271.738 89.4229 272.473 89.4549C272.633 89.4549 272.808 89.4229 272.968 89.4069C273.16 88.2238 273.543 87.0567 273.703 85.8736C273.032 85.346 272.377 85.33 271.435 85.5539C270.173 85.8576 268.784 86.2413 268.081 87.3285C267.857 87.6802 267.729 88.0799 267.506 88.4317C267.107 89.0552 266.436 89.4709 266.021 90.0944C265.717 90.558 265.557 91.1176 265.589 91.6772C265.621 92.3646 265.925 93.0841 265.653 93.7076C265.286 94.539 264.072 94.8268 263.896 95.7061C263.737 96.5055 264.519 97.1929 264.615 98.0083C264.727 98.9196 263.944 99.735 263.96 100.646C263.976 101.446 264.631 102.133 265.366 102.421C266.116 102.725 266.931 102.725 267.729 102.709C268.512 102.693 269.358 102.677 270.013 102.245C270.46 101.957 270.78 101.51 271.019 101.046C271.578 99.9269 271.674 98.6318 271.754 97.3848C271.818 96.3616 271.882 95.3384 271.834 94.3152C271.818 93.8995 271.754 93.4358 271.451 93.148C271.115 92.8283 270.572 92.8283 270.141 92.6684C269.454 92.4286 268.959 91.6932 268.991 90.9577C269.039 90.2383 269.598 89.5508 270.301 89.3589Z" fill="#253D7C"/>
<path d="M0.980469 318.479H318.533" stroke="#8FD3F4" stroke-width="2" stroke-miterlimit="10"/>
<defs>
<linearGradient id="paint0_linear_178_3089" x1="50.3963" y1="318.483" x2="50.3963" y2="258.241" gradientUnits="userSpaceOnUse">
<stop stop-color="#4096FF"/>
<stop offset="1" stop-color="#8DFCBB"/>
</linearGradient>
<linearGradient id="paint1_linear_178_3089" x1="106.098" y1="318.483" x2="106.098" y2="225.25" gradientUnits="userSpaceOnUse">
<stop stop-color="#4096FF"/>
<stop offset="1" stop-color="#8DFCBB"/>
</linearGradient>
<linearGradient id="paint2_linear_178_3089" x1="161.792" y1="318.483" x2="161.792" y2="203.035" gradientUnits="userSpaceOnUse">
<stop stop-color="#4096FF"/>
<stop offset="1" stop-color="#8DFCBB"/>
</linearGradient>
<linearGradient id="paint3_linear_178_3089" x1="217.49" y1="318.483" x2="217.49" y2="181.389" gradientUnits="userSpaceOnUse">
<stop stop-color="#4096FF"/>
<stop offset="1" stop-color="#8DFCBB"/>
</linearGradient>
<linearGradient id="paint4_linear_178_3089" x1="273.188" y1="318.483" x2="273.188" y2="157.119" gradientUnits="userSpaceOnUse">
<stop stop-color="#4096FF"/>
<stop offset="1" stop-color="#8DFCBB"/>
</linearGradient>
</defs>
</svg>
