<svg width="30" height="30" viewBox="0 0 30 30" fill="none" xmlns="http://www.w3.org/2000/svg">
<path d="M28.8387 15.582L15.6922 0.962701C15.1386 0.345766 14.0752 0.345766 13.5215 0.962701L0.375024 15.582C0.186139 15.792 0.0621188 16.0523 0.0179697 16.3314C-0.0261794 16.6105 0.0114349 16.8964 0.126261 17.1546C0.241088 17.4127 0.428205 17.632 0.66497 17.786C0.901736 17.9399 1.178 18.0219 1.46034 18.022H4.38179V28.2555C4.38179 28.6432 4.53569 29.015 4.80963 29.2892C5.08357 29.5634 5.45511 29.7174 5.84251 29.7174H23.3712C23.7586 29.7174 24.1302 29.5634 24.4041 29.2892C24.678 29.015 24.8319 28.6432 24.8319 28.2555V18.022H27.7534C28.0363 18.0232 28.3134 17.942 28.551 17.7883C28.7886 17.6346 28.9763 17.415 29.0914 17.1563C29.2064 16.8977 29.2438 16.6111 29.1989 16.3316C29.1541 16.052 29.0289 15.7916 28.8387 15.582ZM14.6069 20.9458C13.4446 20.9458 12.33 20.4837 11.5082 19.6612C10.6864 18.8388 10.2247 17.7232 10.2247 16.56C10.2247 15.3968 10.6864 14.2813 11.5082 13.4588C12.33 12.6363 13.4446 12.1742 14.6069 12.1742C15.7691 12.1742 16.8837 12.6363 17.7055 13.4588C18.5273 14.2813 18.989 15.3968 18.989 16.56C18.989 17.7232 18.5273 18.8388 17.7055 19.6612C16.8837 20.4837 15.7691 20.9458 14.6069 20.9458Z" fill="#4C2A6E"/>
</svg>
