<svg width="343" height="300" viewBox="0 0 343 300" fill="none" xmlns="http://www.w3.org/2000/svg">
<g clip-path="url(#clip0_178_3243)">
<path d="M228.472 294.433C228.472 297.508 201.031 300 167.185 300C133.34 300 105.898 297.508 105.898 294.433C105.898 291.357 133.34 288.865 167.185 288.865C201.039 288.857 228.472 291.349 228.472 294.433Z" fill="#4C2A6E"/>
<path d="M157.163 83.2175C156.023 86.5485 153.981 89.488 152.426 92.6432C150.863 95.7984 149.771 99.4329 150.704 102.828C151.637 106.223 155.242 109.042 158.615 108.044C164.221 107.093 169.828 106.135 175.434 105.184C179.142 104.553 183.225 103.698 185.45 100.663C186.567 99.1373 187.835 96.038 187.293 94.105C186.671 91.8524 184.462 90.822 184.358 88.0981C184.27 85.7257 185.339 83.4811 185.849 81.1567C187.293 74.6066 182.229 68.8474 176.774 66.0916C172.627 63.9987 164.947 62.2494 161.263 66.2114C157.411 70.3491 158.894 78.1452 157.163 83.2175Z" fill="#0E403B"/>
<path d="M154.019 165.78L138.676 287.723H144.577L172.433 174.087L178.064 161.475L154.019 165.78Z" fill="#F5B289"/>
<path d="M147.711 225.785C149.306 226.903 151.515 227.862 153.493 227.606" stroke="#F06135" stroke-miterlimit="10" stroke-linecap="round"/>
<path d="M166.549 177.522C167.793 169.79 173.072 166.571 174.316 158.839C178.344 159.949 182.068 159.494 186.151 159.757C188.599 159.917 188.727 159.869 189.341 162.545C189.7 164.111 189.907 165.74 189.78 167.362C189.205 174.687 188.137 182.051 187.618 189.416C186.39 206.766 185.401 224.123 184.652 241.489C184.237 251.186 183.894 260.876 183.623 270.573C183.599 271.515 183.575 272.458 183.559 273.4H174.986C174.404 259.414 173.822 245.435 173.232 231.448C172.801 221.072 170.193 205.959 168.527 195.759C168.072 193.003 164.467 189.855 164.372 187.052C164.268 183.673 166.006 180.877 166.549 177.522Z" fill="#F5B289"/>
<path d="M165.801 200.919C166.542 197.34 167.468 193.802 168.568 190.319" stroke="#3A608C" stroke-miterlimit="10" stroke-linecap="round"/>
<path d="M185.304 265.764C185.407 266.339 185.415 266.946 185.447 267.522C185.511 268.616 185.814 269.87 186.795 270.405C186.261 272.993 185.639 275.525 185.04 278.121C184.65 279.823 184.291 281.54 183.98 283.258C183.812 284.152 183.661 285.047 183.517 285.942C183.461 286.309 183.063 287.427 183.278 287.771C183.469 288.082 184.052 287.891 184.251 288.194C184.323 288.298 184.323 288.442 184.323 288.57C184.315 289.001 184.275 289.496 183.924 289.752C183.82 289.832 183.677 289.896 183.669 290.031C183.669 290.135 183.748 290.215 183.828 290.279C185.519 291.685 187.154 292.971 188.916 294.289C190.559 295.511 192.194 296.741 193.893 297.875C190.719 297.883 187.537 297.78 184.363 297.556C182.776 297.444 181.189 297.308 179.61 297.14C178.629 297.037 177.034 297.141 176.292 296.31C175.51 295.431 175.534 293.554 175.415 292.468C175.263 291.094 175.223 289.696 175.032 288.33C174.649 285.558 174.346 282.778 174.123 279.991C173.923 277.594 173.421 274.822 173.676 272.45C173.931 270.11 175.008 270.956 176.659 269.59C179.131 267.545 181.842 265.788 184.721 264.35C185.056 264.766 185.216 265.253 185.304 265.764Z" fill="#F06135"/>
<path d="M140.814 265.013C140.574 265.588 140.415 266.195 140.231 266.771C139.896 267.865 139.282 269.119 138.174 269.654C138.062 272.242 138.062 274.774 138.022 277.37C137.99 279.072 137.927 280.789 137.815 282.507C137.759 283.401 137.687 284.296 137.616 285.191C137.584 285.558 137.703 286.676 137.4 287.02C137.129 287.331 136.603 287.14 136.316 287.443C136.22 287.547 136.18 287.691 136.156 287.819C136.06 288.25 135.973 288.745 136.26 289.001C136.348 289.081 136.475 289.145 136.443 289.28C136.419 289.384 136.316 289.464 136.22 289.528C134.178 290.934 132.225 292.22 130.135 293.538C128.189 294.76 126.251 295.99 124.266 297.124C127.44 297.132 130.646 297.029 133.875 296.805C135.486 296.693 137.105 296.557 138.732 296.39C139.745 296.286 141.308 296.39 142.257 295.559C143.262 294.68 143.692 292.803 144.083 291.717C144.578 290.343 144.96 288.945 145.487 287.579C146.555 284.807 147.544 282.027 148.461 279.24C149.251 276.843 150.439 274.071 150.774 271.699C151.101 269.359 149.809 270.205 148.493 268.839C146.524 266.795 144.251 265.037 141.723 263.599C141.308 264.015 141.029 264.502 140.814 265.013Z" fill="#F06135"/>
<path d="M148.693 100.735L128.094 126.632L128.74 132.726L133.118 130.562L153.422 115.585L152.864 107.333L148.693 100.735Z" fill="#F5B289"/>
<path d="M190.983 98.7141L207.954 139.971L201.566 135.091L185.465 117.677L185.473 117.326C185.624 110.983 187.395 104.793 190.617 99.3292L190.983 98.7141Z" fill="#F5B289"/>
<path d="M145.487 147.943L128.74 132.343L128.094 126.248H135.877L147.409 144.285V147.352L145.487 147.943Z" fill="#F5B289"/>
<path d="M136.643 141.96L144.148 135.091L137.752 127.143L155.512 114.458L148.694 100.735L128.094 126.248L127.297 132.343L136.643 141.96Z" fill="#FFA51F"/>
<path d="M147.406 200.088L189.825 202.277L190.248 198.107C192.09 179.775 190.654 161.267 186.013 143.446L182.36 129.435L190.989 98.7141C190.136 96.9328 180.869 97.7076 175.749 93.3862C172.846 90.9339 165.836 92.1081 163.835 93.4101C157.71 97.3961 150.19 98.1469 148.69 100.352L158.364 130.745L154.624 142.567C149.839 157.712 147.398 173.496 147.398 189.376V200.088H147.406Z" fill="#4C2A6E"/>
<path d="M178.056 113.372L169.834 116.87L161.125 112.142L163.294 99.4569L166.046 83.4253H173.869L176.19 100.032L178.056 113.372Z" fill="#F5B289"/>
<path d="M178.056 113.372L169.834 116.871L161.117 112.142L163.294 99.457C165.822 100.743 169.587 102.692 169.587 102.692L176.19 100.032L178.056 113.372Z" fill="#FFA51F"/>
<path d="M173.368 62.0018C165.529 61.3228 163.367 70.1334 162.618 77.674C162.371 80.1502 162.187 82.922 163.072 85.2624C164.061 87.8904 165.417 91.0137 167.881 92.5873C171.167 94.6881 174.644 92.0202 176.885 89.5759C179.046 87.2195 179.82 84.0483 180.824 81.1008C183.113 74.383 185.936 63.0801 173.368 62.0018Z" fill="#F5B289"/>
<path d="M167.875 92.5874C171.161 94.6882 174.638 92.0202 176.879 89.5759" stroke="#E09277" stroke-miterlimit="10" stroke-linecap="round"/>
<path d="M162.537 75.4453C162.537 75.4453 162.537 72.362 160.041 73.1289C157.545 73.8957 159.794 81.0848 162.537 80.5736C165.289 80.0623 162.537 75.4453 162.537 75.4453Z" fill="#F5B289"/>
<path d="M179.524 79.8946C179.524 79.8946 180.265 76.8991 182.498 78.2651C184.731 79.631 180.831 86.0452 178.295 84.871C175.751 83.6968 179.524 79.8946 179.524 79.8946Z" fill="#F5B289"/>
<path d="M157.315 150.3C156.996 149.629 156.709 148.942 156.478 148.239C155.632 148.239 153.256 148.303 154.899 147.009C155.385 146.625 155.64 146.481 155.824 145.842C156.167 144.684 156.51 143.462 156.246 142.288C156.055 142.535 155.864 142.775 155.664 143.023C155.138 143.686 154.611 144.357 153.966 144.9C152.737 145.946 151.214 146.242 149.683 145.755C148.694 145.443 147.889 144.78 147.283 143.957C146.254 145.028 145.385 145.994 144.148 146.697C145.584 148.383 146.477 149.988 147.37 152.081C147.522 152.448 147.777 152.848 147.881 153.223C147.929 153.407 147.937 153.623 147.937 153.83C147.944 154.046 147.952 154.262 148.032 154.429C148.112 154.597 148.279 154.701 148.439 154.797C149.763 155.564 151.079 156.323 152.402 157.089C153.304 156.53 154.149 155.875 154.915 155.148C156.063 154.062 157.06 152.896 157.658 151.418C157.69 151.346 157.714 151.274 157.714 151.194C157.714 151.09 157.666 150.987 157.61 150.899C157.514 150.691 157.411 150.491 157.315 150.3Z" fill="#F5B289"/>
<path d="M178.064 133.741H168.184V117.637C168.184 117.342 168.423 117.102 168.718 117.102H177.522C177.817 117.102 178.057 117.342 178.057 117.637V133.741H178.064Z" fill="#34635E"/>
<path d="M178.064 117.933H168.184V134.572H178.064V117.933Z" fill="#0E403B"/>
<path d="M179.917 128.149C179.869 128.077 179.821 128.006 179.774 127.926C178.848 126.488 176.791 126.432 175.324 126.009C174.414 125.745 173.497 125.481 172.588 125.218C171.352 124.858 170.116 124.507 168.872 124.147C167.022 123.612 167.859 124.683 167.987 125.162C168.106 125.609 169.98 126.472 170.22 126.576C170.236 126.584 170.236 126.6 170.228 126.608C170.1 126.759 169.35 127.67 169.574 127.982C169.797 128.301 170.267 128.972 170.323 129.06C170.244 129.172 169.438 130.346 169.773 130.673C170.116 131.001 171.049 131.273 171.121 131.297C171.145 131.384 171.44 132.367 171.663 132.535C171.894 132.71 176.584 133.964 176.6 133.972C176.616 133.98 180.938 135.522 181.831 134.971C182.724 134.42 181.983 130.985 181.967 130.913C181.895 130.586 181.257 130.05 181.042 129.771C180.707 129.332 180.372 128.884 180.085 128.421C179.55 127.55 179.008 126.696 178.689 125.705C178.49 125.082 178.354 124.419 177.947 123.916C178.139 124.339 178.139 124.818 178.131 125.282C178.123 125.729 178.115 126.168 178.107 126.616" fill="#F5B289"/>
<path d="M167.682 72.1864C168.814 70.3412 169.668 68.3283 170.194 66.2275C173.432 70.7566 178.049 74.2792 183.273 76.2043C182.675 75.9806 184.7 71.2039 184.788 70.8285C185.386 68.4321 185.426 65.868 183.775 63.8631C183.432 63.4397 183.033 63.0723 182.627 62.7128C180.458 60.7957 177.93 59.2381 175.138 58.4712C172.347 57.7124 169.285 57.7843 166.653 58.9825C165.776 59.3819 164.954 59.8931 164.165 60.4522C163.495 60.9235 162.841 61.4268 162.315 62.0498C161.589 62.9045 161.118 63.9509 160.672 64.9814C158.351 70.2454 161.461 72.6337 163.479 77.1548C165.122 75.725 166.541 74.0396 167.682 72.1864Z" fill="#0E403B"/>
<path d="M181.687 130.458L202.629 133.741H204.328L207.956 139.964L202.398 141.961L180.938 134.939L181.687 130.458Z" fill="#F5B289"/>
<path d="M188.743 130.745L189.827 139.963L204.692 144.285L209.541 137.519L190.983 98.7141L185.465 117.669L197.507 132.726L188.743 130.745Z" fill="#FFA51F"/>
<path d="M133.477 124.219C135.175 125.266 136.866 126.304 138.565 127.35" stroke="#F06135" stroke-miterlimit="10" stroke-linecap="round"/>
<path d="M132.664 129.883C134.267 128.948 136.285 128.765 138.039 129.388" stroke="#F06135" stroke-miterlimit="10" stroke-linecap="round"/>
<path d="M197.777 132.75C200.577 132.615 203.408 133.389 205.736 134.947" stroke="#F06135" stroke-miterlimit="10" stroke-linecap="round"/>
<path d="M136.371 289.624C137.886 290.758 139.41 291.901 140.925 293.035" stroke="#AD4626" stroke-miterlimit="10" stroke-linecap="round"/>
<path d="M136.898 287.547C138.318 287.627 139.737 287.707 141.149 287.795" stroke="#AD4626" stroke-miterlimit="10" stroke-linecap="round"/>
<path d="M178.438 292.5C180.128 291.98 181.811 291.461 183.502 290.942" stroke="#AD4626" stroke-miterlimit="10" stroke-linecap="round"/>
<path d="M179.188 288.362C180.511 288.09 181.843 287.811 183.167 287.539" stroke="#AD4626" stroke-miterlimit="10" stroke-linecap="round"/>
<path d="M159.148 188.082C167.562 192.236 177.523 193.155 186.558 190.606" stroke="#AD4626" stroke-miterlimit="10" stroke-linecap="round"/>
<path d="M0.398438 173.84V204.992H31.5005" stroke="#4C2A6E" stroke-linecap="round" stroke-linejoin="round"/>
<path d="M62.5391 204.992H87.3888" stroke="#4C2A6E" stroke-linecap="round" stroke-linejoin="round" stroke-dasharray="26.22 26.22"/>
<path d="M91.3281 204.992H122.43V173.84" stroke="#4C2A6E" stroke-linecap="round" stroke-linejoin="round"/>
<path d="M122.43 100.024V40.9219" stroke="#4C2A6E" stroke-linecap="round" stroke-linejoin="round" stroke-dasharray="62.27 62.27"/>
<path d="M122.43 31.5521V0.399414H91.3281" stroke="#4C2A6E" stroke-linecap="round" stroke-linejoin="round"/>
<path d="M60.2873 0.399414H35.4375" stroke="#4C2A6E" stroke-linecap="round" stroke-linejoin="round" stroke-dasharray="26.22 26.22"/>
<path d="M31.5005 0.399414H0.398438V31.5521" stroke="#4C2A6E" stroke-linecap="round" stroke-linejoin="round"/>
<path d="M0.398438 105.36V164.47" stroke="#4C2A6E" stroke-linecap="round" stroke-linejoin="round" stroke-dasharray="62.27 62.27"/>
<path d="M117.723 5.59155H5.09375V200.383H117.723V5.59155Z" fill="#4C2A6E"/>
<path d="M117.723 5.2959H5.09375V13.0122H117.723V5.2959Z" fill="#5D468E"/>
<path d="M111.415 24.8743H11.418V84.1362H111.415V24.8743Z" fill="white"/>
<path d="M31.4585 37.535C31.2512 36.1452 30.055 35.0828 28.6115 35.0828C27.1282 35.0828 25.908 36.2091 25.7485 37.6549C25.4774 37.575 25.1983 37.527 24.9032 37.527C23.2923 37.527 21.9844 38.8371 21.9844 40.4506C21.9844 42.0642 23.2923 43.3742 24.9032 43.3742C26.4184 43.3742 29.8396 43.3742 31.323 43.3742C32.9339 43.3742 34.2418 42.0642 34.2418 40.4506C34.2418 38.885 33.0057 37.6069 31.4585 37.535Z" fill="#EFC33B"/>
<path d="M30.1887 42.9667H23.7689C21.9905 42.9667 20.5391 41.5209 20.5391 39.7316C20.5391 37.9503 21.9825 36.4965 23.7689 36.4965C23.9683 36.4965 24.1676 36.5125 24.359 36.5524C24.678 35.1066 25.954 34.0522 27.4692 34.0522C28.9526 34.0522 30.2445 35.0987 30.5715 36.5205C32.1824 36.7122 33.4105 38.0781 33.4105 39.7316C33.4185 41.5129 31.9671 42.9667 30.1887 42.9667ZM23.7769 37.1196C22.3414 37.1196 21.1691 38.2938 21.1691 39.7316C21.1691 41.1694 22.3414 42.3436 23.7769 42.3436H30.1967C31.6321 42.3436 32.8044 41.1694 32.8044 39.7316C32.8044 38.3337 31.7119 37.1835 30.3163 37.1196L30.0611 37.1116L30.0212 36.856C29.8378 35.6099 28.7452 34.6673 27.4852 34.6673C26.1693 34.6673 25.0768 35.6498 24.9332 36.9598L24.8934 37.3353L24.5345 37.2234C24.2873 37.1595 24.0321 37.1196 23.7769 37.1196Z" fill="#15635B"/>
<path d="M92.7051 43.494C92.9125 42.1041 94.1087 41.0417 95.5522 41.0417C97.0355 41.0417 98.2557 42.168 98.4152 43.6138C98.6863 43.534 98.9654 43.486 99.2605 43.486C100.871 43.486 102.179 44.796 102.179 46.4096C102.179 48.0231 100.871 49.3331 99.2605 49.3331C97.7453 49.3331 94.3241 49.3331 92.8407 49.3331C91.2298 49.3331 89.9219 48.0231 89.9219 46.4096C89.9139 44.844 91.15 43.5659 92.7051 43.494Z" fill="#EFC33B"/>
<path d="M98.3566 48.5104H91.9369C90.1585 48.5104 88.707 47.0646 88.707 45.2753C88.707 43.6218 89.9352 42.2639 91.5461 42.0642C91.8731 40.6424 93.165 39.5959 94.6483 39.5959C96.1636 39.5959 97.4395 40.6503 97.7585 42.0961C97.9499 42.0562 98.1493 42.0402 98.3487 42.0402C100.127 42.0402 101.579 43.486 101.579 45.2753C101.579 47.0566 100.135 48.5104 98.3566 48.5104ZM94.6483 40.219C93.3883 40.219 92.2957 41.1616 92.1123 42.4077L92.0724 42.6633L91.8172 42.6713C90.4216 42.7352 89.3291 43.8774 89.3291 45.2833C89.3291 46.7211 90.5014 47.8953 91.9369 47.8953H98.3566C99.7921 47.8953 100.964 46.7211 100.964 45.2833C100.964 43.8455 99.7921 42.6713 98.3566 42.6713C98.1014 42.6713 97.8463 42.7112 97.599 42.7831L97.2402 42.8949L97.2003 42.5195C97.0647 41.2015 95.9642 40.219 94.6483 40.219Z" fill="#15635B"/>
<path d="M78.8476 80.5337H31.692C31.5724 80.5337 31.4688 80.6375 31.4688 80.7574C31.4688 80.8772 31.5724 80.981 31.692 80.981H78.8396C78.9592 80.981 79.0629 80.8772 79.0629 80.7574C79.0709 80.6295 78.9672 80.5337 78.8476 80.5337Z" fill="#15635B"/>
<path d="M108.395 80.5337H99.1842C99.0646 80.5337 98.9609 80.6375 98.9609 80.7574C98.9609 80.8772 99.0646 80.981 99.1842 80.981H108.395C108.515 80.981 108.619 80.8772 108.619 80.7574C108.619 80.6295 108.523 80.5337 108.395 80.5337Z" fill="#15635B"/>
<path d="M97.9631 80.5337H81.3913C81.2716 80.5337 81.168 80.6375 81.168 80.7574C81.168 80.8772 81.2716 80.981 81.3913 80.981H97.9631C98.0827 80.981 98.1864 80.8772 98.1864 80.7574C98.1864 80.6295 98.0907 80.5337 97.9631 80.5337Z" fill="#15635B"/>
<path d="M30.1625 80.5337H17.61C17.4904 80.5337 17.3867 80.6375 17.3867 80.7574C17.3867 80.8772 17.4904 80.981 17.61 80.981H30.1625C30.2821 80.981 30.3858 80.8772 30.3858 80.7574C30.3858 80.6295 30.2821 80.5337 30.1625 80.5337Z" fill="#15635B"/>
<path d="M34.0845 78.401C33.917 78.401 33.7734 78.2652 33.7734 78.0895V63.304C33.7734 63.1362 33.909 62.9924 34.0845 62.9924C34.2519 62.9924 34.3955 63.1282 34.3955 63.304V78.0975C34.3875 78.2652 34.2519 78.401 34.0845 78.401Z" fill="#15635B"/>
<path d="M34.0836 66.3632C34.0039 66.3632 33.9241 66.3312 33.8683 66.2753L32.6561 65.0612C32.5365 64.9414 32.5365 64.7417 32.6561 64.6218C32.7757 64.502 32.9751 64.502 33.0947 64.6218L34.3069 65.836C34.4265 65.9558 34.4265 66.1555 34.3069 66.2753C34.2352 66.3312 34.1554 66.3632 34.0836 66.3632Z" fill="#15635B"/>
<path d="M34.0755 68.6238C34.0117 68.6238 33.9559 68.6078 33.9001 68.5679C33.7565 68.472 33.7246 68.2803 33.8203 68.1365L35.1442 66.2274C35.2399 66.0837 35.4313 66.0517 35.5748 66.1476C35.7184 66.2434 35.7503 66.4351 35.6546 66.5789L34.3307 68.488C34.2749 68.5759 34.1792 68.6238 34.0755 68.6238Z" fill="#15635B"/>
<path d="M34.1156 72.6018C34.0916 72.6018 34.0598 72.6018 34.0358 72.5938C33.9641 72.5778 32.2494 72.1065 31.6513 69.7182C31.0373 67.2898 32.3132 59.0304 33.5494 57.4408C33.677 57.2811 33.8125 57.1692 33.9561 57.1213C33.996 57.0973 34.0438 57.0894 34.0917 57.0894H34.1395C34.1874 57.0894 34.2352 57.0973 34.2751 57.1213C34.4186 57.1692 34.5542 57.2811 34.6818 57.4408C35.9179 59.0304 37.1939 67.2978 36.5798 69.7182C35.9737 72.0985 34.2671 72.5698 34.1953 72.5938C34.1634 72.5938 34.1395 72.6018 34.1156 72.6018ZM34.1156 57.7284C33.8444 57.9441 33.1985 59.3579 32.6083 62.8087C32.1139 65.7482 31.9703 68.4641 32.2494 69.5664C32.696 71.3237 33.8125 71.8509 34.1156 71.9627C34.4266 71.8509 35.5351 71.3237 35.9817 69.5664C36.2608 68.4641 36.1173 65.7482 35.6228 62.8087C35.0327 59.3579 34.3867 57.9441 34.1156 57.7284Z" fill="#15635B"/>
<path d="M29.6548 81.0769C29.4873 81.0769 29.3438 80.9412 29.3438 80.7654V72.7456C29.3438 72.5779 29.4793 72.4341 29.6548 72.4341C29.8222 72.4341 29.9658 72.5699 29.9658 72.7456V80.7654C29.9578 80.9332 29.8222 81.0769 29.6548 81.0769Z" fill="#15635B"/>
<path d="M29.653 74.5188C29.5732 74.5188 29.4935 74.4869 29.4377 74.431L28.6561 73.6561C28.5365 73.5363 28.5365 73.3366 28.6561 73.2168C28.7757 73.097 28.9751 73.097 29.0947 73.2168L29.8763 73.9916C29.9959 74.1115 29.9959 74.3112 29.8763 74.431C29.8125 74.4869 29.7327 74.5188 29.653 74.5188Z" fill="#15635B"/>
<path d="M29.6556 75.9088C29.5997 75.9088 29.5359 75.8928 29.4801 75.8528C29.3366 75.757 29.3047 75.5653 29.3924 75.4215L30.3255 74.0316C30.4212 73.8878 30.6126 73.8559 30.7561 73.9437C30.8997 74.0396 30.9316 74.2313 30.8438 74.3751L29.9108 75.765C29.847 75.8608 29.7513 75.9088 29.6556 75.9088Z" fill="#15635B"/>
<path d="M29.6538 76.9631C27.9233 76.9631 26.5117 75.5493 26.5117 73.8159C26.5117 72.0826 27.9233 70.6687 29.6538 70.6687C31.3844 70.6687 32.7959 72.0826 32.7959 73.8159C32.7959 75.5493 31.3844 76.9631 29.6538 76.9631ZM29.6538 71.2997C28.2662 71.2997 27.1338 72.434 27.1338 73.8239C27.1338 75.2138 28.2662 76.3481 29.6538 76.3481C31.0415 76.3481 32.1739 75.2138 32.1739 73.8239C32.1739 72.426 31.0415 71.2997 29.6538 71.2997Z" fill="#15635B"/>
<path d="M77.7083 41.9364H75.8182L73.8644 38.4616C73.7528 38.2699 73.665 38.0702 73.5933 37.8546C73.4816 37.5191 73.4258 37.1596 73.4258 36.8082C73.4258 34.963 74.9251 33.4692 76.7593 33.4692C78.6015 33.4692 80.0928 34.971 80.0928 36.8082C80.0928 37.1676 80.037 37.5191 79.9253 37.8546V37.8626C79.8535 38.0702 79.7658 38.2699 79.6621 38.4537L77.7083 41.9364ZM76.0734 41.489H77.4531L79.2794 38.246C79.3751 38.0782 79.4548 37.9025 79.5106 37.7188V37.7108C79.6063 37.4232 79.6542 37.1197 79.6542 36.8082C79.6542 35.2106 78.3543 33.9086 76.7593 33.9086C75.1643 33.9086 73.8644 35.2106 73.8644 36.8082C73.8644 37.1197 73.9123 37.4232 74.008 37.7188C74.0717 37.9025 74.1435 38.0782 74.2392 38.246L76.0734 41.489Z" fill="#15635B"/>
<path d="M77.4382 43.9652H76.0905C75.9709 43.9652 75.8672 43.8694 75.8672 43.7416V42.3916C75.8672 42.2718 75.9629 42.168 76.0905 42.168H77.4382C77.5579 42.168 77.6615 42.2638 77.6615 42.3916V43.7416C77.6615 43.8614 77.5658 43.9652 77.4382 43.9652ZM76.3058 43.5179H77.2149V42.6073H76.3058V43.5179Z" fill="#15635B"/>
<path d="M76.4942 41.9364C76.4065 41.9364 76.3188 41.8805 76.2869 41.7846C76.1832 41.4811 76.0317 41.1136 75.8642 40.7222C75.4176 39.6439 74.8594 38.2939 74.8594 37.2475C74.8594 34.939 76.1114 33.4692 76.7654 33.4692C77.4592 33.4692 78.5278 35.1307 78.5278 37.3354C78.5278 38.4537 78.0573 39.6518 77.6825 40.6104C77.515 41.0337 77.3555 41.4411 77.2678 41.7686C77.2359 41.8884 77.1163 41.9523 76.9966 41.9204C76.877 41.8884 76.8132 41.7686 76.8451 41.6488C76.9408 41.2973 77.1083 40.882 77.2758 40.4426C77.6586 39.4681 78.0972 38.3658 78.0972 37.3274C78.0972 35.1467 77.0604 33.9006 76.7813 33.9006C76.4703 33.9006 75.3219 35.1147 75.3219 37.2395C75.3219 38.198 75.8642 39.5001 76.2949 40.5385C76.4623 40.9379 76.6138 41.3133 76.7255 41.6328C76.7654 41.7447 76.7016 41.8725 76.5899 41.9124C76.5421 41.9284 76.5181 41.9364 76.4942 41.9364Z" fill="#15635B"/>
<path d="M73.14 69.7979H69.3359V80.5655H73.14V69.7979Z" fill="#EFC33B"/>
<path d="M80.1907 69.7981H76.3867V80.5657H80.1907V69.7981Z" fill="#EFC33B"/>
<path d="M87.2415 69.7979H83.4375V80.5655H87.2415V69.7979Z" fill="#EFC33B"/>
<path d="M49.1521 47.9033C48.2031 47.9033 47.4375 48.6702 47.4375 49.6207V53.0635H50.8667V49.6207C50.8667 48.6781 50.1011 47.9033 49.1521 47.9033Z" fill="#EFC33B"/>
<path d="M55.0818 47.9033C54.1328 47.9033 53.3672 48.6702 53.3672 49.6207V53.0635H56.7964V49.6207C56.7964 48.6781 56.0308 47.9033 55.0818 47.9033Z" fill="#EFC33B"/>
<path d="M89.3451 80.4138H65.8032C65.6357 80.4138 65.4922 80.278 65.4922 80.1022V57.896C65.4922 57.7283 65.6278 57.5845 65.8032 57.5845H89.3451C89.5126 57.5845 89.6561 57.7203 89.6561 57.896V80.1022C89.6481 80.27 89.5126 80.4138 89.3451 80.4138ZM66.1142 79.7907H89.0341V58.1995H66.1142V79.7907Z" fill="#15635B"/>
<path d="M72.4197 80.4138H68.6157C68.4482 80.4138 68.3047 80.278 68.3047 80.1023V69.3267C68.3047 69.1589 68.4403 69.0151 68.6157 69.0151H72.4197C72.5872 69.0151 72.7307 69.1509 72.7307 69.3267V80.0943C72.7307 80.27 72.5952 80.4138 72.4197 80.4138ZM68.9267 79.7908H72.1087V69.6382H68.9267V79.7908Z" fill="#15635B"/>
<path d="M79.4705 80.4138H75.6665C75.499 80.4138 75.3555 80.278 75.3555 80.1023V69.3267C75.3555 69.1589 75.491 69.0151 75.6665 69.0151H79.4705C79.638 69.0151 79.7815 69.1509 79.7815 69.3267V80.0943C79.7815 80.27 79.646 80.4138 79.4705 80.4138ZM75.9775 79.7908H79.1595V69.6382H75.9775V79.7908Z" fill="#15635B"/>
<path d="M86.5213 80.4138H82.7173C82.5498 80.4138 82.4062 80.278 82.4062 80.1023V69.3267C82.4062 69.1589 82.5418 69.0151 82.7173 69.0151H86.5213C86.6888 69.0151 86.8323 69.1509 86.8323 69.3267V80.0943C86.8323 80.27 86.6967 80.4138 86.5213 80.4138ZM83.0283 79.7908H86.2103V69.6382H83.0283V79.7908Z" fill="#15635B"/>
<path d="M64.5189 80.4059H44.5259C44.3584 80.4059 44.2148 80.2701 44.2148 80.0943V40.6104C44.2148 40.4426 44.3504 40.2988 44.5259 40.2988H64.5189C64.6864 40.2988 64.8299 40.4346 64.8299 40.6104V80.0943C64.8299 80.2621 64.6944 80.4059 64.5189 80.4059ZM44.8369 79.7828H64.2079V40.9219H44.8369V79.7828Z" fill="#15635B"/>
<path d="M64.5189 44.4687H44.5259C44.3584 44.4687 44.2148 44.3329 44.2148 44.1572V42.959C44.2148 42.7912 44.3504 42.6475 44.5259 42.6475H64.5189C64.6864 42.6475 64.8299 42.7833 64.8299 42.959V44.1572C64.8299 44.3329 64.6944 44.4687 64.5189 44.4687ZM44.8369 43.8456H64.2079V43.2705H44.8369V43.8456Z" fill="#15635B"/>
<path d="M50.3066 52.8477H46.8774C46.71 52.8477 46.5664 52.7119 46.5664 52.5361V49.0934C46.5664 47.9751 47.4755 47.0645 48.592 47.0645C49.7085 47.0645 50.6177 47.9751 50.6177 49.0934V52.5361C50.6177 52.7039 50.4821 52.8477 50.3066 52.8477ZM47.1884 52.2246H50.0036V49.0854C50.0036 48.3106 49.3736 47.6795 48.6 47.6795C47.8264 47.6795 47.1964 48.3106 47.1964 49.0854V52.2246H47.1884Z" fill="#15635B"/>
<path d="M56.2402 52.8477H52.811C52.6435 52.8477 52.5 52.7119 52.5 52.5361V49.0934C52.5 47.9751 53.4091 47.0645 54.5256 47.0645C55.6421 47.0645 56.5512 47.9751 56.5512 49.0934V52.5361C56.5512 52.7039 56.4077 52.8477 56.2402 52.8477ZM53.1141 52.2246H55.9292V49.0854C55.9292 48.3106 55.2992 47.6795 54.5256 47.6795C53.7521 47.6795 53.122 48.3106 53.122 49.0854V52.2246H53.1141Z" fill="#15635B"/>
<path d="M62.1738 52.8477H58.7446C58.5771 52.8477 58.4336 52.7119 58.4336 52.5361V49.0934C58.4336 47.9751 59.3427 47.0645 60.4592 47.0645C61.5757 47.0645 62.4848 47.9751 62.4848 49.0934V52.5361C62.4769 52.7039 62.3413 52.8477 62.1738 52.8477ZM59.0477 52.2246H61.8628V49.0854C61.8628 48.3106 61.2328 47.6795 60.4592 47.6795C59.6857 47.6795 59.0556 48.3106 59.0556 49.0854V52.2246H59.0477Z" fill="#15635B"/>
<path d="M50.3066 60.6599H46.8774C46.71 60.6599 46.5664 60.5241 46.5664 60.3484V56.9056C46.5664 55.7873 47.4755 54.8767 48.592 54.8767C49.7085 54.8767 50.6177 55.7873 50.6177 56.9056V60.3484C50.6177 60.5161 50.4821 60.6599 50.3066 60.6599ZM47.1884 60.0369H50.0036V56.8976C50.0036 56.1228 49.3736 55.4918 48.6 55.4918C47.8264 55.4918 47.1964 56.1228 47.1964 56.8976V60.0369H47.1884Z" fill="#15635B"/>
<path d="M56.2402 60.6599H52.811C52.6435 60.6599 52.5 60.5241 52.5 60.3484V56.9056C52.5 55.7873 53.4091 54.8767 54.5256 54.8767C55.6421 54.8767 56.5512 55.7873 56.5512 56.9056V60.3484C56.5512 60.5161 56.4077 60.6599 56.2402 60.6599ZM53.1141 60.0369H55.9292V56.8976C55.9292 56.1228 55.2992 55.4918 54.5256 55.4918C53.7521 55.4918 53.122 56.1228 53.122 56.8976V60.0369H53.1141Z" fill="#15635B"/>
<path d="M62.1738 60.6599H58.7446C58.5771 60.6599 58.4336 60.5241 58.4336 60.3484V56.9056C58.4336 55.7873 59.3427 54.8767 60.4592 54.8767C61.5757 54.8767 62.4848 55.7873 62.4848 56.9056V60.3484C62.4769 60.5161 62.3413 60.6599 62.1738 60.6599ZM59.0477 60.0369H61.8628V56.8976C61.8628 56.1228 61.2328 55.4918 60.4592 55.4918C59.6857 55.4918 59.0556 56.1228 59.0556 56.8976V60.0369H59.0477Z" fill="#15635B"/>
<path d="M50.3066 68.4722H46.8774C46.71 68.4722 46.5664 68.3364 46.5664 68.1606V64.7179C46.5664 63.5996 47.4755 62.689 48.592 62.689C49.7085 62.689 50.6177 63.5996 50.6177 64.7179V68.1606C50.6177 68.3364 50.4821 68.4722 50.3066 68.4722ZM47.1884 67.8491H50.0036V64.7099C50.0036 63.9351 49.3736 63.304 48.6 63.304C47.8264 63.304 47.1964 63.9351 47.1964 64.7099V67.8491H47.1884Z" fill="#15635B"/>
<path d="M56.2402 68.4719H52.811C52.6435 68.4719 52.5 68.3361 52.5 68.1604V64.7176C52.5 63.5993 53.4091 62.6887 54.5256 62.6887C55.6421 62.6887 56.5512 63.5993 56.5512 64.7176V68.1604C56.5512 68.3361 56.4077 68.4719 56.2402 68.4719ZM53.1141 67.8489H55.9292V64.7096C55.9292 63.9348 55.2992 63.3038 54.5256 63.3038C53.7521 63.3038 53.122 63.9348 53.122 64.7096V67.8489H53.1141Z" fill="#15635B"/>
<path d="M62.1738 68.4719H58.7446C58.5771 68.4719 58.4336 68.3361 58.4336 68.1604V64.7176C58.4336 63.5993 59.3427 62.6887 60.4592 62.6887C61.5757 62.6887 62.4848 63.5993 62.4848 64.7176V68.1604C62.4769 68.3361 62.3413 68.4719 62.1738 68.4719ZM59.0477 67.8489H61.8628V64.7096C61.8628 63.9348 61.2328 63.3038 60.4592 63.3038C59.6857 63.3038 59.0556 63.9348 59.0556 64.7096V67.8489H59.0477Z" fill="#15635B"/>
<path d="M51.8935 78.4008H47.2681C47.1006 78.4008 46.957 78.265 46.957 78.0893V70.4849C46.957 70.3171 47.0926 70.1733 47.2681 70.1733H51.8935C52.061 70.1733 52.2045 70.3091 52.2045 70.4849V78.0893C52.2045 78.265 52.0689 78.4008 51.8935 78.4008ZM47.5791 77.7778H51.5904V70.7964H47.5791V77.7778Z" fill="#15635B"/>
<path d="M53.1707 80.4057H46.0571C45.8896 80.4057 45.7461 80.2699 45.7461 80.0942V79.0957C45.7461 78.928 45.8817 78.7842 46.0571 78.7842H53.1707C53.3382 78.7842 53.4817 78.92 53.4817 79.0957V80.0942C53.4817 80.2619 53.3382 80.4057 53.1707 80.4057ZM46.3681 79.7827H52.8597V79.3992H46.3681V79.7827Z" fill="#15635B"/>
<path d="M52.2924 79.3994H46.8774C46.71 79.3994 46.5664 79.2636 46.5664 79.0878V78.0894C46.5664 77.9216 46.702 77.7778 46.8774 77.7778H52.2924C52.4598 77.7778 52.6034 77.9136 52.6034 78.0894V79.0878C52.6034 79.2636 52.4598 79.3994 52.2924 79.3994ZM47.1884 78.7843H51.9893V78.4009H47.1884V78.7843Z" fill="#15635B"/>
<path d="M114.615 7.82812H108.211V10.6159H114.615V7.82812Z" stroke="#15635B" stroke-miterlimit="10" stroke-dasharray="78 78"/>
<path d="M14.2188 7.11719V11.3268" stroke="#15635B" stroke-miterlimit="10" stroke-dasharray="78 78"/>
<path d="M11.5547 8.43506V11.3267" stroke="#15635B" stroke-miterlimit="10" stroke-dasharray="78 78"/>
<path d="M8.89062 9.8811V11.3269" stroke="#15635B" stroke-miterlimit="10" stroke-dasharray="78 78"/>
<path d="M108.625 107.836H11.5547V134.683H108.625V107.836Z" fill="#D3EBEC"/>
<path d="M26.5052 130.745C32.1561 130.745 36.737 126.157 36.737 120.497C36.737 114.837 32.1561 110.248 26.5052 110.248C20.8544 110.248 16.2734 114.837 16.2734 120.497C16.2734 126.157 20.8544 130.745 26.5052 130.745Z" fill="#D3EBEC"/>
<path d="M46.5378 111.047L47.2954 112.581L48.9781 112.82L47.758 114.011L48.0451 115.696L46.5378 114.897L45.0385 115.696L45.3256 114.011L44.1055 112.82L45.7882 112.581L46.5378 111.047Z" fill="#EFC33B"/>
<path d="M45.7413 111.047L46.4909 112.573L48.1736 112.82L46.9535 114.011L47.2406 115.688L45.7333 114.897L44.2261 115.688L44.5132 114.011L43.293 112.82L44.9757 112.573L45.7413 111.047ZM45.7413 110.648C45.5898 110.648 45.4542 110.736 45.3824 110.871L44.7205 112.213L43.2452 112.429C43.0936 112.453 42.974 112.557 42.9262 112.701C42.8783 112.844 42.9182 113.004 43.0298 113.108L44.0985 114.154L43.8433 115.624C43.8193 115.776 43.8752 115.928 44.0028 116.016C44.0745 116.063 44.1543 116.095 44.234 116.095C44.2978 116.095 44.3616 116.079 44.4175 116.047L45.7413 115.353L47.0651 116.047C47.121 116.079 47.1848 116.095 47.2485 116.095C47.3283 116.095 47.416 116.071 47.4798 116.016C47.5994 115.928 47.6632 115.776 47.6393 115.624L47.3841 114.154L48.4528 113.108C48.5644 113.004 48.6043 112.844 48.5564 112.701C48.5086 112.557 48.381 112.453 48.2374 112.429L46.7621 112.213L46.1002 110.871C46.0364 110.736 45.9008 110.648 45.7413 110.648Z" fill="#15635B"/>
<path d="M53.573 111.047L54.3306 112.581L56.0133 112.82L54.7931 114.011L55.0802 115.696L53.573 114.897L52.0657 115.696L52.3528 114.011L51.1406 112.82L52.8233 112.581L53.573 111.047Z" fill="#EFC33B"/>
<path d="M52.7765 111.047L53.5261 112.573L55.2088 112.82L53.9886 114.011L54.2757 115.688L52.7685 114.897L51.2612 115.688L51.5483 114.011L50.3282 112.82L52.0109 112.573L52.7765 111.047ZM52.7765 110.648C52.6249 110.648 52.4894 110.736 52.4176 110.871L51.7557 112.213L50.2803 112.429C50.1288 112.453 50.0092 112.557 49.9613 112.701C49.9135 112.844 49.9533 113.004 50.065 113.108L51.1336 114.154L50.8784 115.624C50.8545 115.776 50.9103 115.928 51.0379 116.016C51.1097 116.063 51.1895 116.095 51.2692 116.095C51.333 116.095 51.3968 116.079 51.4526 116.047L52.7765 115.353L54.1003 116.047C54.1561 116.079 54.2199 116.095 54.2837 116.095C54.3635 116.095 54.4512 116.071 54.515 116.016C54.6346 115.928 54.6984 115.776 54.6745 115.624L54.4193 114.154L55.4879 113.108C55.5996 113.004 55.6394 112.844 55.5916 112.701C55.5437 112.557 55.4161 112.453 55.2726 112.429L53.7972 112.213L53.1353 110.871C53.0715 110.736 52.928 110.648 52.7765 110.648Z" fill="#15635B"/>
<path d="M60.6083 111.047L61.3579 112.581L63.0486 112.82L61.8284 114.011L62.1155 115.696L60.6083 114.897L59.101 115.696L59.3881 114.011L58.168 112.82L59.8586 112.581L60.6083 111.047Z" fill="#EFC33B"/>
<path d="M59.8116 111.047L60.5613 112.573L62.244 112.82L61.0238 114.011L61.3109 115.688L59.8116 114.897L58.3044 115.688L58.5915 114.011L57.3713 112.82L59.054 112.573L59.8116 111.047ZM59.8116 110.648C59.6601 110.648 59.5245 110.736 59.4527 110.871L58.7908 112.213L57.3155 112.429C57.1639 112.453 57.0443 112.557 56.9965 112.701C56.9486 112.844 56.9885 113.004 57.1001 113.108L58.1688 114.154L57.9136 115.624C57.8897 115.776 57.9455 115.928 58.0731 116.016C58.1449 116.063 58.2246 116.095 58.3044 116.095C58.3682 116.095 58.432 116.079 58.4878 116.047L59.8116 115.353L61.1354 116.047C61.1913 116.079 61.2551 116.095 61.3189 116.095C61.3986 116.095 61.4863 116.071 61.5501 116.016C61.6698 115.928 61.7336 115.776 61.7096 115.624L61.4544 114.154L62.5231 113.108C62.6347 113.004 62.6746 112.844 62.6267 112.701C62.5789 112.557 62.4513 112.453 62.3077 112.429L60.8324 112.213L60.1705 110.871C60.0987 110.736 59.9631 110.648 59.8116 110.648Z" fill="#15635B"/>
<path d="M67.6395 111.047L68.3892 112.581L70.0719 112.82L68.8597 114.011L69.1468 115.696L67.6395 114.897L66.1323 115.696L66.4194 114.011L65.1992 112.82L66.8819 112.581L67.6395 111.047Z" fill="#EFC33B"/>
<path d="M66.8429 111.047L67.5925 112.573L69.2752 112.82L68.055 114.011L68.3421 115.688L66.8349 114.897L65.3276 115.688L65.6147 114.011L64.3946 112.82L66.0773 112.573L66.8429 111.047ZM66.8429 110.648C66.6913 110.648 66.5558 110.736 66.484 110.871L65.8221 112.213L64.3467 112.429C64.1952 112.453 64.0756 112.557 64.0277 112.701C63.9799 112.844 64.0197 113.004 64.1314 113.108L65.2 114.154L64.9448 115.624C64.9209 115.776 64.9767 115.928 65.1043 116.016C65.1761 116.063 65.2559 116.095 65.3356 116.095C65.3994 116.095 65.4632 116.079 65.519 116.047L66.8429 115.353L68.1667 116.047C68.2225 116.079 68.2863 116.095 68.3501 116.095C68.4299 116.095 68.5176 116.071 68.5814 116.016C68.701 115.928 68.7648 115.776 68.7409 115.624L68.4857 114.154L69.5543 113.108C69.666 113.004 69.7058 112.844 69.658 112.701C69.6101 112.557 69.4825 112.453 69.339 112.429L67.8636 112.213L67.2017 110.871C67.13 110.736 66.9944 110.648 66.8429 110.648Z" fill="#15635B"/>
<path d="M73.878 111.047L74.6277 112.573L76.3104 112.82L75.0902 114.011L75.3773 115.688L73.87 114.897L72.3628 115.688L72.6499 114.011L71.4297 112.82L73.1124 112.573L73.878 111.047ZM73.878 110.648C73.7265 110.648 73.5909 110.736 73.5191 110.871L72.8572 112.213L71.3819 112.429C71.2304 112.453 71.1107 112.557 71.0629 112.701C71.015 112.844 71.0549 113.004 71.1666 113.108L72.2352 114.154L71.98 115.624C71.9561 115.776 72.0119 115.928 72.1395 116.016C72.2113 116.063 72.291 116.095 72.3708 116.095C72.4346 116.095 72.4984 116.079 72.5542 116.047L73.878 115.353L75.2018 116.047C75.2577 116.079 75.3215 116.095 75.3853 116.095C75.465 116.095 75.5527 116.071 75.6165 116.016C75.7362 115.928 75.8 115.776 75.776 115.624L75.5208 114.154L76.5895 113.108C76.7011 113.004 76.741 112.844 76.6932 112.701C76.6453 112.557 76.5177 112.453 76.3742 112.429L74.8988 112.213L74.2369 110.871C74.1651 110.736 74.0295 110.648 73.878 110.648Z" fill="#15635B"/>
<path d="M30.671 117.03C30.671 118.452 29.5226 119.602 28.1031 119.602C26.6835 119.602 25.5352 118.452 25.5352 117.03C25.5352 115.608 26.6835 114.458 28.1031 114.458C29.5226 114.458 30.671 115.608 30.671 117.03Z" fill="#EFC33B"/>
<path d="M33.2446 124.107V126.951C31.7374 127.838 29.9749 128.349 28.1008 128.349C26.2267 128.349 24.4643 127.838 22.957 126.951V124.107C22.957 122.981 23.8741 122.07 24.9906 122.07H31.211C32.3275 122.07 33.2446 122.981 33.2446 124.107Z" fill="#EFC33B"/>
<path d="M26.5057 114.458C27.9253 114.458 29.0736 115.608 29.0736 117.03C29.0736 118.452 27.9253 119.602 26.5057 119.602C25.0862 119.602 23.9378 118.452 23.9378 117.03C23.9378 115.608 25.0862 114.458 26.5057 114.458ZM26.5057 114.059C24.8709 114.059 23.5391 115.393 23.5391 117.03C23.5391 118.668 24.8709 120.002 26.5057 120.002C28.1406 120.002 29.4724 118.668 29.4724 117.03C29.4724 115.393 28.1406 114.059 26.5057 114.059Z" fill="#15635B"/>
<path d="M29.6169 122.07C30.7334 122.07 31.6505 122.981 31.6505 124.107V126.951C30.1433 127.838 28.3808 128.349 26.5067 128.349C24.6326 128.349 22.8702 127.838 21.3629 126.951V124.107C21.3629 122.981 22.2801 122.07 23.3965 122.07H29.6169ZM29.6169 121.703H23.3965C22.0727 121.703 20.9961 122.781 20.9961 124.107V126.951C20.9961 127.079 21.0679 127.199 21.1795 127.27C22.7904 128.221 24.6326 128.716 26.5067 128.716C28.3808 128.716 30.223 128.213 31.834 127.27C31.9456 127.207 32.0174 127.087 32.0174 126.951V124.107C32.0174 122.781 30.9408 121.703 29.6169 121.703Z" fill="#15635B"/>
<path d="M44.2109 120.497H94.8036" stroke="#15635B" stroke-width="0.5" stroke-miterlimit="10" stroke-linecap="round" stroke-linejoin="round"/>
<path d="M44.2109 123.141H94.8036" stroke="#15635B" stroke-width="0.5" stroke-miterlimit="10" stroke-linecap="round" stroke-linejoin="round"/>
<path d="M44.2109 125.785H94.8036" stroke="#15635B" stroke-width="0.5" stroke-miterlimit="10" stroke-linecap="round" stroke-linejoin="round"/>
<path d="M44.2109 128.429H66.8437" stroke="#15635B" stroke-width="0.5" stroke-miterlimit="10" stroke-linecap="round" stroke-linejoin="round"/>
<path d="M108.625 138.573H11.5547V165.421H108.625V138.573Z" fill="#D3EBEC"/>
<path d="M33.7398 158.657C37.7356 154.655 37.7356 148.166 33.7398 144.163C29.7441 140.161 23.2658 140.161 19.2701 144.163C15.2743 148.166 15.2743 154.655 19.2701 158.657C23.2658 162.659 29.7441 162.659 33.7398 158.657Z" fill="#D3EBEC"/>
<path d="M46.5378 141.96L47.2954 143.494L48.9781 143.734L47.758 144.924L48.0451 146.609L46.5378 145.81L45.0385 146.609L45.3256 144.924L44.1055 143.734L45.7882 143.494L46.5378 141.96Z" fill="#EFC33B"/>
<path d="M45.7413 141.96L46.4909 143.486L48.1736 143.733L46.9535 144.924L47.2406 146.601L45.7333 145.81L44.2261 146.601L44.5132 144.924L43.293 143.733L44.9757 143.486L45.7413 141.96ZM45.7413 141.561C45.5898 141.561 45.4542 141.649 45.3824 141.784L44.7205 143.126L43.2452 143.342C43.0936 143.366 42.974 143.47 42.9262 143.614C42.8783 143.757 42.9182 143.917 43.0298 144.021L44.0985 145.067L43.8433 146.537C43.8193 146.689 43.8752 146.841 44.0028 146.929C44.0745 146.977 44.1543 147.009 44.234 147.009C44.2978 147.009 44.3616 146.993 44.4175 146.961L45.7413 146.266L47.0651 146.961C47.121 146.993 47.1848 147.009 47.2485 147.009C47.3283 147.009 47.416 146.985 47.4798 146.929C47.5994 146.841 47.6632 146.689 47.6393 146.537L47.3841 145.067L48.4528 144.021C48.5644 143.917 48.6043 143.757 48.5564 143.614C48.5086 143.47 48.381 143.366 48.2374 143.342L46.7621 143.126L46.1002 141.784C46.0364 141.649 45.9008 141.561 45.7413 141.561Z" fill="#15635B"/>
<path d="M53.573 141.96L54.3306 143.494L56.0133 143.734L54.7931 144.924L55.0802 146.609L53.573 145.811L52.0657 146.609L52.3528 144.924L51.1406 143.734L52.8233 143.494L53.573 141.96Z" fill="#EFC33B"/>
<path d="M52.7765 141.96L53.5261 143.486L55.2088 143.734L53.9886 144.924L54.2757 146.601L52.7685 145.811L51.2612 146.601L51.5483 144.924L50.3282 143.734L52.0109 143.486L52.7765 141.96ZM52.7765 141.561C52.6249 141.561 52.4894 141.649 52.4176 141.785L51.7557 143.127L50.2803 143.342C50.1288 143.366 50.0092 143.47 49.9613 143.614C49.9135 143.758 49.9533 143.917 50.065 144.021L51.1336 145.068L50.8784 146.537C50.8545 146.689 50.9103 146.841 51.0379 146.929C51.1097 146.977 51.1895 147.009 51.2692 147.009C51.333 147.009 51.3968 146.993 51.4526 146.961L52.7765 146.266L54.1003 146.961C54.1561 146.993 54.2199 147.009 54.2837 147.009C54.3635 147.009 54.4512 146.985 54.515 146.929C54.6346 146.841 54.6984 146.689 54.6745 146.537L54.4193 145.068L55.4879 144.021C55.5996 143.917 55.6394 143.758 55.5916 143.614C55.5437 143.47 55.4161 143.366 55.2726 143.342L53.7972 143.127L53.1353 141.785C53.0715 141.649 52.928 141.561 52.7765 141.561Z" fill="#15635B"/>
<path d="M60.6083 141.96L61.3579 143.494L63.0486 143.734L61.8284 144.924L62.1155 146.609L60.6083 145.811L59.101 146.609L59.3881 144.924L58.168 143.734L59.8586 143.494L60.6083 141.96Z" fill="#EFC33B"/>
<path d="M59.8116 141.96L60.5613 143.486L62.244 143.734L61.0238 144.924L61.3109 146.601L59.8116 145.811L58.3044 146.601L58.5915 144.924L57.3713 143.734L59.054 143.486L59.8116 141.96ZM59.8116 141.561C59.6601 141.561 59.5245 141.649 59.4527 141.785L58.7908 143.127L57.3155 143.342C57.1639 143.366 57.0443 143.47 56.9965 143.614C56.9486 143.758 56.9885 143.917 57.1001 144.021L58.1688 145.068L57.9136 146.537C57.8897 146.689 57.9455 146.841 58.0731 146.929C58.1449 146.977 58.2246 147.009 58.3044 147.009C58.3682 147.009 58.432 146.993 58.4878 146.961L59.8116 146.266L61.1354 146.961C61.1913 146.993 61.2551 147.009 61.3189 147.009C61.3986 147.009 61.4863 146.985 61.5501 146.929C61.6698 146.841 61.7336 146.689 61.7096 146.537L61.4544 145.068L62.5231 144.021C62.6347 143.917 62.6746 143.758 62.6267 143.614C62.5789 143.47 62.4513 143.366 62.3077 143.342L60.8324 143.127L60.1705 141.785C60.0987 141.649 59.9631 141.561 59.8116 141.561Z" fill="#15635B"/>
<path d="M66.8429 141.96L67.5925 143.486L69.2752 143.733L68.055 144.924L68.3421 146.601L66.8349 145.81L65.3276 146.601L65.6147 144.924L64.3946 143.733L66.0773 143.486L66.8429 141.96ZM66.8429 141.561C66.6913 141.561 66.5558 141.649 66.484 141.784L65.8221 143.126L64.3467 143.342C64.1952 143.366 64.0756 143.47 64.0277 143.614C63.9799 143.757 64.0197 143.917 64.1314 144.021L65.2 145.067L64.9448 146.537C64.9209 146.689 64.9767 146.841 65.1043 146.929C65.1761 146.977 65.2559 147.009 65.3356 147.009C65.3994 147.009 65.4632 146.993 65.519 146.961L66.8429 146.266L68.1667 146.961C68.2225 146.993 68.2863 147.009 68.3501 147.009C68.4299 147.009 68.5176 146.985 68.5814 146.929C68.701 146.841 68.7648 146.689 68.7409 146.537L68.4857 145.067L69.5543 144.021C69.666 143.917 69.7058 143.757 69.658 143.614C69.6101 143.47 69.4825 143.366 69.339 143.342L67.8636 143.126L67.2017 141.784C67.13 141.649 66.9944 141.561 66.8429 141.561Z" fill="#15635B"/>
<path d="M73.878 141.96L74.6277 143.486L76.3104 143.734L75.0902 144.924L75.3773 146.601L73.87 145.811L72.3628 146.601L72.6499 144.924L71.4297 143.734L73.1124 143.486L73.878 141.96ZM73.878 141.561C73.7265 141.561 73.5909 141.649 73.5191 141.785L72.8572 143.127L71.3819 143.342C71.2304 143.366 71.1107 143.47 71.0629 143.614C71.015 143.758 71.0549 143.917 71.1666 144.021L72.2352 145.068L71.98 146.537C71.9561 146.689 72.0119 146.841 72.1395 146.929C72.2113 146.977 72.291 147.009 72.3708 147.009C72.4346 147.009 72.4984 146.993 72.5542 146.961L73.878 146.266L75.2018 146.961C75.2577 146.993 75.3215 147.009 75.3853 147.009C75.465 147.009 75.5527 146.985 75.6165 146.929C75.7362 146.841 75.8 146.689 75.776 146.537L75.5208 145.068L76.5895 144.021C76.7011 143.917 76.741 143.758 76.6932 143.614C76.6453 143.47 76.5177 143.366 76.3742 143.342L74.8988 143.127L74.2369 141.785C74.1651 141.649 74.0295 141.561 73.878 141.561Z" fill="#15635B"/>
<path d="M30.671 147.943C30.671 149.365 29.5226 150.515 28.1031 150.515C26.6835 150.515 25.5352 149.365 25.5352 147.943C25.5352 146.521 26.6835 145.371 28.1031 145.371C29.5226 145.371 30.671 146.521 30.671 147.943Z" fill="#EFC33B"/>
<path d="M33.2446 155.021V157.864C31.7374 158.751 29.9749 159.262 28.1008 159.262C26.2267 159.262 24.4643 158.751 22.957 157.864V155.021C22.957 153.894 23.8741 152.984 24.9906 152.984H31.211C32.3275 152.984 33.2446 153.894 33.2446 155.021Z" fill="#EFC33B"/>
<path d="M26.5057 145.371C27.9253 145.371 29.0736 146.521 29.0736 147.943C29.0736 149.365 27.9253 150.515 26.5057 150.515C25.0862 150.515 23.9378 149.365 23.9378 147.943C23.9378 146.521 25.0862 145.371 26.5057 145.371ZM26.5057 144.972C24.8709 144.972 23.5391 146.306 23.5391 147.943C23.5391 149.581 24.8709 150.915 26.5057 150.915C28.1406 150.915 29.4724 149.581 29.4724 147.943C29.4724 146.306 28.1406 144.972 26.5057 144.972Z" fill="#15635B"/>
<path d="M29.6169 152.984C30.7334 152.984 31.6505 153.894 31.6505 155.021V157.864C30.1433 158.751 28.3808 159.262 26.5067 159.262C24.6326 159.262 22.8702 158.751 21.3629 157.864V155.021C21.3629 153.894 22.2801 152.984 23.3965 152.984H29.6169ZM29.6169 152.616H23.3965C22.0727 152.616 20.9961 153.695 20.9961 155.021V157.864C20.9961 157.992 21.0679 158.112 21.1795 158.184C22.7904 159.134 24.6326 159.63 26.5067 159.63C28.3808 159.63 30.223 159.126 31.834 158.184C31.9456 158.12 32.0174 158 32.0174 157.864V155.021C32.0174 153.695 30.9408 152.616 29.6169 152.616Z" fill="#15635B"/>
<path d="M44.2109 151.41H94.8036" stroke="#15635B" stroke-width="0.5" stroke-miterlimit="10" stroke-linecap="round" stroke-linejoin="round"/>
<path d="M44.2109 154.054H94.8036" stroke="#15635B" stroke-width="0.5" stroke-miterlimit="10" stroke-linecap="round" stroke-linejoin="round"/>
<path d="M44.2109 156.698H86.5416" stroke="#15635B" stroke-width="0.5" stroke-miterlimit="10" stroke-linecap="round" stroke-linejoin="round"/>
<path d="M108.625 169.486H11.5547V196.334H108.625V169.486Z" fill="#D3EBEC"/>
<path d="M26.5052 192.571C32.1561 192.571 36.737 187.983 36.737 182.323C36.737 176.663 32.1561 172.074 26.5052 172.074C20.8544 172.074 16.2734 176.663 16.2734 182.323C16.2734 187.983 20.8544 192.571 26.5052 192.571Z" fill="#D3EBEC"/>
<path d="M46.5378 172.881L47.2954 174.407L48.9781 174.654L47.758 175.845L48.0451 177.522L46.5378 176.731L45.0385 177.522L45.3256 175.845L44.1055 174.654L45.7882 174.407L46.5378 172.881Z" fill="#EFC33B"/>
<path d="M45.7413 172.881L46.4909 174.407L48.1736 174.654L46.9535 175.845L47.2406 177.522L45.7333 176.731L44.2261 177.522L44.5132 175.845L43.293 174.654L44.9757 174.407L45.7413 172.881ZM45.7413 172.482C45.5898 172.482 45.4542 172.57 45.3824 172.705L44.7205 174.047L43.2452 174.263C43.0936 174.287 42.974 174.391 42.9262 174.535C42.8783 174.678 42.9182 174.838 43.0298 174.942L44.0985 175.988L43.8433 177.458C43.8193 177.61 43.8752 177.762 44.0028 177.85C44.0745 177.897 44.1543 177.929 44.234 177.929C44.2978 177.929 44.3616 177.913 44.4175 177.881L45.7413 177.187L47.0651 177.881C47.121 177.913 47.1848 177.929 47.2485 177.929C47.3283 177.929 47.416 177.905 47.4798 177.85C47.5994 177.762 47.6632 177.61 47.6393 177.458L47.3841 175.988L48.4528 174.942C48.5644 174.838 48.6043 174.678 48.5564 174.535C48.5086 174.391 48.381 174.287 48.2374 174.263L46.7621 174.047L46.1002 172.705C46.0364 172.562 45.9008 172.482 45.7413 172.482Z" fill="#15635B"/>
<path d="M53.573 172.881L54.3306 174.407L56.0133 174.655L54.7931 175.845L55.0802 177.522L53.573 176.732L52.0657 177.522L52.3528 175.845L51.1406 174.655L52.8233 174.407L53.573 172.881Z" fill="#EFC33B"/>
<path d="M52.7765 172.881L53.5261 174.407L55.2088 174.655L53.9886 175.845L54.2757 177.522L52.7685 176.731L51.2612 177.522L51.5483 175.845L50.3282 174.655L52.0109 174.407L52.7765 172.881ZM52.7765 172.482C52.6249 172.482 52.4894 172.57 52.4176 172.706L51.7557 174.048L50.2803 174.263C50.1288 174.287 50.0092 174.391 49.9613 174.535C49.9135 174.679 49.9533 174.838 50.065 174.942L51.1336 175.989L50.8784 177.458C50.8545 177.61 50.9103 177.762 51.0379 177.85C51.1097 177.898 51.1895 177.93 51.2692 177.93C51.333 177.93 51.3968 177.914 51.4526 177.882L52.7765 177.187L54.1003 177.882C54.1561 177.914 54.2199 177.93 54.2837 177.93C54.3635 177.93 54.4512 177.906 54.515 177.85C54.6346 177.762 54.6984 177.61 54.6745 177.458L54.4193 175.989L55.4879 174.942C55.5996 174.838 55.6394 174.679 55.5916 174.535C55.5437 174.391 55.4161 174.287 55.2726 174.263L53.7972 174.048L53.1353 172.706C53.0715 172.562 52.928 172.482 52.7765 172.482Z" fill="#15635B"/>
<path d="M60.6083 172.881L61.3579 174.407L63.0486 174.655L61.8284 175.845L62.1155 177.522L60.6083 176.732L59.101 177.522L59.3881 175.845L58.168 174.655L59.8586 174.407L60.6083 172.881Z" fill="#EFC33B"/>
<path d="M59.8116 172.881L60.5613 174.407L62.244 174.655L61.0238 175.845L61.3109 177.522L59.8116 176.731L58.3044 177.522L58.5915 175.845L57.3713 174.655L59.054 174.407L59.8116 172.881ZM59.8116 172.482C59.6601 172.482 59.5245 172.57 59.4527 172.706L58.7908 174.048L57.3155 174.263C57.1639 174.287 57.0443 174.391 56.9965 174.535C56.9486 174.679 56.9885 174.838 57.1001 174.942L58.1688 175.989L57.9136 177.458C57.8897 177.61 57.9455 177.762 58.0731 177.85C58.1449 177.898 58.2246 177.93 58.3044 177.93C58.3682 177.93 58.432 177.914 58.4878 177.882L59.8116 177.187L61.1354 177.882C61.1913 177.914 61.2551 177.93 61.3189 177.93C61.3986 177.93 61.4863 177.906 61.5501 177.85C61.6698 177.762 61.7336 177.61 61.7096 177.458L61.4544 175.989L62.5231 174.942C62.6347 174.838 62.6746 174.679 62.6267 174.535C62.5789 174.391 62.4513 174.287 62.3077 174.263L60.8324 174.048L60.1705 172.706C60.0987 172.562 59.9631 172.482 59.8116 172.482Z" fill="#15635B"/>
<path d="M67.6395 172.881L68.3892 174.407L70.0719 174.654L68.8597 175.845L69.1468 177.522L67.6395 176.731L66.1323 177.522L66.4194 175.845L65.1992 174.654L66.8819 174.407L67.6395 172.881Z" fill="#EFC33B"/>
<path d="M66.8429 172.881L67.5925 174.407L69.2752 174.654L68.055 175.845L68.3421 177.522L66.8349 176.731L65.3276 177.522L65.6147 175.845L64.3946 174.654L66.0773 174.407L66.8429 172.881ZM66.8429 172.482C66.6913 172.482 66.5558 172.57 66.484 172.705L65.8221 174.047L64.3467 174.263C64.1952 174.287 64.0756 174.391 64.0277 174.535C63.9799 174.678 64.0197 174.838 64.1314 174.942L65.2 175.988L64.9448 177.458C64.9209 177.61 64.9767 177.762 65.1043 177.85C65.1761 177.897 65.2559 177.929 65.3356 177.929C65.3994 177.929 65.4632 177.913 65.519 177.881L66.8429 177.187L68.1667 177.881C68.2225 177.913 68.2863 177.929 68.3501 177.929C68.4299 177.929 68.5176 177.905 68.5814 177.85C68.701 177.762 68.7648 177.61 68.7409 177.458L68.4857 175.988L69.5543 174.942C69.666 174.838 69.7058 174.678 69.658 174.535C69.6101 174.391 69.4825 174.287 69.339 174.263L67.8636 174.047L67.2017 172.705C67.13 172.562 66.9944 172.482 66.8429 172.482Z" fill="#15635B"/>
<path d="M73.878 172.881L74.6277 174.407L76.3104 174.655L75.0902 175.845L75.3773 177.522L73.87 176.731L72.3628 177.522L72.6499 175.845L71.4297 174.655L73.1124 174.407L73.878 172.881ZM73.878 172.482C73.7265 172.482 73.5909 172.57 73.5191 172.706L72.8572 174.048L71.3819 174.263C71.2304 174.287 71.1107 174.391 71.0629 174.535C71.015 174.679 71.0549 174.838 71.1666 174.942L72.2352 175.989L71.98 177.458C71.9561 177.61 72.0119 177.762 72.1395 177.85C72.2113 177.898 72.291 177.93 72.3708 177.93C72.4346 177.93 72.4984 177.914 72.5542 177.882L73.878 177.187L75.2018 177.882C75.2577 177.914 75.3215 177.93 75.3853 177.93C75.465 177.93 75.5527 177.906 75.6165 177.85C75.7362 177.762 75.8 177.61 75.776 177.458L75.5208 175.989L76.5895 174.942C76.7011 174.838 76.741 174.679 76.6932 174.535C76.6453 174.391 76.5177 174.287 76.3742 174.263L74.8988 174.048L74.2369 172.706C74.1651 172.562 74.0295 172.482 73.878 172.482Z" fill="#15635B"/>
<path d="M30.671 178.856C30.671 180.278 29.5226 181.428 28.1031 181.428C26.6835 181.428 25.5352 180.278 25.5352 178.856C25.5352 177.434 26.6835 176.284 28.1031 176.284C29.5226 176.284 30.671 177.434 30.671 178.856Z" fill="#EFC33B"/>
<path d="M33.2446 185.941V188.785C31.7374 189.672 29.9749 190.183 28.1008 190.183C26.2267 190.183 24.4643 189.672 22.957 188.785V185.941C22.957 184.815 23.8741 183.904 24.9906 183.904H31.211C32.3275 183.904 33.2446 184.815 33.2446 185.941Z" fill="#EFC33B"/>
<path d="M26.5057 176.284C27.9253 176.284 29.0736 177.434 29.0736 178.856C29.0736 180.278 27.9253 181.428 26.5057 181.428C25.0862 181.428 23.9378 180.278 23.9378 178.856C23.9378 177.434 25.0862 176.284 26.5057 176.284ZM26.5057 175.885C24.8709 175.885 23.5391 177.218 23.5391 178.856C23.5391 180.494 24.8709 181.827 26.5057 181.827C28.1406 181.827 29.4724 180.494 29.4724 178.856C29.4724 177.218 28.1406 175.885 26.5057 175.885Z" fill="#15635B"/>
<path d="M29.6169 183.905C30.7334 183.905 31.6505 184.815 31.6505 185.941V188.785C30.1433 189.672 28.3808 190.183 26.5067 190.183C24.6326 190.183 22.8702 189.672 21.3629 188.785V185.941C21.3629 184.815 22.2801 183.905 23.3965 183.905H29.6169ZM29.6169 183.537H23.3965C22.0727 183.537 20.9961 184.615 20.9961 185.941V188.785C20.9961 188.913 21.0679 189.033 21.1795 189.105C22.7904 190.055 24.6326 190.55 26.5067 190.55C28.3808 190.55 30.223 190.047 31.834 189.105C31.9456 189.041 32.0174 188.921 32.0174 188.785V185.941C32.0174 184.615 30.9408 183.537 29.6169 183.537Z" fill="#15635B"/>
<path d="M44.2109 182.323H94.8036" stroke="#15635B" stroke-width="0.5" stroke-miterlimit="10" stroke-linecap="round" stroke-linejoin="round"/>
<path d="M44.2109 184.975H94.8036" stroke="#15635B" stroke-width="0.5" stroke-miterlimit="10" stroke-linecap="round" stroke-linejoin="round"/>
<path d="M44.2109 187.619H57.3695" stroke="#15635B" stroke-width="0.5" stroke-miterlimit="10" stroke-linecap="round" stroke-linejoin="round"/>
<path d="M172.887 121.815H237.372C240.227 121.815 242.547 119.642 242.547 116.966V94.9916C242.547 92.3156 244.86 90.1429 247.723 90.1429H259.343C262.198 90.1429 264.518 87.9702 264.518 85.2943V40.1709C264.518 37.495 262.206 35.3223 259.343 35.3223H122.43" stroke="#4C2A6E" stroke-width="0.9673" stroke-miterlimit="10"/>
<path d="M234.949 272.953C259.42 272.953 279.258 253.083 279.258 228.572C279.258 204.062 259.42 184.192 234.949 184.192C210.478 184.192 190.641 204.062 190.641 228.572C190.641 253.083 210.478 272.953 234.949 272.953Z" fill="#4C2A6E"/>
<path d="M234.949 277.179C261.75 277.179 283.476 255.417 283.476 228.572C283.476 201.728 261.75 179.966 234.949 179.966C208.148 179.966 186.422 201.728 186.422 228.572C186.422 255.417 208.148 277.179 234.949 277.179Z" fill="#4C2A6E" stroke="#87A3A0" stroke-miterlimit="10" stroke-linecap="round" stroke-linejoin="round" stroke-dasharray="78 78"/>
<path d="M313.091 174.135C331.487 169.7 342.81 151.169 338.382 132.743C333.955 114.318 315.453 102.977 297.058 107.412C278.662 111.846 267.339 130.378 271.767 148.803C276.194 167.229 294.696 178.57 313.091 174.135Z" fill="#D3EBEC"/>
<path d="M313.882 177.274C334.022 172.408 346.41 152.11 341.552 131.937C336.693 111.764 316.428 99.3551 296.288 104.221C276.147 109.088 263.759 129.386 268.617 149.559C273.476 169.732 293.741 182.141 313.882 177.274Z" stroke="#87A3A0" stroke-miterlimit="10" stroke-linecap="round" stroke-linejoin="round" stroke-dasharray="200 200"/>
<path d="M282.024 170.397L265.676 190.958" stroke="#87A3A0" stroke-miterlimit="10" stroke-linecap="round" stroke-linejoin="round" stroke-dasharray="78 78"/>
<path d="M272.685 181.436L266.313 175.054C260.053 168.784 251.568 165.261 242.716 165.261H186.006C179.802 165.261 174.77 160.221 174.77 154.006V138.03" stroke="#87A3A0" stroke-miterlimit="10"/>
<path d="M287.994 133.741L290.275 138.374L295.379 139.117L291.687 142.719L292.556 147.807L287.994 145.403L283.432 147.807L284.302 142.719L280.609 139.117L285.713 138.374L287.994 133.741Z" fill="#EFC33B"/>
<path d="M285.581 133.741L287.861 138.374L292.965 139.117L289.273 142.719L290.142 147.807L285.581 145.403L281.019 147.807L281.888 142.719L278.196 139.117L283.3 138.374L285.581 133.741ZM285.581 133.293C285.413 133.293 285.254 133.389 285.182 133.541L283.005 137.958L278.132 138.669C277.965 138.693 277.821 138.813 277.773 138.973C277.717 139.133 277.765 139.316 277.885 139.436L281.41 142.879L280.58 147.736C280.548 147.903 280.62 148.071 280.756 148.175C280.836 148.231 280.923 148.263 281.019 148.263C281.091 148.263 281.163 148.247 281.226 148.215L285.581 145.922L289.935 148.215C289.999 148.247 290.07 148.263 290.142 148.263C290.238 148.263 290.326 148.231 290.405 148.175C290.541 148.071 290.613 147.903 290.581 147.736L289.751 142.879L293.276 139.436C293.396 139.316 293.444 139.141 293.388 138.973C293.332 138.813 293.197 138.693 293.029 138.669L288.157 137.958L285.979 133.541C285.908 133.389 285.748 133.293 285.581 133.293Z" fill="#15635B"/>
<path d="M306.846 133.741L309.126 138.374L314.23 139.117L310.538 142.719L311.407 147.807L306.846 145.403L302.276 147.807L303.153 142.719L299.461 139.117L304.565 138.374L306.846 133.741Z" fill="#EFC33B"/>
<path d="M304.432 133.741L306.713 138.374L311.817 139.117L308.125 142.719L308.994 147.807L304.432 145.403L299.871 147.807L300.74 142.719L297.047 139.117L302.151 138.374L304.432 133.741ZM304.432 133.293C304.265 133.293 304.105 133.389 304.033 133.541L301.856 137.958L296.984 138.669C296.816 138.693 296.673 138.813 296.625 138.973C296.569 139.133 296.617 139.316 296.736 139.436L300.261 142.879L299.432 147.736C299.4 147.903 299.472 148.071 299.607 148.175C299.687 148.231 299.775 148.263 299.871 148.263C299.942 148.263 300.014 148.247 300.078 148.215L304.432 145.922L308.786 148.215C308.85 148.247 308.922 148.263 308.994 148.263C309.09 148.263 309.177 148.231 309.257 148.175C309.393 148.071 309.464 147.903 309.432 147.736L308.603 142.879L312.128 139.436C312.248 139.316 312.295 139.141 312.24 138.973C312.184 138.813 312.048 138.693 311.881 138.669L307.008 137.958L304.831 133.541C304.759 133.389 304.6 133.293 304.432 133.293Z" fill="#15635B"/>
<path d="M325.705 133.741L327.986 138.374L333.09 139.117L329.398 142.719L330.267 147.807L325.705 145.403L321.136 147.807L322.013 142.719L318.312 139.117L323.416 138.374L325.705 133.741Z" fill="#EFC33B"/>
<path d="M323.288 133.741L325.568 138.374L330.672 139.117L326.98 142.719L327.849 147.807L323.288 145.403L318.726 147.807L319.595 142.719L315.903 139.117L321.007 138.374L323.288 133.741ZM323.288 133.293C323.12 133.293 322.961 133.389 322.889 133.541L320.712 137.958L315.839 138.669C315.672 138.693 315.528 138.813 315.48 138.973C315.424 139.133 315.472 139.316 315.592 139.436L319.117 142.879L318.287 147.736C318.255 147.903 318.327 148.071 318.463 148.175C318.543 148.231 318.63 148.263 318.726 148.263C318.798 148.263 318.87 148.247 318.933 148.215L323.288 145.922L327.642 148.215C327.706 148.247 327.778 148.263 327.849 148.263C327.945 148.263 328.033 148.231 328.112 148.175C328.248 148.071 328.32 147.903 328.288 147.736L327.459 142.879L330.983 139.436C331.103 139.316 331.151 139.141 331.095 138.973C331.039 138.813 330.904 138.693 330.736 138.669L325.864 137.958L323.686 133.541C323.607 133.389 323.455 133.293 323.288 133.293Z" fill="#15635B"/>
<mask id="mask0_178_3243" style="mask-type:luminance" maskUnits="userSpaceOnUse" x="270" y="106" width="70" height="70">
<path d="M313.091 174.135C331.487 169.7 342.81 151.168 338.382 132.743C333.955 114.318 315.453 102.976 297.058 107.411C278.662 111.846 267.339 130.378 271.767 148.803C276.194 167.228 294.696 178.57 313.091 174.135Z" fill="white"/>
</mask>
<g mask="url(#mask0_178_3243)">
<path d="M303.122 123.995C307.309 123.995 311.503 125.505 314.837 128.556C320.842 134.068 323.442 144.868 315.906 153.103C312.484 156.841 307.803 158.743 303.114 158.743C298.927 158.743 294.732 157.233 291.399 154.181C284.333 147.703 283.855 136.712 290.33 129.635C293.751 125.896 298.425 123.995 303.122 123.995ZM303.122 123.197C298.042 123.197 293.169 125.345 289.74 129.092C286.462 132.67 284.78 137.311 284.995 142.16C285.21 147.008 287.292 151.49 290.864 154.765C294.222 157.84 298.568 159.541 303.114 159.541C308.194 159.541 313.067 157.393 316.496 153.646C324.168 145.259 321.951 134.004 315.371 127.973C312.022 124.89 307.668 123.197 303.122 123.197Z" fill="#15635B"/>
<path d="M293.52 132.558C298.376 127.246 306.614 126.887 311.918 131.752" stroke="#15635B" stroke-width="0.5884" stroke-miterlimit="10" stroke-linecap="round" stroke-linejoin="round"/>
<path d="M316.52 152.871L321.982 157.88" stroke="#15635B" stroke-miterlimit="10" stroke-linecap="round" stroke-linejoin="round"/>
<path d="M337.055 170.812C335.89 172.09 333.913 172.17 332.637 171.004L322.955 162.121C321.679 160.955 321.599 158.974 322.764 157.696C323.928 156.418 325.906 156.338 327.182 157.504L336.863 166.387C338.131 167.561 338.219 169.542 337.055 170.812Z" fill="#EFC33B"/>
<path d="M336.207 171.739C335.043 173.017 333.065 173.097 331.789 171.93L322.107 162.249C320.831 161.083 320.752 159.901 321.916 158.623C323.08 157.345 325.058 157.265 326.334 158.431L336.016 167.314C337.284 168.48 337.371 170.461 336.207 171.739Z" stroke="#15635B" stroke-miterlimit="10" stroke-linecap="round" stroke-linejoin="round"/>
</g>
<path d="M222.051 245.092H211.389C210.368 245.092 209.547 244.261 209.547 243.246V220.745C209.547 219.722 210.376 218.899 211.389 218.899H222.051C223.072 218.899 223.894 219.73 223.894 220.745V243.246C223.894 244.261 223.064 245.092 222.051 245.092Z" fill="white"/>
<path d="M257.515 227.055C257.515 227.838 258.153 228.477 258.934 228.477H259.772C260.76 228.477 261.566 229.284 261.566 230.274C261.566 231.265 260.76 232.071 259.772 232.071H257.754C256.964 232.071 256.326 232.71 256.326 233.493C256.326 234.284 256.964 234.923 257.754 234.923H258.591C259.58 234.923 260.386 235.722 260.386 236.72C260.386 237.711 259.58 238.518 258.591 238.518H256.566C255.776 238.518 255.146 239.149 255.146 239.939C255.146 240.722 255.776 241.361 256.566 241.361H257.403C258.392 241.361 259.197 242.168 259.197 243.159C259.197 244.149 258.392 244.956 257.403 244.956H243.957C239.723 244.956 235.472 243.981 231.66 242.136L229.595 241.138C229.403 241.042 229.196 240.994 228.981 240.994H226.867V222.654H230.655C230.99 222.654 231.309 222.542 231.564 222.326L237.617 217.254C240.377 214.945 242.45 211.926 243.614 208.523C243.614 208.523 244.747 205.224 244.755 205.208C245.074 204.537 245.744 204.106 246.493 204.106C247.554 204.106 248.415 204.969 248.415 206.031C248.415 206.055 248.407 209.434 248.407 209.434C248.399 211.814 247.905 214.123 246.94 216.287L245.289 220.01C245.138 220.337 245.13 220.689 245.225 221.008C245.233 221.032 245.536 222.031 246.589 222.031H260.96C261.949 222.031 262.754 222.837 262.754 223.828C262.754 224.818 261.949 225.625 260.96 225.625H258.934C258.153 225.625 257.515 226.264 257.515 227.055Z" fill="white"/>
<path d="M244.103 204.106C245.164 204.106 246.025 204.969 246.025 206.031C246.025 206.055 246.017 209.434 246.017 209.434C246.009 211.814 245.515 214.123 244.55 216.287L242.899 220.01C242.748 220.337 242.74 220.689 242.835 221.008C242.843 221.032 243.146 222.031 244.199 222.031H258.57C259.559 222.031 260.364 222.837 260.364 223.828C260.364 224.818 259.559 225.625 258.57 225.625H256.544C255.763 225.625 255.125 226.264 255.125 227.055C255.125 227.838 255.763 228.477 256.544 228.477H257.382C258.37 228.477 259.176 229.284 259.176 230.274C259.176 231.265 258.37 232.071 257.382 232.071H255.364C254.574 232.071 253.936 232.71 253.936 233.493C253.936 234.284 254.574 234.923 255.364 234.923H256.201C257.19 234.923 257.996 235.722 257.996 236.72C257.996 237.711 257.19 238.518 256.201 238.518H254.176C253.386 238.518 252.756 239.149 252.756 239.939C252.756 240.722 253.386 241.361 254.176 241.361H255.013C256.002 241.361 256.807 242.168 256.807 243.159C256.807 244.149 256.002 244.956 255.013 244.956H241.567C237.333 244.956 233.082 243.981 229.27 242.136L227.205 241.138C227.013 241.042 226.806 240.994 226.591 240.994H224.477V222.654H228.265C228.6 222.654 228.919 222.542 229.174 222.326L235.227 217.254C237.987 214.945 240.06 211.926 241.224 208.523C241.224 208.523 242.357 205.224 242.365 205.208C242.684 204.537 243.354 204.106 244.103 204.106ZM244.103 203.307C243.043 203.307 242.102 203.906 241.647 204.865C241.623 204.913 241.623 204.913 240.475 208.26C239.358 211.527 237.365 214.426 234.717 216.639L228.664 221.711C228.552 221.807 228.417 221.855 228.265 221.855H224.477C224.039 221.855 223.68 222.214 223.68 222.654V240.994C223.68 241.433 224.039 241.793 224.477 241.793H226.591C226.686 241.793 226.766 241.809 226.846 241.849L228.919 242.855C232.835 244.748 237.213 245.755 241.559 245.755H255.005C256.433 245.755 257.597 244.588 257.597 243.159C257.597 241.729 256.433 240.562 255.005 240.562H254.168C253.825 240.562 253.546 240.283 253.546 239.939C253.546 239.588 253.817 239.316 254.168 239.316H256.193C257.621 239.316 258.785 238.15 258.785 236.72C258.785 235.291 257.621 234.124 256.193 234.124H255.356C255.005 234.124 254.726 233.845 254.726 233.493C254.726 233.15 255.005 232.87 255.356 232.87H257.374C258.801 232.87 259.965 231.704 259.965 230.274C259.965 228.844 258.801 227.678 257.374 227.678H256.536C256.193 227.678 255.914 227.399 255.914 227.055C255.914 226.704 256.193 226.424 256.536 226.424H258.562C259.989 226.424 261.154 225.258 261.154 223.828C261.154 222.398 259.989 221.232 258.562 221.232H244.191C243.768 221.232 243.625 220.872 243.585 220.769C243.561 220.673 243.537 220.513 243.609 220.345L245.268 216.615C246.281 214.346 246.799 211.934 246.807 209.442C246.807 209.442 246.815 206.063 246.815 206.039C246.823 204.529 245.603 203.307 244.103 203.307Z" fill="white"/>
<path d="M220.105 242.408C220.74 242.408 221.254 241.893 221.254 241.257C221.254 240.622 220.74 240.107 220.105 240.107C219.471 240.107 218.957 240.622 218.957 241.257C218.957 241.893 219.471 242.408 220.105 242.408Z" fill="white"/>
</g>
<defs>
<clipPath id="clip0_178_3243">
<rect width="343" height="300" fill="white"/>
</clipPath>
</defs>
</svg>
