<svg width="128" height="30" viewBox="0 0 128 30" fill="none" xmlns="http://www.w3.org/2000/svg">
<g clip-path="url(#clip0_1_3507)">
<path d="M33.6385 10.6326H46.5989V12.9403H41.5029V25.9129H38.7006V12.9403H33.6272V10.6326H33.6385ZM46.0453 14.849H48.4408V16.9841H48.486C48.5651 16.6822 48.7119 16.391 48.9266 16.1106C49.1413 15.8303 49.4012 15.5607 49.7063 15.3342C50.0114 15.097 50.3504 14.9137 50.7232 14.7627C51.0961 14.6225 51.4803 14.547 51.8645 14.547C52.1583 14.547 52.373 14.5578 52.486 14.5686C52.5989 14.5794 52.7119 14.6009 52.8362 14.6117V16.9625C52.6554 16.9302 52.4747 16.9086 52.2826 16.8871C52.0905 16.8655 51.9097 16.8547 51.7289 16.8547C51.2995 16.8547 50.8927 16.941 50.5086 17.1027C50.1244 17.2645 49.7967 17.5125 49.5142 17.8252C49.2317 18.1487 49.0057 18.537 48.8362 19.0114C48.6667 19.4859 48.5876 20.0251 48.5876 20.6398V25.9022H46.034V14.849H46.0453ZM64.5763 25.9129H62.0679V24.3709H62.0227C61.7063 24.9316 61.243 25.3738 60.6215 25.7081C60.0001 26.0423 59.3673 26.2149 58.7232 26.2149C57.1978 26.2149 56.0905 25.859 55.4125 25.1365C54.7345 24.414 54.3956 23.3249 54.3956 21.8691V14.849H56.9492V21.6319C56.9492 22.6024 57.1413 23.2925 57.5368 23.6915C57.921 24.0905 58.4747 24.2954 59.1752 24.2954C59.7176 24.2954 60.1583 24.2199 60.5198 24.0582C60.8814 23.8964 61.1752 23.6915 61.3899 23.4219C61.6159 23.1631 61.7741 22.8396 61.8758 22.473C61.9775 22.1063 62.0227 21.7073 62.0227 21.276V14.8597H64.5763V25.9129ZM68.9266 22.3651C69.0057 23.0769 69.2882 23.5729 69.7741 23.8641C70.2713 24.1444 70.8588 24.2954 71.5481 24.2954C71.7854 24.2954 72.0566 24.2738 72.3617 24.2415C72.6667 24.2091 72.9605 24.1336 73.2204 24.0366C73.4916 23.9395 73.7063 23.7886 73.8871 23.5945C74.0566 23.4004 74.1357 23.1523 74.1244 22.8396C74.1131 22.5269 73.9888 22.2681 73.7628 22.074C73.5368 21.8691 73.2543 21.7181 72.904 21.5887C72.5538 21.4701 72.1583 21.3623 71.7063 21.276C71.2543 21.1897 70.8023 21.0927 70.3391 20.9956C69.8645 20.8986 69.4012 20.7692 68.9605 20.629C68.5199 20.4888 68.1244 20.2947 67.7741 20.0467C67.4238 19.8094 67.1413 19.4967 66.9379 19.1193C66.7232 18.7418 66.6215 18.2781 66.6215 17.7174C66.6215 17.1135 66.7797 16.6175 67.0848 16.2077C67.3899 15.7979 67.7854 15.4744 68.2487 15.2264C68.7232 14.9784 69.243 14.8058 69.8193 14.698C70.3956 14.6009 70.9492 14.547 71.469 14.547C72.0679 14.547 72.6441 14.6117 73.1865 14.7303C73.7289 14.849 74.2261 15.0431 74.6667 15.3234C75.1074 15.593 75.469 15.9489 75.7628 16.3802C76.0566 16.8116 76.2374 17.34 76.3165 17.9546H73.6498C73.5255 17.3723 73.2543 16.9733 72.8136 16.7792C72.373 16.5743 71.8645 16.4773 71.2995 16.4773C71.1187 16.4773 70.904 16.4881 70.6554 16.5204C70.4069 16.5528 70.1809 16.6067 69.9549 16.6822C69.7402 16.7577 69.5594 16.8763 69.4012 17.0272C69.2543 17.1782 69.1752 17.3723 69.1752 17.6203C69.1752 17.9223 69.2882 18.1595 69.5029 18.3428C69.7176 18.5262 70.0001 18.6771 70.3504 18.8065C70.7006 18.9252 71.0961 19.033 71.5481 19.1193C72.0001 19.2055 72.4634 19.3026 72.9379 19.3996C73.4012 19.4967 73.8532 19.6261 74.3052 19.7663C74.7571 19.9065 75.1526 20.1006 75.5029 20.3486C75.8532 20.5966 76.1357 20.8986 76.3504 21.2652C76.5651 21.6318 76.678 22.0955 76.678 22.6347C76.678 23.2925 76.5199 23.8425 76.2035 24.3062C75.8871 24.7591 75.4803 25.1365 74.9831 25.4169C74.486 25.6973 73.921 25.9129 73.3108 26.0423C72.7006 26.1717 72.0905 26.2365 71.4916 26.2365C70.7571 26.2365 70.0792 26.161 69.4577 25.9992C68.8362 25.8375 68.2939 25.6002 67.8419 25.2875C67.3899 24.964 67.0283 24.565 66.7684 24.0905C66.5086 23.616 66.373 23.0445 66.3504 22.3867H68.9266V22.3651ZM77.356 14.849H79.2882V11.5276H81.8419V14.849H84.147V16.6714H81.8419V22.5808C81.8419 22.8396 81.8532 23.0553 81.8758 23.2494C81.8984 23.4327 81.9549 23.5945 82.034 23.7239C82.1131 23.8533 82.2374 23.9503 82.4069 24.015C82.5763 24.0797 82.791 24.1121 83.0848 24.1121C83.2656 24.1121 83.4464 24.1121 83.6272 24.1013C83.808 24.0905 83.9888 24.0689 84.1696 24.0258V25.9129C83.8871 25.9453 83.6046 25.9669 83.3447 25.9992C83.0735 26.0316 82.8023 26.0423 82.5199 26.0423C81.8419 26.0423 81.2995 25.9776 80.8927 25.859C80.486 25.7404 80.1583 25.5571 79.9323 25.3198C79.695 25.0826 79.5481 24.7914 79.4577 24.4356C79.3786 24.0797 79.3221 23.67 79.3108 23.217V16.693H77.3786V14.849H77.356ZM85.9549 14.849H88.373V16.3479H88.4182C88.7797 15.7009 89.2769 15.248 89.921 14.9676C90.565 14.6872 91.2543 14.547 92.0114 14.547C92.9266 14.547 93.7176 14.698 94.3956 15.0107C95.0735 15.3127 95.6385 15.7332 96.0905 16.2724C96.5425 16.8116 96.8701 17.437 97.0961 18.1487C97.3221 18.8605 97.4351 19.6261 97.4351 20.4349C97.4351 21.1789 97.3334 21.9014 97.13 22.5916C96.9266 23.2925 96.6216 23.9072 96.2148 24.4464C95.808 24.9856 95.2882 25.4061 94.6554 25.7296C94.0227 26.0531 93.2882 26.2149 92.4295 26.2149C92.0566 26.2149 91.6837 26.1825 91.3108 26.1178C90.9379 26.0531 90.5763 25.9453 90.2374 25.8051C89.8984 25.6649 89.5707 25.4816 89.2882 25.2551C88.9944 25.0287 88.7571 24.7699 88.5538 24.4787H88.5086V29.9999H85.9549V14.849ZM94.8814 20.3917C94.8814 19.8957 94.8136 19.4104 94.6781 18.9359C94.5425 18.4615 94.3391 18.0517 94.0679 17.685C93.7967 17.3184 93.4577 17.0272 93.0622 16.8116C92.6554 16.5959 92.1922 16.4773 91.6724 16.4773C90.5989 16.4773 89.7854 16.8331 89.243 17.5449C88.7006 18.2566 88.4295 19.2055 88.4295 20.3917C88.4295 20.9525 88.4973 21.4701 88.6441 21.9446C88.791 22.4191 88.9944 22.8288 89.2882 23.1739C89.5707 23.519 89.9097 23.7886 90.3052 23.9827C90.7006 24.1876 91.1639 24.2846 91.6837 24.2846C92.2713 24.2846 92.7571 24.166 93.1639 23.9395C93.5707 23.7131 93.8984 23.4111 94.1583 23.0553C94.4182 22.6886 94.6102 22.2789 94.7232 21.8152C94.8249 21.3515 94.8814 20.877 94.8814 20.3917ZM99.3899 10.6326H101.944V12.9403H99.3899V10.6326ZM99.3899 14.849H101.944V25.9129H99.3899V14.849ZM104.226 10.6326H106.78V25.9129H104.226V10.6326ZM114.61 26.2149C113.684 26.2149 112.859 26.0639 112.136 25.7728C111.413 25.4816 110.802 25.0718 110.294 24.565C109.797 24.0474 109.413 23.4327 109.153 22.721C108.893 22.0093 108.757 21.2221 108.757 20.3702C108.757 19.529 108.893 18.7526 109.153 18.0409C109.413 17.3292 109.797 16.7145 110.294 16.1969C110.791 15.6793 111.413 15.2803 112.136 14.9891C112.859 14.698 113.684 14.547 114.61 14.547C115.537 14.547 116.362 14.698 117.085 14.9891C117.808 15.2803 118.418 15.6901 118.927 16.1969C119.424 16.7145 119.808 17.3292 120.068 18.0409C120.328 18.7526 120.463 19.529 120.463 20.3702C120.463 21.2221 120.328 22.0093 120.068 22.721C119.808 23.4327 119.424 24.0474 118.927 24.565C118.429 25.0826 117.808 25.4816 117.085 25.7728C116.362 26.0639 115.537 26.2149 114.61 26.2149ZM114.61 24.2846C115.175 24.2846 115.672 24.166 116.09 23.9395C116.509 23.7131 116.848 23.4111 117.119 23.0445C117.39 22.6779 117.582 22.2573 117.718 21.7936C117.842 21.3299 117.91 20.8554 117.91 20.3702C117.91 19.8957 117.842 19.432 117.718 18.9575C117.593 18.483 117.39 18.0733 117.119 17.7066C116.848 17.34 116.509 17.0488 116.09 16.8224C115.672 16.5959 115.175 16.4773 114.61 16.4773C114.045 16.4773 113.548 16.5959 113.13 16.8224C112.712 17.0488 112.373 17.3508 112.102 17.7066C111.831 18.0733 111.638 18.483 111.503 18.9575C111.379 19.432 111.311 19.8957 111.311 20.3702C111.311 20.8554 111.379 21.3299 111.503 21.7936C111.627 22.2573 111.831 22.6779 112.102 23.0445C112.373 23.4111 112.712 23.7131 113.13 23.9395C113.548 24.1768 114.045 24.2846 114.61 24.2846ZM121.209 14.849H123.141V11.5276H125.695V14.849H128V16.6714H125.695V22.5808C125.695 22.8396 125.706 23.0553 125.729 23.2494C125.751 23.4327 125.808 23.5945 125.887 23.7239C125.966 23.8533 126.09 23.9503 126.26 24.015C126.429 24.0797 126.644 24.1121 126.938 24.1121C127.119 24.1121 127.3 24.1121 127.48 24.1013C127.661 24.0905 127.842 24.0689 128.023 24.0258V25.9129C127.74 25.9453 127.458 25.9669 127.198 25.9992C126.927 26.0316 126.655 26.0423 126.373 26.0423C125.695 26.0423 125.153 25.9776 124.746 25.859C124.339 25.7404 124.011 25.5571 123.785 25.3198C123.548 25.0826 123.401 24.7914 123.311 24.4356C123.232 24.0797 123.175 23.67 123.164 23.217V16.693H121.232V14.849H121.209Z" fill="#AAD9D9"/>
<path d="M30.6554 10.6326H18.9492L15.3333 0L11.7062 10.6326L0 10.6219L9.48023 17.1999L5.85311 27.8217L15.3333 21.2545L24.8023 27.8217L21.1864 17.1999L30.6554 10.6326Z" fill="#00B67A"/>
<path d="M21.9999 19.6047L21.1864 17.2L15.3333 21.2546L21.9999 19.6047Z" fill="#005128"/>
</g>
<defs>
<clipPath id="clip0_1_3507">
<rect width="128" height="30" fill="white"/>
</clipPath>
</defs>
</svg>
