<svg width="152" height="55" viewBox="0 0 152 55" fill="none" xmlns="http://www.w3.org/2000/svg">
<path d="M15.1435 23.6775C15.1009 24.6801 15.0796 25.9496 15.0796 27.4856C15.0796 29.0216 15.1009 30.3016 15.1435 31.3257C15.1861 32.3284 15.2713 33.1284 15.3993 33.7258C15.5485 34.323 15.751 34.7391 16.0068 34.9738C16.2839 35.2084 16.6462 35.3258 17.0939 35.3258C17.5415 35.3258 17.8932 35.2084 18.1491 34.9738C18.4262 34.7391 18.6287 34.323 18.7566 33.7258C18.9058 33.1284 19.0017 32.3284 19.0443 31.3257C19.087 30.3016 19.1083 29.0216 19.1083 27.4856C19.1083 25.9496 19.087 24.6801 19.0443 23.6775C19.0017 22.6534 18.9058 21.8427 18.7566 21.2454C18.6287 20.6481 18.4262 20.232 18.1491 19.9974C17.8932 19.7627 17.5415 19.6453 17.0939 19.6453C16.6462 19.6453 16.2839 19.7627 16.0068 19.9974C15.751 20.232 15.5485 20.6481 15.3993 21.2454C15.2713 21.8427 15.1861 22.6534 15.1435 23.6775Z" fill="white"/>
<path fill-rule="evenodd" clip-rule="evenodd" d="M16.2763 3.71344C8.56661 3.87855 2.43844 10.2459 2.56214 17.9628L2.71414 27.4443L2.56214 36.9258C2.43844 44.6428 8.56661 51.0102 16.2763 51.1752L25.7513 51.3781L35.2262 51.1752C42.9359 51.0102 49.0642 44.6428 48.9405 36.9258L48.7885 27.4443L48.9405 17.9628C49.0642 10.2459 42.9359 3.87855 35.2262 3.71344L25.7513 3.51064L16.2763 3.71344ZM26.0786 39.5178L22.4975 42.622L19.2362 39.1018C18.9804 39.1446 18.7245 39.1766 18.4688 39.1979C18.2343 39.2405 17.9678 39.2619 17.6694 39.2619H17.0939C15.5805 39.2619 14.3015 39.0592 13.257 38.6539C12.2125 38.2485 11.3705 37.5765 10.7311 36.6378C10.0916 35.6778 9.6333 34.4511 9.35619 32.9578C9.07908 31.443 8.94053 29.6189 8.94053 27.4856C8.94053 25.3522 9.07908 23.5388 9.35619 22.0454C9.6333 20.5307 10.0916 19.3041 10.7311 18.3653C11.3705 17.4053 12.2125 16.7119 13.257 16.2853C14.3015 15.8372 15.5805 15.6132 17.0939 15.6132C18.6074 15.6132 19.8863 15.8372 20.9308 16.2853C21.9752 16.7119 22.8173 17.4053 23.4568 18.3653C24.0962 19.3041 24.5546 20.5307 24.8317 22.0454C25.1088 23.5388 25.2473 25.3522 25.2473 27.4856C25.2473 29.6829 25.0981 31.539 24.7996 33.0537C24.5012 34.5684 24.011 35.8058 23.3289 36.7659L26.0786 39.5178ZM36.1717 24.2854V23.0054C36.1717 21.7041 36.0438 20.8187 35.7879 20.3494C35.5322 19.88 35.1166 19.6453 34.541 19.6453C34.0934 19.6453 33.731 19.7627 33.4539 19.9974C33.1981 20.232 32.9956 20.6481 32.8464 21.2454C32.7185 21.8427 32.6332 22.6534 32.5906 23.6775C32.5479 24.6801 32.5266 25.9496 32.5266 27.4856C32.5266 29.0216 32.5479 30.3016 32.5906 31.3257C32.6332 32.3284 32.7185 33.1284 32.8464 33.7258C32.9956 34.323 33.1981 34.7391 33.4539 34.9738C33.731 35.2084 34.0934 35.3258 34.541 35.3258C34.9033 35.3258 35.2018 35.2405 35.4362 35.0698C35.6708 34.8777 35.8519 34.5684 35.9798 34.1418C36.1077 33.7151 36.193 33.1497 36.2356 32.4457C36.2996 31.7204 36.3315 30.8137 36.3315 29.7256H42.0868V31.4217C42.0868 33.0218 41.8737 34.3338 41.4474 35.3577C41.0211 36.3818 40.4562 37.1925 39.7528 37.7898C39.0493 38.3659 38.2393 38.7498 37.3227 38.9419C36.4275 39.1552 35.5002 39.2619 34.541 39.2619C32.8783 39.2619 31.5142 39.0592 30.4483 38.6539C29.3825 38.2485 28.5512 37.5765 27.9543 36.6378C27.3574 35.6778 26.9418 34.4511 26.7073 32.9578C26.4942 31.443 26.3876 29.6189 26.3876 27.4856C26.3876 25.3095 26.5155 23.4642 26.7713 21.9494C27.0484 20.4347 27.5067 19.208 28.1462 18.2694C28.7857 17.3306 29.6276 16.6586 30.6721 16.2532C31.7166 15.8265 33.0062 15.6132 34.541 15.6132C35.8839 15.6132 37.0243 15.7839 37.9622 16.1253C38.9001 16.4667 39.6568 16.9573 40.2324 17.5973C40.8292 18.216 41.2555 18.9734 41.5113 19.8694C41.7884 20.744 41.927 21.7361 41.927 22.8455V24.2854H36.1717Z" fill="white"/>
<path fill-rule="evenodd" clip-rule="evenodd" d="M76.8826 19.8192L82.0953 25.2332L87.3079 19.8192H96.3645L86.6167 29.1004L96.3645 38.3815H87.3079L82.0953 32.9537L76.8826 38.3815H67.8123L77.5602 29.1004L67.8123 19.8192H76.8826ZM76.3801 29.1004L65.7781 19.006H77.2292L82.0953 24.06L86.9614 19.006H98.0037V18.9922H116.718C120.998 18.9484 124.62 22.53 124.562 26.8274C124.56 28.3731 124.143 29.7979 123.307 31.0661C122.678 32.026 121.881 32.8158 120.925 33.4164L124.916 38.5444V35.2187C124.916 32.6131 126.862 30.952 129.099 29.8504C131.36 28.7382 134.211 28.0433 136.586 27.4812L136.59 27.4803L136.616 27.4736C138.08 27.1132 139.327 26.8065 140.214 26.4757C140.663 26.308 140.958 26.1562 141.126 26.0273C141.147 26.0109 141.165 25.9964 141.18 25.9839C141.128 25.9366 141.023 25.866 140.816 25.7847C140.333 25.5955 139.509 25.453 138.26 25.4526C136.926 25.4664 135.792 25.575 135.018 25.8467C134.637 25.9807 134.407 26.1333 134.277 26.2765C134.167 26.3995 134.101 26.5455 134.107 26.7744L134.127 27.6071H125.206V26.7939C125.206 25.1245 125.533 23.7286 126.188 22.585C126.846 21.4362 127.805 20.5974 128.974 19.9958C131.268 18.8154 134.429 18.5226 137.953 18.5226C141.561 18.5226 144.557 18.9393 146.678 20.0122C147.751 20.5558 148.623 21.2794 149.223 22.2204C149.824 23.1638 150.119 24.2743 150.119 25.5371C150.119 27.8739 148.71 29.3623 146.983 30.3324C145.306 31.2743 143.196 31.8092 141.443 32.2371H149.815V39.1671H125.4L125.41 39.1809H115.631L112.133 34.6508H106.877V39.1809H98.3837L98.3989 39.1948H86.9608L82.0953 34.1284L77.2298 39.1948H65.7781L76.3801 29.1004ZM98.0037 38.8182V19.3825L87.7967 29.1004L98.0037 38.8182ZM112.534 33.8376L116.032 38.3677H123.747L119.695 33.1608C119.949 33.0432 120.191 32.9131 120.424 32.7708C121.31 32.2275 122.047 31.5059 122.627 30.6196C123.374 29.487 123.747 28.2164 123.747 26.8215C123.803 22.9819 120.554 19.764 116.723 19.8054H98.8175V38.3677H106.062V33.8376H112.534ZM137.179 33.0503C137.433 32.7399 137.892 32.4759 138.502 32.2371C139.221 31.9554 140.147 31.7087 141.188 31.4621C144.755 30.5919 149.305 29.4042 149.305 25.5371C149.305 21.007 145.102 19.3358 137.953 19.3358C131.231 19.3358 126.464 20.4318 126.05 25.9806C126.03 26.2418 126.02 26.5127 126.02 26.7939H133.293C133.292 26.7632 133.292 26.733 133.293 26.7033C133.333 25.0534 135.609 24.6665 138.257 24.6393C140.842 24.6393 142.031 25.2194 142.031 26.0067C142.031 26.9784 139.737 27.5433 136.856 28.2523L136.778 28.2716C131.993 29.4042 125.73 30.9787 125.73 35.2187V38.3538H149V33.0503H137.179ZM141.226 26.0462C141.226 26.0462 141.221 26.0411 141.218 26.0292C141.226 26.0399 141.226 26.0462 141.226 26.0462ZM115.674 26.8215C115.674 26.3868 115.333 26.0465 114.898 26.0465H106.877V27.5827H114.898C115.132 27.5827 115.295 27.5117 115.442 27.3652C115.609 27.1983 115.674 27.0315 115.674 26.8215ZM116.488 26.8215C116.488 25.9375 115.783 25.2332 114.898 25.2332H106.062V28.3959H114.898C115.34 28.3959 115.714 28.244 116.018 27.9402C116.336 27.6225 116.488 27.2497 116.488 26.8215Z" fill="white"/>
<path d="M68.4829 51.7729H71.9531V47.0175L75.4297 51.7729H77.1647L80.6414 47.0175V51.7729H84.1116V42.8589H79.7739L76.2972 47.3159L72.8272 42.8589H68.4829V51.7729Z" fill="white"/>
<path d="M91.4221 42.6401C88.0716 42.6468 85.33 43.615 85.3432 46.9909V47.6409C85.33 51.0102 88.0716 51.9852 91.4221 51.9917C94.7661 51.9852 97.508 51.0102 97.4951 47.6409V46.9909C97.4951 43.6217 94.7732 42.6401 91.4221 42.6401ZM94.0248 47.422C94.0447 48.8812 92.8392 49.1465 91.4221 49.1664C89.9987 49.1465 88.7934 48.8812 88.8132 47.422V47.2032C88.7934 45.7506 89.9987 45.4853 91.4221 45.4655C92.8392 45.4853 94.0447 45.7506 94.0248 47.2032V47.422Z" fill="white"/>
<path d="M107.216 47.3293C107.216 48.2246 106.706 48.9608 105.806 48.9608H102.005V45.6976H105.806C106.706 45.6976 107.216 46.4271 107.216 47.3293ZM98.5345 42.8723V51.7861H106.455C108.899 51.8194 110.713 49.7501 110.693 47.3293C110.713 44.8951 108.899 42.839 106.455 42.8723H98.5345Z" fill="white"/>
<path d="M120.355 47.4287C120.375 48.8944 119.17 49.1465 117.752 49.1664C116.329 49.1465 115.131 48.8944 115.144 47.4287V42.8589H111.673V47.6476C111.66 51.0168 114.415 51.9852 117.752 51.9917C121.09 51.9852 123.845 51.0168 123.832 47.6476V42.8589H120.355V47.4287Z" fill="white"/>
<path d="M125.394 42.8589V51.7729H135.812V48.9475H128.864V42.8589H125.394Z" fill="white"/>
<path d="M136.996 51.7861H147.414V49.498H140.467V48.3572H147.414V46.2946H140.467V45.1537H147.414V42.8723H136.996V51.7861Z" fill="white"/>
<path d="M70.4809 8.90017V7.02163H75.6242C75.8734 7.02163 76.0903 7.11185 76.2671 7.30049C76.4519 7.48105 76.5403 7.70246 76.5403 7.96494C76.5403 8.21934 76.4519 8.44075 76.2671 8.6295C76.0903 8.80995 75.8734 8.90017 75.6242 8.90017H70.4809ZM66.2699 3.79781V14.8229H70.4809V12.1322H76.677C78.9031 12.1651 80.7916 10.2373 80.7595 7.96494C80.7916 5.68454 78.9031 3.77312 76.677 3.79781H66.2699Z" fill="white"/>
<path d="M89.1414 3.51064C85.075 3.51883 81.748 4.71654 81.764 8.89198V9.69592C81.748 13.8632 85.075 15.0689 89.1414 15.0771C93.1994 15.0689 96.527 13.8632 96.5107 9.69592V8.89198C96.5107 4.72473 93.2076 3.51064 89.1414 3.51064ZM92.2991 9.42513C92.3236 11.2298 90.8609 11.558 89.1414 11.5826C87.4136 11.558 85.951 11.2298 85.9751 9.42513V9.15446C85.951 7.35795 87.4136 7.02982 89.1414 7.00525C90.8609 7.02982 92.3236 7.35795 92.2991 9.15446V9.42513Z" fill="white"/>
<path d="M112.929 10.7787L110.429 3.79781H105.688L103.181 10.7787L100.681 3.79781H95.9401L100.681 14.8229H105.688L108.059 9.31033L110.429 14.8229H115.436L120.178 3.79781H115.436L112.929 10.7787Z" fill="white"/>
<path d="M120.5 14.8229H133.14V11.9928H124.71V10.5818H133.14V8.03059H124.71V6.61966H133.14V3.79781H120.5V14.8229Z" fill="white"/>
<path d="M135.383 3.7895V14.8147H139.593V12.124H143.355L145.388 14.8147H149.872L147.517 11.722C148.225 11.3857 148.795 10.8771 149.221 10.2127C149.656 9.54004 149.872 8.78537 149.872 7.95674C149.905 5.67623 148.015 3.76492 145.79 3.7895H135.383ZM144.729 7.01344C145.243 7.01344 145.653 7.43179 145.653 7.95674C145.653 8.21103 145.565 8.43255 145.38 8.62119C145.203 8.80175 144.986 8.89198 144.729 8.89198H139.593V7.01344H144.729Z" fill="white"/>
</svg>
