<svg width="87" height="58" viewBox="0 0 87 58" fill="none" xmlns="http://www.w3.org/2000/svg">
<path d="M55.8559 28.4082C55.8559 43.117 43.8504 55.0408 29.0408 55.0408C14.2314 55.0408 2.22583 43.117 2.22583 28.4082C2.22583 13.6994 14.2314 1.77551 29.0408 1.77551C43.8504 1.77551 55.8559 13.6994 55.8559 28.4082Z" fill="#68DBFF"/>
<path d="M84.7742 28.4082C84.7742 43.117 72.8862 55.0408 58.222 55.0408C43.5577 55.0408 31.6698 43.117 31.6698 28.4082C31.6698 13.6994 43.5577 1.77551 58.222 1.77551C72.8862 1.77551 84.7742 13.6994 84.7742 28.4082Z" fill="#FF7917"/>
<path d="M43.7032 50.7105C51.0212 45.9548 55.8559 37.7424 55.8559 28.4082C55.8559 19.0742 51.0212 10.8616 43.7032 6.10603C36.4571 10.8616 31.6698 19.0742 31.6698 28.4082C31.6698 37.7424 36.4571 45.9548 43.7032 50.7105Z" fill="#5D2C02"/>
</svg>
