<svg width="158" height="32" viewBox="0 0 158 32" fill="none" xmlns="http://www.w3.org/2000/svg">
<path d="M41.9362 7.75053H47.8649L44.5441 23.5009C43.9344 26.484 42.7711 28.1914 41.0075 29.4015C39.2237 30.4366 37.1754 30.9258 35.1164 30.8086C31.1952 30.8086 27.4334 29.167 27.0582 25.1801H33.0244C33.212 26.1182 34.0751 26.6529 35.3884 26.6529C37.1614 26.6529 37.9775 25.5835 38.3434 23.9043L38.6998 22.1688H38.5685C38.045 22.7443 37.41 23.2073 36.7021 23.5298C35.9941 23.8523 35.2281 24.0276 34.4503 24.045C30.9982 24.045 28.2589 21.2964 28.3152 17.272C28.3903 12.5816 31.4484 7.25333 36.5798 7.25333C37.5522 7.18783 38.523 7.40213 39.3775 7.87093C40.232 8.33963 40.9343 9.04333 41.4015 9.89873H41.5047L41.9362 7.75053ZM36.8424 19.6454C39.122 19.6454 40.3884 17.0188 40.4259 14.758C40.4259 13.2477 39.8349 11.6998 38.0901 11.6998C35.7073 11.6998 34.4972 14.3546 34.4597 16.6341C34.4597 18.1726 35.0507 19.6454 36.7955 19.6454M103.4 20.152C103.4 21.1557 102.536 21.5591 101.401 21.5591C99.5251 21.5591 98.8968 20.621 98.8874 19.3077H92.9869C92.8837 24.2045 97.2552 25.4146 101.139 25.4146C106.101 25.4146 109.319 23.2664 109.385 18.9794C109.385 15.5553 106.467 14.5141 103.597 13.848C101.392 13.3415 100.426 12.9756 100.435 12.1407C100.445 11.3058 101.43 10.9681 102.396 10.9681C103.606 10.9681 104.431 11.3996 104.516 12.5066H110.248C110.182 8.41653 106.495 7.21583 102.743 7.21583C98.1839 7.21583 94.6285 9.28893 94.5722 13.2101C94.5722 16.2964 96.6548 17.4315 99.7971 18.2383C101.814 18.773 103.418 18.9418 103.4 20.152ZM147.236 10.2927H147.133C146.878 9.36893 146.314 8.56023 145.536 8.00053C144.758 7.44093 143.812 7.16403 142.855 7.21583C140.304 7.21583 138.747 8.48223 137.274 10.3959H137.171L137.715 7.75053H131.748L128.174 24.8424H134.413L136.289 15.621C136.72 13.6135 137.743 12.2064 139.291 12.2064C140.839 12.2064 141.045 13.4446 140.726 14.955L138.662 24.8424H144.9L146.777 15.621C147.208 13.4822 148.231 12.2064 149.778 12.2064C151.326 12.2064 151.533 13.379 151.214 14.955L149.15 24.8424H155.388L157.621 14.6829C158.559 10.3959 157.124 7.17823 153.006 7.17823C151.86 7.17353 150.732 7.45613 149.724 8.00023C148.716 8.54433 147.861 9.33253 147.236 10.2927ZM0.144531 24.8424H6.58918L11.5704 0.874329H5.13515L0.144531 24.8424ZM19.5441 7.24393C23.8968 7.24393 28.0526 9.62663 27.9869 15.0206C27.9306 20.9212 23.9156 25.3396 17.7805 25.3396C13.5591 25.3396 9.33782 22.9944 9.41282 17.6285C9.51602 11.8687 13.4747 7.24393 19.5441 7.24393ZM17.9588 21.1557C20.7074 21.1557 21.7111 17.1688 21.7111 14.8236C21.7111 13.1445 21.1952 11.5028 19.3846 11.5028C16.6642 11.5028 15.7355 15.7242 15.7355 17.9006C15.7355 19.6454 16.2233 21.1557 17.9963 21.1557M13.7186 0.874329L12.7805 5.66795H66.8987L67.8368 0.874329H13.7186ZM57.2458 7.24393C61.5985 7.24393 65.7542 9.62663 65.6886 15.0206C65.6323 20.9212 61.6079 25.3396 55.4728 25.3396C51.2514 25.3396 47.03 22.9944 47.1145 17.6285C47.2458 11.8687 51.2045 7.24393 57.2458 7.24393ZM55.6886 21.1557C58.4372 21.1557 59.4409 17.1688 59.4409 14.8236C59.4409 13.1445 58.9156 11.5028 57.1051 11.5028C54.394 11.5028 53.4559 15.7242 53.4559 17.9006C53.4559 19.6454 53.9437 21.1557 55.7261 21.1557M70.0507 0.874329L69.1126 5.66795H75.3415L76.2796 0.874329H70.0507ZM65.0601 24.8424H71.2983L74.8724 7.75053H68.5966L65.0601 24.8424ZM84.9662 25.4146C83.9734 25.4851 82.9805 25.2776 82.0989 24.8153C81.2174 24.353 80.4821 23.6542 79.9756 22.7974H79.8724L77.9963 31.4465H71.6829L76.7486 7.75053H82.6773L82.2083 10.03C82.8274 9.18803 83.6294 8.49733 84.5539 8.00983C85.4784 7.52243 86.5014 7.25093 87.546 7.21583C91.2983 7.21583 93.5028 10.4334 93.4372 14.6173C93.3527 19.8799 90.6229 25.4146 84.9287 25.4146H84.9662ZM84.7223 12.0563C82.3115 12.0563 80.8293 15.1426 80.7918 17.516C80.7918 19.167 81.3734 21.0056 83.3527 21.0056C85.9325 21.0056 86.9925 17.591 87.0206 15.3114C87.0206 13.7636 86.5704 12.0563 84.7223 12.0563ZM120.792 22.1501H120.895L120.351 24.8612H126.279L129.854 7.76923H123.625L121.636 17.3189C121.233 19.2983 120.013 20.3396 118.475 20.3396C116.936 20.3396 116.598 18.8949 116.908 17.3846L118.925 7.76923H112.696L110.491 18.3227C109.553 22.9193 111.692 25.3959 115.276 25.3959C116.401 25.3849 117.504 25.0774 118.472 24.5042C119.44 23.931 120.241 23.1125 120.792 22.1313V22.1501ZM154.253 31.531L155.191 26.7373H81.2139L80.2758 31.531H154.253Z" fill="#92D9DC"/>
</svg>
