<svg width="125" height="100" viewBox="0 0 125 100" fill="none" xmlns="http://www.w3.org/2000/svg">
<path d="M41.4628 34.3683C41.4628 34.1143 41.4628 30.4188 41.4628 30.4188H39.2371C39.2371 30.4188 39.2371 34.057 39.2371 34.1718C39.2371 34.8437 38.606 35.2943 37.543 35.2943C36.4302 35.2943 35.8239 34.86 35.8239 34.1635C35.8239 34.0488 35.8239 30.4188 35.8239 30.4188H33.5732C33.5732 30.4188 33.5732 33.8685 33.5732 34.1635C33.5732 36.1137 35.1927 36.9413 37.4516 36.9413C39.8683 36.9413 41.4628 36.1055 41.4628 34.3683Z" fill="white"/>
<path d="M48.9583 36.8512V35.1387H44.9887V30.4188H42.738V36.8512H48.9583Z" fill="white"/>
<path d="M55.6471 32.0332V30.4188H47.8655V32.0332H50.6143V36.8512H52.8898V32.0332H55.6471Z" fill="white"/>
<path d="M58.639 36.8512V30.4188H56.3552V36.8512H58.639Z" fill="white"/>
<path d="M69.117 36.8512V30.4188H66.3016L64.5244 34.2783L62.8303 30.4188H59.9236V36.8512H62.0413V33.377L63.5694 36.8512H65.4629L67.0075 33.377V36.8512H69.117Z" fill="white"/>
<path d="M72.6442 35.663H76.1654L76.7386 36.8512H79.1386L75.8499 30.4188H73.1675L69.6877 36.8512H72.0379L72.6442 35.663ZM75.4595 34.2208H73.3751L74.1972 32.6722L74.4464 32.0823L74.679 32.664L75.4595 34.2208Z" fill="white"/>
<path d="M86.1978 32.0332V30.4188H78.4165V32.0332H81.1653V36.8512H83.441V32.0332H86.1978Z" fill="white"/>
<path d="M93.7652 36.8512V35.2533H89.0912V34.4175H93.5744V32.8525H89.0912V32.0248H93.7078V30.4188H86.8987V36.8512H93.7652Z" fill="white"/>
<path d="M50.5459 40.2705H48.3949C48.3949 40.2705 46.9913 44.3183 46.9913 44.4167C46.9913 44.3183 45.6792 40.2705 45.6792 40.2705H43.3456C43.3456 40.2705 42.0417 44.3183 42.0417 44.4167C42.0417 44.3183 40.6299 40.2705 40.6299 40.2705H38.2131L40.6549 46.7028H43.0881C43.0881 46.7028 44.4003 42.8598 44.4086 42.7533C44.4169 42.8598 45.7207 46.7028 45.7207 46.7028H48.1623L50.5459 40.2705Z" fill="white"/>
<path d="M53.4891 46.7028V40.2705H51.2053V46.7028H53.4891Z" fill="white"/>
<path d="M62.3724 46.7028V40.2705H60.2464V43.7693L57.1155 40.2705H54.7734V46.7028H56.9162V43.122L60.1467 46.7028H62.3724Z" fill="white"/>
<path d="M71.2692 46.7028V40.2705H69.1432V43.7693L66.0123 40.2705H63.6704V46.7028H65.813V43.122L69.0435 46.7028H71.2692Z" fill="white"/>
<path d="M79.4352 46.7028V45.105H74.7597V44.2692H79.2442V42.7042H74.7597V41.8765H79.3771V40.2705H72.5671V46.7028H79.4352Z" fill="white"/>
<path d="M88.2146 42.2288C88.2146 41.6472 88.0727 41.2292 87.7737 40.926C87.3835 40.5163 86.7112 40.2705 85.6808 40.2705H80.491V46.7028H82.7084V44.4332H84.7264L86.3464 46.7028H88.821L86.8531 44.0807C87.2923 44.0152 87.6504 43.753 87.8818 43.4417C88.0896 43.1548 88.2146 42.7287 88.2146 42.2288ZM86.0558 42.4337C86.0558 42.5403 86.0389 42.6713 85.9798 42.7697C85.897 42.9335 85.6808 42.9992 85.3244 42.9992H82.7166V41.8273H85.2822C85.6318 41.8273 85.865 41.8847 85.9798 42.0978C86.0389 42.1797 86.0558 42.3108 86.0558 42.4337Z" fill="white"/>
<path d="M42.3991 53.0312C42.3991 52.926 42.3991 49.888 42.3991 49.888H41.6216C41.6216 49.888 41.6216 52.9135 41.6216 52.9817C41.6216 53.7117 40.9254 54.1263 39.9221 54.1263C38.7369 54.1263 38.1537 53.6808 38.1537 52.9755C38.1537 52.9073 38.1537 49.888 38.1537 49.888H37.3699C37.3699 49.888 37.3699 52.8332 37.3699 52.9507C37.3699 54.2377 38.3858 54.8068 39.8908 54.8068C41.4459 54.8068 42.3991 54.2005 42.3991 53.0312Z" fill="white"/>
<path d="M47.9781 54.745V54.0335H44.5855V49.888H43.8018V54.745H47.9781Z" fill="white"/>
<path d="M52.4322 50.5933V49.888H47.2021V50.5933H49.4221V54.745H50.2123V50.5933H52.4322Z" fill="white"/>
<path d="M58.0058 51.2615C58.0058 50.915 57.9305 50.6613 57.7989 50.4572C57.5668 50.1168 57.1215 49.888 56.3817 49.888H53.196V54.745H53.9673V52.697H56.2123L57.5856 54.745H58.4886L57.0025 52.567C57.3786 52.5238 57.6734 52.3133 57.8302 52.0412C57.9432 51.8555 58.0058 51.5833 58.0058 51.2615ZM57.2281 51.3233C57.2281 51.4595 57.1969 51.6267 57.1405 51.738C57.0401 51.9173 56.808 52.0102 56.4319 52.0163H53.9736C53.9736 52.004 53.9736 50.581 53.9736 50.581H56.2876C56.7579 50.581 57.0087 50.6923 57.1405 50.9027C57.1969 51.0017 57.2281 51.1687 57.2281 51.3233Z" fill="white"/>
<path d="M60.2375 53.5447H63.3041L63.9311 54.745H64.7715L62.2755 49.888H61.3537L58.7764 54.745H59.5978L60.2375 53.5447ZM62.9779 52.8578H60.5762L61.5732 50.9955L61.7927 50.5438L62.0122 50.9955L62.9779 52.8578Z" fill="white"/>
<path d="M72.7247 54.281C72.9191 54.0582 73.007 53.7427 73.007 53.4023C73.007 53.0807 72.9129 52.7588 72.7185 52.5608C72.524 52.3753 72.2105 52.2207 71.8656 52.1897C72.0663 52.1587 72.223 52.035 72.3296 51.905C72.499 51.7132 72.5992 51.4038 72.5992 51.0945C72.5992 50.7665 72.499 50.4695 72.2857 50.2653C72.0538 50.0365 71.6587 49.888 71.1068 49.888H67.7957V54.745H71.3514C72.0161 54.745 72.4801 54.578 72.7247 54.281ZM71.7903 51.2492C71.7903 51.4657 71.7213 51.6575 71.6022 51.7688C71.483 51.8988 71.2823 51.9545 71.0691 51.9545H68.5607V50.5562H70.9249C71.2134 50.5562 71.4328 50.6118 71.5833 50.748C71.7151 50.8717 71.7903 51.0512 71.7903 51.2492ZM72.0411 53.8107C71.8843 53.984 71.6147 54.0707 71.2196 54.0707H68.5607V52.629H71.2386C71.6022 52.629 71.8531 52.7032 72.0036 52.8455C72.1414 52.9755 72.198 53.1425 72.198 53.3343C72.198 53.5323 72.1541 53.6993 72.0411 53.8107Z" fill="white"/>
<path d="M78.6998 54.745V54.0335H74.8746V52.6475H78.5492V51.9422H74.8746V50.5933H78.6558V49.888H74.1094V54.745H78.6998Z" fill="white"/>
<path d="M84.8261 53.3095C84.8261 52.5175 84.294 52.1092 82.9832 51.9607C82.7631 51.9298 82.2864 51.8803 82.0293 51.8493C80.8127 51.707 80.4428 51.5462 80.4428 51.1317C80.4428 50.7295 80.8504 50.5005 82.0794 50.5005C83.0321 50.5005 83.522 50.6862 83.7669 51.0202C83.8362 51.113 83.8734 51.2245 83.8919 51.311H84.7315C84.7078 51.1687 84.6504 50.9707 84.5626 50.8098C84.2247 50.2345 83.5288 49.8198 82.0794 49.8198C80.3487 49.8137 79.6338 50.4325 79.6338 51.1997C79.6338 51.9668 80.1919 52.3567 81.6406 52.5238C81.8914 52.5547 82.3365 52.6042 82.5561 52.629C83.6791 52.765 84.0305 52.9322 84.0305 53.3962C84.0305 53.8232 83.6284 54.1325 82.3428 54.1325C81.2894 54.1325 80.7249 53.9468 80.4992 53.588C80.4303 53.489 80.3864 53.3343 80.3801 53.2292H79.5522C79.5712 53.4518 79.6338 53.6932 79.7467 53.885C80.0729 54.4728 80.8379 54.8132 82.3178 54.8132C84.0862 54.8132 84.8261 54.25 84.8261 53.3095Z" fill="white"/>
<path d="M90.4492 50.5933V49.888H85.2195V50.5933H87.4391V54.745H88.2296V50.5933H90.4492Z" fill="white"/>
<path d="M35.1499 58.9667C35.1499 58.4717 35.0496 58.1375 34.8802 57.8838C34.642 57.5187 34.1778 57.327 33.3689 57.327H30.2585V62.184H31.0361V60.6C31.0361 60.6 33.231 60.6 33.3376 60.6C34.0964 60.5938 34.6168 60.4207 34.8928 60.0247C35.0683 59.7833 35.1499 59.4368 35.1499 58.9667ZM34.3597 58.9667C34.3597 59.214 34.3346 59.3997 34.2531 59.5235C34.1089 59.7523 33.8141 59.8947 33.2058 59.8947C33.1494 59.8947 31.0361 59.8947 31.0361 59.8947V58.02H33.231C33.8016 58.02 34.0964 58.1498 34.2531 58.4035C34.3283 58.5148 34.3597 58.7192 34.3597 58.9667Z" fill="white"/>
<path d="M40.826 62.184V61.4725H37.0006V60.0865H40.6755V59.3812H37.0006V58.0323H40.782V57.327H36.2356V62.184H40.826Z" fill="white"/>
<path d="M46.8081 58.7005C46.8081 58.354 46.7329 58.1003 46.6012 57.8962C46.3691 57.5558 45.924 57.327 45.1839 57.327H41.9983V62.184H42.7696V60.136H45.0147L46.388 62.184H47.291L45.8047 60.006C46.1811 59.9628 46.4758 59.7523 46.6326 59.4802C46.7454 59.2945 46.8081 59.0223 46.8081 58.7005ZM46.0306 58.7623C46.0306 58.8985 45.9991 59.0657 45.9427 59.177C45.8424 59.3563 45.6103 59.4492 45.2341 59.4553H42.7758C42.7758 59.443 42.7758 58.02 42.7758 58.02H45.0898C45.5601 58.02 45.811 58.1313 45.9427 58.3417C45.9991 58.4407 46.0306 58.6077 46.0306 58.7623Z" fill="white"/>
<path d="M52.6221 58.0323V57.327H48.2449V62.184H49.0224V60.1175H52.4591V59.3935H49.0224V58.0323H52.6221Z" fill="white"/>
<path d="M56.1911 57.2403C55.1438 57.2403 54.4227 57.494 53.9084 58.0262C53.4758 58.4407 53.2876 59.0162 53.2876 59.74C53.2876 60.532 53.5322 61.126 53.9837 61.5282C54.4667 62.0047 55.2065 62.252 56.1911 62.252C57.207 62.252 57.9971 62.0047 58.4675 61.5033C58.8751 61.095 59.0883 60.5135 59.0883 59.7338C59.0883 58.979 58.9064 58.4035 58.4737 57.9952C57.9783 57.4878 57.2383 57.2403 56.1911 57.2403ZM56.1911 61.5592C55.5013 61.5592 55.0121 61.4107 54.6422 61.1137C54.266 60.8105 54.0841 60.3463 54.0841 59.7523C54.0841 59.1955 54.2408 58.7315 54.5418 58.453C54.8868 58.1313 55.4134 57.9395 56.1849 57.9395C56.9812 57.9395 57.4766 58.1252 57.8465 58.4468C58.1602 58.7192 58.2981 59.2017 58.2981 59.7462C58.2981 60.2968 58.154 60.7672 57.8341 61.0517C57.4641 61.392 56.9437 61.5592 56.1911 61.5592Z" fill="white"/>
<path d="M64.9719 58.7005C64.9719 58.354 64.8966 58.1003 64.765 57.8962C64.5329 57.5558 64.0876 57.327 63.3477 57.327H60.1621V62.184H60.9334V60.136H63.1783L64.5518 62.184H65.4547L63.9685 60.006C64.3447 59.9628 64.6395 59.7523 64.7962 59.4802C64.9092 59.2945 64.9719 59.0223 64.9719 58.7005ZM64.1942 58.7623C64.1942 58.8985 64.163 59.0657 64.1065 59.177C64.0062 59.3563 63.7741 59.4492 63.3979 59.4553H60.9396C60.9396 59.443 60.9396 58.02 60.9396 58.02H63.2537C63.7239 58.02 63.9748 58.1313 64.1065 58.3417C64.163 58.4407 64.1942 58.6077 64.1942 58.7623Z" fill="white"/>
<path d="M72.4727 62.184V57.327H71.4568L69.4313 61.324L67.4433 57.327H66.4087V62.184H67.155V58.4468L69.0111 62.184H69.8263L71.7264 58.4468V62.184H72.4727Z" fill="white"/>
<path d="M74.6748 60.9837H77.7413L78.3684 62.184H79.2087L76.7128 57.327H75.791L73.2136 62.184H74.0351L74.6748 60.9837ZM77.4151 60.2968H75.0135L76.0104 58.4345L76.23 57.9828L76.4494 58.4345L77.4151 60.2968Z" fill="white"/>
<path d="M84.8581 62.184V57.327H84.1115V61.1012L80.8513 57.327H79.967V62.184H80.7258V58.385L84.0118 62.184H84.8581Z" fill="white"/>
<path d="M91.6233 60.3712H90.8074C90.7821 60.5938 90.6942 60.8167 90.5371 60.9837C90.1993 61.3735 89.6605 61.5405 88.8328 61.5405C88.1368 61.5405 87.3902 61.3487 87.0321 60.8475C86.8446 60.6125 86.7246 60.266 86.7246 59.7462C86.7246 59.2822 86.8074 58.9357 86.9882 58.7005C87.2888 58.2242 87.9223 57.9767 88.8142 57.9767C89.679 57.9767 90.2246 58.2117 90.5135 58.5397C90.6757 58.7128 90.7703 58.9172 90.8007 59.1583H91.6165C91.5912 58.8862 91.5034 58.5643 91.3159 58.2922C90.9138 57.7043 90.174 57.2403 88.8192 57.2403C87.5287 57.2403 86.7567 57.6487 86.3294 58.2612C86.054 58.6138 85.9155 59.1088 85.9155 59.74C85.9155 60.4453 86.0861 60.9652 86.3801 61.3302C86.8074 61.9057 87.6284 62.252 88.8699 62.252C90.1436 62.252 90.902 61.8747 91.2787 61.2745C91.4915 60.9837 91.598 60.6372 91.6233 60.3712Z" fill="white"/>
<path d="M97.2348 62.184V61.4725H93.4088V60.0865H97.0844V59.3812H93.4088V58.0323H97.1908V57.327H92.6436V62.184H97.2348Z" fill="white"/>
<path d="M39.8849 67.009L40.8228 69.857H43.8577L41.4025 71.6172L42.3403 74.465L39.8849 72.705L37.4295 74.465L38.3675 71.6172L35.9121 69.857H38.9471L39.8849 67.009Z" fill="white"/>
<path d="M50.7118 67.0092L51.6688 69.857H54.7657L52.2603 71.6172L53.2172 74.4652L50.7118 72.705L48.2064 74.4652L49.1634 71.6172L46.658 69.857H49.7549L50.7118 67.0092Z" fill="white"/>
<path d="M61.4533 67.0092L62.4104 69.857H65.5072L63.0018 71.6172L63.9589 74.4652L61.4533 72.705L58.9479 74.4652L59.9048 71.6172L57.3994 69.857H60.4964L61.4533 67.0092Z" fill="white"/>
<path d="M72.195 67.0092L73.1519 69.857H76.2489L73.7435 71.6172L74.7004 74.4652L72.195 72.705L69.6896 74.4652L70.6465 71.6172L68.1411 69.857H71.2381L72.195 67.0092Z" fill="white"/>
<path d="M83.022 67.0092L83.9595 69.857H86.995L84.5389 71.6172L85.4764 74.4652L83.022 72.705L80.5665 74.4652L81.5045 71.6172L79.0491 69.857H82.084L83.022 67.0092Z" fill="white"/>
<path d="M45.1453 18.9603L45.8544 21.1137H48.1492L46.2928 22.4445L47.0019 24.5977L45.1453 23.267L43.2889 24.5977L43.998 22.4445L42.1416 21.1137H44.4364L45.1453 18.9603Z" fill="white"/>
<path d="M53.3316 18.9573L54.0552 21.1107H56.3966L54.5023 22.4415L55.2258 24.5947L53.3316 23.2638L51.4371 24.5947L52.1608 22.4415L50.2664 21.1107H52.6079L53.3316 18.9573Z" fill="white"/>
<path d="M61.4529 18.9573L62.1764 21.1107H64.5179L62.6237 22.4415L63.3472 24.5947L61.4529 23.2638L59.5585 24.5947L60.2821 22.4415L58.3877 21.1107H60.7292L61.4529 18.9573Z" fill="white"/>
<path d="M69.5755 18.9573L70.2989 21.1107H72.6405L70.7462 22.4415L71.4697 24.5947L69.5755 23.2638L67.681 24.5947L68.4047 22.4415L66.5103 21.1107H68.8518L69.5755 18.9573Z" fill="white"/>
<path d="M77.7603 18.9573L78.4694 21.1107H80.7642L78.9078 22.4415L79.6169 24.5947L77.7603 23.2638L75.9039 24.5947L76.613 22.4415L74.7566 21.1107H77.0512L77.7603 18.9573Z" fill="white"/>
<path fill-rule="evenodd" clip-rule="evenodd" d="M12.4601 57.7173C9.33069 38.3992 18.4638 19.2862 36.7478 11.0785L36.9165 11.4445C18.8165 19.5695 9.7589 38.4955 12.8625 57.6538C16.2961 78.8493 33.6261 91.561 54.8483 92.1738L54.8363 92.5758C33.4488 91.9582 15.929 79.1315 12.4601 57.7173Z" fill="white"/>
<path d="M32.7833 16.0087C29.4045 16.0847 25.4499 17.9647 23.1165 20.6953C24.9877 22.4098 27.9985 21.776 30.1653 21.4253C33.2577 20.925 36.5462 19.9557 39.4643 18.5835C38.2644 16.0635 35.0323 15.9582 32.7833 16.0087Z" fill="white"/>
<path d="M30.1263 11.896C28.1249 14.972 25.7398 18.0292 23.1442 20.7213C20.9726 18.71 22.2834 15.3628 23.1697 13.2813C24.7753 9.50967 28.6248 6.25717 32.6493 4.593C33.7538 7.0725 31.3547 10.008 30.1263 11.896Z" fill="white"/>
<path d="M23.0057 24.6345C19.8418 25.7442 17.1231 28.8678 15.7581 32.0038C18.0331 33.0475 20.6194 31.5403 22.5114 30.5368C25.1094 29.1588 27.7599 27.2575 29.8454 25.0572C27.9611 23.0955 25.0999 23.9002 23.0057 24.6345Z" fill="white"/>
<path d="M19.1706 21.5608C18.478 25.0692 17.3169 28.7055 15.7919 32.0198C13.1301 30.7812 13.2314 27.2335 13.3454 24.9758C13.54 21.1223 15.725 16.728 18.767 13.9353C20.6294 15.9053 19.6118 19.326 19.1706 21.5608Z" fill="white"/>
<path d="M16.9181 35.7708C14.2818 37.8228 12.6838 41.6257 12.3137 45.0215C14.8076 45.304 16.8011 43.0647 18.2843 41.5283C20.3038 39.4365 22.2154 36.8128 23.4294 34.068C21.0521 32.7883 18.6353 34.4342 16.9181 35.7708Z" fill="white"/>
<path d="M12.3506 34.0385C12.8207 37.5813 12.8217 41.4142 12.3515 45.0262C9.45113 44.6747 8.48914 41.2387 7.92089 39.0832C6.93981 35.3625 7.59758 30.5565 9.50873 26.9395C11.8971 28.244 12.0503 31.774 12.3506 34.0385Z" fill="white"/>
<path d="M14.8492 47.9267C12.7631 50.9418 12.0295 55.667 12.9676 59.465C15.7244 58.821 17.091 55.7415 18.1883 53.5667C19.6465 50.6762 20.8791 47.304 21.3203 43.9955C18.3303 43.3815 16.2234 45.9403 14.8492 47.9267Z" fill="white"/>
<path d="M9.37289 47.6218C10.9982 51.3347 12.2666 55.4212 13.0089 59.4558C9.84721 60.126 7.5717 56.8503 6.24974 54.6783C3.8962 50.812 3.21056 45.4522 4.07272 40.8268C6.96647 41.3993 8.38251 45.3602 9.37289 47.6218Z" fill="white"/>
<path d="M16.3084 61.0452C15.1883 64.7028 15.9668 69.6753 18.2347 73.114C20.727 71.513 21.0719 67.9893 21.4251 65.4628C21.8908 62.1288 22.1101 58.4355 21.5315 54.9783C18.3439 55.3798 17.0565 58.6017 16.3084 61.0452Z" fill="white"/>
<path d="M10.769 62.611C13.5656 65.7772 16.1453 69.3872 18.2728 73.0903C15.3874 74.8677 12.0014 72.4395 9.94784 70.7212C6.30477 67.673 3.93923 62.4922 3.37842 57.6078C6.41017 57.2058 9.08196 60.7008 10.769 62.611Z" fill="white"/>
<path d="M22.1861 73.4945C22.4264 77.752 25.2357 82.2195 28.9763 84.7623C30.7827 82.3222 29.6504 78.5833 29.0342 75.9735C28.2046 72.4597 27.0565 68.8007 25.3502 65.554C22.3749 67.1053 22.0278 70.6907 22.1861 73.4945Z" fill="white"/>
<path d="M17.1552 77.0908C21.2077 79.3127 25.2486 81.9345 29.0057 84.7243C26.7557 87.6477 22.2584 86.482 19.4705 85.5423C14.5577 83.8865 10.1778 79.5215 7.89014 74.672C10.7906 73.1978 14.7613 75.7783 17.1552 77.0908Z" fill="white"/>
<path d="M33.7279 83.8957C36.1601 88.2753 41.7029 91.1325 46.9225 91.8203C47.4843 88.6363 43.9926 85.4838 42.0899 83.4215C39.3809 80.4853 36.5581 77.4383 33.3933 74.8997C31.0221 77.616 32.2757 81.2808 33.7279 83.8957Z" fill="white"/>
<path d="M30.2542 89.4463C35.7831 90.0135 41.4057 90.83 46.9314 91.7715C46.4039 95.7888 39.9425 96.4372 37.0093 96.6743C30.9949 97.1607 24.3044 94.7753 19.6458 90.7597C21.9596 88.0733 27.3091 89.1443 30.2542 89.4463Z" fill="white"/>
<path d="M40.9036 7.70667C37.1916 8.7515 32.8466 10.7337 30.7002 14.3927C34.5963 13.9737 38.4255 12.6058 42.1703 11.5637C46.3649 10.3962 50.7816 9.523 54.8428 7.9115C50.3951 6.15583 45.1522 6.51067 40.9036 7.70667Z" fill="white"/>
<path fill-rule="evenodd" clip-rule="evenodd" d="M112.716 57.6538C115.819 38.4955 106.762 19.5698 88.6621 11.4445L88.8311 11.0785C107.115 19.2863 116.248 38.3992 113.118 57.7173C109.65 79.1315 92.13 91.9582 70.7425 92.5758L70.7307 92.1738C91.9527 91.561 109.282 78.8493 112.716 57.6538Z" fill="white"/>
<path d="M92.7955 16.0087C96.1739 16.0847 100.128 17.9647 102.463 20.6953C100.591 22.4098 97.5793 21.776 95.4137 21.4253C92.3208 20.925 89.032 19.9557 86.1147 18.5835C87.3141 16.0635 90.5455 15.9582 92.7955 16.0087Z" fill="white"/>
<path d="M95.4528 11.896C97.4545 14.972 99.8396 18.0292 102.434 20.7213C104.607 18.71 103.296 15.3628 102.409 13.2813C100.804 9.50967 96.9545 6.25717 92.9291 4.593C91.8244 7.0725 94.2248 10.008 95.4528 11.896Z" fill="white"/>
<path d="M102.574 24.6345C105.738 25.7442 108.456 28.8678 109.821 32.0038C107.546 33.0475 104.96 31.5403 103.068 30.5368C100.47 29.1588 97.8193 27.2575 95.7349 25.0572C97.6183 23.0955 100.48 23.9002 102.574 24.6345Z" fill="white"/>
<path d="M106.409 21.5608C107.101 25.0692 108.262 28.7055 109.787 32.0198C112.449 30.7812 112.348 27.2335 112.233 24.9758C112.039 21.1223 109.855 16.728 106.813 13.9353C104.949 15.9053 105.968 19.326 106.409 21.5608Z" fill="white"/>
<path d="M108.661 35.7708C111.297 37.8228 112.895 41.6257 113.265 45.0215C110.772 45.304 108.779 43.0647 107.296 41.5283C105.275 39.4365 103.363 36.8128 102.15 34.068C104.527 32.7883 106.944 34.4342 108.661 35.7708Z" fill="white"/>
<path d="M113.23 34.0385C112.758 37.581 112.758 41.4142 113.228 45.0262C116.128 44.6747 117.091 41.2387 117.659 39.0832C118.64 35.3625 117.981 30.5565 116.071 26.9395C113.682 28.244 113.529 31.774 113.23 34.0385Z" fill="white"/>
<path d="M110.73 47.9267C112.816 50.9418 113.549 55.667 112.612 59.465C109.855 58.821 108.488 55.7417 107.39 53.5667C105.933 50.6762 104.699 47.304 104.259 43.9955C107.248 43.3815 109.357 45.9403 110.73 47.9267Z" fill="white"/>
<path d="M116.206 47.6218C114.581 51.3347 113.313 55.4212 112.571 59.4558C115.732 60.126 118.007 56.8503 119.329 54.6783C121.683 50.812 122.368 45.4522 121.507 40.8268C118.613 41.3993 117.196 45.3602 116.206 47.6218Z" fill="white"/>
<path d="M109.27 61.0452C110.39 64.7028 109.613 69.6753 107.345 73.114C104.853 71.513 104.507 67.9893 104.154 65.4628C103.689 62.1288 103.47 58.4355 104.047 54.9783C107.235 55.3798 108.522 58.6017 109.27 61.0452Z" fill="white"/>
<path d="M114.809 62.611C112.013 65.7773 109.434 69.3872 107.306 73.0903C110.191 74.8677 113.578 72.4395 115.632 70.7212C119.274 67.673 121.64 62.4922 122.201 57.6078C119.169 57.2058 116.497 60.7008 114.809 62.611Z" fill="white"/>
<path d="M103.392 73.4945C103.152 77.752 100.343 82.2195 96.603 84.7623C94.7956 82.3222 95.929 78.5835 96.5439 75.9735C97.3733 72.4597 98.5219 68.8007 100.228 65.554C103.204 67.1053 103.551 70.6907 103.392 73.4945Z" fill="white"/>
<path d="M108.424 77.0908C104.372 79.3127 100.331 81.9345 96.5742 84.7243C98.8242 87.6477 103.321 86.482 106.108 85.5423C111.022 83.8865 115.402 79.5215 117.689 74.672C114.789 73.1978 110.817 75.7783 108.424 77.0908Z" fill="white"/>
<path d="M91.8513 83.8957C89.4189 88.2753 83.8767 91.1325 78.6564 91.8203C78.0946 88.6363 81.5861 85.4838 83.4898 83.4215C86.1976 80.4853 89.0202 77.4383 92.1858 74.8997C94.5574 77.616 93.3023 81.2808 91.8513 83.8957Z" fill="white"/>
<path d="M95.3242 89.4463C89.7955 90.0135 84.1739 90.83 78.6472 91.7715C79.1749 95.7888 85.6367 96.4372 88.5692 96.6743C94.5844 97.1607 101.275 94.7753 105.932 90.7597C103.62 88.0733 98.2702 89.1443 95.3242 89.4463Z" fill="white"/>
<path d="M84.6757 7.70667C88.3868 8.7515 92.7331 10.7337 94.8784 14.3927C90.9831 13.9737 87.1537 12.6058 83.4088 11.5637C79.2142 10.3962 74.7975 9.523 70.7363 7.9115C75.1841 6.15583 80.4269 6.51067 84.6757 7.70667Z" fill="white"/>
<path d="M65.2034 5.81317L63.2988 1.66667L61.4301 5.736L57.084 3.07733L59.8767 8.86783H66.822L69.5139 3.07733L65.2034 5.81317Z" fill="white"/>
<path d="M66.7773 9.76767H59.821V10.7805H66.7773V9.76767Z" fill="white"/>
<path d="M63.7963 88.1197L64.9173 91.5233H68.5445L65.61 93.6268L66.7308 97.0305L63.7963 94.927L60.8619 97.0305L61.9828 93.6268L59.0483 91.5233H62.6755L63.7963 88.1197Z" fill="white"/>
</svg>
