<svg width="967" height="848" viewBox="0 0 967 848" fill="none" xmlns="http://www.w3.org/2000/svg">
<g clip-path="url(#clip0_156_18)">
<path d="M967 0V713.803H289.868C289.868 713.803 96.13 498.825 247.091 287.247C341.626 154.762 443.948 132.884 432.222 0" fill="#D0FCFB"/>
<path d="M360.953 713.803H967.025V70.0178C967.025 70.0178 782.105 51.6105 680.745 185.667C599.953 292.499 695.473 379.658 511.116 452.748C408.42 493.455 356.544 526.612 360.953 713.803Z" fill="#E3FFFC"/>
<path d="M777.108 131.196C779.828 130.328 784.777 127.467 782.15 122.332C778.726 115.696 763.834 121.324 761.207 118.698C758.58 116.071 767.797 106.903 759.19 99.3758C751.146 92.3178 743.173 98.9303 738.248 98.1565C732.807 97.3123 736.207 82.6569 718.923 84.6735C703.773 86.4321 710.668 103.198 708.041 105.801C705.415 108.427 701.006 97.9454 694.556 102.987C688.107 108.028 693.548 115.673 690.921 118.275C688.295 120.902 675.021 113.844 673.004 121.089C670.987 128.335 679.289 131.876 682.056 132.368C686.606 133.189 768.149 134.033 777.108 131.196Z" fill="white"/>
<path d="M541.603 233.057C543.995 232.307 548.357 229.774 546.035 225.272C543.034 219.434 529.924 224.381 527.626 222.083C525.327 219.785 533.418 211.719 525.867 205.106C518.784 198.916 511.772 204.708 507.457 204.051C502.673 203.324 505.674 190.427 490.477 192.186C477.157 193.734 483.231 208.46 480.932 210.757C478.634 213.055 474.741 203.864 469.089 208.272C463.437 212.704 468.198 219.41 465.9 221.708C463.601 224.006 451.922 217.816 450.163 224.194C448.404 230.572 455.698 233.69 458.137 234.089C462.077 234.792 533.747 235.566 541.603 233.057Z" fill="white"/>
<path d="M919.462 416.684C921.198 416.121 924.364 414.292 922.675 411.033C920.494 406.789 910.973 410.4 909.307 408.711C907.642 407.047 913.529 401.184 908.017 396.377C902.881 391.875 897.792 396.096 894.65 395.604C891.179 395.064 893.36 385.708 882.314 386.998C872.628 388.123 877.037 398.816 875.372 400.504C873.707 402.169 870.869 395.486 866.765 398.699C862.661 401.911 866.132 406.789 864.444 408.477C862.778 410.142 854.289 405.64 852.999 410.282C851.709 414.902 857.009 417.176 858.792 417.481C861.653 417.95 913.74 418.513 919.462 416.684Z" fill="white"/>
<path d="M373.029 401.138C374.764 400.575 377.93 398.746 376.241 395.486C374.06 391.242 364.539 394.853 362.874 393.165C361.209 391.5 367.095 385.638 361.584 380.831C356.448 376.329 351.359 380.55 348.216 380.057C344.745 379.518 346.926 370.162 335.88 371.451C326.195 372.577 330.604 383.27 328.939 384.958C327.273 386.623 324.436 379.94 320.332 383.152C316.228 386.365 319.699 391.242 318.01 392.931C316.345 394.595 307.855 390.093 306.565 394.736C305.275 399.355 310.576 401.63 312.358 401.935C315.243 402.427 367.306 402.967 373.029 401.138Z" fill="white"/>
<path d="M967.001 848H269.161C206.168 848 155.113 796.952 155.113 733.969H967.001V848Z" fill="#F7EBBA"/>
<path d="M0 687.822H967V801.853H114.048C51.0552 801.853 0 750.781 0 687.822Z" fill="#FFF5CC"/>
<path d="M207.998 713.803C207.998 713.803 162.946 670.775 175.962 586.265C185.062 527.268 258.045 469.28 313.72 472.938C313.72 472.938 379.972 282.346 574.343 287.341C768.714 292.359 773.24 444.658 766.885 497.793C766.885 497.793 960.927 519.976 910.833 713.779H207.998V713.803Z" fill="#A5EFCF"/>
<path d="M261.985 713.803C261.985 713.803 224.11 677.622 235.062 606.619C242.707 557.025 304.035 508.298 350.845 511.37C350.845 511.37 406.52 351.168 569.911 355.389C733.278 359.61 737.077 487.593 731.754 532.286C731.754 532.286 894.863 550.928 852.743 713.826H261.985V713.803Z" fill="#BDF4DB"/>
<path d="M304.574 461.753C304.574 461.753 256.38 463.582 259.968 443.885C264.94 416.802 304.574 461.753 304.574 461.753Z" fill="#A5EFCF"/>
<path d="M307.248 458.165C307.248 458.165 285.507 436.498 296.248 429.651C311 420.225 307.248 458.165 307.248 458.165Z" fill="#A5EFCF"/>
<path d="M790.266 484.521C790.266 484.521 799.576 437.202 817.916 445.245C843.127 456.265 790.266 484.521 790.266 484.521Z" fill="#A5EFCF"/>
<path d="M793.127 487.921C793.127 487.921 819.206 471.765 823.404 483.771C829.196 500.302 793.127 487.921 793.127 487.921Z" fill="#A5EFCF"/>
<path d="M187.125 713.803C187.125 713.803 123.429 663.81 131.144 609.198C132.2 601.671 142.097 598.576 146.717 604.602C156.402 617.147 177.486 650.914 187.828 673.987C187.828 673.987 155.019 612.856 160.952 555.759C161.867 546.989 173.522 544.527 177.744 552.265C186.679 568.632 197.326 598.107 199.062 647.091C199.062 647.091 199.062 583.756 228.635 538.5C232.903 531.958 242.823 533.506 244.887 541.056C250 559.909 247.678 590.299 224.273 659.66C224.273 659.66 235.835 642.308 256.332 621.884C262.875 615.365 273.85 621.814 271.318 630.677C265.478 650.96 252.017 681.28 220.872 713.803H187.125Z" fill="url(#paint0_linear_156_18)"/>
<g opacity="0.35">
<path d="M161.046 664.912C170.052 679.239 180.324 690.565 188.204 697.483C190.174 699.171 190.479 698.819 188.767 696.92C181.872 689.111 172.421 677.434 163.579 663.318C154.62 649.272 148.523 635.554 144.864 625.8C143.903 623.408 143.457 623.525 144.114 626.034C146.482 636.235 151.947 650.632 161.046 664.912Z" fill="#49755E"/>
<path d="M186.14 629.036C180.676 606.08 175.915 585.421 172.397 571.141C171.53 567.624 171.084 567.694 171.623 571.305C173.828 585.867 177.768 606.736 183.232 629.739C188.696 652.742 194.724 673.166 199.907 686.954C201.15 690.378 201.595 690.214 200.657 686.72C196.764 672.533 191.581 651.992 186.14 629.036Z" fill="#49755E"/>
<path d="M224.087 618.718C228.754 595.997 231.779 575.385 233.327 561.034C233.702 557.494 233.257 557.423 232.553 560.917C229.669 575.057 225.846 595.481 221.179 618.109C216.535 640.76 211.868 660.973 207.764 674.761C206.779 678.184 207.202 678.348 208.515 675.019C213.909 661.606 219.443 641.417 224.087 618.718Z" fill="#49755E"/>
<path d="M241.533 667.187C249.178 656.072 254.83 645.309 258.043 637.571C258.817 635.648 258.418 635.461 257.339 637.219C252.93 644.301 246.622 654.525 239.07 665.499C231.565 676.519 224.108 685.875 218.784 692.3C217.494 693.895 217.799 694.223 219.347 692.863C225.679 687.353 233.934 678.325 241.533 667.187Z" fill="#49755E"/>
</g>
<path d="M355.675 713.803C355.675 713.803 291.98 663.81 299.695 609.198C300.751 601.671 310.647 598.576 315.267 604.602C324.953 617.147 346.037 650.914 356.379 673.987C356.379 673.987 323.569 612.856 329.503 555.759C330.417 546.989 342.073 544.527 346.295 552.265C355.23 568.632 365.877 598.107 367.612 647.091C367.612 647.091 367.612 583.756 397.186 538.5C401.454 531.958 411.374 533.506 413.438 541.056C418.55 559.909 416.229 590.299 392.823 659.66C392.823 659.66 404.385 642.308 424.882 621.884C431.426 615.365 442.401 621.814 439.868 630.677C434.029 650.96 420.567 681.28 389.423 713.803H355.675Z" fill="url(#paint1_linear_156_18)"/>
<g opacity="0.35">
<path d="M329.597 664.912C338.603 679.239 348.875 690.565 356.755 697.483C358.724 699.171 359.029 698.819 357.317 696.92C350.422 689.111 340.971 677.434 332.13 663.318C323.171 649.272 317.074 635.554 313.415 625.8C312.454 623.408 312.008 623.525 312.665 626.034C315.033 636.235 320.498 650.632 329.597 664.912Z" fill="#49755E"/>
<path d="M354.691 629.036C349.227 606.08 344.466 585.421 340.948 571.141C340.08 567.624 339.635 567.694 340.174 571.305C342.379 585.867 346.319 606.736 351.783 629.739C357.247 652.742 363.274 673.166 368.457 686.954C369.7 690.378 370.146 690.214 369.208 686.72C365.315 672.533 360.132 651.992 354.691 629.036Z" fill="#49755E"/>
<path d="M392.638 618.718C397.305 595.997 400.33 575.385 401.878 561.034C402.253 557.494 401.808 557.423 401.104 560.917C398.219 575.057 394.397 595.481 389.73 618.109C385.086 640.76 380.419 660.973 376.315 674.761C375.33 678.184 375.752 678.348 377.066 675.019C382.46 661.606 387.994 641.417 392.638 618.718Z" fill="#49755E"/>
<path d="M410.083 667.187C417.729 656.072 423.381 645.309 426.594 637.571C427.367 635.648 426.969 635.461 425.89 637.219C421.481 644.301 415.172 654.525 407.621 665.499C400.116 676.519 392.658 685.875 387.335 692.3C386.045 693.895 386.35 694.223 387.898 692.863C394.23 687.353 402.485 678.325 410.083 667.187Z" fill="#49755E"/>
</g>
<path d="M800.022 713.803C800.022 713.803 738.93 665.85 746.317 613.466C747.325 606.244 756.824 603.289 761.256 609.058C770.543 621.087 790.759 653.469 800.679 675.605C800.679 675.605 769.23 616.983 774.905 562.23C775.773 553.836 786.959 551.467 791.017 558.877C799.577 574.564 809.802 602.844 811.467 649.811C811.467 649.811 811.467 589.056 839.821 545.676C843.925 539.391 853.446 540.892 855.393 548.114C860.318 566.193 858.066 595.34 835.623 661.864C835.623 661.864 846.715 645.216 866.368 625.636C872.63 619.398 883.183 625.565 880.721 634.054C875.139 653.493 862.194 682.593 832.339 713.78H800.022V713.803Z" fill="url(#paint2_linear_156_18)"/>
<g opacity="0.35">
<path d="M774.999 666.906C783.63 680.647 793.503 691.527 801.055 698.139C802.954 699.757 803.236 699.429 801.594 697.6C794.98 690.096 785.905 678.911 777.438 665.382C768.855 651.922 763.015 638.744 759.474 629.411C758.559 627.113 758.137 627.23 758.747 629.622C761.045 639.4 766.275 653.235 774.999 666.906Z" fill="#49755E"/>
<path d="M799.061 632.506C793.832 610.488 789.258 590.674 785.881 576.98C785.06 573.603 784.615 573.674 785.131 577.121C787.241 591.073 791.017 611.098 796.271 633.163C801.5 655.228 807.293 674.808 812.265 688.033C813.461 691.316 813.883 691.175 812.992 687.799C809.263 674.222 804.291 654.525 799.061 632.506Z" fill="#49755E"/>
<path d="M835.459 622.611C839.938 600.827 842.823 581.06 844.324 567.295C844.675 563.895 844.253 563.825 843.573 567.178C840.806 580.732 837.124 600.335 832.668 622.048C828.212 643.762 823.733 663.154 819.793 676.402C818.855 679.685 819.253 679.826 820.496 676.66C825.703 663.74 831.003 644.371 835.459 622.611Z" fill="#49755E"/>
<path d="M852.181 669.086C859.522 658.441 864.939 648.123 868.011 640.69C868.762 638.838 868.363 638.673 867.331 640.338C863.11 647.138 857.059 656.916 849.812 667.445C842.613 677.997 835.483 687.001 830.347 693.145C829.104 694.669 829.409 694.997 830.887 693.684C836.984 688.432 844.887 679.779 852.181 669.086Z" fill="#49755E"/>
</g>
<path d="M712.521 524.361C712.521 524.361 665.125 473.219 679.079 427.846C681.002 421.585 689.82 420.295 692.962 426.04C699.482 438.022 712.85 469.584 718.525 490.594C718.525 490.594 698.919 434.177 711.677 386.435C713.647 379.096 723.896 378.603 726.428 385.755C731.799 400.88 736.865 427.4 731.729 469.28C731.729 469.28 740.312 415.418 771.574 380.948C776.1 375.954 784.332 378.627 785.035 385.31C786.841 402.052 780.744 427.564 751.452 483.372C751.452 483.372 763.624 470.171 783.816 455.609C790.265 450.966 798.731 457.907 795.354 465.106C787.662 481.543 762.568 518.029 727.648 531.043L712.521 524.361Z" fill="url(#paint3_linear_156_18)"/>
<g opacity="0.35">
<path d="M696.972 479.269C702.671 492.681 709.894 503.702 715.663 510.643C717.117 512.355 717.422 512.097 716.202 510.245C711.395 502.671 704.945 491.462 699.317 478.26C693.595 465.106 690.288 452.608 688.482 443.838C687.99 441.68 687.591 441.704 687.802 443.932C688.482 452.912 691.156 465.903 696.972 479.269Z" fill="#49755E"/>
<path d="M723.144 452.162C721.62 431.902 720.353 413.706 719.298 401.067C719.04 397.948 718.642 397.972 718.618 401.091C718.524 413.753 719.04 432.043 720.588 452.349C722.112 472.656 724.481 490.829 727.014 503.257C727.624 506.328 727.999 506.258 727.694 503.163C726.31 490.571 724.669 472.422 723.144 452.162Z" fill="#49755E"/>
<path d="M756.822 448.504C763.881 429.815 769.228 412.698 772.488 400.715C773.285 397.761 772.91 397.644 771.831 400.504C767.469 412.135 761.442 428.971 754.406 447.613C747.394 466.231 740.687 482.809 735.316 493.971C734.026 496.738 734.355 496.949 735.926 494.299C742.352 483.607 749.81 467.193 756.822 448.504Z" fill="#49755E"/>
<path d="M765.076 492.095C773.073 483.677 779.335 475.306 783.134 469.162C784.049 467.638 783.744 467.404 782.595 468.764C777.881 474.204 771.15 482.012 763.223 490.336C755.343 498.684 747.745 505.649 742.351 510.385C741.037 511.581 741.249 511.886 742.749 510.924C748.87 507.079 757.126 500.537 765.076 492.095Z" fill="#49755E"/>
</g>
<path d="M420.145 480.066C420.145 480.066 459.263 437.858 447.748 400.387C446.153 395.229 438.883 394.15 436.303 398.887C430.909 408.759 419.887 434.81 415.197 452.162C415.197 452.162 431.378 405.593 420.848 366.199C419.23 360.149 410.764 359.727 408.677 365.636C404.244 378.111 400.046 400.012 404.315 434.576C404.315 434.576 397.232 390.117 371.435 361.673C367.706 357.546 360.905 359.751 360.319 365.285C358.841 379.096 363.86 400.153 388.039 446.206C388.039 446.206 378.002 435.326 361.327 423.273C356.003 419.428 349.015 425.173 351.806 431.105C358.161 444.682 378.869 474.79 407.692 485.53L420.145 480.066Z" fill="url(#paint4_linear_156_18)"/>
<g opacity="0.35">
<path d="M432.973 442.83C428.259 453.897 422.302 462.995 417.541 468.717C416.345 470.124 416.087 469.913 417.095 468.389C421.059 462.128 426.382 452.889 431.026 442.009C435.74 431.152 438.484 420.835 439.985 413.589C440.383 411.807 440.712 411.83 440.548 413.659C439.985 421.069 437.78 431.809 432.973 442.83Z" fill="#49755E"/>
<path d="M411.372 420.459C412.638 403.74 413.67 388.71 414.538 378.299C414.749 375.719 415.077 375.743 415.101 378.322C415.171 388.78 414.749 403.881 413.483 420.624C412.216 437.366 410.27 452.373 408.182 462.644C407.69 465.176 407.362 465.129 407.62 462.55C408.769 452.162 410.105 437.178 411.372 420.459Z" fill="#49755E"/>
<path d="M383.558 417.458C377.742 402.029 373.333 387.913 370.636 378.017C369.98 375.579 370.284 375.485 371.176 377.853C374.764 387.444 379.759 401.349 385.552 416.731C391.344 432.114 396.879 445.784 401.312 454.999C402.39 457.297 402.109 457.462 400.819 455.257C395.519 446.417 389.374 432.864 383.558 417.458Z" fill="#49755E"/>
<path d="M376.758 453.428C370.144 446.488 364.985 439.57 361.866 434.505C361.092 433.239 361.373 433.051 362.311 434.177C366.204 438.656 371.762 445.128 378.282 451.975C384.778 458.869 391.063 464.613 395.519 468.506C396.622 469.491 396.434 469.749 395.191 468.951C390.125 465.786 383.324 460.393 376.758 453.428Z" fill="#49755E"/>
</g>
<path opacity="0.17" d="M531.895 755.8C644.799 755.8 736.327 747.327 736.327 736.877C736.327 726.426 644.799 717.953 531.895 717.953C418.99 717.953 327.463 726.426 327.463 736.877C327.463 747.327 418.99 755.8 531.895 755.8Z" fill="#606060"/>
<path d="M418.927 446.206V445.667C418.927 443.697 417.332 442.103 415.362 442.103H389.049C387.079 442.103 385.484 443.697 385.484 445.667V446.206C385.484 448.176 387.079 449.77 389.049 449.77H415.362C417.332 449.77 418.927 448.176 418.927 446.206Z" fill="#41ABC4"/>
<path d="M337.43 704.705H337.969C339.939 704.705 341.534 703.111 341.534 701.141V674.831C341.534 672.862 339.939 671.267 337.969 671.267H337.43C335.46 671.267 333.865 672.862 333.865 674.831V701.141C333.865 703.111 335.46 704.705 337.43 704.705Z" fill="#41ABC4"/>
<path d="M456.261 446.206V445.667C456.261 443.697 454.666 442.103 452.696 442.103H426.383C424.413 442.103 422.818 443.697 422.818 445.667V446.206C422.818 448.176 424.413 449.77 426.383 449.77H452.696C454.666 449.77 456.261 448.176 456.261 446.206Z" fill="#41ABC4"/>
<path d="M355.3 736.243H710.083C719.792 736.243 727.672 728.365 727.672 718.657V463.535C727.672 453.827 719.792 445.948 710.083 445.948H355.3C345.591 445.948 337.711 453.827 337.711 463.535V718.657C337.711 728.365 345.591 736.243 355.3 736.243Z" fill="#4C2A6E"/>
<path opacity="0.16" d="M727.649 463.535C727.649 453.827 719.769 445.948 710.06 445.948H355.3C345.591 445.948 337.711 453.827 337.711 463.535V661.301L727.649 496.574V463.535Z" fill="white"/>
<path d="M359.711 718.516H687.571V464.309H359.711V718.516Z" fill="url(#paint5_linear_156_18)"/>
<path d="M706.66 601.202C712.074 601.202 716.463 596.814 716.463 591.401C716.463 585.987 712.074 581.599 706.66 581.599C701.246 581.599 696.857 585.987 696.857 591.401C696.857 596.814 701.246 601.202 706.66 601.202Z" fill="white"/>
<path d="M348.615 593.91C350.169 593.91 351.429 592.65 351.429 591.096C351.429 589.542 350.169 588.282 348.615 588.282C347.061 588.282 345.801 589.542 345.801 591.096C345.801 592.65 347.061 593.91 348.615 593.91Z" fill="#41ABC4"/>
<path d="M473.919 615.482C490.187 615.482 503.375 602.296 503.375 586.031C503.375 569.765 490.187 556.579 473.919 556.579C457.651 556.579 444.463 569.765 444.463 586.031C444.463 602.296 457.651 615.482 473.919 615.482Z" fill="#FFB6D7"/>
<mask id="mask0_156_18" style="mask-type:luminance" maskUnits="userSpaceOnUse" x="444" y="556" width="60" height="60">
<path d="M473.919 615.482C490.187 615.482 503.375 602.296 503.375 586.031C503.375 569.765 490.187 556.579 473.919 556.579C457.651 556.579 444.463 569.765 444.463 586.031C444.463 602.296 457.651 615.482 473.919 615.482Z" fill="white"/>
</mask>
<g mask="url(#mask0_156_18)">
<path d="M482.644 601.343C484.238 601.179 486.138 600.804 486.677 599.279C487.381 597.216 484.801 595.34 484.942 593.159C485.036 591.588 486.49 590.486 487.264 589.103C488.155 587.532 488.108 585.492 487.146 583.967C486.56 583.053 485.669 582.232 485.599 581.154C485.552 580.403 485.927 579.7 486.185 578.973C487.146 576.206 485.997 572.853 483.535 571.282C481.072 569.711 478.188 570.766 476.265 568.562C472.067 563.731 468.83 567.928 467.259 568.351C466.11 568.655 463.225 570.18 463.741 572.97C463.905 573.884 464.421 574.775 464.14 575.643C463.835 576.558 462.874 577.027 462.1 577.613C460.341 578.973 459.567 581.505 460.247 583.616C460.927 585.679 462.827 587.367 462.85 589.548C462.874 592.221 460.012 594.496 460.599 597.099C460.904 598.435 462.029 599.373 463.038 600.288C464.89 601.976 466.556 603.852 467.986 605.915L482.644 601.343Z" fill="url(#paint6_linear_156_18)"/>
<path d="M487.967 612.012C487.967 612.012 489.257 614.732 487.404 620.899C485.317 627.817 487.685 632.975 487.685 632.975C483.769 633.257 481.095 633.702 476.428 633.702C470.307 633.702 466.133 633.444 461.442 632.975C461.442 632.975 464.515 627.817 461.63 620.055C459.895 615.436 460.457 612.2 460.457 612.2C453.093 616.444 447.371 632.248 447.371 632.248L441.039 631.123C441.039 631.123 450.045 602.257 462.076 599.819C473.028 597.591 484.59 597.474 490.101 600.78C500.818 607.229 504.735 620.923 499.951 638.533L495.401 637.032C495.354 637.009 496.996 620.876 487.967 612.012Z" fill="url(#paint7_linear_156_18)"/>
<path d="M481.893 583.029C481.893 583.029 482.549 581.2 483.581 582.443C484.613 583.686 482.291 586.265 481.518 585.421L481.893 583.029Z" fill="url(#paint8_linear_156_18)"/>
<path d="M466.837 583.029C466.837 583.029 466.18 581.2 465.149 582.443C464.117 583.686 466.438 586.265 467.212 585.421L466.837 583.029Z" fill="url(#paint9_linear_156_18)"/>
<path d="M480.674 598.271L478.727 589.83C478.727 589.83 473.638 588.54 469.932 591.025L468.596 598.646C468.596 598.646 469.323 607.299 475.209 607.299C481.213 607.299 480.674 598.271 480.674 598.271Z" fill="url(#paint10_linear_156_18)"/>
<path d="M482.619 576.745C482.619 576.745 483.815 593.675 474.575 593.675C465.03 593.675 466.062 576.745 466.062 576.745C466.062 576.745 473.426 573.486 482.619 576.745Z" fill="url(#paint11_linear_156_18)"/>
<path d="M478.164 583.827C478.164 584.296 478.539 584.671 479.008 584.671C479.477 584.671 479.853 584.296 479.853 583.827C479.853 583.358 479.477 582.982 479.008 582.982C478.539 582.959 478.164 583.358 478.164 583.827Z" fill="#2B2B2B"/>
<path d="M479.009 586.898C479.783 586.898 480.416 586.523 480.416 586.078C480.416 585.632 479.783 585.257 479.009 585.257C478.235 585.257 477.602 585.632 477.602 586.078C477.602 586.523 478.235 586.898 479.009 586.898Z" fill="#FF6969"/>
<path d="M477.764 582.045C477.764 582.045 479.804 581.435 481 582.795C481 582.795 479.054 582.068 477.646 582.701L477.764 582.045Z" fill="#2B2B2B"/>
<path d="M470.706 583.827C470.706 584.296 470.331 584.671 469.862 584.671C469.393 584.671 469.018 584.296 469.018 583.827C469.018 583.358 469.393 582.982 469.862 582.982C470.331 582.959 470.706 583.358 470.706 583.827Z" fill="#2B2B2B"/>
<path d="M469.862 586.898C469.088 586.898 468.455 586.523 468.455 586.078C468.455 585.632 469.088 585.257 469.862 585.257C470.636 585.257 471.269 585.632 471.269 586.078C471.269 586.523 470.636 586.898 469.862 586.898Z" fill="#FF6969"/>
<path d="M471.08 582.045C471.08 582.045 469.04 581.435 467.844 582.795C467.844 582.795 469.79 582.068 471.197 582.701L471.08 582.045Z" fill="#2B2B2B"/>
<path d="M471.832 587.696H477.179C477.179 587.696 477.249 589.337 474.295 589.337C472.137 589.337 471.832 587.696 471.832 587.696Z" fill="white"/>
<path d="M474.528 582.35C474.223 582.35 473.379 585.726 473.59 585.867C473.801 586.008 475.466 585.914 475.584 585.75C475.701 585.586 474.833 582.35 474.528 582.35Z" fill="#F2A181"/>
<path d="M466.32 582.115C466.649 582.49 467.352 582.162 467.634 581.716C467.892 581.271 467.915 580.731 467.985 580.239C468.032 579.723 468.173 579.184 468.572 578.856C469.017 578.504 469.674 578.527 470.213 578.691C470.776 578.832 471.316 579.067 471.902 579.043C472.723 578.996 473.403 578.41 473.942 577.777C474.083 577.589 474.247 577.402 474.482 577.331C474.74 577.261 475.021 577.355 475.255 577.472C476.475 578.011 477.765 578.551 479.078 578.433C479.641 578.387 480.227 578.199 480.79 578.269C481.353 578.34 481.939 578.832 481.869 579.395C481.799 579.793 481.447 580.098 481.259 580.474C481.048 580.919 481.142 581.482 481.494 581.834C481.846 582.185 482.408 582.303 482.854 582.091C482.854 582.091 484.355 581.74 484.496 580.122C484.636 578.504 483.886 575.878 483.886 575.878C482.737 575.08 471.175 572.876 465.453 575.878C465.406 575.854 464.796 580.403 466.32 582.115Z" fill="url(#paint12_linear_156_18)"/>
</g>
<path d="M531.378 569.898H511.678V586.031H531.378V569.898Z" fill="#4C2A6E"/>
<path d="M663.176 569.898H537.027V586.031H663.176V569.898Z" fill="#4C2A6E"/>
<path d="M663.176 593.722H539.654V597.31H663.176V593.722Z" fill="#A69FBC"/>
<path d="M663.176 603.031H539.654V606.619H663.176V603.031Z" fill="#A69FBC"/>
<path d="M663.176 612.364H539.654V615.951H663.176V612.364Z" fill="#A69FBC"/>
<path d="M663.176 621.673H539.654V625.261H663.176V621.673Z" fill="#A69FBC"/>
<path d="M440.359 505.086C440.359 521.359 427.155 534.537 410.903 534.537C394.627 534.537 381.447 521.336 381.447 505.086C381.447 488.812 394.651 475.634 410.903 475.634C427.179 475.634 440.359 488.812 440.359 505.086Z" fill="#A8E8EF"/>
<mask id="mask1_156_18" style="mask-type:luminance" maskUnits="userSpaceOnUse" x="381" y="475" width="60" height="60">
<path d="M440.359 505.086C440.359 521.359 427.155 534.537 410.903 534.537C394.627 534.537 381.447 521.336 381.447 505.086C381.447 488.812 394.651 475.634 410.903 475.634C427.179 475.634 440.359 488.812 440.359 505.086Z" fill="white"/>
</mask>
<g mask="url(#mask1_156_18)">
<path d="M402.437 498.801C406.799 497.793 419.58 498.801 419.58 498.801C419.58 498.801 419.627 495.073 422.371 490.594C423.848 488.179 423.473 483.864 420.026 483.208C416.578 482.575 413.459 483.841 410.879 481.308C408.3 478.753 399.529 480.793 400.42 485.248C401.311 489.703 398.52 489.07 396.597 492.001C394.697 494.932 398.731 499.669 402.437 498.801Z" fill="url(#paint13_linear_156_18)"/>
<path d="M426.405 554.422C411.794 560.776 391.391 554.422 391.391 554.422C391.484 549.826 392.633 531.043 392.633 531.043C368.22 530.832 356.986 514.488 356.986 514.488L359.871 510.408C374.153 520.515 383.3 519.53 395.542 515.356C406.025 511.768 409.894 511.604 425.373 514.864C431.048 516.06 436.559 519.366 441.203 514.512C443.853 511.745 445.072 501.92 445.072 501.92L449.927 503.116C449.927 503.116 452.413 518.381 445.448 524.548C438.342 530.832 426.616 529.308 426.616 529.308C426.616 529.308 427.249 547.293 426.405 554.422Z" fill="url(#paint14_linear_156_18)"/>
<path d="M418.406 498.004C418.406 498.004 419.063 496.152 420.118 497.418C421.174 498.684 418.782 501.334 418.008 500.466L418.406 498.004Z" fill="url(#paint15_linear_156_18)"/>
<path d="M402.998 498.004C402.998 498.004 402.341 496.152 401.286 497.418C400.231 498.684 402.623 501.334 403.397 500.466L402.998 498.004Z" fill="url(#paint16_linear_156_18)"/>
<path d="M416.859 513.222L414.936 504.898C414.936 504.898 409.73 503.585 405.954 506.117L404.289 512.917C404.289 512.917 408.745 522.742 410.691 522.742C412.568 522.789 416.859 513.222 416.859 513.222Z" fill="url(#paint17_linear_156_18)"/>
<path d="M418.946 491.579C418.594 501.732 419.79 508.884 410.949 508.884C401.685 508.884 402.717 503.491 402.459 491.579C402.412 490.477 418.993 490.055 418.946 491.579Z" fill="url(#paint18_linear_156_18)"/>
<path d="M407.034 498.801C407.034 499.27 406.636 499.669 406.167 499.669C405.698 499.669 405.299 499.27 405.299 498.801C405.299 498.332 405.698 497.934 406.167 497.934C406.636 497.934 407.034 498.332 407.034 498.801Z" fill="#2B2B2B"/>
<path d="M403.914 500.982C403.914 500.349 404.43 499.833 405.063 499.833C405.696 499.833 406.212 500.349 406.212 500.982C406.212 501.615 405.696 502.131 405.063 502.131C404.43 502.131 403.914 501.615 403.914 500.982Z" fill="#FF6969"/>
<path d="M407.408 496.855C407.408 496.855 405.157 496.456 403.938 497.84L404.149 498.121C404.149 498.121 406.119 497.277 407.549 497.91L407.408 496.855Z" fill="#2B2B2B"/>
<path d="M414.303 498.801C414.303 499.27 414.701 499.669 415.17 499.669C415.639 499.669 416.038 499.27 416.038 498.801C416.038 498.332 415.639 497.934 415.17 497.934C414.678 497.934 414.303 498.332 414.303 498.801Z" fill="#2B2B2B"/>
<path d="M417.421 500.982C417.421 500.349 416.905 499.833 416.272 499.833C415.639 499.833 415.123 500.349 415.123 500.982C415.123 501.615 415.639 502.131 416.272 502.131C416.905 502.131 417.421 501.615 417.421 500.982Z" fill="#FF6969"/>
<path d="M413.928 496.855C413.928 496.855 416.179 496.456 417.399 497.84L417.188 498.121C417.188 498.121 415.218 497.277 413.787 497.91L413.928 496.855Z" fill="#2B2B2B"/>
<path d="M408.111 502.764H413.576C413.576 502.764 413.646 504.757 410.621 504.757C408.416 504.757 408.111 502.764 408.111 502.764Z" fill="white"/>
<path d="M410.854 496.925C410.455 496.925 409.424 501.076 409.681 501.263C409.939 501.451 412.003 501.334 412.144 501.099C412.308 500.912 411.229 496.925 410.854 496.925Z" fill="#F2A181"/>
<path d="M402.531 497.23C402.531 497.23 403.234 497.254 403.398 496.808C403.398 496.808 403.234 493.385 403.914 493.15C404.595 492.916 407.573 494.651 409.637 493.103C411.067 492.048 414.304 491.767 416.274 492.634C417.657 493.244 418.971 492.329 419.205 491.415L418.947 489.773C418.947 489.773 407.761 487.358 401.663 490.805C401.64 490.829 402.062 495.706 402.531 497.23Z" fill="url(#paint19_linear_156_18)"/>
</g>
<path d="M468.362 488.531H448.662V504.664H468.362V488.531Z" fill="#4C2A6E"/>
<path d="M600.162 488.531H474.014V504.664H600.162V488.531Z" fill="#4C2A6E"/>
<path d="M600.163 512.331H476.641V515.919H600.163V512.331Z" fill="#A69FBC"/>
<path d="M600.163 521.664H476.641V525.251H600.163V521.664Z" fill="#A69FBC"/>
<path d="M600.163 530.997H476.641V534.584H600.163V530.997Z" fill="#A69FBC"/>
<path d="M600.163 540.306H476.641V543.893H600.163V540.306Z" fill="#A69FBC"/>
<path d="M503.375 666.976C503.375 683.249 490.171 696.427 473.919 696.427C457.643 696.427 444.463 683.226 444.463 666.976C444.463 650.702 457.666 637.524 473.919 637.524C490.194 637.524 503.375 650.702 503.375 666.976Z" fill="#A8E8EF"/>
<mask id="mask2_156_18" style="mask-type:luminance" maskUnits="userSpaceOnUse" x="444" y="637" width="60" height="60">
<path d="M503.375 666.976C503.375 683.249 490.171 696.427 473.919 696.427C457.643 696.427 444.463 683.226 444.463 666.976C444.463 650.702 457.666 637.524 473.919 637.524C490.194 637.524 503.375 650.702 503.375 666.976Z" fill="white"/>
</mask>
<g mask="url(#mask2_156_18)">
<path d="M491.109 694.387C491.109 694.387 490.64 708.597 490.828 718.328C476.217 724.683 455.814 718.328 455.814 718.328C455.861 709.254 457.057 694.95 457.057 694.95C450.373 707.565 455.228 720.462 455.228 720.462L451.241 723.511C438.694 706.932 446.762 682.921 461.161 678.794C470.636 676.074 476.569 676.426 485.598 678.348C495.472 680.459 501.616 689.674 502.249 700.179C503.187 715.632 495.964 723.511 495.964 723.511L491.977 720.462C492.001 720.462 495.518 709.136 491.109 694.387Z" fill="url(#paint20_linear_156_18)"/>
<path d="M481.377 677.434L479.383 668.805C479.383 668.805 474.177 667.492 470.401 670.024L469.041 677.809C469.041 677.809 470.401 684.515 475.631 684.515C480.251 684.515 481.377 677.434 481.377 677.434Z" fill="url(#paint21_linear_156_18)"/>
<path d="M466.32 663.06L483.393 662.614C490.522 658.675 486.465 654.712 485.199 654.642C486.488 654.243 488.06 650.421 486.676 649.084C484.307 646.81 481.001 648.873 481.001 648.873C481.001 648.873 483.393 643.855 479.265 643.48C475.419 643.128 473.965 646.951 473.965 646.951C473.965 646.951 473.824 644.019 470.752 644.418C467.68 644.84 468.407 648.967 468.407 648.967C468.407 648.967 466.883 645.778 464.795 647.631C463.529 648.756 464.514 651.242 464.514 651.242C462.778 651.148 461.043 651.828 461.043 654.243C461.066 656.002 463.06 657.76 463.06 657.76C461.16 659.12 461.934 661.395 463.06 662.122C464.303 662.919 466.32 663.06 466.32 663.06Z" fill="url(#paint22_linear_156_18)"/>
<path d="M482.572 662.122C482.572 662.122 483.182 660.246 484.284 661.489C485.387 662.732 483.065 665.428 482.244 664.608L482.572 662.122Z" fill="url(#paint23_linear_156_18)"/>
<path d="M467.164 662.544C467.164 662.544 466.46 660.715 465.428 662.005C464.397 663.294 466.859 665.874 467.633 665.006L467.164 662.544Z" fill="url(#paint24_linear_156_18)"/>
<path d="M482.923 655.697C482.852 665.874 484.212 672.979 475.394 673.213C466.131 673.471 467.022 668.031 466.459 656.143C466.389 655.017 482.946 654.173 482.923 655.697Z" fill="url(#paint25_linear_156_18)"/>
<path d="M471.244 664.068C471.268 664.537 470.869 664.936 470.4 664.959C469.931 664.983 469.532 664.584 469.509 664.115C469.485 663.646 469.884 663.248 470.353 663.224C470.846 663.201 471.244 663.599 471.244 664.068Z" fill="#2B2B2B"/>
<path d="M468.171 666.343C468.147 665.71 468.64 665.194 469.273 665.171C469.906 665.147 470.422 665.64 470.446 666.273C470.469 666.906 469.977 667.422 469.343 667.445C468.734 667.469 468.194 666.976 468.171 666.343Z" fill="#FF6969"/>
<path d="M471.572 662.122C471.572 662.122 469.321 661.77 468.125 663.201L468.36 663.482C468.36 663.482 470.306 662.568 471.76 663.201L471.572 662.122Z" fill="#2B2B2B"/>
<path d="M478.515 663.881C478.538 664.35 478.937 664.748 479.406 664.725C479.875 664.702 480.274 664.303 480.25 663.834C480.227 663.365 479.828 662.966 479.359 662.99C478.866 662.99 478.491 663.388 478.515 663.881Z" fill="#2B2B2B"/>
<path d="M481.68 665.968C481.657 665.335 481.141 664.842 480.507 664.866C479.874 664.889 479.382 665.405 479.405 666.038C479.429 666.671 479.944 667.164 480.578 667.14C481.211 667.14 481.703 666.601 481.68 665.968Z" fill="#FF6969"/>
<path d="M478.068 661.935C478.068 661.935 480.296 661.466 481.563 662.826L481.352 663.107C481.352 663.107 479.358 662.31 477.951 662.99L478.068 661.935Z" fill="#2B2B2B"/>
<path d="M473.072 668.078L477.27 667.961C477.27 667.961 477.341 668.782 475.019 668.852C473.33 668.899 473.072 668.078 473.072 668.078Z" fill="white"/>
<path d="M475.018 662.099C474.62 662.099 473.705 666.296 473.963 666.46C474.221 666.648 476.285 666.46 476.426 666.249C476.566 666.038 475.394 662.099 475.018 662.099Z" fill="#F2A181"/>
<path d="M483.72 659.707L483.533 653.868L465.592 654.712C465.592 654.712 465.944 660.715 466.624 661.77C466.999 662.356 467.749 660.973 467.984 660.316C468.218 659.66 468.218 658.956 468.242 658.276C468.594 658.745 469.227 658.956 469.79 658.816C470.353 658.651 470.798 658.136 470.869 657.573C471.173 658.37 472.885 658.558 473.73 658.37C474.949 658.089 475.395 656.799 475.395 656.799C475.793 657.643 477.154 658.042 478.068 657.948C479.78 657.784 480.109 656.752 480.109 656.752C480.109 656.752 480.038 658.44 482.243 657.854C482.243 657.854 482.102 661.794 482.829 661.489C483.767 661.114 483.767 659.988 483.72 659.707Z" fill="url(#paint26_linear_156_18)"/>
</g>
<path d="M531.378 650.843H511.678V666.976H531.378V650.843Z" fill="#4C2A6E"/>
<path d="M663.178 650.843H537.029V666.976H663.178V650.843Z" fill="#4C2A6E"/>
<path d="M663.178 674.667H539.656V678.255H663.178V674.667Z" fill="#A69FBC"/>
<path d="M663.178 683.976H539.656V687.564H663.178V683.976Z" fill="#A69FBC"/>
<path d="M663.178 693.309H539.656V696.896H663.178V693.309Z" fill="#A69FBC"/>
<path d="M663.178 702.618H539.656V706.206H663.178V702.618Z" fill="#A69FBC"/>
<path d="M415.736 686.087C411.655 678.442 402.063 674.573 398.944 666.483C395.989 658.886 399.789 650.538 402.908 643.011C407.012 633.092 409.943 621.204 404.315 612.059C399.437 604.086 388.696 599.256 387.992 589.947C387.406 582.467 393.972 575.737 393.081 568.28C392.401 562.559 387.429 558.221 382.176 555.852C376.923 553.461 371.13 552.429 365.9 549.967C363.696 548.935 361.655 547.598 359.756 546.074V718.493H409.24C411.139 716.007 412.734 713.217 414.047 710.38C417.542 702.759 419.699 693.52 415.736 686.087Z" fill="#DAEFDA"/>
<path d="M688.086 561.644V464.309H625.024C624.437 470.382 623.194 477.299 626.102 482.481C634.217 496.926 652.955 487.195 651.478 506.634C650.024 526.073 654.925 537.562 670.474 539.485C686.093 541.408 673.476 556.837 688.086 561.644Z" fill="#DAEFDA"/>
<path d="M659.402 518.006L667.516 522.625C674.998 515.145 687.849 487.992 688.084 472C688.248 461.096 673.989 449.676 673.989 449.676C657.104 442.782 644.533 452.561 644.533 452.561C644.533 452.561 658.159 459.478 662.216 470.593C669.017 489.234 659.402 518.006 659.402 518.006Z" fill="url(#paint27_linear_156_18)"/>
<path d="M667.517 522.626C667.517 522.626 673.052 525.885 675.186 533.764L655.346 524.033C655.346 524.033 656.12 520.257 659.403 518.006L667.517 522.626Z" fill="#499AAD"/>
<path d="M667.519 522.625L659.404 518.006C659.404 518.006 659.826 516.716 660.436 514.536L670.521 518.967C669.465 520.468 668.457 521.688 667.519 522.625Z" fill="url(#paint28_linear_156_18)"/>
<path d="M638.812 518.006L630.698 522.626C623.217 515.145 610.365 487.992 610.13 472C609.966 461.096 623.428 449.043 623.428 449.043C640.313 442.149 653.681 452.537 653.681 452.537C653.681 452.537 640.055 459.455 635.998 470.569C629.22 489.234 638.812 518.006 638.812 518.006Z" fill="url(#paint29_linear_156_18)"/>
<path d="M630.722 522.626C630.722 522.626 625.187 525.885 623.053 533.764L642.893 524.032C642.893 524.032 642.119 520.257 638.836 518.006L630.722 522.626Z" fill="#499AAD"/>
<path d="M630.721 522.625L638.835 518.006C638.835 518.006 638.413 516.716 637.803 514.536L627.719 518.967C628.774 520.468 629.783 521.688 630.721 522.625Z" fill="url(#paint30_linear_156_18)"/>
<path d="M673.521 416.473C673.521 416.473 673.756 435.889 674.014 449.653C652.227 458.986 623.451 449.02 623.451 449.02C623.522 436.17 625.351 417.27 625.351 417.27C613.25 434.693 638.554 444.025 638.554 444.025L636.631 449.512C636.631 449.512 605.698 444.776 608.137 421.655C609.427 409.274 620.121 397.573 631.167 394.384C644.582 390.539 651.242 390.68 664 393.4C677.977 396.378 689.657 409.767 689.305 424.633C688.789 446.652 661.772 450.38 661.772 450.38L661.186 445.151C661.162 445.174 684.544 435.584 673.521 416.473Z" fill="url(#paint31_linear_156_18)"/>
<path d="M659.732 392.485L656.894 380.268C656.894 380.268 649.53 378.416 644.183 382.004L642.26 393.025C642.26 393.025 644.183 402.498 651.57 402.498C658.137 402.521 659.732 392.485 659.732 392.485Z" fill="url(#paint32_linear_156_18)"/>
<path d="M638.648 378.275L662.804 378.557C673.099 373.351 667.588 367.536 665.782 367.372C667.635 366.879 668.714 361.744 666.838 359.774C663.625 356.444 660.435 358.18 660.435 358.18C660.435 358.18 662.804 353.889 657.082 352.364C651.805 350.957 650.327 355.858 650.327 355.858C650.327 355.858 650.28 351.684 645.918 352.106C641.556 352.528 642.354 358.414 642.354 358.414C642.354 358.414 640.384 353.818 637.335 356.351C635.482 357.875 636.749 361.439 636.749 361.439C634.286 361.204 631.8 362.096 631.683 365.472C631.613 367.958 634.356 370.561 634.356 370.561C631.613 372.366 632.574 375.625 634.099 376.728C635.811 377.947 638.648 378.275 638.648 378.275Z" fill="url(#paint33_linear_156_18)"/>
<path d="M661.702 378.979C661.702 378.979 662.663 376.353 664.141 378.158C665.618 379.964 662.194 383.669 661.092 382.449L661.702 378.979Z" fill="url(#paint34_linear_156_18)"/>
<path d="M639.892 378.721C639.892 378.721 638.977 376.071 637.453 377.853C635.928 379.612 639.259 383.411 640.408 382.215L639.892 378.721Z" fill="url(#paint35_linear_156_18)"/>
<path d="M662.546 367.583C661.889 381.957 663.437 392.086 650.937 391.922C637.827 391.758 639.399 384.137 639.211 367.301C639.211 365.73 662.663 365.425 662.546 367.583Z" fill="url(#paint36_linear_156_18)"/>
<path d="M645.589 381.112C645.589 381.792 645.027 382.332 644.346 382.332C643.666 382.332 643.127 381.769 643.127 381.089C643.127 380.409 643.69 379.87 644.37 379.87C645.05 379.87 645.589 380.432 645.589 381.112Z" fill="#2B2B2B"/>
<path d="M641.133 384.138C641.133 383.246 641.884 382.543 642.775 382.543C643.666 382.543 644.37 383.293 644.37 384.184C644.37 385.075 643.619 385.779 642.728 385.779C641.837 385.779 641.11 385.029 641.133 384.138Z" fill="#FF6969"/>
<path d="M646.151 378.369C646.151 378.369 642.985 377.759 641.227 379.706L641.531 380.104C641.531 380.104 644.346 378.932 646.363 379.87L646.151 378.369Z" fill="#2B2B2B"/>
<path d="M655.861 381.23C655.861 381.91 656.401 382.472 657.081 382.472C657.761 382.472 658.324 381.933 658.324 381.253C658.324 380.573 657.784 380.01 657.104 380.01C656.424 380.01 655.861 380.55 655.861 381.23Z" fill="#2B2B2B"/>
<path d="M660.246 384.372C660.246 383.481 659.543 382.754 658.651 382.731C657.76 382.707 657.033 383.434 657.01 384.325C657.01 385.216 657.713 385.943 658.604 385.966C659.496 385.99 660.223 385.263 660.246 384.372Z" fill="#FF6969"/>
<path d="M655.346 378.463C655.346 378.463 658.535 377.923 660.247 379.917L659.919 380.315C659.919 380.315 657.152 379.072 655.111 379.963L655.346 378.463Z" fill="#2B2B2B"/>
<path d="M647.957 386.857L653.89 386.928C653.89 386.928 653.937 388.1 650.677 388.053C648.262 388.03 647.957 386.857 647.957 386.857Z" fill="white"/>
<path d="M651.008 378.533C650.468 378.533 648.92 384.395 649.272 384.653C649.624 384.935 652.555 384.794 652.766 384.489C653.001 384.161 651.57 378.533 651.008 378.533Z" fill="#F2A181"/>
<path d="M663.461 374.711L663.508 367.254C663.508 367.254 659.287 363.268 651.031 363.268C642.776 363.268 638.109 367.419 638.109 367.419C638.109 367.419 638.274 375.11 639.188 376.47C639.681 377.22 640.83 375.508 641.182 374.688C641.533 373.867 641.58 372.976 641.651 372.085C642.12 372.694 643.011 372.999 643.808 372.835C644.606 372.671 645.262 372.038 645.38 371.288C645.778 372.343 648.17 372.648 649.366 372.46C651.078 372.155 651.805 370.537 651.805 370.537C652.321 371.616 654.221 372.226 655.511 372.155C657.95 372.014 658.466 370.725 658.466 370.725C658.466 370.725 658.278 372.882 661.421 372.249C661.421 372.249 661.022 377.267 662.077 376.915C663.438 376.493 663.508 375.086 663.461 374.711Z" fill="url(#paint37_linear_156_18)"/>
<path d="M608.137 421.679C605.721 444.799 636.631 449.536 636.631 449.536L638.554 444.049C638.554 444.049 615.97 435.725 623.709 420.108L612.686 409.11C610.247 412.956 608.582 417.271 608.137 421.679Z" fill="url(#paint38_linear_156_18)"/>
<path d="M675.116 419.779C681.823 436.686 661.162 445.174 661.162 445.174L661.748 450.403C661.748 450.403 688.765 446.652 689.281 424.657C689.398 419.475 688.038 414.48 685.646 410.025L675.116 419.779Z" fill="url(#paint39_linear_156_18)"/>
<path d="M671.997 425.126H626.453V456.524H671.997V425.126Z" fill="#5B5B5B"/>
<path d="M671.997 456.524H626.453V458.095H671.997V456.524Z" fill="#494949"/>
<path d="M649.225 444.682C651.362 444.682 653.095 442.95 653.095 440.813C653.095 438.676 651.362 436.944 649.225 436.944C647.088 436.944 645.355 438.676 645.355 440.813C645.355 442.95 647.088 444.682 649.225 444.682Z" fill="#B6D6DD"/>
<path opacity="0.17" d="M280.675 773.55C307.836 773.55 329.854 770.17 329.854 766C329.854 761.83 307.836 758.449 280.675 758.449C253.514 758.449 231.496 761.83 231.496 766C231.496 770.17 253.514 773.55 280.675 773.55Z" fill="#606060"/>
<path d="M288.085 647.842C280.44 648.428 262.475 645.755 254.22 650.398C254.22 650.398 241.884 696.029 253.306 760.443C253.306 760.443 244.066 761.568 239.211 766.938H264.961C264.985 766.938 263.883 692.77 288.085 647.842Z" fill="url(#paint40_linear_156_18)"/>
<path d="M239.234 766.938C244.089 761.545 253.329 760.442 253.329 760.442H264.774C265.36 763.702 265.008 766.938 265.008 766.938H239.234Z" fill="#E0924B"/>
<path d="M288.085 647.842C280.439 648.428 262.475 645.755 254.22 650.398C254.22 650.398 242.893 692.605 252.016 752.634H265.266C266.321 729.49 270.59 680.342 288.085 647.842Z" fill="url(#paint41_linear_156_18)"/>
<path d="M274.6 647.842C282.245 648.428 300.209 645.755 308.464 650.398C308.464 650.398 320.8 696.029 309.379 760.443C309.379 760.443 318.619 761.568 323.474 766.938H297.723C297.723 766.938 298.826 692.77 274.6 647.842Z" fill="url(#paint42_linear_156_18)"/>
<path d="M323.474 766.938C318.62 761.545 309.379 760.442 309.379 760.442H297.935C297.349 763.702 297.7 766.938 297.7 766.938H323.474Z" fill="#E0924B"/>
<path d="M274.6 647.842C282.245 648.428 300.209 645.755 308.464 650.398C308.464 650.398 319.792 692.605 310.669 752.634H297.418C296.387 729.49 292.118 680.342 274.6 647.842Z" fill="url(#paint43_linear_156_18)"/>
<path d="M254.244 650.398C276.875 660.246 308.489 650.398 308.489 650.398C308.325 643.293 306.542 614.193 306.542 614.193C327.626 628.966 310.576 653.587 310.576 653.587L315.923 658.699C348.475 621.72 320.965 596.325 302.016 589.83C285.787 584.272 269.277 583.428 255.792 589.056C241.58 594.988 240.876 608.518 230.487 608.331C221.786 608.19 217.471 594.121 217.471 594.121L210.436 595.973C210.436 595.973 212.406 618.719 224.155 625.214C237.054 632.319 253.845 611.449 253.845 611.449C253.845 611.449 252.907 639.307 254.244 650.398Z" fill="#4C2A6E"/>
<path d="M268.293 585.937L272.913 574.049C272.913 574.049 280.136 570.461 286.492 572.97L290.314 586.148C290.291 586.172 279.292 616.866 268.293 585.937Z" fill="url(#paint44_linear_156_18)"/>
<path d="M286.843 552.101L288.039 572.689C288.039 572.689 279.807 579.207 266.815 577.542L266.416 567.53L262.898 566.193L265.971 551.139L286.843 552.101Z" fill="url(#paint45_linear_156_18)"/>
<path d="M265.948 551.116C265.948 551.116 267.05 552.921 277.017 552.968L278.166 561.574L279.573 562.066L280.347 558.924C280.347 558.924 283.115 556.79 283.771 559.44C284.404 562.066 281.567 563.403 281.449 564.2C280.629 570.203 288.016 572.712 288.016 572.712C293.527 571.61 294.7 566.287 292.918 564.622C291.112 562.981 291.979 559.088 294.348 559.206C296.717 559.323 298.663 550.201 294.043 547.012C289.423 543.823 288.462 546.004 288.79 541.478C289.118 536.953 279.62 533.506 276.548 536.836C274.742 538.805 271.271 537.258 268.199 536.554C264.095 535.616 257.13 545.652 265.948 551.116Z" fill="url(#paint46_linear_156_18)"/>
<path d="M267.847 560.073C267.917 560.73 268.527 561.222 269.184 561.128C269.84 561.035 270.333 560.448 270.239 559.792C270.169 559.135 269.559 558.643 268.902 558.737C268.246 558.807 267.776 559.417 267.847 560.073Z" fill="#2B2B2B"/>
<path d="M272.278 565.091C273.333 564.974 274.084 564.013 273.943 562.981C273.826 561.926 272.864 561.175 271.832 561.316C270.777 561.433 270.027 562.395 270.167 563.426C270.285 564.482 271.246 565.232 272.278 565.091Z" fill="#FF6969"/>
<path d="M266.51 570.344L272.842 569.312L273.475 569.922C273.475 569.922 270.637 573.509 266.65 573.486L266.51 570.344Z" fill="white"/>
<path d="M267.211 557.025C267.211 557.025 269.58 556.767 271.526 558.432L271.503 558.877C271.503 558.877 268.806 557.986 266.953 558.385L267.211 557.025Z" fill="#2B2B2B"/>
<path d="M310.576 653.587L315.923 658.699C315.337 663.037 311.584 666.859 308.747 668.055L305.018 659.144C299.577 658.699 301.781 654.337 310.576 653.587Z" fill="url(#paint47_linear_156_18)"/>
<path d="M204.409 583.71C204.784 578.527 206.942 579.325 206.942 579.325L208.724 584.225L210.037 582.396C210.389 581.341 212.171 580.849 212.5 582.748C212.945 585.304 215.806 585.656 216.838 587.93C217.894 590.228 217.448 594.144 217.448 594.144L210.412 595.997C210.436 595.973 203.963 590.205 204.409 583.71Z" fill="url(#paint48_linear_156_18)"/>
<path d="M213.038 593.371C212.569 593.535 212.077 593.3 211.913 592.855L204.478 572.595C204.314 572.126 204.549 571.634 204.994 571.469C205.463 571.305 205.956 571.54 206.12 571.985L213.554 592.245C213.718 592.714 213.484 593.206 213.038 593.371Z" fill="#5B5B5B"/>
<path d="M868.995 750.688C830.393 739.151 760.6 750.688 760.6 750.688L782.387 725.504C826.43 719.97 869.933 740.089 869.933 740.089C869.933 740.089 873.944 732.187 882.152 729.983L873.779 751.626L868.995 750.688Z" fill="#C66698"/>
<path d="M874.272 734.532C871.388 737.275 869.934 740.065 869.934 740.065C869.934 740.065 862.992 736.853 851.876 733.359L847.701 746.678C854.948 747.428 861.843 748.624 867.987 750.383V750.359C877.204 740.816 874.272 734.532 874.272 734.532Z" fill="url(#paint49_linear_156_18)"/>
<path d="M874.272 734.532C874.272 734.532 877.203 740.816 868.01 750.383V750.406C868.338 750.5 868.69 750.594 869.018 750.688L873.802 751.626L882.175 729.983C878.845 730.85 876.218 732.679 874.272 734.532Z" fill="#8362B7"/>
<path d="M838.648 745.951C838.648 745.951 819.019 725.574 809.615 726.09C800.21 726.583 792.284 743.419 768.527 749.351C744.77 755.284 728.939 739.456 728.939 739.456C754.174 710.755 776.946 715.116 776.946 715.116C776.946 715.116 798.076 698.679 811.092 700.461C828.4 702.829 849.061 742.739 849.061 742.739C849.061 742.739 857.082 743.935 863.883 750.665H839.844C839.868 750.688 838.672 747.64 838.648 745.951Z" fill="url(#paint50_linear_156_18)"/>
<path d="M821.037 699.077C821.037 699.077 818.035 692.793 810.976 693.309C805.605 693.707 784.217 691.691 773.148 678.841C766.511 671.15 758.818 656.658 751.478 661.442C736 671.501 753.94 685.524 762.946 691.667C778.659 702.407 806.848 699.054 806.848 699.054H817.472H821.037V699.077Z" fill="url(#paint51_linear_156_18)"/>
<path d="M747.162 654.267C732.434 647.396 703.189 694.927 728.94 739.456C728.94 739.456 765.572 736.478 776.946 715.116C776.946 715.116 755.933 701.094 761.022 690.378C769.606 672.299 765.924 663.013 747.162 654.267Z" fill="url(#paint52_linear_156_18)"/>
<path d="M853.634 744.075C853.634 744.075 848.827 749.679 838.648 745.951C838.672 747.616 839.868 750.664 839.868 750.664H863.906C860.365 747.194 856.542 745.201 853.634 744.075Z" fill="#8362B7"/>
<path d="M853.634 744.075C850.937 743.02 849.061 742.739 849.061 742.739C849.061 742.739 845.121 735.141 839.258 726.372L826.617 735.001C833.16 740.277 838.625 745.951 838.625 745.951C848.85 749.68 853.634 744.075 853.634 744.075Z" fill="url(#paint53_linear_156_18)"/>
<path d="M834.402 702.477H792.704C791.766 702.477 790.992 701.703 790.992 700.765C790.992 699.828 791.766 699.054 792.704 699.054H837.803C837.826 700.953 836.302 702.477 834.402 702.477Z" fill="url(#paint54_linear_156_18)"/>
<path d="M847.912 660.715C849.459 660.715 850.538 662.239 850.046 663.717L837.827 699.101H833.066L845.801 662.239C846.082 661.301 846.95 660.715 847.912 660.715Z" fill="url(#paint55_linear_156_18)"/>
<path d="M810.388 699.077C810.388 699.077 807.386 692.793 800.327 693.309C794.957 693.707 773.569 691.691 762.499 678.841C755.862 671.15 748.17 656.658 740.829 661.442C725.351 671.501 743.292 685.524 752.298 691.667C768.01 702.407 796.2 699.054 796.2 699.054H806.824H810.388V699.077Z" fill="url(#paint56_linear_156_18)"/>
<path d="M764.329 648.78L760.6 663.06C760.6 663.06 747.279 664.42 744.207 653.493L754.151 641.464L764.329 648.78Z" fill="url(#paint57_linear_156_18)"/>
<path d="M760.951 625.776L751.5 644.113C751.5 644.113 757.105 651.898 769.675 655.65L773.381 648.17L778.071 647.021L776.101 644.113L780.44 633.35L760.951 625.776Z" fill="url(#paint58_linear_156_18)"/>
<path d="M760.951 625.776L751.5 644.113C751.5 644.113 757.762 645.004 760.951 639.025C761.326 638.321 759.122 635.883 760.764 633.726C762.429 631.568 764.094 634.64 764.094 634.64C764.094 634.64 775.421 638.11 780.416 633.374L760.951 625.776Z" fill="url(#paint59_linear_156_18)"/>
<path d="M775.046 640.69C774.718 641.229 774.015 641.417 773.475 641.088C772.936 640.76 772.748 640.057 773.077 639.517C773.405 638.978 774.108 638.79 774.648 639.119C775.187 639.447 775.375 640.15 775.046 640.69Z" fill="#2B2B2B"/>
<path d="M770.873 643.339C769.958 642.8 769.489 641.933 769.794 641.417C770.099 640.877 771.107 640.901 771.998 641.44C772.913 641.979 773.382 642.847 773.077 643.363C772.772 643.879 771.787 643.879 770.873 643.339Z" fill="#FF6969"/>
<path d="M772.608 649.741C769.63 649.108 768.176 646.904 768.176 646.904L767.777 647.091C767.777 647.091 768.246 649.811 771.764 651.429L772.608 649.741Z" fill="white"/>
<path d="M776.782 638.65C776.782 638.65 774.578 636.797 772.373 637.853C772.373 637.853 775.164 637.993 776.571 639.541L776.782 638.65Z" fill="#2B2B2B"/>
<path d="M751.5 644.113L761.866 628.496L780.44 633.374C780.44 633.374 790.431 623.103 781.097 614.615C773.146 607.416 768.48 614.99 765.665 613.724C761.397 611.801 759.615 608.284 754.502 609.433C749.53 610.558 750.023 615.178 746.364 617.124C742.706 619.094 742.072 615.295 735.717 618.085C730.557 620.36 732.692 625.706 727.954 628.637C722.443 632.061 721.059 629.856 718.128 631.545C714.868 633.444 713.109 637.899 714.657 641.346C716.392 645.192 722.42 647.068 726.571 644.723C731.261 642.05 731.472 641.112 736.233 642.8C740.97 644.489 743.691 649.131 751.5 644.113Z" fill="url(#paint60_linear_156_18)"/>
<path d="M581.964 372.108C584.872 367.794 586.584 362.588 586.584 357.007C586.584 342.07 574.483 329.971 559.544 329.971C544.605 329.971 532.504 342.07 532.504 357.007C532.504 371.944 544.605 384.043 559.544 384.043H593.878L581.964 372.108Z" fill="#4C2A6E"/>
<path d="M549.132 357.007C549.132 359.376 547.209 361.275 544.864 361.275C542.495 361.275 540.596 359.352 540.596 357.007C540.596 354.639 542.519 352.74 544.864 352.74C547.209 352.74 549.132 354.639 549.132 357.007Z" fill="white"/>
<path d="M574.204 361.275C576.561 361.275 578.472 359.364 578.472 357.007C578.472 354.65 576.561 352.74 574.204 352.74C571.847 352.74 569.936 354.65 569.936 357.007C569.936 359.364 571.847 361.275 574.204 361.275Z" fill="white"/>
<path d="M559.544 361.275C561.901 361.275 563.812 359.364 563.812 357.007C563.812 354.65 561.901 352.74 559.544 352.74C557.186 352.74 555.275 354.65 555.275 357.007C555.275 359.364 557.186 361.275 559.544 361.275Z" fill="white"/>
<path d="M223.171 537.656C226.079 533.342 227.791 528.136 227.791 522.555C227.791 507.618 215.69 495.519 200.751 495.519C185.812 495.519 173.711 507.618 173.711 522.555C173.711 537.492 185.812 549.592 200.751 549.592H235.085L223.171 537.656Z" fill="white"/>
<path d="M186.071 526.823C188.428 526.823 190.339 524.912 190.339 522.555C190.339 520.198 188.428 518.288 186.071 518.288C183.714 518.288 181.803 520.198 181.803 522.555C181.803 524.912 183.714 526.823 186.071 526.823Z" fill="#4C2A6E"/>
<path d="M219.679 522.555C219.679 524.924 217.756 526.823 215.411 526.823C213.042 526.823 211.143 524.9 211.143 522.555C211.143 520.187 213.066 518.288 215.411 518.288C217.78 518.288 219.679 520.187 219.679 522.555Z" fill="#4C2A6E"/>
<path d="M205.019 522.555C205.019 524.924 203.096 526.823 200.751 526.823C198.382 526.823 196.482 524.9 196.482 522.555C196.482 520.187 198.405 518.288 200.751 518.288C203.096 518.288 205.019 520.187 205.019 522.555Z" fill="#4C2A6E"/>
<path d="M880.228 603.383C877.32 599.068 875.608 593.863 875.608 588.282C875.608 573.345 887.709 561.246 902.648 561.246C917.587 561.246 929.689 573.345 929.689 588.282C929.689 603.219 917.587 615.318 902.648 615.318H868.314L880.228 603.383Z" fill="#4C2A6E"/>
<path d="M913.061 588.258C913.061 590.627 914.984 592.526 917.329 592.526C919.698 592.526 921.597 590.603 921.597 588.258C921.597 585.89 919.674 583.991 917.329 583.991C914.96 583.991 913.061 585.913 913.061 588.258Z" fill="white"/>
<path d="M887.968 592.526C890.325 592.526 892.236 590.615 892.236 588.258C892.236 585.901 890.325 583.991 887.968 583.991C885.61 583.991 883.699 585.901 883.699 588.258C883.699 590.615 885.61 592.526 887.968 592.526Z" fill="white"/>
<path d="M898.379 588.258C898.379 590.627 900.302 592.526 902.647 592.526C905.016 592.526 906.915 590.603 906.915 588.258C906.915 585.89 904.992 583.991 902.647 583.991C900.279 583.991 898.379 585.913 898.379 588.258Z" fill="white"/>
</g>
<defs>
<linearGradient id="paint0_linear_156_18" x1="201.093" y1="758.184" x2="201.093" y2="558.828" gradientUnits="userSpaceOnUse">
<stop offset="0.082" stop-color="#417059"/>
<stop offset="0.1662" stop-color="#497E64"/>
<stop offset="0.3559" stop-color="#579779"/>
<stop offset="0.5535" stop-color="#62A988"/>
<stop offset="0.7621" stop-color="#68B491"/>
<stop offset="1" stop-color="#6AB794"/>
</linearGradient>
<linearGradient id="paint1_linear_156_18" x1="369.648" y1="758.184" x2="369.648" y2="558.828" gradientUnits="userSpaceOnUse">
<stop offset="0.082" stop-color="#417059"/>
<stop offset="0.1662" stop-color="#497E64"/>
<stop offset="0.3559" stop-color="#579779"/>
<stop offset="0.5535" stop-color="#62A988"/>
<stop offset="0.7621" stop-color="#68B491"/>
<stop offset="1" stop-color="#6AB794"/>
</linearGradient>
<linearGradient id="paint2_linear_156_18" x1="813.408" y1="756.367" x2="813.408" y2="565.172" gradientUnits="userSpaceOnUse">
<stop offset="0.082" stop-color="#417059"/>
<stop offset="0.1662" stop-color="#497E64"/>
<stop offset="0.3559" stop-color="#579779"/>
<stop offset="0.5535" stop-color="#62A988"/>
<stop offset="0.7621" stop-color="#68B491"/>
<stop offset="1" stop-color="#6AB794"/>
</linearGradient>
<linearGradient id="paint3_linear_156_18" x1="717.574" y1="569.146" x2="745.281" y2="395.049" gradientUnits="userSpaceOnUse">
<stop offset="0.082" stop-color="#417059"/>
<stop offset="0.1662" stop-color="#497E64"/>
<stop offset="0.3559" stop-color="#579779"/>
<stop offset="0.5535" stop-color="#62A988"/>
<stop offset="0.7621" stop-color="#68B491"/>
<stop offset="1" stop-color="#6AB794"/>
</linearGradient>
<linearGradient id="paint4_linear_156_18" x1="415.97" y1="517.019" x2="393.101" y2="373.325" gradientUnits="userSpaceOnUse">
<stop offset="0.082" stop-color="#417059"/>
<stop offset="0.1662" stop-color="#497E64"/>
<stop offset="0.3559" stop-color="#579779"/>
<stop offset="0.5535" stop-color="#62A988"/>
<stop offset="0.7621" stop-color="#68B491"/>
<stop offset="1" stop-color="#6AB794"/>
</linearGradient>
<linearGradient id="paint5_linear_156_18" x1="523.637" y1="789.048" x2="523.637" y2="484.2" gradientUnits="userSpaceOnUse">
<stop stop-color="#FFEEBD"/>
<stop offset="0.00261075" stop-color="#FFEEBD"/>
<stop offset="0.2498" stop-color="#FFF5DA"/>
<stop offset="0.4962" stop-color="#FFFBEF"/>
<stop offset="0.7395" stop-color="#FFFEFB"/>
<stop offset="0.9762" stop-color="white"/>
</linearGradient>
<linearGradient id="paint6_linear_156_18" x1="473.918" y1="601.499" x2="473.918" y2="568.203" gradientUnits="userSpaceOnUse">
<stop stop-color="#564872"/>
<stop offset="1" stop-color="#927EC4"/>
</linearGradient>
<linearGradient id="paint7_linear_156_18" x1="471.466" y1="619.898" x2="471.466" y2="597.348" gradientUnits="userSpaceOnUse">
<stop offset="0.0628" stop-color="#D18311"/>
<stop offset="0.3149" stop-color="#E19D2B"/>
<stop offset="0.8335" stop-color="#FFD05C"/>
</linearGradient>
<linearGradient id="paint8_linear_156_18" x1="480.704" y1="583.818" x2="483.301" y2="583.818" gradientUnits="userSpaceOnUse">
<stop stop-color="#FF8955"/>
<stop offset="0.3867" stop-color="#FFA278"/>
<stop offset="1" stop-color="#FFD0B8"/>
</linearGradient>
<linearGradient id="paint9_linear_156_18" x1="468.026" y1="583.818" x2="465.428" y2="583.818" gradientUnits="userSpaceOnUse">
<stop stop-color="#FF8955"/>
<stop offset="0.3867" stop-color="#FFA278"/>
<stop offset="1" stop-color="#FFD0B8"/>
</linearGradient>
<linearGradient id="paint10_linear_156_18" x1="474.642" y1="589.99" x2="474.642" y2="607.32" gradientUnits="userSpaceOnUse">
<stop offset="0.1177" stop-color="#FF8955"/>
<stop offset="0.3034" stop-color="#FF9D70"/>
<stop offset="0.6073" stop-color="#FFB897"/>
<stop offset="0.8502" stop-color="#FFCAAF"/>
<stop offset="1" stop-color="#FFD0B8"/>
</linearGradient>
<linearGradient id="paint11_linear_156_18" x1="453.742" y1="586.269" x2="480.564" y2="583.914" gradientUnits="userSpaceOnUse">
<stop offset="0.2893" stop-color="#FF8955"/>
<stop offset="0.4874" stop-color="#FFA278"/>
<stop offset="0.8017" stop-color="#FFD0B8"/>
</linearGradient>
<linearGradient id="paint12_linear_156_18" x1="474.883" y1="601.498" x2="474.883" y2="568.203" gradientUnits="userSpaceOnUse">
<stop stop-color="#564872"/>
<stop offset="1" stop-color="#927EC4"/>
</linearGradient>
<linearGradient id="paint13_linear_156_18" x1="406.503" y1="499.391" x2="412.639" y2="483.726" gradientUnits="userSpaceOnUse">
<stop stop-color="#9B4E1B"/>
<stop offset="0.0563" stop-color="#A1541F"/>
<stop offset="0.4413" stop-color="#C37637"/>
<stop offset="0.7583" stop-color="#D88A46"/>
<stop offset="0.966" stop-color="#E0924B"/>
</linearGradient>
<linearGradient id="paint14_linear_156_18" x1="403.698" y1="552.753" x2="403.698" y2="515.881" gradientUnits="userSpaceOnUse">
<stop stop-color="#0C3F56"/>
<stop offset="0.2104" stop-color="#14576F"/>
<stop offset="0.5382" stop-color="#1E7791"/>
<stop offset="0.8102" stop-color="#258AA6"/>
<stop offset="0.9909" stop-color="#2791AD"/>
</linearGradient>
<linearGradient id="paint15_linear_156_18" x1="417.179" y1="498.801" x2="419.834" y2="498.801" gradientUnits="userSpaceOnUse">
<stop stop-color="#FF8955"/>
<stop offset="0.3867" stop-color="#FFA278"/>
<stop offset="1" stop-color="#FFD0B8"/>
</linearGradient>
<linearGradient id="paint16_linear_156_18" x1="404.219" y1="498.801" x2="401.563" y2="498.801" gradientUnits="userSpaceOnUse">
<stop stop-color="#FF8955"/>
<stop offset="0.3867" stop-color="#FFA278"/>
<stop offset="1" stop-color="#FFD0B8"/>
</linearGradient>
<linearGradient id="paint17_linear_156_18" x1="410.582" y1="505.104" x2="410.582" y2="521.443" gradientUnits="userSpaceOnUse">
<stop offset="0.1326" stop-color="#FF8955"/>
<stop offset="0.3873" stop-color="#FFA57D"/>
<stop offset="0.6421" stop-color="#FFBD9D"/>
<stop offset="0.8554" stop-color="#FFCBB1"/>
<stop offset="1" stop-color="#FFD0B8"/>
</linearGradient>
<linearGradient id="paint18_linear_156_18" x1="389.656" y1="501.52" x2="416.868" y2="499.13" gradientUnits="userSpaceOnUse">
<stop offset="0.2893" stop-color="#FF8955"/>
<stop offset="0.4874" stop-color="#FFA278"/>
<stop offset="0.8017" stop-color="#FFD0B8"/>
</linearGradient>
<linearGradient id="paint19_linear_156_18" x1="407.168" y1="499.439" x2="412.985" y2="484.588" gradientUnits="userSpaceOnUse">
<stop stop-color="#9B4E1B"/>
<stop offset="0.0563" stop-color="#A1541F"/>
<stop offset="0.4413" stop-color="#C37637"/>
<stop offset="0.7583" stop-color="#D88A46"/>
<stop offset="0.966" stop-color="#E0924B"/>
</linearGradient>
<linearGradient id="paint20_linear_156_18" x1="473.702" y1="700.955" x2="473.702" y2="677.286" gradientUnits="userSpaceOnUse">
<stop stop-color="#B84141"/>
<stop offset="0.0932" stop-color="#C14949"/>
<stop offset="0.4741" stop-color="#E36464"/>
<stop offset="0.7901" stop-color="#F87575"/>
<stop offset="1" stop-color="#FF7B7B"/>
</linearGradient>
<linearGradient id="paint21_linear_156_18" x1="474.703" y1="669.33" x2="475.572" y2="683.992" gradientUnits="userSpaceOnUse">
<stop offset="0.162" stop-color="#FF8955"/>
<stop offset="0.1818" stop-color="#FF8B58"/>
<stop offset="0.5123" stop-color="#FFB08C"/>
<stop offset="0.7616" stop-color="#FFC7AC"/>
<stop offset="0.8992" stop-color="#FFD0B8"/>
</linearGradient>
<linearGradient id="paint22_linear_156_18" x1="473.853" y1="662.502" x2="475.355" y2="638.478" gradientUnits="userSpaceOnUse">
<stop stop-color="#A54C79"/>
<stop offset="0.7522" stop-color="#FF97C1"/>
</linearGradient>
<linearGradient id="paint23_linear_156_18" x1="481.368" y1="662.953" x2="484.023" y2="662.883" gradientUnits="userSpaceOnUse">
<stop stop-color="#FF8955"/>
<stop offset="0.3867" stop-color="#FFA278"/>
<stop offset="1" stop-color="#FFD0B8"/>
</linearGradient>
<linearGradient id="paint24_linear_156_18" x1="468.413" y1="663.297" x2="465.758" y2="663.368" gradientUnits="userSpaceOnUse">
<stop stop-color="#FF8955"/>
<stop offset="0.3867" stop-color="#FFA278"/>
<stop offset="1" stop-color="#FFD0B8"/>
</linearGradient>
<linearGradient id="paint25_linear_156_18" x1="453.926" y1="666.403" x2="481.065" y2="663.291" gradientUnits="userSpaceOnUse">
<stop offset="0.2893" stop-color="#FF8955"/>
<stop offset="0.4874" stop-color="#FFA278"/>
<stop offset="0.8017" stop-color="#FFD0B8"/>
</linearGradient>
<linearGradient id="paint26_linear_156_18" x1="474.344" y1="662.533" x2="475.845" y2="638.508" gradientUnits="userSpaceOnUse">
<stop stop-color="#A54C79"/>
<stop offset="0.7522" stop-color="#FF97C1"/>
</linearGradient>
<linearGradient id="paint27_linear_156_18" x1="682.248" y1="514.909" x2="661.407" y2="462.407" gradientUnits="userSpaceOnUse">
<stop stop-color="#13658E"/>
<stop offset="0.0816" stop-color="#196A92"/>
<stop offset="0.6852" stop-color="#408DAF"/>
<stop offset="1" stop-color="#4F9BBA"/>
</linearGradient>
<linearGradient id="paint28_linear_156_18" x1="667.004" y1="514.279" x2="662.563" y2="521.526" gradientUnits="userSpaceOnUse">
<stop offset="0.2197" stop-color="#FF8955"/>
<stop offset="0.4871" stop-color="#FFA278"/>
<stop offset="0.911" stop-color="#FFD0B8"/>
</linearGradient>
<linearGradient id="paint29_linear_156_18" x1="615.935" y1="514.889" x2="636.808" y2="462.308" gradientUnits="userSpaceOnUse">
<stop stop-color="#13658E"/>
<stop offset="0.0816" stop-color="#196A92"/>
<stop offset="0.6852" stop-color="#408DAF"/>
<stop offset="1" stop-color="#4F9BBA"/>
</linearGradient>
<linearGradient id="paint30_linear_156_18" x1="631.225" y1="514.279" x2="635.666" y2="521.526" gradientUnits="userSpaceOnUse">
<stop offset="0.2197" stop-color="#FF8955"/>
<stop offset="0.4871" stop-color="#FFA278"/>
<stop offset="0.911" stop-color="#FFD0B8"/>
</linearGradient>
<linearGradient id="paint31_linear_156_18" x1="648.646" y1="452.592" x2="648.646" y2="390.471" gradientUnits="userSpaceOnUse">
<stop stop-color="#B84141"/>
<stop offset="0.0932" stop-color="#C14949"/>
<stop offset="0.4741" stop-color="#E36464"/>
<stop offset="0.7901" stop-color="#F87575"/>
<stop offset="1" stop-color="#FF7B7B"/>
</linearGradient>
<linearGradient id="paint32_linear_156_18" x1="650.425" y1="383.212" x2="651.509" y2="401.48" gradientUnits="userSpaceOnUse">
<stop offset="0.162" stop-color="#FF8955"/>
<stop offset="0.4612" stop-color="#FFA67D"/>
<stop offset="0.8175" stop-color="#FFC4A8"/>
<stop offset="1" stop-color="#FFD0B8"/>
</linearGradient>
<linearGradient id="paint33_linear_156_18" x1="650.285" y1="376.816" x2="650.285" y2="353.941" gradientUnits="userSpaceOnUse">
<stop stop-color="#A54C79"/>
<stop offset="0.7522" stop-color="#FF97C1"/>
</linearGradient>
<linearGradient id="paint34_linear_156_18" x1="659.951" y1="380.083" x2="663.708" y2="380.127" gradientUnits="userSpaceOnUse">
<stop stop-color="#FF8955"/>
<stop offset="0.3867" stop-color="#FFA278"/>
<stop offset="1" stop-color="#FFD0B8"/>
</linearGradient>
<linearGradient id="paint35_linear_156_18" x1="641.615" y1="379.865" x2="637.857" y2="379.82" gradientUnits="userSpaceOnUse">
<stop stop-color="#FF8955"/>
<stop offset="0.3867" stop-color="#FFA278"/>
<stop offset="1" stop-color="#FFD0B8"/>
</linearGradient>
<linearGradient id="paint36_linear_156_18" x1="620.962" y1="381.148" x2="659.506" y2="378.226" gradientUnits="userSpaceOnUse">
<stop offset="0.2893" stop-color="#FF8955"/>
<stop offset="0.4874" stop-color="#FFA278"/>
<stop offset="0.8017" stop-color="#FFD0B8"/>
</linearGradient>
<linearGradient id="paint37_linear_156_18" x1="650.794" y1="376.816" x2="650.794" y2="353.941" gradientUnits="userSpaceOnUse">
<stop stop-color="#A54C79"/>
<stop offset="0.7522" stop-color="#FF97C1"/>
</linearGradient>
<linearGradient id="paint38_linear_156_18" x1="627.016" y1="408.294" x2="622.289" y2="439.729" gradientUnits="userSpaceOnUse">
<stop stop-color="#FF8955"/>
<stop offset="0.3236" stop-color="#FFA278"/>
<stop offset="0.8366" stop-color="#FFD0B8"/>
</linearGradient>
<linearGradient id="paint39_linear_156_18" x1="668.863" y1="413.382" x2="680.237" y2="450.513" gradientUnits="userSpaceOnUse">
<stop stop-color="#FF8955"/>
<stop offset="0.31" stop-color="#FFA278"/>
<stop offset="0.8017" stop-color="#FFD0B8"/>
</linearGradient>
<linearGradient id="paint40_linear_156_18" x1="261.347" y1="738.829" x2="259.771" y2="760.268" gradientUnits="userSpaceOnUse">
<stop offset="0.1433" stop-color="#FF8955"/>
<stop offset="0.4402" stop-color="#FFA278"/>
<stop offset="0.911" stop-color="#FFD0B8"/>
</linearGradient>
<linearGradient id="paint41_linear_156_18" x1="268.287" y1="652.642" x2="268.287" y2="733.971" gradientUnits="userSpaceOnUse">
<stop stop-color="#B84141"/>
<stop offset="0.0932" stop-color="#C14949"/>
<stop offset="0.4741" stop-color="#E36464"/>
<stop offset="0.7901" stop-color="#F87575"/>
<stop offset="1" stop-color="#FF7B7B"/>
</linearGradient>
<linearGradient id="paint42_linear_156_18" x1="301.359" y1="738.829" x2="302.935" y2="760.268" gradientUnits="userSpaceOnUse">
<stop offset="0.1433" stop-color="#FF8955"/>
<stop offset="0.4402" stop-color="#FFA278"/>
<stop offset="0.911" stop-color="#FFD0B8"/>
</linearGradient>
<linearGradient id="paint43_linear_156_18" x1="294.419" y1="652.642" x2="294.419" y2="733.971" gradientUnits="userSpaceOnUse">
<stop stop-color="#B84141"/>
<stop offset="0.0932" stop-color="#C14949"/>
<stop offset="0.4741" stop-color="#E36464"/>
<stop offset="0.7901" stop-color="#F87575"/>
<stop offset="1" stop-color="#FF7B7B"/>
</linearGradient>
<linearGradient id="paint44_linear_156_18" x1="275.071" y1="566.708" x2="285.107" y2="612.726" gradientUnits="userSpaceOnUse">
<stop offset="0.2893" stop-color="#FF8955"/>
<stop offset="0.4874" stop-color="#FFA278"/>
<stop offset="0.8017" stop-color="#FFD0B8"/>
</linearGradient>
<linearGradient id="paint45_linear_156_18" x1="287.761" y1="577.676" x2="270.398" y2="557.257" gradientUnits="userSpaceOnUse">
<stop stop-color="#FF8955"/>
<stop offset="0.911" stop-color="#FFD0B8"/>
</linearGradient>
<linearGradient id="paint46_linear_156_18" x1="281.553" y1="573.513" x2="278.629" y2="541.76" gradientUnits="userSpaceOnUse">
<stop stop-color="#9B4E1B"/>
<stop offset="0.1986" stop-color="#B1632A"/>
<stop offset="0.493" stop-color="#CB7D3C"/>
<stop offset="0.7579" stop-color="#DA8D47"/>
<stop offset="0.966" stop-color="#E0924B"/>
</linearGradient>
<linearGradient id="paint47_linear_156_18" x1="319.316" y1="646.353" x2="304.148" y2="665.04" gradientUnits="userSpaceOnUse">
<stop stop-color="#FF8955"/>
<stop offset="0.3468" stop-color="#FFA278"/>
<stop offset="0.8968" stop-color="#FFD0B8"/>
</linearGradient>
<linearGradient id="paint48_linear_156_18" x1="215.445" y1="600.301" x2="208.631" y2="581.559" gradientUnits="userSpaceOnUse">
<stop stop-color="#FF8955"/>
<stop offset="0.911" stop-color="#FFD0B8"/>
</linearGradient>
<linearGradient id="paint49_linear_156_18" x1="844.652" y1="736.14" x2="872.423" y2="743.756" gradientUnits="userSpaceOnUse">
<stop stop-color="#FF8955"/>
<stop offset="0.1624" stop-color="#FF996C"/>
<stop offset="0.4933" stop-color="#FFB795"/>
<stop offset="0.7542" stop-color="#FFC9AF"/>
<stop offset="0.911" stop-color="#FFD0B8"/>
</linearGradient>
<linearGradient id="paint50_linear_156_18" x1="733.909" y1="728.947" x2="820.623" y2="726.029" gradientUnits="userSpaceOnUse">
<stop stop-color="#A54C79"/>
<stop offset="0.0343" stop-color="#A94F7C"/>
<stop offset="0.4715" stop-color="#D776A1"/>
<stop offset="0.8075" stop-color="#F48EB8"/>
<stop offset="1" stop-color="#FF97C1"/>
</linearGradient>
<linearGradient id="paint51_linear_156_18" x1="759.566" y1="678.838" x2="852.202" y2="686.852" gradientUnits="userSpaceOnUse">
<stop offset="0.1112" stop-color="#FF8955"/>
<stop offset="0.2697" stop-color="#FF996C"/>
<stop offset="0.5925" stop-color="#FFB795"/>
<stop offset="0.847" stop-color="#FFC9AF"/>
<stop offset="1" stop-color="#FFD0B8"/>
</linearGradient>
<linearGradient id="paint52_linear_156_18" x1="763.282" y1="741.755" x2="737.254" y2="683.637" gradientUnits="userSpaceOnUse">
<stop offset="0.1364" stop-color="#D18311"/>
<stop offset="0.1752" stop-color="#D48917"/>
<stop offset="0.462" stop-color="#ECAF3C"/>
<stop offset="0.6915" stop-color="#FAC753"/>
<stop offset="0.8335" stop-color="#FFD05C"/>
</linearGradient>
<linearGradient id="paint53_linear_156_18" x1="830.081" y1="724.452" x2="842.927" y2="743.723" gradientUnits="userSpaceOnUse">
<stop stop-color="#FF8955"/>
<stop offset="0.1624" stop-color="#FF996C"/>
<stop offset="0.4933" stop-color="#FFB795"/>
<stop offset="0.7542" stop-color="#FFC9AF"/>
<stop offset="0.911" stop-color="#FFD0B8"/>
</linearGradient>
<linearGradient id="paint54_linear_156_18" x1="791.01" y1="700.776" x2="837.821" y2="700.776" gradientUnits="userSpaceOnUse">
<stop stop-color="#FFEEBD"/>
<stop offset="0.00261075" stop-color="#FFEEBD"/>
<stop offset="0.2498" stop-color="#FFF5DA"/>
<stop offset="0.4962" stop-color="#FFFBEF"/>
<stop offset="0.7395" stop-color="#FFFEFB"/>
<stop offset="0.9762" stop-color="white"/>
</linearGradient>
<linearGradient id="paint55_linear_156_18" x1="833.051" y1="679.888" x2="850.168" y2="679.888" gradientUnits="userSpaceOnUse">
<stop stop-color="#FFEEBD"/>
<stop offset="0.00261075" stop-color="#FFEEBD"/>
<stop offset="0.2498" stop-color="#FFF5DA"/>
<stop offset="0.4962" stop-color="#FFFBEF"/>
<stop offset="0.7395" stop-color="#FFFEFB"/>
<stop offset="0.9762" stop-color="white"/>
</linearGradient>
<linearGradient id="paint56_linear_156_18" x1="731.178" y1="637.354" x2="796.136" y2="715.143" gradientUnits="userSpaceOnUse">
<stop offset="0.1112" stop-color="#FF8955"/>
<stop offset="0.2538" stop-color="#FF996C"/>
<stop offset="0.5443" stop-color="#FFB795"/>
<stop offset="0.7733" stop-color="#FFC9AF"/>
<stop offset="0.911" stop-color="#FFD0B8"/>
</linearGradient>
<linearGradient id="paint57_linear_156_18" x1="760.128" y1="645.308" x2="750.99" y2="660.671" gradientUnits="userSpaceOnUse">
<stop offset="0.0598" stop-color="#FF8955"/>
<stop offset="0.2116" stop-color="#FF996C"/>
<stop offset="0.5207" stop-color="#FFB795"/>
<stop offset="0.7645" stop-color="#FFC9AF"/>
<stop offset="0.911" stop-color="#FFD0B8"/>
</linearGradient>
<linearGradient id="paint58_linear_156_18" x1="741.33" y1="661.81" x2="772.721" y2="634.202" gradientUnits="userSpaceOnUse">
<stop offset="0.0325" stop-color="#FF8955"/>
<stop offset="0.3722" stop-color="#FFA278"/>
<stop offset="0.911" stop-color="#FFD0B8"/>
</linearGradient>
<linearGradient id="paint59_linear_156_18" x1="748.09" y1="667.72" x2="777.42" y2="618.234" gradientUnits="userSpaceOnUse">
<stop stop-color="#564872"/>
<stop offset="1" stop-color="#927EC4"/>
</linearGradient>
<linearGradient id="paint60_linear_156_18" x1="733.259" y1="658.93" x2="762.589" y2="609.444" gradientUnits="userSpaceOnUse">
<stop stop-color="#564872"/>
<stop offset="1" stop-color="#927EC4"/>
</linearGradient>
<clipPath id="clip0_156_18">
<rect width="967" height="848" fill="white"/>
</clipPath>
</defs>
</svg>
