<svg width="78" height="78" viewBox="0 0 78 78" fill="none" xmlns="http://www.w3.org/2000/svg">
<path d="M19.2947 78C19.1305 78 18.9663 77.9672 18.8185 77.9015C18.3587 77.7044 18.0632 77.261 18.0632 76.7684V64.8632H14.3684C6.45347 64.8632 0 58.4261 0 50.4947V14.3684C0 6.45347 6.45347 0 14.3684 0H63.6316C71.5629 0 78 6.45347 78 14.3684V50.4947C78 58.4261 71.5629 64.8632 63.6316 64.8632H33.2198L20.1486 77.6552C19.9187 77.8851 19.6067 78 19.2947 78ZM14.3684 2.46316C7.8 2.46316 2.46316 7.8 2.46316 14.3684V50.4947C2.46316 57.0632 7.8 62.4 14.3684 62.4H19.2947C19.968 62.4 20.5263 62.9583 20.5263 63.6316V73.8455L31.8568 62.7613C32.0867 62.5314 32.3987 62.4164 32.7107 62.4164H63.6152C70.1836 62.4164 75.5204 57.0796 75.5204 50.5112V14.3848C75.5204 7.81642 70.1836 2.47958 63.6152 2.47958H14.3684V2.46316Z" fill="#4C2A6E"/>
</svg>
