<svg width="471" height="306" viewBox="0 0 471 306" fill="none" xmlns="http://www.w3.org/2000/svg">
<path d="M423.293 268.434C423.293 272.276 420.149 275.418 416.305 275.418H38.5253C34.684 275.418 31.5382 272.274 31.5382 268.434L28.3945 51.1754C28.3945 47.3335 32.9182 39.8351 41.2046 40.3979L410.413 30.8379C415.233 30.7135 419.896 32.5701 423.31 35.9757C426.724 39.3813 428.592 44.037 428.479 48.8563L423.293 268.434Z" fill="url(#paint0_linear_181_3583)"/>
<path d="M416.395 261.734C416.395 265.371 413.421 268.349 409.785 268.349H47.6356C44.0015 268.349 41.0257 265.373 41.0257 261.734L38.0586 64.5053C38.4074 52.6371 48.8063 48.3698 55.1089 48.6228L408.963 39.1217C412.351 39.0301 415.625 40.3369 418.023 42.7302C420.421 45.1235 421.742 48.4025 421.657 51.7906L416.395 261.734Z" fill="#4C2A6E"/>
<path d="M44.9402 167.512C44.6961 167.512 44.4977 167.316 44.4933 167.072L44.2579 151.076C44.2535 150.829 44.4519 150.626 44.6983 150.622C44.9359 150.637 45.1473 150.816 45.1517 151.063L45.3872 167.059C45.3915 167.305 45.1931 167.508 44.9468 167.512C44.9446 167.512 44.9424 167.512 44.9402 167.512Z" fill="#7D97F4"/>
<path d="M44.3646 128.317C44.1205 128.317 43.9221 128.12 43.9177 127.876L43.0195 66.6149C43.0392 62.5504 44.2883 59.302 46.7366 56.9545C51.1948 52.6784 58.1797 52.8944 58.4741 52.9053L171.48 49.8706C171.731 49.8684 171.931 50.0582 171.938 50.3048C171.945 50.5513 171.751 50.7564 171.504 50.7629L58.4719 53.7998C58.1601 53.7911 51.5414 53.5838 47.3535 57.6003C45.0862 59.7732 43.9286 62.8057 43.9112 66.6105L44.8094 127.863C44.8137 128.109 44.6153 128.312 44.369 128.317C44.369 128.317 44.3668 128.317 44.3646 128.317Z" fill="#7D97F4"/>
<g opacity="0.19">
<path d="M56.98 250.793C57.3593 234.492 57.2176 90.1399 56.2824 77.6739C55.3471 65.2079 74.7498 62.8692 104.538 61.4663C134.327 60.0635 385.661 54.509 392.131 53.9832C406.676 52.803 409.687 74.5607 408.233 121.796C407.141 157.283 405.327 215.74 404.494 242.625C404.246 250.63 397.708 256.98 389.705 257.002C329.223 257.168 97.416 257.833 81.9854 258.294C64.2287 258.822 56.8296 257.255 56.98 250.793Z" fill="#91B3FA"/>
</g>
<path d="M452.304 293.453H10.188C9.28764 293.453 8.55078 292.716 8.55078 291.815V276C8.55078 275.099 9.28764 274.362 10.188 274.362H452.304C453.205 274.362 453.941 275.099 453.941 276V291.815C453.941 292.718 453.205 293.453 452.304 293.453Z" fill="url(#paint1_linear_181_3583)"/>
<path d="M106.016 191.823H91.6055V257.096H106.016V191.823Z" fill="white"/>
<path d="M130.094 214.255H115.684V257.094H130.094V214.255Z" fill="white"/>
<path d="M154.172 158.812H139.762V257.094H154.172V158.812Z" fill="white"/>
<path d="M178.254 233.484H163.844V257.094H178.254V233.484Z" fill="white"/>
<path d="M202.332 171.952H187.922V257.094H202.332V171.952Z" fill="white"/>
<path d="M226.41 186.694H212V257.094H226.41V186.694Z" fill="white"/>
<path d="M250.488 202.718H236.078V257.094H250.488V202.718Z" fill="white"/>
<path d="M274.57 138.944H260.16V257.094H274.57V138.944Z" fill="white"/>
<path d="M298.649 151.442H284.238V257.096H298.649V151.442Z" fill="white"/>
<path d="M322.727 170.351H308.316V257.096H322.727V170.351Z" fill="white"/>
<path d="M346.809 235.674H332.398V257.094H346.809V235.674Z" fill="white"/>
<path d="M370.887 194.065H356.477V257.096H370.887V194.065Z" fill="white"/>
<path d="M322.145 87.3502C327.951 81.5397 327.951 72.119 322.145 66.3084C316.339 60.4979 306.925 60.4979 301.119 66.3085C295.312 72.119 295.312 81.5397 301.119 87.3502C306.925 93.1608 316.339 93.1608 322.145 87.3502Z" fill="white"/>
<path d="M363.406 78.0551C364.081 69.8656 357.995 62.6784 349.812 62.0022C341.628 61.3259 334.446 67.4165 333.771 75.606C333.095 83.7955 339.181 90.9826 347.364 91.6589C355.548 92.3352 362.73 86.2445 363.406 78.0551Z" fill="white"/>
<path d="M385.532 92.1929C393.744 92.1929 400.4 85.5314 400.4 77.314C400.4 69.0966 393.744 62.4351 385.532 62.4351C377.321 62.4351 370.664 69.0966 370.664 77.314C370.664 85.5314 377.321 92.1929 385.532 92.1929Z" fill="white"/>
<path d="M320.47 73.6815C320.93 74.8007 321.185 76.0268 321.185 77.314C321.185 82.5915 316.91 86.8697 311.637 86.8697C306.363 86.8697 302.088 82.5915 302.088 77.314C302.088 72.0366 306.363 67.7583 311.637 67.7583C311.798 67.7583 311.959 67.7627 312.118 67.7714V65.3498C311.959 65.3432 311.798 65.3389 311.637 65.3389C305.027 65.3389 299.668 70.7014 299.668 77.3162C299.668 83.931 305.027 89.2935 311.637 89.2935C318.247 89.2935 323.605 83.931 323.605 77.3162C323.605 75.6865 323.28 74.1353 322.692 72.7194L320.47 73.6815Z" fill="white"/>
<path d="M353.51 85.3993C352.036 86.3308 350.292 86.8697 348.422 86.8697C343.148 86.8697 338.873 82.5915 338.873 77.314C338.873 72.0366 343.148 67.7583 348.422 67.7583C348.583 67.7583 348.744 67.7627 348.904 67.7714V65.3498C348.744 65.3432 348.583 65.3389 348.422 65.3389C341.812 65.3389 336.453 70.7014 336.453 77.3162C336.453 83.931 341.812 89.2935 348.422 89.2935C350.728 89.2935 352.882 88.639 354.711 87.5089L353.51 85.3993Z" fill="white"/>
<path d="M393.504 82.6875C391.786 85.2116 388.889 86.8719 385.605 86.8719C380.332 86.8719 376.057 82.5937 376.057 77.3162C376.057 72.0388 380.332 67.7605 385.605 67.7605C385.767 67.7605 385.928 67.7649 386.087 67.7736V65.352C385.928 65.3454 385.767 65.3411 385.605 65.3411C378.995 65.3411 373.637 70.7036 373.637 77.3184C373.637 83.9332 378.995 89.2957 385.605 89.2957C389.695 89.2957 393.303 87.2428 395.464 84.1121L393.504 82.6875Z" fill="white"/>
<path d="M323.75 98.0071H299.523C298.001 98.0071 296.77 99.2397 296.77 100.763C296.77 102.285 298.001 103.518 299.523 103.518H323.75C325.272 103.518 326.504 102.285 326.504 100.763C326.504 99.2397 325.272 98.0071 323.75 98.0071Z" fill="white"/>
<path d="M360.699 98.0071H336.472C334.95 98.0071 333.719 99.2397 333.719 100.763C333.719 102.285 334.95 103.518 336.472 103.518H360.699C362.221 103.518 363.453 102.285 363.453 100.763C363.453 99.2397 362.219 98.0071 360.699 98.0071Z" fill="white"/>
<path d="M373.421 103.518H397.649C399.168 103.518 400.402 102.285 400.402 100.763C400.402 99.2397 399.17 98.0071 397.649 98.0071H373.421C371.9 98.0071 370.668 99.2397 370.668 100.763C370.668 102.285 371.902 103.518 373.421 103.518Z" fill="white"/>
<path d="M323.75 106.579H299.523C298.001 106.579 296.77 107.814 296.77 109.334V125.562C296.77 127.084 298.001 128.317 299.523 128.317H323.75C325.272 128.317 326.504 127.084 326.504 125.562V109.334C326.504 107.814 325.272 106.579 323.75 106.579Z" fill="white"/>
<path d="M360.699 106.579H336.472C334.95 106.579 333.719 107.814 333.719 109.334V125.562C333.719 127.084 334.95 128.317 336.472 128.317H360.699C362.221 128.317 363.453 127.084 363.453 125.562V109.334C363.453 107.814 362.219 106.579 360.699 106.579Z" fill="white"/>
<path d="M397.649 106.579H373.421C371.9 106.579 370.668 107.814 370.668 109.334V125.562C370.668 127.084 371.902 128.317 373.421 128.317H397.649C399.168 128.317 400.402 127.084 400.402 125.562V109.334C400.402 107.814 399.168 106.579 397.649 106.579Z" fill="white"/>
<g opacity="0.64">
<path d="M129.967 85.5562H67.6172V94.1475H129.967V85.5562Z" fill="#91B3FA"/>
<path d="M129.967 97.7625H67.6172V102.737H129.967V97.7625Z" fill="#91B3FA"/>
<path d="M129.967 106.354H67.6172V111.328H129.967V106.354Z" fill="#91B3FA"/>
<path d="M129.967 114.945H67.6172V119.92H129.967V114.945Z" fill="#91B3FA"/>
</g>
<path d="M152.824 115.421C152.818 114.271 151.878 113.344 150.729 113.353C149.58 113.359 148.654 114.3 148.66 115.449C148.667 116.599 149.606 117.526 150.755 117.518C151.906 117.509 152.831 116.571 152.824 115.421Z" fill="url(#paint2_linear_181_3583)"/>
<path d="M152.755 115.421C152.748 114.308 151.841 113.414 150.73 113.42C149.618 113.427 148.724 114.335 148.731 115.447C148.737 116.56 149.644 117.454 150.756 117.448C151.868 117.441 152.761 116.534 152.755 115.421Z" fill="url(#paint3_linear_181_3583)"/>
<path d="M148.915 116.226C148.704 116.226 148.516 116.075 148.477 115.862C148.46 115.766 148.447 115.67 148.442 115.572C148.427 115.325 148.617 115.113 148.863 115.1C149.109 115.094 149.321 115.275 149.334 115.521C149.338 115.58 149.345 115.639 149.356 115.698C149.401 115.94 149.242 116.174 149 116.219C148.972 116.222 148.944 116.226 148.915 116.226Z" fill="white"/>
<path d="M150.742 117.74C149.872 117.74 149.087 117.26 148.69 116.486C148.577 116.265 148.664 115.997 148.884 115.883C149.105 115.77 149.373 115.857 149.486 116.078C149.73 116.555 150.234 116.85 150.753 116.846C150.838 116.846 150.925 116.837 151.008 116.822C151.252 116.774 151.483 116.935 151.529 117.177C151.575 117.419 151.415 117.653 151.173 117.699C151.038 117.725 150.899 117.738 150.759 117.74C150.753 117.74 150.746 117.74 150.742 117.74Z" fill="white"/>
<path d="M152.824 102.791C152.818 101.642 151.878 100.714 150.729 100.721C149.58 100.728 148.654 101.668 148.66 102.818C148.667 103.967 149.606 104.894 150.755 104.888C151.906 104.881 152.831 103.943 152.824 102.791Z" fill="url(#paint4_linear_181_3583)"/>
<path d="M152.755 102.794C152.748 101.681 151.841 100.786 150.73 100.793C149.618 100.8 148.724 101.707 148.731 102.82C148.737 103.932 149.644 104.827 150.756 104.82C151.868 104.812 152.761 103.904 152.755 102.794Z" fill="url(#paint5_linear_181_3583)"/>
<path d="M148.915 103.596C148.704 103.596 148.516 103.446 148.477 103.232C148.46 103.136 148.447 103.04 148.442 102.942C148.427 102.695 148.617 102.484 148.863 102.471C149.109 102.462 149.321 102.645 149.334 102.892C149.338 102.951 149.345 103.01 149.356 103.069C149.401 103.311 149.242 103.544 149 103.59C148.972 103.594 148.944 103.596 148.915 103.596Z" fill="white"/>
<path d="M150.742 105.113C149.874 105.113 149.089 104.633 148.69 103.858C148.577 103.638 148.664 103.369 148.884 103.256C149.105 103.143 149.373 103.23 149.486 103.45C149.73 103.928 150.234 104.225 150.753 104.218C150.838 104.218 150.925 104.209 151.008 104.194C151.252 104.146 151.483 104.308 151.529 104.55C151.575 104.792 151.415 105.025 151.173 105.071C151.036 105.097 150.897 105.11 150.757 105.11C150.751 105.113 150.746 105.113 150.742 105.113Z" fill="white"/>
<path d="M152.824 90.1639C152.818 89.0142 151.878 88.087 150.729 88.0935C149.58 88.1001 148.654 89.0404 148.66 90.1901C148.667 91.3399 149.606 92.2671 150.755 92.2605C151.906 92.254 152.831 91.3137 152.824 90.1639Z" fill="url(#paint6_linear_181_3583)"/>
<path d="M152.755 90.164C152.748 89.0513 151.841 88.1568 150.73 88.1634C149.618 88.1699 148.724 89.0775 148.731 90.1901C148.737 91.3028 149.644 92.1973 150.756 92.1907C151.868 92.1842 152.761 91.2766 152.755 90.164Z" fill="url(#paint7_linear_181_3583)"/>
<path d="M148.915 90.969C148.704 90.969 148.516 90.8184 148.477 90.6046C148.46 90.5086 148.447 90.4126 148.442 90.3145C148.427 90.0679 148.617 89.8563 148.863 89.8432C149.109 89.8323 149.321 90.0178 149.334 90.2643C149.338 90.3232 149.345 90.3821 149.356 90.441C149.401 90.6832 149.242 90.9166 149 90.9624C148.972 90.9668 148.944 90.969 148.915 90.969Z" fill="white"/>
<path d="M150.742 92.483C149.872 92.483 149.087 92.003 148.69 91.2285C148.577 91.0082 148.664 90.7398 148.884 90.6264C149.105 90.513 149.373 90.6002 149.486 90.8206C149.73 91.2984 150.234 91.5951 150.753 91.5885C150.84 91.5885 150.925 91.5798 151.006 91.5645C151.25 91.5209 151.483 91.678 151.529 91.9201C151.575 92.1623 151.415 92.3979 151.173 92.4437C151.038 92.4699 150.899 92.483 150.759 92.4852C150.753 92.483 150.746 92.483 150.742 92.483Z" fill="white"/>
<path d="M156.028 115.528L156.037 115.172C156.063 114.212 156.663 113.449 157.395 113.447L213.148 113.362C213.905 113.357 214.52 114.162 214.517 115.155C214.515 116.128 213.922 116.922 213.181 116.942L157.419 117.38C156.634 117.402 156 116.556 156.028 115.528Z" fill="#91B3FA"/>
<path d="M156.028 102.962L156.037 102.606C156.063 101.646 156.663 100.882 157.395 100.88L213.148 100.795C213.905 100.791 214.52 101.596 214.517 102.589C214.515 103.562 213.922 104.356 213.181 104.375L157.419 104.814C156.634 104.836 156 103.989 156.028 102.962Z" fill="#91B3FA"/>
<path d="M156.028 90.3952L156.037 90.0396C156.063 89.0796 156.663 88.316 157.395 88.3139L213.148 88.2288C213.905 88.2244 214.52 89.0294 214.517 90.0221C214.515 90.9951 213.922 91.7893 213.181 91.8089L157.419 92.2474C156.634 92.2692 156 91.4227 156.028 90.3952Z" fill="#91B3FA"/>
<path d="M203.39 71.9774C213.398 71.9774 221.511 63.8586 221.511 53.8435C221.511 43.8283 213.398 35.7095 203.39 35.7095C193.382 35.7095 185.27 43.8283 185.27 53.8435C185.27 63.8586 193.382 71.9774 203.39 71.9774Z" fill="url(#paint8_linear_181_3583)"/>
<path d="M203.392 71.373C213.066 71.373 220.909 63.5247 220.909 53.8434C220.909 44.162 213.066 36.3137 203.392 36.3137C193.718 36.3137 185.875 44.162 185.875 53.8434C185.875 63.5247 193.718 71.373 203.392 71.373Z" fill="url(#paint9_linear_181_3583)"/>
<path opacity="0.63" d="M188.943 46.8141C188.904 46.8141 188.867 46.8054 188.83 46.7879C188.706 46.7246 188.656 46.5719 188.719 46.4476C191.531 40.8712 197.151 37.4089 203.388 37.4089C204.383 37.4089 205.381 37.4984 206.351 37.6751C206.489 37.6991 206.58 37.8322 206.554 37.9696C206.53 38.1071 206.399 38.2009 206.26 38.1725C205.318 38.0002 204.352 37.9151 203.388 37.9151C197.343 37.9151 191.895 41.2727 189.17 46.6766C189.124 46.7639 189.035 46.8141 188.943 46.8141Z" fill="white"/>
<path opacity="0.72" d="M203.772 69.0627C211.961 69.0627 218.599 62.4197 218.599 54.2252C218.599 46.0307 211.961 39.3877 203.772 39.3877C195.583 39.3877 188.945 46.0307 188.945 54.2252C188.945 62.4197 195.583 69.0627 203.772 69.0627Z" fill="white"/>
<path d="M202.314 65.2557V63.6413C200.633 63.5736 198.969 63.1766 197.788 62.6595C197.367 62.4741 197.151 62.0007 197.271 61.5556L197.681 60.0524C197.831 59.5005 198.431 59.2147 198.959 59.4372C200.131 59.9281 201.577 60.3186 203.138 60.3186C204.758 60.3186 205.965 59.7688 205.965 58.6431C205.965 57.6264 205.032 57.0221 202.78 56.4178C199.569 55.5386 197.262 54.1379 197.262 51.3083C197.262 48.7536 199.129 46.8032 202.368 46.2818V44.6674C202.368 44.1481 202.789 43.7271 203.308 43.7271H204.256C204.775 43.7271 205.196 44.1481 205.196 44.6674V46.116C206.752 46.1792 207.884 46.4454 208.784 46.7617C209.244 46.9232 209.497 47.4206 209.368 47.8918L208.991 49.2816C208.845 49.8183 208.274 50.1106 207.753 49.9142C206.925 49.6001 205.756 49.275 204.234 49.275C202.314 49.275 201.764 50.0713 201.764 50.7869C201.764 51.6661 202.918 52.2704 205.416 53.0406C208.985 54.1118 210.467 55.5953 210.467 58.2591C210.467 60.7048 208.656 62.9017 205.141 63.4515V65.2579C205.141 65.7771 204.72 66.1982 204.202 66.1982H203.253C202.734 66.196 202.314 65.7749 202.314 65.2557Z" fill="#4C2A6E"/>
<path d="M209.326 164.661C223.896 164.661 235.707 152.841 235.707 138.261C235.707 123.68 223.896 111.86 209.326 111.86C194.757 111.86 182.945 123.68 182.945 138.261C182.945 152.841 194.757 164.661 209.326 164.661Z" fill="#4C2A6E"/>
<path d="M209.327 163.782C223.411 163.782 234.829 152.355 234.829 138.261C234.829 124.166 223.411 112.74 209.327 112.74C195.242 112.74 183.824 124.166 183.824 138.261C183.824 152.355 195.242 163.782 209.327 163.782Z" fill="url(#paint10_linear_181_3583)"/>
<path opacity="0.63" d="M188.298 128.027C188.241 128.027 188.185 128.013 188.132 127.987C187.952 127.896 187.877 127.673 187.969 127.492C192.063 119.374 200.247 114.332 209.327 114.332C210.775 114.332 212.227 114.463 213.639 114.721C213.84 114.758 213.971 114.95 213.936 115.148C213.899 115.349 213.709 115.484 213.509 115.445C212.137 115.196 210.731 115.07 209.327 115.07C200.526 115.07 192.595 119.957 188.625 127.824C188.562 127.952 188.433 128.027 188.298 128.027Z" fill="white"/>
<path opacity="0.72" d="M231.443 139.881C232.037 127.966 222.866 117.825 210.959 117.231C199.052 116.637 188.919 125.814 188.325 137.73C187.731 149.645 196.902 159.786 208.809 160.38C220.716 160.974 230.849 151.797 231.443 139.881Z" fill="white"/>
<path d="M207.764 154.874V152.524C205.316 152.426 202.894 151.848 201.174 151.095C200.559 150.827 200.247 150.138 200.424 149.49L201.021 147.301C201.239 146.499 202.114 146.084 202.881 146.405C204.588 147.12 206.694 147.688 208.966 147.688C211.324 147.688 213.082 146.887 213.082 145.248C213.082 143.769 211.723 142.888 208.445 142.009C203.768 140.728 200.411 138.688 200.411 134.569C200.411 130.85 203.13 128.009 207.845 127.25V124.9C207.845 124.143 208.458 123.53 209.214 123.53H210.592C211.348 123.53 211.961 124.143 211.961 124.9V127.01C214.226 127.101 215.876 127.488 217.184 127.948C217.856 128.184 218.222 128.906 218.035 129.593L217.485 131.617C217.274 132.398 216.441 132.826 215.685 132.54C214.479 132.084 212.776 131.609 210.561 131.609C207.764 131.609 206.964 132.769 206.964 133.808C206.964 135.088 208.643 135.968 212.279 137.087C217.474 138.647 219.633 140.807 219.633 144.686C219.633 148.246 216.995 151.444 211.88 152.245V154.876C211.88 155.633 211.268 156.246 210.511 156.246H209.131C208.377 156.244 207.764 155.631 207.764 154.874Z" fill="#4C2A6E"/>
<path d="M83.0415 60.8269C94.3279 60.8269 103.477 51.6707 103.477 40.376C103.477 29.0812 94.3279 19.925 83.0415 19.925C71.755 19.925 62.6055 29.0812 62.6055 40.376C62.6055 51.6707 71.755 60.8269 83.0415 60.8269Z" fill="url(#paint11_linear_181_3583)"/>
<path d="M83.041 60.1462C93.9518 60.1462 102.797 51.2947 102.797 40.3759C102.797 29.4571 93.9518 20.6057 83.041 20.6057C72.1301 20.6057 63.2852 29.4571 63.2852 40.3759C63.2852 51.2947 72.1301 60.1462 83.041 60.1462Z" fill="url(#paint12_linear_181_3583)"/>
<path opacity="0.63" d="M66.7498 32.4478C66.7062 32.4478 66.6626 32.4391 66.6211 32.4173C66.4816 32.3453 66.4249 32.1751 66.4947 32.0333C69.6667 25.7457 76.0063 21.8384 83.0393 21.8384C84.162 21.8384 85.2847 21.9387 86.3813 22.1394C86.5361 22.1678 86.6386 22.3162 86.6102 22.4711C86.5819 22.626 86.4336 22.7307 86.2788 22.7001C85.2171 22.506 84.1271 22.4078 83.0393 22.4078C76.2222 22.4078 70.0766 26.193 67.0027 32.2885C66.9547 32.3911 66.8544 32.4478 66.7498 32.4478Z" fill="white"/>
<path opacity="0.72" d="M83.4711 57.5412C92.706 57.5412 100.192 50.0494 100.192 40.8078C100.192 31.5662 92.706 24.0745 83.4711 24.0745C74.2363 24.0745 66.75 31.5662 66.75 40.8078C66.75 50.0494 74.2363 57.5412 83.4711 57.5412Z" fill="white"/>
<path d="M81.8283 53.2477V51.4282C79.9316 51.3519 78.0568 50.9046 76.7248 50.3199C76.2495 50.1127 76.0075 49.5782 76.1427 49.0764L76.6049 47.3812C76.7749 46.7595 77.4507 46.4366 78.0437 46.6875C79.3648 47.2416 80.9977 47.6801 82.757 47.6801C84.5839 47.6801 85.9465 47.0605 85.9465 45.7908C85.9465 44.6454 84.8935 43.9626 82.3559 43.2819C78.7326 42.2914 76.134 40.7097 76.134 37.5201C76.134 34.6382 78.2399 32.439 81.8915 31.85V30.0283C81.8915 29.4414 82.3668 28.968 82.951 28.968H84.0193C84.6057 28.968 85.0788 29.4436 85.0788 30.0283V31.6624C86.8337 31.7322 88.1113 32.0333 89.125 32.3889C89.6439 32.5721 89.9273 33.1306 89.7834 33.663L89.3583 35.2316C89.1948 35.8359 88.5495 36.1675 87.963 35.945C87.0299 35.5915 85.711 35.225 83.9953 35.225C81.8283 35.225 81.2092 36.1239 81.2092 36.9289C81.2092 37.9194 82.5085 38.6022 85.3273 39.4705C89.3517 40.6792 91.0238 42.3525 91.0238 45.3567C91.0238 48.1143 88.9811 50.5927 85.0177 51.2123V53.2499C85.0177 53.8368 84.5425 54.3102 83.9582 54.3102H82.89C82.3036 54.308 81.8283 53.8324 81.8283 53.2477Z" fill="#4C2A6E"/>
<path d="M103.767 306C103.082 306 102.478 305.559 102.36 304.935L80.1411 187.237C80.0103 186.541 80.5336 185.882 81.3118 185.766C82.0901 185.651 82.827 186.118 82.9578 186.814L105.175 304.512C105.306 305.208 104.782 305.867 104.004 305.983C103.926 305.993 103.845 306 103.767 306Z" fill="#91B3FA"/>
<path d="M28.8127 306C28.719 306 28.6252 305.991 28.5293 305.974C27.7554 305.834 27.2562 305.162 27.411 304.471L53.6023 188.304C53.7571 187.612 54.5092 187.16 55.2853 187.304C56.0593 187.444 56.5585 188.116 56.4037 188.808L30.2123 304.975C30.075 305.581 29.4777 306 28.8127 306Z" fill="#91B3FA"/>
<path d="M86.814 216.325H48.8459C48.0567 216.325 47.418 215.753 47.418 215.049C47.418 214.344 48.0567 213.772 48.8459 213.772H86.814C87.6032 213.772 88.242 214.344 88.242 215.049C88.242 215.753 87.6032 216.325 86.814 216.325Z" fill="#91B3FA"/>
<path d="M86.1261 216.325H49.5358C48.7749 216.325 48.1602 215.753 48.1602 215.049C48.1602 214.344 48.7771 213.772 49.5358 213.772H86.1261C86.8869 213.772 87.5017 214.344 87.5017 215.049C87.5017 215.753 86.8869 216.325 86.1261 216.325Z" fill="#91B3FA"/>
<path d="M86.814 237.605H48.8459C48.0567 237.605 47.418 237.033 47.418 236.329C47.418 235.624 48.0567 235.052 48.8459 235.052H86.814C87.6032 235.052 88.242 235.624 88.242 236.329C88.242 237.033 87.6032 237.605 86.814 237.605Z" fill="#91B3FA"/>
<path d="M90.2627 237.605H44.2326C43.4434 237.605 42.8047 237.033 42.8047 236.329C42.8047 235.624 43.4434 235.052 44.2326 235.052H90.2648C91.054 235.052 91.6928 235.624 91.6928 236.329C91.6906 237.033 91.0518 237.605 90.2627 237.605Z" fill="#91B3FA"/>
<path d="M86.814 258.887H48.8459C48.0567 258.887 47.418 258.315 47.418 257.611C47.418 256.906 48.0567 256.334 48.8459 256.334H86.814C87.6032 256.334 88.242 256.906 88.242 257.611C88.242 258.315 87.6032 258.887 86.814 258.887Z" fill="#91B3FA"/>
<path d="M94.6599 258.887H39.5608C38.7716 258.887 38.1328 258.315 38.1328 257.611C38.1328 256.906 38.7716 256.334 39.5608 256.334H94.6599C95.4491 256.334 96.0878 256.906 96.0878 257.611C96.0878 258.315 95.4491 258.887 94.6599 258.887Z" fill="#91B3FA"/>
<path d="M86.8162 280.169H35.1311C34.3419 280.169 33.7031 279.597 33.7031 278.893C33.7031 278.188 34.3419 277.616 35.1311 277.616H86.8162C87.6054 277.616 88.2441 278.188 88.2441 278.893C88.2441 279.597 87.6054 280.169 86.8162 280.169Z" fill="#91B3FA"/>
<path d="M98.2158 280.169H35.1311C34.3419 280.169 33.7031 279.597 33.7031 278.893C33.7031 278.188 34.3419 277.616 35.1311 277.616H98.2158C99.005 277.616 99.6437 278.188 99.6437 278.893C99.6437 279.597 99.005 280.169 98.2158 280.169Z" fill="#91B3FA"/>
<path d="M52.657 208.724C52.657 208.724 51.7305 210.186 51.4972 214.279C51.4754 214.66 51.7763 214.985 52.1599 214.985H59.4065C59.6986 214.985 59.9057 214.7 59.812 214.423C59.3869 213.164 58.1028 210.099 55.2382 208.347L52.657 208.724Z" fill="url(#paint13_linear_181_3583)"/>
<path d="M52.3438 205.951L52.7536 209.392C52.7885 209.688 53.0218 209.926 53.3182 209.961C53.715 210.007 54.2906 210.04 54.8508 209.946C55.3588 209.861 55.725 209.409 55.725 208.892V205.572L52.3438 205.951Z" fill="url(#paint14_linear_181_3583)"/>
<path d="M70.5891 208.344C70.5891 208.344 69.2026 210.502 69.2309 213.463C69.2374 214.161 69.8217 214.715 70.5193 214.715H81.775C82.3026 214.715 82.5163 214.036 82.0846 213.733C79.9547 212.237 75.7689 209.44 72.7408 208.342H70.5891V208.344Z" fill="url(#paint15_linear_181_3583)"/>
<path d="M69.4297 204.631L70.3039 208.879C70.402 209.355 70.8664 209.673 71.3394 209.568C71.6272 209.505 71.9673 209.381 72.3292 209.154C72.6736 208.938 72.848 208.528 72.7783 208.128L71.8736 202.982L69.4297 204.631Z" fill="url(#paint16_linear_181_3583)"/>
<path d="M53.9496 145.571C53.9496 145.571 50.9105 148.253 50.3372 151.479C49.766 154.706 51.957 207.151 51.957 207.151C51.957 207.151 54.996 207.657 56.5635 206.706C56.5635 206.706 58.4231 172.67 59.8358 164.805C59.8358 164.805 67.2436 200.063 69.2973 206.433C69.2973 206.433 72.2251 206.789 73.1713 206.232C73.1713 206.232 71.231 160.529 68.7915 152.404L53.9496 145.571Z" fill="url(#paint17_linear_181_3583)"/>
<path d="M59.7476 163.705C59.7759 163.705 59.8043 163.701 59.8326 163.695C60.0114 163.649 60.1182 163.465 60.0724 163.287L58.7818 158.33C58.76 158.249 58.7099 158.177 58.6379 158.131L55.8475 156.34C55.6927 156.24 55.4856 156.286 55.3853 156.441C55.285 156.595 55.3308 156.803 55.4856 156.903L58.1649 158.622L59.4228 163.452C59.4642 163.605 59.5994 163.705 59.7476 163.705Z" fill="url(#paint18_linear_181_3583)"/>
<path d="M83.9459 115.268C71.1489 114.206 67.8047 116.854 67.8047 116.854L73.9547 126.569C73.9547 126.569 86.5293 126.32 95.5396 119.372C93.8544 117.555 92.6815 115.545 91.9315 113.983C89.6054 114.95 86.9305 115.515 83.9459 115.268Z" fill="url(#paint19_linear_181_3583)"/>
<path d="M103.985 96.4688C103.968 96.0587 103.412 95.9474 103.238 96.3183L101.605 99.8046C101.289 100.479 101.188 101.234 101.315 101.967L101.888 103.996C102.06 104.986 101.801 105.998 101.175 106.784C99.6755 108.66 96.4795 112.09 91.9297 113.981C92.6818 115.545 93.8525 117.552 95.5377 119.37C98.8427 116.819 101.67 113.368 103.218 108.695C103.959 108.466 104.456 107.768 104.426 106.991L103.985 96.4688Z" fill="url(#paint20_linear_181_3583)"/>
<path d="M88.1591 120.901C83.6551 116.043 75.0722 113.848 70.106 112.947C67.9302 112.552 65.7829 113.763 65.0133 115.838C62.7766 121.852 56.6963 137.499 55.5191 140.189C54.5511 142.395 53.5418 144.55 52.9008 145.896C52.5171 146.702 52.8529 147.664 53.6551 148.052C57.8343 150.068 65.3556 152.35 68.4055 153.24C69.077 153.436 69.7441 152.932 69.7441 152.232C69.7441 151.639 69.9054 151.056 70.2106 150.548L81.7584 131.29C88.957 139.277 95.2596 140.008 100.102 138.258C99.2884 135.741 98.7543 133.217 98.4992 130.69C91.3442 129.464 88.1591 120.901 88.1591 120.901Z" fill="url(#paint21_linear_181_3583)"/>
<path d="M114.517 124.717L112.741 122.524C108.561 125.398 101.356 131.183 98.4961 130.693C98.7512 133.221 99.2853 135.743 100.098 138.261C106.477 135.957 114.517 124.717 114.517 124.717Z" fill="url(#paint22_linear_181_3583)"/>
<path d="M112.227 122.88L117.91 127.431L125.518 128.397C125.102 127.342 119.999 125.103 119.999 125.103C119.999 125.103 115.937 121.034 114.701 120.12C113.674 119.359 112.73 120.947 112.44 121.508C112.381 121.621 112.349 121.693 112.349 121.693L112.227 122.88Z" fill="url(#paint23_linear_181_3583)"/>
<path d="M76.9385 104.024L73.1016 113.394C73.1016 113.394 77.5118 116.448 81.0588 116.158L82.9751 107.733L76.9385 104.024Z" fill="url(#paint24_linear_181_3583)"/>
<path d="M83.4221 97.6359C83.5093 97.7602 86.1973 107.48 86.1973 107.48L80.6185 108.898L76.7031 100.064C76.7031 100.064 81.9506 95.5502 83.4221 97.6359Z" fill="url(#paint25_linear_181_3583)"/>
<path d="M78.8055 101.406L80.5037 106.216C80.5255 106.277 80.5539 106.334 80.5931 106.389C80.8242 106.716 81.6984 107.785 82.7361 106.823C83.6779 105.95 84.55 105.167 85.3566 105.025C85.7185 104.962 86.0695 105.182 86.1676 105.536C86.4117 106.419 86.9241 108.42 87.105 110.224C87.1421 110.591 86.8892 110.922 86.5273 110.99C85.4373 111.197 83.1286 111.57 81.1992 111.433C80.9376 111.415 80.7087 111.258 80.5997 111.018C80.0677 109.855 78.4392 106.33 77.8353 105.418C77.2663 104.56 75.8733 104.587 75.289 104.637C75.0972 104.654 74.9097 104.591 74.7636 104.465C74.2535 104.015 73.279 102.872 74.6481 101.5C74.9337 101.214 74.9271 100.749 74.6306 100.472C74.042 99.9179 73.4142 98.9384 74.393 97.721C75.3893 96.484 76.7017 96.6803 77.5083 96.9749C77.8332 97.0927 78.1885 96.9552 78.3651 96.6585C78.4654 96.4883 78.642 96.3596 78.9472 96.3858C79.357 96.4207 79.7037 96.0782 79.6949 95.6659C79.6797 94.8739 79.9631 93.8725 81.3365 93.4449C83.7739 92.6857 85.2934 95.0419 85.4438 96.8003C85.5942 98.5587 82.9062 99.2307 81.3256 99.1129C80.1244 99.0234 79.2306 100.215 78.8731 100.793C78.7575 100.98 78.7335 101.203 78.8055 101.406Z" fill="url(#paint26_linear_181_3583)"/>
<path d="M78.4662 107.167C78.4662 107.167 78.0716 104.115 76.805 103.967C75.5362 103.816 74.3023 104.861 75.5623 106.574C77.1298 108.703 78.4662 107.167 78.4662 107.167Z" fill="url(#paint27_linear_181_3583)"/>
<path d="M142.659 131.12C165.852 131.12 184.653 112.305 184.653 89.0947C184.653 65.8847 165.852 47.0693 142.659 47.0693C119.466 47.0693 100.664 65.8847 100.664 89.0947C100.664 112.305 119.466 131.12 142.659 131.12Z" fill="url(#paint28_linear_181_3583)"/>
<path d="M142.656 129.722C165.077 129.722 183.253 111.532 183.253 89.0947C183.253 66.6571 165.077 48.4678 142.656 48.4678C120.235 48.4678 102.059 66.6571 102.059 89.0947C102.059 111.532 120.235 129.722 142.656 129.722Z" fill="url(#paint29_linear_181_3583)"/>
<path opacity="0.63" d="M109.181 72.6645C109.114 72.6645 109.044 72.6492 108.981 72.6165C108.76 72.5052 108.671 72.2369 108.782 72.0165C115.277 59.1425 128.257 51.1445 142.658 51.1445C144.956 51.1445 147.258 51.3518 149.499 51.7598C149.741 51.8034 149.903 52.0368 149.859 52.279C149.816 52.5212 149.582 52.6848 149.34 52.639C147.151 52.2397 144.904 52.0368 142.658 52.0368C128.597 52.0368 115.922 59.8472 109.58 72.4179C109.502 72.575 109.345 72.6645 109.181 72.6645Z" fill="white"/>
<path opacity="0.72" d="M167.837 114.294C181.256 100.866 181.256 79.0943 167.837 65.6662C154.419 52.2381 132.664 52.2381 119.245 65.6662C105.827 79.0943 105.827 100.866 119.245 114.294C132.664 127.722 154.419 127.722 167.837 114.294Z" fill="white"/>
<path d="M140.169 115.543V111.801C136.271 111.644 132.417 110.724 129.679 109.526C128.702 109.098 128.203 107.999 128.484 106.969L129.435 103.485C129.783 102.207 131.172 101.545 132.393 102.058C135.109 103.197 138.462 104.098 142.077 104.098C145.831 104.098 148.63 102.824 148.63 100.215C148.63 97.8585 146.468 96.4578 141.251 95.0572C133.808 93.0195 128.462 89.7732 128.462 83.2152C128.462 77.2941 132.79 72.7737 140.296 71.5651V67.8235C140.296 66.6192 141.27 65.644 142.474 65.644H144.671C145.875 65.644 146.849 66.6192 146.849 67.8235V71.1833C150.455 71.3273 153.08 71.9447 155.164 72.6777C156.232 73.053 156.814 74.2027 156.518 75.2957L155.643 78.518C155.308 79.7616 153.98 80.4423 152.777 79.9863C150.858 79.2598 148.146 78.5049 144.623 78.5049C140.169 78.5049 138.898 80.3506 138.898 82.0065C138.898 84.0442 141.571 85.4448 147.359 87.2272C155.63 89.71 159.066 93.1483 159.066 99.3245C159.066 104.99 154.867 110.085 146.725 111.359V115.545C146.725 116.749 145.75 117.725 144.547 117.725H142.349C141.144 117.723 140.169 116.747 140.169 115.543Z" fill="#4C2A6E"/>
<path d="M341.364 211.767L342.886 211.1C343.165 210.978 343.293 210.65 343.171 210.371C343.049 210.092 342.724 209.963 342.443 210.085H342.441L342.428 210.092L340.935 210.753L340.922 210.759C340.645 210.882 340.518 211.207 340.64 211.484C340.765 211.763 341.087 211.889 341.364 211.767Z" fill="white"/>
<path d="M346.37 209.396L347.831 208.604C348.103 208.456 348.206 208.113 348.058 207.84C347.909 207.568 347.569 207.465 347.295 207.613H347.292L347.279 207.62L345.847 208.405L345.834 208.412C345.564 208.56 345.463 208.901 345.612 209.171C345.762 209.444 346.1 209.544 346.37 209.396Z" fill="white"/>
<path d="M351.161 206.612L352.552 205.702C352.815 205.53 352.889 205.174 352.717 204.91C352.545 204.646 352.19 204.572 351.926 204.745H351.924L351.913 204.751L350.548 205.652L350.537 205.659C350.276 205.831 350.201 206.184 350.376 206.448C350.548 206.712 350.899 206.787 351.161 206.612Z" fill="white"/>
<path d="M355.707 203.451L357.022 202.432C357.277 202.236 357.322 201.869 357.126 201.614C356.93 201.359 356.564 201.313 356.309 201.509L356.307 201.511L356.296 201.52L355.007 202.526L354.996 202.535C354.743 202.731 354.7 203.095 354.896 203.348C355.092 203.601 355.454 203.647 355.707 203.451Z" fill="white"/>
<path d="M359.991 199.941L361.223 198.824C361.465 198.603 361.485 198.228 361.264 197.986C361.044 197.744 360.669 197.724 360.427 197.944L360.425 197.947L360.414 197.955L359.206 199.057L359.196 199.066C358.956 199.286 358.938 199.659 359.158 199.899C359.381 200.141 359.751 200.159 359.991 199.941Z" fill="white"/>
<path d="M363.998 196.112L365.142 194.907C365.371 194.665 365.363 194.283 365.121 194.054C364.879 193.825 364.497 193.834 364.268 194.076L364.266 194.078L364.257 194.089L363.137 195.278L363.128 195.289C362.901 195.529 362.912 195.911 363.152 196.138C363.392 196.363 363.769 196.354 363.998 196.112Z" fill="white"/>
<path d="M367.704 191.999L368.757 190.714C368.971 190.453 368.934 190.066 368.672 189.85C368.411 189.637 368.025 189.674 367.809 189.935L367.807 189.938L367.798 189.949L366.767 191.216L366.758 191.227C366.545 191.489 366.586 191.873 366.845 192.084C367.109 192.298 367.491 192.261 367.704 191.999Z" fill="white"/>
<path d="M371.108 187.627L372.067 186.268C372.266 185.987 372.2 185.598 371.919 185.4C371.638 185.201 371.25 185.267 371.052 185.548L371.049 185.55L371.043 185.561L370.103 186.903L370.097 186.914C369.9 187.195 369.968 187.581 370.247 187.778C370.526 187.974 370.91 187.909 371.108 187.627Z" fill="white"/>
<path d="M374.195 183.026L375.056 181.606C375.237 181.307 375.141 180.916 374.842 180.735C374.543 180.554 374.153 180.65 373.972 180.949L373.97 180.951L373.964 180.962L373.12 182.363L373.113 182.374C372.935 182.673 373.031 183.059 373.329 183.238C373.63 183.419 374.016 183.323 374.195 183.026Z" fill="white"/>
<path d="M376.947 178.22L377.708 176.743C377.871 176.427 377.747 176.038 377.431 175.877C377.115 175.713 376.727 175.838 376.565 176.154V176.156L376.559 176.167L375.815 177.624L375.809 177.635C375.648 177.949 375.772 178.336 376.088 178.497C376.402 178.658 376.786 178.536 376.947 178.22Z" fill="white"/>
<path d="M379.366 173.237L380.025 171.71C380.166 171.378 380.014 170.994 379.682 170.85C379.351 170.709 378.967 170.861 378.823 171.193V171.195L378.819 171.208L378.178 172.713L378.174 172.727C378.032 173.058 378.187 173.44 378.516 173.58C378.845 173.719 379.227 173.566 379.366 173.237Z" fill="white"/>
<path d="M381.436 168.095L381.985 166.526C382.108 166.182 381.924 165.802 381.58 165.68C381.233 165.558 380.856 165.741 380.734 166.086V166.088L380.73 166.101L380.193 167.645L380.189 167.659C380.069 168.003 380.252 168.378 380.597 168.498C380.941 168.621 381.316 168.44 381.436 168.095Z" fill="white"/>
<path d="M383.14 162.822L383.578 161.218C383.676 160.861 383.465 160.49 383.107 160.391C382.748 160.293 382.379 160.505 382.281 160.863V160.865L382.277 160.878L381.852 162.455L381.847 162.468C381.751 162.826 381.963 163.195 382.32 163.291C382.676 163.389 383.044 163.18 383.14 162.822Z" fill="white"/>
<path d="M384.471 157.44L384.796 155.805C384.87 155.435 384.628 155.075 384.26 155.003C383.889 154.928 383.53 155.171 383.458 155.539V155.542L383.456 155.557L383.144 157.162L383.142 157.178C383.07 157.546 383.312 157.904 383.68 157.976C384.042 158.048 384.399 157.808 384.471 157.44Z" fill="white"/>
<path d="M385.41 151.97L385.613 150.319C385.658 149.939 385.39 149.592 385.009 149.544C384.629 149.496 384.283 149.767 384.235 150.148V150.151L384.233 150.166L384.038 151.787L384.036 151.802C383.991 152.182 384.261 152.524 384.64 152.57C385.022 152.618 385.364 152.35 385.41 151.97Z" fill="white"/>
<path d="M385.943 146.448L386.022 144.788C386.039 144.4 385.741 144.07 385.352 144.051C384.964 144.033 384.635 144.332 384.616 144.721V144.723V144.738L384.544 146.368V146.383C384.526 146.769 384.827 147.096 385.213 147.114C385.599 147.131 385.926 146.835 385.943 146.448Z" fill="white"/>
<path d="M386.052 140.9L385.999 139.236C385.986 138.845 385.659 138.538 385.269 138.549C384.879 138.562 384.571 138.889 384.582 139.279V139.297L384.635 140.929V140.946C384.648 141.337 384.975 141.644 385.365 141.631C385.76 141.618 386.065 141.293 386.052 140.9Z" fill="white"/>
<path d="M385.722 135.359L385.537 133.703C385.493 133.313 385.14 133.031 384.75 133.075C384.359 133.118 384.078 133.472 384.122 133.862L384.124 133.88L384.307 135.501L384.309 135.518C384.353 135.909 384.706 136.19 385.096 136.144C385.486 136.101 385.768 135.749 385.722 135.359Z" fill="white"/>
<path d="M384.949 129.859L384.629 128.223C384.552 127.834 384.175 127.581 383.789 127.658C383.401 127.734 383.148 128.111 383.225 128.498L383.229 128.515L383.545 130.114L383.549 130.132C383.626 130.52 384.003 130.771 384.389 130.695C384.772 130.623 385.025 130.247 384.949 129.859Z" fill="white"/>
<path d="M383.717 124.442C383.569 123.905 383.417 123.371 383.26 122.838C383.146 122.457 382.745 122.241 382.366 122.354C381.984 122.468 381.768 122.869 381.882 123.249V123.253C382.039 123.774 382.187 124.296 382.333 124.819V124.824C382.44 125.206 382.834 125.43 383.216 125.326C383.6 125.221 383.824 124.826 383.717 124.442Z" fill="white"/>
<path d="M382.031 119.149L381.438 117.589C381.296 117.216 380.878 117.029 380.505 117.171C380.132 117.312 379.945 117.731 380.086 118.104L380.093 118.122L380.675 119.647L380.682 119.664C380.823 120.037 381.242 120.223 381.612 120.081C381.987 119.937 382.173 119.52 382.031 119.149Z" fill="white"/>
<path d="M379.905 114.016L379.186 112.513C379.013 112.151 378.58 111.998 378.218 112.17C377.856 112.343 377.703 112.777 377.875 113.139L377.884 113.154L378.591 114.625L378.599 114.64C378.771 115.002 379.205 115.153 379.567 114.98C379.927 114.808 380.08 114.376 379.905 114.016Z" fill="white"/>
<path d="M377.368 109.074L376.531 107.635C376.328 107.285 375.882 107.168 375.535 107.371C375.186 107.573 375.068 108.021 375.271 108.368L375.28 108.383L376.102 109.792L376.11 109.807C376.313 110.154 376.76 110.272 377.107 110.069C377.453 109.869 377.571 109.423 377.368 109.074Z" fill="white"/>
<path d="M374.451 104.351L373.505 102.979C373.276 102.645 372.818 102.562 372.485 102.791C372.151 103.02 372.068 103.478 372.297 103.812L372.306 103.825L373.235 105.167L373.243 105.18C373.474 105.514 373.93 105.597 374.261 105.366C374.597 105.139 374.68 104.685 374.451 104.351Z" fill="white"/>
<path d="M371.18 99.8678L370.134 98.5719C369.879 98.2555 369.414 98.2053 369.098 98.4606C368.782 98.7158 368.732 99.1805 368.987 99.4969L368.998 99.51L370.025 100.78L370.036 100.793C370.291 101.109 370.755 101.157 371.069 100.902C371.387 100.647 371.437 100.184 371.18 99.8678Z" fill="white"/>
<path d="M367.589 95.6398L366.453 94.4246C366.174 94.1257 365.705 94.1104 365.406 94.3897C365.108 94.669 365.092 95.138 365.371 95.4369L365.382 95.4478L366.499 96.639L366.51 96.6499C366.789 96.9488 367.257 96.9619 367.554 96.6826C367.852 96.4056 367.868 95.9387 367.589 95.6398Z" fill="white"/>
<path d="M363.695 91.6865L362.472 90.5542C362.171 90.275 361.7 90.2924 361.421 90.5957C361.142 90.8967 361.159 91.368 361.462 91.6472L361.473 91.6581L362.674 92.7664L362.685 92.7773C362.986 93.0566 363.457 93.037 363.734 92.7359C364.015 92.4348 363.998 91.9658 363.695 91.6865Z" fill="white"/>
<path d="M359.535 88.0171L358.238 86.9742C357.916 86.7146 357.447 86.767 357.188 87.0899C356.93 87.4127 356.98 87.8818 357.303 88.1414L357.316 88.1523L358.589 89.1733L358.602 89.1843C358.923 89.4417 359.394 89.3893 359.651 89.0686C359.906 88.7436 359.856 88.2745 359.535 88.0171Z" fill="white"/>
<path d="M355.131 84.6506L353.764 83.7016C353.424 83.466 352.955 83.5489 352.72 83.8892C352.484 84.2296 352.567 84.6986 352.907 84.9343L352.92 84.943L354.261 85.8724L354.274 85.8811C354.614 86.1167 355.081 86.0316 355.316 85.6913C355.554 85.3531 355.471 84.8863 355.131 84.6506Z" fill="white"/>
<path d="M350.502 81.5964L349.074 80.7434C348.716 80.5296 348.254 80.6474 348.04 81.0052C347.827 81.363 347.944 81.8255 348.302 82.0393L348.315 82.048L349.717 82.8836L349.73 82.8923C350.087 83.1061 350.549 82.9883 350.761 82.6305C350.975 82.2706 350.857 81.8081 350.502 81.5964Z" fill="white"/>
<path d="M345.675 78.8692L344.19 78.1166C343.817 77.9268 343.362 78.0773 343.172 78.4504C342.982 78.8234 343.133 79.2794 343.505 79.4692L343.519 79.4758L344.975 80.211L344.988 80.2175C345.361 80.4051 345.816 80.2568 346.004 79.8837C346.196 79.5128 346.047 79.0569 345.675 78.8692Z" fill="white"/>
<path d="M340.667 76.4848L339.134 75.839C338.746 75.6754 338.302 75.8586 338.138 76.2448C337.975 76.6331 338.158 77.0782 338.544 77.2418L338.559 77.2483L340.063 77.881L340.078 77.8876C340.464 78.049 340.911 77.8679 341.072 77.4818C341.236 77.0913 341.055 76.6462 340.667 76.4848Z" fill="white"/>
<path d="M335.503 74.4579L333.925 73.9212C333.526 73.7859 333.092 73.9997 332.955 74.399C332.819 74.7982 333.033 75.2324 333.432 75.3698L333.447 75.3742L334.995 75.8978L335.01 75.9022C335.409 76.0374 335.843 75.8236 335.978 75.4244C336.116 75.0251 335.902 74.5932 335.503 74.4579Z" fill="white"/>
<path d="M330.204 72.8064L328.593 72.3875C328.183 72.2806 327.765 72.5271 327.658 72.9373C327.551 73.3474 327.797 73.7685 328.207 73.8732L328.225 73.8776L329.803 74.2855L329.82 74.2899C330.23 74.3968 330.649 74.1503 330.756 73.7401C330.86 73.33 330.614 72.9133 330.204 72.8064Z" fill="white"/>
<path d="M324.8 71.5498L323.162 71.2531C322.744 71.1767 322.343 71.456 322.266 71.8748C322.19 72.2937 322.469 72.6951 322.888 72.7715L322.905 72.7737L324.508 73.0638L324.525 73.066C324.944 73.1424 325.345 72.8631 325.419 72.4442C325.495 72.0254 325.218 71.6261 324.8 71.5498Z" fill="white"/>
<path d="M319.316 70.7055L317.659 70.5353C317.234 70.4917 316.852 70.8015 316.809 71.2269C316.765 71.6524 317.075 72.0342 317.5 72.0778L317.517 72.08L319.139 72.2436L319.157 72.2458C319.582 72.2894 319.961 71.9796 320.005 71.5542C320.051 71.1266 319.741 70.747 319.316 70.7055Z" fill="white"/>
<path d="M313.778 70.291L312.112 70.2539C311.683 70.243 311.327 70.5855 311.317 71.0153C311.308 71.4451 311.648 71.8007 312.077 71.8116H312.097L313.726 71.8465H313.745C314.175 71.8553 314.53 71.5149 314.539 71.0851C314.545 70.6553 314.207 70.2997 313.778 70.291Z" fill="white"/>
<path d="M308.224 70.3237L306.56 70.4241C306.128 70.4503 305.801 70.8212 305.825 71.2509C305.852 71.6829 306.222 72.0102 306.652 71.9862L306.671 71.984L308.298 71.8858L308.317 71.8836C308.747 71.8574 309.076 71.4866 309.05 71.0568C309.021 70.6248 308.653 70.2976 308.224 70.3237Z" fill="white"/>
<path d="M302.69 70.8166L301.04 71.0566C300.611 71.1199 300.314 71.5169 300.375 71.9467C300.438 72.3765 300.835 72.6732 301.265 72.6121L301.284 72.6099L302.895 72.3743L302.915 72.3721C303.344 72.3089 303.641 71.9118 303.578 71.482C303.514 71.05 303.118 70.7533 302.69 70.8166Z" fill="white"/>
<path d="M297.215 71.7614L295.591 72.1214C295.166 72.2152 294.898 72.6363 294.991 73.0617C295.085 73.4871 295.506 73.7555 295.931 73.6617L295.946 73.6573L297.538 73.3017L297.553 73.2973C297.978 73.2035 298.244 72.7824 298.15 72.357C298.061 71.9338 297.64 71.6654 297.215 71.7614Z" fill="white"/>
<path d="M291.833 73.0921L290.237 73.5634C289.818 73.6877 289.576 74.1284 289.701 74.5473C289.825 74.9662 290.265 75.2083 290.684 75.084L290.699 75.0796L292.262 74.6171L292.277 74.6128C292.696 74.4884 292.936 74.0477 292.812 73.6288C292.692 73.2078 292.251 72.9678 291.833 73.0921Z" fill="white"/>
<path d="M286.555 74.7808L284.994 75.3524C284.582 75.5029 284.371 75.9611 284.521 76.3734C284.672 76.7858 285.129 76.9974 285.541 76.8468L285.554 76.8425L287.085 76.2796L287.098 76.2753C287.51 76.1247 287.721 75.6666 287.569 75.2542C287.423 74.8397 286.967 74.6281 286.555 74.7808Z" fill="white"/>
<path d="M281.397 76.7966L279.876 77.4599C279.47 77.6366 279.285 78.1078 279.461 78.5114C279.638 78.9172 280.109 79.1026 280.512 78.9259L280.525 78.9216L282.021 78.2671L282.034 78.2627C282.437 78.086 282.622 77.6148 282.446 77.2111C282.269 76.8054 281.801 76.6199 281.397 76.7966Z" fill="white"/>
<path d="M276.367 79.1006L274.882 79.8423C274.485 80.0409 274.324 80.523 274.522 80.9201C274.721 81.3171 275.203 81.4786 275.599 81.28L275.61 81.2757L277.071 80.5426L277.082 80.5361C277.479 80.3376 277.638 79.8554 277.439 79.4605C277.243 79.0635 276.761 78.902 276.367 79.1006Z" fill="white"/>
<path d="M271.463 81.6573L270.018 82.4667C269.63 82.6849 269.49 83.1757 269.708 83.5641C269.926 83.9524 270.417 84.092 270.805 83.8739L270.814 83.8695L272.242 83.0688L272.25 83.0645C272.639 82.8463 272.776 82.3554 272.558 81.9671C272.342 81.5788 271.851 81.4391 271.463 81.6573Z" fill="white"/>
<path d="M266.683 84.4259L265.272 85.292C264.891 85.5255 264.773 86.0251 265.006 86.4069C265.24 86.7887 265.739 86.9065 266.12 86.673L266.127 86.6687L267.522 85.8091L267.531 85.8047C267.91 85.5713 268.03 85.0717 267.795 84.6921C267.559 84.3103 267.062 84.1925 266.683 84.4259Z" fill="white"/>
<path d="M262.014 87.3733L260.634 88.2875C260.259 88.5362 260.157 89.0401 260.405 89.4154C260.654 89.7906 261.157 89.8932 261.532 89.6444L261.539 89.6401L262.906 88.7325L262.912 88.7282C263.285 88.4794 263.388 87.9755 263.139 87.6024C262.891 87.2272 262.387 87.1246 262.014 87.3733Z" fill="white"/>
<path d="M257.447 90.4647L256.093 91.4159C255.725 91.6755 255.635 92.1838 255.895 92.5547C256.154 92.9234 256.662 93.0129 257.033 92.7532L257.037 92.7489L258.378 91.802L258.382 91.7977C258.75 91.538 258.838 91.0297 258.578 90.661C258.323 90.2945 257.815 90.2051 257.447 90.4647Z" fill="white"/>
<path d="M252.964 93.6741L251.634 94.6558C251.27 94.9242 251.192 95.439 251.46 95.8034C251.728 96.1677 252.243 96.2462 252.607 95.9779L252.611 95.9757L253.932 94.9983L253.937 94.9962C254.301 94.7278 254.377 94.2151 254.109 93.8508C253.839 93.4821 253.328 93.4057 252.964 93.6741Z" fill="white"/>
<path d="M248.555 96.9705L247.242 97.974C246.88 98.2511 246.811 98.7681 247.087 99.1281C247.364 99.4903 247.881 99.5601 248.241 99.283L248.243 99.2808L249.549 98.2816L249.551 98.2795C249.911 98.0024 249.98 97.4875 249.704 97.1254C249.429 96.7632 248.914 96.6956 248.555 96.9705Z" fill="white"/>
<path d="M244.197 100.33L242.895 101.349C242.536 101.631 242.473 102.15 242.754 102.51C243.035 102.87 243.554 102.933 243.914 102.652L243.916 102.649L245.213 101.633C245.573 101.351 245.638 100.832 245.357 100.472C245.076 100.112 244.557 100.051 244.197 100.33Z" fill="white"/>
<path d="M239.87 103.734L238.577 104.759C238.217 105.045 238.156 105.566 238.442 105.926C238.727 106.286 239.248 106.347 239.608 106.061L239.61 106.059L240.899 105.034C241.258 104.75 241.317 104.227 241.034 103.869C240.75 103.509 240.229 103.45 239.87 103.734Z" fill="white"/>
<path d="M235.566 107.152L234.276 108.178C233.916 108.463 233.855 108.989 234.143 109.349C234.428 109.709 234.954 109.77 235.313 109.482L236.602 108.455C236.962 108.167 237.02 107.643 236.733 107.283C236.449 106.925 235.926 106.867 235.566 107.152Z" fill="white"/>
<path d="M231.268 110.571L229.975 111.592C229.611 111.878 229.55 112.406 229.836 112.768C230.121 113.132 230.649 113.193 231.011 112.908L231.013 112.905L232.306 111.88C232.668 111.592 232.729 111.066 232.443 110.704C232.155 110.344 231.63 110.283 231.268 110.571Z" fill="white"/>
<path d="M226.955 113.963L225.656 114.974L225.653 114.976C225.287 115.262 225.22 115.789 225.505 116.156C225.791 116.523 226.318 116.59 226.685 116.304L227.986 115.29C228.352 115.004 228.418 114.476 228.132 114.112C227.851 113.743 227.321 113.678 226.955 113.963Z" fill="white"/>
<path d="M222.612 117.31L221.302 118.303L221.3 118.305C220.927 118.586 220.855 119.116 221.136 119.487C221.417 119.86 221.947 119.932 222.318 119.651L223.635 118.652C224.005 118.37 224.079 117.84 223.798 117.469C223.517 117.098 222.987 117.024 222.617 117.306L222.612 117.31Z" fill="white"/>
<path d="M218.22 120.589L216.893 121.556L216.888 121.558C216.509 121.833 216.426 122.365 216.701 122.742C216.976 123.122 217.505 123.205 217.885 122.93L219.221 121.955C219.598 121.68 219.681 121.15 219.406 120.77C219.132 120.393 218.602 120.31 218.223 120.585L218.22 120.589Z" fill="white"/>
<path d="M213.77 123.777L212.421 124.71L212.414 124.715C212.028 124.983 211.93 125.513 212.198 125.899C212.466 126.286 212.996 126.384 213.382 126.115L214.742 125.171C215.128 124.902 215.224 124.372 214.956 123.986C214.688 123.6 214.158 123.504 213.772 123.772L213.77 123.777Z" fill="white"/>
<path d="M209.242 126.846L207.864 127.741L207.858 127.745C207.461 128.002 207.35 128.533 207.607 128.927C207.864 129.322 208.394 129.436 208.789 129.178L210.178 128.273C210.572 128.016 210.683 127.485 210.426 127.09C210.169 126.696 209.639 126.584 209.244 126.842L209.242 126.846Z" fill="white"/>
<path d="M204.625 129.774L203.218 130.618L203.21 130.623C202.804 130.867 202.671 131.395 202.915 131.801C203.16 132.206 203.687 132.34 204.093 132.095L205.514 131.238C205.919 130.993 206.05 130.465 205.806 130.06C205.562 129.654 205.034 129.523 204.629 129.767L204.625 129.774Z" fill="white"/>
<path d="M199.905 132.521L198.469 133.308L198.46 133.313C198.044 133.542 197.889 134.065 198.118 134.482C198.347 134.899 198.87 135.054 199.286 134.825L200.74 134.026C201.157 133.797 201.309 133.273 201.08 132.857C200.851 132.44 200.328 132.287 199.912 132.516L199.905 132.521Z" fill="white"/>
<path d="M195.079 135.08L193.614 135.813L193.605 135.817C193.18 136.031 193.008 136.548 193.219 136.974C193.433 137.399 193.947 137.573 194.373 137.36L195.857 136.62C196.284 136.408 196.457 135.889 196.245 135.464C196.034 135.036 195.515 134.864 195.09 135.075H195.088L195.079 135.08Z" fill="white"/>
<path d="M190.168 137.456L188.677 138.13L188.668 138.134C188.237 138.33 188.045 138.837 188.241 139.269C188.435 139.7 188.943 139.892 189.375 139.696L190.885 139.015C191.317 138.821 191.509 138.313 191.315 137.879C191.121 137.447 190.613 137.255 190.179 137.449H190.177L190.168 137.456Z" fill="white"/>
<path d="M185.165 139.64L183.649 140.257L183.641 140.261C183.205 140.438 182.995 140.938 183.172 141.374C183.349 141.81 183.846 142.02 184.282 141.843L185.816 141.219C186.255 141.042 186.464 140.543 186.287 140.106C186.111 139.668 185.612 139.458 185.176 139.635H185.173L185.165 139.64Z" fill="white"/>
<path d="M180.081 141.634L178.544 142.194L178.535 142.196C178.095 142.358 177.868 142.844 178.027 143.285C178.189 143.726 178.673 143.953 179.115 143.793L180.672 143.228C181.112 143.069 181.341 142.58 181.182 142.14C181.023 141.699 180.535 141.47 180.094 141.629H180.092L180.081 141.634Z" fill="white"/>
<path d="M174.927 143.436L173.368 143.94L173.36 143.942C172.915 144.086 172.671 144.561 172.815 145.006C172.959 145.451 173.434 145.696 173.876 145.552L175.453 145.046C175.897 144.902 176.142 144.426 176 143.981C175.858 143.536 175.381 143.292 174.936 143.433H174.934L174.927 143.436Z" fill="white"/>
<path d="M169.712 145.046L168.136 145.491L168.128 145.493C167.681 145.619 167.421 146.084 167.548 146.531C167.674 146.978 168.136 147.238 168.583 147.112L170.177 146.664C170.624 146.538 170.885 146.073 170.759 145.626C170.632 145.179 170.168 144.917 169.721 145.043H169.719L169.712 145.046Z" fill="white"/>
<path d="M164.442 146.464L162.85 146.852L162.842 146.854C162.393 146.963 162.118 147.417 162.227 147.866C162.336 148.316 162.787 148.591 163.236 148.482L164.845 148.091C165.294 147.982 165.571 147.528 165.462 147.079C165.353 146.629 164.9 146.352 164.451 146.461H164.448L164.442 146.464Z" fill="white"/>
<path d="M159.118 147.69L157.514 148.019L157.505 148.021C157.054 148.113 156.764 148.554 156.857 149.005C156.949 149.457 157.389 149.747 157.841 149.653L159.465 149.322C159.916 149.23 160.208 148.789 160.114 148.338C160.023 147.886 159.583 147.594 159.131 147.688H159.129L159.118 147.69Z" fill="white"/>
<path d="M153.755 148.724L152.138 148.997L152.129 148.999C151.678 149.075 151.375 149.503 151.449 149.954C151.525 150.406 151.95 150.711 152.404 150.635L154.039 150.362C154.49 150.286 154.795 149.858 154.721 149.407C154.645 148.955 154.217 148.65 153.766 148.724H153.764H153.755Z" fill="white"/>
<path d="M148.355 149.566L146.729 149.782H146.72C146.269 149.841 145.95 150.255 146.011 150.709C146.07 151.161 146.484 151.479 146.936 151.418L148.58 151.202C149.031 151.143 149.351 150.729 149.292 150.275C149.234 149.821 148.819 149.503 148.366 149.562H148.364L148.355 149.566Z" fill="white"/>
<path d="M142.927 150.216L141.295 150.373H141.286C140.835 150.417 140.503 150.818 140.547 151.27C140.59 151.721 140.989 152.053 141.441 152.009L143.091 151.852C143.542 151.809 143.874 151.407 143.832 150.956C143.789 150.504 143.387 150.172 142.936 150.214H142.934L142.927 150.216Z" fill="white"/>
<path d="M137.479 150.672L135.842 150.772H135.833C135.384 150.801 135.04 151.187 135.068 151.639C135.096 152.088 135.482 152.433 135.931 152.404L137.586 152.306C138.037 152.28 138.38 151.892 138.353 151.44C138.327 150.988 137.939 150.644 137.488 150.672H137.486H137.479Z" fill="white"/>
<path d="M132.022 150.938L130.382 150.98H130.374C129.925 150.991 129.571 151.364 129.582 151.813C129.593 152.263 129.966 152.616 130.415 152.605L132.072 152.566C132.521 152.555 132.876 152.182 132.865 151.732C132.855 151.283 132.482 150.927 132.033 150.938H132.03H132.022Z" fill="white"/>
<path d="M126.556 151.01L124.914 150.995H124.905C124.458 150.991 124.094 151.348 124.09 151.796C124.086 152.243 124.443 152.607 124.89 152.612L126.549 152.631C126.996 152.636 127.362 152.278 127.369 151.83C127.373 151.383 127.016 151.017 126.569 151.01H126.566H126.556Z" fill="white"/>
<path d="M121.094 150.888L119.454 150.814H119.446C119.001 150.794 118.626 151.137 118.606 151.582C118.587 152.027 118.929 152.402 119.371 152.422L121.028 152.498C121.473 152.518 121.85 152.175 121.87 151.73C121.892 151.285 121.547 150.908 121.102 150.888H121.1H121.094Z" fill="white"/>
<path d="M115.636 150.574L114.001 150.441H113.993C113.552 150.406 113.166 150.733 113.131 151.174C113.097 151.615 113.424 152.001 113.864 152.036L115.516 152.171C115.957 152.208 116.345 151.879 116.382 151.438C116.419 150.997 116.09 150.609 115.649 150.572H115.647L115.636 150.574Z" fill="white"/>
<path d="M110.193 150.068L108.565 149.878H108.556C108.12 149.828 107.723 150.14 107.673 150.578C107.623 151.015 107.935 151.412 108.371 151.462L110.017 151.656C110.455 151.709 110.852 151.394 110.902 150.958C110.954 150.52 110.64 150.122 110.204 150.072H110.202L110.193 150.068Z" fill="white"/>
<path d="M104.773 149.365L103.151 149.117L103.142 149.115C102.71 149.049 102.305 149.346 102.24 149.778C102.174 150.21 102.468 150.615 102.902 150.681L104.54 150.934C104.973 151.002 105.379 150.705 105.444 150.271C105.512 149.837 105.215 149.431 104.782 149.365H104.779H104.773Z" fill="white"/>
<path d="M99.3762 148.469L97.7651 148.161L97.7564 148.159C97.3291 148.078 96.917 148.36 96.8342 148.787C96.7535 149.215 97.0326 149.627 97.4599 149.71L99.0862 150.022C99.5135 150.105 99.9277 149.823 100.011 149.396C100.093 148.968 99.8122 148.554 99.3849 148.471H99.3827L99.3762 148.469Z" fill="white"/>
<path d="M94.0232 147.38L92.4252 147.016L92.4164 147.013C91.9935 146.917 91.5728 147.181 91.4768 147.605C91.3809 148.028 91.6425 148.447 92.0655 148.545L93.6787 148.916C94.1016 149.014 94.5224 148.748 94.6205 148.327C94.7186 147.903 94.4526 147.482 94.0319 147.384H94.0297L94.0232 147.38Z" fill="white"/>
<path d="M88.7136 146.095L87.1309 145.672L87.1222 145.67C86.7058 145.558 86.2785 145.805 86.1673 146.221C86.0561 146.638 86.3025 147.066 86.7189 147.177L88.319 147.607C88.7354 147.718 89.1649 147.472 89.2761 147.055C89.3873 146.638 89.1409 146.208 88.7245 146.097H88.7224L88.7136 146.095Z" fill="white"/>
<path d="M83.4539 144.616L81.8886 144.134L81.8799 144.132C81.4701 144.005 81.0362 144.236 80.9098 144.646C80.7834 145.057 81.0123 145.491 81.4221 145.617L83.0048 146.106C83.4147 146.232 83.8507 146.003 83.9772 145.593C84.1036 145.183 83.8747 144.747 83.4648 144.62L83.4539 144.616Z" fill="white"/>
<path d="M78.2563 142.942L76.7107 142.401L76.7019 142.399C76.2986 142.26 75.8583 142.471 75.7187 142.875C75.5792 143.278 75.7907 143.719 76.1918 143.859L77.7549 144.406C78.1582 144.548 78.5986 144.336 78.7403 143.933C78.882 143.529 78.6684 143.089 78.2672 142.947L78.2563 142.942Z" fill="white"/>
<path d="M73.1212 141.075L71.5973 140.477L71.5886 140.475C71.194 140.32 70.7471 140.514 70.5923 140.909C70.4375 141.304 70.6316 141.749 71.0262 141.904L72.5653 142.51C72.9599 142.665 73.4068 142.471 73.5638 142.076C73.7185 141.681 73.5245 141.234 73.1299 141.077L73.1212 141.075Z" fill="white"/>
<path d="M68.0667 139.011L66.5668 138.355L66.558 138.35C66.1722 138.18 65.7209 138.357 65.553 138.745C65.383 139.131 65.5596 139.583 65.9454 139.751L67.4606 140.416C67.8465 140.586 68.2999 140.41 68.4678 140.023C68.6378 139.637 68.4613 139.184 68.0754 139.016L68.0667 139.011Z" fill="white"/>
<path d="M63.0944 136.755L61.6206 136.04L61.6119 136.035C61.2348 135.852 60.7791 136.009 60.596 136.389C60.4129 136.766 60.5698 137.222 60.947 137.403L62.436 138.127C62.8131 138.311 63.2688 138.154 63.4541 137.776C63.6372 137.399 63.4802 136.943 63.1031 136.757L63.0944 136.755Z" fill="white"/>
<path d="M58.2144 134.303L56.769 133.531L56.7603 133.526C56.3918 133.33 55.934 133.47 55.7378 133.836C55.5416 134.205 55.6789 134.663 56.0474 134.86L57.508 135.643C57.8765 135.841 58.3364 135.702 58.5327 135.333C58.731 134.964 58.5915 134.504 58.2231 134.308L58.2144 134.303Z" fill="white"/>
<path d="M53.4385 131.659L52.0345 130.821L52.0236 130.815C51.6661 130.603 51.2061 130.719 50.9924 131.076C50.781 131.434 50.8965 131.895 51.2519 132.108L52.6776 132.961C53.0352 133.175 53.4973 133.06 53.711 132.702C53.9246 132.344 53.8091 131.882 53.4516 131.668L53.4385 131.659Z" fill="white"/>
<path d="M48.8162 128.773L47.4689 127.85L47.4559 127.841C47.1158 127.608 46.6492 127.695 46.416 128.035C46.1827 128.376 46.2699 128.84 46.61 129.074L47.9813 130.016C48.3213 130.25 48.7879 130.165 49.0233 129.822C49.2566 129.482 49.1716 129.015 48.8293 128.779L48.8162 128.773Z" fill="white"/>
<path d="M44.4182 125.581L43.1537 124.555L43.1385 124.542C42.8202 124.283 42.3514 124.333 42.092 124.651C41.8326 124.97 41.8827 125.439 42.201 125.696L43.496 126.75C43.8143 127.01 44.2852 126.962 44.5446 126.641C44.804 126.323 44.7561 125.851 44.4356 125.592L44.4182 125.581Z" fill="white"/>
<path d="M40.3268 122.027L39.1779 120.882L39.1604 120.864C38.8705 120.576 38.4018 120.576 38.114 120.866C37.8262 121.156 37.8262 121.623 38.1162 121.911L39.2999 123.094C39.5899 123.384 40.0586 123.382 40.3486 123.094C40.6385 122.804 40.6385 122.335 40.3486 122.044L40.3268 122.027Z" fill="white"/>
<path d="M36.669 118.054L35.6792 116.778L35.6596 116.754C35.4111 116.433 34.9489 116.374 34.6284 116.623C34.308 116.872 34.2491 117.334 34.4976 117.655L35.5244 118.984C35.773 119.306 36.2351 119.365 36.5578 119.117C36.8804 118.868 36.9393 118.405 36.6908 118.083V118.08L36.669 118.054Z" fill="white"/>
<path d="M33.5992 113.636L32.8187 112.225L32.8012 112.192C32.605 111.839 32.1603 111.71 31.8071 111.906C31.454 112.102 31.3253 112.545 31.5215 112.901L32.3347 114.378C32.5309 114.734 32.9757 114.862 33.331 114.666C33.6864 114.47 33.815 114.025 33.6188 113.669L33.5992 113.636Z" fill="white"/>
<path d="M31.2893 108.795C31.0975 108.293 30.9449 107.781 30.7705 107.275L30.7552 107.231C30.6244 106.851 30.2102 106.648 29.8309 106.779C29.4515 106.91 29.2488 107.323 29.3796 107.702C29.5605 108.237 29.724 108.78 29.9224 109.306L29.9268 109.317C30.0707 109.692 30.4914 109.882 30.8664 109.738C31.2436 109.594 31.4332 109.173 31.2893 108.795Z" fill="white"/>
<path d="M29.9287 103.629L29.7259 102.036L29.7216 101.995C29.6714 101.598 29.3095 101.318 28.9128 101.369C28.516 101.419 28.2369 101.781 28.2871 102.178L28.4985 103.856C28.5487 104.253 28.9106 104.534 29.3073 104.484C29.7041 104.434 29.9854 104.072 29.9352 103.675L29.9287 103.629Z" fill="white"/>
<path d="M29.6067 98.2883L29.7069 96.6826L29.7091 96.6433C29.7331 96.2463 29.4323 95.9059 29.0355 95.8798C28.6387 95.8558 28.2986 96.1568 28.2725 96.5517L28.1656 98.236C28.1395 98.633 28.4425 98.9755 28.8393 99.0017C29.2361 99.0279 29.5783 98.7246 29.6045 98.3276L29.6067 98.2883Z" fill="white"/>
<path d="M30.2677 92.9672L30.6427 91.3986L30.6514 91.3637C30.743 90.9797 30.5075 90.5936 30.1238 90.4997C29.7401 90.4081 29.3543 90.6437 29.2627 91.0277L28.8681 92.6661C28.7744 93.0523 29.012 93.4384 29.3957 93.5323C29.7794 93.6261 30.1674 93.3883 30.2612 93.0043L30.2677 92.9672Z" fill="white"/>
<path d="M31.8172 87.8207L32.4407 86.3306L32.4538 86.3001C32.6064 85.9379 32.4342 85.5212 32.0723 85.3685C31.7104 85.2158 31.294 85.386 31.1414 85.7503L30.4896 87.3015C30.337 87.6636 30.507 88.0825 30.8711 88.2352C31.233 88.3879 31.6515 88.2178 31.8041 87.8534L31.8172 87.8207Z" fill="white"/>
<path d="M34.1599 82.9773L35.0058 81.5963L35.0232 81.568C35.2282 81.2342 35.1235 80.8 34.79 80.5949C34.4564 80.3899 34.0226 80.4946 33.8177 80.8284L32.9369 82.2617C32.732 82.5955 32.8366 83.0319 33.1702 83.2369C33.5037 83.442 33.9397 83.3373 34.1447 83.0035L34.1599 82.9773Z" fill="white"/>
<path d="M37.2081 78.5375L38.2502 77.3005L38.272 77.2765C38.5205 76.982 38.4835 76.5413 38.1892 76.2926C37.8949 76.0439 37.4567 76.0788 37.2081 76.3733L36.1203 77.654C35.8696 77.9485 35.9045 78.3914 36.2009 78.6423C36.4953 78.8931 36.9378 78.8582 37.1885 78.5615L37.1907 78.5594L37.2081 78.5375Z" fill="white"/>
<path d="M40.8933 74.615L42.1142 73.5547L42.1382 73.5329C42.4237 73.2842 42.4543 72.8522 42.2079 72.5642C41.9594 72.2784 41.5299 72.2457 41.2421 72.4922L39.9668 73.5896C39.679 73.8383 39.6442 74.2724 39.8927 74.5626C40.1412 74.8506 40.575 74.8855 40.865 74.6368L40.8672 74.6346L40.8933 74.615Z" fill="white"/>
<path d="M45.1512 71.3272L46.5268 70.4873L46.5573 70.4698C46.8756 70.2757 46.9759 69.8612 46.7819 69.5426C46.5878 69.2241 46.1758 69.1238 45.8575 69.3179L44.4208 70.1884C44.1004 70.3826 43.9979 70.7993 44.1919 71.12C44.386 71.4407 44.8023 71.5432 45.1228 71.3491L45.125 71.3469L45.1512 71.3272Z" fill="white"/>
<path d="M49.8912 68.814L51.3911 68.2315L51.426 68.2184C51.7661 68.0853 51.9361 67.7013 51.8031 67.361C51.6701 67.0207 51.2886 66.8505 50.9485 66.9814L49.3767 67.5857C49.0344 67.7166 48.8622 68.1028 48.993 68.4475C49.1238 68.79 49.5097 68.9623 49.8541 68.8314H49.8563L49.8912 68.814Z" fill="white"/>
<path d="M55.011 67.1886L56.596 66.8744L56.6287 66.8679C56.9818 66.7981 57.2107 66.4555 57.141 66.1021C57.0712 65.7487 56.7311 65.5196 56.3801 65.5894L54.7298 65.9079C54.3745 65.9778 54.1434 66.3203 54.211 66.6759C54.2785 67.0315 54.623 67.2628 54.9783 67.1951H54.9805L55.011 67.1886Z" fill="white"/>
<path d="M60.3398 66.449L61.9574 66.3945H61.988C62.3411 66.3836 62.618 66.0869 62.6049 65.7334C62.594 65.38 62.2997 65.1051 61.9487 65.116L60.2723 65.164C59.9169 65.1749 59.6378 65.4695 59.6487 65.8251C59.6596 66.1807 59.954 66.4599 60.3093 66.449H60.3115H60.3398Z" fill="white"/>
<path d="M65.7272 66.5624L67.3361 66.7544L67.3645 66.7588C67.7089 66.8002 68.0207 66.5537 68.0621 66.209C68.1035 65.8643 67.8594 65.5523 67.5171 65.5109L65.8537 65.3058C65.5071 65.2622 65.1931 65.5087 65.1495 65.8556C65.1059 66.2024 65.3523 66.5166 65.6989 66.5602H65.7011L65.7272 66.5624Z" fill="white"/>
<path d="M71.0486 67.4721L72.6161 67.891L72.6401 67.8976C72.9693 67.9848 73.305 67.7907 73.3944 67.4612C73.4816 67.1318 73.2897 66.7958 72.9605 66.7086L71.3451 66.2679C71.0159 66.1784 70.6758 66.3726 70.5843 66.7042C70.4949 67.0336 70.6889 67.374 71.0181 67.4656H71.0203L71.0486 67.4721Z" fill="white"/>
<path d="M76.1996 69.1194L77.6973 69.7477L77.7191 69.7564C78.0265 69.8851 78.3797 69.7411 78.5083 69.4313C78.6369 69.1237 78.4952 68.7703 78.1879 68.6416L76.6487 67.9893C76.3391 67.8584 75.9838 68.0023 75.853 68.3121C75.7222 68.6219 75.8661 68.9775 76.1756 69.1084H76.1778L76.1996 69.1194Z" fill="white"/>
<path d="M81.0838 71.4384L82.4878 72.2587L82.5074 72.2696C82.7908 72.4354 83.1527 72.3394 83.3162 72.0558C83.4819 71.7722 83.3882 71.4122 83.1048 71.2464L81.6637 70.3978C81.3803 70.2298 81.0163 70.3258 80.8484 70.6094C80.6805 70.893 80.7764 71.2573 81.0599 71.4253L81.062 71.4275L81.0838 71.4384Z" fill="white"/>
<path d="M85.633 74.3815L86.9192 75.3785L86.9367 75.3938C87.1895 75.5901 87.5536 75.5443 87.7498 75.2912C87.946 75.0382 87.9024 74.6738 87.6495 74.4775L86.3306 73.4455C86.0777 73.247 85.7093 73.2906 85.5109 73.5459C85.3125 73.8012 85.3561 74.1677 85.6112 74.3662L85.6134 74.3684L85.633 74.3815Z" fill="white"/>
<path d="M89.7499 77.8983L90.8901 79.059L90.9076 79.0764C91.1277 79.3011 91.4875 79.3033 91.712 79.083C91.9366 78.8626 91.9409 78.5048 91.7207 78.2801L90.5522 77.0802C90.332 76.8533 89.9701 76.8489 89.7434 77.0693C89.5167 77.2896 89.5123 77.6518 89.7325 77.8787L89.7347 77.8809L89.7499 77.8983Z" fill="white"/>
<path d="M93.3531 81.941L94.3189 83.2479L94.3342 83.2675C94.5173 83.514 94.8661 83.5686 95.1124 83.3853C95.3588 83.202 95.4133 82.8552 95.2302 82.6086L94.2426 81.2582C94.0595 81.0073 93.7085 80.9527 93.46 81.136C93.2092 81.3193 93.1569 81.6705 93.3379 81.9192L93.3401 81.9214L93.3531 81.941Z" fill="white"/>
<path d="M328.473 265.705H325.543V297.413H328.473V265.705Z" fill="#7D97F4"/>
<path d="M339.837 298.024H314.176V296.654C314.176 296.357 314.416 296.115 314.712 296.115H339.258C339.578 296.115 339.837 296.375 339.837 296.695V298.024Z" fill="#7D97F4"/>
<path d="M344.689 264.535C344.689 266.379 343.182 267.886 341.34 267.886H313.747C311.905 267.886 310.398 266.379 310.398 264.535V261.505C310.398 259.662 311.905 258.154 313.747 258.154H341.34C343.182 258.154 344.689 259.662 344.689 261.505V264.535Z" fill="#7D97F4"/>
<path d="M301.034 287.783C301.034 287.783 291.562 291.865 292.105 296.139C292.105 296.139 301.895 294.261 303.648 291.459C305.401 288.658 304.435 287.037 304.435 287.037L301.034 287.783Z" fill="url(#paint30_linear_181_3583)"/>
<path d="M303.354 283.116L303.836 287.277C303.908 287.905 303.559 288.525 302.966 288.739C302.67 288.846 302.277 288.92 301.765 288.922C301.043 288.926 300.402 288.451 300.208 287.752L299.277 284.388L303.354 283.116Z" fill="url(#paint31_linear_181_3583)"/>
<path d="M324.044 251.214C324.044 251.214 306.624 250.407 297.953 255.466C289.283 260.526 298.394 284.807 298.394 284.807C298.394 284.807 300.659 285.294 303.918 283.551C303.918 283.551 299.264 265.775 307.347 262.683C316.434 259.206 325.834 260.052 325.834 260.052L324.092 251.764L324.044 251.214Z" fill="url(#paint32_linear_181_3583)"/>
<path d="M294.008 294.263C295.989 293.829 301.863 291.392 302.756 291.424C303.648 291.457 304.912 292.794 304.912 292.794C304.912 292.794 305.13 293.525 304.492 294.575C302.979 295.755 299.717 297.924 295.926 298.161C293.138 298.336 291.459 297.225 290.5 296.148C291.339 295.334 292.689 294.553 294.008 294.263Z" fill="url(#paint33_linear_181_3583)"/>
<path d="M295.928 298.166C299.719 297.928 302.978 295.759 304.494 294.579C304.062 295.288 303.24 296.143 301.697 297.016C297.866 299.182 291.533 298.866 290.28 298.38C289.275 297.989 289.584 297.049 290.504 296.154C291.461 297.23 293.14 298.34 295.928 298.166Z" fill="url(#paint34_linear_181_3583)"/>
<path d="M306.992 290.619C306.861 291.11 305.474 292.585 304.672 293.408C304.291 293.798 303.737 293.966 303.205 293.85C302.867 293.776 302.486 293.661 302.154 293.482C301.659 293.211 301.485 292.583 301.757 292.088L303.787 288.396L306.992 290.619Z" fill="url(#paint35_linear_181_3583)"/>
<path d="M341.31 249.752C341.31 249.752 342.832 260.549 338.434 262.755C334.037 264.961 324.393 266.407 321.072 272.005C317.75 277.606 311.785 288.595 306.355 291.754C306.355 291.754 303.255 290.744 302.348 289.219C302.348 289.219 308.792 272.265 311.48 268.146C313.808 264.577 317.214 259.437 322.049 257.214C323.433 256.577 323.542 255.106 323.298 253.603L322.853 250.863L341.31 249.752Z" fill="url(#paint36_linear_181_3583)"/>
<path d="M300.559 237.513C306.725 239.274 309.482 221.912 309.458 221.491L318.909 232.55C318.909 232.55 313.278 242.466 304.773 243.522C302.622 243.788 300.793 243.417 299.258 242.712C300.389 240.86 300.647 239.027 300.559 237.513Z" fill="url(#paint37_linear_181_3583)"/>
<path d="M289.142 231.832C291.828 230.728 294.108 232.932 294.108 232.932C296.77 235.659 298.883 237.036 300.559 237.513C300.646 239.027 300.389 240.858 299.258 242.712C295.935 241.189 293.999 238.111 293.204 236.575C292.916 236.023 292.242 235.788 291.682 236.06C291.113 236.335 290.526 236.756 290.489 237.328C290.417 238.454 289.079 238.521 289.07 238.105C289.061 237.688 290.108 235.465 290.108 235.465C290.108 235.465 287.021 237.446 285.82 238.205C284.618 238.962 283.594 237.712 283.594 237.712C283.594 237.712 286.456 232.936 289.142 231.832Z" fill="url(#paint38_linear_181_3583)"/>
<path d="M338.936 214.346C338.936 214.346 330.652 208.691 310.645 218.919C310.645 218.919 308.585 221.533 309.551 224.48C310.516 227.427 322.396 243.373 322.856 250.859C322.856 250.859 330.976 255.643 341.517 250.9C341.515 250.902 345.051 231.134 338.936 214.346Z" fill="url(#paint39_linear_181_3583)"/>
<path d="M321.687 207.116L324.961 213.535C325.286 214.172 325.219 214.944 324.772 215.503C323.869 216.633 321.988 218.151 318.776 217.174C317.822 216.881 317.089 216.105 316.86 215.132L315.164 207.967L321.687 207.116Z" fill="url(#paint40_linear_181_3583)"/>
<path d="M345.071 236.763C345.631 232.86 335.328 225.298 335.328 225.298L338.936 214.348C338.936 214.348 358.598 228.39 354.463 239.859C353.87 241.504 352.987 242.699 351.908 243.55C349.828 239.274 347.005 237.498 345.071 236.763Z" fill="url(#paint41_linear_181_3583)"/>
<path d="M330.693 237.847C330.693 237.847 342.349 241.104 344.767 237.555C344.931 237.315 345.027 237.049 345.068 236.765C347 237.5 349.823 239.276 351.907 243.548C346.372 247.904 335.702 243.02 332.803 241.556C332.325 241.316 331.778 241.268 331.268 241.427C330.237 241.75 328.449 242.25 327.455 242.195C325.999 242.114 324.436 247.383 321.957 246.048C321.955 246.048 323.082 237.049 330.693 237.847Z" fill="url(#paint42_linear_181_3583)"/>
<path d="M317.49 196.624C317.385 196.714 313.069 204.262 310.869 208.109C310.198 209.282 310.701 210.779 311.944 211.311L312.897 211.719C314.198 212.278 316.995 212.745 318.096 211.855L325.037 204.522C325.04 204.524 319.825 194.602 317.49 196.624Z" fill="url(#paint43_linear_181_3583)"/>
<path d="M326.996 202.524C327.847 202.046 328.871 201.075 328.073 199.363C327.262 197.619 325.662 197.469 324.631 197.58C324.215 197.626 323.837 197.36 323.715 196.958C323.646 196.729 323.478 196.529 323.111 196.47C322.619 196.391 322.313 195.889 322.442 195.405C322.688 194.478 322.647 193.221 321.158 192.318C318.516 190.717 316.046 193.042 315.359 195.062C314.672 197.085 317.635 198.656 319.525 198.976C320.964 199.221 321.666 200.881 321.919 201.662C322 201.911 321.96 202.179 321.819 202.397L319.708 205.606C320.288 206.337 320.803 207.11 321.311 207.891C321.5 207.686 321.666 207.515 321.797 207.398C322.712 206.558 324.343 206.992 325.015 207.221C325.235 207.297 325.475 207.28 325.682 207.173C326.412 206.795 327.888 205.733 326.678 203.724C326.425 203.305 326.569 202.764 326.996 202.524Z" fill="url(#paint44_linear_181_3583)"/>
<path d="M320.543 209.265C320.543 209.265 321.892 205.794 323.425 205.988C324.96 206.182 326.107 207.766 324.127 209.411C321.666 211.458 320.543 209.265 320.543 209.265Z" fill="url(#paint45_linear_181_3583)"/>
<path d="M315.812 245.273C315.79 245.276 315.77 245.276 315.749 245.276L288.517 245.245C287.844 245.245 287.299 244.697 287.301 244.023C287.301 243.349 287.85 242.793 288.522 242.806L315.753 242.836C316.427 242.836 316.972 243.384 316.969 244.058C316.969 244.708 316.457 245.241 315.812 245.273Z" fill="url(#paint46_linear_181_3583)"/>
<path d="M264.041 220.531H286.718C288.39 220.531 289.914 221.498 290.627 223.012L301.111 245.258H272.927C271.848 245.258 270.88 244.599 270.483 243.596L262.354 223.01C261.887 221.821 262.763 220.531 264.041 220.531Z" fill="url(#paint47_linear_181_3583)"/>
<path d="M267.714 303.72C267.563 303.72 267.409 303.692 267.263 303.629C266.683 303.387 266.415 302.734 266.663 302.171L290.661 248.121C290.91 247.558 291.583 247.298 292.166 247.54C292.745 247.783 293.014 248.435 292.765 248.998L268.767 303.048C268.579 303.469 268.159 303.72 267.714 303.72Z" fill="#91B3FA"/>
<path d="M294.752 303.72C294.31 303.72 293.887 303.469 293.702 303.051L269.703 249C269.453 248.437 269.721 247.785 270.303 247.543C270.883 247.3 271.556 247.56 271.807 248.123L295.805 302.174C296.056 302.736 295.788 303.389 295.206 303.631C295.058 303.692 294.903 303.72 294.752 303.72Z" fill="#91B3FA"/>
<path d="M342.003 303.72C341.852 303.72 341.698 303.692 341.552 303.629C340.972 303.387 340.704 302.734 340.952 302.171L364.95 248.121C365.201 247.558 365.873 247.298 366.455 247.54C367.035 247.783 367.303 248.435 367.054 248.998L343.056 303.048C342.868 303.469 342.448 303.72 342.003 303.72Z" fill="#91B3FA"/>
<path d="M369.038 303.72C368.595 303.72 368.172 303.469 367.987 303.051L343.989 249C343.738 248.437 344.006 247.785 344.588 247.543C345.168 247.3 345.842 247.56 346.092 248.123L370.09 302.174C370.341 302.736 370.073 303.389 369.491 303.631C369.341 303.692 369.188 303.72 369.038 303.72Z" fill="#91B3FA"/>
<path d="M371.855 246.454C371.916 246.098 371.833 245.732 371.628 245.455C371.423 245.175 371.118 245.014 370.795 245.014H261.617C261.195 245.014 260.8 245.256 260.571 245.655C260.342 246.055 260.312 246.559 260.49 246.988L261.674 249.857C261.945 250.514 262.533 250.935 263.178 250.935H370.05C370.652 250.935 371.168 250.457 371.282 249.796L371.855 246.454Z" fill="#91B3FA"/>
<path d="M397.219 286.904C408.512 289.164 422.933 276.842 427.579 263.381C432.36 249.53 423.594 243.727 423.661 224.504C423.737 202.668 435.089 199.378 442.595 169.947C444.289 163.306 454.091 124.878 441.943 117.677C430.709 111.016 399.157 130.13 393.628 154.593C389.685 172.035 401.876 179.361 397.219 199.677C393.134 217.503 382.399 217.76 378.285 234.958C373.277 255.898 382.392 283.937 397.219 286.904Z" fill="url(#paint48_linear_181_3583)"/>
<path d="M398.038 292.194C394.994 268.67 400.933 232.375 406.45 206.069C412.424 177.59 419.206 154.359 419.274 154.128L420.213 154.405C420.146 154.636 413.374 177.836 407.407 206.278C401.905 232.506 395.982 268.681 399.01 292.07L398.038 292.194Z" fill="url(#paint49_linear_181_3583)"/>
<path d="M404.273 284.277C389.46 276.554 384.389 250.029 392.811 241.41C398.501 235.585 406.658 241.711 414.531 235.674C424.581 227.966 417.188 213.447 425.089 194.617C431.812 178.593 447.942 163.43 457.367 166.542C467.234 169.799 472.429 193.963 464.003 208.504C458.524 217.961 450.136 218.426 448.315 227.22C446.205 237.426 456.405 242.079 456.46 251.975C456.562 269.749 423.87 294.496 404.273 284.277Z" fill="url(#paint50_linear_181_3583)"/>
<path d="M412.268 291.069C412.179 291.069 412.089 291.049 412.004 291.008C411.703 290.861 411.579 290.501 411.725 290.2C431.363 249.704 437.123 202.722 437.178 202.253C437.217 201.922 437.518 201.686 437.847 201.725C438.178 201.764 438.414 202.066 438.374 202.395C438.318 202.866 432.534 250.049 412.809 290.726C412.706 290.944 412.493 291.069 412.268 291.069Z" fill="url(#paint51_linear_181_3583)"/>
<path d="M452.561 214.422C452.5 214.422 452.437 214.403 452.385 214.361C452.258 214.263 452.237 214.082 452.335 213.956C458.533 205.993 465.404 194.03 462.93 182.258C461.456 175.246 457.312 171.59 457.27 171.555C457.15 171.45 457.137 171.269 457.242 171.147C457.347 171.027 457.528 171.014 457.65 171.119C457.826 171.271 461.984 174.941 463.497 182.14C464.888 188.757 464.157 199.712 452.79 214.311C452.731 214.383 452.646 214.422 452.561 214.422Z" fill="url(#paint52_linear_181_3583)"/>
<path d="M402.935 280.741C402.844 280.741 402.752 280.697 402.698 280.616C393.171 266.704 389.922 255.953 393.042 248.664C395.815 242.184 402.82 240.978 402.889 240.965C403.046 240.941 403.195 241.045 403.221 241.202C403.247 241.359 403.14 241.508 402.983 241.534C402.916 241.545 396.216 242.708 393.572 248.897C390.539 255.992 393.772 266.556 403.175 280.289C403.264 280.42 403.232 280.601 403.101 280.69C403.049 280.723 402.992 280.741 402.935 280.741Z" fill="url(#paint53_linear_181_3583)"/>
<path d="M365.534 184.453C365.534 184.453 362.259 176.422 374.611 178.041C386.964 179.66 383.962 184.327 384.938 187.974C385.915 191.622 391.097 195.754 405.518 201.381C419.939 207.007 415.664 222.346 409.185 227.438C402.708 232.53 399.176 229.147 397.668 237.934C396.161 246.722 390.151 253.858 382.654 246.41C375.156 238.96 366.632 230.152 369.017 218.601C371.4 207.051 368.701 209.235 364.049 203.935C359.395 198.636 369.257 193.507 365.534 184.453Z" fill="url(#paint54_linear_181_3583)"/>
<path d="M345.069 181.198C345.069 181.198 357.518 198.763 371.359 201.544C371.359 201.544 369.102 209.269 367.095 210.247C367.095 210.247 349.552 197.115 344.516 183.818L345.069 181.198Z" fill="url(#paint55_linear_181_3583)"/>
<path d="M401.398 294.998L401.771 298.063C401.841 298.646 403.221 300.123 403.803 300.188C404.786 300.299 405.211 300.524 406.752 300.36C407.428 300.288 408.097 298.478 407.89 297.83C407.515 296.647 406.826 294.869 405.835 293.824H402.438C401.81 293.824 401.324 294.374 401.398 294.998Z" fill="url(#paint56_linear_181_3583)"/>
<path d="M374.783 259.083L374.21 262.461C374.21 262.461 376.131 281.932 376.473 289.721C376.527 290.942 376.211 292.149 375.57 293.189L372.23 298.617L380.72 293.604L380.89 292.568L379.501 290.657L381.321 268.844C381.428 267.564 381.164 266.279 380.561 265.142L378.806 261.841L374.783 259.083Z" fill="url(#paint57_linear_181_3583)"/>
<path d="M371.669 299.403H374.379C374.887 299.403 375.364 299.169 375.674 298.768C376.517 297.671 378.268 295.528 379.105 295.471C380.232 295.397 380.088 299.403 380.088 299.403H380.721L381.521 294.424C381.721 293.172 381.1 291.931 379.975 291.344C379.975 291.344 379.718 293.248 378.323 294.093C376.927 294.935 372.641 297.954 372.641 297.954C372.641 297.954 372.116 297.88 371.54 297.983C370.681 298.135 370.799 299.403 371.669 299.403Z" fill="url(#paint58_linear_181_3583)"/>
<path d="M386.41 260.687C386.41 260.687 397.664 282.05 399.451 286.926C401.241 291.804 401.867 295.873 401.891 296.257C401.928 296.859 402.676 297.437 404.74 297.437C405.804 297.437 406.325 297.009 406.58 296.597C406.798 296.244 406.809 295.803 406.626 295.432C405.974 294.114 403.91 289.902 403.144 287.991C402.231 285.708 400.267 275.37 399.188 271.774C398.111 268.179 396.892 264.28 392.198 260.687C392.2 260.687 388.978 257.53 386.41 260.687Z" fill="url(#paint59_linear_181_3583)"/>
<path d="M379.299 225.684C376.395 213.375 383.75 206.414 383.75 206.414C379.111 201.957 370.657 199.928 370.657 199.928C370.657 199.928 362.591 205.829 363.548 210.45C364.108 213.157 369.218 226.668 369.218 226.668C369.218 226.668 373.94 228.905 379.299 225.684Z" fill="url(#paint60_linear_181_3583)"/>
<path d="M385.737 231.778C384.556 228.217 379.302 225.684 379.302 225.684C373.943 228.904 369.219 226.668 369.219 226.668C369.219 226.668 368.159 230.722 368.89 234.487C369.62 238.253 374.209 262.461 374.209 262.461C381.438 263.927 392.556 260.986 392.556 260.986C387.954 252.802 386.919 235.34 385.737 231.778Z" fill="url(#paint61_linear_181_3583)"/>
<path d="M375.931 191.792L378.292 202.402C378.519 203.336 377.667 203.183 376.723 203.006C375.177 202.714 373.184 202.114 372.517 200.91C372.45 200.787 372.415 200.648 372.397 200.51L371.384 193.154C371.303 192.569 371.619 192.004 372.157 191.764L374.113 190.896C374.865 190.562 375.737 190.992 375.931 191.792Z" fill="url(#paint62_linear_181_3583)"/>
<path d="M383.75 206.414C383.75 206.414 400.223 218.208 385.856 230.6C385.856 230.6 385.309 231.219 384.23 231.542C383.685 231.706 382.076 232.923 381.261 233.558C380.999 233.763 380.62 233.693 380.443 233.412C380.306 233.192 380.288 232.914 380.399 232.679L382.438 228.364C383.005 227.836 383.87 227.796 384.481 228.274C384.869 228.58 385.44 228.451 385.658 228.008C386.767 225.746 388.865 219.087 380.282 211.565C379.959 211.281 379.878 210.814 380.075 210.435C380.681 209.276 382.061 206.972 383.75 206.414Z" fill="url(#paint63_linear_181_3583)"/>
<path d="M373.162 181.693C373.162 181.693 370.367 182.874 368.466 186.916C366.565 190.959 367.985 192.824 369.768 193.082C371.551 193.337 374.217 193.3 377.036 190.688C379.857 188.075 376.796 180.293 373.162 181.693Z" fill="url(#paint64_linear_181_3583)"/>
<path d="M375.142 188.528C375.142 188.528 377.25 182.614 372.011 182.544L370.78 183.406C370.78 183.406 368.857 180.127 372.011 178.563C375.166 176.998 378.859 178.29 380.202 182.544C381.545 186.798 381.774 189.645 379.539 191.681C377.304 193.716 376.384 191.408 376.384 191.408C376.384 191.408 377.601 189.504 377.106 188.487C376.611 187.468 375.469 188.699 375.469 188.699L375.142 188.528Z" fill="url(#paint65_linear_181_3583)"/>
<path d="M374.855 189.187C374.855 189.187 375.922 186.142 377.345 187.355C378.767 188.568 376.19 190.169 375.18 190.686L374.855 189.187Z" fill="url(#paint66_linear_181_3583)"/>
<path d="M345.348 184.935C345.332 185.313 346.741 185.496 347.098 183.875C346.939 183.188 346.562 180.16 346.004 179.717C343.039 177.354 337.84 174.793 337.84 174.793C337.321 175.685 338.092 176.215 338.092 176.215L340.704 177.784C340.488 178.67 340.144 179.459 340.155 180.456C340.161 181.211 340.48 181.933 341.009 182.479C341.541 183.026 342.256 183.731 342.895 184.261C344.101 185.265 345.348 184.935 345.348 184.935Z" fill="url(#paint67_linear_181_3583)"/>
<path d="M345.256 181.394L344.249 179.987L341.966 178.918C341.635 179.219 341.508 179.603 342.106 180.164C342.701 180.725 344.1 183.681 344.1 183.681L345.256 181.394Z" fill="url(#paint68_linear_181_3583)"/>
<g opacity="0.7">
<path d="M390.136 196.638C390.182 196.638 390.225 196.609 390.241 196.564C390.26 196.505 390.23 196.441 390.171 196.422C385 194.622 382.449 191.347 382.985 187.2C383.55 182.839 380.808 182.121 380.779 182.115C380.718 182.099 380.659 182.136 380.644 182.197C380.629 182.256 380.666 182.317 380.727 182.333C380.832 182.359 383.302 183.018 382.765 187.172C382.214 191.435 384.817 194.797 390.099 196.633C390.11 196.636 390.123 196.638 390.136 196.638Z" fill="#7D97F4"/>
<path d="M400.968 229.162C400.988 229.162 401.005 229.158 401.022 229.149C406.946 225.857 410.434 221.878 411.393 217.32C412.642 211.371 409.023 206.512 408.986 206.464C408.949 206.416 408.879 206.405 408.829 206.442C408.779 206.479 408.77 206.549 408.807 206.599C408.845 206.647 412.402 211.43 411.173 217.276C410.229 221.766 406.778 225.695 400.913 228.953C400.859 228.983 400.839 229.051 400.87 229.105C400.889 229.14 400.929 229.162 400.968 229.162Z" fill="#7D97F4"/>
</g>
<defs>
<linearGradient id="paint0_linear_181_3583" x1="192.91" y1="258.717" x2="282.251" y2="-9.11084" gradientUnits="userSpaceOnUse">
<stop stop-color="#09005D"/>
<stop offset="1" stop-color="#1A0F91"/>
</linearGradient>
<linearGradient id="paint1_linear_181_3583" x1="400.471" y1="242.717" x2="3.24523" y2="339.269" gradientUnits="userSpaceOnUse">
<stop stop-color="#09005D"/>
<stop offset="1" stop-color="#1A0F91"/>
</linearGradient>
<linearGradient id="paint2_linear_181_3583" x1="154.151" y1="118.71" x2="147.742" y2="112.56" gradientUnits="userSpaceOnUse">
<stop stop-color="#E1473D"/>
<stop offset="1" stop-color="#E9605A"/>
</linearGradient>
<linearGradient id="paint3_linear_181_3583" x1="152.279" y1="117.724" x2="143.932" y2="105.302" gradientUnits="userSpaceOnUse">
<stop stop-color="#E1473D"/>
<stop offset="1" stop-color="#E9605A"/>
</linearGradient>
<linearGradient id="paint4_linear_181_3583" x1="154.151" y1="106.082" x2="147.742" y2="99.9318" gradientUnits="userSpaceOnUse">
<stop stop-color="#E1473D"/>
<stop offset="1" stop-color="#E9605A"/>
</linearGradient>
<linearGradient id="paint5_linear_181_3583" x1="152.279" y1="105.096" x2="143.932" y2="92.6741" gradientUnits="userSpaceOnUse">
<stop stop-color="#E1473D"/>
<stop offset="1" stop-color="#E9605A"/>
</linearGradient>
<linearGradient id="paint6_linear_181_3583" x1="154.151" y1="93.4534" x2="147.742" y2="87.3038" gradientUnits="userSpaceOnUse">
<stop stop-color="#E1473D"/>
<stop offset="1" stop-color="#E9605A"/>
</linearGradient>
<linearGradient id="paint7_linear_181_3583" x1="152.279" y1="92.4676" x2="143.932" y2="80.046" gradientUnits="userSpaceOnUse">
<stop stop-color="#E1473D"/>
<stop offset="1" stop-color="#E9605A"/>
</linearGradient>
<linearGradient id="paint8_linear_181_3583" x1="178.594" y1="82.645" x2="202.919" y2="54.4314" gradientUnits="userSpaceOnUse">
<stop stop-color="#E1473D"/>
<stop offset="1" stop-color="#E9605A"/>
</linearGradient>
<linearGradient id="paint9_linear_181_3583" x1="216.634" y1="33.823" x2="144.692" y2="142.428" gradientUnits="userSpaceOnUse">
<stop stop-color="#FE7062"/>
<stop offset="1" stop-color="#FF928E"/>
</linearGradient>
<linearGradient id="paint10_linear_181_3583" x1="228.607" y1="109.112" x2="123.868" y2="267.227" gradientUnits="userSpaceOnUse">
<stop stop-color="#FE7062"/>
<stop offset="1" stop-color="#FF928E"/>
</linearGradient>
<linearGradient id="paint11_linear_181_3583" x1="55.076" y1="72.8589" x2="82.5098" y2="41.0393" gradientUnits="userSpaceOnUse">
<stop stop-color="#E1473D"/>
<stop offset="1" stop-color="#E9605A"/>
</linearGradient>
<linearGradient id="paint12_linear_181_3583" x1="97.9753" y1="17.797" x2="16.8383" y2="140.282" gradientUnits="userSpaceOnUse">
<stop stop-color="#FE7062"/>
<stop offset="1" stop-color="#FF928E"/>
</linearGradient>
<linearGradient id="paint13_linear_181_3583" x1="51.4972" y1="211.664" x2="59.8359" y2="211.664" gradientUnits="userSpaceOnUse">
<stop stop-color="#09005D"/>
<stop offset="1" stop-color="#1A0F91"/>
</linearGradient>
<linearGradient id="paint14_linear_181_3583" x1="52.3437" y1="207.787" x2="55.7256" y2="207.787" gradientUnits="userSpaceOnUse">
<stop stop-color="#FF928E"/>
<stop offset="1" stop-color="#FEB3B1"/>
</linearGradient>
<linearGradient id="paint15_linear_181_3583" x1="69.2313" y1="211.531" x2="82.3148" y2="211.531" gradientUnits="userSpaceOnUse">
<stop stop-color="#09005D"/>
<stop offset="1" stop-color="#1A0F91"/>
</linearGradient>
<linearGradient id="paint16_linear_181_3583" x1="69.4303" y1="206.284" x2="72.7937" y2="206.284" gradientUnits="userSpaceOnUse">
<stop stop-color="#FF928E"/>
<stop offset="1" stop-color="#FEB3B1"/>
</linearGradient>
<linearGradient id="paint17_linear_181_3583" x1="50.2415" y1="176.429" x2="73.1698" y2="176.429" gradientUnits="userSpaceOnUse">
<stop stop-color="#09005D"/>
<stop offset="1" stop-color="#1A0F91"/>
</linearGradient>
<linearGradient id="paint18_linear_181_3583" x1="82.652" y1="138.944" x2="64.5464" y2="154.202" gradientUnits="userSpaceOnUse">
<stop stop-color="#09005D"/>
<stop offset="1" stop-color="#1A0F91"/>
</linearGradient>
<linearGradient id="paint19_linear_181_3583" x1="95.5378" y1="120.276" x2="67.8042" y2="120.276" gradientUnits="userSpaceOnUse">
<stop stop-color="#E1473D"/>
<stop offset="1" stop-color="#E9605A"/>
</linearGradient>
<linearGradient id="paint20_linear_181_3583" x1="91.9298" y1="107.733" x2="104.429" y2="107.733" gradientUnits="userSpaceOnUse">
<stop stop-color="#FF928E"/>
<stop offset="1" stop-color="#FEB3B1"/>
</linearGradient>
<linearGradient id="paint21_linear_181_3583" x1="88.5627" y1="118.97" x2="61.0658" y2="155.159" gradientUnits="userSpaceOnUse">
<stop stop-color="#FE7062"/>
<stop offset="1" stop-color="#FF928E"/>
</linearGradient>
<linearGradient id="paint22_linear_181_3583" x1="130.086" y1="98.4044" x2="90.7774" y2="147.272" gradientUnits="userSpaceOnUse">
<stop stop-color="#FF928E"/>
<stop offset="1" stop-color="#FEB3B1"/>
</linearGradient>
<linearGradient id="paint23_linear_181_3583" x1="133.84" y1="120.444" x2="92.1525" y2="131.435" gradientUnits="userSpaceOnUse">
<stop stop-color="#FF928E"/>
<stop offset="1" stop-color="#FEB3B1"/>
</linearGradient>
<linearGradient id="paint24_linear_181_3583" x1="89.8499" y1="90.1387" x2="63.6633" y2="138.219" gradientUnits="userSpaceOnUse">
<stop stop-color="#FF928E"/>
<stop offset="1" stop-color="#FEB3B1"/>
</linearGradient>
<linearGradient id="paint25_linear_181_3583" x1="81.6063" y1="98.9997" x2="80.9803" y2="118.174" gradientUnits="userSpaceOnUse">
<stop stop-color="#FF928E"/>
<stop offset="1" stop-color="#FEB3B1"/>
</linearGradient>
<linearGradient id="paint26_linear_181_3583" x1="84.0855" y1="97.847" x2="70.0177" y2="123.954" gradientUnits="userSpaceOnUse">
<stop stop-color="#09005D"/>
<stop offset="1" stop-color="#1A0F91"/>
</linearGradient>
<linearGradient id="paint27_linear_181_3583" x1="74.7575" y1="118.672" x2="76.8496" y2="105.544" gradientUnits="userSpaceOnUse">
<stop stop-color="#FF928E"/>
<stop offset="1" stop-color="#FEB3B1"/>
</linearGradient>
<linearGradient id="paint28_linear_181_3583" x1="85.1932" y1="155.844" x2="141.568" y2="90.4569" gradientUnits="userSpaceOnUse">
<stop stop-color="#E1473D"/>
<stop offset="1" stop-color="#E9605A"/>
</linearGradient>
<linearGradient id="paint29_linear_181_3583" x1="173.347" y1="42.6955" x2="6.6155" y2="294.395" gradientUnits="userSpaceOnUse">
<stop stop-color="#FE7062"/>
<stop offset="1" stop-color="#FF928E"/>
</linearGradient>
<linearGradient id="paint30_linear_181_3583" x1="295.386" y1="280.302" x2="298.241" y2="291.358" gradientUnits="userSpaceOnUse">
<stop stop-color="#09005D"/>
<stop offset="1" stop-color="#1A0F91"/>
</linearGradient>
<linearGradient id="paint31_linear_181_3583" x1="304.112" y1="286.384" x2="299.081" y2="285.271" gradientUnits="userSpaceOnUse">
<stop stop-color="#FF928E"/>
<stop offset="1" stop-color="#FEB3B1"/>
</linearGradient>
<linearGradient id="paint32_linear_181_3583" x1="305.803" y1="245.59" x2="314.317" y2="283.002" gradientUnits="userSpaceOnUse">
<stop stop-color="#09005D"/>
<stop offset="1" stop-color="#1A0F91"/>
</linearGradient>
<linearGradient id="paint33_linear_181_3583" x1="297.723" y1="270.821" x2="297.723" y2="279.002" gradientUnits="userSpaceOnUse">
<stop stop-color="#09005D"/>
<stop offset="1" stop-color="#1A0F91"/>
</linearGradient>
<linearGradient id="paint34_linear_181_3583" x1="298.019" y1="292.919" x2="291.361" y2="314.733" gradientUnits="userSpaceOnUse">
<stop stop-color="#4042E2"/>
<stop offset="1" stop-color="#4F52FF"/>
</linearGradient>
<linearGradient id="paint35_linear_181_3583" x1="306.724" y1="291.836" x2="302.002" y2="290.791" gradientUnits="userSpaceOnUse">
<stop stop-color="#FF928E"/>
<stop offset="1" stop-color="#FEB3B1"/>
</linearGradient>
<linearGradient id="paint36_linear_181_3583" x1="324.222" y1="242.586" x2="323.348" y2="253.931" gradientUnits="userSpaceOnUse">
<stop stop-color="#09005D"/>
<stop offset="1" stop-color="#1A0F91"/>
</linearGradient>
<linearGradient id="paint37_linear_181_3583" x1="442.049" y1="475.287" x2="464.478" y2="515.317" gradientUnits="userSpaceOnUse">
<stop stop-color="#FE7062"/>
<stop offset="1" stop-color="#FF928E"/>
</linearGradient>
<linearGradient id="paint38_linear_181_3583" x1="300.729" y1="238.34" x2="284.258" y2="234.698" gradientUnits="userSpaceOnUse">
<stop stop-color="#FF928E"/>
<stop offset="1" stop-color="#FEB3B1"/>
</linearGradient>
<linearGradient id="paint39_linear_181_3583" x1="327.103" y1="233.763" x2="296.557" y2="267.993" gradientUnits="userSpaceOnUse">
<stop stop-color="#FE7062"/>
<stop offset="1" stop-color="#FF928E"/>
</linearGradient>
<linearGradient id="paint40_linear_181_3583" x1="320.067" y1="210.59" x2="323.014" y2="225.752" gradientUnits="userSpaceOnUse">
<stop stop-color="#FF928E"/>
<stop offset="1" stop-color="#FEB3B1"/>
</linearGradient>
<linearGradient id="paint41_linear_181_3583" x1="334.96" y1="240.773" x2="304.414" y2="275.003" gradientUnits="userSpaceOnUse">
<stop stop-color="#FE7062"/>
<stop offset="1" stop-color="#FF928E"/>
</linearGradient>
<linearGradient id="paint42_linear_181_3583" x1="344.498" y1="226.548" x2="339.696" y2="237.781" gradientUnits="userSpaceOnUse">
<stop stop-color="#FF928E"/>
<stop offset="1" stop-color="#FEB3B1"/>
</linearGradient>
<linearGradient id="paint43_linear_181_3583" x1="243.027" y1="512.728" x2="248.402" y2="490.767" gradientUnits="userSpaceOnUse">
<stop stop-color="#FF928E"/>
<stop offset="1" stop-color="#FEB3B1"/>
</linearGradient>
<linearGradient id="paint44_linear_181_3583" x1="326.988" y1="206.177" x2="316.041" y2="193.539" gradientUnits="userSpaceOnUse">
<stop stop-color="#09005D"/>
<stop offset="1" stop-color="#1A0F91"/>
</linearGradient>
<linearGradient id="paint45_linear_181_3583" x1="248.212" y1="513.997" x2="253.587" y2="492.035" gradientUnits="userSpaceOnUse">
<stop stop-color="#FF928E"/>
<stop offset="1" stop-color="#FEB3B1"/>
</linearGradient>
<linearGradient id="paint46_linear_181_3583" x1="320.433" y1="238.033" x2="298.813" y2="245.118" gradientUnits="userSpaceOnUse">
<stop stop-color="#09005D"/>
<stop offset="1" stop-color="#1A0F91"/>
</linearGradient>
<linearGradient id="paint47_linear_181_3583" x1="272.566" y1="244.587" x2="285.003" y2="229.434" gradientUnits="userSpaceOnUse">
<stop stop-color="#09005D"/>
<stop offset="1" stop-color="#1A0F91"/>
</linearGradient>
<linearGradient id="paint48_linear_181_3583" x1="376.895" y1="201.753" x2="447.914" y2="201.753" gradientUnits="userSpaceOnUse">
<stop stop-color="#006CBC"/>
<stop offset="1" stop-color="#E9EFFD"/>
</linearGradient>
<linearGradient id="paint49_linear_181_3583" x1="397.209" y1="223.159" x2="420.206" y2="223.159" gradientUnits="userSpaceOnUse">
<stop stop-color="#006CBC"/>
<stop offset="1" stop-color="#E9EFFD"/>
</linearGradient>
<linearGradient id="paint50_linear_181_3583" x1="388.738" y1="226.399" x2="468.205" y2="226.399" gradientUnits="userSpaceOnUse">
<stop stop-color="#006CBC"/>
<stop offset="1" stop-color="#E9EFFD"/>
</linearGradient>
<linearGradient id="paint51_linear_181_3583" x1="411.661" y1="246.394" x2="438.371" y2="246.394" gradientUnits="userSpaceOnUse">
<stop stop-color="#006CBC"/>
<stop offset="1" stop-color="#E9EFFD"/>
</linearGradient>
<linearGradient id="paint52_linear_181_3583" x1="452.272" y1="192.735" x2="464.013" y2="192.735" gradientUnits="userSpaceOnUse">
<stop stop-color="#006CBC"/>
<stop offset="1" stop-color="#E9EFFD"/>
</linearGradient>
<linearGradient id="paint53_linear_181_3583" x1="391.893" y1="260.85" x2="403.222" y2="260.85" gradientUnits="userSpaceOnUse">
<stop stop-color="#006CBC"/>
<stop offset="1" stop-color="#E9EFFD"/>
</linearGradient>
<linearGradient id="paint54_linear_181_3583" x1="422.262" y1="260.079" x2="355.192" y2="171.165" gradientUnits="userSpaceOnUse">
<stop stop-color="#09005D"/>
<stop offset="1" stop-color="#1A0F91"/>
</linearGradient>
<linearGradient id="paint55_linear_181_3583" x1="531.138" y1="237.488" x2="470.905" y2="223.138" gradientUnits="userSpaceOnUse">
<stop stop-color="#FF928E"/>
<stop offset="1" stop-color="#FEB3B1"/>
</linearGradient>
<linearGradient id="paint56_linear_181_3583" x1="409.966" y1="249.141" x2="408.547" y2="261.794" gradientUnits="userSpaceOnUse">
<stop stop-color="#09005D"/>
<stop offset="1" stop-color="#1A0F91"/>
</linearGradient>
<linearGradient id="paint57_linear_181_3583" x1="373.708" y1="322.426" x2="383.15" y2="212.15" gradientUnits="userSpaceOnUse">
<stop stop-color="#FF928E"/>
<stop offset="1" stop-color="#FEB3B1"/>
</linearGradient>
<linearGradient id="paint58_linear_181_3583" x1="381.895" y1="245.993" x2="380.476" y2="258.646" gradientUnits="userSpaceOnUse">
<stop stop-color="#09005D"/>
<stop offset="1" stop-color="#1A0F91"/>
</linearGradient>
<linearGradient id="paint59_linear_181_3583" x1="392.675" y1="324.067" x2="402.119" y2="213.762" gradientUnits="userSpaceOnUse">
<stop stop-color="#FF928E"/>
<stop offset="1" stop-color="#FEB3B1"/>
</linearGradient>
<linearGradient id="paint60_linear_181_3583" x1="373.939" y1="211.218" x2="378.66" y2="254.99" gradientUnits="userSpaceOnUse">
<stop stop-color="#FE7062"/>
<stop offset="1" stop-color="#FF928E"/>
</linearGradient>
<linearGradient id="paint61_linear_181_3583" x1="364.489" y1="265.175" x2="337.649" y2="300.063" gradientUnits="userSpaceOnUse">
<stop stop-color="#E1473D"/>
<stop offset="1" stop-color="#E9605A"/>
</linearGradient>
<linearGradient id="paint62_linear_181_3583" x1="374.551" y1="185.353" x2="375.133" y2="209.788" gradientUnits="userSpaceOnUse">
<stop stop-color="#FF928E"/>
<stop offset="1" stop-color="#FEB3B1"/>
</linearGradient>
<linearGradient id="paint63_linear_181_3583" x1="379.972" y1="220.045" x2="391.737" y2="220.045" gradientUnits="userSpaceOnUse">
<stop stop-color="#FF928E"/>
<stop offset="1" stop-color="#FEB3B1"/>
</linearGradient>
<linearGradient id="paint64_linear_181_3583" x1="406.692" y1="107.293" x2="397.815" y2="128.669" gradientUnits="userSpaceOnUse">
<stop stop-color="#FF928E"/>
<stop offset="1" stop-color="#FEB3B1"/>
</linearGradient>
<linearGradient id="paint65_linear_181_3583" x1="430.798" y1="256.338" x2="363.729" y2="167.424" gradientUnits="userSpaceOnUse">
<stop stop-color="#09005D"/>
<stop offset="1" stop-color="#1A0F91"/>
</linearGradient>
<linearGradient id="paint66_linear_181_3583" x1="409.462" y1="108.807" x2="400.586" y2="130.183" gradientUnits="userSpaceOnUse">
<stop stop-color="#FF928E"/>
<stop offset="1" stop-color="#FEB3B1"/>
</linearGradient>
<linearGradient id="paint67_linear_181_3583" x1="533.904" y1="225.874" x2="473.672" y2="211.524" gradientUnits="userSpaceOnUse">
<stop stop-color="#FF928E"/>
<stop offset="1" stop-color="#FEB3B1"/>
</linearGradient>
<linearGradient id="paint68_linear_181_3583" x1="347.696" y1="172.669" x2="335.329" y2="195.351" gradientUnits="userSpaceOnUse">
<stop stop-color="#FF928E"/>
<stop offset="1" stop-color="#FEB3B1"/>
</linearGradient>
</defs>
</svg>
