<svg width="456" height="396" viewBox="0 0 456 396" fill="none" xmlns="http://www.w3.org/2000/svg">
<path opacity="0.58" d="M259.678 41.1376C259.461 42.1392 258.48 42.7793 257.468 42.5728C256.467 42.356 255.826 41.3751 256.033 40.3631C256.25 39.3615 257.231 38.7214 258.243 38.9279C259.255 39.1447 259.895 40.1256 259.678 41.1376Z" fill="#3E479B"/>
<path d="M342.869 57.7207H400.326C404.199 57.7207 407.338 60.8597 407.338 64.7318V122.184C407.338 126.056 404.199 129.195 400.326 129.195H354.135C353.175 129.195 352.256 129.556 351.544 130.197L342.291 138.602C339.823 140.853 335.857 139.097 335.857 135.752V112.56V98.6827V64.7318C335.857 60.8597 338.997 57.7207 342.869 57.7207Z" fill="#EF929C"/>
<path opacity="0.11" d="M342.539 57.6277H399.965C403.837 57.6277 406.977 60.7667 406.977 64.6388V122.06C406.977 125.932 403.837 129.071 399.965 129.071H353.795C352.834 129.071 351.915 129.432 351.213 130.073L341.971 138.478C339.503 140.718 335.537 138.973 335.537 135.638V112.447V98.569V64.6388C335.527 60.7667 338.666 57.6277 342.539 57.6277Z" fill="#373449"/>
<path d="M345.317 57.6277H397.197C400.698 57.6277 403.528 60.4672 403.528 63.9573V115.834C403.528 119.334 400.688 122.163 397.197 122.163H355.488C354.621 122.163 353.795 122.483 353.154 123.061L344.8 130.651C342.57 132.675 338.986 131.095 338.986 128.08V107.139V94.6039V63.9573C338.976 60.4569 341.816 57.6277 345.317 57.6277Z" fill="#EF929C"/>
<path d="M371.937 89.121C372.743 87.252 374.581 85.9407 376.729 85.9407C379.61 85.9407 381.685 88.3569 381.954 91.2377C381.954 91.2377 382.099 91.9502 381.789 93.2409C381.365 94.9963 380.374 96.5451 379.032 97.7326L373.094 102.916C372.443 103.484 371.452 103.484 370.812 102.906L364.987 97.7326C363.645 96.5451 362.654 94.986 362.23 93.2409C361.92 91.9502 362.065 91.2377 362.065 91.2377C362.323 88.3569 364.409 85.9407 367.29 85.9407C369.407 85.951 371.132 87.252 371.937 89.121Z" fill="white"/>
<path opacity="0.22" d="M381.779 93.2408C381.355 94.9962 380.364 96.5451 379.021 97.7325L373.084 102.916C372.433 103.484 371.442 103.484 370.801 102.906L364.977 97.7325C363.635 96.5451 362.643 94.9859 362.22 93.2408C362.076 92.6523 366.733 96.9374 370.357 94.2218C376.44 89.6578 381.944 92.549 381.779 93.2408Z" fill="#EF929C"/>
<path d="M372 111.073C362.427 111.073 354.641 103.288 354.641 93.7159C354.641 84.144 362.427 76.3584 372 76.3584C381.572 76.3584 389.359 84.144 389.359 93.7159C389.359 103.288 381.572 111.073 372 111.073ZM372 77.8763C363.263 77.8763 356.159 84.9803 356.159 93.7159C356.159 102.451 363.263 109.555 372 109.555C380.736 109.555 387.841 102.451 387.841 93.7159C387.841 84.9803 380.736 77.8763 372 77.8763Z" fill="white"/>
<path opacity="0.89" d="M135.551 83.6691C134.632 83.6691 133.889 82.9257 133.889 82.0067V71.3609C133.889 70.4419 134.632 69.6985 135.551 69.6985C136.47 69.6985 137.214 70.4419 137.214 71.3609V82.0067C137.214 82.9257 136.47 83.6691 135.551 83.6691Z" fill="#4C65BA"/>
<path opacity="0.89" d="M318.508 128.906C317.589 128.906 316.846 128.162 316.846 127.243V102.627C316.846 101.708 317.589 100.965 318.508 100.965C319.427 100.965 320.171 101.708 320.171 102.627V127.243C320.171 128.162 319.427 128.906 318.508 128.906Z" fill="#4C65BA"/>
<path opacity="0.89" d="M135.551 128.906C134.632 128.906 133.889 128.162 133.889 127.243V102.627C133.889 101.708 134.632 100.965 135.551 100.965C136.47 100.965 137.214 101.708 137.214 102.627V127.243C137.214 128.162 136.47 128.906 135.551 128.906Z" fill="#4C65BA"/>
<path opacity="0.89" d="M135.551 162.165C134.632 162.165 133.889 161.421 133.889 160.502V135.886C133.889 134.967 134.632 134.224 135.551 134.224C136.47 134.224 137.214 134.967 137.214 135.886V160.502C137.214 161.421 136.47 162.165 135.551 162.165Z" fill="#4C65BA"/>
<path d="M295.552 396H158.167C145.486 396 135.211 385.726 135.211 373.046V43.4196C135.211 30.7396 145.486 20.4656 158.167 20.4656H295.552C308.233 20.4656 318.508 30.7396 318.508 43.4196V373.046C318.508 385.726 308.233 396 295.552 396Z" fill="#4C2A6E"/>
<path opacity="0.21" d="M291.525 392.954H162.205C150.278 392.954 140.602 382.866 140.602 370.423V46.8065C140.602 34.3641 150.278 24.2759 162.205 24.2759H291.525C303.452 24.2759 313.128 34.3641 313.128 46.8065V370.423C313.128 382.866 303.452 392.954 291.525 392.954Z" fill="#599AF2"/>
<path opacity="0.1" d="M291.525 385.984H162.205C150.278 385.984 140.602 376.35 140.602 364.465V55.3974C140.602 43.5125 150.278 33.8787 162.205 33.8787H291.525C303.452 33.8787 313.128 43.5125 313.128 55.3974V364.465C313.128 376.35 303.452 385.984 291.525 385.984Z" fill="#599AF2"/>
<path d="M307.696 66.3735H146.033V352.426H307.696V66.3735Z" fill="white"/>
<path opacity="0.47" d="M300.611 74.1487H156.039V341.584H300.611V74.1487Z" fill="white"/>
<path d="M226.859 385.685C233.286 385.685 238.497 380.475 238.497 374.048C238.497 367.621 233.286 362.411 226.859 362.411C220.431 362.411 215.221 367.621 215.221 374.048C215.221 380.475 220.431 385.685 226.859 385.685Z" fill="#4C2A6E"/>
<g opacity="0.89">
<path d="M201.083 45.4124C201.083 47.0645 199.741 48.4069 198.088 48.4069C196.436 48.4069 195.094 47.0645 195.094 45.4124C195.094 43.7603 196.436 42.418 198.088 42.418C199.741 42.4283 201.083 43.7603 201.083 45.4124Z" fill="#4C2A6E"/>
</g>
<g opacity="0.89">
<path d="M228.861 35.7682C228.861 36.8731 227.963 37.7611 226.868 37.7611C225.763 37.7611 224.875 36.8628 224.875 35.7682C224.875 34.6634 225.773 33.7754 226.868 33.7754C227.963 33.7754 228.861 34.6737 228.861 35.7682Z" fill="#4C2A6E"/>
</g>
<g opacity="0.89">
<path d="M242.163 47.0852H211.555C210.822 47.0852 210.223 46.4863 210.223 45.7532C210.223 45.02 210.822 44.4211 211.555 44.4211H242.163C242.896 44.4211 243.495 45.02 243.495 45.7532C243.495 46.4863 242.896 47.0852 242.163 47.0852Z" fill="#4C2A6E"/>
</g>
<path d="M288.417 158.788H88.7837C85.6857 158.788 83.166 156.279 83.166 153.171V92.229C83.166 89.1313 85.6754 86.6118 88.7837 86.6118H288.417C291.515 86.6118 294.035 89.121 294.035 92.229V153.171C294.035 156.269 291.515 158.788 288.417 158.788Z" fill="#4C2A6E"/>
<path opacity="0.07" d="M282.79 153.656H89.4865C86.4814 153.656 84.0547 151.323 84.0547 148.432V91.7643C84.0547 88.8835 86.4918 86.5396 89.4865 86.5396H282.78C285.785 86.5396 288.211 88.8732 288.211 91.7643V148.442C288.222 151.313 285.785 153.656 282.79 153.656Z" fill="#373449"/>
<g opacity="0.87">
<path d="M191.855 115.895L192.763 117.733C192.867 117.95 193.073 118.095 193.311 118.136L195.345 118.435C195.944 118.518 196.181 119.251 195.748 119.675L194.281 121.11C194.106 121.275 194.034 121.513 194.075 121.75L194.426 123.774C194.529 124.373 193.899 124.817 193.373 124.538L191.555 123.578C191.338 123.464 191.09 123.464 190.874 123.578L189.056 124.538C188.519 124.817 187.9 124.362 188.003 123.774L188.354 121.75C188.395 121.513 188.313 121.275 188.147 121.11L186.681 119.675C186.247 119.251 186.485 118.518 187.084 118.435L189.118 118.136C189.356 118.105 189.562 117.95 189.665 117.733L190.574 115.895C190.812 115.358 191.586 115.358 191.855 115.895Z" fill="white"/>
<path d="M203.265 115.895L204.174 117.733C204.277 117.95 204.483 118.095 204.721 118.136L206.755 118.435C207.354 118.518 207.592 119.251 207.158 119.675L205.692 121.11C205.516 121.275 205.444 121.513 205.485 121.75L205.836 123.774C205.939 124.373 205.309 124.817 204.783 124.538L202.965 123.578C202.748 123.464 202.501 123.464 202.284 123.578L200.466 124.538C199.929 124.817 199.31 124.362 199.413 123.774L199.764 121.75C199.805 121.513 199.723 121.275 199.558 121.11L198.091 119.675C197.657 119.251 197.895 118.518 198.494 118.435L200.528 118.136C200.766 118.105 200.972 117.95 201.076 117.733L201.984 115.895C202.222 115.358 202.996 115.358 203.265 115.895Z" fill="white"/>
<path d="M214.665 115.895L215.574 117.733C215.677 117.95 215.884 118.095 216.121 118.136L218.156 118.435C218.754 118.518 218.992 119.251 218.558 119.675L217.092 121.11C216.916 121.275 216.844 121.513 216.885 121.75L217.236 123.774C217.34 124.373 216.71 124.817 216.183 124.538L214.366 123.578C214.149 123.464 213.901 123.464 213.684 123.578L211.867 124.538C211.33 124.817 210.71 124.362 210.813 123.774L211.164 121.75C211.206 121.513 211.123 121.275 210.958 121.11L209.492 119.675C209.058 119.251 209.295 118.518 209.894 118.435L211.929 118.136C212.166 118.105 212.373 117.95 212.476 117.733L213.385 115.895C213.633 115.358 214.407 115.358 214.665 115.895Z" fill="white"/>
<path d="M226.077 115.895L226.986 117.733C227.089 117.95 227.296 118.095 227.533 118.136L229.568 118.435C230.167 118.518 230.404 119.251 229.97 119.675L228.504 121.11C228.328 121.275 228.256 121.513 228.297 121.75L228.649 123.774C228.752 124.373 228.122 124.817 227.595 124.538L225.778 123.578C225.561 123.464 225.313 123.464 225.096 123.578L223.279 124.538C222.742 124.817 222.122 124.362 222.225 123.774L222.577 121.75C222.618 121.513 222.535 121.275 222.37 121.11L220.904 119.675C220.47 119.251 220.707 118.518 221.306 118.435L223.341 118.136C223.578 118.105 223.785 117.95 223.888 117.733L224.797 115.895C225.045 115.358 225.809 115.358 226.077 115.895Z" fill="white"/>
<path opacity="0.36" d="M237.487 115.895L238.396 117.733C238.499 117.95 238.706 118.095 238.943 118.136L240.978 118.435C241.577 118.518 241.814 119.251 241.381 119.675L239.914 121.11C239.739 121.275 239.666 121.513 239.708 121.75L240.059 123.774C240.162 124.373 239.532 124.817 239.005 124.538L237.188 123.578C236.971 123.464 236.723 123.464 236.506 123.578L234.689 124.538C234.152 124.817 233.532 124.362 233.636 123.774L233.987 121.75C234.028 121.513 233.945 121.275 233.78 121.11L232.314 119.675C231.88 119.251 232.118 118.518 232.717 118.435L234.751 118.136C234.988 118.105 235.195 117.95 235.298 117.733L236.207 115.895C236.444 115.358 237.219 115.358 237.487 115.895Z" fill="#4C65BA"/>
</g>
<path opacity="0.84" d="M268.467 94.2217H186.35V100.304H268.467V94.2217Z" fill="white"/>
<path opacity="0.36" d="M227.408 103.339H186.35V107.903H227.408V103.339Z" fill="#4C65BA"/>
<path opacity="0.36" d="M268.467 132.23H186.35V133.748H268.467V132.23Z" fill="#4C65BA"/>
<path opacity="0.36" d="M268.467 138.312H186.35V139.83H268.467V138.312Z" fill="#4C65BA"/>
<path opacity="0.36" d="M268.467 144.394H186.35V145.912H268.467V144.394Z" fill="#4C65BA"/>
<path opacity="0.36" d="M268.467 150.476H186.35V151.994H268.467V150.476Z" fill="#4C65BA"/>
<path d="M125.66 151.994C144.903 151.994 160.502 136.396 160.502 117.155C160.502 97.9143 144.903 82.3164 125.66 82.3164C106.418 82.3164 90.8184 97.9143 90.8184 117.155C90.8184 136.396 106.418 151.994 125.66 151.994Z" fill="white"/>
<path d="M125.66 155.711C146.785 155.711 163.91 138.588 163.91 117.465C163.91 96.3422 146.785 79.2188 125.66 79.2188C104.535 79.2188 87.4102 96.3422 87.4102 117.465C87.4102 138.588 104.535 155.711 125.66 155.711Z" stroke="white" stroke-miterlimit="10"/>
<mask id="mask0_176_101" style="mask-type:luminance" maskUnits="userSpaceOnUse" x="90" y="82" width="71" height="70">
<path d="M125.66 151.994C144.903 151.994 160.502 136.396 160.502 117.155C160.502 97.9143 144.903 82.3164 125.66 82.3164C106.418 82.3164 90.8184 97.9143 90.8184 117.155C90.8184 136.396 106.418 151.994 125.66 151.994Z" fill="white"/>
</mask>
<g mask="url(#mask0_176_101)">
<path d="M112.762 153.367H138.547C150.671 153.367 160.502 143.537 160.502 131.415C160.502 122.494 153.273 115.266 144.351 115.266H106.979C98.0567 115.266 90.8281 122.494 90.8281 131.415C90.8178 143.537 100.638 153.367 112.762 153.367Z" fill="#EF929C"/>
</g>
<path d="M119.661 64.2155C125.939 64.0399 127.643 62.5427 130.06 61.4688C132.476 60.4053 132.445 54.6952 138.93 55.9343C145.426 57.163 142.266 63.7611 142.266 63.7611C144.982 61.4069 150.878 58.1646 155.195 62.9557C159.511 67.7469 152.117 73.901 152.117 73.901C152.117 73.901 153.109 75.4808 152.489 80.4887C151.869 85.4967 148.524 86.0853 148.524 86.0853L116.573 88.9868C114.735 89.152 113.01 88.0575 112.391 86.3227L112.37 86.2814L110.79 81.4077C108.116 70.7619 113.393 64.391 119.661 64.2155Z" fill="#373449"/>
<path d="M115.675 83.3903L115.572 80.8398C115.572 80.7779 115.572 80.7262 115.572 80.6746C115.603 80.6746 115.624 80.6746 115.655 80.6746C115.809 80.6746 115.964 80.6436 116.109 80.623C117.059 83.0598 128.563 83.5658 128.563 75.6254C128.563 75.5531 142.793 75.5944 146.603 74.5205C146.665 74.5205 146.727 74.5205 146.789 74.5205C148.09 75.7802 148.948 77.515 149.02 79.4562L149.774 97.8049C150.145 106.902 151.622 113.572 134.263 113.252L134.036 118.756C134.707 125.044 130.917 130.599 125.661 131.023C120.766 131.425 116.326 127.202 115.52 121.358L115.19 94.3768C112.763 93.8605 110.884 91.7644 110.76 89.183C110.626 86.2711 112.804 83.7413 115.675 83.3903Z" fill="#F9DCD2"/>
<path d="M142.473 85.7961C142.835 85.9819 143.31 85.92 143.764 85.8993C144.229 85.858 144.683 85.8374 145.086 85.8374C145.489 85.8374 145.953 85.8477 146.418 85.8787C146.872 85.8993 147.348 85.951 147.709 85.7548C148.05 85.5793 148.194 85.063 147.781 84.4538C147.399 83.8549 146.387 83.2043 145.055 83.2043C143.723 83.2147 142.732 83.8858 142.36 84.4951C141.967 85.1146 142.122 85.6205 142.473 85.7961Z" fill="#373449"/>
<path d="M129.606 86.2711C129.957 86.4879 130.422 86.4673 130.886 86.4879C131.351 86.4879 131.816 86.5086 132.208 86.5396C132.611 86.5705 133.075 86.6222 133.53 86.6944C133.984 86.7564 134.449 86.839 134.821 86.6841C135.182 86.5396 135.368 86.0439 135.007 85.3934C134.676 84.7635 133.726 84.0201 132.394 83.9168C131.062 83.8136 130.019 84.3918 129.595 84.9701C129.162 85.5586 129.265 86.0749 129.606 86.2711Z" fill="#373449"/>
<path d="M137.392 96.5348L139.561 96.3593C141.678 96.1838 143.258 94.3251 143.082 92.2084C143 91.2378 142.143 90.5046 141.172 90.5872C139.933 90.6905 138.848 89.7715 138.745 88.5324L138.497 85.569C138.477 85.3521 138.28 85.1869 138.064 85.1972C137.847 85.2179 137.681 85.4141 137.692 85.6309L137.94 88.5944C138.074 90.2671 139.551 91.5165 141.223 91.3823C141.76 91.341 142.225 91.7334 142.266 92.2703C142.401 93.9431 141.151 95.4197 139.478 95.5539L137.31 95.7294C137.093 95.7501 136.928 95.9463 136.938 96.1631C136.979 96.3903 137.175 96.5555 137.392 96.5348Z" fill="#EF929C"/>
<path d="M145.684 91.7644C146.149 91.7438 146.51 91.3617 146.49 90.897L146.428 89.214C146.407 88.7493 146.025 88.3879 145.56 88.4086C145.096 88.4292 144.734 88.8113 144.755 89.2759L144.817 90.959C144.827 91.4133 145.219 91.7851 145.684 91.7644Z" fill="#33322F"/>
<path d="M133.086 92.2187C133.551 92.1981 133.912 91.8161 133.891 91.3514L133.84 89.6683C133.819 89.2036 133.437 88.8423 132.972 88.8629C132.508 88.8836 132.146 89.2656 132.167 89.7303L132.229 91.4133C132.229 91.8677 132.621 92.2291 133.086 92.2187Z" fill="#33322F"/>
<path d="M151.487 107.738C151.507 106.871 151.26 106.065 150.826 105.394C150.237 104.486 150.02 103.37 149.989 102.286L149.979 101.832H149.876C149.927 101.027 149.814 100.293 149.225 99.8391C147.717 98.693 144.589 97.2164 138.465 97.6604C127.963 98.4245 125.897 105.735 123.161 101.388C121.106 98.125 119.98 87.9749 119.536 83.1012C119.392 81.4388 118.38 79.9725 116.882 79.2187L114.796 78.1758C114.796 78.1758 114.559 75.9765 115.684 94.9447C116.562 109.597 120.713 117.124 131.329 118.198C133.374 118.405 135.346 118.942 137.257 119.675C137.68 119.84 138.134 119.933 138.609 119.943C139.043 119.954 139.456 119.902 139.849 119.788C140.923 119.479 142.038 119.458 143.102 119.809C144.155 120.15 145.342 120.222 146.571 119.943C148.699 119.448 150.454 117.785 151.063 115.679C151.445 114.347 151.394 113.035 151.012 111.879C150.733 111.032 150.774 110.103 151.136 109.287C151.342 108.822 151.466 108.296 151.487 107.738Z" fill="#373449"/>
<path d="M138.362 106.096H142.317V101.357H134.035V101.76C134.025 104.155 135.966 106.096 138.362 106.096Z" fill="white"/>
<path d="M371.908 245.101H172.274C169.176 245.101 166.656 242.591 166.656 239.483V178.541C166.656 175.444 169.166 172.924 172.274 172.924H371.908C375.006 172.924 377.525 175.433 377.525 178.541V239.483C377.525 242.591 375.016 245.101 371.908 245.101Z" fill="#4C2A6E"/>
<path opacity="0.07" d="M365.401 240.392H172.098C169.093 240.392 166.666 238.058 166.666 235.167V178.489C166.666 175.609 169.103 173.265 172.098 173.265H365.391C368.396 173.265 370.823 175.598 370.823 178.489V235.167C370.833 238.048 368.396 240.392 365.401 240.392Z" fill="#373449"/>
<g opacity="0.87">
<path d="M193.372 201.051L194.281 202.889C194.384 203.106 194.591 203.251 194.828 203.292L196.863 203.591C197.462 203.674 197.699 204.407 197.265 204.83L195.799 206.266C195.623 206.431 195.551 206.668 195.592 206.906L195.944 208.93C196.047 209.529 195.417 209.973 194.89 209.694L193.073 208.733C192.856 208.62 192.608 208.62 192.391 208.733L190.574 209.694C190.037 209.973 189.417 209.518 189.52 208.93L189.871 206.906C189.913 206.668 189.83 206.431 189.665 206.266L188.199 204.83C187.765 204.407 188.002 203.674 188.601 203.591L190.636 203.292C190.873 203.261 191.08 203.106 191.183 202.889L192.092 201.051C192.34 200.514 193.104 200.514 193.372 201.051Z" fill="white"/>
<path d="M204.782 201.051L205.691 202.889C205.794 203.106 206.001 203.251 206.238 203.292L208.273 203.591C208.872 203.674 209.109 204.407 208.675 204.83L207.209 206.266C207.034 206.431 206.961 206.668 207.003 206.906L207.354 208.93C207.457 209.529 206.827 209.973 206.3 209.694L204.483 208.733C204.266 208.62 204.018 208.62 203.801 208.733L201.984 209.694C201.447 209.973 200.827 209.518 200.931 208.93L201.282 206.906C201.323 206.668 201.24 206.431 201.075 206.266L199.609 204.83C199.175 204.407 199.413 203.674 200.011 203.591L202.046 203.292C202.283 203.261 202.49 203.106 202.593 202.889L203.502 201.051C203.739 200.514 204.514 200.514 204.782 201.051Z" fill="white"/>
<path d="M216.194 201.051L217.103 202.889C217.206 203.106 217.413 203.251 217.651 203.292L219.685 203.591C220.284 203.674 220.521 204.407 220.088 204.83L218.621 206.266C218.446 206.431 218.373 206.668 218.415 206.906L218.766 208.93C218.869 209.529 218.239 209.973 217.712 209.694L215.895 208.733C215.678 208.62 215.43 208.62 215.213 208.733L213.396 209.694C212.859 209.973 212.239 209.518 212.343 208.93L212.694 206.906C212.735 206.668 212.652 206.431 212.487 206.266L211.021 204.83C210.587 204.407 210.825 203.674 211.424 203.591L213.458 203.292C213.695 203.261 213.902 203.106 214.005 202.889L214.914 201.051C215.151 200.514 215.926 200.514 216.194 201.051Z" fill="white"/>
<path d="M227.595 201.051L228.504 202.889C228.607 203.106 228.813 203.251 229.051 203.292L231.085 203.591C231.684 203.674 231.922 204.407 231.488 204.83L230.022 206.266C229.846 206.431 229.774 206.668 229.815 206.906L230.166 208.93C230.269 209.529 229.64 209.973 229.113 209.694L227.295 208.733C227.079 208.62 226.831 208.62 226.614 208.733L224.796 209.694C224.259 209.973 223.64 209.518 223.743 208.93L224.094 206.906C224.135 206.668 224.053 206.431 223.888 206.266L222.421 204.83C221.988 204.407 222.225 203.674 222.824 203.591L224.858 203.292C225.096 203.261 225.302 203.106 225.406 202.889L226.314 201.051C226.562 200.514 227.337 200.514 227.595 201.051Z" fill="white"/>
<path opacity="0.36" d="M239.005 201.051L239.914 202.889C240.017 203.106 240.224 203.251 240.461 203.292L242.495 203.591C243.094 203.674 243.332 204.407 242.898 204.83L241.432 206.266C241.256 206.431 241.184 206.668 241.225 206.906L241.576 208.93C241.68 209.529 241.05 209.973 240.523 209.694L238.706 208.733C238.489 208.62 238.241 208.62 238.024 208.733L236.207 209.694C235.67 209.973 235.05 209.518 235.153 208.93L235.504 206.906C235.546 206.668 235.463 206.431 235.298 206.266L233.831 204.83C233.398 204.407 233.635 203.674 234.234 203.591L236.268 203.292C236.506 203.261 236.713 203.106 236.816 202.889L237.725 201.051C237.972 200.514 238.737 200.514 239.005 201.051Z" fill="#4C2A6E"/>
<path d="M238.355 208.651C238.241 208.651 238.117 208.682 238.014 208.733L236.197 209.694C235.66 209.973 235.04 209.518 235.143 208.93L235.495 206.906C235.536 206.668 235.453 206.431 235.288 206.266L233.822 204.83C233.388 204.407 233.625 203.674 234.224 203.591L236.259 203.292C236.496 203.261 236.703 203.106 236.806 202.889L237.715 201.051C237.849 200.783 238.107 200.648 238.365 200.648C238.396 200.648 238.365 208.651 238.355 208.651Z" fill="white"/>
</g>
<path opacity="0.84" d="M269.984 179.367H187.867V185.449H269.984V179.367Z" fill="white"/>
<path opacity="0.36" d="M228.926 188.495H187.867V193.059H228.926V188.495Z" fill="#4C2A6E"/>
<path opacity="0.36" d="M269.984 217.376H187.867V218.894H269.984V217.376Z" fill="#4C2A6E"/>
<path opacity="0.36" d="M269.984 223.468H187.867V224.986H269.984V223.468Z" fill="#4C2A6E"/>
<path opacity="0.36" d="M269.984 229.55H187.867V231.068H269.984V229.55Z" fill="#4C2A6E"/>
<path opacity="0.36" d="M269.984 235.632H187.867V237.15H269.984V235.632Z" fill="#4C2A6E"/>
<path d="M360.141 228.468C373.747 214.862 373.747 192.804 360.141 179.199C346.534 165.593 324.474 165.593 310.867 179.199C297.261 192.804 297.261 214.863 310.867 228.468C324.474 242.073 346.534 242.073 360.141 228.468Z" fill="white"/>
<path d="M335.507 243.49C357.225 243.49 374.831 225.885 374.831 204.17C374.831 182.454 357.225 164.849 335.507 164.849C313.789 164.849 296.184 182.454 296.184 204.17C296.184 225.885 313.789 243.49 335.507 243.49Z" stroke="white" stroke-miterlimit="10"/>
<mask id="mask1_176_101" style="mask-type:luminance" maskUnits="userSpaceOnUse" x="300" y="168" width="71" height="71">
<path d="M360.141 228.468C373.748 214.862 373.748 192.804 360.141 179.198C346.535 165.593 324.474 165.593 310.867 179.198C297.261 192.804 297.261 214.862 310.867 228.468C324.474 242.073 346.535 242.073 360.141 228.468Z" fill="white"/>
</mask>
<g mask="url(#mask1_176_101)">
<path d="M350.046 240.03H323.755C313.377 240.03 304.971 231.615 304.971 221.248C304.971 214.072 310.785 208.258 317.962 208.258H355.85C363.027 208.258 368.841 214.072 368.841 221.248C368.83 231.625 360.425 240.03 350.046 240.03Z" fill="#EF929C"/>
</g>
<path d="M353.248 193.276C365.082 174.659 348.962 151.292 331.727 151.292C326.719 151.292 321.783 152.758 317.786 155.371C317.084 155.257 316.372 155.143 315.618 155.04C313.284 154.72 311.353 155.649 309.866 156.878C307.367 158.943 306.758 162.464 308.234 165.345C308.606 166.068 308.988 166.688 309.36 167.028C308.885 169.155 308.782 171.437 309.143 173.885C311.095 186.905 322.475 200.308 337.169 200.329C336.55 204.624 338.718 209.043 342.859 211.16C348.054 213.814 354.363 211.831 356.966 206.731C359.382 201.97 357.709 196.178 353.248 193.276Z" fill="#373449"/>
<path d="M347.249 178.283H346.288L346.237 185.088C338.667 184.52 338.76 171.964 338.977 168.04C332.265 171.375 323.311 173.916 314.224 169.878C314.1 170.632 314.018 171.396 314.018 172.171V190.85C314.018 198.677 320.368 205.027 328.196 205.027H328.31L328.444 214.754C328.495 218.76 331.583 221.971 335.321 221.92C339.07 221.868 342.065 218.574 342.013 214.568L341.827 200.824C344.367 198.264 345.947 194.732 345.947 190.839V188.444H347.249C349.355 188.444 351.069 186.162 351.069 183.353C351.069 180.565 349.366 178.283 347.249 178.283Z" fill="#F9DCD2"/>
<path opacity="0.32" d="M332.656 205.006L341.919 208.486L341.816 200.886C339.441 203.261 336.219 204.779 332.656 205.006Z" fill="#EF929C"/>
<path d="M349.551 187.897C349.551 189.063 348.745 190.013 347.754 190.013C346.762 190.013 345.957 189.063 345.957 187.897C345.957 186.73 346.762 185.78 347.754 185.78C348.756 185.78 349.551 186.73 349.551 187.897Z" fill="#EF929C"/>
<path opacity="0.32" d="M318.643 189.817H315.824C314.936 189.817 314.213 189.012 314.213 188.021C314.213 187.029 314.936 186.224 315.824 186.224H318.643C319.531 186.224 320.254 187.029 320.254 188.021C320.264 189.012 319.541 189.817 318.643 189.817Z" fill="#EF929C"/>
<path opacity="0.32" d="M335.588 189.817H332.769C331.881 189.817 331.158 189.012 331.158 188.021C331.158 187.029 331.881 186.224 332.769 186.224H335.588C336.476 186.224 337.199 187.029 337.199 188.021C337.199 189.012 336.476 189.817 335.588 189.817Z" fill="#EF929C"/>
<path d="M324.261 188.599H327.421C327.69 188.599 327.896 188.382 327.896 188.124C327.896 187.856 327.68 187.649 327.421 187.649H324.261L323.817 187.205L324.189 187.504C325.067 186.431 325.542 185.068 325.542 183.684V180.669C325.542 180.4 325.325 180.194 325.067 180.194C324.798 180.194 324.592 180.411 324.592 180.669V183.684C324.592 184.851 324.189 185.997 323.456 186.906C323.198 187.226 323.146 187.649 323.322 188.01C323.497 188.372 323.859 188.599 324.261 188.599Z" fill="#EF929C"/>
<path d="M318.539 184.324C318.023 184.324 317.6 183.942 317.6 183.467V181.743C317.6 181.268 318.023 180.885 318.539 180.885C319.056 180.885 319.479 181.268 319.479 181.743V183.467C319.469 183.942 319.056 184.324 318.539 184.324Z" fill="#373449"/>
<path d="M320.295 177.55C319.995 177.788 319.551 177.85 319.118 177.943C318.684 178.025 318.25 178.129 317.878 178.221C317.507 178.314 317.083 178.449 316.66 178.583C316.236 178.707 315.813 178.862 315.441 178.8C315.09 178.748 314.853 178.387 315.111 177.819C315.348 177.261 316.154 176.518 317.393 176.187C318.632 175.867 319.675 176.136 320.14 176.518C320.625 176.9 320.584 177.333 320.295 177.55Z" fill="#373449"/>
<path d="M332.553 184.324C332.037 184.324 331.613 183.942 331.613 183.467V181.743C331.613 181.268 332.037 180.885 332.553 180.885C333.069 180.885 333.493 181.268 333.493 181.743V183.467C333.493 183.942 333.069 184.324 332.553 184.324Z" fill="#373449"/>
<path d="M335.951 178.893C335.579 178.934 335.155 178.758 334.742 178.614C334.329 178.459 333.906 178.314 333.544 178.201C333.173 178.087 332.749 177.974 332.316 177.87C331.892 177.757 331.448 177.664 331.159 177.426C330.88 177.199 330.87 176.776 331.386 176.415C331.882 176.063 332.956 175.847 334.174 176.218C335.393 176.59 336.147 177.375 336.353 177.932C336.57 178.521 336.312 178.862 335.951 178.893Z" fill="#373449"/>
<path d="M328.061 195.806H324.105V191.067H332.387V191.469C332.398 193.865 330.456 195.806 328.061 195.806Z" fill="white"/>
<path d="M285.587 331.423H85.9536C82.8556 331.423 80.3359 328.914 80.3359 325.806V264.864C80.3359 261.766 82.8453 259.247 85.9536 259.247H285.587C288.685 259.247 291.205 261.756 291.205 264.864V325.806C291.195 328.904 288.685 331.423 285.587 331.423Z" fill="#4C2A6E"/>
<path opacity="0.07" d="M279.69 326.095H86.3869C83.3818 326.095 80.9551 323.762 80.9551 320.87V264.193C80.9551 261.312 83.3922 258.968 86.3869 258.968H279.68C282.685 258.968 285.112 261.302 285.112 264.193V320.87C285.122 323.751 282.685 326.095 279.69 326.095Z" fill="#373449"/>
<g opacity="0.87">
<path d="M193.372 287.725L194.281 289.563C194.384 289.78 194.591 289.924 194.828 289.966L196.863 290.265C197.462 290.348 197.699 291.081 197.265 291.504L195.799 292.939C195.623 293.105 195.551 293.342 195.592 293.58L195.944 295.603C196.047 296.202 195.417 296.646 194.89 296.367L193.073 295.407C192.856 295.294 192.608 295.294 192.391 295.407L190.574 296.367C190.037 296.646 189.417 296.192 189.52 295.603L189.871 293.58C189.913 293.342 189.83 293.105 189.665 292.939L188.199 291.504C187.765 291.081 188.002 290.348 188.601 290.265L190.636 289.966C190.873 289.935 191.08 289.78 191.183 289.563L192.092 287.725C192.34 287.178 193.104 287.178 193.372 287.725Z" fill="white"/>
<path d="M204.782 287.725L205.691 289.563C205.794 289.78 206.001 289.924 206.238 289.966L208.273 290.265C208.872 290.348 209.109 291.081 208.675 291.504L207.209 292.939C207.034 293.105 206.961 293.342 207.003 293.58L207.354 295.603C207.457 296.202 206.827 296.646 206.3 296.367L204.483 295.407C204.266 295.294 204.018 295.294 203.801 295.407L201.984 296.367C201.447 296.646 200.827 296.192 200.931 295.603L201.282 293.58C201.323 293.342 201.24 293.105 201.075 292.939L199.609 291.504C199.175 291.081 199.413 290.348 200.011 290.265L202.046 289.966C202.283 289.935 202.49 289.78 202.593 289.563L203.502 287.725C203.739 287.178 204.514 287.178 204.782 287.725Z" fill="white"/>
<path d="M216.194 287.725L217.103 289.563C217.206 289.78 217.413 289.924 217.651 289.966L219.685 290.265C220.284 290.348 220.521 291.081 220.088 291.504L218.621 292.939C218.446 293.105 218.373 293.342 218.415 293.58L218.766 295.603C218.869 296.202 218.239 296.646 217.712 296.367L215.895 295.407C215.678 295.294 215.43 295.294 215.213 295.407L213.396 296.367C212.859 296.646 212.239 296.192 212.343 295.603L212.694 293.58C212.735 293.342 212.652 293.105 212.487 292.939L211.021 291.504C210.587 291.081 210.825 290.348 211.424 290.265L213.458 289.966C213.695 289.935 213.902 289.78 214.005 289.563L214.914 287.725C215.151 287.178 215.926 287.178 216.194 287.725Z" fill="white"/>
<path d="M227.595 287.725L228.504 289.563C228.607 289.78 228.813 289.924 229.051 289.966L231.085 290.265C231.684 290.348 231.922 291.081 231.488 291.504L230.022 292.939C229.846 293.105 229.774 293.342 229.815 293.58L230.166 295.603C230.269 296.202 229.64 296.646 229.113 296.367L227.295 295.407C227.079 295.294 226.831 295.294 226.614 295.407L224.796 296.367C224.259 296.646 223.64 296.192 223.743 295.603L224.094 293.58C224.135 293.342 224.053 293.105 223.888 292.939L222.421 291.504C221.988 291.081 222.225 290.348 222.824 290.265L224.858 289.966C225.096 289.935 225.302 289.78 225.406 289.563L226.314 287.725C226.562 287.178 227.337 287.178 227.595 287.725Z" fill="white"/>
<path d="M239.005 287.725L239.914 289.563C240.017 289.78 240.224 289.924 240.461 289.966L242.495 290.265C243.094 290.348 243.332 291.081 242.898 291.504L241.432 292.939C241.256 293.105 241.184 293.342 241.225 293.58L241.576 295.603C241.68 296.202 241.05 296.646 240.523 296.367L238.706 295.407C238.489 295.294 238.241 295.294 238.024 295.407L236.207 296.367C235.67 296.646 235.05 296.192 235.153 295.603L235.504 293.58C235.546 293.342 235.463 293.105 235.298 292.939L233.831 291.504C233.398 291.081 233.635 290.348 234.234 290.265L236.268 289.966C236.506 289.935 236.713 289.78 236.816 289.563L237.725 287.725C237.972 287.178 238.737 287.178 239.005 287.725Z" fill="white"/>
</g>
<path opacity="0.84" d="M269.984 266.041H187.867V272.123H269.984V266.041Z" fill="white"/>
<path opacity="0.36" d="M228.926 275.159H187.867V279.723H228.926V275.159Z" fill="#4C2A6E"/>
<path opacity="0.36" d="M269.984 304.05H187.867V305.568H269.984V304.05Z" fill="#4C2A6E"/>
<path opacity="0.36" d="M269.984 310.132H187.867V311.649H269.984V310.132Z" fill="#4C2A6E"/>
<path opacity="0.36" d="M269.984 316.213H187.867V317.731H269.984V316.213Z" fill="#4C2A6E"/>
<path opacity="0.36" d="M269.984 322.295H187.867V323.813H269.984V322.295Z" fill="#4C2A6E"/>
<path d="M159.517 295.583C164.002 276.873 152.47 258.07 133.758 253.585C115.047 249.1 96.2419 260.631 91.7564 279.341C87.271 298.051 98.8035 316.854 117.515 321.339C136.227 325.825 155.032 314.293 159.517 295.583Z" fill="white"/>
<path d="M125.66 327.128C147.377 327.128 164.983 309.523 164.983 287.807C164.983 266.092 147.377 248.487 125.66 248.487C103.942 248.487 86.3359 266.092 86.3359 287.807C86.3359 309.523 103.942 327.128 125.66 327.128Z" stroke="white" stroke-miterlimit="10"/>
<mask id="mask2_176_101" style="mask-type:luminance" maskUnits="userSpaceOnUse" x="90" y="252" width="71" height="71">
<path d="M159.517 295.583C164.002 276.873 152.47 258.07 133.758 253.585C115.047 249.1 96.2419 260.631 91.7564 279.341C87.271 298.051 98.8035 316.854 117.515 321.339C136.227 325.825 155.032 314.293 159.517 295.583Z" fill="white"/>
</mask>
<g mask="url(#mask2_176_101)">
<path d="M112.762 323.669H138.547C150.671 323.669 160.502 313.839 160.502 301.716C160.502 292.795 153.273 285.567 144.351 285.567H106.979C98.0567 285.567 90.8281 292.795 90.8281 301.716C90.8178 313.839 100.638 323.669 112.762 323.669Z" fill="#EF929C"/>
</g>
<path d="M101.67 241.414L102.289 241.125C106.874 239.029 110.22 236.778 112.884 233.143C113.938 231.719 114.64 230.294 116.457 229.271C127.858 222.869 135.076 229.55 135.293 229.457C140.291 227.175 151.155 236.489 149.399 244.357C148.893 246.639 150.876 248.942 152.198 251.079C152.58 251.688 152.993 252.38 153.406 253.134C155.337 256.046 156.277 259.412 155.833 262.871C155.182 267.962 151.733 272.123 146.848 274.498C140.88 277.41 135.024 280.518 129.861 284.318C125.545 287.488 119.431 288.985 113.008 287.87C103.745 286.259 96.6921 279.372 96.341 271.658C96.2481 269.583 96.6302 267.652 97.384 265.876C97.7867 264.926 97.5802 263.862 96.8573 262.995C96.6611 262.758 96.4649 262.51 96.2894 262.262L95.1225 260.63C91.0538 255.024 93.2017 245.276 101.67 241.414Z" fill="#373449"/>
<path d="M126.07 247.238C124.573 252.05 121.341 259.877 116.064 260.31V255.726H114.143C112.036 255.726 110.322 258.297 110.322 261.456C110.322 264.626 112.036 267.187 114.143 267.187H116.27V268.633C116.27 272.402 117.799 275.82 120.256 278.308L120.071 291.979C120.019 295.665 123.024 298.691 126.762 298.743C130.511 298.794 133.588 295.851 133.64 292.165L133.774 282.356C141.209 282.18 147.188 276.119 147.188 268.633V251.069C136.696 251.709 130.139 249.706 126.07 247.238Z" fill="#F9DCD2"/>
<path opacity="0.32" d="M120.287 278.349L120.184 285.711L129.157 282.345C125.698 282.128 122.579 280.652 120.287 278.349Z" fill="#EF929C"/>
<path d="M133.786 266.939L135.428 266.96C137.028 266.981 138.35 265.69 138.371 264.089C138.381 263.356 137.782 262.747 137.049 262.737C136.12 262.726 135.366 261.962 135.376 261.023L135.407 258.772C135.407 258.606 135.273 258.472 135.108 258.462C134.942 258.462 134.808 258.596 134.798 258.761L134.767 261.012C134.756 262.282 135.769 263.325 137.039 263.336C137.441 263.336 137.762 263.676 137.762 264.079C137.751 265.349 136.698 266.371 135.438 266.351L133.796 266.33C133.631 266.33 133.497 266.464 133.486 266.63C133.486 266.805 133.621 266.939 133.786 266.939Z" fill="#EF929C"/>
<path d="M142.833 263.934C143.328 263.934 143.741 263.532 143.741 263.026V261.219C143.741 260.723 143.339 260.31 142.833 260.31C142.337 260.31 141.924 260.713 141.924 261.219V263.026C141.934 263.532 142.337 263.934 142.833 263.934Z" fill="#373449"/>
<path d="M140.241 257.625C140.613 257.76 141.057 257.718 141.49 257.708C141.924 257.687 142.358 257.667 142.74 257.667C143.122 257.667 143.566 257.677 144.01 257.698C144.444 257.708 144.908 257.749 145.218 257.615C145.518 257.481 145.58 257.109 145.094 256.655C144.64 256.211 143.576 255.736 142.306 255.736C141.036 255.746 140.2 256.231 139.941 256.675C139.663 257.119 139.879 257.491 140.241 257.625Z" fill="#373449"/>
<path d="M129.252 263.934C129.748 263.934 130.161 263.532 130.161 263.026V261.219C130.161 260.723 129.758 260.31 129.252 260.31C128.757 260.31 128.344 260.713 128.344 261.219V263.026C128.344 263.532 128.757 263.934 129.252 263.934Z" fill="#373449"/>
<path d="M126.496 257.615C126.816 257.749 127.27 257.708 127.714 257.687C128.158 257.656 128.613 257.646 128.995 257.646C129.387 257.646 129.821 257.656 130.254 257.677C130.688 257.687 131.132 257.729 131.514 257.584C131.876 257.45 132.093 257.089 131.803 256.634C131.535 256.201 130.678 255.726 129.397 255.726C128.117 255.736 127.064 256.221 126.609 256.655C126.124 257.13 126.186 257.491 126.496 257.615Z" fill="#373449"/>
<path d="M132.083 273.434H136.947V268.85H127.787V269.139C127.787 271.514 129.708 273.434 132.083 273.434Z" fill="white"/>
<path d="M25.3574 227.093V173.719C25.3574 170.126 28.2695 167.204 31.8735 167.204H85.2517C88.8453 167.204 91.7677 170.115 91.7677 173.719V216.633C91.7677 217.521 92.0982 218.378 92.6972 219.039L100.514 227.629C102.6 229.922 100.969 233.608 97.8708 233.608H76.3192H63.4109H31.8735C28.2798 233.608 25.3574 230.696 25.3574 227.093Z" fill="#EF929C"/>
<path opacity="0.11" d="M25.3164 226.896V173.585C25.3164 169.992 28.2285 167.08 31.8222 167.08H85.1384C88.732 167.08 91.6441 169.992 91.6441 173.585V216.447C91.6441 217.335 91.9746 218.192 92.5735 218.842L100.38 227.423C102.466 229.715 100.835 233.391 97.7368 233.391H76.2162H63.3286H31.8325C28.2285 233.402 25.3164 230.49 25.3164 226.896Z" fill="#373449"/>
<path d="M25.3164 224.315V176.156C25.3164 172.914 27.9497 170.281 31.1922 170.281H79.3555C82.598 170.281 85.2313 172.914 85.2313 176.156V214.877C85.2313 215.683 85.5308 216.457 86.0678 217.046L93.1208 224.8C95.0003 226.876 93.5339 230.19 90.7354 230.19H71.2904H59.6523H31.1922C27.9497 230.201 25.3164 227.568 25.3164 224.315Z" fill="#EF929C"/>
<path d="M57.154 195.558C57.9594 193.689 59.7976 192.378 61.9455 192.378C64.8266 192.378 66.9023 194.794 67.1708 197.675C67.1708 197.675 67.3153 198.387 67.0055 199.678C66.5821 201.433 65.5908 202.982 64.2483 204.17L58.3105 209.353C57.66 209.921 56.6686 209.921 56.0284 209.343L50.2042 204.17C48.8617 202.982 47.8704 201.423 47.447 199.678C47.1372 198.387 47.2817 197.675 47.2817 197.675C47.5399 194.794 49.6259 192.378 52.507 192.378C54.6343 192.388 56.3485 193.689 57.154 195.558Z" fill="white"/>
<path d="M57.2262 217.51C47.6534 217.51 39.8672 209.725 39.8672 200.153C39.8672 190.581 47.6534 182.795 57.2262 182.795C66.7989 182.795 74.5852 190.581 74.5852 200.153C74.5852 209.725 66.7989 217.51 57.2262 217.51ZM57.2262 184.313C48.4899 184.313 41.3852 191.417 41.3852 200.153C41.3852 208.888 48.4899 215.992 57.2262 215.992C65.9625 215.992 73.0672 208.888 73.0672 200.153C73.0569 191.417 65.9522 184.313 57.2262 184.313Z" fill="white"/>
<path d="M118.411 61.6032C118.018 61.6032 117.636 61.4587 117.337 61.1592L98.9762 42.8002H78.2094C77.373 42.8002 76.6914 42.1187 76.6914 41.2823C76.6914 40.4459 77.373 39.7644 78.2094 39.7644H100.236L119.485 59.0115C120.084 59.6104 120.084 60.5706 119.485 61.1592C119.185 61.4587 118.803 61.6032 118.411 61.6032Z" fill="#599AF2"/>
<path d="M71.1666 66.1464H30.7897C26.4215 66.1464 22.8691 62.5944 22.8691 58.2266V25.6388C22.8691 21.271 26.4215 17.719 30.7897 17.719H71.1666C75.5348 17.719 79.0871 21.271 79.0871 25.6388V58.2266C79.0871 62.5944 75.5348 66.1464 71.1666 66.1464ZM30.7897 20.7651C28.1047 20.7651 25.9155 22.9541 25.9155 25.6388V58.2266C25.9155 60.9113 28.1047 63.1003 30.7897 63.1003H71.1666C73.8515 63.1003 76.0408 60.9113 76.0408 58.2266V25.6388C76.0408 22.9541 73.8515 20.7651 71.1666 20.7651H30.7897Z" fill="#599AF2"/>
<path d="M67.8318 34.3741H32.8246C31.9882 34.3741 31.3066 33.6926 31.3066 32.8563C31.3066 32.0199 31.9882 31.3384 32.8246 31.3384H67.8318C68.6683 31.3384 69.3498 32.0199 69.3498 32.8563C69.3601 33.6926 68.6786 34.3741 67.8318 34.3741Z" fill="#599AF2"/>
<path d="M68.4822 44.1012H33.475C32.6386 44.1012 31.957 43.4197 31.957 42.5833C31.957 41.7469 32.6386 41.0654 33.475 41.0654H68.4822C69.3187 41.0654 70.0002 41.7469 70.0002 42.5833C70.0105 43.4197 69.329 44.1012 68.4822 44.1012Z" fill="#599AF2"/>
<path d="M68.4822 54.4784H33.475C32.6386 54.4784 31.957 53.7969 31.957 52.9605C31.957 52.1241 32.6386 51.4426 33.475 51.4426H68.4822C69.3187 51.4426 70.0002 52.1241 70.0002 52.9605C70.0105 53.7969 69.329 54.4784 68.4822 54.4784Z" fill="#599AF2"/>
<path d="M24.9881 29.805C32.4968 26.7262 36.0876 18.1439 33.0085 10.6359C29.9294 3.12795 21.3464 -0.462586 13.8378 2.61623C6.32913 5.69505 2.73828 14.2773 5.81737 21.7853C8.89646 29.2932 17.4795 32.8838 24.9881 29.805Z" fill="white"/>
<path d="M19.4198 32.4331C10.477 32.4331 3.20703 25.1638 3.20703 16.2218C3.20703 7.27977 10.4873 0.010498 19.4198 0.010498C28.3626 0.010498 35.6325 7.2901 35.6325 16.2218C35.6429 25.1535 28.3626 32.4331 19.4198 32.4331ZM19.4198 3.04625C12.1499 3.04625 6.24305 8.95253 6.24305 16.2218C6.24305 23.4911 12.1499 29.3974 19.4198 29.3974C26.6897 29.3974 32.5965 23.4911 32.5965 16.2218C32.5965 8.95253 26.6897 3.04625 19.4198 3.04625Z" fill="#599AF2"/>
<path d="M24.53 11.0692C24.53 13.8881 22.2375 16.1804 19.4183 16.1804C16.5991 16.1804 14.3066 13.8881 14.3066 11.0692C14.3066 8.25031 16.5991 5.95801 19.4183 5.95801C22.2478 5.95801 24.53 8.23998 24.53 11.0692Z" fill="#599AF2"/>
<path d="M28.052 21.2916C28.052 24.1105 24.1899 26.4028 19.4294 26.4028C14.6688 26.4028 10.8066 24.1105 10.8066 21.2916C10.8066 18.4727 14.6688 16.1804 19.4294 16.1804C24.1899 16.1804 28.052 18.4624 28.052 21.2916Z" fill="#599AF2"/>
<path d="M371.111 315.46H345.388L322.896 292.97C322.298 292.372 322.298 291.411 322.896 290.823C323.495 290.224 324.456 290.224 325.044 290.823L346.648 312.424H371.111C371.948 312.424 372.629 313.106 372.629 313.942C372.629 314.778 371.958 315.46 371.111 315.46Z" fill="#599AF2"/>
<path d="M427.825 341.305H378.268C373.9 341.305 370.348 337.753 370.348 333.385V292.96C370.348 288.592 373.9 285.04 378.268 285.04H427.825C432.194 285.04 435.746 288.592 435.746 292.96V333.385C435.746 337.753 432.194 341.305 427.825 341.305ZM378.268 288.086C375.583 288.086 373.394 290.275 373.394 292.96V333.385C373.394 336.07 375.583 338.259 378.268 338.259H427.825C430.51 338.259 432.7 336.07 432.7 333.385V292.96C432.7 290.275 430.51 288.086 427.825 288.086H378.268Z" fill="#599AF2"/>
<path d="M424.334 325.341H383.276C382.439 325.341 381.758 324.66 381.758 323.824C381.758 322.987 382.439 322.306 383.276 322.306H424.334C425.171 322.306 425.852 322.987 425.852 323.824C425.852 324.66 425.181 325.341 424.334 325.341Z" fill="#599AF2"/>
<path d="M423.58 313.932H382.522C381.685 313.932 381.004 313.25 381.004 312.414C381.004 311.577 381.685 310.896 382.522 310.896H423.58C424.417 310.896 425.098 311.577 425.098 312.414C425.098 313.26 424.417 313.932 423.58 313.932Z" fill="#599AF2"/>
<path d="M423.58 301.768H382.522C381.685 301.768 381.004 301.086 381.004 300.25C381.004 299.414 381.685 298.732 382.522 298.732H423.58C424.417 298.732 425.098 299.414 425.098 300.25C425.098 301.086 424.417 301.768 423.58 301.768Z" fill="#599AF2"/>
<path d="M436.757 295.686C446.275 295.686 453.992 287.97 453.992 278.453C453.992 268.935 446.275 261.219 436.757 261.219C427.238 261.219 419.521 268.935 419.521 278.453C419.521 287.97 427.238 295.686 436.757 295.686Z" fill="#ECF1F7"/>
<path d="M436.757 297.214C426.42 297.214 418.004 288.799 418.004 278.463C418.004 268.127 426.42 259.711 436.757 259.711C447.094 259.711 455.51 268.127 455.51 278.463C455.51 288.799 447.094 297.214 436.757 297.214ZM436.757 262.747C428.093 262.747 421.04 269.8 421.04 278.463C421.04 287.126 428.093 294.179 436.757 294.179C445.421 294.179 452.474 287.126 452.474 278.463C452.464 269.789 445.421 262.747 436.757 262.747Z" fill="#599AF2"/>
<path d="M442.746 272.422C442.746 275.737 440.062 278.411 436.757 278.411C433.453 278.411 430.768 275.726 430.768 272.422C430.768 269.118 433.453 266.433 436.757 266.433C440.062 266.433 442.746 269.108 442.746 272.422Z" fill="#599AF2"/>
<path d="M436.757 290.399C442.346 290.399 446.877 287.718 446.877 284.411C446.877 281.103 442.346 278.422 436.757 278.422C431.168 278.422 426.637 281.103 426.637 284.411C426.637 287.718 431.168 290.399 436.757 290.399Z" fill="#599AF2"/>
</svg>
