<svg width="479" height="412" viewBox="0 0 479 412" fill="none" xmlns="http://www.w3.org/2000/svg">
<g clip-path="url(#clip0_156_408)">
<g opacity="0.15" filter="url(#filter0_d_156_408)">
<path fill-rule="evenodd" clip-rule="evenodd" d="M255.522 331.56C369.391 331.56 461.709 340.254 461.709 350.986C461.709 360.719 385.643 368.781 286.448 370.189C276.074 376.528 250.972 381 221.637 381C188.857 381 161.35 375.41 153.789 367.874C91.424 364.533 49.3477 358.22 49.3477 350.973C49.3345 340.254 141.64 331.56 255.522 331.56Z" fill="#9357A2"/>
</g>
<g opacity="0.15" filter="url(#filter1_d_156_408)">
<path fill-rule="evenodd" clip-rule="evenodd" d="M418.028 412C384.354 412 357.057 403.214 357.057 392.377C357.057 381.539 384.354 372.753 418.028 372.753C451.702 372.753 478.999 381.539 478.999 392.377C478.999 403.214 451.702 412 418.028 412Z" fill="#9357A2"/>
</g>
<g opacity="0.15" filter="url(#filter2_d_156_408)">
<path fill-rule="evenodd" clip-rule="evenodd" d="M82.746 412C55.0545 412 32.6094 403.214 32.6094 392.377C32.6094 381.539 55.0545 372.753 82.746 372.753C110.438 372.753 132.883 381.539 132.883 392.377C132.883 403.214 110.438 412 82.746 412Z" fill="#9357A2"/>
</g>
<path d="M307.21 70.1997L307.299 70.0857L307.313 69.9419L309.812 44.9655C311.823 24.8749 321.74 13.9139 332.81 11.8289C343.883 9.74335 356.412 16.4803 363.783 32.4203C373.497 53.4263 371.367 71.5991 365.429 87.8545C362.456 95.9919 358.53 103.646 354.648 110.941C354.119 111.936 353.59 112.925 353.064 113.908C349.744 120.116 346.556 126.077 344.17 131.833L343.884 132.524H344.632H453.202C461.986 132.524 468.398 135.918 472.532 140.978C476.675 146.049 478.559 152.831 478.194 159.637C477.464 173.245 467.771 186.804 449.442 186.804V187.304V187.804C458.436 187.804 464.913 191.201 469.037 196.257C473.171 201.326 474.975 208.105 474.522 214.911C473.617 228.523 463.715 242.084 445.681 242.084V242.584V243.084C454.675 243.084 461.154 246.48 465.279 251.535C469.413 256.602 471.218 263.38 470.767 270.184C469.863 283.792 459.961 297.35 441.92 297.35V297.85V298.35C450.915 298.35 457.393 301.747 461.518 306.804C465.653 311.872 467.458 318.651 467.006 325.457C466.103 339.069 456.201 352.63 438.16 352.63H437.841H437.523H437.204H436.885H436.567H436.248H435.929H435.611H435.292H434.973H434.655H434.336H434.017H433.699H433.38H433.061H432.743H432.424H432.105H431.787H431.468H431.149H430.831H430.512H430.193H429.875H429.556H429.237H428.919H428.6H428.281H427.963H427.644H427.325H427.007H426.688H426.369H426.051H425.732H425.413H425.095H424.776H424.457H424.139H423.82H423.501H423.183H422.864H422.545H422.227H421.908H421.589H421.271H420.952H420.633H420.315H419.996H419.677H419.359H419.04H418.721H418.403H418.084H417.765H417.447H417.128H416.809H416.491H416.172H415.853H415.535H415.216H414.897H414.579H414.26H413.941H413.623H413.304H412.985H412.667H412.348H412.029H411.711H411.392H411.073H410.755H410.436H410.117H409.799H409.48H409.161H408.843H408.524H408.205H407.887H407.568H407.249H406.93H406.612H406.293H405.974H405.656H405.337H405.018H404.7H404.381H404.062H403.744H403.425H403.106H402.788H402.469H402.15H401.832H401.513H401.194H400.876H400.557H400.238H399.919H399.601H399.282H398.963H398.645H398.326H398.007H397.689H397.37H397.051H396.733H396.414H396.095H395.777H395.458H395.139H394.821H394.502H394.183H393.865H393.546H393.227H392.908H392.59H392.271H391.952H391.634H391.315H390.996H390.678H390.359H390.04H389.722H389.403H389.084H388.766H388.447H388.128H387.809H387.491H387.172H386.853H386.535H386.216H385.897H385.579H385.26H384.941H384.623H384.304H383.985H383.667H383.348H383.029H382.71H382.392H382.073H381.754H381.436H381.117H380.798H380.48H380.161H379.842H379.524H379.205H378.886H378.567H378.249H377.93H377.611H377.293H376.974H376.655H376.337H376.018H375.699H375.381H375.062H374.743H374.425H374.106H373.787H373.468H373.15H372.831H372.512H372.194H371.875H371.556H371.238H370.919H370.6H370.282H369.963H369.644H369.325H369.007H368.688H368.369H368.051H367.732H367.413H367.095H366.776H366.457H366.139H365.82H365.501H365.182H364.864H364.545H364.226H363.908H363.589H363.27H362.952H362.633H362.314H361.996H361.677H361.358H361.039H360.721H360.402H360.083H359.765H359.446H359.127H358.809H358.49H358.171H357.853H357.534H357.215H356.896H356.578H356.259H355.94H355.622H355.303H354.984H354.666H354.347H354.028H353.709H353.391H353.072H352.753H352.435H352.116H351.797H351.479H351.16H350.841H350.523H350.204H349.885H349.566H349.248H348.929H348.61H348.292H347.973H347.654H347.336H347.017H346.698H346.38H346.061H345.742H345.423H345.105H344.786H344.467H344.149H343.83H343.511H343.193H342.874H342.555H342.237H341.918H341.599H341.28H340.962H340.643H340.324H340.006H339.687H339.368H339.05H338.731H338.412H338.094H337.775H337.456H337.138H336.819H336.5H336.181H335.863H335.544H335.225H334.907H334.588H334.269H333.951H333.632H333.313H332.995H332.676H332.357H332.038H331.72H331.401H331.082H330.764H330.445H330.126H329.808H329.489H329.17H328.852H328.533H328.214H327.896H327.577H327.258H326.939H326.621H326.302H325.983H325.665H325.346H325.027H324.709H324.39H324.071H323.753H323.434H323.115H322.797H322.478H322.159H321.84H321.522H321.203H320.884H320.566H320.247H319.928H319.61H319.291H318.972H318.654H318.335H318.016H317.698H317.379H317.06H316.741H316.423H316.104H315.785H315.467H315.148H314.829H314.511H314.192H313.873H313.555H313.236H312.917H312.599H312.28H311.961H311.643H311.324H311.005H310.687H310.368H310.049H309.73H309.412H309.093H308.774H308.456H308.137H307.818H307.5H307.181H306.862H306.544H306.225H305.906H305.588H305.269H304.95H304.632H304.313H303.994H303.676H303.357H303.038H302.72H302.401H302.082H301.764H301.445H301.126H300.807H300.489H300.17H299.851H299.533H299.214H298.895H298.577H298.258H297.939H297.621H297.302H296.983H296.665H296.346H296.027H295.709H295.39H295.071H294.753H294.434H294.115H293.797H293.478H293.159H292.841H292.522H292.203H291.885H291.566H291.247H290.929H290.61H290.291H289.973H289.654H289.335H289.017H288.698H288.379H288.061H287.742H287.423H287.105H286.786H286.467H286.149H285.83H285.511H285.193H284.874H284.555H284.237H283.918H283.599H283.281H282.962H282.643H282.325H282.006H281.687H281.369H281.05H280.731H280.413H280.094H279.775H279.457H279.138H278.819H278.501H278.182H277.863H277.545H277.226H276.908H276.589H276.27H275.952H275.633H275.314H274.996C261.952 352.63 251.275 341.95 251.275 328.903V156.251C251.275 150.903 251.617 146.894 252.87 143.043C254.122 139.193 256.297 135.464 260.019 130.701L260.019 130.701L307.21 70.1997Z" fill="#4C2A6E" stroke="#D9D9D9"/>
<path fill-rule="evenodd" clip-rule="evenodd" d="M224.557 235.902C229.08 240.611 235.365 245.95 237.732 245.964C241.545 245.977 241.926 244.754 242.4 242.662C242.728 241.202 240.138 239.124 238.218 234.771C237.429 232.982 236.535 228.103 234.563 224.223C228.975 213.188 215.55 226.551 224.557 235.902Z" fill="#034257"/>
<path fill-rule="evenodd" clip-rule="evenodd" d="M214.643 149.819C223.242 160.42 230.869 169.916 245.911 181.49C244.202 182.964 242.19 185.055 239.928 188.369C229.054 204.323 228.121 210.873 224.123 218.028C227.253 220.908 231.395 225.906 237.404 225.67C242.453 219.738 245.148 215.884 253.472 205.191C261.032 195.472 262.229 192.473 265.437 186.778C267.672 184.318 268.435 180.241 266.016 175.322C260.256 163.643 252.275 142.073 236.299 123.396C211.869 94.8291 184.532 112.703 214.643 149.819Z" fill="#E83F55"/>
<mask id="mask0_156_408" style="mask-type:luminance" maskUnits="userSpaceOnUse" x="201" y="109" width="67" height="117">
<path d="M214.643 149.819C223.242 160.42 230.869 169.916 245.911 181.49C244.202 182.964 242.19 185.055 239.928 188.369C229.054 204.323 228.121 210.873 224.123 218.028C227.253 220.908 231.395 225.906 237.404 225.67C242.453 219.738 245.148 215.884 253.472 205.191C261.032 195.472 262.229 192.473 265.437 186.778C267.672 184.318 268.435 180.241 266.016 175.322C260.256 163.643 252.275 142.073 236.299 123.396C211.869 94.8291 184.532 112.703 214.643 149.819Z" fill="white"/>
</mask>
<g mask="url(#mask0_156_408)">
<path d="M220.572 142.362C229.632 152.713 245.923 173.152 251.354 177.032C256.784 180.912 240.743 201.101 231.696 224.131" stroke="#ED5F72" stroke-width="1.1999" stroke-miterlimit="22.9256" stroke-linecap="round" stroke-linejoin="round" stroke-dasharray="2.4 2.4"/>
</g>
<path fill-rule="evenodd" clip-rule="evenodd" d="M222.938 219.238C222.333 218.62 222.333 217.62 222.951 217.015C223.569 216.41 224.569 216.41 225.174 217.028C228.264 220.159 233.957 224.473 238.638 224.249C239.835 224.104 237.165 227.498 235.574 227.261C230.683 226.524 226.252 222.605 222.938 219.238Z" fill="#ED5F72"/>
<path d="M88.3725 132.524H209.487C222.53 132.524 233.207 143.204 233.207 156.251V328.89C233.207 341.937 222.53 352.617 209.487 352.617H88.3725C75.329 352.617 64.6523 341.937 64.6523 328.89V156.251C64.6523 143.204 75.329 132.524 88.3725 132.524ZM191.223 153.752C180.283 153.752 171.407 162.63 171.407 173.573C171.407 184.515 180.283 193.394 191.223 193.394C202.163 193.394 211.039 184.515 211.039 173.573C211.039 162.63 202.163 153.752 191.223 153.752ZM194.695 173.573C194.695 171.994 195.983 170.706 197.561 170.706C199.135 170.706 200.414 171.991 200.427 173.574C200.426 175.164 199.139 176.44 197.561 176.44C195.971 176.44 194.695 175.152 194.695 173.573ZM182.019 173.573C182.019 171.994 183.307 170.706 184.885 170.706C186.459 170.706 187.739 171.991 187.751 173.574C187.751 175.164 186.464 176.44 184.885 176.44C183.307 176.44 182.019 175.151 182.019 173.573Z" fill="#4C2A6E" stroke="#D9D9D9"/>
<path fill-rule="evenodd" clip-rule="evenodd" d="M213.971 241.518C214.444 244.319 215.352 246.792 213.958 249.186C212.564 251.58 210.132 254.96 211.223 258.195C212.314 261.431 220.506 277.687 224.122 278.871C227.738 280.055 231.17 278.358 232.261 276.517C233.037 275.228 230.88 269.783 229.237 264.837C227.712 260.234 224.345 246.411 223.333 240.453C222.321 234.508 213.261 237.309 213.971 241.518Z" fill="#034257"/>
<path fill-rule="evenodd" clip-rule="evenodd" d="M234.577 203.047C233.656 208.953 233.682 211.833 231.947 223.92C230.198 236.007 228.725 242.767 227.279 250.422C222.177 253.618 216.142 251.514 212 250.554C211.921 242.36 208.371 232.772 209.909 213.516C210.935 200.653 217.299 197.063 214.998 192.315C202.52 176.453 196.458 163.971 190.686 151.227C170.989 107.679 209.212 96.2362 221.704 131.695C229.278 153.186 232.604 177.676 235.195 190.434C236.141 195.064 235.103 199.693 234.577 203.047Z" fill="#E83F55"/>
<mask id="mask1_156_408" style="mask-type:luminance" maskUnits="userSpaceOnUse" x="185" y="110" width="51" height="143">
<path d="M234.577 203.047C233.656 208.953 233.682 211.833 231.947 223.92C230.198 236.007 228.725 242.767 227.279 250.422C222.177 253.618 216.142 251.514 212 250.554C211.921 242.36 208.371 232.772 209.909 213.516C210.935 200.653 217.299 197.063 214.998 192.315C202.52 176.453 196.458 163.971 190.686 151.227C170.989 107.679 209.212 96.2362 221.704 131.695C229.278 153.186 232.604 177.676 235.195 190.434C236.141 195.064 235.103 199.693 234.577 203.047Z" fill="white"/>
</mask>
<g mask="url(#mask1_156_408)">
<path d="M192.356 109.257C188.608 129.92 204.098 168.68 212.776 180.241C221.454 191.802 221.046 195.774 217.299 205.48C213.538 215.2 213.972 239.492 216.944 253.526" stroke="#ED5F72" stroke-width="1.1999" stroke-miterlimit="22.9256" stroke-linecap="round" stroke-linejoin="round" stroke-dasharray="2.4 2.4"/>
</g>
<path fill-rule="evenodd" clip-rule="evenodd" d="M400.133 377.646C401.803 380.237 405.616 386.932 404.419 392.074C403.551 395.77 400.672 393.745 395.688 397.966C391.507 401.504 378.884 402.728 373.48 400.071C370.784 398.742 371.758 391.916 379.568 390.522C381.461 390.18 386.958 380.632 389.127 377.357C390.705 374.989 398.108 374.503 400.133 377.646Z" fill="#82FAF8"/>
<path fill-rule="evenodd" clip-rule="evenodd" d="M433.466 377.646C431.796 380.237 427.983 386.932 429.18 392.074C430.047 395.77 432.927 393.745 437.91 397.966C442.092 401.504 454.715 402.728 460.119 400.071C462.814 398.742 461.841 391.916 454.031 390.522C452.137 390.18 446.641 380.632 444.472 377.357C442.894 374.989 435.504 374.503 433.466 377.646Z" fill="#82FAF8"/>
<path fill-rule="evenodd" clip-rule="evenodd" d="M437.095 189.474C436.806 190.526 390.995 186.659 388.629 193.841C383.987 207.966 382.488 245.543 381.752 274.176C381.397 288.315 380.489 300.283 380.923 306.149C382.291 325.036 378.925 375.134 380.805 385.853C387.642 388.76 400.831 389.68 406.866 384.327C407.076 370.031 406.432 320.985 406.55 313.33C406.669 305.676 411.692 248.173 413.362 238.467C414.742 248.173 423.736 308.293 423.618 315.948C423.499 323.603 425.774 370.031 425.564 384.327C435.938 387.089 445.05 387.273 451.572 385.853C453.781 375.134 447.759 328.009 449.679 306.952C450.415 298.837 448.522 283.698 447.062 265.206C444.735 235.718 441.54 200.141 437.095 189.474Z" fill="#41ABC4"/>
<path fill-rule="evenodd" clip-rule="evenodd" d="M407.287 117.096C399.516 117.793 383.908 122.16 378.464 128.276C374.743 132.458 387.484 173.349 386.538 199.47C401.304 212.675 429.626 209.532 441.5 194.13C439.054 181.477 437.148 167.286 437.542 157.816C438.502 134.826 446.26 124.593 443.63 122.436C438.265 118.043 418.318 116.097 407.287 117.096Z" fill="white"/>
<path fill-rule="evenodd" clip-rule="evenodd" d="M416.675 91.37C416.439 96.4862 414.795 107.482 418.266 115.649C421.738 123.817 401.659 128.762 399.963 120.792C398.28 112.822 396.807 98.1303 397.386 92.8693C397.978 87.6215 416.386 86.6219 416.675 91.37Z" fill="#D18F60"/>
<path fill-rule="evenodd" clip-rule="evenodd" d="M402.197 111.441C413.137 109.823 421.855 88.1873 417.963 78.3493C413.689 67.5643 400.58 66.591 393.677 76.0871C387.576 84.5046 390.876 113.111 402.197 111.441Z" fill="#F9B380"/>
<path fill-rule="evenodd" clip-rule="evenodd" d="M443.025 121.568C451.742 128.434 462.196 165.8 463.892 172.047C465.588 178.294 456.121 184.108 451.309 177.4C446.496 170.705 442.052 160.065 437.923 152.239C433.794 144.44 437.095 116.899 443.025 121.568Z" fill="#A62436"/>
<path fill-rule="evenodd" clip-rule="evenodd" d="M381.45 125.698C372.285 130.025 349.734 161.157 346.066 166.589C342.397 172.008 349.471 180.372 356.243 175.467C363.015 170.561 375.085 157.001 381.581 150.819C388.077 144.637 388.366 122.436 381.45 125.698Z" fill="#A62436"/>
<path fill-rule="evenodd" clip-rule="evenodd" d="M354.047 92.7379L364.803 95.8024C366.078 96.1707 367.117 97.5911 367.091 98.9721L366.657 127.355C366.631 128.736 365.566 129.565 364.29 129.196L353.534 126.132C352.259 125.764 351.22 124.343 351.247 122.962L351.68 94.5792C351.707 93.1982 352.772 92.3696 354.047 92.7379Z" fill="#034257"/>
<path fill-rule="evenodd" clip-rule="evenodd" d="M344.489 140.534C343.463 135.036 345.777 120.253 347.237 115.189C348.289 111.546 351.471 104.549 352.01 106.127C352.97 108.942 349.893 113.506 351.878 112.348C353.916 111.164 355.494 110.454 357.427 109.639C361.082 108.087 363.936 107.64 363.896 110.599C363.857 113.545 362.555 116.399 359.123 119.516C355.389 122.91 350.603 133.813 351.247 137.614C351.891 141.389 345.961 148.399 344.489 140.534Z" fill="#F9B380"/>
<path fill-rule="evenodd" clip-rule="evenodd" d="M412.914 89.1868C411.152 88.5949 414.202 82.3738 412.94 80.664C411.678 78.941 396.044 85.5567 388.851 78.1124C381.659 70.6681 387.681 60.3566 392.546 61.2115C397.398 62.0664 398.792 65.223 405.524 64.3681C412.269 63.5132 421.145 63.3685 423.38 67.5247C425.602 71.6809 425.826 90.5283 415.806 97.6438C417.108 94.211 417.134 90.6072 412.914 89.1868Z" fill="#FFEB9C"/>
<path fill-rule="evenodd" clip-rule="evenodd" d="M420.106 82.058C421.474 82.6104 421.553 85.4908 420.29 88.5027C419.028 91.5015 416.911 93.4875 415.544 92.9351C414.176 92.3827 414.097 89.5023 415.359 86.4904C416.622 83.4917 418.752 81.5056 420.106 82.058Z" fill="#F9B380"/>
<path fill-rule="evenodd" clip-rule="evenodd" d="M399.594 117.978C399.055 134.365 402.223 210.952 401.474 222.855C397.621 226.59 385.025 225.867 379.292 222.474C383.565 198.102 383.223 168.877 380.501 150.569C379.16 141.56 377.411 134.418 378.187 127.868C382.645 123.725 389.022 121.042 399.594 117.978Z" fill="#E83F55"/>
<path fill-rule="evenodd" clip-rule="evenodd" d="M418.279 115.649C419.607 131.958 420.12 208.663 421.448 220.474C432.309 223.894 430.574 209.19 442.973 205.336C437.529 181.346 437.082 165.155 438.91 146.676C439.817 137.575 443.446 128.052 442.355 121.581C437.713 117.806 428.982 117.872 418.279 115.649Z" fill="#E83F55"/>
<path fill-rule="evenodd" clip-rule="evenodd" d="M448.969 208.506C446.142 212.583 443.21 217.607 440.094 220.645C437.148 219.186 434.598 213.451 434.663 209.689C437.201 208.019 440.225 205.836 442.947 204.626C446.221 203.153 450.258 206.651 448.969 208.506Z" fill="#F9B380"/>
<path fill-rule="evenodd" clip-rule="evenodd" d="M449.757 175.625C447.64 183.529 442.275 200.101 441.092 204.56C443.472 207.519 446.338 209.676 450.901 210.005C453.886 204.652 463.3 180.78 463.826 175.204C464.365 169.627 451.861 167.799 449.757 175.625Z" fill="#A62436"/>
<path fill-rule="evenodd" clip-rule="evenodd" d="M359.767 168.023C357.834 160.131 354.52 141.507 353.403 137.062C349.879 135.628 346.368 136.772 342.187 138.693C342.134 144.782 344.067 168.614 346.289 173.731C348.498 178.821 361.673 175.822 359.767 168.023Z" fill="#A62436"/>
<path fill-rule="evenodd" clip-rule="evenodd" d="M418.963 130.946L417.529 113.611L422.053 115.886L428.85 131.617C428.85 131.617 423.512 122.476 418.963 130.946Z" fill="#A62436"/>
<path fill-rule="evenodd" clip-rule="evenodd" d="M399.608 131.038C399.739 130.157 400.265 119.924 399.174 115.15C397.78 116.149 396.123 117.386 394.729 118.385C393.073 123.817 390.719 131.801 389.891 134.51C392.008 130.683 396.347 126.513 399.608 131.038Z" fill="#A62436"/>
<path fill-rule="evenodd" clip-rule="evenodd" d="M199.956 52.9385C191.12 54.3721 193.828 68.5505 195.787 80.5981C197.733 92.6457 199.798 99.0378 198.483 103.141C197.181 107.245 191.067 108.363 186.465 115.715C200.56 120.161 219.929 124.961 234.077 120.174C230.737 113.137 226.871 111.099 227.384 104.693C227.897 98.2881 232.972 91.1726 236.417 86.9376C239.862 82.7025 241.033 61.698 238.008 59.1728C230.632 53.0174 208.792 51.5049 199.956 52.9385Z" fill="#FFEB9C"/>
<path fill-rule="evenodd" clip-rule="evenodd" d="M208.488 5.40575C198.745 -1.19677 190.251 -1.67026 186.398 3.55125C182.559 8.78592 186.122 14.2047 184.426 19.9655C182.73 25.7394 177.102 26.5286 175.735 35.0776C174.38 43.6267 186.03 55.0693 198.416 50.729C212.288 45.8889 219.849 15.3227 208.488 5.40575Z" fill="#E83F55"/>
<path fill-rule="evenodd" clip-rule="evenodd" d="M206.017 24.7659C211.487 24.7659 215.957 20.3072 215.957 14.8226C215.957 9.35122 211.5 4.87939 206.017 4.87939C200.547 4.87939 196.076 9.33807 196.076 14.8226C196.089 20.3072 200.547 24.7659 206.017 24.7659Z" fill="#FFEB9C"/>
<path fill-rule="evenodd" clip-rule="evenodd" d="M210.251 34.6171C211 40.7067 210.225 48.9007 208.384 51.9257C205.267 57.0683 223.873 63.7629 222.637 55.1218C222.137 51.6758 222.65 43.0084 223.821 39.2863C224.991 35.5641 209.83 31.237 210.251 34.6171Z" fill="#D18F60"/>
<path fill-rule="evenodd" clip-rule="evenodd" d="M218.39 46.086C207.805 44.8892 198.995 24.2793 202.572 14.6517C206.49 4.0903 219.139 2.72245 225.963 11.6793C232.012 19.6102 229.343 47.3355 218.39 46.086Z" fill="#F9B380"/>
<path fill-rule="evenodd" clip-rule="evenodd" d="M230.395 11.5874C237.088 22.2408 214.616 28.7644 203.098 30.1849C187.503 12.7579 215.629 -11.916 230.395 11.5874Z" fill="#E83F55"/>
<path fill-rule="evenodd" clip-rule="evenodd" d="M202.256 22.0172C200.797 22.5302 200.534 25.5421 201.665 28.725C202.796 31.921 204.886 34.078 206.346 33.5651C207.805 33.0521 208.068 30.0402 206.937 26.8573C205.807 23.6744 203.716 21.5043 202.256 22.0172Z" fill="#F9B380"/>
<path fill-rule="evenodd" clip-rule="evenodd" d="M244.673 66.696C251.76 77.1784 259.334 91.8434 260.965 97.8935C263.2 106.127 257.138 108.179 252.681 103.207C249.565 99.7349 237.481 85.7012 232.471 73.43C226.62 59.0281 234.128 51.0972 244.673 66.696Z" fill="#FFEB9C"/>
<path fill-rule="evenodd" clip-rule="evenodd" d="M256.994 91.6068C262.49 80.2036 271.629 66.1699 276.047 61.7113C282.043 55.648 285.225 59.7516 283.16 66.1042C281.727 70.5366 277.046 88.2792 268.946 98.7748C259.44 111.086 248.815 108.573 256.994 91.6068Z" fill="#F9B380"/>
<path fill-rule="evenodd" clip-rule="evenodd" d="M281.977 17.1377H268.5C266.974 17.1377 265.567 18.3872 265.383 19.9129L260.663 58.2917C260.479 59.8173 261.57 61.0668 263.095 61.0668H276.573C278.098 61.0668 279.505 59.8173 279.689 58.2917L284.41 19.9129C284.607 18.3872 283.516 17.1377 281.977 17.1377Z" fill="#034257"/>
<path fill-rule="evenodd" clip-rule="evenodd" d="M283.543 65.67C284.884 59.9356 284.687 37.971 283.543 32.618C282.399 27.2649 281.636 38.7338 281.255 40.0754C280.874 41.4169 271.709 22.5037 270.171 25.7392C268.027 30.29 266.423 37.5633 268.448 43.8896C269.408 46.8752 276.087 60.6984 273.8 63.9471C271.499 67.1957 281.439 71.4045 283.543 65.67Z" fill="#F9B380"/>
<path fill-rule="evenodd" clip-rule="evenodd" d="M202.94 67.3274C200.561 79.7565 194.223 96.8415 191.106 102.287C186.873 109.691 182.376 106.548 182.731 99.8665C182.981 95.2106 184.427 75.7055 189.542 63.4869C195.564 49.1245 206.478 48.822 202.94 67.3274Z" fill="#FFEB9C"/>
<path fill-rule="evenodd" clip-rule="evenodd" d="M188.344 91.1857C196.496 81.5055 208.83 70.1681 214.208 66.9458C221.518 62.5529 224.148 66.4328 220.006 72.9696C217.508 76.9153 208.58 92.9218 198.14 101.09C184.925 111.427 176.22 105.588 188.344 91.1857Z" fill="#F9B380"/>
<path fill-rule="evenodd" clip-rule="evenodd" d="M211.026 69.3528C214.839 64.9205 224.7 54.0171 226.62 49.9924C228.527 45.9809 245.344 41.588 246.291 43.4951C247.251 45.4022 236.364 46.5465 238.835 48.6509C241.321 50.7553 241.886 58.3968 237.494 59.7384C233.103 61.0799 234.128 58.844 232.458 60.1198C229.46 62.4346 222.268 68.7084 220.361 72.5357C218.468 76.3631 206.502 74.6269 211.026 69.3528Z" fill="#F9B380"/>
<path fill-rule="evenodd" clip-rule="evenodd" d="M237.81 83.1628C238.086 79.901 234.352 72.7066 233.708 68.6031C233.05 64.4995 239.769 75.324 237.81 83.1628Z" fill="#E3CD76"/>
<path fill-rule="evenodd" clip-rule="evenodd" d="M199.455 81.111C200.665 76.9153 203.097 66.275 203.465 64.0391C203.847 61.79 205.056 71.1283 199.455 81.111Z" fill="#E3CD76"/>
<path fill-rule="evenodd" clip-rule="evenodd" d="M48.9 365.072C47.9401 371.122 42.2598 381.513 43.2854 387.55C44.2848 393.429 72.1866 398.177 81.049 395.31C84.2573 394.271 83.9943 389.851 80.3389 388.063C75.7105 385.787 71.5161 383.42 69.6358 381.802C64.9022 377.698 62.7458 374.713 58.2488 367.006C55.1457 361.705 49.7152 359.943 48.9 365.072Z" fill="#F9B380"/>
<path fill-rule="evenodd" clip-rule="evenodd" d="M43.4436 377.935C42.7073 381.355 42.9308 386.208 43.2858 387.549C44.7979 393.31 72.187 398.177 81.0494 395.309C84.2577 394.27 83.9947 389.851 80.3393 388.062C77.6964 386.76 75.185 385.432 73.1732 384.235C65.7309 389.917 49.9654 384.551 43.4436 377.935Z" fill="#CC3146"/>
<path fill-rule="evenodd" clip-rule="evenodd" d="M91.8061 185.318C92.6477 224.749 79.078 274.347 78.1313 288.249C77.1714 302.151 64.233 363.112 68.4538 369.202C60.9063 370.544 45.4301 368.334 40.7754 364.625C45.601 355.076 44.9436 326.351 57.4744 309.806C59.6177 306.965 57.5796 284.671 58.9208 265.495C60.4855 243.11 66.5209 231.983 66.2316 230.233C62.2738 205.862 67.6385 194.735 74.3707 177.426C82.0497 157.619 91.6089 176.216 91.8061 185.318Z" fill="#F7E18B"/>
<mask id="mask2_156_408" style="mask-type:luminance" maskUnits="userSpaceOnUse" x="40" y="168" width="52" height="202">
<path d="M91.8061 185.318C92.6477 224.749 79.078 274.347 78.1313 288.249C77.1714 302.151 64.233 363.112 68.4538 369.202C60.9063 370.544 45.4301 368.334 40.7754 364.625C45.601 355.076 44.9436 326.351 57.4744 309.806C59.6177 306.965 57.5796 284.671 58.9208 265.495C60.4855 243.11 66.5209 231.983 66.2316 230.233C62.2738 205.862 67.6385 194.735 74.3707 177.426C82.0497 157.619 91.6089 176.216 91.8061 185.318Z" fill="white"/>
</mask>
<g mask="url(#mask2_156_408)">
<path opacity="0.3" d="M142.508 294.812L3.69531 288.394" stroke="white" stroke-width="1.9199" stroke-miterlimit="22.9256"/>
<path opacity="0.3" d="M142.1 303.558L3.28711 297.153" stroke="white" stroke-width="1.9199" stroke-miterlimit="22.9256"/>
<path opacity="0.3" d="M44.2327 184.029L34.9102 386.05" stroke="white" stroke-width="1.9199" stroke-miterlimit="22.9256"/>
<path opacity="0.3" d="M141.705 312.318L2.89258 305.912" stroke="white" stroke-width="1.9199" stroke-miterlimit="22.9256"/>
<path opacity="0.3" d="M52.99 184.437L43.6543 386.458" stroke="white" stroke-width="1.9199" stroke-miterlimit="22.9256"/>
<path opacity="0.3" d="M141.297 321.077L2.48438 314.659" stroke="white" stroke-width="1.9199" stroke-miterlimit="22.9256"/>
<path opacity="0.3" d="M61.7478 184.831L52.4121 386.852" stroke="white" stroke-width="1.9199" stroke-miterlimit="22.9256"/>
<path opacity="0.3" d="M140.891 329.837L2.07812 323.418" stroke="white" stroke-width="1.9199" stroke-miterlimit="22.9256"/>
<path opacity="0.3" d="M70.4905 185.239L61.168 387.26" stroke="white" stroke-width="1.9199" stroke-miterlimit="22.9256"/>
<path opacity="0.3" d="M140.482 338.583L1.66992 332.178" stroke="white" stroke-width="1.9199" stroke-miterlimit="22.9256"/>
<path opacity="0.3" d="M79.2483 185.646L69.9258 387.668" stroke="white" stroke-width="1.9199" stroke-miterlimit="22.9256"/>
<path opacity="0.3" d="M140.088 347.342L1.27539 340.937" stroke="white" stroke-width="1.9199" stroke-miterlimit="22.9256"/>
<path opacity="0.3" d="M88.0056 186.054L78.6699 388.076" stroke="white" stroke-width="1.9199" stroke-miterlimit="22.9256"/>
<path opacity="0.3" d="M139.68 356.102L0.867188 349.684" stroke="white" stroke-width="1.9199" stroke-miterlimit="22.9256"/>
<path opacity="0.3" d="M96.7634 186.449L87.4277 388.47" stroke="white" stroke-width="1.9199" stroke-miterlimit="22.9256"/>
<path opacity="0.3" d="M139.273 364.862L0.460938 358.443" stroke="white" stroke-width="1.9199" stroke-miterlimit="22.9256"/>
<path opacity="0.3" d="M138.865 373.608L0.0527344 367.203" stroke="white" stroke-width="1.9199" stroke-miterlimit="22.9256"/>
<path opacity="0.3" d="M146.557 207.243L7.74414 200.824" stroke="white" stroke-width="1.9199" stroke-miterlimit="22.9256"/>
<path opacity="0.3" d="M146.15 216.002L7.33789 209.584" stroke="white" stroke-width="1.9199" stroke-miterlimit="22.9256"/>
<path opacity="0.3" d="M145.742 224.762L6.92969 218.344" stroke="white" stroke-width="1.9199" stroke-miterlimit="22.9256"/>
<path opacity="0.3" d="M145.334 233.508L6.52148 227.103" stroke="white" stroke-width="1.9199" stroke-miterlimit="22.9256"/>
<path opacity="0.3" d="M144.94 242.268L6.12695 235.863" stroke="white" stroke-width="1.9199" stroke-miterlimit="22.9256"/>
<path opacity="0.3" d="M144.533 251.027L5.7207 244.609" stroke="white" stroke-width="1.9199" stroke-miterlimit="22.9256"/>
<path opacity="0.3" d="M144.125 259.787L5.3125 253.368" stroke="white" stroke-width="1.9199" stroke-miterlimit="22.9256"/>
<path opacity="0.3" d="M143.717 268.533L4.9043 262.128" stroke="white" stroke-width="1.9199" stroke-miterlimit="22.9256"/>
<path opacity="0.3" d="M143.322 277.293L4.50977 270.887" stroke="white" stroke-width="1.9199" stroke-miterlimit="22.9256"/>
<path opacity="0.3" d="M142.916 286.052L4.10352 279.634" stroke="white" stroke-width="1.9199" stroke-miterlimit="22.9256"/>
</g>
<path fill-rule="evenodd" clip-rule="evenodd" d="M78.8795 370.399C78.7085 378.514 75.9078 393.021 77.3016 396.796C79.3791 402.386 107.11 404.503 115.644 400.768C118.734 399.413 118.037 395.047 114.224 393.626C109.398 391.824 104.98 389.891 102.955 388.457C97.8401 384.853 91.6602 379.474 89.8325 372.253C88.3204 366.322 78.9847 365.204 78.8795 370.399Z" fill="#F9B380"/>
<path fill-rule="evenodd" clip-rule="evenodd" d="M92.8826 198.299C93.1193 224.88 97.8397 262.772 98.4709 289.104C98.7864 302.295 95.8148 362.626 100.903 372.358C94.0003 373.647 75.697 373.49 70.6479 370.188C74.5794 362.152 75.9206 327.824 81.877 308.385C85.2431 297.416 76.8541 292.431 70.7794 275.478C64.8887 259.05 63.6395 243.412 62.8769 241.899C53.6595 223.46 58.025 208.334 65.7828 196.221C76.4071 179.61 92.8037 189.632 92.8826 198.299Z" fill="#FFEB9C"/>
<mask id="mask3_156_408" style="mask-type:luminance" maskUnits="userSpaceOnUse" x="57" y="187" width="44" height="187">
<path d="M92.8826 198.299C93.1193 224.88 97.8397 262.772 98.4709 289.104C98.7864 302.295 95.8148 362.626 100.903 372.358C94.0003 373.647 75.697 373.49 70.6479 370.188C74.5794 362.152 75.9206 327.824 81.877 308.385C85.2431 297.416 76.8541 292.431 70.7794 275.478C64.8887 259.05 63.6395 243.412 62.8769 241.899C53.6595 223.46 58.025 208.334 65.7828 196.221C76.4071 179.61 92.8037 189.632 92.8826 198.299Z" fill="white"/>
</mask>
<g mask="url(#mask3_156_408)">
<path opacity="0.3" d="M142.506 294.812L3.69336 288.394" stroke="white" stroke-width="1.9199" stroke-miterlimit="22.9256"/>
<path opacity="0.3" d="M142.098 303.558L3.28516 297.153" stroke="white" stroke-width="1.9199" stroke-miterlimit="22.9256"/>
<path opacity="0.3" d="M141.703 312.318L2.89062 305.912" stroke="white" stroke-width="1.9199" stroke-miterlimit="22.9256"/>
<path opacity="0.3" d="M141.295 321.077L2.48242 314.659" stroke="white" stroke-width="1.9199" stroke-miterlimit="22.9256"/>
<path opacity="0.3" d="M61.7458 184.831L52.4102 386.852" stroke="white" stroke-width="1.9199" stroke-miterlimit="22.9256"/>
<path opacity="0.3" d="M140.889 329.837L2.07617 323.418" stroke="white" stroke-width="1.9199" stroke-miterlimit="22.9256"/>
<path opacity="0.3" d="M70.4886 185.239L61.166 387.26" stroke="white" stroke-width="1.9199" stroke-miterlimit="22.9256"/>
<path opacity="0.3" d="M140.481 338.583L1.66797 332.178" stroke="white" stroke-width="1.9199" stroke-miterlimit="22.9256"/>
<path opacity="0.3" d="M79.2464 185.646L69.9238 387.668" stroke="white" stroke-width="1.9199" stroke-miterlimit="22.9256"/>
<path opacity="0.3" d="M140.086 347.342L1.27344 340.937" stroke="white" stroke-width="1.9199" stroke-miterlimit="22.9256"/>
<path opacity="0.3" d="M88.0037 186.054L78.668 388.076" stroke="white" stroke-width="1.9199" stroke-miterlimit="22.9256"/>
<path opacity="0.3" d="M139.678 356.102L0.865234 349.684" stroke="white" stroke-width="1.9199" stroke-miterlimit="22.9256"/>
<path opacity="0.3" d="M96.7615 186.449L87.4258 388.47" stroke="white" stroke-width="1.9199" stroke-miterlimit="22.9256"/>
<path opacity="0.3" d="M139.272 364.862L0.458984 358.443" stroke="white" stroke-width="1.9199" stroke-miterlimit="22.9256"/>
<path opacity="0.3" d="M105.504 186.856L96.1816 388.878" stroke="white" stroke-width="1.9199" stroke-miterlimit="22.9256"/>
<path opacity="0.3" d="M138.863 373.608L0.0507812 367.203" stroke="white" stroke-width="1.9199" stroke-miterlimit="22.9256"/>
<path opacity="0.3" d="M146.555 207.243L7.74219 200.838" stroke="white" stroke-width="1.9199" stroke-miterlimit="22.9256"/>
<path opacity="0.3" d="M146.148 216.002L7.33594 209.584" stroke="white" stroke-width="1.9199" stroke-miterlimit="22.9256"/>
<path opacity="0.3" d="M145.74 224.762L6.92773 218.344" stroke="white" stroke-width="1.9199" stroke-miterlimit="22.9256"/>
<path opacity="0.3" d="M145.332 233.508L6.51953 227.103" stroke="white" stroke-width="1.9199" stroke-miterlimit="22.9256"/>
<path opacity="0.3" d="M144.938 242.268L6.125 235.863" stroke="white" stroke-width="1.9199" stroke-miterlimit="22.9256"/>
<path opacity="0.3" d="M144.531 251.027L5.71875 244.609" stroke="white" stroke-width="1.9199" stroke-miterlimit="22.9256"/>
<path opacity="0.3" d="M144.123 259.787L5.31055 253.368" stroke="white" stroke-width="1.9199" stroke-miterlimit="22.9256"/>
<path opacity="0.3" d="M143.715 268.533L4.90234 262.128" stroke="white" stroke-width="1.9199" stroke-miterlimit="22.9256"/>
<path opacity="0.3" d="M143.32 277.293L4.50781 270.887" stroke="white" stroke-width="1.9199" stroke-miterlimit="22.9256"/>
<path opacity="0.3" d="M142.914 286.052L4.10156 279.634" stroke="white" stroke-width="1.9199" stroke-miterlimit="22.9256"/>
</g>
<path fill-rule="evenodd" clip-rule="evenodd" d="M65.0475 118.267C66.5333 122.133 67.8482 132.432 67.0855 139.113C66.3361 145.808 85.5991 146.847 82.6406 137.943C79.669 129.025 79.3271 120.029 79.7479 115.702C80.1818 111.375 64.6793 114.466 65.0475 118.267Z" fill="#D18F60"/>
<path fill-rule="evenodd" clip-rule="evenodd" d="M75.1328 130.867C63.0622 129.104 53.1874 105.298 57.3424 94.4608C61.9051 82.5842 76.3294 81.4926 84.0346 91.9356C90.872 101.208 87.6111 132.695 75.1328 130.867Z" fill="#F9B380"/>
<path fill-rule="evenodd" clip-rule="evenodd" d="M128.228 126.066C130.713 123.949 144.401 100.248 142.771 99.1299C141.14 98.0251 137.275 104.259 135.276 102.839C133.264 101.418 139.523 87.6347 135.513 92.8957C131.502 98.1566 127.505 114.86 121.93 119.727C116.355 124.606 121.812 131.367 128.228 126.066Z" fill="#F9B380"/>
<path fill-rule="evenodd" clip-rule="evenodd" d="M94.4743 142.191C102.416 134.194 115.46 122.752 121.706 118.753C124.427 120.634 127.228 123.159 128.346 125.619C126.268 129.275 114.802 145.387 106.742 152.095C96.3546 160.762 83.0085 153.726 94.4743 142.191Z" fill="#79F2F0"/>
<path fill-rule="evenodd" clip-rule="evenodd" d="M72.1732 133.958C78.5109 134.221 89.3719 138.469 95.1048 144.322C101.009 150.359 100.969 155.238 100.338 162.88C98.9048 180.372 86.1636 179.268 96.3276 202.745C86.8867 208.006 64.4022 201.416 60.2734 197.418C69.9247 191.999 58.2748 134.01 72.1732 133.958Z" fill="#5FD9D7"/>
<path fill-rule="evenodd" clip-rule="evenodd" d="M169.528 85.5697L145.807 76.5997C143.257 75.6396 140.679 77.0469 140.061 79.73L130.502 121.752C129.897 124.435 131.475 127.421 134.026 128.381L157.747 137.351C160.298 138.311 162.875 136.904 163.493 134.221L173.052 92.1985C173.67 89.5154 172.079 86.5298 169.528 85.5697Z" fill="#034257"/>
<path fill-rule="evenodd" clip-rule="evenodd" d="M94.2507 92.514C91.8708 101.024 76.1842 103.733 74.9482 112.137C74.3696 116.031 70.5039 111.848 70.2935 113.006C69.7544 116.136 75.4347 126.855 82.0617 134.01C84.4417 136.575 94.9082 139.192 96.6307 142.599C102.298 153.739 80.9704 128.539 75.0139 156.632C71.6741 172.415 47.638 172.902 43.1805 161.748C38.7231 150.595 48.1508 145.545 47.1383 135.904C46.1259 126.263 36.0144 124.514 37.3687 111.283C38.7099 98.0381 45.2449 96.1178 49.0449 89.8704C52.8449 83.623 58.3017 76.6128 72.0423 75.0345C82.1538 73.877 97.367 81.3871 94.2507 92.514Z" fill="#034257"/>
<path fill-rule="evenodd" clip-rule="evenodd" d="M157.601 142.296C161.217 135.312 168.686 130.025 171.145 127.263C173.603 124.514 172.63 103.799 170.093 103.589C167.555 103.378 169.278 120.503 165.898 120.503C162.519 120.503 161.322 115.439 157.733 115.649C154.143 115.86 166.635 124.304 150.909 136.798C135.182 149.306 149.87 153.094 157.601 142.296Z" fill="#F9B380"/>
<path fill-rule="evenodd" clip-rule="evenodd" d="M125.401 160.723C132.778 152.2 144.73 141.297 150.687 136.877C153.119 137.916 157.051 140.481 158.326 143.151C156.498 146.939 147.268 162.669 138.406 169.772C127.86 178.202 114.764 173.007 125.401 160.723Z" fill="#82FAF8"/>
<path fill-rule="evenodd" clip-rule="evenodd" d="M69.9921 104.759C68.4668 104.97 67.5858 107.85 68.046 111.204C68.4931 114.558 70.0973 117.109 71.6357 116.899C73.161 116.688 74.0419 113.808 73.5817 110.454C73.1215 107.1 71.5173 104.549 69.9921 104.759Z" fill="#F9B380"/>
<path fill-rule="evenodd" clip-rule="evenodd" d="M95.8425 145.413C108.702 150.845 123.889 159.631 131.423 164.892C135.973 168.075 134.618 174.993 126.808 173.862C121.693 173.125 99.3927 168.68 87.5718 161.038C73.4894 151.937 77.3026 137.574 95.8425 145.413Z" fill="#82FAF8"/>
<path fill-rule="evenodd" clip-rule="evenodd" d="M76.5794 387.51C76.461 391.232 76.5925 394.876 77.3157 396.809C79.3932 402.399 107.124 404.516 115.658 400.781C118.748 399.426 118.051 395.06 114.238 393.639C111.818 392.745 109.504 391.798 107.545 390.917C99.6556 396.743 83.0355 393.179 76.5794 387.51Z" fill="#E83F55"/>
<path fill-rule="evenodd" clip-rule="evenodd" d="M63.1538 242.807C64.1926 251.685 69.0708 278.161 77.2494 289.827C70.4646 283.027 62.4569 271.887 63.1538 242.807Z" fill="#E3CD76"/>
<path fill-rule="evenodd" clip-rule="evenodd" d="M235.509 195.301C235.89 198.917 234.273 208.098 233.655 210.334C233.037 212.557 238.507 201.693 235.509 195.301Z" fill="#A62436"/>
<path fill-rule="evenodd" clip-rule="evenodd" d="M212.156 251.646C211.091 250.975 210.986 247.95 211.604 248.2C215.904 250.028 223.425 251.106 227.685 248.699C227.935 248.265 228.54 251.291 227.514 251.79C223.333 254.039 217.403 253.882 212.156 251.646Z" fill="#ED5F72"/>
<path d="M434.399 144.387H425.09V148.307H434.399V144.387Z" fill="#A62436"/>
</g>
<defs>
<filter id="filter0_d_156_408" x="47.3477" y="331.56" width="420.361" height="57.4399" filterUnits="userSpaceOnUse" color-interpolation-filters="sRGB">
<feFlood flood-opacity="0" result="BackgroundImageFix"/>
<feColorMatrix in="SourceAlpha" type="matrix" values="0 0 0 0 0 0 0 0 0 0 0 0 0 0 0 0 0 0 127 0" result="hardAlpha"/>
<feOffset dx="2" dy="4"/>
<feGaussianBlur stdDeviation="2"/>
<feComposite in2="hardAlpha" operator="out"/>
<feColorMatrix type="matrix" values="0 0 0 0 0 0 0 0 0 0 0 0 0 0 0 0 0 0 0.25 0"/>
<feBlend mode="normal" in2="BackgroundImageFix" result="effect1_dropShadow_156_408"/>
<feBlend mode="normal" in="SourceGraphic" in2="effect1_dropShadow_156_408" result="shape"/>
</filter>
<filter id="filter1_d_156_408" x="355.057" y="372.753" width="129.943" height="47.2468" filterUnits="userSpaceOnUse" color-interpolation-filters="sRGB">
<feFlood flood-opacity="0" result="BackgroundImageFix"/>
<feColorMatrix in="SourceAlpha" type="matrix" values="0 0 0 0 0 0 0 0 0 0 0 0 0 0 0 0 0 0 127 0" result="hardAlpha"/>
<feOffset dx="2" dy="4"/>
<feGaussianBlur stdDeviation="2"/>
<feComposite in2="hardAlpha" operator="out"/>
<feColorMatrix type="matrix" values="0 0 0 0 0 0 0 0 0 0 0 0 0 0 0 0 0 0 0.25 0"/>
<feBlend mode="normal" in2="BackgroundImageFix" result="effect1_dropShadow_156_408"/>
<feBlend mode="normal" in="SourceGraphic" in2="effect1_dropShadow_156_408" result="shape"/>
</filter>
<filter id="filter2_d_156_408" x="30.6094" y="372.753" width="108.273" height="47.2468" filterUnits="userSpaceOnUse" color-interpolation-filters="sRGB">
<feFlood flood-opacity="0" result="BackgroundImageFix"/>
<feColorMatrix in="SourceAlpha" type="matrix" values="0 0 0 0 0 0 0 0 0 0 0 0 0 0 0 0 0 0 127 0" result="hardAlpha"/>
<feOffset dx="2" dy="4"/>
<feGaussianBlur stdDeviation="2"/>
<feComposite in2="hardAlpha" operator="out"/>
<feColorMatrix type="matrix" values="0 0 0 0 0 0 0 0 0 0 0 0 0 0 0 0 0 0 0.25 0"/>
<feBlend mode="normal" in2="BackgroundImageFix" result="effect1_dropShadow_156_408"/>
<feBlend mode="normal" in="SourceGraphic" in2="effect1_dropShadow_156_408" result="shape"/>
</filter>
<clipPath id="clip0_156_408">
<rect width="479" height="412" fill="white"/>
</clipPath>
</defs>
</svg>
