<svg width="601" height="377" viewBox="0 0 601 377" fill="none" xmlns="http://www.w3.org/2000/svg">
<g clip-path="url(#clip0_156_686)">
<path d="M601 0H0V377H601V0Z" fill="#F2F0F5"/>
<path d="M102.102 157.218H74.3555V296.135H102.102V157.218Z" fill="#034257"/>
<path opacity="0.69" d="M85.0362 157.671H73.8145V296.589H85.0362V157.671Z" fill="#034257"/>
<path d="M79.4247 199.512H51.6777V297.532H79.4247V199.512Z" fill="#034257"/>
<path opacity="0.69" d="M59.5274 199.512H51.6777V297.532H59.5274V199.512Z" fill="#034257"/>
<path d="M333.662 146.549H305.621V293.478H333.662V146.549Z" fill="#034257"/>
<path opacity="0.69" d="M314.342 146.728H305.621V293.657H314.342V146.728Z" fill="#034257"/>
<path d="M542.209 199.416H514.168V308.091H542.209V199.416Z" fill="#034257"/>
<path opacity="0.69" d="M522.889 199.549H514.168V308.224H522.889V199.549Z" fill="#034257"/>
<path d="M369.263 169.783H341.223V293.235H369.263V169.783Z" fill="#034257"/>
<path opacity="0.69" d="M349.944 169.934H341.223V293.387H349.944V169.934Z" fill="#034257"/>
<path d="M244.589 207.909H219.998V283.625H244.589V207.909Z" fill="#034257"/>
<path opacity="0.69" d="M227.095 207.927H220.121V284.395H227.095V207.927Z" fill="#034257"/>
<path d="M138.184 194.904H110.438V292.924H138.184V194.904Z" fill="#034257"/>
<path opacity="0.69" d="M118.287 194.904H110.438V292.924H118.287V194.904Z" fill="#034257"/>
<path d="M209.168 154.291H181.127V287.551H209.168V154.291Z" fill="#034257"/>
<path opacity="0.69" d="M189.848 153.205H181.127V286.465H189.848V153.205Z" fill="#034257"/>
<path d="M29.3535 299.41H556.623C556.623 299.41 447.576 277.4 359.413 273.685C259.431 269.475 29.3535 299.41 29.3535 299.41Z" fill="#034257"/>
<path d="M265.496 299.41C265.496 299.41 262.881 293.025 266.304 292.003C267.923 291.518 270.002 296.19 270.002 296.19C270.002 296.19 270.002 283.291 275.108 283.63C278.251 283.84 277.741 295.544 277.741 295.544C277.741 295.544 279.742 289.076 281.531 289.337C285.485 289.924 282.421 299.406 282.421 299.406H265.496V299.41Z" fill="#034257"/>
<path d="M29.3535 299.41H556.623C556.623 299.41 545.851 328.934 486.783 328.934C455.912 328.934 414.916 325.461 388.389 331.682C361.862 337.903 248.98 352.181 145.658 338.856C42.2314 325.521 29.3535 299.41 29.3535 299.41Z" fill="#034257"/>
<path d="M286.861 299.195C286.861 299.195 294.784 277.404 303.162 277.404C308.309 277.404 295.757 295.448 295.757 295.448C295.757 295.448 308.63 282.48 310.039 288.412C311.066 292.759 304.699 299.415 304.699 299.415L286.861 299.195Z" fill="#034257"/>
<path d="M59.0585 299.41C59.0585 299.41 52.6723 287.29 57.2647 283.359C59.8109 281.183 64.674 292.75 64.674 292.75C64.674 292.75 64.4492 272.407 69.3535 273.309C74.2579 274.207 69.3535 292.003 69.3535 292.003C69.3535 292.003 76.2306 281.939 79.9421 283.845C83.6536 285.746 74.6203 299.415 74.6203 299.415H59.0585V299.41Z" fill="#034257"/>
<path d="M398.615 299.41C398.615 299.41 394.348 291.312 397.417 288.682C399.119 287.23 402.372 294.958 402.372 294.958C402.372 294.958 402.221 281.362 405.496 281.962C408.772 282.562 405.496 294.454 405.496 294.454C405.496 294.454 410.093 287.729 412.575 288.998C415.057 290.267 409.015 299.406 409.015 299.406H398.615V299.41Z" fill="#034257"/>
<path d="M86.1681 299.896C86.1681 299.896 83.4291 294.628 85.9662 292.929C87.6958 291.77 90.0034 297.148 90.0034 297.148C90.0034 297.148 92.1046 288.87 95.261 289.204C98.4174 289.534 96.1832 299.795 96.1832 299.795L86.1681 299.896Z" fill="#034257"/>
<path d="M166.312 299.896C166.312 299.896 169.051 294.628 166.514 292.929C164.784 291.77 162.476 297.148 162.476 297.148C162.476 297.148 160.375 288.87 157.219 289.204C154.062 289.534 156.297 299.795 156.297 299.795L166.312 299.896Z" fill="#034257"/>
<path d="M332.096 171.107L331.022 176.164H336.642V172.311C336.642 172.311 340.978 169.664 341.391 165.088C341.803 160.511 341.803 155.326 339.326 154.066C336.849 152.806 334.371 156.421 333.747 157.625C333.128 158.83 333.541 159.728 332.096 160.365C330.651 160.997 330.779 160.594 329.894 161.116C329.008 161.638 331.169 162.055 330.137 163.645C329.104 165.234 328.453 167.016 329.343 168.702C330.238 170.383 332.096 171.107 332.096 171.107Z" fill="#FFB7A1"/>
<path d="M339.94 149.907C339.94 149.907 338.046 149.49 335.004 151.272C330.219 154.066 329.875 156.297 333.27 157.676C334.765 158.285 337.022 156.356 337.087 158.074C337.151 159.797 334.93 160.612 336.986 161.024C339.041 161.437 340.541 159.778 340.436 161.588C340.33 163.397 334.999 165.005 338.188 167.437C341.376 169.87 335.738 170.021 335.256 173.392C334.215 180.658 340.739 180.424 339.66 183.328C338.413 186.691 344.487 189.874 349.776 185.069C352.3 182.779 350.965 178.894 353.277 178.276C355.589 177.657 360.053 175.037 357.833 170.534C356.488 167.813 353.332 168.894 351.786 165.61C350.24 162.321 357.094 159.357 350.882 153.64C348.63 151.565 344.955 153.617 343.808 152.756C342.661 151.899 342.051 150.081 339.94 149.907Z" fill="#FFCC51"/>
<path d="M365.751 300.972C365.751 300.972 365.127 295.187 360.393 287.583C355.658 279.979 340.184 249.525 340.184 249.525L351.19 247.001C351.19 247.001 350.717 252.746 352.883 256.639C353.539 257.821 360.829 268.032 363.664 276.007C366.504 283.978 366.577 287.839 372.427 296.712L365.751 300.972Z" fill="#FFB7A1"/>
<path d="M326.411 305.741C326.411 305.741 326.613 294.624 326.062 285.398C325.512 276.172 324.645 245.407 324.645 245.407L335.573 248.009C335.573 248.009 333.403 254.207 333.453 258.829C333.467 260.231 336.334 272.063 334.985 280.881C333.637 289.695 332.311 292.608 333.247 303.506L326.411 305.741Z" fill="#FFB7A1"/>
<path d="M333.242 303.501L326.328 305.004C326.328 305.004 322.258 309.145 319.63 310.079C318.336 310.537 316.744 311.44 318.24 311.866C323.181 313.281 328.177 309.507 328.177 309.507C328.177 309.507 329.539 306.753 331.117 309.094L334.132 308.512L333.242 303.501Z" fill="#6C4F7E"/>
<path d="M371.588 295.512L365.964 299.8C365.964 299.8 364.037 305.274 362.055 307.234C361.078 308.201 360.018 309.685 361.555 309.442C366.629 308.632 369.551 303.093 369.551 303.093C369.551 303.093 369.615 300.024 372.038 301.476L374.52 299.676L371.588 295.512Z" fill="#6C4F7E"/>
<path d="M328.136 140.704C327.274 140.548 323.782 139.889 322.92 139.605C322.057 139.316 317.786 155.33 318.066 160.612C318.286 164.744 323.535 181.033 323.535 181.033C323.535 181.033 323.379 186.576 323.631 188.088C324.122 191.042 324.686 192.233 325.838 195.106C326.989 197.978 328.136 212.907 328.136 212.907L345.519 211.184C345.519 211.184 343.225 192.49 343.955 189.077C344.386 187.062 348.13 176.288 351.965 168.972C354.103 164.891 355.722 159.87 354.745 155.367L352.029 139.733L345.978 140.502L347.763 159.252L340.665 176.159H329.907C329.907 176.159 325.177 164.006 325.067 158.908C324.971 154.488 328.136 140.704 328.136 140.704Z" fill="#81A8C3"/>
<path d="M327.75 140.631C327.75 140.631 330.058 135.683 328.879 132.509C327.273 128.185 328.163 134.685 327.36 134.685C324.534 134.68 324.13 126.609 321.364 126.691C318.217 126.787 322.919 139.595 322.919 139.595L327.75 140.631Z" fill="#FFA397"/>
<path d="M365.229 86.7377C365.229 86.7377 359.706 84.9329 355.801 80.0452C351.897 75.1575 349.3 68.2359 348.153 64.869C344.809 55.0752 344.836 46.6649 340.207 45.0295C333.445 42.6429 332.211 46.5916 332.014 48.7262C331.821 50.8609 332.633 69.633 336.996 75.5926C336.996 75.5926 303.858 75.4048 301.092 80.4162C298.605 84.9192 299.803 89.5916 303.331 91.5109C304.106 91.9324 297.729 93.2608 298.417 99.17C299.17 105.62 309.153 106.266 309.153 106.266C309.153 106.266 301.996 107.122 302.647 114.186C303.225 120.48 313.323 121.698 313.323 121.698C313.323 121.698 305.73 122.097 307.538 128.886C308.391 132.092 316.053 132.83 316.053 132.83L360.215 137.461L365.229 86.7377Z" fill="#606060"/>
<g opacity="0.8">
<path d="M303.33 91.4786C299.807 89.5639 298.71 84.9464 301.091 80.3839C303.619 75.5374 336.995 75.5603 336.995 75.5603C332.632 69.5961 331.82 50.8286 332.013 48.6939C332.206 46.5593 333.577 42.6061 340.271 45.0522C341.611 45.5423 342.625 46.4585 343.675 48.9596C343.317 48.6619 343.019 48.5199 342.666 48.3137C336.472 44.727 333.573 48.1122 333.665 50.9294C334.169 66.6919 337.188 72.9218 339.698 78.3455C339.698 78.3455 310.524 75.6657 305.67 81.7719C302.624 85.606 305.642 91.4237 309.001 92.5505C309.147 92.6009 314.277 94.0805 318.236 94.4699C318.534 94.4974 307.372 94.7356 307.143 94.7676C303.913 95.2303 302.114 97.1451 302.431 100.233C302.729 103.128 306.95 105.281 309.134 106.238C308.799 106.215 299.146 105.482 298.407 99.1423C297.733 93.2285 304.11 91.9001 303.33 91.4786Z" fill="#606060"/>
<path d="M309.156 106.238C311.652 107.333 314.221 107.493 314.221 107.493C314.221 107.493 334.655 108.895 334.251 109.005C333.838 109.115 312.477 108.45 311.863 108.757C310.05 109.664 307.963 111.089 308.289 115.161C308.775 121.222 317.905 122.335 317.905 122.335C317.905 122.335 311.032 122.765 312.629 129.293C313.381 132.376 320.309 133.04 320.309 133.04L316.06 132.797C316.06 132.797 308.399 132.06 307.545 128.853C305.738 122.069 313.331 121.666 313.331 121.666C313.331 121.666 303.233 120.448 302.655 114.154C302.017 107.214 308.922 106.265 309.156 106.238Z" fill="#606060"/>
</g>
<path d="M364 137.781L382.264 139.582C384.337 139.788 386.182 138.272 386.388 136.206L391.627 83.1966C391.834 81.126 390.315 79.2846 388.246 79.0784L369.982 77.2782C367.908 77.072 366.064 78.5883 365.858 80.6542L360.618 133.663C360.412 135.734 361.926 137.575 364 137.781Z" fill="#612FAA"/>
<path opacity="0.21" d="M380.497 115.377L388.232 79.0739C390.31 79.28 391.829 81.1261 391.627 83.2057L386.392 136.192C386.186 138.267 384.337 139.783 382.258 139.577L363.958 137.772C361.912 137.571 360.416 135.748 360.618 133.704L361.022 129.6C370.193 130.507 378.579 124.383 380.497 115.377Z" fill="#612FAA"/>
<path d="M345.978 140.498C345.978 140.498 343.455 132.422 343.923 131.588C344.386 130.754 345.263 134.96 347.318 134.671C348.502 134.506 349.534 123.97 351.525 124.96C354.824 126.59 350.768 139.889 350.768 139.889L345.978 140.498Z" fill="#FFA397"/>
<path d="M357.356 242.993L345.134 211.111L327.751 212.393L317.154 240.817C316.727 241.963 317.108 243.254 318.089 243.983C322.792 247.455 337.326 255.847 356.709 244.793C357.343 244.436 357.613 243.671 357.356 242.993Z" fill="#CC668A"/>
<path opacity="0.27" d="M350.57 238.637C353.03 231.958 342.014 211.725 342.014 211.725L327.627 212.677L327.71 212.453L345.093 211.17L357.333 243.099C357.581 243.749 357.315 244.482 356.714 244.826C350.658 248.289 345.07 249.851 340.11 250.254C344.437 249.443 348.538 244.157 350.57 238.637Z" fill="#CC6FA9"/>
<path d="M345.092 206.686L345.821 212.907L327.066 214.235L327.672 207.584L345.092 206.686Z" fill="#6C4F7E"/>
<path d="M333.179 207.313L333.537 207.254C333.509 207.094 330.775 191.07 331.197 189.215C331.628 187.327 334.381 176.306 334.408 176.196L334.055 176.109C334.028 176.219 331.27 187.25 330.839 189.137C330.403 191.056 333.069 206.654 333.179 207.313Z" fill="#606060"/>
<path d="M333.389 188.931C333.389 189.398 333.765 189.774 334.233 189.774C334.701 189.774 335.077 189.398 335.077 188.931C335.077 188.463 334.701 188.088 334.233 188.088C333.765 188.088 333.389 188.463 333.389 188.931Z" fill="#606060"/>
<path d="M333.389 196.045C333.389 196.512 333.765 196.888 334.233 196.888C334.701 196.888 335.077 196.512 335.077 196.045C335.077 195.577 334.701 195.202 334.233 195.202C333.765 195.202 333.389 195.582 333.389 196.045Z" fill="#606060"/>
<path d="M334.234 202.467C334.234 202.934 334.611 203.31 335.079 203.31C335.546 203.31 335.923 202.934 335.923 202.467C335.923 202 335.546 201.624 335.079 201.624C334.611 201.624 334.234 202 334.234 202.467Z" fill="#606060"/>
<path d="M340.95 213.369L342.395 213.204L341.68 206.86L340.221 206.938L340.95 213.369Z" fill="#CC668A"/>
<path d="M335.463 214.189L336.912 214.024L336.16 207.148L334.701 207.217L335.463 214.189Z" fill="#CC668A"/>
<path d="M329.839 214.24L331.289 214.139L330.853 207.419L329.398 207.497L329.839 214.24Z" fill="#CC668A"/>
<path opacity="0.3" d="M343.954 189.073C342.927 191.519 342.532 194.185 342.812 196.823L343.854 206.745L345.005 206.681C345.005 206.686 343.312 191.853 343.954 189.073Z" fill="#8CADC3"/>
<path opacity="0.3" d="M323.54 181.033C324.247 179.283 324.206 177.318 323.421 175.6L319.246 166.448L323.54 181.033Z" fill="#8CADC3"/>
<path d="M333.829 160.571C333.655 160.956 333.614 161.313 333.737 161.372C333.861 161.432 334.109 161.166 334.283 160.777C334.458 160.392 334.499 160.03 334.375 159.975C334.251 159.92 334.008 160.186 333.829 160.571Z" fill="#050505"/>
<path d="M331.55 166.462C332.091 166.462 332.619 165.967 332.642 165.94C332.715 165.871 332.715 165.756 332.646 165.683C332.578 165.61 332.463 165.61 332.39 165.678C332.234 165.825 331.761 166.178 331.426 166.082C331.233 166.027 331.087 165.816 330.995 165.454C330.972 165.358 330.871 165.298 330.775 165.321C330.678 165.344 330.619 165.445 330.642 165.541C330.765 166.036 330.995 166.334 331.321 166.425C331.403 166.453 331.477 166.462 331.55 166.462Z" fill="#FFA397"/>
<path opacity="0.3" d="M325.604 140.173L328.136 140.704L325.604 153.539V140.173Z" fill="#8CADC3"/>
<path d="M488.651 216.644C488.651 216.644 487.486 251.436 487.477 263.034C487.467 273.872 488.963 307.83 488.963 307.83H497.01L498.171 247.56C498.171 247.56 501.02 257.716 502.823 267.5C504.392 276.016 514.214 307.042 514.214 307.042L522.261 306.117C522.261 306.117 509.108 249.851 511.292 261.394C512.742 269.058 506.048 214.569 506.007 214.061L488.651 216.644Z" fill="#FF4A4B"/>
<path d="M481.093 315.59L489.627 312.049H496.284V315.237C496.284 315.869 495.77 316.382 495.137 316.382H481.249C480.8 316.387 480.676 315.764 481.093 315.59Z" fill="#28242B"/>
<path d="M496.29 307.834H489.633V312.049H496.29V307.834Z" fill="#784E35"/>
<path d="M508.239 315.342L515.672 310.812L522.25 309.777L522.723 312.786C522.819 313.386 522.397 313.95 521.792 314.028L508.372 315.727C508.152 315.755 508.051 315.462 508.239 315.342Z" fill="#28242B"/>
<path d="M514.924 306.95L521.686 306.172L522.255 309.777L515.676 310.812L514.924 306.95Z" fill="#784E35"/>
<path opacity="0.3" d="M494.918 226.314L498.162 247.56L497.721 282.677L494.918 226.314Z" fill="#FF4A4B"/>
<path opacity="0.18" d="M488.568 219.113C488.568 219.113 492.037 220.932 496.542 220.932C501.047 220.932 506.002 214.061 506.002 214.061L488.568 214.162V219.113Z" fill="#BB8551"/>
<path d="M488.65 216.786C488.65 216.786 499.661 220.414 506.001 214.056L501.689 186.713C501.689 186.713 511.534 199.737 513.415 204.78C515.351 209.966 515.603 226.314 515.603 226.314H522.178C522.178 226.314 522.857 209.393 519.338 199.833C515.126 188.385 502.643 175.243 500.152 174.364C495.321 172.66 486.026 173.214 486.026 173.214L481.03 153.668L473.694 130.576C473.694 130.576 466.867 128.771 467.271 130.576C471.189 148.12 476.699 166.425 482.108 180.937C482.773 182.719 483.342 189.673 484.168 194.258C485.168 199.801 488.65 216.786 488.65 216.786Z" fill="#BB824B"/>
<path d="M493.916 173.218L492.169 165.926C492.169 165.926 496.242 161.968 494.472 158.537C492.696 155.106 488.54 153.095 486.09 155.372C483.64 157.644 482.919 159.329 481.071 159.856L480.483 160.026C479.979 160.172 479.864 160.837 480.295 161.139L481.864 162.234C481.864 162.234 481.043 163.777 480.809 164.968C480.034 168.88 482.667 169.728 484.112 169.87C486.356 170.09 486.888 169.526 486.888 169.526L487.897 173.218C487.897 173.218 489.87 175.811 492.462 175.404C494.715 175.051 493.916 173.218 493.916 173.218Z" fill="#784E35"/>
<path d="M485.186 156.26C485.186 156.26 485.3 158.477 486.355 159.65C487.411 160.823 488.236 161.409 488.704 161.176C489.172 160.942 490.232 159.297 491.287 160.236C492.342 161.175 491.407 163.287 489.76 163.402C488.117 163.521 488.943 168.551 492.535 167.456C495.742 166.48 498.834 163.246 498.036 158.345C497.394 154.405 489.994 150.74 485.186 156.26Z" fill="#28242B"/>
<path d="M497.574 155.802L498.547 157.034C498.547 157.034 502.524 153.452 504.355 155.193C505.506 156.288 505.883 157.186 504.355 159.297C502.827 161.409 503.488 163.782 505.685 165.779C507.704 167.616 511.136 164.964 511.136 164.964C511.136 164.964 507.961 165.747 506.993 163.635C506.764 163.132 508.415 164.726 510.7 163.869C511.328 163.635 507.754 163.168 509.067 160.53C510.374 157.891 514.251 152.527 507.062 149.705C501.974 147.713 497.574 155.802 497.574 155.802Z" fill="#28242B"/>
<path d="M513.828 233.337C513.828 233.337 515.705 234.739 516.585 232.641C517.462 230.547 517.342 229.993 517.462 230.547C518.379 234.826 517.494 242.466 519.953 239.974C520.902 239.012 522.329 233.855 521.678 231.734C521.026 229.617 521.348 226.31 521.348 226.31H516.319C516.315 226.315 516.783 229.961 513.828 233.337Z" fill="#784E35"/>
<path d="M467.743 130.223C467.743 130.223 465.252 127.09 464.61 125.312C462.921 120.663 464.632 120.246 466.206 120.168C468.362 120.058 466.917 124.557 468.399 125.656C473.436 129.403 468.376 122.083 470.684 122.225C471.601 122.28 472.785 130.223 472.785 130.223H467.743Z" fill="#784E35"/>
<path d="M496.963 156.15L498.16 154.73L499.679 156.15L497.825 157.914L496.963 156.15Z" fill="#739627"/>
<path d="M484.172 160.346C484.172 160.846 484.067 161.249 483.934 161.249C483.801 161.249 483.695 160.846 483.695 160.346C483.695 159.847 483.801 159.444 483.934 159.444C484.067 159.444 484.172 159.847 484.172 160.346Z" fill="#050505"/>
<path d="M481.878 165.289C481.86 165.289 481.841 165.289 481.823 165.289C481.41 165.262 481.158 164.913 481.148 164.9L481.437 164.689C481.437 164.694 481.607 164.918 481.85 164.932C482.016 164.941 482.19 164.854 482.364 164.671L482.621 164.918C482.383 165.165 482.135 165.289 481.878 165.289Z" fill="#894D28"/>
<path d="M490.756 163.828C490.756 164.446 490.251 164.95 489.632 164.95C489.012 164.95 488.508 164.446 488.508 163.828C488.508 163.209 489.012 162.705 489.632 162.705C490.251 162.701 490.756 163.205 490.756 163.828Z" fill="#606060"/>
<path opacity="0.3" d="M501.689 186.713L499.639 183.905C499.639 183.905 505.038 207.95 503.947 215.696L506.002 214.056L501.689 186.713Z" fill="#9271AA"/>
<path opacity="0.32" d="M503.941 215.696L511.286 261.394L505.997 214.061L503.941 215.696Z" fill="#FF3031"/>
<path d="M495.381 216.04C491.678 216.04 488.517 214.336 488.48 214.317L488.65 214.006C488.692 214.029 492.917 216.301 497.248 215.527C501.592 214.748 504.689 211.729 504.721 211.697L504.974 211.949C504.941 211.981 501.762 215.078 497.312 215.875C496.665 215.989 496.014 216.04 495.381 216.04Z" fill="#739627"/>
<path d="M491.344 176.842C488.66 176.842 487.375 174.872 487.32 174.785L487.623 174.593C487.637 174.611 488.963 176.636 491.66 176.475L491.683 176.833C491.569 176.837 491.454 176.842 491.344 176.842Z" fill="#739627"/>
<path d="M520.627 224.171H515.553V224.528H520.627V224.171Z" fill="#739627"/>
<path d="M474.106 131.707H469.092V132.064H474.106V131.707Z" fill="#739627"/>
<path d="M457.609 61.1537L471.423 81.1763L495.775 81.1672C498.395 81.1672 499.881 84.1676 498.289 86.2427L483.484 105.546L491.017 128.666C491.829 131.153 489.43 133.489 486.957 132.619L463.995 124.524L444.3 138.826C442.18 140.365 439.212 138.807 439.281 136.192L439.891 111.886L420.182 97.6031C418.062 96.0639 418.627 92.7658 421.136 92.0237L444.479 85.0929L451.994 61.9645C452.81 59.4817 456.123 59.0007 457.609 61.1537Z" fill="#FFCC51"/>
<g opacity="0.44">
<path d="M495.775 81.1672H491.004C492.357 82.0376 492.862 83.9753 491.752 85.4274L477.984 103.38L484.989 124.877C485.742 127.191 483.512 129.362 481.213 128.556L459.862 121.029L441.547 134.327C440.845 134.836 440.047 134.978 439.309 134.84L439.276 136.196C439.212 138.812 442.176 140.37 444.295 138.83L463.991 124.529L486.953 132.623C489.426 133.494 491.825 131.158 491.013 128.67L483.48 105.551L498.285 86.2473C499.881 84.1677 498.399 81.1672 495.775 81.1672Z" fill="#FFCC51"/>
<path d="M453.931 62.1019L466.776 80.7229H471.112L457.615 61.1583C456.348 59.3214 453.756 59.4084 452.518 61.0117C453.054 61.2041 453.554 61.5614 453.931 62.1019Z" fill="#FFCC51"/>
</g>
<path d="M449.48 86.5404C449.053 86.4625 448.769 86.0503 448.847 85.6243L449.953 79.6142C450.031 79.1882 450.443 78.9042 450.87 78.9821C451.297 79.06 451.581 79.4722 451.503 79.8983L450.398 85.9083C450.32 86.3343 449.907 86.6183 449.48 86.5404Z" fill="#606060"/>
<path d="M451.375 76.2382C450.948 76.1604 450.663 75.7481 450.741 75.3221L450.952 74.1769C451.03 73.7508 451.443 73.4668 451.87 73.5447C452.297 73.6226 452.581 74.0349 452.503 74.4609L452.292 75.6061C452.209 76.0367 451.801 76.3207 451.375 76.2382Z" fill="#606060"/>
<path d="M102.74 300.565L101.46 304.023C101.08 305.049 101.534 306.199 102.516 306.689L117.467 314.119C119.243 312.182 110.833 304.266 110.833 304.266L102.74 300.565Z" fill="#28242B"/>
<path d="M135.303 307.601V310.798C135.303 312.026 136.298 313.02 137.528 313.02H155.489C156.214 309.493 145.914 307.601 145.914 307.601H135.303Z" fill="#28242B"/>
<path d="M121.127 218.66C121.127 218.66 116.938 252.077 114.411 263.002C112.149 272.787 103.088 300.73 103.088 300.73L110.832 304.266C110.832 304.266 122.136 278.05 124.857 269.058C127.504 260.304 133.399 233.483 133.399 233.483L135.299 265.842L135.748 307.605H145.41L147.236 265.036L145.24 218.664C128.215 221.266 121.127 218.66 121.127 218.66Z" fill="#B6BCE8"/>
<path opacity="0.27" d="M135.304 228.454L133.404 233.479L134.024 244.061L135.304 228.454Z" fill="white"/>
<path d="M121.062 220.447C121.062 220.447 129.206 226.337 134.353 226.837C142.052 227.583 145.561 226.053 145.561 226.053L145.401 220.24L121.801 217.336L121.062 220.447Z" fill="#532083"/>
<path d="M141.557 156.228C141.557 156.228 137.437 162.266 136.519 166.581C135.602 170.896 136.519 173.484 136.519 173.484L134.771 179.169L141.332 180.795L143.158 175.426C143.158 175.426 145.906 175.211 147.507 173.915C149.108 172.623 150.255 168.738 150.255 168.738H152.774C152.774 168.738 150.714 163.777 151.173 161.189C151.627 158.601 149.338 151.913 141.557 156.228Z" fill="#F39E7A"/>
<path d="M168.134 146.05C168.134 146.05 168.63 141.441 168.134 138.281C167.639 135.12 171.116 142.252 171.616 142.165C172.112 142.074 175.594 132.642 181.067 132.142C186.54 131.648 175.098 146.05 175.098 146.05H168.134Z" fill="#F39E7A"/>
<path d="M190.898 79.0509L71.1159 97.1771C66.3492 97.9009 63.0368 102.385 63.7617 107.145L69.7304 146.467C70.4553 151.226 74.9467 154.533 79.7134 153.81L86.7098 152.751L82.8652 170.736L97.615 151.098L199.501 135.679C204.267 134.955 207.58 130.47 206.855 125.711L200.886 86.3893C200.157 81.6345 195.665 78.3317 190.898 79.0509Z" fill="#FFCC51"/>
<path d="M167.069 106.325L86.865 118.464C85.0161 118.744 83.2957 117.475 83.0113 115.629C82.7314 113.783 84.0022 112.065 85.8511 111.781L166.055 99.6416C167.904 99.3622 169.624 100.631 169.909 102.477C170.184 104.323 168.913 106.046 167.069 106.325Z" fill="#606060"/>
<path d="M167.133 106.751L86.9294 118.89C84.8511 119.206 82.9013 117.772 82.5848 115.697C82.2682 113.622 83.7042 111.675 85.7824 111.359L165.986 99.2202C168.064 98.9041 170.014 100.338 170.331 102.413C170.647 104.493 169.211 106.44 167.133 106.751ZM85.9109 112.211C84.3006 112.454 83.1903 113.961 83.4335 115.564C83.6767 117.172 85.186 118.281 86.7918 118.038L166.995 105.899C168.606 105.656 169.716 104.149 169.473 102.546C169.23 100.938 167.72 99.8294 166.115 100.072L85.9109 112.211Z" fill="#606060"/>
<path d="M136.826 128.02L89.4021 135.198C87.5533 135.477 85.8328 134.208 85.5484 132.362C85.2685 130.516 86.5394 128.798 88.3836 128.514L135.808 121.336C137.656 121.057 139.381 122.326 139.661 124.172C139.941 126.018 138.675 127.74 136.826 128.02Z" fill="#606060"/>
<path d="M136.89 128.446L89.4665 135.624C87.3882 135.94 85.4384 134.506 85.1219 132.431C84.8053 130.356 86.2413 128.409 88.3196 128.093L135.744 120.915C137.822 120.599 139.772 122.032 140.088 124.108C140.405 126.187 138.969 128.13 136.89 128.446ZM88.4526 128.945C86.8423 129.188 85.732 130.695 85.9752 132.298C86.2183 133.906 87.7277 135.014 89.3335 134.772L136.757 127.594C138.368 127.351 139.478 125.844 139.235 124.24C138.992 122.633 137.482 121.524 135.877 121.767L88.4526 128.945Z" fill="#606060"/>
<path d="M160.945 124.804L152.463 126.087C150.384 126.403 148.435 124.969 148.118 122.894C147.801 120.819 149.237 118.872 151.316 118.556L159.798 117.273C161.877 116.957 163.827 118.391 164.143 120.466C164.46 122.546 163.024 124.492 160.945 124.804ZM151.449 119.412C149.838 119.655 148.728 121.162 148.971 122.765C149.214 124.373 150.724 125.482 152.33 125.239L160.812 123.956C162.423 123.714 163.533 122.207 163.29 120.603C163.047 118.995 161.537 117.887 159.932 118.13L151.449 119.412Z" fill="#606060"/>
<path d="M117.287 153.013C117.287 153.013 116.791 148.404 117.287 145.244C117.782 142.083 114.305 149.215 113.805 149.128C113.309 149.036 109.827 139.605 104.354 139.105C98.8805 138.611 110.322 153.013 110.322 153.013H117.287Z" fill="#F39E7A"/>
<path d="M136.23 172.114C138.322 172.389 140.29 171.084 140.855 169.054C141.717 165.967 142.979 161.982 143.768 161.982C145.057 161.982 143.52 167.983 144.8 167.799C146.085 167.616 145.828 160.314 147.236 160.763C148.645 161.212 153.035 160.694 152.765 158.903C152.494 157.112 147.236 149.174 139.474 154.808C130.95 161.006 136.23 172.114 136.23 172.114Z" fill="#28242B"/>
<path d="M128.703 178.262L148.907 180.543L158.477 175.623C161.179 173.475 163.047 170.452 163.762 167.08L168.13 146.476H175.094L172.539 168.445C172.103 172.201 170.259 175.651 167.373 178.102L148.99 191.826C148.99 191.826 147.838 210.497 146.43 218.866C146.099 220.818 145.76 222.21 145.411 222.668C141.732 227.588 121.124 218.738 121.124 218.738L125.303 188.825L111.416 183.003C108.558 181.803 106.86 178.834 107.278 175.765L110.319 153.434H117.284L114.742 174.597L128.703 178.262Z" fill="#FF4A4B"/>
<path opacity="0.26" d="M125.311 188.821L129.413 189.847L122.256 210.68L125.311 188.821Z" fill="#ED3737"/>
<path d="M149.704 164.245C149.612 164.657 149.429 164.968 149.296 164.941C149.163 164.913 149.126 164.552 149.213 164.139C149.305 163.727 149.489 163.415 149.622 163.443C149.759 163.47 149.796 163.828 149.704 164.245Z" fill="#050505"/>
<path d="M147.988 170.323C147.557 169.998 147.433 169.288 147.429 169.251C147.41 169.155 147.479 169.059 147.576 169.045C147.672 169.032 147.768 169.096 147.782 169.192C147.819 169.403 147.984 169.966 148.31 170.094C148.498 170.168 148.741 170.085 149.03 169.852C149.108 169.787 149.223 169.801 149.282 169.879C149.346 169.957 149.333 170.071 149.255 170.131C148.86 170.452 148.498 170.552 148.177 170.429C148.112 170.406 148.048 170.369 147.988 170.323Z" fill="#FFA397"/>
<path d="M294.783 134.172L294.742 135.102L292.595 184.551L220.406 181.423L222.576 131.446L222.595 131.043L223.879 131.098L294.109 134.14L294.783 134.172Z" fill="#606060"/>
<path opacity="0.27" d="M294.783 134.172L294.742 135.102L256.902 163.956L222.576 131.446L222.595 131.043L223.879 131.098L256.98 162.454L294.109 134.14L294.783 134.172Z" fill="#536F9B"/>
<path d="M228.416 320.157L228.788 323.528C228.934 324.857 230.058 325.864 231.398 325.864H250.102C250.837 322.896 239.257 320.161 239.257 320.161H228.416V320.157Z" fill="#EB823B"/>
<path d="M209.702 320.157C209.702 320.157 219.571 323.579 218.818 325.86H202.133C200.444 325.86 199.05 324.536 198.967 322.85L198.834 320.152H209.702V320.157Z" fill="#EB823B"/>
<path d="M224.971 239.773L234.794 281.719L239.262 320.157H228.417L223.196 285.141L213.818 249.718L215.071 282.246L209.703 320.157H198.83L203.083 281.985L203.161 236.965L224.971 239.773Z" fill="#FFCC51"/>
<path opacity="0.28" d="M225.563 242.237C225.563 242.237 223.255 243.996 215.318 244.257C208.822 244.473 203.156 240.089 203.156 240.089V234.674L224.618 237.634L225.563 242.237Z" fill="#EDAD1D"/>
<path d="M200.651 165.843C200.651 165.843 206.592 166.48 208.413 169.512C210.23 172.545 211.643 177.025 211.643 177.025L214.717 178.789C215.208 179.068 215.153 179.792 214.625 179.998L212.841 180.69C212.841 180.69 215.089 184.483 213.322 186.498C212.538 187.396 209.225 187.561 209.225 187.561L211.285 194.858L202.44 193.259C202.44 193.259 199.889 183.287 199.197 179.311C198.839 177.249 194.421 167.79 200.651 165.843Z" fill="#F39E7A"/>
<path d="M245.676 192.444L239.95 189.586C241.116 188.225 238.487 178.83 239.95 177.836C241.414 176.837 242.446 182.609 245.277 182.939C246.965 183.136 260.412 181.336 258.926 184.006C258.164 185.376 250.062 186.168 248.273 187.424C246.488 188.679 245.676 192.444 245.676 192.444Z" fill="#F9AD8D"/>
<path d="M247.272 192.128L239.491 186.494L232.793 200.799C232.793 200.799 214.07 192.417 210.074 192.417C206.078 192.417 202.279 192.128 202.279 192.128C200.669 199.114 203.156 206.745 202.738 219.242C202.605 223.245 201.252 235.16 203.16 236.965C210.322 243.74 224.971 239.745 224.971 239.745L219.507 206.961C219.507 206.961 235.289 212.018 237.541 210.392C239.372 209.072 247.272 192.128 247.272 192.128Z" fill="#8F39CE"/>
<path opacity="0.27" d="M219.507 206.961L214.359 205.073L220.631 213.703L219.507 206.961Z" fill="#536F9B"/>
<path d="M200.504 185.376C200.504 185.376 204.161 184.922 204.835 184.006C205.606 182.953 204.835 178.784 204.835 178.784C204.835 178.784 203.335 175.628 204.835 175.458C206.335 175.294 207.065 178.138 207.065 178.138L208.826 177.717C208.826 177.717 205.064 172.467 206.197 171.304C207.331 170.14 210.23 171.345 209.363 168.853C208.496 166.361 207.826 165.82 204.665 165.156C201.504 164.492 197.334 165.656 197.343 168.147C197.352 170.639 194.847 168.812 194.512 170.14C194.177 171.469 196.178 170.969 196.178 170.969C196.178 170.969 193.939 172.133 194.476 173.796C195.012 175.458 200.504 185.376 200.504 185.376Z" fill="#E9782A"/>
<path d="M210.327 176.315C210.455 176.718 210.45 177.08 210.317 177.121C210.184 177.162 209.973 176.869 209.849 176.466C209.721 176.063 209.726 175.701 209.859 175.66C209.992 175.614 210.198 175.907 210.327 176.315Z" fill="#050505"/>
<path d="M211.858 182.444C211.321 182.375 210.858 181.821 210.84 181.794C210.775 181.716 210.789 181.601 210.867 181.542C210.945 181.478 211.06 181.491 211.124 181.569C211.257 181.734 211.684 182.142 212.032 182.091C212.234 182.059 212.404 181.867 212.537 181.523C212.574 181.432 212.679 181.381 212.771 181.423C212.863 181.459 212.909 181.565 212.872 181.656C212.688 182.128 212.422 182.398 212.087 182.449C212.005 182.453 211.931 182.453 211.858 182.444Z" fill="#FFA397"/>
<path d="M434.293 302.479L434.527 306.529H427.329L427.232 302.479H434.293Z" fill="#E59F83"/>
<path d="M415.639 302.8L415.75 307.532L409.061 306.392L409.134 302.8H415.639Z" fill="#E59F83"/>
<path d="M415.762 206.814C415.762 206.814 407.155 245.65 406.788 248.875C406.421 252.095 406.568 303.121 406.568 303.121H415.909C415.909 303.121 416.354 252.576 417.042 250.666C418.469 246.699 424.658 220.277 424.658 220.277C424.658 220.277 423.58 246.731 423.057 251.385C422.534 256.039 426.089 303.125 426.089 303.125H434.948C434.948 303.125 434.278 253.176 433.898 251.385C433.576 249.874 437.705 218.678 438.999 209.008C439.238 207.226 439.109 206.251 439.109 206.251L415.762 206.814Z" fill="#FFB400"/>
<path d="M433.421 309.96H421.286C420.997 309.96 420.905 309.575 421.162 309.442L427.324 306.259H434.499V308.883C434.499 309.479 434.017 309.96 433.421 309.96Z" fill="#6C4F7E"/>
<path opacity="0.28" d="M438.987 208.999C438.987 208.999 432.894 212.247 425.173 211.592C417.452 210.937 415.529 207.877 415.529 207.877L415.942 201.665H438.932C438.932 201.665 439.225 206.787 438.987 208.999Z" fill="#EDAD1D"/>
<path d="M428.695 159.384L429.952 163.823H424.213L423.506 160.273C423.506 160.273 420.047 158.844 419.263 152.779C418.657 148.097 419.419 142.967 423.662 142.962C429.636 142.958 425.699 146.947 431.994 150.653C433.389 151.473 429.792 151.62 429.792 151.62C429.792 151.62 431.833 154.208 430.893 156.705C429.952 159.206 428.695 159.384 428.695 159.384Z" fill="#FFB7A1"/>
<path d="M438.491 190.864L439.115 206.246C435.738 209.924 420.158 210.108 415.763 206.814C414.387 205.783 416.437 202.389 416.859 193.832C417.194 187.098 415.254 182.069 415.254 182.069C415.254 182.069 408.927 194.102 404.394 196.887C399.563 199.856 394.742 195.17 396.086 188.385C399.022 173.571 408.62 167.135 413.744 165.051C420.452 162.321 431.187 161.336 442.363 167.341C447.125 169.902 455.984 197.075 449.268 199.494C443.726 201.496 438.491 190.864 438.491 190.864Z" fill="#6DADC6"/>
<path d="M425.183 138.381C425.183 138.381 426.834 138.308 428.233 140.402C429.449 142.22 428.935 145.752 426.706 145.908C424.476 146.063 423.747 144.538 423.219 145.908C422.691 147.277 427.132 148.29 425.183 149.907C423.228 151.524 421.416 148.491 420.177 149.907C418.939 151.322 420.861 153.984 423.182 154.423C426.201 155.001 424.1 159.943 421.87 160.131C418.136 160.443 416.58 156.485 416.824 157.057C417.062 157.63 414.484 158.569 412.782 156.498C411.621 155.088 411.662 153.397 412.997 151.611C413.69 150.685 415.186 151.121 414.828 149.705C414.47 148.29 412.901 146.453 414.112 143.439C414.773 141.79 417.122 138.789 420.164 140.809C422.838 142.587 422.737 137.91 425.183 138.381Z" fill="#332B38"/>
<path opacity="0.28" d="M415.529 250.048L424.792 216.397L424.269 222.086L416.731 251.907L415.91 303.116H413.359L415.529 250.048Z" fill="#EDAD1D"/>
<path d="M414.671 309.96H402.577C402.288 309.96 402.196 309.571 402.453 309.442L408.881 306.259H415.744V308.883C415.749 309.479 415.267 309.96 414.671 309.96Z" fill="#6C4F7E"/>
<path opacity="0.28" d="M429.664 303.121L429.838 303.112L427.416 252.384L432.261 211.221L432.086 211.198L427.246 252.375L429.664 303.121Z" fill="#EDAD1D"/>
<path opacity="0.28" d="M408.492 302.8H408.667V249.04L420.246 210.676L420.076 210.63L408.492 249.017V302.8Z" fill="#EDAD1D"/>
<path opacity="0.24" d="M441.633 182.069L448.029 188.981C448.029 188.981 442.629 176.805 439.789 176.402C436.945 176.004 441.633 182.069 441.633 182.069Z" fill="#7FADC6"/>
<path opacity="0.24" d="M438.491 190.864L436.087 186.888C436.087 186.888 433.779 182.696 433.275 185.161C433.059 186.21 416.901 194.725 416.713 195.967C416.502 197.355 419.819 199.764 426.053 198.683C430.701 197.877 433.522 194.551 435.018 195.481C436.61 196.471 436.44 207.698 436.44 207.698C437.11 208.055 439.115 206.246 439.115 206.246L438.491 190.864Z" fill="#7FADC6"/>
<path d="M426.984 149.701C426.984 150.246 427.136 150.69 427.319 150.69C427.503 150.69 427.654 150.246 427.654 149.701C427.654 149.156 427.503 148.711 427.319 148.711C427.136 148.711 426.984 149.156 426.984 149.701Z" fill="black"/>
<path d="M429.329 155.17C429.379 155.17 429.434 155.165 429.485 155.156C429.989 155.051 430.2 154.474 430.21 154.451C430.223 154.405 430.2 154.355 430.159 154.341C430.113 154.327 430.063 154.35 430.049 154.391C430.049 154.396 429.861 154.904 429.453 154.987C429.127 155.051 428.737 154.845 428.297 154.364C428.264 154.327 428.209 154.327 428.173 154.359C428.136 154.391 428.136 154.446 428.168 154.483C428.586 154.941 428.976 155.17 429.329 155.17Z" fill="#E59F83"/>
<path d="M441.257 170.566C442.753 163.415 437.706 157.85 432.632 157.479C424.094 156.856 419.41 171.661 419.41 171.661C419.41 171.661 413.896 159.439 406.321 160.227C400.192 160.869 396.545 167.978 398.508 174.116C403.082 188.422 414.024 197.281 421.667 196.732C429.838 196.141 438.036 185.976 441.257 170.566Z" fill="#F16F85"/>
<path opacity="0.25" d="M399.192 165.445C398.921 167.167 399.026 168.981 399.582 170.713C404.156 185.018 415.097 193.878 422.741 193.328C429.503 192.838 436.275 185.806 440.243 174.675C436.522 187.749 429.086 196.168 421.663 196.704C414.024 197.258 403.082 188.395 398.503 174.089C397.563 171.162 397.907 168.01 399.192 165.445Z" fill="#F1879D"/>
<path opacity="0.53" d="M435.411 167.804C434.618 166.402 433.599 164.359 430.3 164.487C427.997 164.574 428.218 162.403 430.654 161.748C433.659 160.942 436.664 163.067 437.471 165.477C438.549 168.679 436.788 170.236 435.411 167.804Z" fill="#F1879D"/>
<path d="M403.258 185.161L397.839 182.449C397.839 182.449 397.018 171.084 397.881 170.209C398.885 169.187 398.505 174.121 399.785 175.216C402.473 177.511 404.519 166.411 406.217 169.485C408.208 173.09 406.653 177.03 406.093 178.12C404.354 181.505 403.258 185.161 403.258 185.161Z" fill="#FFB7A1"/>
<path d="M441.179 181.4L436.091 186.883C436.091 186.883 433.526 181.945 432.43 180.3C431.333 178.656 430.237 175.958 430.971 174.932C431.705 173.906 431.778 170.891 433.255 171.418C434.223 171.766 437.738 177.076 438.875 177.882C439.83 178.56 439.431 170.704 440.142 171.853C441.523 174.093 441.179 181.4 441.179 181.4Z" fill="#FFB7A1"/>
<path opacity="0.24" d="M403.592 184.721L402.275 189.879L404.4 185.976L403.592 184.721Z" fill="#7FADC6"/>
<path d="M102.087 54.5299C104.922 54.5299 107.221 52.235 107.221 49.404C107.221 46.573 104.922 44.2781 102.087 44.2781C99.2516 44.2781 96.9531 46.573 96.9531 49.404C96.9531 52.235 99.2516 54.5299 102.087 54.5299Z" fill="#606060"/>
<path d="M240.12 86.5497C242.22 86.5497 243.923 84.8495 243.923 82.7522C243.923 80.6549 242.22 78.9547 240.12 78.9547C238.019 78.9547 236.316 80.6549 236.316 82.7522C236.316 84.8495 238.019 86.5497 240.12 86.5497Z" fill="#606060"/>
<path d="M68.2212 70.952C70.3217 70.952 72.0245 69.2518 72.0245 67.1545C72.0245 65.0573 70.3217 63.3571 68.2212 63.3571C66.1207 63.3571 64.418 65.0573 64.418 67.1545C64.418 69.2518 66.1207 70.952 68.2212 70.952Z" fill="#606060"/>
<path d="M569.803 254.106C571.904 254.106 573.607 252.406 573.607 250.309C573.607 248.211 571.904 246.511 569.803 246.511C567.703 246.511 566 248.211 566 250.309C566 252.406 567.703 254.106 569.803 254.106Z" fill="#606060"/>
<path d="M256.099 72.3125C257.525 72.3125 258.681 71.1579 258.681 69.7335C258.681 68.3092 257.525 67.1545 256.099 67.1545C254.672 67.1545 253.516 68.3092 253.516 69.7335C253.516 71.1579 254.672 72.3125 256.099 72.3125Z" fill="#606060"/>
<path d="M400.068 341.783C400.068 343.207 398.912 344.362 397.485 344.362C396.058 344.362 394.902 343.207 394.902 341.783C394.902 340.358 396.058 339.204 397.485 339.204C398.912 339.208 400.068 340.363 400.068 341.783Z" fill="#606060"/>
<path d="M533.39 59.7932C536.263 59.7932 538.593 57.4675 538.593 54.5986C538.593 51.7296 536.263 49.4039 533.39 49.4039C530.517 49.4039 528.188 51.7296 528.188 54.5986C528.188 57.4675 530.517 59.7932 533.39 59.7932Z" fill="#606060"/>
<path d="M559.298 116.064C559.298 117.649 558.009 118.936 556.421 118.936C554.834 118.936 553.545 117.649 553.545 116.064C553.545 114.479 554.834 113.192 556.421 113.192C558.009 113.192 559.298 114.474 559.298 116.064Z" fill="#606060"/>
<path d="M68.4269 344.362C68.4269 345.947 67.1377 347.234 65.5504 347.234C63.963 347.234 62.6738 345.947 62.6738 344.362C62.6738 342.777 63.963 341.49 65.5504 341.49C67.1377 341.49 68.4269 342.777 68.4269 344.362Z" fill="#606060"/>
<path d="M423.783 346.808C423.783 348.159 422.686 349.254 421.333 349.254C419.979 349.254 418.883 348.159 418.883 346.808C418.883 345.457 419.979 344.362 421.333 344.362C422.682 344.362 423.783 345.457 423.783 346.808Z" fill="#606060"/>
<path d="M401.643 40.4116C402.285 37.6958 400.601 34.9745 397.881 34.3333C395.161 33.692 392.436 35.3737 391.794 38.0894C391.151 40.8051 392.836 43.5264 395.556 44.1677C398.275 44.8089 401.001 43.1273 401.643 40.4116Z" fill="#606060"/>
<path d="M479.117 350.063C479.565 347.308 477.691 344.713 474.933 344.266C472.174 343.819 469.575 345.689 469.127 348.444C468.679 351.198 470.553 353.794 473.311 354.241C476.07 354.688 478.669 352.817 479.117 350.063Z" fill="#606060"/>
</g>
<defs>
<clipPath id="clip0_156_686">
<rect width="601" height="377" fill="white"/>
</clipPath>
</defs>
</svg>
