<svg width="454" height="413" viewBox="0 0 454 413" fill="none" xmlns="http://www.w3.org/2000/svg">
<path d="M379.147 359.486C398.867 347.496 412.925 324.947 411.387 301.76C410.392 286.734 403.225 272.211 404.884 257.252C406.355 243.856 414.573 232.492 421.308 220.915C439.303 190.004 448.062 153.243 443.428 117.71C438.794 82.1774 420.058 48.2409 391.148 27.4101C357.503 3.16338 313.75 -1.74849 272.474 0.484175C237.369 2.43776 199.279 10.9107 177.546 38.7967C161.818 58.9912 157.118 86.4865 140.251 105.777C129.391 118.146 113.962 126.507 105.833 140.863C100.192 150.81 98.7211 162.699 99.3737 174.152C101.254 206.805 119.06 236.053 136.347 263.727C146.987 280.784 157.737 297.965 171.595 312.466C188.904 330.573 210.438 343.868 231.729 356.963C244.061 364.554 256.68 372.257 270.782 375.416C303.397 382.717 350.226 377.068 379.147 359.486Z" fill="#F5F5F5"/>
<path d="M81.2686 112.173C83.6943 114.585 86.5728 116.482 89.7351 117.755C92.8973 119.028 96.2797 119.651 99.6835 119.586C104.069 119.371 108.373 118.318 112.369 116.483C121.316 112.528 129.118 106.341 135.043 98.5042C140.967 90.6672 144.819 81.4377 146.235 71.684C149.973 44.5125 120.111 31.4291 100.303 46.9684C82.7507 60.7663 60.3873 91.1641 81.2686 112.173Z" fill="#F5F5F5"/>
<g style="mix-blend-mode:multiply">
<path d="M385.651 412.712L356.442 375.215L338.613 380.238L338.071 379.859V382.795L335.184 380.975L307.612 388.175L385.552 412.634L385.651 412.712Z" fill="#A7A9AC"/>
</g>
<g style="mix-blend-mode:multiply">
<path d="M239.925 408.694L59.6137 206.392C58.5926 205.248 57.9148 203.834 57.6597 202.316C57.4045 200.798 57.5824 199.238 58.1727 197.819C58.763 196.399 59.7412 195.178 60.9931 194.298C62.2451 193.418 63.7192 192.916 65.2433 192.851L247.302 184.679L383.705 377.436L239.925 408.694Z" fill="#A7A9AC"/>
</g>
<path d="M61.5923 124.821C61.5923 124.821 58.4402 125.938 55.3213 132.915L50.8088 142.962C50.8088 142.962 49.2162 146.512 52.2688 151.122C55.3213 155.733 226.021 397.463 226.021 397.463C228.526 401.248 232.004 404.273 236.081 406.216C240.159 408.159 244.683 408.946 249.17 408.493C264.997 407.075 375.884 395.153 375.884 395.153C375.884 395.153 380.828 395.354 383.339 389.37C385.849 383.386 388.006 378.932 388.006 378.932C389.125 376.919 389.618 374.613 389.421 372.314C389.224 370.014 388.345 367.827 386.9 366.039C381.89 359.341 213.258 119.329 213.258 119.329C213.258 119.329 209.089 112.877 193.494 114.752C177.899 116.627 72.7961 123.18 72.7961 123.18C72.7961 123.18 64.9325 123.672 61.5923 124.821Z" fill="#7F5EA5"/>
<path d="M74.5776 150.017L222.649 361.517L366.528 347.016L219.331 140.137L74.5776 150.017Z" fill="white"/>
<path d="M248.695 200.308L130.884 208.68C127.92 208.892 123.662 206.515 121.439 203.4L106.309 182.19C104.097 179.064 104.694 176.351 107.669 176.139L225.48 167.756C228.455 167.543 232.702 169.921 234.925 173.036L250.055 194.246C252.278 197.327 251.725 200.051 248.695 200.308Z" fill="#E6E7E8"/>
<path d="M144.796 200.631C147.453 196.894 143.923 189.747 136.911 184.668C129.899 179.588 122.061 178.499 119.404 182.235C116.747 185.972 120.277 193.119 127.289 198.198C134.3 203.278 142.138 204.367 144.796 200.631Z" fill="#EA4E4E"/>
<path d="M122.899 194.302C128.429 200.408 137 204.081 142.077 202.518C146.788 201.056 146.821 195.597 142.409 189.948C128.65 184.791 122.854 187.995 120.443 191.065C121.164 192.216 121.985 193.3 122.899 194.302Z" fill="#DB4545"/>
<path d="M135.872 187.872C136.978 188.497 137.774 189.58 137.609 190.305C137.443 191.031 136.403 191.098 135.286 190.473C134.169 189.848 133.384 188.754 133.549 188.028C133.715 187.302 134.744 187.235 135.872 187.872Z" fill="#5B1818"/>
<path d="M126.139 188.564C127.245 189.189 128.03 190.272 127.875 190.998C127.72 191.723 126.67 191.79 125.542 191.165C124.413 190.54 123.65 189.446 123.805 188.72C123.96 187.995 125.011 187.928 126.139 188.564Z" fill="#5B1818"/>
<path d="M130.518 197.428C130.518 197.428 128.406 187.57 141.634 196.635" stroke="#5B1818" stroke-width="0.59" stroke-linecap="round" stroke-linejoin="round"/>
<path d="M132.432 188.028C133.787 187.914 135.094 187.466 136.237 186.722" stroke="#5B1818" stroke-width="0.59" stroke-linecap="round" stroke-linejoin="round"/>
<path d="M127.334 188.341C125.57 188.39 123.809 188.164 122.113 187.671" stroke="#5B1818" stroke-width="0.59" stroke-linecap="round" stroke-linejoin="round"/>
<path d="M144.532 182.011L228.068 176.072" stroke="#58595B" stroke-miterlimit="10"/>
<path d="M148.403 187.448L231.939 181.509" stroke="#58595B" stroke-miterlimit="10"/>
<path d="M152.285 192.873L235.81 186.934" stroke="#58595B" stroke-miterlimit="10"/>
<path d="M156.156 198.31L217.76 193.922" stroke="#58595B" stroke-miterlimit="10"/>
<path d="M277.086 239.703L159.275 248.087C156.3 248.299 152.053 245.921 149.83 242.807L134.689 221.596C132.477 218.482 133.085 215.758 136.06 215.546L253.86 207.162C256.835 206.95 261.094 209.328 263.317 212.442L278.447 233.653C280.67 236.767 280.061 239.491 277.086 239.703Z" fill="#E6E7E8"/>
<path d="M169.683 228.06C175.213 234.166 175.545 240.34 170.468 241.958C165.392 243.577 156.798 239.849 151.279 233.742C145.76 227.636 145.428 221.463 150.505 219.844C155.581 218.225 164.175 221.954 169.683 228.06Z" fill="#EA4E4E"/>
<path d="M151.279 233.798C156.809 239.904 165.38 243.588 170.468 242.014C175.179 240.563 175.213 235.104 170.8 229.444C157.041 224.287 151.246 227.491 148.834 230.56C149.545 231.716 150.364 232.8 151.279 233.798Z" fill="#DB4545"/>
<path d="M164.263 227.312C165.369 227.937 166.154 229.031 165.999 229.746C165.844 230.46 164.794 230.538 163.666 229.913C162.537 229.288 161.774 228.194 161.929 227.479C162.084 226.765 163.135 226.687 164.263 227.312Z" fill="#5B1818"/>
<path d="M154.518 228.004C155.624 228.629 156.421 229.723 156.255 230.438C156.089 231.152 155.06 231.23 153.932 230.605C152.804 229.98 152.03 228.886 152.185 228.216C152.34 227.546 153.401 227.379 154.518 228.004Z" fill="#5B1818"/>
<path d="M158.899 236.879C158.899 236.879 156.798 227.022 170.025 236.086" stroke="#5B1818" stroke-width="0.59" stroke-linecap="round" stroke-linejoin="round"/>
<path d="M160.823 227.424C162.175 227.302 163.477 226.85 164.616 226.106" stroke="#5B1818" stroke-width="0.59" stroke-linecap="round" stroke-linejoin="round"/>
<path d="M155.724 227.781C153.96 227.837 152.198 227.611 150.504 227.111" stroke="#5B1818" stroke-width="0.59" stroke-linecap="round" stroke-linejoin="round"/>
<path d="M172.923 221.462L256.448 215.512" stroke="#58595B" stroke-miterlimit="10"/>
<path d="M176.793 226.888L260.33 220.949" stroke="#58595B" stroke-miterlimit="10"/>
<path d="M180.676 232.324L264.201 226.374" stroke="#58595B" stroke-miterlimit="10"/>
<path d="M184.547 237.75L246.152 233.374" stroke="#58595B" stroke-miterlimit="10"/>
<path d="M305.466 279.143L187.666 287.527C184.69 287.739 180.432 285.361 178.209 282.247L163.079 261.037C160.867 257.922 161.475 255.198 164.44 254.986L282.251 246.613C285.226 246.401 289.473 248.779 291.707 251.894L306.837 273.104C309.06 276.219 308.441 278.931 305.466 279.143Z" fill="#E6E7E8"/>
<path d="M198.074 267.5C203.604 273.607 203.936 279.836 198.848 281.399C193.76 282.961 185.178 279.3 179.67 273.193C174.162 267.087 173.808 260.858 178.896 259.295C183.983 257.732 192.555 261.394 198.074 267.5Z" fill="#EA4E4E"/>
<path d="M179.669 273.193C185.199 279.3 193.77 282.972 198.847 281.398C203.558 279.947 203.592 274.488 199.179 268.839C185.431 263.682 179.625 266.875 177.225 269.956C177.938 271.109 178.757 272.193 179.669 273.193Z" fill="#DB4545"/>
<path d="M192.643 266.752C193.749 267.377 194.545 268.471 194.379 269.186C194.213 269.9 193.185 269.978 192.057 269.353C190.929 268.728 190.154 267.634 190.32 266.919C190.486 266.205 191.526 266.171 192.643 266.752Z" fill="#5B1818"/>
<path d="M182.91 267.444C184.016 268.069 184.812 269.163 184.647 269.878C184.481 270.592 183.441 270.67 182.324 270.045C181.207 269.42 180.422 268.326 180.588 267.612C180.753 266.897 181.782 266.819 182.91 267.444Z" fill="#5B1818"/>
<path d="M187.29 276.319C187.29 276.319 185.177 266.462 198.35 275.526" stroke="#5B1818" stroke-width="0.59" stroke-linecap="round" stroke-linejoin="round"/>
<path d="M189.203 266.863C190.559 266.749 191.867 266.296 193.007 265.546" stroke="#5B1818" stroke-width="0.59" stroke-linecap="round" stroke-linejoin="round"/>
<path d="M184.115 267.288C182.347 267.336 180.582 267.106 178.884 266.607" stroke="#5B1818" stroke-width="0.59" stroke-linecap="round" stroke-linejoin="round"/>
<path d="M201.302 260.902L284.838 254.963" stroke="#58595B" stroke-miterlimit="10"/>
<path d="M205.185 266.328L288.71 260.389" stroke="#58595B" stroke-miterlimit="10"/>
<path d="M209.057 271.764L292.593 265.825" stroke="#58595B" stroke-miterlimit="10"/>
<path d="M212.938 277.19L274.531 272.814" stroke="#58595B" stroke-miterlimit="10"/>
<path d="M333.858 318.639L216.046 327.012C213.082 327.224 208.824 324.846 206.601 321.731L191.471 300.521C189.259 297.395 189.856 294.683 192.831 294.471L310.643 286.087C313.618 285.875 317.865 288.253 320.088 291.367L335.218 312.577C337.441 315.659 336.888 318.382 333.858 318.639Z" fill="#E6E7E8"/>
<path d="M229.949 318.947C232.607 315.21 229.076 308.063 222.065 302.983C215.053 297.904 207.215 296.815 204.558 300.551C201.901 304.287 205.431 311.434 212.442 316.514C219.454 321.594 227.292 322.683 229.949 318.947Z" fill="#EA4E4E"/>
<path d="M208.06 312.633C213.59 318.74 222.162 322.412 227.238 320.849C231.95 319.387 231.983 313.928 227.57 308.28C213.812 303.122 208.016 306.326 205.605 309.396C206.325 310.547 207.147 311.631 208.06 312.633Z" fill="#DB4545"/>
<path d="M221.034 306.203C222.14 306.828 222.936 307.911 222.77 308.637C222.604 309.362 221.565 309.429 220.448 308.804C219.33 308.179 218.545 307.085 218.711 306.359C218.877 305.634 219.906 305.567 221.034 306.203Z" fill="#5B1818"/>
<path d="M211.301 306.895C212.407 307.52 213.193 308.603 213.038 309.329C212.883 310.054 211.832 310.121 210.704 309.496C209.576 308.871 208.813 307.777 208.968 307.052C209.123 306.326 210.173 306.259 211.301 306.895Z" fill="#5B1818"/>
<path d="M215.681 315.759C215.681 315.759 213.568 305.902 226.796 314.967" stroke="#5B1818" stroke-width="0.59" stroke-linecap="round" stroke-linejoin="round"/>
<path d="M217.594 306.359C218.949 306.245 220.256 305.797 221.399 305.053" stroke="#5B1818" stroke-width="0.59" stroke-linecap="round" stroke-linejoin="round"/>
<path d="M212.496 306.672C210.732 306.721 208.971 306.495 207.275 306.002" stroke="#5B1818" stroke-width="0.59" stroke-linecap="round" stroke-linejoin="round"/>
<path d="M229.694 300.342L313.23 294.404" stroke="#58595B" stroke-miterlimit="10"/>
<path d="M233.565 305.779L317.102 299.84" stroke="#58595B" stroke-miterlimit="10"/>
<path d="M237.447 311.204L320.972 305.265" stroke="#58595B" stroke-miterlimit="10"/>
<path d="M241.318 316.641L302.922 312.254" stroke="#58595B" stroke-miterlimit="10"/>
<path d="M50.8088 142.973C50.8088 142.973 49.2162 146.523 52.2688 151.133C55.3213 155.744 226.021 397.474 226.021 397.474C228.528 401.257 232.006 404.281 236.083 406.224C240.16 408.166 244.683 408.954 249.17 408.504C264.997 407.086 375.884 395.164 375.884 395.164C375.884 395.164 380.828 395.365 383.339 389.381C385.849 383.397 388.006 378.943 388.006 378.943C388.061 378.866 388.109 378.783 388.15 378.698C385.053 380.115 380.12 381.422 372.356 382.225C346.83 384.871 256.746 394.639 256.746 394.639C256.746 394.639 240.764 396.704 225.778 375.192C210.792 353.681 58.6061 138.083 58.6061 138.083C57.4525 135.895 56.6499 133.537 56.2282 131.095C55.9296 131.675 55.6199 132.289 55.3213 132.97L50.8088 142.973Z" fill="#4C2A6E"/>
<path d="M298.576 360.178L309.791 359.061C310.372 359.003 310.958 359.1 311.49 359.343C312.022 359.586 312.482 359.966 312.821 360.446L317.776 367.445C318.118 367.926 318.328 368.489 318.385 369.078C318.441 369.668 318.341 370.261 318.096 370.799C317.851 371.337 317.47 371.799 316.99 372.14C316.51 372.48 315.949 372.686 315.365 372.737L303.896 373.741C303.311 373.792 302.724 373.686 302.194 373.433C301.663 373.18 301.209 372.789 300.877 372.301L296.176 365.436C295.842 364.956 295.639 364.397 295.587 363.813C295.535 363.23 295.635 362.642 295.878 362.11C296.121 361.578 296.498 361.12 296.971 360.78C297.445 360.441 297.998 360.234 298.576 360.178Z" fill="#4C2A6E"/>
<path d="M367.335 391.2L343.711 393.768C343.336 393.806 342.961 393.694 342.668 393.456C342.374 393.218 342.185 392.873 342.14 392.495C342.119 392.308 342.134 392.117 342.186 391.936C342.238 391.754 342.325 391.584 342.443 391.437C342.56 391.29 342.705 391.167 342.87 391.077C343.034 390.986 343.215 390.93 343.401 390.91L367.036 388.332C367.413 388.294 367.789 388.408 368.083 388.648C368.377 388.888 368.565 389.236 368.607 389.615C368.644 389.995 368.531 390.375 368.293 390.671C368.055 390.968 367.711 391.158 367.335 391.2Z" fill="#051938"/>
<path d="M368.607 389.582C368.587 389.352 368.511 389.131 368.388 388.937C368.265 388.743 368.097 388.581 367.9 388.466C368.022 388.654 368.101 388.868 368.132 389.091C368.169 389.471 368.056 389.85 367.818 390.147C367.58 390.444 367.236 390.634 366.86 390.676L343.236 393.244C342.934 393.275 342.631 393.204 342.373 393.043C342.514 393.266 342.714 393.445 342.951 393.56C343.187 393.674 343.451 393.719 343.711 393.69L367.335 391.123C367.703 391.08 368.041 390.897 368.277 390.61C368.514 390.323 368.633 389.955 368.607 389.582Z" fill="#7F5EA5"/>
<path d="M292.448 398.87L268.813 401.438C268.622 401.461 268.429 401.445 268.244 401.392C268.06 401.338 267.887 401.248 267.738 401.126C267.588 401.005 267.465 400.854 267.374 400.683C267.283 400.512 267.227 400.325 267.209 400.132C267.169 399.75 267.28 399.367 267.519 399.068C267.757 398.769 268.103 398.577 268.481 398.535L292.105 395.968C292.48 395.93 292.855 396.042 293.148 396.28C293.442 396.518 293.631 396.863 293.676 397.24C293.726 397.621 293.625 398.006 293.395 398.311C293.165 398.616 292.825 398.817 292.448 398.87Z" fill="#051938"/>
<path d="M293.753 397.274C293.726 397.053 293.648 396.842 293.525 396.658C293.402 396.474 293.238 396.322 293.045 396.213C293.189 396.417 293.276 396.656 293.298 396.905C293.321 397.154 293.278 397.404 293.173 397.631C293.069 397.857 292.907 398.052 292.704 398.195C292.501 398.339 292.264 398.425 292.017 398.446L268.315 400.991C268.013 401.017 267.71 400.943 267.453 400.779C267.594 401.002 267.794 401.182 268.03 401.298C268.266 401.415 268.529 401.463 268.791 401.438L292.426 398.87C292.618 398.856 292.806 398.803 292.977 398.715C293.149 398.627 293.301 398.504 293.425 398.355C293.548 398.206 293.641 398.034 293.698 397.848C293.754 397.662 293.773 397.467 293.753 397.274Z" fill="#7F5EA5"/>
<path d="M161.542 128.628L118.618 132.145C118.325 132.183 118.027 132.161 117.743 132.078C117.459 131.995 117.195 131.854 116.967 131.663C116.74 131.472 116.554 131.236 116.421 130.969C116.289 130.702 116.212 130.411 116.196 130.113C116.22 129.489 116.473 128.896 116.907 128.45C117.34 128.004 117.923 127.737 118.541 127.702L161.465 124.185C161.757 124.145 162.055 124.166 162.339 124.247C162.623 124.329 162.888 124.469 163.115 124.659C163.343 124.849 163.529 125.084 163.662 125.351C163.795 125.617 163.871 125.908 163.887 126.206C163.866 126.832 163.614 127.428 163.18 127.876C162.746 128.324 162.162 128.592 161.542 128.628Z" fill="#4C2A6E"/>
<g style="mix-blend-mode:multiply">
<path d="M245.001 224.532L302.27 245.798L282.815 218.783L245.001 224.532Z" fill="#A7A9AC"/>
</g>
<path d="M445.718 165.579H245.001C241.232 165.579 238.177 168.663 238.177 172.467V217.645C238.177 221.449 241.232 224.532 245.001 224.532H445.718C449.487 224.532 452.542 221.449 452.542 217.645V172.467C452.542 168.663 449.487 165.579 445.718 165.579Z" fill="#4C2A6E"/>
<path opacity="0.8" d="M445.718 165.579H245.001C241.232 165.579 238.177 168.663 238.177 172.467V217.645C238.177 221.449 241.232 224.532 245.001 224.532H445.718C449.487 224.532 452.542 221.449 452.542 217.645V172.467C452.542 168.663 449.487 165.579 445.718 165.579Z" stroke="#425DE2" stroke-miterlimit="10"/>
<path d="M270.207 181.442L274.598 190.406L284.397 191.846L277.308 198.823L278.978 208.68L270.207 204.025L261.448 208.68L263.118 198.823L256.028 191.846L265.827 190.406L270.207 181.442Z" fill="#EA4E4E"/>
<path d="M307.789 181.442L312.168 190.406L321.968 191.846L314.878 198.823L316.548 208.68L307.789 204.025L299.018 208.68L300.688 198.823L293.599 191.846L303.398 190.406L307.789 181.442Z" fill="white"/>
<path d="M345.36 181.442L349.74 190.406L359.539 191.846L352.449 198.823L354.119 208.68L345.36 204.025L336.589 208.68L338.27 198.823L331.17 191.846L340.969 190.406L345.36 181.442Z" fill="white"/>
<path d="M382.93 181.442L387.31 190.406L397.12 191.846L390.02 198.823L391.701 208.68L382.93 204.025L374.16 208.68L375.841 198.823L368.751 191.846L378.551 190.406L382.93 181.442Z" fill="white"/>
<path d="M420.501 181.442L424.892 190.406L434.691 191.846L427.601 198.823L429.271 208.68L420.501 204.025L411.741 208.68L413.411 198.823L406.322 191.846L416.121 190.406L420.501 181.442Z" fill="white"/>
<g style="mix-blend-mode:multiply">
<path d="M216.986 333.196L199.588 337.829V360.111L185.299 339.76V331.577L216.986 333.196Z" fill="#A7A9AC"/>
</g>
<path d="M216.366 275.761H163.555C162.462 275.761 161.575 276.655 161.575 277.759V331.064C161.575 332.168 162.462 333.062 163.555 333.062H216.366C217.46 333.062 218.346 332.168 218.346 331.064V277.759C218.346 276.655 217.46 275.761 216.366 275.761Z" fill="#EA4E4E"/>
<path d="M216.366 275.761H163.555C162.462 275.761 161.575 276.655 161.575 277.759V331.064C161.575 332.168 162.462 333.062 163.555 333.062H216.366C217.46 333.062 218.346 332.168 218.346 331.064V277.759C218.346 276.655 217.46 275.761 216.366 275.761Z" stroke="#AA1B1B" stroke-miterlimit="10"/>
<path d="M191.293 312.198L191.492 312.522C192.319 313.898 192.798 315.458 192.886 317.065C192.952 318.293 192.886 320.09 194.191 320.715C194.728 320.904 195.316 320.884 195.839 320.659C196.363 320.434 196.785 320.02 197.022 319.499C197.467 318.443 197.624 317.287 197.476 316.15C197.376 314.163 197.188 312.164 196.923 310.188L202.751 309.407C203.889 309.332 204.998 309.012 206.003 308.469C206.5 308.186 206.896 307.752 207.136 307.229C207.376 306.707 207.448 306.122 207.341 305.556C206.888 304.015 204.919 303.613 203.338 303.725C204.247 303.611 205.085 303.169 205.695 302.479C206.305 301.789 206.647 300.899 206.656 299.974C206.621 299.524 206.493 299.086 206.28 298.688C206.067 298.291 205.774 297.943 205.42 297.668C205.065 297.392 204.657 297.194 204.223 297.088C203.788 296.981 203.336 296.968 202.895 297.049C203.491 296.955 204.03 296.637 204.404 296.159C204.777 295.681 204.957 295.077 204.908 294.47C204.827 293.865 204.604 293.288 204.258 292.787C203.912 292.286 203.452 291.876 202.917 291.59C201.841 291.033 200.671 290.684 199.467 290.563C194.885 289.873 190.23 289.847 185.642 290.485C184.953 290.537 184.284 290.743 183.684 291.088C183.097 291.546 182.667 292.178 182.456 292.896C181.868 295.063 181.895 297.353 182.534 299.505C182.953 301.361 183.477 303.191 184.104 304.986C184.4 305.973 184.86 306.902 185.465 307.733C186.327 308.849 187.544 308.748 188.617 309.463C189.678 310.188 190.588 311.118 191.293 312.198Z" fill="white"/>
<path d="M180.366 293.533C180.609 292.763 180.797 291.936 180.366 291.412C180.156 291.232 179.91 291.099 179.645 291.022C179.38 290.945 179.102 290.925 178.829 290.965H176.042C175.726 290.942 175.409 290.988 175.113 291.099C174.857 291.275 174.642 291.505 174.484 291.773C174.325 292.041 174.226 292.34 174.195 292.651C173.151 297.417 173.942 302.405 176.407 306.605C176.649 307.123 177.032 307.561 177.513 307.866C177.923 308.034 178.364 308.114 178.807 308.101C179.913 308.157 181.019 308.268 182.036 308.257C182.744 308.257 183.43 308.335 183.142 307.42C182.855 306.505 182.158 305.511 181.771 304.529C181.011 302.71 180.455 300.812 180.112 298.869C179.902 297.515 179.902 296.137 180.112 294.783C180.173 294.362 180.258 293.944 180.366 293.533Z" fill="white"/>
<path d="M356.994 109.516H329.941C329.379 109.516 328.924 109.976 328.924 110.543V137.849C328.924 138.416 329.379 138.876 329.941 138.876H356.994C357.556 138.876 358.012 138.416 358.012 137.849V110.543C358.012 109.976 357.556 109.516 356.994 109.516Z" fill="#EA4E4E"/>
<path d="M356.994 109.516H329.941C329.379 109.516 328.924 109.976 328.924 110.543V137.849C328.924 138.416 329.379 138.876 329.941 138.876H356.994C357.556 138.876 358.012 138.416 358.012 137.849V110.543C358.012 109.976 357.556 109.516 356.994 109.516Z" stroke="#AA1B1B" stroke-width="0.51" stroke-miterlimit="10"/>
<path d="M344.142 128.182C344.183 128.235 344.22 128.291 344.253 128.349C344.674 129.053 344.917 129.85 344.961 130.671C344.961 131.296 344.961 132.223 345.635 132.546C345.911 132.637 346.21 132.624 346.477 132.509C346.743 132.394 346.959 132.185 347.084 131.921C347.317 131.381 347.397 130.786 347.317 130.202C347.261 129.186 347.173 128.159 347.029 127.155L350.015 126.742C350.598 126.706 351.168 126.546 351.685 126.273C351.94 126.127 352.143 125.904 352.266 125.636C352.389 125.367 352.425 125.067 352.371 124.777C352.139 123.984 351.132 123.783 350.314 123.839C350.776 123.777 351.201 123.549 351.51 123.196C351.819 122.843 351.991 122.39 351.995 121.919C351.979 121.688 351.914 121.463 351.806 121.259C351.697 121.055 351.547 120.877 351.365 120.735C351.183 120.594 350.974 120.493 350.751 120.439C350.528 120.385 350.296 120.38 350.071 120.423C350.376 120.373 350.652 120.209 350.843 119.963C351.034 119.716 351.125 119.406 351.099 119.095C351.059 118.785 350.945 118.489 350.768 118.233C350.591 117.976 350.356 117.767 350.082 117.621C349.529 117.336 348.929 117.158 348.312 117.096C345.965 116.756 343.581 116.756 341.234 117.096C340.879 117.125 340.536 117.232 340.227 117.409C339.925 117.642 339.704 117.967 339.597 118.336C339.288 119.43 339.288 120.59 339.597 121.685C339.808 122.637 340.074 123.576 340.393 124.498C340.551 125 340.786 125.475 341.09 125.904C341.532 126.451 342.196 126.418 342.716 126.786C343.279 127.151 343.764 127.625 344.142 128.182Z" fill="white"/>
<path d="M338.547 118.626C338.639 118.454 338.687 118.262 338.687 118.067C338.687 117.872 338.639 117.681 338.547 117.509C338.437 117.417 338.31 117.349 338.173 117.308C338.036 117.268 337.892 117.257 337.75 117.275H336.324C336.162 117.262 336 117.285 335.848 117.342C335.716 117.429 335.606 117.547 335.525 117.684C335.445 117.821 335.396 117.975 335.384 118.134C334.838 120.575 335.234 123.133 336.49 125.29C336.589 125.536 336.764 125.743 336.989 125.88C337.215 126.016 337.478 126.076 337.739 126.049C338.281 126.049 338.845 126.138 339.387 126.127C339.752 126.127 340.106 126.127 339.929 125.703C339.752 125.279 339.432 124.721 339.233 124.218C338.844 123.285 338.558 122.312 338.381 121.316C338.27 120.625 338.27 119.92 338.381 119.228C338.424 119.024 338.48 118.823 338.547 118.626Z" fill="white"/>
<path d="M442.244 240.965H406.963C406.23 240.965 405.636 241.564 405.636 242.304V277.915C405.636 278.655 406.23 279.255 406.963 279.255H442.244C442.977 279.255 443.572 278.655 443.572 277.915V242.304C443.572 241.564 442.977 240.965 442.244 240.965Z" fill="#EA4E4E"/>
<path d="M442.244 240.965H406.963C406.23 240.965 405.636 241.564 405.636 242.304V277.915C405.636 278.655 406.23 279.255 406.963 279.255H442.244C442.977 279.255 443.572 278.655 443.572 277.915V242.304C443.572 241.564 442.977 240.965 442.244 240.965Z" stroke="#AA1B1B" stroke-width="0.67" stroke-miterlimit="10"/>
<path d="M425.489 265.312L425.633 265.535C426.177 266.454 426.492 267.492 426.551 268.56C426.551 269.387 426.55 270.581 427.435 271.005C427.793 271.129 428.183 271.113 428.531 270.963C428.878 270.812 429.158 270.537 429.316 270.19C429.618 269.488 429.725 268.716 429.625 267.958C429.548 266.629 429.426 265.301 429.249 263.972L433.142 263.448C433.916 263.406 434.671 263.192 435.354 262.823C435.684 262.632 435.948 262.343 436.108 261.995C436.269 261.647 436.318 261.258 436.25 260.88C435.94 259.853 434.635 259.574 433.574 259.652C434.179 259.574 434.736 259.278 435.142 258.819C435.549 258.359 435.777 257.767 435.786 257.152C435.763 256.85 435.677 256.556 435.534 256.29C435.392 256.024 435.195 255.791 434.957 255.606C434.719 255.422 434.445 255.291 434.154 255.22C433.862 255.15 433.559 255.142 433.264 255.198C433.664 255.135 434.025 254.921 434.275 254.6C434.525 254.279 434.646 253.875 434.613 253.468C434.562 253.063 434.415 252.677 434.184 252.343C433.953 252.008 433.645 251.736 433.286 251.548C432.566 251.172 431.781 250.94 430.975 250.867C427.915 250.402 424.805 250.383 421.739 250.811C421.281 250.847 420.835 250.984 420.434 251.213C420.038 251.513 419.751 251.937 419.616 252.418C419.207 253.859 419.207 255.387 419.616 256.828C419.899 258.067 420.249 259.289 420.667 260.489C420.865 261.15 421.171 261.773 421.574 262.331C422.16 263.046 422.967 263.012 423.686 263.448C424.403 263.942 425.016 264.576 425.489 265.312Z" fill="white"/>
<path d="M418.189 252.854C418.355 252.329 418.477 251.737 418.189 251.425C418.048 251.305 417.884 251.217 417.706 251.165C417.529 251.113 417.343 251.099 417.161 251.123H415.292C415.085 251.107 414.877 251.138 414.683 251.213C414.509 251.328 414.363 251.481 414.256 251.66C414.149 251.84 414.083 252.042 414.064 252.251C413.363 255.431 413.88 258.762 415.513 261.572C415.684 261.921 415.948 262.215 416.276 262.421C416.551 262.528 416.844 262.581 417.139 262.577C417.857 262.577 418.587 262.689 419.295 262.677C419.771 262.677 420.224 262.733 420.003 262.119C419.782 261.505 419.351 260.847 419.085 260.188C418.58 258.971 418.209 257.702 417.979 256.404C417.841 255.501 417.841 254.582 417.979 253.68C417.99 253.457 418.101 253.155 418.189 252.854Z" fill="white"/>
<path d="M128.418 73.6599H104.374C103.873 73.6599 103.467 74.0697 103.467 74.5753V98.8444C103.467 99.3499 103.873 99.7598 104.374 99.7598H128.418C128.919 99.7598 129.325 99.3499 129.325 98.8444V74.5753C129.325 74.0697 128.919 73.6599 128.418 73.6599Z" fill="#EA4E4E"/>
<path d="M128.418 73.6599H104.374C103.873 73.6599 103.467 74.0697 103.467 74.5753V98.8444C103.467 99.3499 103.873 99.7598 104.374 99.7598H128.418C128.919 99.7598 129.325 99.3499 129.325 98.8444V74.5753C129.325 74.0697 128.919 73.6599 128.418 73.6599Z" stroke="#AA1B1B" stroke-width="0.46" stroke-miterlimit="10"/>
<path d="M117.003 90.2594C117.039 90.3036 117.069 90.3524 117.091 90.4046C117.467 91.0306 117.687 91.7392 117.733 92.4698C117.733 93.0279 117.733 93.854 118.33 94.1331C118.573 94.2183 118.839 94.2095 119.076 94.1085C119.313 94.0075 119.504 93.8213 119.613 93.5861C119.816 93.1041 119.889 92.5763 119.823 92.0567C119.768 91.1525 119.691 90.2371 119.569 89.3441L122.223 88.9868C122.742 88.95 123.248 88.8016 123.705 88.5515C123.932 88.4226 124.113 88.2249 124.222 87.9865C124.331 87.748 124.363 87.4809 124.314 87.223C124.104 86.5309 123.208 86.3411 122.489 86.3969C122.898 86.3385 123.274 86.1343 123.548 85.8211C123.821 85.508 123.975 85.1065 123.982 84.6889C123.967 84.4836 123.909 84.2837 123.812 84.1025C123.715 83.9213 123.581 83.7628 123.419 83.6374C123.257 83.512 123.071 83.4225 122.873 83.3748C122.674 83.3271 122.468 83.3222 122.268 83.3605C122.539 83.314 122.784 83.167 122.953 82.9481C123.123 82.7293 123.206 82.4544 123.186 82.1772C123.154 81.9048 123.059 81.6437 122.909 81.4149C122.76 81.1862 122.559 80.996 122.323 80.8599C121.834 80.6036 121.301 80.4444 120.752 80.3911C118.665 80.0897 116.546 80.0897 114.459 80.3911C114.144 80.4082 113.837 80.5 113.563 80.659C113.293 80.8665 113.095 81.156 112.999 81.4851C112.723 82.4666 112.723 83.5065 112.999 84.488C113.193 85.3342 113.433 86.1689 113.718 86.9886C113.848 87.4398 114.058 87.8635 114.338 88.2389C114.736 88.7301 115.289 88.7077 115.775 89.0315C116.261 89.3554 116.678 89.7726 117.003 90.2594Z" fill="white"/>
<path d="M112.026 81.753C112.137 81.407 112.225 81.0274 112.026 80.793C111.932 80.7092 111.821 80.6468 111.701 80.6102C111.581 80.5736 111.454 80.5636 111.329 80.5809H110.047C109.908 80.5538 109.765 80.5538 109.626 80.5809C109.508 80.6582 109.409 80.7618 109.336 80.8836C109.263 81.0055 109.219 81.1424 109.206 81.2842C108.725 83.4545 109.077 85.7281 110.19 87.6473C110.305 87.8838 110.486 88.0816 110.71 88.2166C110.9 88.2932 111.103 88.3312 111.307 88.3282C111.794 88.3282 112.281 88.4064 112.767 88.3952C113.088 88.3952 113.409 88.3952 113.254 88.0157C113.099 87.6361 112.812 87.1449 112.635 86.6984C112.282 85.8715 112.026 85.0062 111.871 84.1197C111.777 83.5056 111.777 82.8806 111.871 82.2665C111.911 82.0921 111.963 81.9205 112.026 81.753Z" fill="white"/>
<g style="mix-blend-mode:multiply">
<path d="M316.769 336.132L374.115 348.021L364.969 334.725L316.769 336.132Z" fill="#A7A9AC"/>
</g>
<path d="M418.356 271.597H318.13C313.909 271.597 310.488 275.051 310.488 279.311V328.999C310.488 333.259 313.909 336.713 318.13 336.713H418.356C422.577 336.713 425.998 333.259 425.998 328.999V279.311C425.998 275.051 422.577 271.597 418.356 271.597Z" fill="#E6E7E8"/>
<path d="M418.356 271.597H318.13C313.909 271.597 310.488 275.051 310.488 279.311V328.999C310.488 333.259 313.909 336.713 318.13 336.713H418.356C422.577 336.713 425.998 333.259 425.998 328.999V279.311C425.998 275.051 422.577 271.597 418.356 271.597Z" stroke="white" stroke-width="0.71" stroke-miterlimit="10"/>
<path d="M322.145 279.143L323.505 281.923L326.546 282.37L324.345 284.535L324.865 287.594L322.145 286.143L319.424 287.594L319.944 284.535L317.743 282.37L320.784 281.923L322.145 279.143Z" fill="#BCBEC0"/>
<path d="M322.145 289.559L323.505 292.35L326.546 292.796L324.345 294.962L324.865 298.009L322.145 296.569L319.424 298.009L319.944 294.962L317.743 292.796L320.784 292.35L322.145 289.559Z" fill="#BCBEC0"/>
<path d="M322.145 299.985L323.505 302.765L326.546 303.211L324.345 305.377L324.865 308.436L322.145 306.996L319.424 308.436L319.944 305.377L317.743 303.211L320.784 302.765L322.145 299.985Z" fill="#BCBEC0"/>
<path d="M322.145 310.412L323.505 313.191L326.546 313.638L324.345 315.803L324.865 318.862L322.145 317.411L319.424 318.862L319.944 315.803L317.743 313.638L320.784 313.191L322.145 310.412Z" fill="#BCBEC0"/>
<path d="M322.145 320.827L323.505 323.618L326.546 324.065L324.345 326.23L324.865 329.278L322.145 327.838L319.424 329.278L319.944 326.23L317.743 324.065L320.784 323.618L322.145 320.827Z" fill="#EA4E4E"/>
<path d="M355.059 289C355.094 291.196 354.483 293.352 353.303 295.196C352.123 297.041 350.428 298.491 348.431 299.362C346.435 300.234 344.227 300.488 342.088 300.093C339.948 299.698 337.973 298.671 336.411 297.142C334.85 295.613 333.774 293.651 333.318 291.504C332.862 289.358 333.047 287.123 333.85 285.082C334.652 283.042 336.037 281.287 337.828 280.041C339.619 278.796 341.736 278.114 343.911 278.083C345.353 278.06 346.785 278.325 348.126 278.862C349.467 279.399 350.69 280.197 351.725 281.211C352.761 282.224 353.588 283.434 354.16 284.771C354.732 286.107 355.037 287.545 355.059 289Z" fill="white"/>
<path d="M347.726 285.428C347.726 286.088 347.533 286.733 347.171 287.282C346.81 287.831 346.295 288.26 345.693 288.515C345.091 288.771 344.427 288.841 343.785 288.717C343.143 288.593 342.552 288.281 342.086 287.819C341.619 287.357 341.298 286.767 341.162 286.122C341.027 285.477 341.083 284.805 341.324 284.192C341.565 283.579 341.98 283.052 342.517 282.676C343.054 282.3 343.689 282.092 344.342 282.079C344.783 282.07 345.222 282.15 345.632 282.315C346.042 282.479 346.416 282.724 346.731 283.036C347.046 283.348 347.297 283.72 347.468 284.131C347.638 284.542 347.726 284.983 347.726 285.428Z" fill="#BCBEC0"/>
<path d="M339.342 295.821C339.342 295.821 339.243 289.447 344.607 289.369C349.971 289.29 349.75 295.665 349.75 295.665L339.342 295.821Z" fill="#BCBEC0"/>
<path d="M360.335 282.849H419.76" stroke="#383838" stroke-miterlimit="10"/>
<path d="M360.335 288.811H419.76" stroke="#383838" stroke-miterlimit="10"/>
<path d="M360.335 294.772H419.76" stroke="#383838" stroke-miterlimit="10"/>
<path d="M334.985 315.011H419.76" stroke="#383838" stroke-miterlimit="10"/>
<path d="M334.985 321.307H419.76" stroke="#383838" stroke-miterlimit="10"/>
<path d="M334.985 327.603H419.76" stroke="#383838" stroke-miterlimit="10"/>
<g style="mix-blend-mode:multiply">
<path d="M126.67 161.872L79.6541 167.432V189.859L63.2964 166.918V155.264L126.67 161.872Z" fill="#A7A9AC"/>
</g>
<path d="M126.029 125.938H5.02106C2.74878 125.938 0.906738 127.797 0.906738 130.091V157.329C0.906738 159.623 2.74878 161.482 5.02106 161.482H126.029C128.301 161.482 130.143 159.623 130.143 157.329V130.091C130.143 127.797 128.301 125.938 126.029 125.938Z" fill="#4C2A6E"/>
<path opacity="0.8" d="M126.029 125.938H5.02106C2.74878 125.938 0.906738 127.797 0.906738 130.091V157.329C0.906738 159.623 2.74878 161.482 5.02106 161.482H126.029C128.301 161.482 130.143 159.623 130.143 157.329V130.091C130.143 127.797 128.301 125.938 126.029 125.938Z" stroke="#425DE2" stroke-width="0.6" stroke-miterlimit="10"/>
<path d="M20.2289 135.505L22.8722 140.908L28.7783 141.767L24.4981 145.976L25.5156 151.926L20.2289 149.113L14.9422 151.926L15.9487 145.976L11.6685 141.767L17.5856 140.908L20.2289 135.505Z" fill="#EA4E4E"/>
<path d="M42.8795 135.505L45.5228 140.908L51.4288 141.767L47.1597 145.976L48.1661 151.926L42.8795 149.113L37.5928 151.926L38.5992 145.976L34.3301 141.767L40.2361 140.908L42.8795 135.505Z" fill="#EA4E4E"/>
<path d="M65.5303 135.505L68.1737 140.908L74.0797 141.767L69.8106 145.976L70.817 151.926L65.5303 149.113L60.2437 151.926L61.2501 145.976L56.981 141.767L62.887 140.908L65.5303 135.505Z" fill="white"/>
<path d="M88.1812 135.505L90.8246 140.908L96.7416 141.767L92.4614 145.976L93.4679 151.926L88.1812 149.113L82.8945 151.926L83.9121 145.976L79.6318 141.767L85.5379 140.908L88.1812 135.505Z" fill="white"/>
<path d="M110.843 135.505L113.475 140.908L119.393 141.767L115.112 145.976L116.13 151.926L110.843 149.113L105.556 151.926L106.563 145.976L102.283 141.767L108.2 140.908L110.843 135.505Z" fill="white"/>
<path d="M3.98096 256.694L61.493 217.499L39.373 211.248L3.98096 256.694Z" fill="white"/>
<path d="M61.6044 216.885V236.488L4.03711 256.616L61.6044 216.885Z" fill="#D8D4D4"/>
<path d="M4.03711 256.616L65.1104 218.236L98.5227 226.955L4.03711 256.616Z" fill="white"/>
<g style="mix-blend-mode:multiply">
<path d="M90.4045 259.752L67.8421 253.892L65.4753 255.376V252.976L65.0329 253.289L50.4337 249.147L26.522 279.835L26.6326 279.768L90.4045 259.752Z" fill="#A7A9AC"/>
</g>
<path d="M68.793 213.581C69.5921 213.084 70.3536 212.528 71.0713 211.918" stroke="#383838" stroke-linecap="round" stroke-linejoin="round"/>
<path d="M74.8316 207.754C77.1465 204.318 78.9465 200.556 80.1736 196.59C81.91 191.355 83.1598 185.561 81.2796 180.37C79.3994 175.179 73.3385 171.205 68.3394 173.471C63.661 175.603 62.3338 182.402 64.9439 186.867C67.5541 191.332 72.9735 193.565 78.1053 193.565C83.2372 193.565 88.1921 191.712 92.9257 189.703C113.406 181.019 132.343 169.017 148.989 154.17C167.68 137.503 183.197 117.487 201.767 100.675C220.337 83.8631 243.242 69.9759 268.127 69.5293C275.802 69.2494 283.443 70.7025 290.491 73.7826C295.788 76.2299 300.503 79.798 304.316 84.2451C308.128 88.6922 310.949 93.9145 312.587 99.5581C314.226 105.202 314.643 111.135 313.811 116.955C312.979 122.776 310.918 128.348 307.766 133.294C299.67 146.009 285.646 153.02 271.578 158.825" stroke="#383838" stroke-linecap="round" stroke-linejoin="round" stroke-dasharray="5.06 5.06"/>
<path d="M269.068 159.751L266.446 160.868" stroke="#383838" stroke-linecap="round" stroke-linejoin="round"/>
<path d="M334.332 359.943C325.484 356.907 319.169 353.044 311.106 349.059C304.525 345.788 298.022 341.769 293.83 335.663C289.639 329.557 288.3 321.039 292.182 314.788C296.064 308.536 306.085 306.527 310.984 312.008C316.127 317.746 313.34 326.978 309.137 333.453C292.216 359.463 259.367 369.644 228.698 372.893C215.603 374.277 202.154 374.735 189.446 371.386C177.479 368.238 166.563 361.841 156.642 354.406C146.367 346.704 136.568 337.159 132.996 324.757C131.109 317.782 131.277 310.404 133.479 303.524C135.681 296.645 139.821 290.562 145.394 286.02" stroke="#383838" stroke-linecap="round" stroke-linejoin="round" stroke-dasharray="5.1 5.1"/>
<g style="mix-blend-mode:multiply">
<path d="M347.792 376.666L321.58 381.154L340.636 385.776V398.937L363.84 396.615V380.573L347.792 376.666Z" fill="#A7A9AC"/>
</g>
<path d="M389.522 392.619L342.02 360.245L360.313 355.087L389.522 392.619Z" fill="white"/>
<path d="M341.942 359.765V375.94L389.445 392.551L341.942 359.765Z" fill="#D8D4D4"/>
<path d="M389.445 392.551L339.055 360.881L311.483 368.081L389.445 392.551Z" fill="white"/>
<path d="M248.275 131.341C248.275 132.056 248.065 132.755 247.671 133.35C247.277 133.945 246.717 134.409 246.063 134.682C245.408 134.956 244.687 135.028 243.992 134.888C243.297 134.749 242.659 134.404 242.157 133.898C241.656 133.393 241.315 132.748 241.177 132.046C241.038 131.345 241.109 130.618 241.381 129.957C241.652 129.296 242.111 128.731 242.701 128.333C243.29 127.936 243.983 127.724 244.691 127.724C245.162 127.724 245.628 127.817 246.063 127.999C246.497 128.181 246.892 128.447 247.225 128.783C247.558 129.119 247.822 129.518 248.002 129.957C248.182 130.395 248.275 130.866 248.275 131.341Z" stroke="white" stroke-miterlimit="10"/>
<path d="M124.215 297.496C124.215 298.211 124.005 298.91 123.611 299.505C123.217 300.1 122.657 300.563 122.003 300.837C121.348 301.111 120.627 301.183 119.932 301.043C119.237 300.903 118.599 300.559 118.097 300.053C117.596 299.547 117.255 298.903 117.117 298.201C116.978 297.5 117.049 296.772 117.321 296.111C117.592 295.451 118.051 294.886 118.64 294.488C119.23 294.091 119.923 293.879 120.631 293.879C121.582 293.879 122.493 294.26 123.165 294.938C123.837 295.616 124.215 296.536 124.215 297.496Z" stroke="white" stroke-miterlimit="10"/>
<path d="M360.401 244.515C360.401 245.23 360.19 245.93 359.796 246.525C359.402 247.12 358.842 247.584 358.186 247.857C357.531 248.131 356.81 248.202 356.114 248.061C355.419 247.921 354.78 247.575 354.28 247.068C353.779 246.561 353.438 245.916 353.301 245.213C353.164 244.511 353.237 243.783 353.51 243.123C353.783 242.462 354.244 241.898 354.835 241.502C355.425 241.106 356.119 240.896 356.828 240.898C357.299 240.896 357.765 240.989 358.2 241.17C358.635 241.352 359.029 241.618 359.362 241.954C359.694 242.291 359.957 242.69 360.135 243.13C360.313 243.569 360.404 244.04 360.401 244.515Z" stroke="white" stroke-miterlimit="10"/>
<path d="M441.526 146.188C441.526 146.903 441.316 147.603 440.922 148.197C440.529 148.792 439.969 149.256 439.314 149.53C438.659 149.803 437.939 149.875 437.244 149.735C436.549 149.596 435.91 149.251 435.409 148.746C434.908 148.24 434.567 147.595 434.428 146.894C434.29 146.192 434.361 145.465 434.632 144.804C434.903 144.143 435.363 143.578 435.952 143.181C436.541 142.783 437.234 142.571 437.943 142.571C438.893 142.571 439.805 142.952 440.477 143.63C441.149 144.309 441.526 145.229 441.526 146.188Z" stroke="white" stroke-miterlimit="10"/>
<path d="M35.5468 181.107C35.5468 181.822 35.3366 182.522 34.9429 183.116C34.5491 183.711 33.9894 184.175 33.3346 184.449C32.6799 184.722 31.9594 184.794 31.2642 184.654C30.5691 184.515 29.9306 184.17 29.4294 183.664C28.9283 183.159 28.587 182.514 28.4487 181.813C28.3105 181.111 28.3814 180.384 28.6527 179.723C28.9239 179.062 29.3832 178.497 29.9725 178.1C30.5618 177.702 31.2546 177.49 31.9633 177.49C32.9137 177.49 33.8252 177.871 34.4972 178.549C35.1692 179.228 35.5468 180.148 35.5468 181.107Z" stroke="white" stroke-miterlimit="10"/>
<path d="M158.014 78.3596C158.014 79.075 157.804 79.7743 157.41 80.3691C157.016 80.9639 156.457 81.4275 155.802 81.7012C155.147 81.975 154.427 82.0466 153.732 81.907C153.036 81.7675 152.398 81.423 151.897 80.9172C151.396 80.4113 151.054 79.7669 150.916 79.0652C150.778 78.3636 150.849 77.6364 151.12 76.9755C151.391 76.3146 151.85 75.7497 152.44 75.3523C153.029 74.9548 153.722 74.7427 154.431 74.7427C154.902 74.7412 155.368 74.8338 155.804 75.015C156.239 75.1963 156.635 75.4626 156.968 75.7988C157.301 76.1349 157.565 76.5343 157.744 76.9737C157.924 77.4132 158.016 77.8842 158.014 78.3596Z" stroke="white" stroke-miterlimit="10"/>
<path d="M175.91 86.1738C176.453 86.1738 176.894 85.729 176.894 85.1803C176.894 84.6316 176.453 84.1868 175.91 84.1868C175.366 84.1868 174.925 84.6316 174.925 85.1803C174.925 85.729 175.366 86.1738 175.91 86.1738Z" fill="white"/>
<path d="M367.236 238.263C367.236 238.067 367.294 237.874 367.402 237.711C367.51 237.548 367.664 237.42 367.843 237.345C368.023 237.27 368.221 237.25 368.412 237.289C368.603 237.327 368.779 237.422 368.916 237.561C369.054 237.699 369.148 237.876 369.186 238.069C369.224 238.262 369.204 238.462 369.13 238.643C369.055 238.825 368.929 238.98 368.767 239.089C368.605 239.198 368.415 239.257 368.22 239.257C367.959 239.257 367.709 239.152 367.524 238.966C367.34 238.779 367.236 238.527 367.236 238.263Z" fill="white"/>
<path d="M438.518 289.983C438.518 289.786 438.576 289.594 438.684 289.431C438.792 289.267 438.946 289.14 439.126 289.065C439.306 288.99 439.503 288.97 439.694 289.008C439.885 289.047 440.061 289.141 440.198 289.28C440.336 289.419 440.43 289.596 440.468 289.789C440.506 289.982 440.486 290.181 440.412 290.363C440.337 290.545 440.211 290.7 440.049 290.809C439.887 290.918 439.697 290.976 439.502 290.976C439.241 290.976 438.991 290.872 438.806 290.685C438.622 290.499 438.518 290.246 438.518 289.983Z" fill="white"/>
<path d="M194.214 398.401C194.757 398.401 195.198 397.956 195.198 397.408C195.198 396.859 194.757 396.414 194.214 396.414C193.67 396.414 193.229 396.859 193.229 397.408C193.229 397.956 193.67 398.401 194.214 398.401Z" fill="white"/>
<path d="M308.994 235.539C308.994 235.343 309.052 235.151 309.16 234.987C309.268 234.824 309.422 234.696 309.602 234.621C309.782 234.546 309.98 234.526 310.171 234.565C310.361 234.603 310.537 234.698 310.675 234.837C310.812 234.976 310.906 235.153 310.944 235.345C310.982 235.538 310.962 235.738 310.888 235.919C310.813 236.101 310.687 236.256 310.525 236.365C310.363 236.474 310.173 236.533 309.978 236.533C309.717 236.533 309.467 236.428 309.282 236.242C309.098 236.055 308.994 235.803 308.994 235.539Z" fill="white"/>
<path d="M87.0532 282.548C87.0532 282.352 87.111 282.159 87.2191 281.996C87.3273 281.833 87.481 281.705 87.6609 281.63C87.8407 281.555 88.0387 281.535 88.2296 281.574C88.4205 281.612 88.5959 281.707 88.7336 281.845C88.8713 281.984 88.965 282.161 89.003 282.354C89.041 282.547 89.0215 282.747 88.947 282.928C88.8725 283.11 88.7463 283.265 88.5844 283.374C88.4226 283.483 88.2322 283.542 88.0376 283.542C87.7765 283.542 87.5261 283.437 87.3415 283.251C87.1569 283.064 87.0532 282.812 87.0532 282.548Z" fill="white"/>
<path d="M436.306 154.907C436.306 154.71 436.364 154.518 436.472 154.355C436.58 154.191 436.734 154.064 436.914 153.989C437.094 153.914 437.292 153.894 437.483 153.932C437.673 153.971 437.849 154.065 437.987 154.204C438.124 154.343 438.218 154.52 438.256 154.713C438.294 154.906 438.274 155.105 438.2 155.287C438.125 155.468 437.999 155.624 437.837 155.733C437.675 155.842 437.485 155.9 437.29 155.9C437.029 155.9 436.779 155.795 436.594 155.609C436.41 155.423 436.306 155.17 436.306 154.907Z" fill="white"/>
<path d="M78.6914 245.329C78.6914 245.133 78.7491 244.941 78.8573 244.777C78.9655 244.614 79.1192 244.487 79.2991 244.412C79.4789 244.336 79.6768 244.317 79.8678 244.355C80.0587 244.393 80.2341 244.488 80.3718 244.627C80.5094 244.766 80.6032 244.943 80.6412 245.136C80.6791 245.328 80.6597 245.528 80.5852 245.71C80.5107 245.891 80.3845 246.046 80.2226 246.156C80.0607 246.265 79.8704 246.323 79.6757 246.323C79.4147 246.323 79.1643 246.218 78.9797 246.032C78.7951 245.846 78.6914 245.593 78.6914 245.329Z" fill="white"/>
<path d="M262.664 95.004C262.664 94.7405 262.767 94.4878 262.952 94.3015C263.136 94.1152 263.387 94.0105 263.648 94.0105C263.909 94.0105 264.159 94.1152 264.344 94.3015C264.529 94.4878 264.632 94.7405 264.632 95.004C264.632 95.1345 264.607 95.2637 264.557 95.3842C264.508 95.5048 264.435 95.6143 264.344 95.7066C264.253 95.7988 264.144 95.872 264.025 95.9219C263.905 95.9719 263.777 95.9976 263.648 95.9976C263.519 95.9976 263.391 95.9719 263.271 95.9219C263.152 95.872 263.043 95.7988 262.952 95.7066C262.86 95.6143 262.788 95.5048 262.738 95.3842C262.689 95.2637 262.664 95.1345 262.664 95.004Z" fill="white"/>
<path d="M253.318 124.152C253.318 123.955 253.376 123.763 253.484 123.6C253.592 123.436 253.746 123.309 253.926 123.234C254.106 123.159 254.304 123.139 254.495 123.177C254.686 123.216 254.861 123.31 254.999 123.449C255.136 123.588 255.23 123.765 255.268 123.958C255.306 124.151 255.287 124.35 255.212 124.532C255.138 124.713 255.011 124.869 254.85 124.978C254.688 125.087 254.497 125.145 254.303 125.145C254.042 125.145 253.791 125.041 253.607 124.854C253.422 124.668 253.318 124.415 253.318 124.152Z" fill="white"/>
<path d="M120.598 307.844C120.598 307.581 120.701 307.328 120.886 307.142C121.071 306.955 121.321 306.851 121.582 306.851C121.843 306.851 122.093 306.955 122.278 307.142C122.463 307.328 122.566 307.581 122.566 307.844C122.566 308.108 122.463 308.36 122.278 308.547C122.093 308.733 121.843 308.838 121.582 308.838C121.321 308.838 121.071 308.733 120.886 308.547C120.701 308.36 120.598 308.108 120.598 307.844Z" fill="white"/>
<path d="M40.9663 183.44C41.5099 183.44 41.9506 182.995 41.9506 182.446C41.9506 181.898 41.5099 181.453 40.9663 181.453C40.4226 181.453 39.9819 181.898 39.9819 182.446C39.9819 182.995 40.4226 183.44 40.9663 183.44Z" fill="white"/>
<path d="M282.14 117.811L276.157 123.839" stroke="white" stroke-linecap="round" stroke-linejoin="round"/>
<path d="M276.157 117.811L282.14 123.839" stroke="white" stroke-linecap="round" stroke-linejoin="round"/>
<path d="M407.483 344.058L401.511 350.086" stroke="white" stroke-linecap="round" stroke-linejoin="round"/>
<path d="M401.511 344.058L407.483 350.086" stroke="white" stroke-linecap="round" stroke-linejoin="round"/>
<path d="M111.075 258.469L105.103 264.497" stroke="white" stroke-linecap="round" stroke-linejoin="round"/>
<path d="M105.103 258.469L111.075 264.497" stroke="white" stroke-linecap="round" stroke-linejoin="round"/>
<path d="M335.594 229.444L329.622 235.472" stroke="white" stroke-linecap="round" stroke-linejoin="round"/>
<path d="M329.622 229.444L335.594 235.472" stroke="white" stroke-linecap="round" stroke-linejoin="round"/>
<path d="M56.8821 200.788L50.9097 206.827" stroke="white" stroke-linecap="round" stroke-linejoin="round"/>
<path d="M50.9097 200.788L56.8821 206.827" stroke="white" stroke-linecap="round" stroke-linejoin="round"/>
<path d="M182.601 348.523L176.617 354.552" stroke="white" stroke-linecap="round" stroke-linejoin="round"/>
<path d="M176.617 348.523L182.601 354.552" stroke="white" stroke-linecap="round" stroke-linejoin="round"/>
<path d="M95.2266 86.5535L89.2432 92.5817" stroke="white" stroke-linecap="round" stroke-linejoin="round"/>
<path d="M89.2432 86.5535L95.2266 92.5817" stroke="white" stroke-linecap="round" stroke-linejoin="round"/>
</svg>
